<?xml version="1.0" encoding="utf-8"?>
<!-- Generator: Adobe Illustrator 20.1.0, SVG Export Plug-In . SVG Version: 6.00 Build 0)  -->
<svg version="1.1" id="Layer_1" xmlns="http://www.w3.org/2000/svg" xmlns:xlink="http://www.w3.org/1999/xlink" x="0px" y="0px"
	 viewBox="0 0 100 100" style="enable-background:new 0 0 100 100;" xml:space="preserve">
<g id="Shape_16">
	<path d="M78.6,31.7c2.5-0.1,5-0.1,7.5,0.2c0,14.2,0,28.4,0,42.7c0,0.3,0,0.6-0.2,0.9c-0.3,0.4-0.8,0.4-1.3,0.4c-2.2,0-4.5,0-6.7,0
		c-0.1-0.5-0.2-1.1-0.3-1.6c-3.5,2.4-8.1,3-12.1,1.5c-3.5-1.4-6.3-4.3-7.5-7.8c-0.4-1.1-0.6-2.2-0.9-3.3c-0.4-1.7-0.7-3.4-0.7-5.1
		c0-1.7,0.3-3.4,0.8-5.1c0.5-1.8,1-3.6,1.9-5.2c2.9-5.3,9.6-8.1,15.5-6.5c0.7,0.2,1.4,0.4,2,0.7c0.3,0.1,0.7,0.2,1,0.4
		c0-3.6,0-7.3,0.1-10.9c0-0.3,0-0.6,0.2-0.8C78.1,31.7,78.4,31.7,78.6,31.7 M77.3,51.6c-0.3-0.5-0.8-0.8-1.4-1.1
		c-1.8-1-3.9-1.3-5.9-1c-0.6,0.1-1.3,0.3-1.8,0.6c-0.9,0.6-1.4,1.5-1.7,2.5c-1.5,3.8-1.7,8.1-0.6,12c0.3,1.2,0.8,2.4,1.7,3.3
		c0.8,0.8,1.9,1.3,3,1.4c1.3,0.1,2.5-0.3,3.6-0.9c1.4-0.8,2.6-2,3.4-3.4c0-3.6,0-7.2,0.1-10.8C77.7,53.3,77.7,52.4,77.3,51.6z"/>
	<path d="M37.1,67.5c0.7-0.3,1.3-0.8,1.9-1.3c1.8-1.7,2.7-4.1,3.1-6.6c0-0.3,0.4-0.3,0.6-0.3c2.4,0,4.9,0,7.3,0c0.2,0,0.5,0,0.6,0.2
		c0.2,0.2,0.1,0.4,0.1,0.7c-0.5,4.1-2.2,8.1-5.2,11.1c-2.4,2.3-5.4,3.9-8.7,4.6c-3.8,0.9-7.8,0.8-11.5-0.4c-1.1-0.3-2.2-0.7-3.2-1.2
		c-1.1-0.5-2.1-1.2-3-1.9c-3.5-2.7-6.1-6.6-7.3-11c-1.1-3.9-0.9-8.1-0.7-12.2c0.3-5.5,2.9-10.9,7.1-14.5s9.8-5.5,15.3-5
		c4.4,0.4,8.7,2.3,11.9,5.4c2.8,2.7,4.7,6.4,5.3,10.3c0,0.2,0.1,0.5-0.1,0.6c-0.1,0.1-0.4,0.2-0.6,0.2c-2.3,0-4.6,0-6.9,0.1
		c-0.5,0-1.3-0.1-1.3-0.7c-0.3-4.2-4.2-7.5-8.4-8.1c-5.1-0.7-10.4,2.3-12.4,7c-1,2.4-1.2,5.1-1.2,7.8c0,3.8,0.2,7.7,2.2,11
		c1.5,2.4,3.9,4.3,6.7,5S34.6,68.8,37.1,67.5 M19.7,55.2c0.3-1.3,0.4-2.7,0.1-4c0-0.1-0.2-0.2-0.3-0.2
		C19.4,52.5,19.2,53.9,19.7,55.2z"/>
</g>
</svg>
