<?xml version="1.0" encoding="utf-8"?>
<!-- Generator: Adobe Illustrator 20.1.0, SVG Export Plug-In . SVG Version: 6.00 Build 0)  -->
<svg version="1.1" id="Layer_1" xmlns="http://www.w3.org/2000/svg" xmlns:xlink="http://www.w3.org/1999/xlink" x="0px" y="0px"
	 viewBox="0 0 100 100" style="enable-background:new 0 0 100 100;" xml:space="preserve">
<g id="Shape_14">
	<path d="M72.7,79.3c0,0.9,0.1,1.7,0.1,2.6c0,0.5-0.1,1-0.7,1.1c-0.6,0.1-0.9-0.3-1.1-0.9c-0.1-0.3-0.3-0.6-0.5-1
		c-0.1-0.3-0.3-0.7-0.4-1c-0.3-0.7-0.5-1.3-0.8-2c-0.1-0.1-0.1-0.3-0.2-0.3c-0.9-0.4-0.6-1.1-0.4-1.7c0.1-0.4,0.1-0.6-0.2-0.7
		c-0.8-0.2-1.2-0.9-1.6-1.5c-0.4-0.5-0.7-1.2-1.5-1.1c-0.1,0-0.3,0.1-0.4,0.2c-0.5,0.8-1,1.6-1.5,2.4c-0.1,0.2-0.2,0.4-0.1,0.5
		c0.2,1.1-0.6,1.8-1.2,2.6c-0.4,0.6-0.8,1.3-1.2,2c-0.1,0.2-0.1,0.5-0.1,0.8c0,1-0.3,1.5-1.2,1.6c-0.9,0.1-1.4,0.3-1.3,1.2
		c0.1,0.9-0.7,1.4-1.1,2c-0.5,0.8-1.2,1.4-1.8,2.1c-0.4,0.5-0.9,0.7-1.5,0.7c-0.1,0-0.3,0-0.4,0c-0.8,0.4-1.6,0.8-2.3,1.3
		c-0.5,0.3-1.7,0.4-2.3,0c-0.6-0.4-1.2-0.6-1.9-0.5c-0.9,0.1-1.6-0.4-2.2-0.9c-0.7-0.6-1.6-1.2-2.3-1.8c-0.1-0.1-0.2-0.2-0.3-0.3
		c-0.5-0.9-1-1.8-1.6-2.6c-0.3-0.4-0.7-0.8-1.1-1.1c-0.7-0.5-0.8-1.2-0.9-2c0-0.3-0.2-0.6-0.3-0.9c-0.1-0.3-0.3-0.6-0.4-0.9
		c-0.1-0.4-0.2-0.7-0.4-1.1c-0.3-0.7-0.8-1.3-1-2c-0.2-0.7-0.1-1.4-0.2-2.1c0-0.4-0.2-0.7-0.5-1c-0.7-0.6-1.2-1.3-1.2-2.3
		c0-0.6-0.1-0.8-0.8-0.6c-0.5,0.2-0.7,0.5-1.1,0.8c-0.9,0.9-0.7,2-0.7,3c0,1.8,0,3.6,0,5.4c0,0.5-0.1,1-0.6,1c-0.6,0.1-1-0.3-1-0.9
		c0-0.6-0.2-1-0.6-1.4c-0.1-0.1-0.3-0.4-0.2-0.5c0.1-0.6-0.5-0.8-0.6-1.2c-0.2-0.7-0.2-1.5-0.3-2.3c0-0.3,0.1-0.7,0.1-1
		c0-0.4-0.1-0.8,0.4-1.1c0.2-0.1,0.2-0.7,0.3-1.1c0-0.2,0-0.5,0.2-0.6c0.7-0.8,0.6-1.8,0.7-2.7c0-0.2,0.1-0.4,0.3-0.6
		c0.8-1,1.5-1.9,1.3-3.3c-0.1-0.9,0.1-1.8,0.1-2.7c0-0.1,0-0.3,0.1-0.3c0.9-0.1,0.6-0.8,0.6-1.3c0-0.1-0.1-0.3-0.2-0.4
		c-0.9-0.2-0.7-0.9-0.7-1.4c0-0.8,0.1-1.6,0.1-2.4c0-1.6-0.1-3.2-0.1-4.7c0-0.2-0.1-0.5-0.2-0.5c-0.3,0-0.5,0-0.8,0.1
		c-0.1,0-0.1,0.1-0.2,0.1c-0.8,0.9-1.5,1.8-2.3,2.7c-0.9,1.1-1.8,2.2-2.9,3.1c-0.6,0.5-1.4,1.4-1.1,2.5c0.1,0.5,0.1,1.1-0.5,1.5
		c-0.4,0.2-0.8,0.2-1.1-0.3c-0.1-0.1-0.1-0.3-0.2-0.4c-1.4-1-0.8-2.5-0.8-3.8c0-0.5,0.7-0.9,1.1-1.4c0.7-0.8,1.4-1.6,2.1-2.4
		c0.5-0.6,0.8-1.3,1.3-1.9c0.2-0.3,0.5-0.5,0.7-0.7c0.3-0.3,0.5-0.5,0.8-0.8c0.5-0.5,1.1-1,1.7-1.5c0.4-0.4,0.9-0.7,1.4-1.1
		c0.5-0.3,1-0.6,1.5-0.8c0.6-0.3,0.7-0.9,0.7-1.4c0-0.4,0-0.8,0.5-1.1c0.3-0.2,0.3-0.7,0.5-1c0.4-0.5,0.9-1,1.3-1.5
		c0.3-0.3,0.3-0.8,0.8-1c0.1,0,0.2-0.3,0.2-0.5c-0.1-1.3,0.9-2.1,1.4-3.1c0.3-0.5,0.7-1,0.9-1.6c0.2-0.6-0.2-0.9-0.6-1.3
		c-0.6-0.6-1.2-1.3-1.7-1.9c-0.8-0.9-1.3-2.1-1.9-3.1c-0.4-0.6-0.8-1.1-1.2-1.8c-0.2-0.3-0.2-0.8-0.4-1.1c-0.1-0.3-0.3-0.5-0.4-0.8
		c-0.1-0.2-0.3-0.4-0.4-0.7c-0.2-0.5-0.4-1-0.7-1.5c-0.3-0.5-0.1-1,0.2-1.4c0.2-0.3,0.3-0.7,0.4-1c0.1-0.5,0.1-0.9,0.8-0.6
		c0.3,0.1,0.7,0.1,1,0.2c0.5,0.2,0.8,0.5,0.8,1.1c0.1,0.7,0.9,1.1,0.8,1.9c-0.1,0.4-0.1,0.8,0,1.2c0,0.2,0.1,0.4,0.2,0.6
		c0.6,0.8,1.2,1.5,1.8,2.3c0.4,0.6,0.8,1.2,1.2,1.7c0,0,0.1,0.1,0.1,0.1c-0.3,1.4,1.1,1.3,1.7,1.8c0.3,0.3,1.1,0,1.7-0.1
		c0.3-0.1,0.6-0.3,0.9-0.6c0.5-0.5,1.1-0.8,1.2-1.7c0.1-0.7,0.7-1.3,1.1-1.9c0.5-0.6,0.6-2.6,0.1-3.3c-0.4-0.7-0.7-1.5-1.6-1.8
		c-0.3-0.1-0.4-0.5-0.6-0.7c-0.2-0.2-0.5-0.4-0.8-0.6c-0.1-0.1-0.3-0.1-0.4-0.2c-0.4-0.7-1.3-0.9-1.4-1.9c-0.1-0.5-0.7-0.9-1-1.3
		c-0.4-0.4-0.8-0.9-1.2-1.3c0,0,0-0.3,0.1-0.3c0.4,0,0.8-0.1,1.1,0c1,0.7,1.9,1.4,2.9,2.1c1,0.8,2.1,1.6,3.1,2.4
		c1,0.8,1.9,1.5,2.9,2.3c0.3,0.2,0.5,0.6,0.7,0.9c0.2,0.3,0.4,0.7,0.9,0.6c0.3,0,0.6,0.1,0.8,0.3c0.7,0.7,1.5,0.7,2.2,0
		c0.4-0.4,0.7-0.8,1.1-1.2c0.3-0.3,0.6-0.5,0.9-0.7c0.5-0.5,1.1-0.9,1.6-1.4c0.4-0.3,0.8-0.7,1.3-1c1.2-0.7,2.3-1.7,3.9-1.3
		c0.3,0.1,0.7-0.1,1-0.1c0.5,0,0.8,0.4,0.6,0.8c-0.4,0.5-0.9,1-1.4,1.2c-0.5,0.2-0.8,0.4-1,0.9c-0.3,0.8-2.2,1.7-3,1.6
		c-0.1,0-0.3,0.1-0.3,0.2c0,0.4,0,0.8,0,1.2c0,0.5-0.1,0.9-0.6,1.2c-0.2,0.1-0.3,0.5-0.4,0.7c-0.1,0.3-0.2,0.6-0.4,0.8
		c-0.7,0.4-0.4,0.9-0.1,1.4c0.4,0.6,0.8,1.2,1.4,1.7c0.6,0.5,1.3,0.9,2,1.3c0.1,0.1,0.2,0.1,0.3,0.1c0.5,0,0.5,0.9,1.1,0.5
		c0.4-0.2,0.8-0.4,1.1-0.7c0.6-0.6,1.6-0.8,1.6-2c0-0.4,0.5-0.8,0.9-1.1c0.6-0.4,1.2-0.6,1.9-0.9c0.1,0,0.2,0,0.2-0.1
		c0.6-0.8,1.6-1.3,2-2.3c0.4-0.9,1-1.6,1.5-2.4c0.1-0.2,0.4-0.4,0.7-0.4c0.5-0.1,0.8-0.3,1.2-0.6c0.2-0.2,0.7-0.2,1.1-0.1
		c0.4,0.1,0.6,0.3,0.2,0.7c-0.2,0.2-0.3,0.6-0.3,0.9c-0.2,1-1,1.5-1.4,2.3c-0.2,0.3-0.5,0.6-0.7,1c-0.3,0.5-0.6,0.9-1.3,1
		c-0.9,0.1-1,0.8-1.1,1.5c-0.1,0.5-0.3,0.8-0.7,1.1c-0.4,0.2-0.6,0.6-1,0.9c-0.3,0.3-0.6,0.6-0.9,0.7c-0.8,0.2-1.2,0.9-1.6,1.5
		c0,0,0,0.1,0,0.1c-1,0.9-0.7,2.4-1.5,3.4c-0.1,0.2,0,0.5,0.1,0.8c0.1,0.3,0.4,0.6,0.6,0.9c0.8,0.9,1.5,1.8,2.3,2.8
		c0.6,0.8,1.2,1.6,1.8,2.5c0.1,0.1,0.1,0.3,0.1,0.4c0.1,1.1,0,2.2,0.2,3.3c0.2,0.9,0.5,1.8,0.9,2.7c0.1,0.2,0.6,0.2,0.9,0.3
		c0.1,0,0.2,0,0.3,0c-0.1,0.1-0.2,0.2-0.2,0.3c-0.1,0.3-0.2,0.7-0.3,1c0.5,0,1,0.1,1.4,0c0.2,0,0.4-0.3,0-0.5
		c-0.3-0.1-0.7-0.4-0.7-0.7c0-0.3,0.3-0.7,0.5-1c0,0,0.2,0,0.3,0c0,0.1,0,0.1,0,0.2c0.1,0.2,0.2,0.4,0.3,0.5c0.5,0.4,1,0.7,1.5,1
		c0.6,0.4,1.3,0.8,1.9,1.3c0.7,0.5,1.3,1.1,1.9,1.7c0.6,0.5,1.2,1,1.6,1.6c0.6,0.8,1.5,1.5,1.7,2.6c0.1,0.5,0.7,1,0.6,1.7
		c0,0.3-0.2,0.6-0.3,0.9c-0.2-0.1-0.4-0.3-0.6-0.4c-0.5-0.4-1-0.8-1.5-1.2c-0.6-0.5-0.4-1.1-0.3-1.7c0.2-0.6,0-0.8-0.5-0.8
		c-0.4,0-0.9-0.1-1.3,0c-1.2,0.2-1.5-0.9-2.2-1.4c-1-0.6-1.5-1.8-2.8-2.1c-0.2,0-0.3-0.4-0.5-0.5c-0.2-0.1-0.4-0.3-0.7-0.3
		c-0.1,0-0.3,0.2-0.3,0.4c-0.2,0.7-0.5,1.5-0.6,2.2c-0.1,1.1-0.1,2.2-0.1,3.3c0,0.9-0.1,1.8-0.1,2.7c0,0.2,0,0.4,0,0.6
		c0,1.1,0,2.2,0,3.3c0,0.7,0.3,1.5-0.5,2.1c-0.2,0.1-0.2,0.5-0.2,0.7c0,0.8,0,1.5,0,2.3c0,0.2,0,0.4,0.1,0.6c0.5,0.6,1,1.2,1.4,1.9
		c0.2,0.3,0.1,0.7,0.2,1c0.1,0.2,0.1,0.5,0.3,0.7c0.1,0.2,0.3,0.5,0.5,0.7c0.3,0.6,0.7,1.3,0.9,1.9c0.4,1,0.9,1.9,1.4,2.8
		C72.6,78.4,72.6,78.8,72.7,79.3 M51.3,70c-0.2-0.1-0.5-0.1-0.6-0.3c-0.6-0.7-0.8-1.5-0.8-2.4c0.1-1-0.1-1.1-1.1-1.2
		c-0.1,0-0.2-0.1-0.3-0.1c-0.6,0-1.2-0.1-1.8,0c-0.2,0-0.3,0.5-0.4,0.8c-0.1,0.1-0.2,0.1-0.3,0.2c0-0.1-0.1-0.2-0.1-0.3
		c-0.1-0.5-0.1-1-0.1-1.5c0-0.5-0.2-0.8-0.8-0.8c-0.9,0-1.8,0-2.7,0c-1,0-1.6,0.6-1.6,1.6c0,0.4-0.1,0.9-0.2,1.3
		c0,0.2-0.2,0.3-0.4,0.4c-0.1-0.1-0.2-0.3-0.2-0.4c-0.1-0.4-0.2-0.8-0.1-1.2c0-0.6-0.2-0.8-0.8-0.8c-1,0-2,0.2-2.9-0.1
		c-0.1,0-0.4,0.2-0.4,0.3c0,0.3-0.1,0.7,0.4,0.7c0.2,0,0.4,0,0.6,0c0.5,0,1-0.2,1.4-0.1c0.3,0,0.7,0.3,0.8,0.5
		c0.1,0.4,0,0.9-0.1,1.3c0,0.1-0.4,0.1-0.5,0c-0.1-0.1-0.2-0.4-0.3-0.5c-0.1-0.1-0.2-0.1-0.3-0.1c0,0.3-0.1,0.6,0,0.9
		c0.1,0.2,0.4,0.3,0.6,0.4c0.6,0,1.3,0,1.9,0c0.7,0,1.4,0.1,2,0.1c1.3,0,2.7,0,4,0c0.3,0,0.8,0,0.9,0.2c0.4,0.4,0.8,0.3,1.3,0.4
		c0.2,0,0.4,0.3,0.7,0.4c-0.2,0.2-0.5,0.6-0.7,0.6c-0.9-0.1-1.9,0.3-2.6-0.7c-0.1-0.1-0.4,0-0.7,0c-1.2,0-2.4-0.2-3.6-0.1
		c-0.5,0-1.2-0.2-1.6,0.5c-0.2,0.3-0.9,0.3-1.1,0c-0.1-0.1-0.3-0.3-0.4-0.3c-0.7,0-1.4,0-2.2,0c-0.1,0-0.3,0.1-0.3,0.2
		c0,0.2,0,0.4,0.2,0.5c0.2,0.2,1.6,2.4,1.6,2.6c0,0.3,0,0.6,0,0.9c0,0.1,0,0.2,0,0.4c0,0.1,0.1,0.2,0.1,0.4c0.1-0.1,0.1-0.2,0.2-0.3
		c0.1-0.1,0.3-0.4,0.4-0.4c0.8-0.1,1.6-0.2,2.4-0.1c0.7,0.1,0.9,0,0.9-0.7c0-0.3-0.2-0.7-0.4-0.8c-0.6-0.4-0.6-0.9-0.4-1.5
		c0.1-0.1,0.2-0.3,0.2-0.4c0.1,0.1,0.3,0.3,0.4,0.4c0.1,0.5,0.3,0.6,0.8,0.6c0.4,0,0.7-0.1,1.1-0.1c0.2,0,0.7,0.1,0.7,0.2
		c0,0.4,0,0.8-0.1,1.2c-0.1,0-0.2,0-0.3-0.1c-0.1-0.1-0.2-0.4-0.3-0.4c-0.2-0.1-0.5-0.2-0.7-0.3c-0.1,0-0.3,0.1-0.3,0.2
		c0,0.3,0,0.6,0.2,0.8c0.2,0.2,0.6,0.3,0.8,0.2c0.5-0.3,0.7,0,0.9,0.4c0.1,0.1,0.2,0.2,0.3,0.3c0.1-0.1,0.2-0.2,0.3-0.4
		c0.1-0.5,0.1-1.1,0.2-1.6c0-0.2,0.2-0.4,0.3-0.6c0.2,0.2,0.4,0.5,0.5,0.7c0.1,0.1,0,0.3,0,0.4c0,0.6,0.1,1,0.8,0.6
		c0.4-0.2,0.8,0,0.9,0.4c0.3,0.8-0.1,1.3-1,1.3c-1.8,0-3.6,0.1-5.4,0c-1.1-0.1-1.8,0.6-2.6,1C38.2,75.5,38,76,38,76.1
		c0.2,0.4,0.6,0.7,1,0.9c0.1,0.1,0.5-0.2,0.7-0.4c0.2-0.3,0.4-0.6,0.6-0.9c0.2-0.2,0.5-0.2,0.7-0.2c0,0.3,0.1,0.6,0.1,0.9
		c0,0.1-0.2,0.3-0.3,0.4c-0.4,0.3-0.2,0.6,0,0.9c0.2,0.3,0.5,0.7,0.6,1.1c0,0.2-0.3,0.6-0.5,0.8c-0.1,0.1-0.5-0.1-0.7-0.2
		c-0.3-0.4,0-0.6,0.3-0.8c0.1-0.1,0.1-0.2,0.2-0.4c-0.2-0.1-0.4-0.2-0.7-0.3c-0.1,0-0.2,0.1-0.2,0.2c0,0.7-0.1,1.4,0,2.1
		c0,0.3,0.3,0.5,0.5,0.8c0.1,0.3,0.3,0.6,0.4,0.9c0,0.1,0.1,0.2,0.1,0.3c0.1-0.1,0.3-0.2,0.3-0.3c0.1-0.4,0.2-0.8,0.1-1.2
		c0-0.4,0.2-0.5,0.5-0.4c0.5,0,1.1,0,1.6,0c0.2,0,0.5,0.2,0.5,0.4c0.3,1.3,0.9,1.5,2,0.7c0.1-0.1,0.3-0.1,0.5-0.1
		c0,0,0.1,0.1,0.1,0.2c0,0.5,0.1,0.7,0.5,0.5c0.4-0.2,0.7-0.5,1-0.7c0.2-0.1,0.6-0.3,0.7-0.3c0.6,0.3,0.8,0,1-0.5
		c0.1-0.2,0.4-0.3,0.7-0.4c0.1,0.2,0.3,0.4,0.3,0.6c0,0.5,0,1.1,0,1.6c0,0.2,0.1,0.6,0.3,0.6c0.4,0.2,0.4,0.4,0.4,0.8
		c0.1,0.4,0,1,0.8,0.9c0.2,0,0.4,0.1,0.5,0.2c-0.2,0.2-0.2,0.6-0.7,0.3c-0.1-0.1-0.4,0.2-0.6,0.4c-0.1,0.1-0.2,0.3-0.4,0.5
		c-0.1-0.2-0.3-0.3-0.4-0.5c-0.1-0.2-0.1-0.4-0.2-0.5c0-0.1-0.2-0.2-0.2-0.1c-0.5,0.5-0.6,1.1-0.5,1.7c0.1,0.2,0.5,0.5,0.8,0.5
		c1,0,1.9,0,2.9-0.1c0.2,0,0.3-0.3,0.5-0.4c-0.1-0.1-0.3-0.2-0.4-0.2c-0.2,0-0.5,0.1-0.7,0.1c-0.1,0-0.3,0-0.3-0.1
		c-0.2-0.3-0.6-0.6,0.1-0.8c0.1,0,0.3-0.2,0.3-0.3c0-0.6,0.5-0.9,0.8-1.2c0.2-0.2,0.4-0.4,0.6-0.6c0.1-0.1,0.1-0.4,0-0.5
		c-0.5-0.8-0.5-1.2,0.3-1.8c0.2-0.2,0.3-0.4,0.5-0.6c0.3-0.5,0.7-1,1.4-0.9c0.2,0,0.5-0.3,0.7-0.5c0.2-0.2,0.3-0.5,0.5-0.6
		c0.5-0.4,0-0.7-0.2-0.7c-0.7,0.2-1.7-0.7-2.1,0.5c-0.1,0.2-0.3,0.3-0.5,0.3c-0.6,0.1-1.2,0.2-1.8,0.1c-1,0-2.5-1.5-2.6-2.5
		c0-0.1,0-0.2,0-0.3c0.1-0.2,0.2-0.3,0.3-0.4c0.2,0.1,0.4,0.2,0.4,0.4c0.1,0.2,0.1,0.5,0.2,0.8c0,0.1,0.3,0.2,0.3,0.1
		c0.2-0.1,0.4-0.3,0.5-0.5c0.2-0.4,0.6-0.3,0.8-0.1c0.4,0.4,0.6,0.3,1,0c1-0.6,1.5-0.4,1.7,0.7c0,0.1,0.2,0.2,0.2,0.1
		c0.4-0.4,1.3-0.2,1.3-1c0,0,0.1-0.1,0.2-0.1c1-0.2,1.9,0.4,2.3,1.4c0,0.1,0.3,0.3,0.4,0.3c0.4-0.3,0.8-0.5,1-0.9
		c0.2-0.3,0.3-0.8,0.3-1.2c0-0.1-0.3-0.3-0.5-0.3c-0.7,0-1.3,0-2,0c-0.3,0-0.6-0.1-0.8-0.2c-0.3-0.2-0.6-0.6-0.8-0.9
		c-0.1-0.2-0.1-0.5-0.1-0.8c0,0,0.2-0.1,0.3,0c0.6,0.1,1.1,0.3,1.6,0.4c0.3,0,0.6-0.2,0.8-0.3c0.1,0,0.1-0.2,0.1-0.3
		c-0.2-0.1-0.5-0.2-0.7-0.2c-1,0-1.9,0-2.9,0c-0.8,0-1-0.3-1-1.1c0-0.5-0.1-1-0.1-1.5c0-0.5-0.4-0.3-0.5-0.3
		C53.9,70.4,52.7,70.2,51.3,70 M43.4,29.8c-0.2,0.2-0.4,0.4-0.7,0.7c-0.2,0.2-0.4,0.4-0.5,0.7c-0.2,0.3-0.3,0.6-0.5,0.9
		c-0.6,0.7-0.5,1.3,0.2,1.8c0.5,0.4,0.4,0.9,0.3,1.3c-0.1,0.2-0.5,0.3-0.7,0.5c-0.1,0.1-0.3,0.2-0.3,0.3c0.1,1,0.2,2,0.3,2.9
		c0,0.7-0.1,1.2-0.6,1.8c-0.2,0.3-0.3,0.9-0.2,1.3c0.1,0.4,0.6,0.4,0.9,0.2c0.1-0.1,0.3,0,0.4,0c0.7,0,1.4,0.1,2.1,0.1
		c0.6,0,1.3-0.1,1.6,0.6c0,0.1,0.2,0.1,0.3,0.1c0.8,0.1,1.6,0.1,2.4,0.1c1.5,0,3-0.1,4.5-0.1c1.3,0,2.6,0,3.8,0c0.8,0,1-0.7,1.4-1.2
		c0.1-0.1-0.2-0.7-0.4-1.1c-0.1-0.3-0.3-0.7-0.4-1c-0.1-0.2-0.1-0.5-0.3-0.6c-0.4-0.4-0.7-0.8-0.6-1.4c0-0.4-0.1-0.6-0.5-0.5
		c-0.2,0-0.2,0.3-0.4,0.5c-0.1,0.2-0.3,0.4-0.4,0.7c-0.1-0.2-0.2-0.4-0.3-0.6c-0.2-0.2-0.4-0.5-0.6-0.5c-1-0.1-2-0.1-3,0
		c-0.3,0-0.8,0-0.7,0.6c0,0.1-0.2,0.3-0.3,0.3c-0.1,0-0.2-0.2-0.3-0.2c-0.2-0.2-0.3-0.5-0.6-0.6c-0.4-0.1-0.9,0-1.4,0
		c-0.1,0-0.2,0.2-0.2,0.2c0.5,1.1,0,2.2,0.1,3.3c0,0.2-0.2,0.4-0.2,0.5c-0.1-0.2-0.3-0.3-0.3-0.5c0-0.7,0-1.3,0-2
		c0-0.6,0-1.2-0.2-1.7c-0.2-0.5,0-0.7,0.5-0.7c1.3,0,2.6,0,3.9,0c0.5,0,1.1-0.1,1.6-0.4c0.6-0.3,1-0.5,1.5,0c0.3,0.3,0.5,0.1,0.8,0
		c0.4-0.2,0.8-0.3,1.2-0.5c0.2-0.1,0.4-0.2,0.7-0.4c-0.1-0.1-0.3-0.3-0.4-0.4c-0.1-0.1-0.3-0.3-0.3-0.5c-0.1-0.3-0.1-0.7-0.2-1
		c-0.1-0.6-0.6-0.4-0.9-0.4c-0.4,0.1-0.3,0.4-0.1,0.7c0.1,0.2,0,0.5-0.1,0.8c0,0.1-0.2,0.2-0.3,0.2c-0.1-0.2-0.2-0.5-0.2-0.7
		c-0.1-0.8-0.1-1.6-0.2-2.3c0-0.7-0.3-1-1.1-1c-0.5,0-1,0.1-1.5,0.1c-1.3,0-2.6,0-3.9,0c-0.2,0-0.3,0.1-0.5,0.1
		c0.1,0.1,0.3,0.2,0.4,0.3c0.1,0.1,0.2,0.2,0.2,0.3c-0.1,0.3-0.2,0.5,0.2,0.6c0.1,0,0.3-0.3,0.4-0.4c0.1-0.1,0.3-0.2,0.5-0.2
		c0.1,0,0.3,0.1,0.2,0.1c-0.1,0.6,0.1,1.1-0.2,1.7c-0.4,0.6-0.6,1.4-0.5,2.1c0.1,0.5-0.2,0.4-0.4,0.6c-0.1-0.2-0.2-0.3-0.3-0.5
		c-0.1-0.8-0.1-1.7-0.2-2.5c0-0.2-0.3-0.4-0.5-0.6c-0.1,0.2-0.3,0.4-0.4,0.6c0,0.8,0,1.7,0,2.5c0,0.4,0.1,0.8-0.5,0.9
		c-0.1,0-0.2,0.3-0.2,0.4c-0.1,1.4-0.1,2.7-0.2,4.1c0,0.2-0.3,0.4-0.4,0.5c-0.1-0.1-0.2-0.3-0.2-0.4c-0.1-1.1-0.1-2.1-0.2-3.2
		c0-0.3-0.2-0.6-0.3-0.9c0-0.1-0.2-0.2-0.2-0.2c-0.1,0.1-0.2,0.2-0.2,0.3c-0.1,0.8-0.2,1.7-0.1,2.5c0,0.7-0.1,1.2-0.5,1.8
		c-0.3,0.4-0.9,0.6-1,0.2c-0.2-0.7-0.3-1.4-1-1.8c0,0,0-0.2,0-0.3c0-0.8,0-1.5,0-2.3c0-0.1,0.1-0.3,0.2-0.3c0.2,0,0.5,0.1,0.5,0.2
		c0.1,0.4,0.2,0.8,0.2,1.2c0,0.7,0,1.3,0,2c0,0,0.2,0.1,0.2,0.1c0.2-0.2,0.4-0.4,0.5-0.6c0.1-0.7,0.1-1.5,0.2-2.3
		c0-0.2-0.1-0.5-0.2-0.6c-0.8-0.3-0.6-0.9-0.6-1.4c0-0.5,0.3-0.4,0.6-0.3c0.1,0.1,0.2,0.4,0.3,0.4c0.3,0.1,0.6,0.1,1,0.2
		c0-0.2-0.1-0.4-0.1-0.6c0-0.2-0.1-0.3-0.1-0.5c0-0.7,0-1.4,0-2c0-0.3-0.1-0.6-0.2-0.9c0-0.1-0.2-0.2-0.3-0.3
		c-0.1,0.1-0.2,0.3-0.2,0.4C44,32,44,32.4,43.9,32.7c-0.1,0.2-0.3,0.3-0.5,0.5c-0.1-0.2-0.2-0.4-0.2-0.5c0-0.3,0-0.6,0-0.9
		c-0.1-0.7-0.1-1.3,1-1.2c0.2,0,0.4-0.4,0.6-0.6c-0.2-0.1-0.4-0.2-0.7-0.3C43.9,29.7,43.7,29.7,43.4,29.8 M46.9,46.3
		c0,0-0.1,0-0.1,0c-0.3-0.9-0.5-2-1.2-2.7c0,0,0-0.1,0-0.1c-0.1-0.1-0.2-0.3-0.3-0.4c-0.1,0.1-0.1,0.3-0.2,0.4
		c-0.2,0.2-0.4,0.4-0.7,0.5c-0.2,0-0.6-0.2-0.6-0.3c-0.1-0.9-0.7-0.5-0.8-0.3c-0.4,0.6-1.1,0.5-1.7,0.7c-0.1,0.1-0.3,0.1-0.4,0.2
		c0.1,0.1,0.2,0.3,0.2,0.4c0.1,0.3,0.2,0.5,0.3,0.8c-0.4,0.1-0.9,0.3-1.3,0.3c-0.1,0-0.4-0.5-0.4-0.7c0.2-0.6,0.2-1-0.5-1.2
		c-0.2-0.1-0.3-0.3-0.5-0.5c-0.2-0.1-0.4-0.2-0.6-0.3c-0.2-0.1-0.5-0.2-0.7-0.3C37,42.6,35.3,42,35,42.2c-0.1,0-0.2,0.1-0.2,0.2
		c0,0.3,0.1,0.5,0.1,0.8c0.2-0.1,0.4-0.1,0.6-0.2c0.2,0,0.4,0,0.6,0c-0.1,0.2-0.2,0.5-0.4,0.5c-0.5,0.2-0.4,0.6-0.3,0.9
		c0,0.1,0.2,0.2,0.3,0.4c0.2-0.2,0.4-0.4,0.6-0.5c0.1-0.1,0.3-0.3,0.3-0.3c0.2,0.1,0.5,0.3,0.5,0.4c0,0.6,0.2,1.3-0.4,1.8
		c-0.2,0.2-0.1,0.6-0.2,0.9c0,0,0,0.1,0,0.1c0.1-0.1,0.2-0.1,0.2-0.2c0.1-0.3,0.2-0.6,0.4-0.9c0.2-0.4,0.5-0.6,0.7-1
		c0.2-0.5,0.5-0.3,0.8-0.3c0,0.2,0.1,0.3,0.1,0.5c0,0.6-0.1,1.2,0.1,1.7c0.1,0.2,0.8,0.2,1.2,0.3c0.1,0,0.2,0.1,0.3,0.1
		c1,0.3,1.6-0.2,1.7-1.2c0-0.4,0.1-1.1,0.4-1.2c0.5-0.2,1.1-0.1,1.6,0c0.3,0.1,0.6,0.5,0.6,0.8c-0.1,0.3-0.5,0.5-0.8,0.6
		c-0.1,0.1-0.3,0-0.5,0c-0.1,0-0.2,0.1-0.2,0.2c0,0.3-0.1,0.7,0,1c0,0.2,0.3,0.3,0.4,0.5c0.1-0.1,0.2-0.3,0.3-0.4
		c0.1-0.1,0.2-0.3,0.3-0.3c0.8,0,1.7,0,2.5,0c0.1,0,0.2,0,0.3,0.1c-0.1,0.1-0.2,0.2-0.3,0.2c-0.3,0.1-0.6,0.1-1,0.1
		c-0.4,0-0.5,0.1-0.2,0.4c0.1,0.1,0.2,0.4,0.1,0.5c-0.2,0.1-0.4,0.2-0.6,0.2c-0.5,0-1-0.1-1.6-0.1c-1,0.1-1.5,0.5-1.5,1.2
		c0,1.1,0.1,2.2,0.2,3.3c0,0.2,0.3,0.6,0.5,0.6c1,0.1,1.9,0.2,2.9,0.1c0.2,0,0.6-0.3,0.6-0.5c0.1-1.6,0.1-3.1,0.1-4.7
		c0-0.5,0-0.7,0.5-0.7c1.1,0,2.3,0,3.4,0c0.3,0,0.8-0.2,0.7,0.4c0,0.2-0.4,0.4-0.7,0.5c-0.1,0.1-0.3,0-0.4,0c-0.7-0.1-1.2,0-1.1,0.9
		c0,0.2-0.3,0.4-0.5,0.7c-0.1-0.2-0.3-0.4-0.4-0.6c0-0.1,0-0.1,0-0.2c0.1-0.5-0.3-0.7-0.7-0.7c-0.5,0-0.2,0.4-0.2,0.7
		c0,0.1,0,0.3,0,0.4c0,0.8-0.1,1.6,0,2.4c0.1,0.5,0,1.3,0.7,1.4c1.4,0.1,2.9,0.1,4.4,0.2c0.6,0,1.1-0.2,1.7-0.1
		c1.3,0.2,1.8-0.1,1.8-1.4c0-0.8-0.1-1.6-0.1-2.3c0-0.4,0.1-0.7,0.5-0.8c0.6-0.1,0.3,0.4,0.3,0.6c0,0.6,0,1.2,0,1.8
		c0,0.2,0.2,0.5,0.3,0.5c0.1,0,0.4-0.2,0.5-0.3c0.1-0.2,0.2-0.4,0.2-0.6c0-0.7-0.1-1.4-0.2-2c0-0.1-0.3-0.3-0.5-0.4
		c-0.7,0-1.3,0-2,0c-0.4,0-0.8,0.2-0.8,0.8c0.1,0.5-0.1,1.1,0.4,1.6c0.2,0.1,0.1,0.6,0,0.9c0,0.1-0.3,0.3-0.4,0.2
		c-0.6-0.6-1.3-0.3-1.9-0.2c-0.7,0.1-0.8-0.3-0.8-0.8c0-1.1,0-2.3,0-3.4c0-0.1-0.1-0.2-0.1-0.2c-0.3-0.3-0.1-0.4,0.2-0.4
		c1.5,0,3-0.1,4.4-0.1c1.4,0,2.8,0,4.1,0c0.3,0,0.5-0.3,0.8-0.5c-0.3-0.1-0.5-0.3-0.8-0.4c-0.6-0.1-1.2,0-1.7,0c-0.7,0-1-0.3-1.1-1
		c0-0.2-0.1-0.4,0-0.6c0.4-1-0.3-0.9-0.9-0.9c-0.4,0-0.8-0.1-0.9,0.5c-0.1,0.5-0.9,0.5-1.1,0c-0.2-0.5-0.6-0.6-1.1-0.6
		c-0.5,0-0.9,0-1.4,0c-0.4,0-0.6,0-0.5,0.5c0.1,0.3-0.1,0.8-0.2,1.1c0,0.1-0.2,0.3-0.2,0.4c-0.1-0.1-0.2-0.3-0.2-0.4
		c-0.1-0.4-0.1-0.8-0.2-1.2c0-0.2-0.1-0.3-0.2-0.4c-0.2,0.1-0.5,0.2-0.5,0.3c-0.1,0.4-0.1,0.8-0.2,1.2c-0.1,0.3-0.2,0.5-0.4,0.8
		c-0.2-0.2-0.3-0.4-0.5-0.7c-0.2-0.3-0.3-0.5-0.5-0.8c-0.2,0.2-0.4,0.4-0.6,0.7C47.8,46,47.6,46.5,46.9,46.3 M57.3,64
		c0-0.2,0-0.4-0.1-0.5c-0.2-0.4-0.5-0.8-0.6-1.2c-0.1-0.5,0-1.1,0-1.6c0-0.5-0.2-0.7-0.7-0.7c-0.7,0-1.3,0-2,0
		c-0.5,0-0.5,0.2-0.5,0.6c0,0.5-0.1,1.1-0.1,1.6c0,0.2-0.2,0.3-0.3,0.4c-0.1-0.1-0.2-0.3-0.2-0.4c-0.1-0.5-0.1-0.9-0.2-1.4
		c0-0.3-0.1-0.6-0.3-0.7c-0.2-0.1-0.6,0-0.8,0c0,0.2,0.1,0.5,0.1,0.7c0,0.2,0,0.4,0,0.5c-0.1,0.3-0.2,0.5-0.4,0.8
		c-0.1-0.2-0.2-0.5-0.4-0.7c-0.1-0.2-0.2-0.4-0.3-0.4c-0.2,0-0.4,0.1-0.6,0.3c-0.2,0.1-0.3,0.3-0.5,0.4c-0.1-0.2-0.2-0.4-0.2-0.6
		C49,60,49,60,48,60c-1.5,0-3,0-4.4,0c-1.4,0-2.8,0-4.2,0c-0.6,0-1.1,0.3-1.2,0.9c-0.1,0.5-0.3,1-0.3,1.5c-0.1,0.9,0.3,1.2,1.2,1.2
		c0.5,0,1.1-0.1,1.6-0.1c0.5-0.1,0.9-0.3,0.8-0.9c-0.1-0.5-0.2-1.3,0.1-1.6c0.3-0.3,1-0.1,1.6-0.1c0.2,0,0.7,0.1,0.7,0.2
		c0.1,0.4,0.1,0.8,0,1.1c-0.1,0.2-0.4,0.6-0.6,0c-0.1-0.2-0.4-0.4-0.7-0.6c-0.1,0-0.3,0.1-0.3,0.3c-0.1,0.5-0.1,1-0.1,1.4
		c0,0,0.2,0,0.3,0c1.4,0,2.9,0.1,4.3,0.1c2.5,0,4.9-0.1,7.4-0.1c0.7,0,1.4,0.1,2,0.7C56.3,64.4,56.8,64.6,57.3,64 M43.2,56
		c-0.6-0.2-1-0.1-1,0.6c0,0.2-0.1,0.5-0.1,0.7c0,0.1-0.2,0.2-0.3,0.3c0-0.1-0.1-0.2-0.1-0.4c-0.1-0.3-0.1-0.6-0.1-1
		c-0.1-2-0.1-4-0.1-6c0-0.6-0.4-0.7-0.8-0.7c-0.4,0-0.8,0.1-1.2,0.1c-0.9,0-1.8,0-2.6,0c-0.4,0-0.7,0-0.5,0.6c0,0.1,0,0.3,0.1,0.4
		c0.2,0.3,0.3,0.7,0.5,0.8c0.4,0.1,0.8,0.2,1-0.4c0.1-0.2,0.5-0.3,0.6-0.3c0.8,0.4,0.2,1.1,0.2,1.7c0,0.2-0.3,0.4-0.5,0.6
		c-0.1,0.1-0.2,0-0.4,0c-0.2,0-0.4,0-0.7,0c-0.7,0.1-0.9,0.5-0.7,1.1c0.1,0.3,0.4,0.7,0.7,0.7c0.6,0.1,1.3,0.3,1.7-0.4
		c0.3-0.6,0.8-0.7,1.4-0.6c0.2,0,0.5,0.3,0.5,0.4c-0.1,0.5-0.2,1-0.5,1.3c-0.6,0.7-0.6,1.3,0,1.8c0.1,0.1,0.2,0.3,0.3,0.4
		c0.2,1.1,0.2,1.1,1.3,1.1c0.1,0,0.3,0,0.4,0c0.7,0,1-0.3,1-1C43.2,57.5,43.2,56.8,43.2,56 M56.6,66.3c0.1,0.8-0.1,1.5-0.9,1.9
		c-0.1,0.1-0.3,0.2-0.4,0.2c-0.1-0.1-0.3-0.3-0.3-0.5c0-0.7,0.2-1.4,0.1-2c-0.1-0.5-0.3-1.3-0.6-1.4c-0.6-0.3-1.4-0.2-2.1-0.2
		c-0.7,0-1.5,0.3-2,0c-1.1-0.5-2.1,0.2-3.1,0.2c-0.1,0-0.2,0.1-0.4,0.2c0.1,0.1,0.2,0.2,0.4,0.2c0.7,0.1,1.3,0.2,2,0.3
		c0.5,0.1,1.2-0.1,1.4,0.2c0.3,0.3,0.2,1,0.2,1.5c0,0.2,0,0.4,0,0.7c0,0.9,0.9,1.7,1.7,1.7c1,0,1.9,0.1,2.9,0.1c0.7,0,2-0.8,2-1.4
		c0-0.8,0-1.6,0-2.5c0-0.1-0.2-0.3-0.3-0.3C56.4,65.2,56.6,65.8,56.6,66.3 M60.8,56.3c0-0.1,0.1-0.1,0.1-0.2c0.1-1,0.1-1,1.2-1.2
		c0.3,0,0.6-0.1,0.5-0.6c-0.2-0.8,0.3-1.3,1-1.7c0.5-0.3,0.9-0.8,1.3-1.2c0.1-0.1,0-0.3-0.1-0.4c-0.4-0.5-0.9-1-1.3-1.5
		c-0.1-0.1-0.4-0.1-0.6-0.2c0,0.1-0.1,0.3-0.1,0.4c0,0.4,0.1,0.8,0.1,1.2c-0.1,0.3-0.4,0.6-0.6,0.9c-0.1-0.2-0.3-0.3-0.3-0.5
		c-0.1-0.5-0.2-0.9-0.1-1.4c0-0.5-0.1-0.8-0.6-0.8c-0.6,0-1-0.1-1.5-0.5c-0.2-0.1-0.7-0.1-0.9-0.4c0,0-0.2,0.1-0.2,0.1
		c0,0.6-0.2,1.4,0,1.9c0.3,0.7,0.8,1.3,0.8,2.1c0,0.1,0.2,0.3,0.3,0.4c0.1-0.1,0.3-0.3,0.3-0.4c0.1-0.4,0.1-0.9,0.1-1.3
		c0-0.1,0.1-0.4,0.2-0.4c0.2,0,0.4,0.1,0.5,0.2c0.1,0.2,0.1,0.4,0.2,0.6c0.1,0.4,0.1,0.9,0.3,1.1c0.6,0.5,0.4,1.1,0.4,1.7
		c0,0.2-0.3,0.3-0.5,0.4c-0.1-0.2-0.2-0.4-0.2-0.5c0.4-0.7-0.1-0.7-0.5-0.7c-0.1,0-0.3,0-0.4,0c-0.2,0-0.3,0.1-0.5,0.1
		c0.1,0.2,0.2,0.4,0.3,0.5c0.1,0.2,0.3,0.3,0.3,0.5c0.1,0.6,0.1,1.1,0.2,1.7C60.2,56.7,60.4,56.6,60.8,56.3 M66.7,55.3
		c-0.1-0.1-0.3-0.2-0.4-0.3c-0.8-0.4-1.2-0.2-1.2,0.7c0,1,0.1,2,0,3c-0.2,1.3,0.2,2.6-0.5,3.9c0,0.1-0.1,0.2-0.1,0.2
		c0.6,0.8,0.2,1.8,0.6,2.6c0.1,0.2,0.2,0.4,0.3,0.6c0.2-0.2,0.4-0.4,0.6-0.7c0-0.1,0-0.2,0-0.3c0.2-0.6,0.4-1.2,0.5-1.8
		c0.1-0.5,0.1-1.1-0.2-1.4c-0.4-0.6-0.5-1.6-0.1-1.8c0.7-0.5,0.5-1.2,0.5-1.8C66.7,57.3,66.7,56.4,66.7,55.3 M53.2,58.5
		c0-0.7,0-1.3,0-2c0-0.4-0.1-0.6-0.6-0.6c-0.6,0.1-1-0.1-1.4-0.5c-0.2-0.2-0.7-0.2-1-0.3c-0.1,0-0.2,0.1-0.2,0.2
		c0.1,0.5-0.4,1.1,0.4,1.5c0.1,0.1,0.1,0.5,0.2,0.7c0,0-0.2,0.1-0.3,0.1c-0.8-0.1-1.1-0.5-1.2-1.2c0-0.3-0.1-0.7-0.2-1
		c0-0.1-0.3-0.3-0.4-0.3c-0.2,0-0.4,0.2-0.4,0.3c0.3,1.1-0.8,2.6,0.8,3.4c0.6,0.3,1,0.5,1.5,0.1c0.6-0.6,1-0.6,1.7,0
		C52.7,59.4,53,59.2,53.2,58.5 M45.7,26.7c0,0.3,0,0.7-0.5,0.7c-0.1,0-0.3,0.1-0.4,0.2c0.1,0.1,0.3,0.3,0.4,0.3
		c0.3,0,0.5-0.1,0.8-0.1c1.3,0.1,2.6,0.2,3.9,0.3c0.6,0,0.9-0.2,0.9-0.8c0-0.9-0.1-1.1-0.9-1.1c-0.1,0-0.3,0-0.4,0
		c-0.3-0.1-0.6-0.3-1-0.5c0.1-0.2,0.3-0.4,0.4-0.7c0.1-0.3,0.2-0.7,0.2-1c0-0.1-0.6-0.2-0.7-0.1c-0.3,0.2-0.5,0.5-0.8,0.7
		c-0.3,0.4-0.6,0.8-1.1,0.9C46,25.7,45.6,26,45.7,26.7 M59.1,66.1c0.5-0.3,0.9-0.1,1.3,0.2c0.1,0.1,0.6,0.1,0.6,0.1
		c0.2-0.7,1-1.3,0.7-2.2c-0.1-0.2,0.1-0.7,0.3-0.8c0.6-0.3,0.7-0.8,0.7-1.4c0-0.7,0-1.5,0.2-2.1c0.3-0.6,0.1-0.6-0.4-0.6
		c-0.6,0-1.2,0-1.8,0c-0.2,0-0.5,0.2-0.5,0.3c0,0.2,0.1,0.5,0.2,0.7c0.1,0.2,0.4,0.3,0.5,0.5c0.2,0.4,0.4,0.8,0.6,1.2
		c0.1,0.2,0.2,0.6,0.1,0.7c-0.5,0.8-1.1,1.5-1.6,2.2c-0.4,0.5-0.8,0-1.2,0.1c-0.1,0.1-0.4,0.1-0.4,0.2c0,0.3,0.1,0.7,0.2,1
		C58.6,66.3,58.9,66.2,59.1,66.1 M40.5,36.5c0.3-0.3,0.3-0.6,0.1-0.9c-0.1-0.2-0.5-0.5-0.5-0.5c-0.4,0.3-1.1,0.2-1.3,0.9
		c0,0.2-0.2,0.3-0.4,0.4c-1.1,1-1.3,2.2-1.3,3.6c0,0.5,0,1.1,0.3,1.3c0.3,0.3,0.9,0.1,1.3,0.2c0.8,0.1,1,0,1-0.8
		c0-0.4-0.2-0.9,0.5-1.1c0.2,0,0.4-0.4,0.4-0.6C40.6,38.2,40.5,37.4,40.5,36.5 M35.8,56c-0.1,0-0.3,0-0.3,0.1
		c-0.4,0.6-0.8,0.7-1.3,0c-0.1-0.1-0.4,0-0.6,0c-0.1,0-0.2,0.2-0.2,0.4c-0.1,0.6,0.8,1.7,1.4,2c0.7,0.3,1.3,0.8,2,1.2
		c0.3,0.2,0.8,0.3,1.1,0.4c0.1,0,0.2-0.2,0.3-0.4c0.1-0.2,0.1-0.4,0.1-0.6c0.2,0.1,0.4,0.1,0.6,0.2c0.4,0.3,0.6,0.1,0.8-0.2
		c0.2-0.3,0-0.5-0.3-0.6c-0.2-0.1-0.3-0.4-0.4-0.5c-0.3-0.4-0.7-0.4-0.9,0c-0.2,0.5-0.6,0.7-1.1,0.7c-0.3,0-0.6-0.1-0.9-0.1
		c-0.2,0-0.5,0-0.5-0.1c0-0.3-0.1-0.7,0.1-0.8c0.6-0.3,0.8-1.1,1.7-0.9c0.1,0,0.3-0.1,0.4-0.1c0.1-0.1,0.2-0.2,0.3-0.3
		c-0.1-0.1-0.3-0.2-0.4-0.3C37,56,36.5,56,35.8,56 M62.5,46.8c0.1,0.2,0.2,0.4,0.3,0.7c0.4-0.2,0.8-0.3,1.1-0.5c0.1-0.1,0-0.5,0-0.8
		c-0.1-0.3-0.3-0.5-0.4-0.7c-0.5-1.4-0.4-1.4-1.9-1.3c0,0-0.1,0-0.1,0c-0.2,0.1-0.4,0.2-0.4-0.2c0-0.2-0.4-0.5-0.6-0.6
		c-0.4-0.1-0.8-0.1-1.2,0c-0.3,0-0.6,0.3-0.7,0.4c-0.1,0.5-0.1,1.1,0,1.7c0,0.1,0.5,0.3,0.7,0.3c0.3,0,0.2-0.3,0.2-0.6
		c-0.1-0.2,0-0.5,0-0.8c0-0.2,0.1-0.3,0.2-0.5c0.2,0.1,0.4,0.2,0.5,0.3c0.4,0.5,0.7,1,1.1,1.6c0.1,0.1,0.3,0.2,0.4,0.1
		C62.5,45.6,62.5,45.6,62.5,46.8 M47.9,84.6c0.7,0,1.4,0,2.2,0c0.2,0,0.5,0,0.5-0.1c0-0.3,0.1-0.6-0.1-0.8c-0.5-0.5-1-0.9-1.5-1.3
		c-0.2-0.1-0.4-0.4-0.7,0.1c-0.1,0.2-0.5,0.3-0.7,0.3c-0.8,0.1-1.6,0.1-2.5,0.2c-0.1,0-0.3,0-0.3,0c0,0.4-0.1,0.8,0,1.1
		c0.1,0.2,0.4,0.4,0.6,0.4C46.2,84.6,47,84.6,47.9,84.6 M45.5,58.5c0.4,0.1,0.1,0.4,0.1,0.5c0.1,0.1,0.1,0.3,0.2,0.4
		c0.1-0.1,0.2-0.3,0.2-0.4c0-0.1,0-0.2,0-0.3c0.1,0.1,0.2,0.1,0.3,0.2c0.3,0.3,0.6,0.3,0.7,0c0.1-0.2,0.3-0.5,0.3-0.8
		c0-0.8-0.1-1.5-0.1-2.3c0-0.7-0.4-1-1.3-0.8c-0.2,0-0.4,0.7-0.3,0.9c0.3,0.7-0.1,1.3-0.3,1.9c0,0.1-0.2,0.1-0.3,0.2
		c0-0.1-0.1-0.2-0.1-0.3c-0.1-0.5,0-1-0.2-1.4c-0.1-0.2-0.5-0.2-0.8-0.3c0,0-0.2,0.2-0.2,0.3c0,0.6,0.1,1.1,0.1,1.7
		c0,0.5,0.2,0.8,0.8,0.6C44.9,58.4,45.2,58.5,45.5,58.5 M32.1,47.7c0.2-0.1,0.4-0.2,0.5-0.4c0.1-0.2,0.2-0.4,0.3-0.6
		c-0.2,0-0.3-0.1-0.5-0.1c-0.7-0.1-1.3,0.1-1.7,0.7c-0.2,0.3-0.4,0.6-0.7,0.8c-1.1,1.1-2.3,2.2-3.4,3.3c-0.2,0.2-0.1,0.7-0.2,1.1
		c0.3-0.1,0.7-0.1,0.9-0.3c0.6-0.6,1-1.3,1.6-1.8c0.8-0.7,1.8-1.4,2.7-2.1C31.8,48.1,31.9,47.9,32.1,47.7 M33.1,49.5
		c0,0.1,0,0.2,0,0.3C33,50.5,33,51.2,34,51.5c0.7,0.2,0.6,0.6,0.1,1c-0.3,0.2-0.5,0.5-0.8,0.7c-0.4,0.3-0.4,0.7-0.3,1.1
		c0.3-0.1,0.6-0.2,0.8-0.4c0.5-0.5,0.9-1,1.4-1.5c0.6-0.6,0.5-1-0.4-1.3c-0.2-0.1-0.5,0-0.7-0.2c-0.2-0.1-0.4-0.4-0.5-0.6
		c0-0.1,0.2-0.3,0.3-0.3c0.7-0.3,1.2-1.1,2.1-0.8c0.1,0,0.2-0.1,0.3-0.1c0.1-0.1,0.2-0.2,0.3-0.4c-0.1-0.1-0.3-0.2-0.4-0.2
		c-0.9,0-1.9,0-2.8,0c-0.1,0-0.3,0.2-0.3,0.4C33,49,33.1,49.2,33.1,49.5 M58.7,33.2c0.4,0.4,0.7,0.8,1.1,1.1
		c0.2,0.2,0.5,0.3,0.7,0.3c0.2-0.1,0.4-0.4,0.5-0.6c0.1-0.8-0.9-1.8-1.7-1.8c-0.7,0-1-0.2-0.9-1c0-0.2-0.2-0.6-0.3-0.6
		c-0.8,0.1-1.1-0.4-1.5-0.9c-0.1-0.1-0.3-0.2-0.4-0.2c-0.2,0.1-0.4,0.3-0.4,0.4c0,0.1,0.2,0.4,0.3,0.5c0.5,0.4,1.1,0.7,1.5,1.1
		C57.9,32,58.2,32.6,58.7,33.2 M62.5,38.9c0.4,0.8,0.8,1.6,1.2,2.3c0,0.1,0.1,0.1,0.1,0.2c0.1-0.1,0.3-0.2,0.3-0.4
		c0-0.5,0.1-1.1,0-1.6c-0.1-0.4-0.4-0.8-0.6-1.2c-0.6-0.8-1.1-1.6-1.7-2.4c-0.1-0.2-0.4-0.2-0.6-0.3c-0.1,0.2-0.2,0.4-0.2,0.6
		c0,0.2,0.1,0.5,0.2,0.6C61.6,37.5,62,38.2,62.5,38.9 M62.8,67.9c-0.2,0.3-0.5,0.5-0.7,0.8C62,69,62,69.3,61.9,69.5
		c0.1,0,0.3,0.1,0.3,0.1c0.7-0.4,1.2-0.4,1.8,0.2c0.4,0.4,0.8,0.3,0.9-0.1c0.2-0.8,0.3-1.5,0.3-2.3c0-0.2-0.2-0.4-0.4-0.6
		c-0.1-0.1-0.4,0-0.5,0.1C64.1,67.5,63.4,67.6,62.8,67.9 M66.7,51.4c0,0.4-0.1,0.8,0,1.2c0,0.2,0.3,0.4,0.4,0.7
		c0.1-0.2,0.4-0.5,0.4-0.7c0.1-0.7,0-1.3,0-2c0-0.5,0.2-0.8,0.8-0.6c0.2,0,0.4-0.2,0.6-0.3c-0.2-0.1-0.3-0.2-0.5-0.3
		c-0.4-0.2-0.9-0.5-1.3-0.5c-0.4,0-0.9,0.3-1.3,0.5c-0.1,0.1,0.1,0.6,0.2,0.9C66.4,50.5,66.6,50.9,66.7,51.4 M32.1,71
		c0.1-0.8,0.3-1.6,0.9-2.3c0.4-0.4,0.1-0.9-0.3-1c-0.2-0.1-0.7,0.1-0.8,0.4c-0.2,0.3-0.4,0.8-0.5,1.2c-0.1,0.4-0.1,1-0.3,1.1
		c-0.6,0.5-0.6,1.1-0.5,1.7c0,0.3,0.2,0.5,0.4,0.8c0.1-0.2,0.2-0.5,0.4-0.7C31.4,71.7,31.1,70.9,32.1,71 M34.2,60.8
		c-0.5,0.6-0.3,1.4-0.4,2.1c0,0.2,0,0.5,0.1,0.5c0.2,0,0.5,0,0.7-0.1c0.1-0.1,0.1-0.4,0.1-0.6c0-0.3,0.1-0.7,0.1-1
		c0,0,0.3-0.1,0.3,0c0.1,0.3,0.3,0.6,0.4,0.9c0,0.1,0,0.1,0,0.2c0,0.1-0.1,0.3-0.1,0.4c0.2,0,0.4,0,0.6-0.1c0.6-0.3,0.3-0.9,0.4-1.4
		c0-0.5-0.2-0.7-0.7-0.7C35.2,60.9,34.8,60.8,34.2,60.8 M68,71.1c-0.4-0.4-0.8-0.9-1.4-1c-0.1,0-0.1-0.3-0.1-0.5
		c0-0.2,0.1-0.4,0.1-0.6c0-0.1-0.1-0.2-0.2-0.2c-0.1,0.1-0.2,0.2-0.2,0.3c0,0.5,0,1,0,1.5c0,0.6,0.4,0.8,1,0.7
		c0.1,0,0.2,0.2,0.3,0.3c0.1,0.9,0.5,1.5,1.3,1.9c0.2,0.1,0.6-0.1,0.8-0.2c-0.1-0.2-0.2-0.5-0.4-0.5c-0.8,0-0.7-0.6-0.8-1.1
		C68.4,71.4,68.2,71.3,68,71.1 M59.2,56c0.1-1.2,0-1.3-1.1-0.9c-0.1,0-0.2,0-0.3,0c-0.2,0.1-0.3,0.2-0.5,0.2
		c0.1,0.1,0.3,0.2,0.4,0.3c0.2,0.3,0.6,0.6,0.6,0.9c0.1,0.7,0,1.4,0,2c0,0.2,0.3,0.5,0.4,0.7c0.1-0.2,0.4-0.5,0.4-0.7
		C59.2,57.8,59.2,57,59.2,56 M64.4,42.3c-0.3,0.7-0.1,1.3,0.2,1.9c0.2,0.4,0.4,0.8,0.6,1.1c0.1,0.2,0.3,0.4,0.5,0.3
		c0.3,0,0.8-1.2,0.6-1.4c-0.5-0.7-1-1.4-1.5-2C64.7,42.2,64.6,42.2,64.4,42.3 M35.8,67c-0.1,0-0.2,0.1-0.2,0c-0.3-0.4-0.6-0.8-1-1.1
		c-0.2-0.3-0.6-0.6-0.6,0.2c0,0.6-0.1,1.1,0,1.7c0.1,0.3,0.4,0.6,0.7,0.6c0.2,0.1,0.5-0.2,0.8-0.4c0.3-0.2,0.5-0.6,0.7-0.8
		c0.1-0.1,0.2-0.3,0.2-0.4C36.2,66.8,36,66.9,35.8,67 M65.1,28.8c0.1,0,0.3,0,0.4-0.1c0.7-0.6,1.3-1.3,2-2c0-0.1-0.2-0.5-0.2-0.5
		c-0.3,0-0.7,0.1-0.9,0.2c-0.5,0.5-1,1-1.5,1.5C64.4,28.4,64.5,28.6,65.1,28.8 M56,55.2c-0.1,0.7-0.3,1.4-0.2,2.1
		c0,0.4-0.1,1.1,0.6,1.3c0.2,0.1,0.4,0.2,0.6,0.4c0-0.3-0.1-0.5-0.1-0.8c-0.1-0.8-0.1-1.6-0.1-2.5C56.7,55.2,56.6,55,56,55.2
		 M49.2,86.8c0-0.1-0.1-0.3-0.1-0.4c-0.4-0.2-0.7-0.3-0.9-0.7c-0.2-0.6-1.3-0.6-1.7,0C46.3,86,46.5,87,46.8,87
		C47.6,87,48.3,86.9,49.2,86.8 M63,58.2c0.4,0.3,0.8,0.3,1.1-0.1c0.4-0.5,0-1.9-0.7-2.2c-0.3-0.1-0.6-0.3-0.7,0.4
		C62.5,57,62.6,57.6,63,58.2 M59.8,80.1c0.1-0.4,0.1-0.9,0.6-1c0,0,0-0.2,0.1-0.3c-0.2,0.1-0.7,0.1-0.7,0.2
		c-0.1,0.7-0.5,0.5-0.9,0.5c-0.2,0-0.5,0.1-0.5,0.3c-0.1,0.4-0.1,0.9-0.1,1.3c0,0.1-0.1,0.2-0.1,0.3c-0.1,0.1-0.2,0.2-0.4,0.3
		c0.1,0.1,0.2,0.3,0.3,0.3c0.2,0,0.4-0.1,0.6-0.2C59,81.2,59.4,80.7,59.8,80.1 M58,70.6c0.5,0.2,1,0.5,1.6,0.5
		c0.2,0,0.4-0.4,0.7-0.6c-0.2-0.2-0.4-0.4-0.6-0.5c-0.2-0.1-0.5,0-0.7,0.1c-0.4,0.1-0.9,0.2-1.3,0.2c-0.9,0-0.9,0-0.9,0.9
		c0,0.2,0.2,0.4,0.4,0.7c0.2-0.2,0.3-0.4,0.5-0.7C57.7,71.1,57.7,70.8,58,70.6 M59.3,39.3c0-0.3,0-0.6-0.1-0.8
		c-0.2-0.5-0.5-0.9-0.8-1.4c-0.1-0.2-0.3-0.3-0.6-0.4c0,0-0.2,0.2-0.3,0.3c-0.1,0.6,0,1.1,0.3,1.6c0.2,0.2,0.3,0.5,0.5,0.7
		c0.1,0.2,0.3,0.4,0.4,0.6C58.9,39.7,59,39.5,59.3,39.3 M46.4,32.1C46.2,32,46,31.9,45.9,32c-0.1,0-0.2,0.3-0.2,0.5
		c-0.1,0.8-0.1,1.7-0.2,2.5c0,0.2-0.1,0.4,0,0.6c0,0.1,0.4,0.1,0.5,0.1c0.2-0.1,0.4-0.3,0.4-0.5c0.1-0.6,0.1-1.2,0.2-1.8
		C46.6,32.9,46.5,32.6,46.4,32.1 M54.5,25.4c0.1-0.4,0.1-0.8,0.2-1.2c0-0.1,0.1-0.4,0.2-0.4c1,0.1,1-1,1.5-1.4c0,0,0-0.2,0-0.2
		c-0.5,0-1.2-0.1-1.3,0.1c-0.4,0.5-1.1,1.1-0.8,1.9C54.3,24.5,54.3,24.9,54.5,25.4 M52.1,24.6c-0.3,0-0.7-0.1-1-0.1
		c-0.1,0-0.3,0.2-0.3,0.4c0,0.2,0.1,0.4,0.2,0.5c0.5,0.3,1.1,0.6,1.6,0.9c0.1,0.1,0.3,0,0.4-0.1c0.1-0.1,0.2-0.4,0.1-0.5
		C52.9,25.3,52.5,25,52.1,24.6 M63.2,41.9c-0.1-0.1-0.2-0.2-0.3-0.2c-0.5-0.1-1-0.2-1.3-0.8c0-0.1-0.6-0.1-0.6,0
		c-0.1,0.4-0.2,0.7-0.1,1.1c0,0.2,0.4,0.3,0.6,0.4c0.3,0.1,0.7,0,1,0.1C63.1,42.6,63.3,42.4,63.2,41.9 M37.1,27.4
		c-0.2-0.1-0.4-0.1-0.7-0.2c0.1,0.7-0.2,1.4,0.4,2c0.3,0.2,0.6,0.6,0.9,0.2c0.2-0.2,0.3-0.6,0-1C37.4,28.2,37.3,27.8,37.1,27.4
		 M58.7,61.8c0.1,0,0.3-0.1,0.4-0.1c0.7-0.1,0.6-0.3,0.2-0.7c-0.4-0.3-0.7-0.7-1-1c-0.1-0.1-0.5,0-0.6,0.1
		C57.2,60.8,57.7,61.8,58.7,61.8 M54.8,58.4c0-0.8,0-1.5,0-2.3c0-0.3-0.1-0.5-0.4-0.4c-0.1,0-0.3,0.2-0.3,0.3c0,0.8,0,1.6,0,2.4
		c0,0.2,0.2,0.4,0.3,0.5C54.6,58.9,54.7,58.7,54.8,58.4 M63.5,71.4c-0.1,0.1-0.2,0.2-0.3,0.3c-0.6,0.4-0.5,1-0.5,1.5
		c0,0.1,0.1,0.3,0.2,0.3c0.1,0,0.2-0.1,0.3-0.2c0.3-0.3,0.6-0.5,0.8-0.8c0.2-0.4,0.1-0.8,0.1-1.2C63.9,71.3,63.7,71.3,63.5,71.4
		 M35.9,26.1c-0.5-0.6-0.9-1.3-1.4-1.9c-0.1-0.1-0.2-0.2-0.3-0.3c0,0.1-0.1,0.3-0.1,0.4c0.2,0.4,0.3,0.7,0.6,1.1
		c0.3,0.5,0.7,0.9,1,1.4c0.1,0.1,0.1,0.3,0.2,0.4c0.1-0.1,0.4-0.2,0.4-0.4C36.2,26.6,36.1,26.4,35.9,26.1 M62,30.6
		c-0.3,0.2-0.6,0.4-0.7,0.6c-0.2,0.2-0.2,0.6-0.3,0.8c0.3,0,0.7,0.2,0.9,0.1c0.4-0.3,0.6-0.8,0.9-1.2C62.6,30.9,62.4,30.7,62,30.6
		 M33.9,45.6c0,0.2,0,0.3,0,0.5c0.1,0.2,0.2,0.5,0.3,0.7c0.2-0.2,0.5-0.4,0.5-0.6c0-0.7,0-1.3-0.1-2c0-0.1-0.3-0.2-0.4-0.2
		c-0.1,0-0.2,0.2-0.3,0.3C33.9,44.8,33.9,45.1,33.9,45.6 M47.5,22.9c1.1,0,1.1-0.1,0.7-0.9c0-0.1-0.1-0.2-0.1-0.3
		c-0.1-0.4-1-0.6-1.3-0.3c-0.1,0.1-0.1,0.3,0,0.4C47,22.1,47.2,22.5,47.5,22.9 M52.4,50.8c0,0.1-0.1,0.3,0,0.4
		c0.1,0.2,0.3,0.4,0.5,0.7c0.2-0.2,0.4-0.4,0.5-0.7c0.1-0.2,0.1-0.5,0-0.8c-0.1-0.3-0.3-0.5-0.5-0.7c-0.1,0.2-0.3,0.4-0.4,0.6
		C52.4,50.4,52.4,50.5,52.4,50.8 M40,32.3c0.6-0.6,0.6-0.6-0.2-1c-0.1-0.1-0.2-0.3-0.4-0.4c-0.1-0.1-0.3-0.1-0.4-0.1
		c-0.1,0-0.2,0.1-0.2,0.2C38.7,32,38.9,32.3,40,32.3 M43.4,84.5c0.1-0.2,0.4-0.5,0.4-0.6c-0.2-0.3-0.4-0.6-0.7-0.8
		c-0.2-0.1-0.6,0-0.7,0.2C42.1,84.1,42.4,84.5,43.4,84.5 M61.7,71.6c0-0.4,0.1-0.7,0.1-1.1c0-0.2-0.2-0.4-0.4-0.4
		c-0.2,0-0.5,0.2-0.5,0.3c-0.1,0.4,0,0.8,0,1.2C61,72,61.3,72,61.7,71.6 M71.5,21.4c-1-0.2-1.5,0.2-1.3,1.2c0,0.2,0.1,0.3,0.2,0.5
		c0.2-0.1,0.3-0.2,0.4-0.3c0.2-0.2,0.4-0.5,0.6-0.7C71.6,21.8,71.6,21.6,71.5,21.4 M24.7,54.9c-0.1-0.4-0.3-0.9-0.7-0.6
		c-0.3,0.2-0.3,0.7-0.3,1.2c0,0.1,0.3,0.4,0.5,0.4C24.6,55.8,24.7,55.4,24.7,54.9 M51.6,28.1c0.2,0.2,0.4,0.4,0.5,0.6
		c0.1-0.3,0.3-0.5,0.4-0.8c0-0.1,0-0.1,0-0.2c0.1-0.5-0.3-0.5-0.6-0.6c-0.5-0.1-0.4,0.3-0.4,0.5C51.5,27.8,51.5,27.9,51.6,28.1
		 M47.3,31.5c0-0.4,0.6-1.1-0.5-0.9c-0.1,0-0.4,0.2-0.4,0.2c0,0.3,0.1,0.6,0.3,0.9C46.7,31.8,47,31.6,47.3,31.5 M55.4,29.2
		c0.5-0.1,0.5-0.1,0.3-0.4c-0.3-0.4-0.6-0.7-0.9-1.1c-0.1-0.1-0.2-0.1-0.3-0.2c0,0.2-0.1,0.4,0,0.5C54.7,28.4,55,28.8,55.4,29.2
		 M56.4,83.5c-0.3,0.1-0.7,0.3-0.4,0.7c0.2,0.2,0.5,0.2,0.8,0.3c0.1,0,0.3-0.2,0.4-0.4C56.9,84,56.7,83.8,56.4,83.5 M58.2,19.6
		c-0.2,0-0.6,0-0.6,0.1c0,0.4,0,0.8,0,1.2c0.1,0,0.1,0,0.1,0c0.2-0.3,0.4-0.6,0.6-1C58.3,19.9,58.3,19.8,58.2,19.6 M30.3,74.8
		c-0.2,0-0.6,0-0.6,0.1c0,0.4,0,0.8,0,1.3c0.1,0,0.3,0,0.3-0.1C30.2,75.7,30.2,75.3,30.3,74.8 M33.1,22.2c0.2-0.1,0.4-0.1,0.6-0.2
		c0.1-0.1,0.2-0.4,0.1-0.4c-0.2-0.1-0.4-0.2-0.6-0.3C33.2,21.6,33.1,21.8,33.1,22.2 M66.1,47.3c0.2-0.2,0.3-0.3,0.5-0.5
		c-0.2,0-0.4-0.1-0.6-0.1c-0.1,0-0.3,0.1-0.4,0.1C65.7,47,65.8,47.1,66.1,47.3 M65.5,40.7c0,0.2-0.1,0.4-0.1,0.6c0.1,0,0.2,0,0.3,0
		C65.9,41.2,66,41,65.5,40.7 M74.4,52.1c-0.2-0.1-0.5-0.2-0.7-0.3c0,0.1,0,0.3,0,0.3C73.9,52.2,74.1,52.2,74.4,52.1 M50.6,23.4
		c-0.1-0.2-0.3-0.3-0.4-0.5C50.2,23,50.1,23,50,23.1C50.2,23.2,50.4,23.4,50.6,23.4 M69.8,24.3c0.1-0.2,0.2-0.3,0.2-0.5
		c0,0-0.2-0.2-0.3-0.1c-0.1,0.1-0.2,0.2-0.2,0.4C69.5,24.1,69.6,24.2,69.8,24.3 M61.2,58.2c0.1-0.1,0.2-0.3,0.3-0.4
		c-0.1,0-0.3,0-0.4-0.1C61.1,57.9,61.1,58.1,61.2,58.2 M36.1,39.5c0.1,0,0.3,0.1,0.4,0.1c0,0,0.1-0.2,0.1-0.3
		C36.5,39.4,36.3,39.4,36.1,39.5 M59.8,40.5c0-0.2,0-0.3,0-0.4c0,0-0.2,0-0.2,0C59.6,40.2,59.6,40.4,59.8,40.5 M60.8,73.2
		c0.1,0,0.3,0.1,0.4,0.1c0,0,0.1-0.2,0.1-0.3C61.2,73,61,73.1,60.8,73.2 M59.7,19c-0.2,0-0.3,0.1-0.5,0.1c0,0.1,0,0.1,0.1,0.2
		C59.4,19.2,59.6,19.1,59.7,19 M23.3,57.3c0-0.1,0.1-0.2,0.1-0.4c0,0-0.2,0-0.2-0.1C23.1,57,23.2,57.1,23.3,57.3 M40.2,43.6
		c0-0.1,0.1-0.1,0.1-0.2c-0.1,0-0.3,0.1-0.4,0.1C40,43.5,40,43.6,40.2,43.6 M71.2,50.4c0,0.1,0.1,0.1,0.1,0.2
		c0.1-0.1,0.1-0.2,0.2-0.3C71.4,50.2,71.3,50.2,71.2,50.4 M59.5,36.3c0.1,0,0.3-0.1,0.4-0.1c0,0,0-0.1,0-0.1
		C59.7,36.1,59.6,36.2,59.5,36.3z"/>
	<path d="M66.4,24.2c0-0.1,0-0.2,0-0.4c0.1,0,0.1,0,0.2,0C66.5,23.9,66.5,24,66.4,24.2z"/>
	<path d="M50.1,73c0.5-0.2,0.7-0.5,0.7-1.1c0-0.2,0.3-0.4,0.4-0.6c0.1,0.2,0.3,0.4,0.3,0.5c-0.1,0.8,0.3,0.9,1,0.9
		c0.6,0,1.3,0.2,1.6-0.5c0.2-0.4,0.1-0.8,0.2-1.2c0-0.1,0.1-0.2,0.2-0.3c0.1,0.1,0.2,0.2,0.2,0.3c0.1,0.6,0.1,1.2,0.2,1.8
		c0,0.7,0.6,0.7,1,0.7c0.7,0,0.8,0.3,0.8,0.9c0,0.2,0,0.5,0,0.7c0,0.2-0.2,0.3-0.3,0.4c-0.1-0.1-0.1-0.2-0.2-0.4
		c-0.3-0.5-0.7-0.8-1.3-0.8c-1.4,0-2.7-0.1-4.1-0.1C49.9,74.4,49.7,73.9,50.1,73z"/>
	<path d="M43.5,78.8c-0.5-0.1-0.7-0.3-0.6-0.7c0.1-0.2,0.5-0.3,0.7-0.3c0.9,0,1.8,0,2.6,0c0.3,0,0.5-0.1,0.3-0.5
		c-0.2-0.4-0.2-0.9-0.2-1.3c0-0.2,0.3-0.4,0.5-0.5c0.4-0.1,0.4,0.1,0.4,0.4c0,0.4,0,0.8,0,1.2c0,0.6,0.1,0.9,0.8,0.9
		c0.6,0,1.3,0.1,1.9,0.1c0.1,0,0.2,0.1,0.3,0.1c-0.1,0.1-0.2,0.3-0.3,0.3c-0.4,0.1-0.9,0.1-1.3,0.2c-0.9,0.1-1.8,0.1-2.7,0.1
		C45.2,78.8,44.4,78.8,43.5,78.8z"/>
	<path d="M43.1,66.9c-0.2,0.5-0.3,0.7-0.8,0.3c-0.7-0.5-0.9-1-0.8-1.7c0-0.1,0.1-0.3,0.1-0.3c0.1,0,0.4,0,0.5,0.1
		c0.3,0.3,0.7,0.7,1,1.1C43.1,66.4,43.1,66.6,43.1,66.9z"/>
	<path d="M47.3,72.2c-0.4,0.2-0.6,0.1-0.7-0.3c0-0.3-0.1-0.7,0.4-0.6c0.8,0,1.6,0,2.3,0c0.1,0,0.3,0.2,0.4,0.3
		c-0.2,0.1-0.4,0.3-0.5,0.2C48.5,71.6,47.9,71.6,47.3,72.2z"/>
	<path d="M43.6,76.1c0.2,0.2,0.3,0.3,0.4,0.4c-0.1,0.1-0.2,0.3-0.4,0.3c-0.3,0.1-0.7,0.2-1.1,0.3c0,0-0.1,0-0.1,0
		c0-0.5,0.1-1.1,0.1-1.6c0.2,0,0.4,0,0.5,0.1C43.2,75.7,43.3,75.9,43.6,76.1z"/>
	<path d="M39.9,71.6c-0.4,0.4-1.2,0.3-1.4,0.9c0,0.1-0.2,0.1-0.2,0.1c-0.1-0.4-0.2-0.8-0.2-1.2c0-0.1,0.2-0.2,0.4-0.2
		c0.4,0,0.8,0,1.2,0C39.7,71.2,39.8,71.5,39.9,71.6z"/>
	<path d="M44.7,65.7c0,0.5,0.1,1,0.1,1.5c0,0.1-0.3,0.3-0.4,0.4c-0.1-0.2-0.3-0.3-0.3-0.5c0-0.5,0-1,0-1.4c0-0.2,0.1-0.4,0.2-0.5
		C44.4,65.3,44.5,65.5,44.7,65.7z"/>
	<path d="M52.7,82.8c-0.3,0-0.6,0-0.8,0c-0.1,0-0.4-0.2-0.3-0.2c0.1-0.2,0.2-0.4,0.3-0.5c0.2-0.1,0.5,0,0.8,0c0.2,0,0.4,0.1,0.6,0.2
		C53.1,82.5,52.9,82.6,52.7,82.8z"/>
	<path d="M54.1,79.9c-0.2,0.3-0.3,0.5-0.5,0.7c-0.1-0.2-0.2-0.4-0.2-0.6c0-0.2,0-0.6,0.2-0.6C53.9,79.2,54,79.5,54.1,79.9z"/>
	<path d="M45.4,79.7c0.1,0.1,0.1,0.3,0.1,0.4c-0.1,0.2-0.2,0.4-0.4,0.5c-0.1-0.2-0.2-0.4-0.2-0.6c0-0.2,0.1-0.4,0.1-0.6
		C45.2,79.6,45.3,79.6,45.4,79.7z"/>
	<path d="M45,76.3c0.2,0,0.4,0.1,0.5,0.2c-0.1,0.1-0.2,0.2-0.3,0.3C45.1,76.7,45,76.5,45,76.3z"/>
	<path d="M48.6,80.5c0.1,0,0.2,0.1,0.3,0.1c-0.1,0.1-0.2,0.1-0.3,0.2C48.5,80.7,48.5,80.6,48.6,80.5z"/>
	<path d="M56.6,39.6c0,0.5,0,0.8,0,1.2c0,0.2-0.2,0.3-0.3,0.5c-0.1-0.1-0.2-0.2-0.3-0.4c-0.1-0.2-0.2-0.4-0.1-0.7
		c0-0.4-0.1-0.5-0.5-0.5c-0.4,0-0.5,0.2-0.5,0.6c0,0.4-0.1,0.9-0.2,1.3c-0.1,0-0.3,0-0.4-0.1c-0.3-0.5-0.1-1.7,0.4-2.1
		C55.1,39,55.9,39,56.6,39.6z"/>
	<path d="M54.3,33.3c0,0.4-0.1,0.8-0.2,1.1c-0.1,0.2-0.3,0.3-0.4,0.5c-0.1-0.2-0.3-0.4-0.3-0.6c0-0.7,0-1.5,0-2.2
		c0-0.1,0.1-0.3,0.1-0.4c0.1,0.1,0.4,0.2,0.4,0.3C54.1,32.4,54.2,32.9,54.3,33.3z"/>
	<path d="M52.1,41.5c-1,0-1.4-0.4-1.2-1.2c0-0.1,0.2-0.2,0.3-0.3c0.1,0.1,0.1,0.2,0.2,0.3c0.1,0.5,0.4,0.7,0.9,0.5
		c0,0,0.1-0.1,0.1-0.1c0.3,0.1,0.5,0.1,0.8,0.2c-0.2,0.2-0.3,0.4-0.5,0.5C52.5,41.5,52.3,41.5,52.1,41.5z"/>
	<path d="M52.2,38.7c0,0.3,0,0.6,0,0.8c0,0.1-0.3,0.1-0.5,0.1c0-0.1-0.1-0.3-0.1-0.4C51.7,39,51.5,38.4,52.2,38.7z"/>
	<path d="M43.2,51.5c0-0.3,0.1-0.6,0.1-0.8c0-0.2-0.1-0.6,0.3-0.5c0.2,0.1,0.3,0.4,0.4,0.6c0.1,0.4,0,0.7,0,1.1
		c0,0.2,0.2,0.3,0.3,0.5c0.1-0.2,0.3-0.3,0.4-0.5c0.1-0.2,0-0.5,0-0.7c0-0.1,0.2-0.4,0.2-0.3c0.2,0.1,0.4,0.2,0.4,0.3
		c0.1,0.5,0.1,1,0,1.4c-0.1,0.4-0.3,0.7-0.9,0.7C43.3,53.2,43.2,53.2,43.2,51.5z"/>
	<path d="M50.6,50.1c0,0.6,0.1,1.2,0,1.7c0,0.3-0.4,0.4-0.5,0.1c-0.1-0.6,0-1.3,0-1.9C50.2,50,50.4,50,50.6,50.1z"/>
	<path d="M52.5,44.8c0.4-0.2,0.7-0.2,0.7,0.3c0,0.2-0.2,0.4-0.3,0.7c-0.1-0.2-0.2-0.3-0.3-0.5C52.6,45.1,52.6,45,52.5,44.8z"/>
	<path d="M48.3,52.1c0.1-0.2,0.1-0.3,0.2-0.4c0.1,0.1,0.4,0.2,0.4,0.3c0,0.2-0.2,0.3-0.3,0.5C48.5,52.3,48.4,52.2,48.3,52.1z"/>
	<path d="M49.2,47.6c0.2,0,0.3,0,0.4,0c-0.1,0.1-0.1,0.2-0.2,0.2c-0.2,0-0.3-0.1-0.5-0.1C49,47.7,49,47.6,49.2,47.6z"/>
	<path d="M46.7,61.6c-0.1-0.3-0.1-0.5-0.1-0.8c0-0.1,0.1-0.3,0.1-0.2c0.4,0.2,0.8,0.4,1.2,0.6c0,0,0,0.2-0.1,0.3
		C47.5,61.8,47.2,61.9,46.7,61.6z"/>
	<path d="M39.3,60.9c0.3,0.4,0.7,0.8,0.2,1.3c-0.3,0.3-0.4,0.2-0.6-0.1C38.7,61.6,38.9,61,39.3,60.9z"/>
	<path d="M45.2,62c-0.1-0.1-0.2-0.3-0.2-0.4c0-0.2,0-0.5,0.1-0.7c0.1,0,0.4,0.1,0.4,0.1c0,0.3,0,0.5,0,0.8
		C45.4,61.9,45.3,61.9,45.2,62z"/>
	<path d="M55.6,62.1c0,0.1-0.1,0.2-0.2,0.3c0,0-0.1-0.1-0.1-0.1C55.3,62.2,55.4,62.1,55.6,62.1z"/>
	<path d="M51.6,66.6c0-0.3,0-0.6,0-0.8c0-0.2,0.2-0.3,0.3-0.5c0.2,0.2,0.4,0.3,0.4,0.5c0.1,0.6-0.1,1.2,0.8,1.3c0,0,0,0.3,0,0.3
		c-0.4,0.1-0.8,0.2-1.2,0.1C51.7,67.5,51.7,66.9,51.6,66.6z"/>
	<path d="M54.1,66.5c-0.2,0.2-0.3,0.3-0.5,0.5c-0.1-0.2-0.2-0.3-0.2-0.5c0-0.1,0.1-0.2,0.2-0.4C53.7,66.3,53.9,66.4,54.1,66.5z"/>
	<path d="M46,27.4c0.1,0,0.3,0,0.4,0c-0.1,0.1-0.1,0.2-0.2,0.2C46.1,27.6,46.1,27.5,46,27.4z"/>
	<path d="M39.5,39c-0.2,0.2-0.5,0.4-0.6,0.7c-0.3,0.4-0.7,0.2-0.7-0.1c-0.1-0.5-0.2-1.3,0.1-1.5c0.5-0.4,0.5-0.8,0.7-1.3
		c0.1-0.2,0.3-0.3,0.4-0.4c0.1,0.2,0.5-0.1,0.5,0.5C39.8,37.7,39.7,38.3,39.5,39z"/>
</g>
</svg>
