<?xml version="1.0" encoding="utf-8"?>
<!-- Generator: Adobe Illustrator 20.1.0, SVG Export Plug-In . SVG Version: 6.00 Build 0)  -->
<svg version="1.1" id="Layer_1" xmlns="http://www.w3.org/2000/svg" xmlns:xlink="http://www.w3.org/1999/xlink" x="0px" y="0px"
	 viewBox="0 0 100 100" style="enable-background:new 0 0 100 100;" xml:space="preserve">
<style type="text/css">
	.st0{fill:#57110A;}
</style>
<g id="Shape_9">
	<path class="st0" d="M71.3,36.8c-0.3-0.2-0.5-0.5-0.8-0.7c-0.4-0.4-0.8-0.7-1.4-0.9c-0.5-0.2-1.2-0.1-1.5,0.4
		c0.7,0,1.4,0.3,1.9,0.8c-0.2,0.3-0.6,0.4-1,0.3c0,0.2,0,0.4,0.1,0.6c1.2-0.2,2.5-0.4,3.4,0.4c0.4,0.3,0.6,0.8,0.8,1.3
		c0.8,1.8,1.1,3.8,0.8,5.8c0,0.4,0,0.9,0.4,1c0.1,0,0.3,0,0.4-0.1c0.9-0.4,1.6-1.3,1.8-2.3c0.9,0.6,1.4,1.7,1.4,2.8
		c1.5-0.7,3.1-1.4,4.4-2.5s2.2-2.7,2.2-4.4c0-1.1,0.5-2.3,1.5-2.8s2.5,0.1,2.7,1.2c-1-0.3-2.2,0.3-2.6,1.2c0.5,0.4,0.9,0.9,1.1,1.5
		c-2.3,2.2-4.9,4-7.6,5.7c-1.1,0.7-2.2,1.5-3.4,2.2c-0.2,0.1-0.4,0.2-0.6,0.2S74.9,48.2,75,48c0.8-0.1,1.6-0.7,1.8-1.5
		c0.2-0.8-0.1-1.7-0.7-2.3c-0.2,1-1.1,1.8-2.1,2c-0.6,0.1-1.3-0.2-1.4-0.7c-0.1-0.4,0.1-0.7,0.2-1.1c0.2-0.5,0.3-1,0.3-1.5
		c0-0.4,0-0.9-0.3-1.3c-0.4-0.6-1-0.8-1.7-1c-0.4-0.1-0.8-0.2-1.1-0.1c-0.4,0.1-0.7,0.5-0.6,0.8c0.8-0.1,1.6,0,2.3,0.3
		c-0.8,0.1-1.7,0.3-2.5,0.4c0.8,0.2,1.6,0.4,2.4,0.8c0.1,0.3-0.3,0.6-0.7,0.5c-0.3-0.1-0.6-0.4-0.9-0.5s-0.8,0.2-0.7,0.5
		c0.1,0.1,0.2,0.2,0.3,0.3c0.8,0.5,1.6,0.9,2.5,1.4c-0.7,0.4-1.4-0.1-2.1-0.5c-1.5-0.8-3.4-1.2-4.7-0.1c0.6,0.2,1.1,0.5,1.6,0.9
		c-0.3,0.2-0.6,0.4-0.9,0.6c0.6,0,1.2,0.4,1.4,1c-0.4,0.1-0.7,0.2-1,0.5c0.5,0.1,0.9,0.4,1.1,0.9c-0.5,0.5-1.4-0.1-1.6-0.7
		c-0.2-0.7-0.1-1.5-0.5-2.1c-0.2-0.3-0.6-0.6-0.8-1c-0.2-0.4-0.1-1,0.4-1c-0.5-0.3-0.9-0.7-1.4-1c0.4-0.5,0.9-1,1.3-1.5
		c-0.6,0-1.1-0.3-1.3-0.9c-0.2-0.5,0.1-1.1,0.6-1.4c-1-0.1-1.7-1.5-1-2.3c-0.8-0.2-1.4-0.8-1.8-1.5c0.3-0.1,0.5-0.2,0.8-0.3
		c0-0.2,0-0.4,0-0.6c-0.4-0.2-0.7-0.4-1.1-0.6c-0.2-0.1-0.3-0.2-0.4-0.3c-0.2-0.4,0.2-0.8,0.6-1c0.4-0.2,0.9-0.2,1.1-0.5
		c-0.9-0.1-1.7-0.6-2.3-1.3c0.6-0.4,1.2-0.7,1.8-0.9c-0.5-0.2-1-0.4-1.4-0.8c-0.1-0.1-0.2-0.2-0.3-0.3c-0.1-0.3,0.1-0.6,0.4-0.7
		c0.3-0.1,0.6-0.1,0.9,0c0.2-0.4-0.1-0.8-0.3-1.1c-0.2-0.4-0.3-0.9,0-1.1c0.4-0.2,1,0.2,1.2-0.2c-0.3-0.3-0.4-0.8-0.3-1.2
		c0.3,0.1,0.7-0.2,0.8-0.5c-0.7-0.1-1.3,0.2-1.8,0.7c-0.2,0.8-0.6,1.5-1.2,2c0.5,0.1,0.1,0.8-0.1,1.2c-0.3,0.5-0.3,1.2-0.2,1.8
		c0.2,2.2,0.8,4.4,1.6,6.4c0.8,1.9,1.9,3.8,1.8,5.8c0,0.8-0.3,1.7-1,2.1c-1,0.7-2.3,0.3-3.3-0.3c-2.4-1.4-4-4-4.8-6.7
		s-0.9-5.6-1.1-8.4c0-0.7,0.8-1.1,1.5-1.1s1.5,0,2-0.5c0.6-0.6,0.3-1.6-0.1-2.3c-0.7-1.5-1.5-2.9-2.4-4.3c-0.6-0.9-2.3-0.6-2.7-1.6
		c-0.5-1.4-1.7-2.6-3.2-3c2.1-0.9,4.8,0,5.9,2.1c0.4,0.9,0.6,1.8,0.9,2.7c0.4,1,1.2,1.9,1.7,2.8c0.6,0.9,1,2.1,0.7,3.1
		c-0.3,1.1-1.5,2-2.5,1.6c-0.4-0.2-0.9,0.2-1.1,0.6c-0.2,0.4-0.1,0.9-0.1,1.3c0.4,3.6,0.8,7.3,2.8,10.4c0.7,1.1,1.7,2.2,2.9,2.8
		c0.8,0.4,1.9,0.6,2.4-0.1c-1.1-0.4-1.3-2.2-0.3-2.8c0.2-0.1,0.5-0.2,0.6-0.4c0.2-0.2,0.2-0.5,0-0.7c-0.3,0.1-0.6,0.2-0.9,0.3
		c0.4-0.7,0.3-1.6-0.2-2.2c-0.1,0.3-0.6,0.5-0.9,0.2c0.4-0.9,0.4-2.1-0.1-3c-0.3,0-0.6,0.2-0.9,0.3c-0.3,0.1-0.7-0.4-0.4-0.5
		c0.6-0.3,1-1.2,0.7-1.8c-0.2-0.7-1-1.1-1.7-1c0.5-0.5,1-1.1,1.5-1.6c-0.4-0.1-0.9,0-1.2,0.2c-0.5,0.3-0.7,1-0.6,1.5
		s0.8,0.9,1.4,0.7c-0.5,0.5-1.1,1-1.1,1.7c-0.1,0.7,0.6,1.5,1.2,1.3c0.4-0.1,0.8,0.4,0.7,0.8c-0.1,0.4-0.4,0.7-0.7,1.1
		c-0.2,0.4-0.4,0.9,0,1.2c0.6,0.5,1.6-0.5,2.3-0.1c-0.5,0.6-0.7,1.5-0.5,2.2c-0.3,0.2-0.8,0.1-1-0.3c-0.1-0.4,0-0.8,0.3-1.1
		c-0.7,0.3-1.5-0.1-1.9-0.7c-0.3-0.7-0.1-1.5,0.5-1.9c0.2-0.1,0.1-0.5-0.1-0.6c-0.2-0.1-0.5-0.1-0.7-0.1c-0.6-0.1-1-0.8-0.9-1.5
		c0.1-0.6,0.4-1.2,0.8-1.7c-0.7,0.3-1.4-0.5-1.3-1.2c0.1-0.7,0.7-1.2,1.3-1.5c-0.7-0.2-1.1-1-0.9-1.7c0.2-0.7,1-1.1,1.7-0.9
		c-0.3,0.3-0.5,0.5-0.8,0.8c0.5,0,1.1-0.3,1.4-0.8c-0.5-0.2-0.9-0.5-1.2-0.9c-0.2-0.4-0.2-1.1,0.3-1.3c0.2-0.1,0.5-0.1,0.7-0.2
		s0.5-0.4,0.3-0.6c-0.5,0.2-1.1-0.4-1-0.9s0.7-0.9,1.2-1c0.6-0.1,1.2,0.1,1.7,0.4c-0.4,0.2-0.8,0.1-1.3,0.1c-0.4,0-1,0.3-0.8,0.8
		s1.1,0.5,1.1,1c-0.5,0-0.9,0.4-0.8,0.9c0.4-0.2,0.9-0.4,1.1-0.9c0.2-0.4,0-1.1-0.5-1.1c0.6-0.5,1.7,0.1,2.3-0.5
		c0.4-0.4,0.2-1.1-0.2-1.5s-0.9-0.6-1.3-1c-0.6-0.6-0.9-1.5-0.7-2.3s0.8-1.5,1.6-1.8c0.6,0,0.7,0.9,0.9,1.5c0.3,0.6,0.9,0.9,1.6,1
		c0.6,0.1,1.3,0,1.9-0.2c-0.3-0.8,0-1.8,0.7-2.3s1.7-0.5,2.4,0.1c-0.7,0.1-1.3,0.2-1.8,0.7c-0.4,0.5-0.4,1.4,0.2,1.7
		c-0.3-0.9,0.5-1.9,1.4-1.9c-0.5,0.6-0.1,1.6,0.5,2.1c0.7,0.4,1.5,0.5,2.3,0.4s1.6-0.2,2.4-0.1c1,0.1,2,0.8,2.5,1.7
		c-0.5,0.5-1.5,0.1-1.5-0.6c-1.4-0.6-2.9-0.8-4.4-0.5c-0.4,0.2-0.7,0.7-0.6,1.1c0.1,0.5,0.5,0.8,0.9,0.9c0.4,0,0.4,0.6,0.1,0.8
		c-0.3,0.2-0.6,0.3-0.9,0.5s-0.4,0.7-0.1,0.9c1.9-1.4,4.2-2.2,6.5-2.5c0.3,0,0.5-0.4,0.8-0.6c0.2-0.2,0.7-0.4,0.9,0
		c-0.8,1-0.1,2.7,1,3.3s2.6,0.4,3.8-0.1c0.9-0.3,2,0.2,2.3,1.1s-0.3,2-1.3,2.2c0.4,0.1,0.8,0.4,0.9,0.8s-0.7,0.7-0.9,0.3
		c-0.4-1-1.8-1-2.8-0.9c-1.9,0.2-3.8,0.4-5.6,0.7c1,0.6,1.9,1.4,2.5,2.3c1,1.5,1.4,3.5,3,4.4c0.5,0.3,1.3,0.5,1.7,0
		c0.5-0.4,0-1.4-0.6-1.2c-0.3,0.1-0.6-0.2-0.5-0.5s0.4-0.5,0.7-0.6c0.9-0.3,2,0.2,2.3,1.1c0.4,0.9-0.1,2-0.8,2.6
		c-0.8,0.6-1.8,0.8-2.8,0.6c-1.3-0.2-2.6-0.9-3.4-2c-1-1.3-1.3-2.9-2-4.3s-2.1-2.7-3.6-2.5c0.4,0.4,0.4,1.1,0.2,1.6
		s-0.5,1.1-0.4,1.6c0.1,0.6,0.4,1.5-0.2,1.7c-0.2,0.1,0,0.4,0.2,0.6c0.2,0.1,0.5,0.3,0.4,0.5c0.9,0.1,1.9-0.2,2.5-0.9
		c-0.8,0-1.6-0.1-2.4-0.3c0.6-0.2,1.2-0.3,1.8-0.5c0.5-0.1,1.1-0.2,1.3,0.3c0.1,0.2,0,0.3,0,0.5c-0.2,0.7-1.1,1.1-1.8,1.2
		c-0.8,0.1-1.6,0.2-2.2,0.7c-0.3-0.7-0.7-1.4-0.5-2.2c0.1-0.6,0.4-1.4-0.2-1.5c0.2-0.1,0.4-0.4,0.4-0.6c-0.9-0.7-1.7-1.6-2.4-2.5
		c-0.2-0.1-0.4,0.2-0.3,0.5c0.1,0.2,0.3,0.4,0.5,0.5c1.3,1,1.8,2.8,1.3,4.3c-0.2,0.1-0.4,0.1-0.5,0.2c0.5,0.3,0.9,0.7,1.4,1
		c-0.4,0.1-0.8,0.2-1.3,0.3C70.9,35.5,71.3,36.2,71.3,36.8 M62.7,28.5c0.2,0.5,0.2,1.1-0.1,1.5c-0.1,0.2,0.2,0.4,0.3,0.3
		c0.1-0.3,0.2-0.6,0.1-0.9c-0.1-0.2,0-0.4,0-0.6C63.1,28.6,62.9,28.4,62.7,28.5 M64.5,35.8c-0.3-0.4-0.5-0.9-0.8-1.3
		c-0.1-0.2-0.2-0.4-0.3-0.6c-0.2,0.3,0,0.7,0.1,1c0.3,0.5,0.6,1,0.8,1.5c0.1,0.1,0.2,0.3,0.4,0.3c-0.1,0.4,0,0.8,0.2,1.2
		c0.2,0.5,0.4,1.1,0.5,1.6c0.3-0.5,0.3-1.2-0.1-1.7c-0.2-0.2-0.1-0.5-0.2-0.7c0-0.3-0.2-0.6-0.4-0.5C64.7,36.3,64.6,36,64.5,35.8
		 M67.5,23.4c-1.1-0.1-2.3,0.3-3.1,1.2c-0.3-0.2-0.3-0.8,0.1-1c-0.3-0.3,0-0.8,0.3-1c0.4-0.2,0.8-0.1,1.2-0.2
		c0.4-0.1,0.8-0.4,0.8-0.8c-0.6,0-1.3,0.1-1.9,0.3c-0.5,0.2-1,0.4-1.2,0.9c-0.3,0.6,0,1.3,0.3,1.9c0.1,0.2,0.2,0.5,0.3,0.7
		c0.8-0.6,1.6-1.1,2.5-1.5c0.2-0.1,0.5-0.2,0.7-0.1s0.4,0.4,0.2,0.6c-0.3-0.1-0.7-0.1-0.9,0.2c0.3,0.1,0.6,0.3,0.8,0.6
		c-1.5,0.4-2.7,1.8-2.9,3.3c-0.1,0.4-0.1,0.9-0.3,1.2c-0.1,0.2,0.1,0.4,0.2,0.5c0.1,0.2,0.1,0.4,0.1,0.7c0,0.2,0,0.5,0.1,0.6
		c0.2,0.2,0.5,0,0.5-0.2c-0.8-2.4,0.8-5.4,3.3-6.1c0.4-0.1,0.8-0.3,0.9-0.6c0-0.2-0.1-0.4-0.2-0.6c-0.7-1.4-0.2-3.4,1.2-4.2
		c-0.8-0.3-1.5-1.1-1.7-2c-0.3,0.5-0.2,1.3,0.3,1.7c-0.5,0.4-1.2,0-1.8-0.2c-1-0.3-2,0-3-0.1s-2.1-1-1.8-1.9c-0.2,0-0.5,0.1-0.7,0.1
		c0.2,0.4-0.1,0.9-0.1,1.3s0.4,1,0.8,0.7c-0.4-0.1-0.6-0.5-0.6-0.9c0.7-0.1,0.8,0.9,1.4,1.3c0.2,0.1,0.4,0.2,0.6,0.3
		c1.3,0.3,2.6,0.6,3.8,0.9c0.3,0.1,0.4,0.6,0.1,0.8c-0.2,0.2-0.6,0.3-0.9,0.4c0.4,0,0.8,0,1.1,0.3C68.1,22.8,67.9,23.4,67.5,23.4
		 M78.9,26c-0.8,0.7-1.9,0.7-2.9,0.7c-0.9,0-1.9,0-2.8,0c-0.4,0-0.9,0-1.2-0.4c-0.5-0.6-1.4-0.7-2.1-0.3c-0.1,0.5-0.4,1-0.8,1.4
		c-0.2,0.2-0.4,0.3-0.5,0.5s0,0.5,0.3,0.5c0-0.2,0.2-0.4,0.4-0.4c0.8,0.9,1.8,1.7,2.8,2.4c0.2-0.9,0.2-1.8,0-2.7
		c-0.2,0.5-0.4,1-0.6,1.5c0-0.6-0.3-1.2-0.8-1.6c-0.2-0.1-0.3-0.2-0.4-0.4c-0.1-0.2,0-0.4,0.2-0.4c1,0.1,2,0.2,3,0.4
		c0.4,0,0.7,0.1,1.1,0.1c1.9,0.2,3.9,0,5.8-0.5c0.5-0.1,1-0.3,1.5-0.3c0.6,0,1.2,0.2,1.8,0.3c0.6,0.1,1.3-0.1,1.6-0.7
		c0.2-0.4,0.1-1-0.3-1.3s-1-0.2-1.3,0.2c0.4,0.1,0.8,0.3,1.1,0.7c-0.2,0.1-0.4,0.2-0.7,0.2c-0.6,0.1-1.2-0.2-1.8-0.4
		c-0.1-0.1-0.3-0.1-0.4-0.2c-0.8-0.4-1.7-0.7-2.5-1.1c0,0.7-1.1,1.1-1.6,0.6c-0.3,0.8-1.4,1-2,0.5c-0.2-0.2-0.5,0-0.8,0.1
		c-0.6,0.4-1.5,0.4-2.1,0.1c-0.1,0.3,0.3,0.5,0.6,0.6c1.4,0.2,2.8,0.2,4.1-0.2C78,25.9,78.5,25.7,78.9,26 M66.3,28.7
		c0,0.3-0.2,0.5-0.4,0.7c-0.2,0.2-0.2,0.6,0,0.8c0.2,0,0.2-0.2,0.2-0.4c0-0.2,0-0.4,0.2-0.4s0.3,0.2,0.3,0.4c0,0.2,0.2,0.4,0.4,0.3
		c0.3-0.2,0.6,0,0.8,0.2c0.2,0.2,0.3,0.6,0.3,0.9c0,0.1,0,0.3-0.1,0.4s-0.3,0.1-0.3,0c-0.2-0.4-0.8-0.6-0.9-1
		c-0.2,0.4-0.1,0.8,0.2,1.1c0.3,0.3,0.7,0.4,1.1,0.3c0.3-0.1,0.6,0.2,0.8,0.4c0.3,0.4,0.7,0.9,0.7,1.4c0,0.2,0.3,0.2,0.4,0.1
		s0.2-0.3,0.3-0.5c0.2-0.8,0.3-1.8-0.3-2.4c-0.7-0.7-1.3-1.5-1.8-2.4c-0.1-0.2-0.3-0.5-0.6-0.3c0,0.2,0.1,0.4,0.1,0.6
		s-0.1,0.5-0.3,0.5c0.1,0.1,0.1,0.2,0.2,0.3c0.1-0.1,0.2-0.1,0.3-0.1c0.1,0.1,0.1,0.3,0,0.4c-0.2-0.1-0.5-0.1-0.7,0
		C67.3,29.2,66.8,28.6,66.3,28.7 M69.4,38.8c0.1,0.1,0.2,0.1,0.3,0.1c0.3,0,0.7,0,1,0c0.1,0.1,0.1,0.2,0.2,0.3c-0.3,0.4-1,0.4-1.3,0
		c-0.2,0.4-0.2,0.8,0,1.2c0.1,0.1,0.1-0.2,0.2-0.3c0.1-0.2,0.4-0.3,0.6-0.2c0.6,0,1.2,0.1,1.9,0.1c0.2-0.6-0.2-1.3-0.6-1.9
		c-0.1-0.2-0.2-0.4-0.4-0.4c-0.3-0.1-0.6,0-0.8,0c-0.2,0-0.4,0-0.7-0.1s-0.5,0.1-0.6,0.2s-0.1,0.5,0.1,0.6c0-0.1,0.1-0.3,0.1-0.4
		c0.3,0,0.7,0,1,0.1c0,0.1,0.1,0.1,0.1,0.2c0,0.2-0.4,0.2-0.6,0.2C69.6,38.5,69.3,38.6,69.4,38.8 M85.7,36.7
		c-0.4,0.2-0.7,0.7-0.8,1.2c-0.1,0.2-0.1,0.4-0.2,0.5s-0.1,0.3-0.1,0.4c0,0.3,0.1,0.5,0.3,0.7c0.3,0.6,0.3,1.4-0.2,1.7
		c-0.1,0.1-0.3,0.1-0.4,0.2c-0.1,0.1-0.2,0.3-0.1,0.4c0.3,0.1,0.6-0.3,0.8-0.6c0.2-0.3,0.5-0.4,0.8-0.7c0.2-0.3,0.3-0.7,0-0.9
		c-0.1-0.1-0.2-0.3-0.2-0.4c0-0.7,0.1-1.4,0.7-1.8c0.3-0.2,0.7-0.3,1.1-0.4c0.1-0.2-0.1-0.3-0.2-0.4c-0.2-0.1-0.3-0.1-0.5-0.1
		C86.3,36.6,86,36.6,85.7,36.7 M66.6,32.5c0,0.3,0,0.6,0,0.8c0,0.1,0,0.2,0,0.3c0.2,0.5,1.2-0.1,1.4,0.4c0.1,0.2-0.2,0.5-0.4,0.4
		c-0.2-0.1-0.3-0.3-0.5-0.2c-0.1,0.1-0.1,0.3,0,0.4c0.1,0.1,0.3,0.1,0.4,0.1c0.6,0,1.3,0,1.9-0.1c-0.3-0.6-0.7-1.1-1.1-1.7
		C68,32.4,67.3,32.4,66.6,32.5 M75,25.2c0-0.5-0.2-1-0.6-1.2c-0.3-0.1-0.7-0.2-0.7-0.5c-0.4,0-0.8,0-1.3,0c0,0.1-0.1,0.2-0.1,0.3
		c-0.1,0.2-0.3,0.1-0.6,0.1c-0.2,0-0.5,0.2-0.3,0.3c0,0,0.1,0.1,0.2,0.1c0.4,0.1,0.8,0,0.9-0.3c0.1,0,0.1,0,0.2,0
		c-0.1,0.2,0.2,0.3,0.4,0.4s0.5,0.2,0.4,0.4c-0.2,0.2-0.5,0.3-0.8,0.3c-0.1,0.1-0.1,0.3,0,0.4s0.3,0.1,0.4,0.1
		C73.8,25.3,74.4,25.2,75,25.2 M68.7,39.3c-0.5-0.3-0.1-1.1-0.4-1.5c-0.1-0.1-0.4-0.3-0.3-0.5s-0.1-0.5-0.2-0.6
		c-0.2-0.2-0.4-0.5-0.6-0.7c-0.2,0-0.2,0.4,0,0.5c0.1,0.1,0.4,0.2,0.4,0.4c0.1,0.2-0.1,0.6,0.1,0.7c0.3,0.1,0.3,0.5,0.3,0.8
		s-0.1,0.6,0.1,0.9c0.4,0.5,0.4,1.1,0.4,1.7c0,0.7,0,1.4,0,2.1c0.2,0,0.3,0,0.5,0c0.1-1.1,0-2.2,0-3.3
		C68.9,39.6,68.9,39.4,68.7,39.3 M78,23.3c0-0.3-0.1-0.6-0.1-0.9c0-0.1,0-0.2-0.1-0.2c-0.1-0.1-0.3,0-0.5,0.2s-0.4,0.2-0.5,0.1
		c0-0.1,0-0.2-0.1-0.2c0-0.1-0.2,0-0.1,0c-0.2,0.2-0.2,0.6-0.1,0.8c0.1,0.3,0.4,0.5,0.6,0.7c0.3,0.2,0.5,0.4,0.8,0.5s0.7,0.1,1-0.1
		C78.6,23.8,78.3,23.6,78,23.3 M51.6,16.9c0.5-0.3,1.3,0,1.5,0.5c0.3-0.2,0.1-0.5-0.2-0.7c-0.4-0.4-0.8-0.7-1.3-0.8
		c-0.3,0-0.6-0.3-0.9-0.4c-0.3-0.1-0.8-0.1-0.9,0.2c0.4,0.2,0.8,0.5,1.3,0.7C51.3,16.5,51.5,16.7,51.6,16.9 M79.3,33.1
		c0-0.3-0.2-0.4-0.4-0.7c-0.2-0.2-0.3-0.5-0.1-0.7c-0.2-0.1-0.4,0.1-0.4,0.2c0,0.2,0.1,0.4,0.2,0.5s0.2,0.3,0.3,0.5
		c0.2,1.1,0.9,2,1.9,2.6c0.1,0.1,0.2,0.1,0.3,0.1c0.1,0,0.2-0.2,0.1-0.3c-0.5-0.3-0.9-0.7-1.3-1.2C79.6,33.9,79.3,33.5,79.3,33.1
		 M82.9,36.5c0.1-0.1,0.2-0.2,0.2-0.3c0.4,0.2,0.9,0,1.2-0.4c0.2-0.4,0.3-0.9,0.3-1.3c0-0.3,0-0.6-0.2-0.8s-0.5-0.4-0.7-0.2
		c-0.1,0-0.1,0.3,0,0.3c0.1,0.1,0.3,0.1,0.4,0.2c0.1,0.1,0.1,0.2,0.1,0.3c0.1,0.4,0,0.9-0.2,1.2s-0.8,0.5-1.1,0.2
		C82.7,35.9,82.7,36.2,82.9,36.5 M63.4,24.7c-0.3,0.3,0,0.8-0.2,1.1c-0.1,0.3-0.4,0.4-0.5,0.7c-0.1,0.4,0.5,0.7,0.6,1.1
		c0.2,0,0.1-0.3,0-0.4s-0.3-0.3-0.2-0.5c0.5-0.4,0.7-1.2,0.4-1.8C63.7,24.8,63.5,24.6,63.4,24.7 M62,39.9c-0.2,0.6-0.3,1.2,0,1.7
		c0.1,0.1,0.2,0.2,0.4,0.2s0.3-0.1,0.3-0.3c-0.4-0.2-0.5-0.7-0.2-1.1c0.1-0.2,0.3-0.4,0.2-0.6C62.4,39.9,62.2,39.9,62,39.9
		 M59.5,28.4c0-0.1-0.1-0.2-0.2-0.3c-0.1,0-0.3,0-0.4,0c-0.4,0-0.8-0.1-1-0.4c-0.2,0.1-0.3,0.3-0.2,0.5s0.3,0.3,0.5,0.3
		s0.3-0.2,0.5-0.2s0.3,0.1,0.5,0.1C59.2,28.6,59.5,28.5,59.5,28.4 M76.6,24.7c0.1,0.1,0.3,0.2,0.4,0.1c0.1,0,0.2-0.3,0.1-0.3
		c-0.4-0.1-0.6-0.4-1-0.5c-0.3-0.2-0.8-0.2-1,0.1C75.7,24.2,76.2,24.4,76.6,24.7 M59.3,25.9c0.1,0.2,0.3,0.4,0.4,0.6
		c0.3-0.1,0.2-0.6,0.1-0.9c-0.1-0.2-0.4-0.5-0.6-0.4C58.9,25.3,59,25.8,59.3,25.9 M74.7,22.6c-0.2,0.3,0.1,0.6,0.4,0.7
		s0.6,0.1,0.9,0.1c0.1-0.1,0-0.3-0.2-0.4c-0.1-0.1-0.3-0.1-0.5-0.1C75.2,22.7,74.9,22.5,74.7,22.6 M70.4,24.2c0,0.4,0.3,0.9,0.6,1.1
		c0.1,0.1,0.4-0.1,0.3-0.3s-0.2-0.3-0.3-0.4c-0.1-0.1-0.3-0.2-0.3-0.4C70.6,24.2,70.5,24.2,70.4,24.2 M68.5,26.6
		c-0.2,0-0.5,0.2-0.4,0.4c0.1,0.2,0.4,0.1,0.6-0.1s0.4-0.4,0.6-0.3c0-0.1,0.1-0.2,0-0.2C69,26.2,68.6,26.3,68.5,26.6 M67.1,39
		c-0.1,0.1,0,0.3,0.1,0.4c0.2-0.4,0.3-0.9,0.1-1.3c-0.2,0-0.3,0.2-0.3,0.4C67,38.7,67.1,38.8,67.1,39 M51.9,17.6
		c0,0.2,0.1,0.3,0.2,0.4c0.1,0.1,0.4,0,0.3-0.2c-0.1-0.3-0.2-0.7-0.6-0.8C51.8,17.3,51.9,17.5,51.9,17.6 M65.6,32.2
		c0-0.1-0.1-0.2-0.2-0.3s-0.3,0-0.3,0.1c0,0.3,0.1,0.6,0.2,0.9c0.1,0,0.3-0.1,0.3-0.2C65.6,32.5,65.6,32.3,65.6,32.2 M62.8,33.3
		c0,0.1,0,0.1,0,0.2c0,0.1,0.2,0.2,0.3,0.1c0.1-0.3-0.1-0.7-0.3-1c-0.1-0.1-0.1-0.2-0.3-0.2s-0.3,0.1-0.2,0.2
		C62.6,32.7,62.9,33,62.8,33.3 M67.6,40.7c-0.1,0.2,0,0.5,0.2,0.6c0.1-0.5,0-0.9-0.1-1.4c-0.1-0.1-0.2,0.2-0.2,0.3
		C67.6,40.4,67.7,40.6,67.6,40.7 M67.2,27.9C67.2,27.8,67.2,27.8,67.2,27.9c-0.4-0.2-0.7-0.3-0.9-0.5c0,0.4,0.4,0.7,0.8,0.7
		C67.1,28,67.3,28,67.2,27.9 M77.8,32c0.1-0.1-0.1-0.2-0.2-0.2c-0.1,0.1-0.1,0.2-0.1,0.4s0.1,0.6,0.4,0.5
		C77.9,32.4,77.9,32.2,77.8,32 M63.2,32.4c0,0.1,0,0.2,0,0.3c0.1,0.1,0.2,0.2,0.3,0.2c0.1-0.3,0.1-0.7-0.1-1
		C63.4,32,63.3,32.2,63.2,32.4 M63.9,33.8c0.2,0,0.3-0.2,0.3-0.4s-0.1-0.3-0.2-0.5c-0.2,0-0.3,0.2-0.3,0.3
		C63.7,33.5,63.8,33.6,63.9,33.8 M64.5,34.1c-0.1-0.1-0.2-0.2-0.3-0.2c-0.1,0.3-0.1,0.6,0,0.8c0.1,0.1,0.3-0.1,0.3-0.2
		C64.6,34.4,64.6,34.2,64.5,34.1 M65.9,39.7c0.2,0.2,0.3,0.4,0.5,0.5c0.1-0.2,0.1-0.5,0-0.7C66.2,39.5,66.1,39.6,65.9,39.7
		 M66.6,37.2c0,0.2,0.1,0.4,0.2,0.6c0.2-0.2,0.2-0.7-0.1-0.8C66.7,37,66.6,37.1,66.6,37.2 M78.1,33.1c-0.2,0.2-0.1,0.5,0.1,0.7
		C78.4,33.6,78.4,33.1,78.1,33.1 M66.7,43.1c0.2,0,0.3,0,0.5,0c0-0.1,0.1-0.1,0-0.2c-0.2-0.2-0.5-0.2-0.7,0
		C66.5,42.9,66.6,43,66.7,43.1 M66.6,25c0-0.2-0.3-0.2-0.4-0.1s-0.1,0.4,0.1,0.4S66.7,25.2,66.6,25 M72,25.3c-0.2,0-0.1,0.3,0,0.4
		c0.2,0,0.3-0.1,0.4-0.2C72.5,25.4,72.2,25.3,72,25.3 M82,35.8c-0.2,0-0.3,0-0.5,0c0,0.2,0.2,0.4,0.5,0.4C82,36.1,82,36,82,35.8
		 M74.8,28.3c0.1,0.2,0.5,0.3,0.7,0.1C75.3,28.2,75,28.2,74.8,28.3 M65.7,33.5c0,0.2,0.1,0.4,0.2,0.5c0.1-0.2,0.1-0.5-0.1-0.7
		C65.8,33.4,65.7,33.4,65.7,33.5 M68.4,36.4c0.1-0.1-0.1-0.3-0.2-0.3s-0.2,0.2-0.1,0.3C68.2,36.6,68.4,36.5,68.4,36.4 M53.6,17.7
		c-0.1,0-0.2,0-0.2,0c0,0.2,0,0.3,0.1,0.5C53.7,18.1,53.7,17.8,53.6,17.7 M78.2,31.4c0.1,0,0.2-0.1,0.1-0.2c0-0.1-0.1-0.1-0.2-0.2
		C78,31.1,78,31.2,78,31.3C78,31.3,78.1,31.4,78.2,31.4 M72.3,40c0,0.1,0,0.2,0,0.2c0.1,0,0.2,0.1,0.2,0s0.1-0.1,0-0.2
		C72.5,40,72.4,40,72.3,40 M64.9,35.2c-0.2,0-0.2,0.3-0.1,0.4c0.1,0,0.1-0.1,0.2-0.1C65,35.3,65,35.3,64.9,35.2 M65.8,40.6
		c-0.1,0.1,0.2,0.3,0.2,0.1C66.1,40.6,65.9,40.6,65.8,40.6 M66.4,32.3c0.1-0.1,0-0.2-0.1-0.3C66.2,32.1,66.2,32.3,66.4,32.3
		L66.4,32.3z"/>
	<path class="st0" d="M14.9,39.1c4.2-3.9,8.8-7.4,13.7-10.2c0.2-0.1,0.3-0.2,0.5-0.2c0.3,0.1,0.5,0.5,0.3,0.8
		c-0.1,0.3-0.4,0.5-0.7,0.7c-3.9,2.6-7.8,5.2-11.7,7.7C16.4,38.4,15.7,38.8,14.9,39.1 M26.1,31c-0.1,0-0.2,0-0.4,0
		c-0.1,0.1,0,0.3,0.2,0.4c0.1,0.1,0.3,0,0.5,0C26.5,31.2,26.3,31,26.1,31 M23.9,32.3c-0.2,0.1-0.3,0.3-0.1,0.5
		c0.1,0.1,0.4,0,0.5-0.1C24.3,32.5,24,32.3,23.9,32.3 M25.5,31.7c-0.1-0.1-0.2-0.2-0.3-0.2c-0.1,0.1-0.2,0.2-0.2,0.3
		c0.1,0.1,0.3,0.2,0.5,0.1C25.5,31.9,25.6,31.8,25.5,31.7 M23.5,33.3c0.1-0.1,0.1-0.4-0.1-0.4s-0.3,0.1-0.3,0.3
		C23.2,33.3,23.3,33.4,23.5,33.3 M24.9,32.3c0-0.1,0-0.2-0.1-0.3c-0.1,0-0.2,0-0.3,0c0,0.1-0.1,0.1-0.1,0.2
		C24.5,32.3,24.8,32.4,24.9,32.3 M22.4,33.7c0.2,0,0.4,0,0.4-0.2c-0.1-0.1-0.3-0.2-0.4-0.1C22.3,33.4,22.3,33.7,22.4,33.7 M21,34.3
		c0,0.2,0.2,0.5,0.4,0.4C21.5,34.5,21.3,34.2,21,34.3 M20.2,35.6c0.1-0.1,0-0.4-0.2-0.4c-0.1,0.1-0.2,0.3-0.1,0.4
		C19.9,35.6,20.1,35.6,20.2,35.6 M21.8,34.2c0.1,0,0.2,0,0.3,0c0-0.1-0.1-0.3-0.2-0.3s-0.1,0.1-0.2,0.2
		C21.7,34.1,21.7,34.2,21.8,34.2 M20.6,35.1c0-0.1,0-0.2,0-0.2c-0.1-0.1-0.3,0-0.4,0.1C20.4,35.1,20.5,35.1,20.6,35.1 M26.7,30.6
		l-0.1,0.1c0,0.1,0.3,0.2,0.4,0C26.9,30.7,26.8,30.7,26.7,30.6L26.7,30.6z"/>
	<path class="st0" d="M12.2,42.2c0,0.6-0.7,1-1.3,1.3c0.7-2.3,2.2-4.3,3.9-6c2.5-2.6,5.3-4.9,8.4-6.8c0.5-0.3,1.2-0.7,1.8-0.5
		c-1.2,0.8-2.4,1.7-3.6,2.5c-1.3,0.9-2.6,1.8-3.8,2.9c-2,1.7-3.7,3.6-5.1,5.7C12.4,41.5,12.2,41.8,12.2,42.2z"/>
	<path class="st0" d="M73.1,80.3c0.3,0.2,0.6,0.3,1,0.2c0.7-0.1,1.5,0.3,1.8,1c0.1,0.2,0.1,0.4,0,0.6s-0.4,0.3-0.6,0.4
		c-0.2-0.1-0.2-0.3-0.2-0.5s0.1-0.4,0.1-0.5c0-0.3-0.3-0.5-0.6-0.6c-0.3-0.1-0.6,0-0.8,0c-0.2,0.3-0.4,0.6-0.6,0.9
		c0.4,0.3,0.6,0.8,0.5,1.3s-0.4,0.9-0.8,1.2c-0.2-0.1-0.2-0.4-0.1-0.6s0.3-0.3,0.4-0.5s0-0.5-0.1-0.7c-0.1-0.3-0.3-0.6-0.5-0.9
		c-0.2-0.2-0.6-0.4-0.9-0.2c-0.1,0.1-0.3,0-0.4-0.2c-0.1-0.1,0-0.3,0.1-0.4c0.2-0.2,0.5-0.3,0.8-0.3c0.2,0.1,0.4,0.2,0.6,0.3
		c0.2,0,0.5-0.1,0.4-0.3c-0.3-0.3-0.5-0.6-0.7-1c0.5-0.1,0.9-0.2,1.4-0.3c0.3-0.1,0.7-0.3,1.1-0.2c0.7,0,1.3,0.7,1.2,1.4
		c0,0.1,0,0.2-0.1,0.2s-0.2,0-0.2,0c-0.2-0.5-0.6-1.1-1.1-1.1c-0.3,0-0.6,0.2-0.8,0.3C73.5,80,73.3,80.2,73.1,80.3z"/>
	<path class="st0" d="M74.4,46.5c0.5-0.1,1-0.5,1.4-0.9c0.1-0.1,0.3-0.2,0.4-0.2c0.2,0.1,0.2,0.3,0.1,0.5c-0.3,0.9-1.1,1.7-2,2
		c-0.1,0.1,0,0.2,0,0.3c0.1,0.1,0.2,0.2,0.2,0.3c0,0.2-0.2,0.3-0.4,0.2c-0.2-0.1-0.3-0.2-0.4-0.4c-0.9-1.2-2.1-2.2-3.4-3
		c-0.2-0.1-0.1-0.4,0.1-0.4c0.2-0.1,0.4,0,0.5,0c0,0.2,0.1,0.3,0.3,0.4s0.4,0.1,0.5,0.2C72.4,46.5,73.5,46.8,74.4,46.5 M73.9,47.1
		c-0.1,0.1-0.1,0.1-0.1,0.2c0.2,0.2,0.5,0.2,0.6,0C74.4,47.1,74.1,47,73.9,47.1L73.9,47.1z"/>
	<path class="st0" d="M90.6,41.9c0.3,0,0.5,0.1,0.8,0.2c0.4,0.2,0.8,0.4,0.9,0.7c0.2,0.5,0,1,0.1,1.5c0.1,0.3-0.1,0.5-0.2,0.7
		c-0.2,0.2-0.4,0.3-0.7,0.4c-0.2,0.1-0.4,0.2-0.6,0.1c-0.2-0.1-0.3-0.3-0.2-0.5c0.4-0.3,0.5-0.9,0.2-1.3c-0.7,0-0.8,1-1.4,1.3
		c-0.2,0.1-0.5,0-0.8,0.1s-0.6,0.1-0.6,0.4c-0.2-0.1-0.4-0.4-0.3-0.7c0.2-0.2,0.5-0.1,0.8-0.1c0.5,0,0.9-0.2,1.2-0.6
		c0.3-0.4,0.4-0.8,0.5-1.3c-0.2,0-0.5-0.1-0.7-0.2C89.8,42.2,90.2,41.9,90.6,41.9 M90.6,43.1c0.5,0.2,0.9,0.7,1.1,1.3
		c0,0.1,0.1,0.2,0.2,0.3c0.1,0,0.3-0.1,0.3-0.3c0.1-0.4,0-0.9-0.2-1.2s-0.5-0.4-0.7-0.6c-0.1-0.1-0.3-0.2-0.5-0.2s-0.4,0-0.5,0.2
		C90.4,42.6,90.6,42.8,90.6,43.1z"/>
	<path class="st0" d="M62.7,55.9c-0.4,0.6-0.1,1.5-0.5,2s-1.2,0.3-1.8,0.5c-0.1,0-0.3,0.1-0.4,0c-0.1-0.1-0.1-0.1-0.1-0.2
		c0-0.4-0.1-0.7,0-1.1c0.1-0.4,0.4-0.7,0.7-0.8c0.4-0.1,0.7-0.2,1-0.5c0.2-0.2,0.4-0.4,0.6-0.5C62.5,55.4,62.8,55.7,62.7,55.9
		 M60.9,57.8L60.9,57.8c0-0.3-0.3-0.3-0.4-0.1C60.5,57.7,60.7,57.8,60.9,57.8L60.9,57.8z"/>
	<path class="st0" d="M85.5,43.5c0-0.2,0.3-0.3,0.5-0.3c0.3,0,0.5,0,0.8,0c0.5,0,1.1,0,1.4,0.4c0.1,0.2,0.1,0.4,0,0.5
		c-0.2,0.1-0.4,0.1-0.5,0.2c-0.1,0.1-0.1,0.2-0.1,0.2c-0.1,0.4-0.1,0.8,0.1,1.1c0.1,0.1,0,0.4-0.2,0.4s-0.5,0-0.6-0.2
		s-0.1-0.4-0.1-0.6c0-0.2,0-0.4,0-0.6c-0.4-0.2-0.8-0.6-1.2-1C85.6,43.7,85.5,43.6,85.5,43.5z"/>
	<path class="st0" d="M46.2,56.4c0.1,0,0.2,0.1,0.3,0.1c0.2,0.1,0.3,0.4,0.2,0.6c-0.1,0.2-0.4,0.3-0.6,0.3c-0.1,0.1-0.1,0.2,0,0.3
		c0.3,0,0.6,0.2,0.6,0.5s-0.2,0.6-0.5,0.6s-0.6,0.2-0.8,0.4c-0.3,0.1-0.6,0.2-0.9,0.1c0.3-0.5,0.8-0.9,1.4-1.1
		c-0.3-0.2-0.6-0.4-0.9-0.6c-0.1-0.1-0.2-0.2-0.2-0.3s0-0.1,0.1-0.2C45.2,56.6,45.7,56.3,46.2,56.4z"/>
	<path class="st0" d="M69.7,80.3c-0.5-0.9-1.8-1.1-2.5-1.9c0.1-0.2,0.4-0.2,0.6-0.1s0.4,0.3,0.6,0.4c0.8,0.2,1.5,0.7,2.1,1.4
		c0.3,0.4,0.6,1,0.3,1.4c-0.1,0.1-0.4,0-0.5-0.1s-0.3-0.3-0.4-0.3c-0.2-0.1-0.4,0-0.6,0s-0.4-0.2-0.3-0.4c0.1-0.1,0.3-0.1,0.4-0.1
		C69.5,80.5,69.7,80.4,69.7,80.3z"/>
	<path class="st0" d="M82.1,30c0.1,0.1,0.3,0,0.4-0.1c0.4-0.5,0.6-1.2,0.6-1.8c0-0.1,0.2-0.2,0.3-0.1c0.1,0.1,0.2,0.2,0.2,0.4
		c0.1,0.9-0.2,1.8-0.9,2.4c-0.2,0.2-0.7,0.3-0.8,0.1c-0.1-0.1-0.1-0.2-0.1-0.3c0-0.8,0-1.5,0-2.3c0-0.1,0-0.3,0.2-0.3
		s0.2,0.2,0.2,0.4C82.1,28.9,82.1,29.4,82.1,30z"/>
	<path class="st0" d="M87.1,41.5c0.4,0.1,0.7,0.5,0.9,0.8c0.3,0.3,0.7,0.6,1.1,0.4c0.2-0.1,0.3,0.2,0.2,0.3
		c-0.1,0.2-0.3,0.2-0.5,0.2s-0.4-0.1-0.6-0.2c-0.4-0.2-0.7-0.5-1.2-0.6c-0.5-0.2-1-0.2-1.4-0.1c-0.1-0.1,0-0.3,0.1-0.4
		c0.4-0.3,0.8-0.6,1.2-0.9c0.2-0.1,0.4-0.2,0.6-0.2S88,41,88,41.2C87.7,41.3,87.4,41.4,87.1,41.5z"/>
	<path class="st0" d="M56.9,58.8c-0.3-0.2-0.4-0.6-0.2-0.9c0.2-0.3,0.5-0.4,0.9-0.5c0.3-0.1,0.7,0,1-0.1c0.3,0,0.4,0.3,0.4,0.5
		c0,0.4-0.3,0.8-0.7,0.9c-0.4,0.2-0.8,0.2-1.2,0.1C57.1,58.8,57,58.8,56.9,58.8z"/>
	<path class="st0" d="M73.7,78.2c0.2,0,0.4-0.1,0.6-0.3c-0.3-0.1-0.5-0.4-0.8-0.5c-0.3-0.2-0.7-0.3-0.9-0.1
		c-0.1,0.1-0.2,0.2-0.4,0.3c-0.3,0.2-0.9,0-1,0.4c-0.1,0.2-0.4,0-0.4-0.2s0.2-0.3,0.4-0.4c0.7-0.4,1.5-0.8,2.3-0.6
		c0.3,0.1,0.6,0.3,0.9,0.5c0.4,0.3,0.9,0.8,0.8,1.3c-0.3,0.1-0.7,0.1-1,0C73.9,78.6,73.6,78.4,73.7,78.2z"/>
	<path class="st0" d="M53.3,57.9c0.1-0.1,0.2-0.2,0.3-0.3c0.6-0.3,1.2-0.4,1.8-0.3c0.1,0,0.2,0,0.2,0.1c0.1,0.1,0.1,0.2,0.1,0.3
		c0,0.4-0.3,0.9-0.7,1c-0.4,0.2-0.9,0.1-1.3-0.1C53.5,58.5,53.2,58.2,53.3,57.9z"/>
	<path class="st0" d="M51.2,58.3c-0.2,0-0.4,0-0.6-0.1c-0.2-0.1-0.3-0.3-0.3-0.5c0-0.1,0.1-0.2,0.1-0.2c0.3-0.4,0.8-0.7,1.3-0.6
		c0.2,0,0.4,0.1,0.5,0.2c0.1,0.1,0.2,0.3,0.2,0.4c0,0.3-0.2,0.6-0.5,0.7S51.5,58.3,51.2,58.3z"/>
	<path class="st0" d="M48.2,57.9c-0.2,0-0.3-0.1-0.4-0.2c-0.2-0.2-0.1-0.5,0-0.8c0.3-0.5,1-0.6,1.5-0.3c0.4,0.2,0.3,0.8,0,1
		S48.6,57.9,48.2,57.9z"/>
	<path class="st0" d="M72.1,20.4c0,0.2,0,0.4,0.1,0.5c0.6,0,1.3,0,1.9,0.1c0.1,0,0.3,0.1,0.2,0.2c-0.3,0.7-1.3,1-1.9,0.6
		c-0.3-0.2-0.5-0.5-0.8-0.5C71.6,20.9,71.8,20.6,72.1,20.4z"/>
	<path class="st0" d="M61.7,48.3c0-0.1,0.1-0.2,0.1-0.2c0.2-0.2,0.4-0.2,0.7,0c0.2,0.1,0.3,0.3,0.5,0.5c0.1,0.2,0.2,0.4,0.2,0.6
		c0,0.2-0.3,0.3-0.5,0.3s-0.4,0-0.6-0.1c-0.2,0-0.3-0.1-0.4-0.2C61.5,48.9,61.6,48.6,61.7,48.3z"/>
	<path class="st0" d="M90,62c0-0.1,0.1-0.3,0.1-0.4c0.6-0.1,1.1,0.2,1.5,0.6c0.4,0.4,0.5,1,0.4,1.6c0,0.1-0.1,0.3-0.2,0.3
		s-0.2-0.2-0.2-0.4c0-0.5-0.2-1-0.6-1.4C90.8,62.1,90.4,61.9,90,62z"/>
	<path class="st0" d="M51.8,34c0.1,0.1-0.1,0.2-0.3,0.3c-0.5,0-1-0.2-1.3,0.2c-0.4,0.4-1,0.4-1.4,0.1c0.5-0.4,1-0.6,1.6-0.7
		C50.8,33.7,51.3,33.7,51.8,34C51.7,34,51.8,34,51.8,34z"/>
	<path class="st0" d="M90.1,38.8C89.7,39,89.3,39,88.9,39c-0.4,0.4-0.9,0.9-1.3,1.3c-0.3-0.3,0-0.8,0.3-1.1s0.6-0.6,1-0.7
		C89.3,38.4,89.8,38.4,90.1,38.8C90.1,38.8,90.1,38.8,90.1,38.8z"/>
	<path class="st0" d="M89.6,39.3c0,0.3,0.2,0.6,0.5,0.7c-0.3,0.6-0.8,1.1-1.3,1.6c-0.1,0.1-0.2,0.2-0.4,0.2s-0.3,0-0.4-0.2
		c0-0.1,0.1-0.3,0.3-0.2c0.2,0.1,0.4-0.1,0.4-0.3c0.3-0.6,0.5-1.2,0.6-1.8C89.5,39.3,89.6,39.3,89.6,39.3z"/>
	<path class="st0" d="M61.9,47.2c-0.1-0.3,0.1-0.6,0.3-0.8c0.1-0.1,0.2-0.2,0.4-0.4c0.3,0.2,0.5,0.4,0.7,0.7c0.1,0.3,0,0.7-0.3,0.8
		C62.5,47.6,62,47.6,61.9,47.2z"/>
	<path class="st0" d="M91,39.4c0.1,0.2,0.2,0.3,0.4,0.5c0.1,0.1,0.1,0.2,0.1,0.3c0,0.3-0.2,0.6-0.5,0.6c-0.3,0.1-0.6,0-0.8-0.3
		c0.3,0,0.5-0.4,0.4-0.7s-0.3-0.5-0.6-0.7c0-0.2,0.3-0.3,0.5-0.2C90.8,39.1,90.9,39.2,91,39.4z"/>
	<path class="st0" d="M59.1,45.2c-0.1,0.6-0.4,1.1-0.7,1.6l-0.1,0.1c-0.1,0-0.1,0-0.1-0.1c-0.3-0.3-0.1-0.8,0.1-1.2
		c0.2-0.4,0.4-0.7,0.4-1.1c0.2-0.1,0.4,0,0.4,0.2C59.2,44.8,59.1,45,59.1,45.2z"/>
	<path class="st0" d="M51,31.7c-0.5,0.1-1,0.3-1.5,0.5c-0.4,0.1-0.8,0.3-1.2,0.1c-0.1-0.1,0-0.3,0.2-0.4
		C49.1,31.3,50.2,31.2,51,31.7z"/>
	<path class="st0" d="M54.7,23.2c0.1,0.2-0.1,0.4,0,0.6c-0.1,0-0.2,0-0.3,0c0-0.3-0.3-0.5-0.6-0.7c-0.4-0.2-0.8-0.4-1.2-0.7
		c-0.1,0-0.1-0.1-0.2-0.1c-0.1-0.2,0.1-0.4,0.3-0.4s0.4,0.1,0.5,0.2c0.4,0.3,0.8,0.6,1.2,0.8C54.6,23.1,54.7,23.1,54.7,23.2z"/>
	<path class="st0" d="M47.8,27.6c0-0.2,0-0.3-0.1-0.5c0.7-0.1,1.4-0.1,2.2,0c0.1,0,0.3,0,0.4,0.1s0.1,0.3,0,0.4c-0.1,0-0.1,0-0.2,0
		C49.3,27.6,48.5,27.6,47.8,27.6z"/>
	<path class="st0" d="M53.3,39.4c0.2,0.4-0.2,0.8-0.5,1c-0.4,0.3-0.7,0.5-1.1,0.8c-0.1,0.1-0.3-0.1-0.3-0.2s0.1-0.3,0.2-0.4
		C52.1,40.2,52.7,39.8,53.3,39.4z"/>
	<path class="st0" d="M53.2,43.1c-0.1,0-0.2,0-0.4,0c0.2-0.9,0.9-1.6,1.8-1.8c0.1,0.1,0,0.2-0.1,0.3C54.1,42.1,53.6,42.6,53.2,43.1z
		"/>
	<path class="st0" d="M57.5,45c-0.1,0.4-0.4,0.7-0.7,0.9c-0.3-0.3-0.2-0.8,0.2-1c-0.1-0.3,0.2-0.6,0.4-0.8c0.1-0.1,0.2-0.2,0.3-0.3
		c0.1,0,0.2,0,0.3,0C57.9,44.3,57.7,44.6,57.5,45z"/>
	<path class="st0" d="M56.1,43.1c-0.3,0.4-0.5,0.9-0.8,1.3c-0.1,0.1-0.1,0.2-0.2,0.2c-0.1,0.1-0.2,0.1-0.3,0
		c-0.1-0.6,0.4-1.2,0.8-1.7c0.1-0.1,0.2-0.2,0.3-0.2s0.3,0.1,0.2,0.2C56.1,43,56.1,43,56.1,43.1z"/>
	<path class="st0" d="M52,35.8c0,0.2-0.1,0.3-0.3,0.3c-0.2,0.1-0.4,0.2-0.6,0.3c-0.2,0.1-0.5,0.2-0.7,0.2s-0.5-0.2-0.4-0.5
		c0.3,0,0.8,0.1,1-0.2s0.6-0.4,0.9-0.3C51.9,35.7,52,35.7,52,35.8z"/>
	<path class="st0" d="M50.7,39.3c-0.2-0.1-0.1-0.4,0-0.5s0.3-0.2,0.5-0.3s0.4-0.3,0.6-0.4c0.2-0.1,0.5-0.1,0.7,0.1
		c0,0.2-0.2,0.3-0.4,0.4C51.6,38.8,51.1,39,50.7,39.3z"/>
	<path class="st0" d="M90.1,61.4c-0.3,0.5-0.9,0.7-1.4,0.6c-0.1,0-0.2-0.1-0.3-0.2c0-0.1,0.1-0.2,0.2-0.3c0.5-0.3,1-0.4,1.6-0.4
		C90.2,61.3,90.1,61.4,90.1,61.4z"/>
	<path class="st0" d="M41.9,58.6c-0.2,0.2-0.5,0.2-0.7,0.5c-0.4-0.4-0.1-1.1,0.4-1.2C42,57.9,42.1,58.4,41.9,58.6z"/>
	<path class="st0" d="M72.1,78.7c0-0.2,0.3-0.4,0.5-0.5s0.5-0.3,0.7-0.4c0.1,0,0.1,0.1,0.1,0.2c-0.1,0.1-0.1,0.1-0.2,0.1
		c-0.3,0.1-0.5,0.4-0.5,0.8C72.4,78.9,72.2,78.8,72.1,78.7z"/>
	<path class="st0" d="M24.1,81.2c0,0.1,0,0.1,0,0.2c-0.2,0.2-0.5-0.1-0.5-0.4c0-0.2,0.2-0.4,0.4-0.4C24.2,80.7,24.3,81,24.1,81.2
		L24.1,81.2z"/>
	<path class="st0" d="M25,29.2c0.2-0.2,0.5-0.1,0.7,0.1c-0.1,0.2-0.3,0.3-0.5,0.3S24.8,29.3,25,29.2L25,29.2z"/>
	<path class="st0" d="M17.2,48.8c-0.1,0-0.2-0.1-0.3-0.1c0.2-0.3,0.7-0.2,1.1,0C17.7,48.7,17.5,48.8,17.2,48.8L17.2,48.8z"/>
	<path class="st0" d="M72.8,58.5c-0.1-0.2-0.1-0.6,0.2-0.6c0.2,0,0.3,0.2,0.2,0.4S73,58.4,72.8,58.5L72.8,58.5z"/>
	<path class="st0" d="M52.7,37.6c0.2,0.1,0.4,0.1,0.6,0.3C53.2,38,53,38,52.9,38C52.7,37.9,52.6,37.7,52.7,37.6L52.7,37.6z"/>
	<path class="st0" d="M58.2,64.4c-0.2,0-0.2-0.3,0-0.3c0.2-0.1,0.3,0.1,0.5,0.2C58.6,64.4,58.3,64.5,58.2,64.4L58.2,64.4z"/>
	<path class="st0" d="M52.1,28.3c0.1-0.1,0.2-0.2,0.3-0.2s0.2,0.2,0.2,0.3C52.5,28.6,52.3,28.5,52.1,28.3L52.1,28.3z"/>
	<path class="st0" d="M47.8,38.9c-0.1-0.1-0.1-0.2-0.1-0.4c0.1-0.1,0.3,0,0.4,0.1S48,39,47.8,38.9L47.8,38.9z"/>
	<path class="st0" d="M61.7,63.7c0.2-0.2,0.5-0.2,0.6,0.1C62.1,63.9,61.9,63.9,61.7,63.7L61.7,63.7z"/>
	<path class="st0" d="M75.4,20.8c-0.2,0.2-0.5,0.2-0.6-0.1C75,20.6,75.3,20.6,75.4,20.8L75.4,20.8z"/>
	<path class="st0" d="M44.4,54.1c0.1,0.2-0.3,0.5-0.5,0.3C44,54.2,44.2,54.1,44.4,54.1L44.4,54.1z"/>
	<path class="st0" d="M25,76.9c0.1,0.1,0,0.3-0.2,0.3c-0.1,0-0.2-0.2-0.2-0.3C24.7,76.7,24.9,76.8,25,76.9L25,76.9z"/>
	<path class="st0" d="M70.6,58.3c-0.1-0.1-0.2-0.2-0.2-0.3c0.1-0.1,0.3-0.1,0.4,0S70.7,58.4,70.6,58.3L70.6,58.3z"/>
	<path class="st0" d="M12.6,59.4c0,0.1-0.1,0.2-0.1,0.3c-0.2,0-0.3-0.3-0.2-0.4C12.4,59.1,12.6,59.2,12.6,59.4L12.6,59.4z"/>
	<path class="st0" d="M14.5,69.6c0.1,0.1,0.3,0.1,0.4,0.1c0,0.1,0.1,0.1,0,0.2C14.8,70.1,14.5,69.9,14.5,69.6L14.5,69.6z"/>
	<path class="st0" d="M71,57.4c0.1,0,0.2,0,0.2,0c0.1,0.1,0.1,0.3,0,0.4c-0.1,0-0.2-0.1-0.3-0.1C70.9,57.6,70.9,57.5,71,57.4
		L71,57.4z"/>
	<path class="st0" d="M74,20.5c-0.1,0-0.3,0-0.4-0.1c0.1-0.1,0.2-0.2,0.4-0.1C74.1,20.2,74.1,20.5,74,20.5L74,20.5z"/>
	<path class="st0" d="M18.3,48.2c0-0.1,0.2-0.2,0.4-0.2c0,0.1,0,0.2-0.1,0.3C18.5,48.3,18.4,48.3,18.3,48.2L18.3,48.2z"/>
	<path class="st0" d="M77.2,49.7c0.1,0,0.2,0.1,0.3,0.2c-0.1,0-0.3,0.1-0.4,0C77,49.9,77.1,49.7,77.2,49.7L77.2,49.7z"/>
	<path class="st0" d="M70.6,46.8c0.1-0.2,0.4-0.2,0.4,0C70.9,46.9,70.7,46.9,70.6,46.8L70.6,46.8z"/>
	<path class="st0" d="M66.8,65.2c-0.1,0.1-0.4,0.1-0.4-0.1c0.1,0,0.2-0.1,0.2-0.1S66.7,65.1,66.8,65.2L66.8,65.2z"/>
	<path class="st0" d="M12.5,65.5c0,0.1,0.1,0.2,0.1,0.2c-0.1,0-0.2,0.1-0.3,0c0-0.1-0.1-0.1,0-0.2C12.3,65.5,12.4,65.5,12.5,65.5
		L12.5,65.5z"/>
	<path class="st0" d="M52,26.3c0.1,0,0.2,0.2,0.1,0.3c-0.2,0-0.3-0.1-0.3-0.2C51.9,26.4,51.9,26.3,52,26.3L52,26.3z"/>
	<path class="st0" d="M42.6,53.9c-0.1,0-0.2,0-0.3,0c0.1-0.1,0.2-0.2,0.3-0.2C42.7,53.8,42.7,54,42.6,53.9L42.6,53.9z"/>
	<path class="st0" d="M31,55.2c0,0.1-0.2,0.2-0.2,0.1c0-0.1,0-0.2,0.1-0.2L31,55.2L31,55.2z"/>
	<path class="st0" d="M84.3,67.6c-0.1-0.1,0-0.2,0.1-0.2s0.2,0,0.2,0.1S84.4,67.7,84.3,67.6L84.3,67.6z"/>
	<path class="st0" d="M15.5,48.6c-0.1,0.1-0.3,0.2-0.4,0.1C15.1,48.5,15.3,48.5,15.5,48.6L15.5,48.6z"/>
	<path class="st0" d="M28.3,62.4c0-0.1,0-0.2,0-0.2c0.1,0,0.2,0.1,0.2,0.2C28.5,62.4,28.4,62.4,28.3,62.4L28.3,62.4z"/>
	<path class="st0" d="M69.4,44.9c0-0.1,0.3-0.1,0.3,0C69.7,45,69.4,45,69.4,44.9L69.4,44.9z"/>
	<path class="st0" d="M55.9,41.8c-0.1,0-0.1-0.1-0.1-0.2c0-0.1,0.1-0.1,0.2,0c0,0.1,0.1,0.2,0.1,0.2C56,41.9,55.8,41.9,55.9,41.8
		L55.9,41.8z"/>
	<path class="st0" d="M67.7,48.7c0-0.1,0-0.2,0.1-0.3c0.1,0.1,0.1,0.1,0.1,0.2C67.9,48.7,67.8,48.7,67.7,48.7L67.7,48.7z"/>
	<path class="st0" d="M60,37.3c-0.1-0.1,0.1-0.1,0.2-0.1c0,0.1,0,0.2,0,0.3C60.1,37.5,60,37.4,60,37.3L60,37.3z"/>
	<path class="st0" d="M39.4,60.6c-0.1,0,0-0.3,0.1-0.2C39.5,60.4,39.5,60.6,39.4,60.6L39.4,60.6z"/>
	<path class="st0" d="M54,40.7c-0.1,0.1-0.1-0.1-0.1-0.2c0.1,0,0.1,0,0.2,0.1C54.1,40.6,54,40.7,54,40.7L54,40.7z"/>
	<path class="st0" d="M28.3,25.9c0.3-0.2,0.8-0.1,1.1,0.2c-0.3,0.2-0.7,0.2-1,0.1C28.3,26.1,28.3,25.9,28.3,25.9z"/>
	<path class="st0" d="M20.7,19.1c-0.1,0-0.2,0-0.4-0.1c0-0.1-0.1-0.1,0-0.2C20.5,18.7,20.8,18.8,20.7,19.1L20.7,19.1z"/>
	<path class="st0" d="M30.2,47.8c-0.2,0.1-0.4,0-0.5-0.1c0.2,0,0.4-0.1,0.6,0C30.3,47.7,30.3,47.8,30.2,47.8L30.2,47.8z"/>
	<path class="st0" d="M18.7,53.5c-0.1,0-0.1,0-0.2,0c-0.1-0.1,0-0.2,0.1-0.3C18.6,53.3,18.6,53.4,18.7,53.5L18.7,53.5z"/>
	<path class="st0" d="M43.2,44.3c0.1,0.1,0.1,0.3-0.1,0.3C43,44.5,43,44.5,43,44.4C43,44.3,43.2,44.3,43.2,44.3L43.2,44.3z"/>
	<path class="st0" d="M41.1,48.5c0.1-0.1,0.1,0.1,0.1,0.2c-0.1,0-0.2,0-0.3,0C40.9,48.6,41,48.4,41.1,48.5L41.1,48.5z"/>
	<path class="st0" d="M53.7,48.8c0.2-0.2,0.6,0,0.7,0.2c0.1,0.3-0.1,0.6-0.4,0.7h-0.1C53.7,49.5,53.5,49.1,53.7,48.8z"/>
	<path class="st0" d="M55.3,52.8c-0.2,0.2-0.5,0.3-0.8,0.2c-0.1-0.1-0.1-0.2,0-0.2C54.7,52.8,54.9,52.8,55.3,52.8L55.3,52.8z"/>
	<path class="st0" d="M48.2,49.8c0.1-0.1,0.3-0.1,0.4,0c0.2,0.1,0.5,0.3,0.3,0.4c-0.2,0.3-0.4,0.6-0.5,1C48,51,48,50.5,48,50
		C48.1,49.9,48.1,49.8,48.2,49.8z"/>
	<path class="st0" d="M48.9,48c-0.1,0-0.2-0.1-0.3-0.2c0-0.1,0-0.2,0-0.3c0-0.3,0-0.7,0-1c0.2,0,0.4,0.1,0.6,0.1
		C49.2,47.1,49.2,47.6,48.9,48z"/>
	<path class="st0" d="M48.9,45.1c-0.2,0-0.3-0.1-0.3-0.3s0.2-0.3,0.4-0.3C49.1,44.6,49.1,44.9,48.9,45.1L48.9,45.1z"/>
	<path class="st0" d="M49.4,46.7c0.1,0,0.1-0.1,0.2-0.1c0.1,0.1,0.1,0.1,0.1,0.2C49.6,46.9,49.5,46.9,49.4,46.7L49.4,46.7z"/>
	<path class="st0" d="M34.1,31.1c0.1-0.1,0.3,0,0.3,0.1s-0.1,0.1-0.2,0.1C34.1,31.3,34,31.2,34.1,31.1L34.1,31.1z"/>
	<path class="st0" d="M30.3,34.9c0.1-0.2,0.3-0.1,0.5-0.1c0,0.1,0.1,0.1,0,0.2C30.7,35.1,30.4,35.1,30.3,34.9L30.3,34.9z"/>
	<path class="st0" d="M76.4,27.2c-0.1,0.1-0.4,0-0.4-0.2c0.1,0,0.2-0.1,0.3,0C76.4,27,76.4,27.1,76.4,27.2L76.4,27.2z"/>
	<path class="st0" d="M70.4,28.3c0.1,0,0.2,0,0.3,0c0.1,0.2-0.1,0.3-0.3,0.3C70.4,28.4,70.4,28.3,70.4,28.3L70.4,28.3z"/>
	<path class="st0" d="M67.5,32.8c0.1,0.2-0.1,0.6-0.3,0.6c-0.3,0-0.4-0.3-0.3-0.6C67.1,32.8,67.3,32.8,67.5,32.8L67.5,32.8z"/>
	<path class="st0" d="M87.6,47.6c-0.8-0.8-1.7-1.6-2.5-2.4c-0.3,0.3-0.7,0.6-1,0.9c0.3,0.5,0.5,1.1,0.4,1.7
		c-1.5-0.4-3.4-0.6-4.4,0.6c-0.9,1.1-1,3.1-2.4,3.3c0.6,0.7,2,0.4,2.3-0.5c1.4,0.6,0.9,3.3-0.7,3.4c1.4,1.2,2.8,2.4,4.5,3
		s3.8,0.4,5.1-0.9c0.7-0.8,2.2-0.7,2.8,0.3c0.6,0.9,0.1,2.3-0.9,2.7c-0.1-0.6-0.2-1.2-0.3-1.8c0.3,0.2,0.6,0.3,0.9,0.5
		c0.3-0.9-0.7-1.7-1.6-1.5S88.3,58,88,58.8c-0.3-0.3-0.6-0.6-1-0.6s-0.8,0.4-0.7,0.7c0.2,0.4,0.9,0,0.6-0.3c0.1,0.4,0.2,0.8,0.3,1.2
		c0.3,0.8,1.4,0.1,1.6-0.7s0.5-1.9,1.3-1.7c-0.3,1.5-1.2,2.8-2.4,3.6c-0.2,1-0.4,1.9-0.6,2.9c0.9-0.3,1.7-1.1,2.6-1.2
		c1-0.1,1.7,1.5,0.8,1.8c0-0.6-0.3-1.2-0.8-1.5c-0.8,1.7-3.7,1.6-4.4-0.1c0.5,0.8,1,1.7,0.9,2.7s-1.1,1.9-2,1.5
		c1.1-0.4,1.8-1.7,1.5-2.9c-0.3-0.8-1.3-1.5-2-1s0.2,2,0.8,1.4c0.1,0.7,0.2,1.6-0.4,2.1c-0.5,0.5-1.7,0.3-1.7-0.4
		c0.7,0.2,1.5-0.1,1.9-0.7c-1.2-0.9-1.8-2.6-1.3-4c-0.7,1.5-2.7,2.1-4.1,1.2c0.3-0.5,0.7-1,1-1.5c-0.6-0.3-1.3,0.3-1.4,0.9
		s0.2,1.3,0.5,1.8c-1.3-0.5-1.2-2.7,0-3.1c0.5-0.2,1-0.1,1.5-0.3s0.8-0.9,0.4-1.2c-0.7-0.1-1.4,0.3-1.7,0.9c-0.8-1.8-2.3-3.4-4-4.4
		c0.6,1,0.4,2.3-0.4,3.1s-2.2,0.9-3.1,0.3c1.1-0.1,1.8-1.3,1.7-2.4c0-1.1-0.5-2.1-1-3c-0.7-1.4-1.6-2.9-3.2-3.2
		c1.7,1.9,3,4.2,3.6,6.7c-0.6-0.3-1.1-0.8-1.4-1.5c0.6,1,0.4,2.5-0.5,3.2s-2.4,0.8-3.3,0c1.1-0.6,1.9-1.7,2.1-2.9
		c0.3,1.1-0.2,2.3-1.1,2.9c1.2,0.4,2.4-0.9,2.4-2.2s-0.8-2.4-1.6-3.4c0,0.7,0,1.5,0.1,2.2c-0.9,1.8-2.6,3.2-4.5,3.7
		c-1.1,0.9-2.7,1-3.9,0.3c0.8-0.2,1.5-0.8,1.9-1.5c0.6,0.2,0.9,0.9,0.8,1.5c1.1-0.3,1.4-1.8,0.9-2.8s-1.6-1.6-2.5-2.1
		c0.5-0.5,1.3-0.7,2-0.5c-1-0.5-1.9-1.1-2.9-1.6c0.7,0,1.4-0.7,1.3-1.4c-0.5,0.6-1.5,0.4-1.8-0.3c-0.7,0.1-1.2,0.7-1.2,1.4
		c0.2-0.5,0.7-0.8,1.2-0.9c-0.4,0.8-0.8,1.5-1.1,2.3c-0.1-0.4-0.4-0.9-0.7-1.1c0,0.7,0.3,1.4,0.8,1.9c-1.2-0.7-3.1,0-3.4,1.4
		c-0.7-1.2-2.8-1-3.3,0.2c-0.4-1.3-2.4-1.6-3.2-0.6c-0.5,0.6-1.4-0.1-2-0.5c-1-0.7-2.5-0.5-3.3,0.3c0.2-1.2-0.8-2.5-2.1-2.4
		c-0.9,0-2.4,0.3-2.3-0.7c0.2-1.9-1.9-3.3-3.7-3.2s-3.5,1.2-4.9,2.4c-1.5,1.2-3,2.4-4.8,2.8c-3,0.6-5.6,2.8-6.5,5.7s0.3,6.4,2.9,8
		c-2-1.8-3-4.8-2.3-7.4s2.9-4.8,5.6-5.4c2.2-0.5,3.9-2.2,5.7-3.5c1.8-1.3,4.3-2.3,6.3-1.2c-1.9,0.2-3.7,0.5-5.4,1.2
		c-1.7,0.8-3.2,2.2-3.6,4c-0.3,1.5,0.1,3.1-0.4,4.6c-0.5,1.4-2.8,2.3-3.5,0.9c-0.3,1,0.8,2,1.8,1.8c1-0.1,1.8-1,2.1-2
		c0.4-1,0.4-2,0.7-3c0.9-3.3,4.1-5.7,7.5-5.8c-0.1,0.8-1.1,1-1.9,1.2c-2.2,0.5-4.2,2.2-4.8,4.4c-0.3,1.2-0.3,2.4-0.7,3.5
		c-0.4,1.1-1.3,2.3-2.5,2.3c-1.6,0.1-3-1.7-4.5-1.3c1.1,1,2.4,2,3.8,2.2s3.2-0.7,3.3-2.2c0.9,1.4,0.2,3.5-1.3,4.1
		c1,0.2,2.2-0.5,2.5-1.5c-0.1,1.1,0.1,2.2,0.6,3.2c-0.8,0.6-1.7,1.1-2.7,1.2c1.3,0.9,3.1-0.7,3.1-2.3c0.1-1.6-0.8-3-1.2-4.6
		c-1-4,2.2-8.6,6.3-9c0-0.6,0.1-1.3,0.1-1.9c-2.6,0.2-5.1,1.4-7,3.3c1.5-2.6,4.6-4.1,7.5-3.7c1.2,2.2,2,4.8,1.1,7.2
		c-0.4,0.9-1,1.7-1.3,2.6c-0.7,2,0.6,4.5,2.6,5.1c1.6,0.5,3.8-0.4,3.8-2.1c-0.8,1.4-2.9,1.9-4.3,0.9c-1.4-0.9-1.7-3-0.7-4.3
		c0,0.9,0.2,1.9,0.6,2.7c-0.4-1.9,0.7-4.1,2.5-4.9c-0.4-0.2-0.5-0.7-0.3-1.1c0-0.5,0.9-0.7,1.2-0.3c0.3,0.5-0.4,1.1-0.8,0.8
		c0.3,0.3,0.8,0.4,1.2,0.3c-0.6,0.9,1,1.7,2,1.2c1-0.4,1.9-1.3,2.9-0.9c-0.6,0.5-1.2,0.9-1.7,1.4c1.5-0.4,3-0.7,4.5-1.1
		c-0.1,0.6-0.2,1.2-0.3,1.8c1.1-0.2,2.2-0.4,3.2-0.7c0.1,0.6,0.9,0.6,1.4,0.4c0.5-0.3,0.8-0.8,1.4-1c0.5-0.2,1.3,0.3,1.1,0.8
		c1-0.4,1.9-0.9,2.9-1.3c0,0.6-0.1,1.2-0.1,1.8c-0.4-0.1-0.8-0.4-0.8-0.9c-0.5,0.5-1.1,0.9-1.6,1.4c6.1-1.3,12.8,1.7,15.9,7.1
		c-0.1-1.4,1.1-2.8,2.5-2.9s2.7,1.1,2.8,2.5c0,0.4-0.1,0.9,0.1,1.3s0.9,0.5,1,0c-0.5,1.3-1.3,2.5-2.4,3.4c0.6-0.1,1.1-0.3,1.7-0.4
		c-1.7,2.6-6.4,2.5-7.9-0.3c0.4,1.8,2.3,3.2,4.2,3c-1.1,1.5-3.6,1.2-4.9-0.1c-1.3-1.3-1.7-3.3-2-5.1c-0.3,1.5-0.1,3.1,0.5,4.6
		c-1-0.2-1.8-0.9-2.2-1.8c-0.7,1.8-3.3,2.5-4.9,1.4s-1.7-3.8-0.2-5.1c1.5-1.3,4.1-0.8,5,0.9c-0.3,1.3-1.3,2.4-2.5,2.9
		c2.6-0.6,4.2-4.1,2.8-6.5c-0.8-1.5-2.5-2.4-4.2-2.8c-5.2-1.2-10.4,1.7-14.7,4.8c2.6-1.3,5.2-2.3,8-3c2.2-0.6,4.5-1,6.6-0.4
		c2.2,0.6,4.1,2.5,4.1,4.7c-1-2.5-3.5-4.3-6.1-4.6c-1.1,2.6-2.1,5.7-0.8,8.1c2.1,3.8,8.1,3.4,11,6.6c-2.5-1-5.1-2-7.6-3.1
		c-1.2-0.5-2.5-1-3.3-2c-1.5-1.7-1.3-4.3-1-6.6c-0.5,1.3-1,2.5-1,3.9s0.5,2.8,1.7,3.5c1.1,0.6,2.1,1.3,3.1,2.1
		c-2.6-0.3-4.9-2.2-5.7-4.7c0.6,1.7-0.6,3.9-2.4,4.3c1.1,0.6,2.6-0.1,3-1.3c1.9,1.1,3.8,2.2,5.7,3.1c-0.4,0.7-0.3,1.6,0.2,2.1
		c-0.9-0.3-1.8-0.6-2.7-0.2c-0.9,0.3-1.4,1.5-0.8,2.2c0.3-0.5,0.6-1,0.9-1.6c1.5,0.7,3.6-0.7,3.4-2.4c1.1,1.4,2.4,3,4.1,3
		c1.4,0,2.5,1.4,2.3,2.8c-0.4,0.1-0.7,0.2-1.1,0.3c0.8-0.5,0.5-1.8-0.3-2.3s-1.8-0.5-2.7-0.7c-0.9-0.2-1.9-1-1.8-1.9
		c-0.3,0.8-0.7,1.6-1.5,1.9c-0.7,0.2-1.5-0.1-2.2,0.2c-0.7,0.2-0.8,1.6-0.1,1.5c-1,0.3-2-0.7-2-1.7c0.1-1,1-1.8,2-1.8
		c0.7,0,1.7-0.4,1.2-0.9c-1.2-1.8-3.8-2.6-5.7-1.7c-1.1,0.5-2.6-0.1-3-1.2c0.6,0,1.2,0,1.9,0c0.5-1.5-3.2-2.4-2.2-3.7
		c1.3-1.7,1.3-4.3,0.1-6.1c-1.7,0.6-3.3,1.4-4.7,2.5c0.6,0.8,0.3,2.1-0.6,2.6c0-0.7-0.3-1.4-0.9-1.8c-0.9-0.4-1.5,0.9-1.3,1.8
		c0.3,0.9,1,1.6,1.1,2.6c0.1,1.1-0.9,2.1-2,2.1s-2-1.1-1.8-2.2c0.1,0.9,1.7,0.7,1.8-0.2c0.1-0.9-0.8-1.6-1.7-1.6s-1.7,0.5-2.4,1
		c-1,0.6-2,1.3-3,1.9c0.4,0.4,1.2,0.2,1.3-0.4c0.3,0.3,0.3,0.7,0,1c-1.3-0.1-2.6,0-3.8,0.3c0.6,0.1,1.1,0.2,1.7,0.2
		c-3.3,1.4-7.1,1.7-10.6,0.7c0.4-0.2,0.8-0.4,1.2-0.6c-1-0.2-2.1,1-1.7,2s2,1.2,2.6,0.3c0.1,0.5,0.8,0.7,1.3,0.6s1.1-0.3,1.6-0.1
		c0.5,0.2,0.7,1,0.2,1.2c-0.5-0.3-1-0.5-1.5-0.8c-0.5,0.1-0.4,0.9,0,1.1s1,0.1,1.5,0.2c1.5,0.3,1.7,3,0.2,3.5
		c0.1-0.8,0.2-1.5,0.4-2.3c-0.2-0.5-0.8-0.9-1.4-0.8c0.7,0.8-0.1,2.1-1.1,2.6c-0.9,0.5-2.1,0.8-2.6,1.8c0.1-0.8-0.1-1.7-0.5-2.4
		c0,1-1,0.8-1.8,0.5c-1.3-0.5-2.5-1-3.8-1.5c-0.9-0.4-2.6-0.2-2.3,0.8c-0.9,0.6-2.1-0.7-1.8-1.7c0.3-1,1.4-1.6,2.5-1.7
		s2.2,0.1,3.2,0c-0.9-1.2-0.8-3,0.3-4c-0.5,1.4-0.2,3,0.7,4.1c-0.7,0.2-1.4,0.7-1.9,1.3c0-0.6-1.1-0.7-1.3-0.2
		c-0.3,0.6,0.2,1.3,0.8,1.5c0.6,0.2,1.2,0.1,1.8,0c-0.3-0.7,0.2-1.7,1-1.9c-0.5,0.8-0.2,2,0.6,2.6s2,0.3,2.6-0.5
		c0.7,0.7,0.9,1.8,0.5,2.7c1-0.4,1.5-1.8,0.9-2.6c-0.6-0.9-2.1-0.9-2.8-0.1c-0.2-0.8-0.4-1.6-0.6-2.5c0.7,0.2,1.1,1,1,1.8
		c0.8-0.3,1.5-0.5,2.3-0.8c-1.5-0.1-2.8-1.3-3.4-2.7c-0.6-1.4-0.6-3-0.5-4.5c0-0.7,0.1-1.5,0.5-2.1s1.2-1,1.9-0.7
		c1.3,0.7,2.8,1.4,4.3,1c1.4-0.4,2.4-2.4,1.3-3.4c0,1.2-1.3,2-2.5,2.1s-2.4-0.4-3.6-0.5s-2.6,0.3-3,1.4C24,70.2,25.2,69,26.3,69
		c1.1-0.1,2.3,0.4,3.4,0.1c-1.8-0.7-3.9-1.3-5.4-0.2c-0.5,0.4-0.9,0.9-1.5,1.1s-1.5-0.2-1.3-0.8c-0.2,0.8,0.5,1.6,1.3,1.6
		c-0.2,0.4-0.4,0.8-0.6,1.2c0.4-0.1,0.8-0.2,1.3-0.3c-0.1,0.5-0.2,1.1-0.3,1.6c0.4,0.1,0.7,0.2,1.1,0.3c-0.7,0.9-1.2,2.1-1.2,3.2
		c-0.5-1-0.4-2.3,0.1-3.3c-0.4,0.3-0.7,0.6-1.1,0.9c-0.3-1-1.6-1.5-2.5-0.9c-0.4-1-1.1-1.8-1.9-2.4c-0.3,0.4-0.7,0.8-1,1.2
		c0.3-1.4-0.2-2.9-1.2-4c-0.4,0.4-0.8,0.8-1.2,1.1c0.6-1.3,0.5-2.8-0.1-4.1c-0.5,0-1,0-1.5-0.1c0.6-0.7,1.1-1.6,1-2.5
		s-1.4-1.6-2-0.9c1-0.9,1.7-2.1,2.1-3.3c-0.9-0.3-1.7-0.5-2.6-0.8c1.7-0.3,3.1-1.7,3.5-3.4c-0.8-0.4-1.7-0.6-2.6-0.6
		c1.1-0.5,2.2-0.9,3.3-1.4c0.6-0.3,1.4-0.8,1.1-1.5c-0.4-0.8-2.2-0.7-2-1.5c1.4,0.3,3,0.6,4.2-0.2c1.2-0.8,1-3.2-0.5-3.3
		c1.8,1,4.2,0.9,6-0.3c-0.7-0.3-1.2-1-1.3-1.7c1.4,1,3.2,1.3,4.9,0.9c-0.2-0.8-0.3-1.6-0.5-2.4c1.3,1.8,3.7,2.8,5.8,2.4
		c-0.6-0.5-0.9-1.4-0.8-2.2c1,1.5,2.7,2.6,4.5,2.9c-0.9-2.5-1.8-5-2.6-7.5c-0.2-0.5-0.4-1-0.8-1.4c-1-0.9-2.6-0.1-3.7,0.7
		s-2.6,1.7-3.7,0.9c-1.6-1.1-3.6,0.7-5.4,1.5c-2.6,1.2-6.4,0.4-7.9,2.8c1-2.4,4.2-3.6,6.5-2.5c1.7-1.6,3.8-2.6,6.1-3
		c0.6-0.1,1.2-0.5,1.7-0.8c1.4-0.9,2.8-1.9,4.1-2.8c0.5-0.3,1-0.7,1.1-1.3c0.1-0.6-0.5-1.2-1-1c-3.8,2.9-7.8,5.4-12.1,7.6
		c3.4-3.2,7.2-5.9,11.4-7.9c0-1.3-0.9-2.7-2.1-3.1c-1.3-0.5-2.8,0-3.6,1.1c-0.3,0.3-1.1,0.3-0.8,0c1-0.7,2.1-1.4,3.1-2.1
		c-3.1,1.1-6.2-3.3-9.2-2c-0.8,0.3-1.7-0.1-2.5-0.4c-2.4-0.8-5.2-0.2-7,1.5c2-3.5,5.5-5.9,9.2-7.3s7.7-2,11.7-2.5
		c-0.1-0.6-0.6-1.1-1.2-1.2c0.1-0.8,1.1-1.2,2-1.3c7.3-0.9,14.8,0.9,20.9,4.8c-7-2.8-14.6-5.6-21.9-3.8c0.3,0.3,0.7,0.6,1,0.9
		c-0.4,0.7-1.2,1.2-2,1.3c2.3-0.2,4.6-0.4,6.9-0.6c-1.4,0.2-2.9-0.2-4.2-0.9c5-0.7,10.3,0,15,1.9c-0.6,0.2-1.2,0.4-1.8,0.6
		c3.9,0.3,7.7,2,10.6,4.8c-2-1.2-4.3-2.5-6.6-1.9c1.1,0.1,2.3,0.3,3.4,0.4c-0.6,0.4-0.4,1.4,0.1,1.8s1.3,0.5,2,0.6
		c-1.2,1.8-3.9,1.2-6,0.7c-3.1-0.8-6.3-0.9-9.5-0.3c2.3,0.2,4.6,0.2,6.9,0c0.2,0.6,0.1,1.3-0.3,1.8c1.7-1.4,4.4-1.5,6.1-0.1
		c-0.2,0.4-0.5,0.9-0.7,1.3c-2.9-0.6-5.9-0.7-8.8-0.1c1.1-0.5,2.5,0,3.1,1.1c0.7-0.7,1.9-0.9,2.7-0.3c-0.1-0.4-0.7,0-0.6,0.3
		s0.5,0.5,0.9,0.5c0.9,0.2,1.9,0.3,2.8,0.5c-1.1,0.4-2.4,0.5-3.6,0.4c-0.1,0.7-0.5,1.3-1,1.7c1.3,0,2.6-0.2,3.9-0.6
		c-0.6-0.1-1.2-0.2-1.8-0.3c0.7-0.5,1.8-0.6,2.6-0.2c-0.1,0.4-0.2,0.8-0.3,1.3c-1-0.1-2-0.1-2.8,0.3c-0.9,0.4-1.6,1.4-1.3,2.3
		C46,33.2,46.5,33,47,33c-0.4,0.3-0.6,0.8-0.5,1.3c1.2-0.8,2.7-1.4,4.2-1.6c-1.3,0.7-2.7,1.5-4,2.2c0.3,0.6,0.6,1.2,0.9,1.8
		c0.9-0.9,2.1-1.4,3.4-1.6c-1.6,0.8-2.9,2.1-3.9,3.6c0.1,0.4,0.4,0.7,0.8,0.9c0.8-1.1,2-1.9,3.3-2.2c-1.7,1-2.7,2.9-2.6,4.8
		c0.8-1.4,2.2-2.5,3.7-3.1c-0.8,0.8-1.6,1.6-2.4,2.4c0.6,0.6,0.8,1.7,0.4,2.5c0.6-1.4,1.7-2.5,3.1-3.2c-0.9,1.4-1.7,2.8-2.6,4.1
		c0.7,0.2,1.3,0.4,2,0.6c0.1-1.4,1-2.7,2.2-3.3c-0.9,1.2-1.4,2.7-1.4,4.2c0.5,0,0.9,0.2,1.3,0.5c0.4-1.4,1-2.7,1.9-3.9
		c-0.4,1.5-0.7,3-1.1,4.6c0.8,0.3,1.5,0.6,2.3,0.9c0.6,0.2,1.3,1.1,0.7,1.4c0-0.4-0.7-0.4-0.9-0.1c-0.2,0.4,0.1,0.8,0.3,1.1
		c0.1-0.6,0.9-1,1.4-0.7c-0.4-1.7-0.4-3.4,0-5.1c0.2,1.8,0.5,3.5,0.7,5.3c1.3-0.4,2.7-0.2,3.7,0.6c0.2-0.8,0.7-1.5,1.4-2.1
		c0.6,1.6,1,3.2,1.2,4.9c0.4-0.4,1.1-0.4,1.5,0s0.4,1.1,0,1.5c0-0.6-0.6-1.1-1.1-1c0.8,0.4,0.4,2-0.5,2c0.3-0.4,0.4-1,0.2-1.5
		c-0.2,0.7-0.9,1.2-1.7,1.2c0.6,1,2.1,1.5,3.1,0.9c1.1-0.5,1.6-2,1.1-3.1c-0.4-0.9-1.4-1.5-2.1-2.2s-1.2-2-0.5-2.7
		c0.5,0.1,1.1,0.3,1.2,0.8s-0.9,0.7-0.8,0.3c0.4,1.3,1.4,2.3,2.6,2.8c-0.5-1-0.7-2.2-0.6-3.3c1.4,0.6,2.6,1.6,3.6,2.8
		c-0.3-1.5-1.4-2.8-2.9-3.4c1.2-1.1,3.1-0.4,4.6,0.3c1.1,0.5,2.1,1.1,3.2,1.6c-0.5,0.3-1,0.6-1.5,0.9c0.4,0.6,1,1,1.7,1.1
		c-0.3-0.5-0.6-1-0.9-1.4c1.6,0.2,2.8-2.2,1.6-3.3c0.1,1.1-1.5,1.9-2.3,1.1c0.7-0.5,1.3-1.2,1.8-2c1.1,0.9,2.7-0.2,3.7-1.3
		c1-1,2.5-2.1,3.7-1.3c0.5,0.4,0.7,1.1,1.1,1.6s1.3,0.8,1.6,0.3c0.2,0.4,0.4,0.8,0.6,1.2c0-0.7,0-1.3,0-2c0.6,0.3,0.9,1.1,0.6,1.6
		S88.1,48,87.6,47.6 M36.4,38.5c-0.2,0-0.4,0.1-0.4,0.3s0.2,0.3,0.4,0.2C36.4,38.8,36.4,38.6,36.4,38.5c0.1,0,0.3,0,0.4-0.2
		c-0.1-0.1-0.1-0.1-0.2-0.1C36.4,38.2,36.4,38.3,36.4,38.5 M71.3,54.3c-0.1,0.3,0,0.7,0.3,0.9c0.4-0.3,0.2-1-0.2-1.1
		c0-0.7-0.8-1.2-1.4-1.5c-0.1,0.1,0,0.2,0.1,0.3C70.4,53.4,70.8,53.9,71.3,54.3 M51.2,24.1c0.1,0.1,0.2,0.2,0.4,0.3
		c0.1,0,0.3-0.1,0.3-0.2c-0.1-0.4,0.9-0.2,0.8-0.5c-0.3-0.1-0.6-0.2-0.9-0.2C51.7,23.1,51.3,23,51,23s-0.7,0-0.8-0.2
		C50,23,49.6,23,49.3,23c-0.3,0-0.7,0.1-0.8,0.4c0.4,0,0.8,0,1.1,0.2c0.4,0.1,0.8,0.4,1.1,0.2c0.2-0.3,0.6-0.5,1-0.3
		C51.6,23.7,51.4,23.9,51.2,24.1 M37.8,41.2c0.3,0.1,0.6-0.1,0.8-0.4c1.4-1.4,2.9-2.7,4.5-3.7c0.2-0.1,0.5-0.4,0.3-0.6
		c-0.5,0.1-0.9,0.5-1.4,0.8c-0.3,0.2-0.5,0.4-0.8,0.6C40,39,38.8,40,37.8,41.2 M65.4,68.8c0.5,0.1,0.8,0.5,1.1,0.9
		c0.2,0.3,0.4,0.7,0.2,1c-0.1,0.1-0.3,0.4-0.1,0.5c-0.2,0.2-0.5,0.1-0.6-0.1s-0.1-0.4,0-0.6s0-0.3-0.1-0.5c-0.5-0.4-1.3-0.2-1.6,0.4
		c-0.3,0.6-0.1,1.3,0.4,1.7c0.2,0.1,0.5,0.2,0.5,0c0.1-0.3,0.4-0.3,0.7-0.4c0.3,0,0.7-0.2,0.6-0.4c0.3-0.2,0.6-0.5,0.8-0.8
		c0.1-0.1,0.1-0.2,0.1-0.3c0-0.2-0.1-0.4-0.3-0.5c-0.2-0.2-0.3-0.3-0.5-0.5c-0.3-0.3-0.6-0.6-1-0.7s-0.9-0.1-1.1,0.3
		c-0.1,0.1-0.2,0.1-0.3,0.2c-0.4,0.1-0.8,0.4-1,0.7c-0.4,0.6-0.4,1.3-0.5,1.9c0,0.5,0,1.1,0.3,1.5c0.2,0.2,0.4,0.3,0.6,0.4
		c0.5,0.3,1.1,0.4,1.6,0.4c0.3,0,0.7-0.1,0.9-0.3c0.1-0.1,0.3-0.1,0.5-0.1s0.4-0.2,0.3-0.4c-0.5-0.1-1,0.1-1.5,0
		c-0.5,0-1-0.4-1.3-0.7c-0.6-0.6-1.2-1.4-0.8-2.2c0.2-0.3,0.4-0.6,0.7-0.8C64.5,69,64.9,68.7,65.4,68.8 M32.6,30.2
		c-0.1-0.2,0-0.5,0.2-0.7s0.4-0.3,0.6-0.4c0.5-0.2,1.1-0.4,1.6-0.6c0.3-0.1,0.6-0.2,0.7-0.5c0.5,0.2,1,0,1.3-0.3
		c-0.3-0.1-0.6-0.2-0.8-0.2c-0.3,0-0.6,0.2-0.6,0.5c-0.4-0.2-0.9-0.1-1.2,0.2c-0.1,0.1-0.2,0.2-0.3,0.2c-0.3,0-0.5,0.1-0.7,0.2
		c-0.6,0.4-1.3,0.8-1.9,1.2c-0.1,0.1-0.3,0.3-0.1,0.4c1.1,0.2,1.9,1.4,2.1,2.5c0,0.2,0.3,0.4,0.4,0.3c0.4-0.5,1-0.9,1.6-1.2
		s1.2-0.7,1.8-1c0.8-0.4,1.6-0.9,2.5-1.2c-0.2-0.1-0.3-0.3-0.5-0.4c0-0.2,0-0.5,0.2-0.6c-0.2-0.3-0.6-0.3-0.9-0.2
		c-0.3,0.1-0.6,0.3-0.9,0.4c-0.2,0-0.5,0.1-0.6,0.2c-0.2,0.3,0,0.7,0.2,0.9c-0.3,0.2-0.5,0.5-0.8,0.7c-0.2,0.2-0.5-0.1-0.5-0.4
		s0.2-0.6,0-0.8c-0.5,0.1-1,0.3-1.4,0.6c-0.1,0.1-0.3,0.2-0.5,0.2s-0.5,0.1-0.7,0.1C33,30.5,32.7,30.4,32.6,30.2 M48.6,46.5
		c-0.3,0-0.4,0.4-0.4,0.6c0,0.3,0.1,0.6-0.1,0.8c-0.7,0.7,0,2-0.5,2.9c-0.4,0.9-0.5,1.9-0.1,2.8c0-0.2,0.1-0.5,0.4-0.5
		c0.1,0,0.1,0,0.2,0.1c0.5,0.3,1,0.5,1.4,0.8c0-1.7,0-3.5,0.1-5.2c0-0.4,0-0.9,0.1-1.3c0.1-0.2,0.1-0.5,0.2-0.7
		c0.2-0.5,0.3-1,0.2-1.5s-0.5-1-1-1.1c-0.6,0-1.1,0.5-1.3,1.1c-0.1,0.2-0.1,0.3-0.1,0.5s0.2,0.3,0.4,0.3c0-0.3,0-0.6,0-1
		c0.1-0.2,0.4,0,0.5,0.1c0.1,0.2,0,0.4,0,0.6C48.5,46.1,48.5,46.3,48.6,46.5 M21.4,53.2c-0.2,0.6-0.4,1.3,0,1.8
		c0.2,0.2,0.4,0.4,0.4,0.7c0.4-0.5,0.3-1.3-0.2-1.8c0.7,0,1-0.8,1.2-1.4c0.5-1.5,1.7-2.6,2.9-3.7c0.2-0.2,0.6-0.4,0.8-0.1
		c-0.2,0.6-0.7,1-1.2,1.4c-1.3,1.3-2.1,3-2.4,4.8c0,0.3,0.3,0.9,0.5,0.6c0.7-2.9,2.5-5.5,4.9-7.3c0.3-0.2,0.8-0.3,0.8,0.1
		c-1.4,1-2.6,2.2-3.6,3.6c-0.4,0.6-0.8,1.3-0.6,1.9c1.5-2.4,3.7-4.4,6.2-5.7c0.3-0.1,0.4,0.4,0.3,0.7c-1.9,0.9-3.5,2.3-4.8,4
		c-0.2,0.2-0.3,0.4-0.3,0.7s0.4,0.4,0.6,0.2c1.7-2.2,4-4,6.5-5.1c0.4-0.2,1-0.1,0.9,0.3c-2.3,0.9-4.4,2.4-5.9,4.2
		c0.4,0.1,0.8-0.2,1.1-0.5c1.3-1.2,2.8-2.3,4.5-3c0.9-0.4,2-0.8,3-0.6c0.1-0.2,0.2-0.4,0.3-0.5c0.4,0.1,0.9,0,1.2-0.3
		c-0.6,0.1-1.1-0.5-0.9-1.1c0.1-0.2-0.2-0.4-0.4-0.5c-3.8-1.2-8-1.5-11.8-0.3c-3.8,1.1-7.3,3.6-9.3,7.1c-1.7,3-2.3,6.6-1.8,10
		c0.7,4,3.1,7.9,6.7,9.7c0.2-0.9-0.7-1.6-1.5-2.1c-2.6-1.8-4.4-4.8-4.7-7.9c0-0.5-0.1-1.1-0.1-1.6c0-0.2,0-0.4,0-0.6
		c0-0.3,0-0.5,0-0.8c0-2.1,0.6-4.2,1.6-6c2.5-4.6,7.7-7.4,12.9-7.8c2.7-0.2,5.4,0.2,8,1c0,0.3,0,0.6,0,0.9
		c-4.1-1.3-8.5-1.3-12.6-0.1c-0.4,0.1-0.8,0.3-1.2,0.4c-2.4,1-4.3,3-5.8,5.1c-0.3,0.4-0.5,0.8-0.6,1.2c-0.1,0.5-0.1,1,0,1.5
		c0.3,2.2,0.8,4.7,2.7,5.9c0.1-0.5-0.3-1.1-0.6-1.5c-0.9-1.4-1.4-3.1-1.5-4.7c-0.1-0.7,0-1.5,0.5-2c0,0.4,0.2,0.8,0.6,0.9
		c-0.1,0.6,0,1.2,0.3,1.8c0.2-0.9,0.1-1.9,0.2-2.9s0.4-2,1.3-2.4c0.3,0.4,0,1-0.2,1.5c-0.7,1.5-0.8,3.2-0.2,4.8
		c0.3-2.8,0.7-5.7,2.6-7.8c0.1-0.1,0.3-0.3,0.5-0.3s0.4,0.2,0.3,0.4C22.6,50.7,21.9,51.9,21.4,53.2 M44.7,21c-0.5,0-1,0.1-1.4,0.3
		c0.8,0.2,1.7,0.3,2.5,0.2c-0.2,0.3-0.4,0.6-0.6,1c-0.2,0-0.4-0.2-0.5-0.4c-0.5,0.5-1.6,0.2-1.7-0.5c0,0.3-0.1,0.5-0.1,0.8
		c-0.2,0.1-0.6,0-0.6-0.3c-0.5,0.5-1.3,0.4-2,0.4c-2.5-0.1-4.9,0.2-7.4,0.6c-1.1,0.2-2.3,0.3-3.4,0.5s-2.3,0.3-3.4,0.7
		c-0.5,0.2-1.3,0.3-1.5-0.2c1.7-0.4,3.4-0.8,5.2-1.1c1.2-0.2,2.4-0.4,3.6-0.5c0.4-0.1,0.8-0.1,1.2-0.2c-1.2-0.5-2.6-0.2-3.9,0
		c-0.3,0.1-0.7,0.1-1,0.2c-1.2,0.2-2.3,0.5-3.5,0.7c-1.1,0.2-2.2,0.4-3.3,0.6c-0.2,0-0.6-0.1-0.5-0.3c0.5,0.1,0.9-0.1,1.3-0.4
		c-1-0.5-2.4,0.9-3.2,0.1c3-1.2,6.2-2.1,9.4-2.6c1.6-0.3,3.2-0.5,4.8-0.5c1.2-0.1,2.5-0.1,3.7,0c1.4,0,2.8,0,4.2,0
		c-0.4-0.4-0.9-0.4-1.4-0.4c-1.8,0-3.6,0-5.3,0c-0.4,0-0.9-0.2-0.8-0.5c-1,0.5-2.1,0.7-3.1,0.6c0.3,0.2-0.1,0.7-0.4,0.5
		c0.2-0.3-0.3-0.5-0.6-0.5c-1.5,0.2-2.9,0.5-4.3,1c-0.3,0.1-0.7,0.2-1,0.1c-0.2-0.1-0.4-0.1-0.6,0c-2.6,0.5-5.2,1.2-7.6,2.2
		c0-0.4,0.4-0.6,0.8-0.8c2.7-1.2,5.6-2,8.6-2.3c-0.7-0.2-1.5-0.4-2.2-0.5c-0.2-0.1-0.4-0.1-0.7,0c-0.3,0.1-0.5,0.5-0.4,0.7
		c-0.3-0.4-0.8-0.5-1.2-0.4c-3,1-6.1,2-9.1,3c-0.2-0.2,0.1-0.5,0.4-0.7c2.6-1.2,5.3-2,8.1-2.8c0.7-0.2,1.5-0.4,2.2-0.6
		c2-0.5,4.1-0.9,6.2-1.1c-1-0.5-2.3-0.2-3.4,0c-1.8,0.4-3.6,0.8-5.4,1.2c-0.3,0.1-0.4-0.3-0.7-0.4c-0.2-0.1-0.6,0-0.8,0.1
		c-3.3,1.3-6.7,2.9-9,5.5c1.2-0.8,2.6-1.1,4-0.8c1,0.2,1.9,0.6,2.7,1.1c0.2,0.1,0.5,0,0.7-0.1c1.7-0.7,3.9-0.3,5.1,1.1
		c0.4,0.5,1,1.1,1.6,0.9c0.7-0.3,1.5-0.1,2.2,0.2c1.4,0.4,3,1,3.5,2.4c0.2,0.4,0.3,0.9,0.8,1c-0.1-0.3,0.2-0.5,0.4-0.7
		c3.2-1.9,6.9-3,10.7-3.1c0.4,0,0.9,0,1.3-0.2c0.4-0.2,0.7-0.7,0.5-1.1c-0.3,0-0.7,0-1,0c-0.6,0-1.2,0.1-1.8,0.2
		c-0.7,0.2-1.3,0.5-1.6,1.1c-0.1-0.8-1-1.3-1.8-1c-0.2,0.1-0.4,0.2-0.6,0.4c-0.2,0.3-0.3,0.6-0.5,0.9s-0.7,0.3-0.8,0
		c0-0.2,0-0.4,0.1-0.6c-0.4-0.2-0.9-0.2-1.3,0.1c-0.4,0.3-0.6,0.9-0.9,1.4s-1,0.8-1.4,0.5c0.3-0.2,0.4-0.7,0.1-1
		c-0.2-0.3-0.7-0.3-1-0.1c-0.5,0.5-1.3,0.5-1.9,0.2c1.5-0.6,3-1.1,4.6-1.4c-0.2-0.1-0.4-0.2-0.7-0.3c-0.6-0.3-1.3-0.6-1.8-0.2
		c0.3,0.2,0.5,0.3,0.8,0.4c0.1,0.2-0.3,0.3-0.5,0.3c-0.8-0.1-1.5-0.3-2.3-0.4c0,0.4,0.4,0.7,0.7,0.7c-0.5,0.4-1.2-0.2-1.8-0.3
		c-0.5,0-0.9,0.3-1.3,0.4c-0.4,0.2-1.1,0.2-1.3-0.2c2.9-1,5.8-1.7,8.8-2.2c1.5-0.2,3-0.4,4.5-0.4c1.5-0.1,2.9,0,4.4,0
		c0.4,0,0.9,0,1.3-0.1s0.8-0.6,0.7-1C45.9,21.2,45.3,21,44.7,21 M72.6,66.1c-2-1.7-4.2-3.3-6.7-4.1c-2-0.6-4.2-0.6-6.2-0.3
		c-0.9,0.1-1.8,0.3-2.7,0.5c-1.7,0.4-3.3,0.9-4.9,1.6c-0.1-0.2-0.2-0.4-0.4-0.7c0.4-0.1,0.7-0.2,1.1-0.2c-1.8-1.4-4-2.2-6.2-2.5
		c-0.5-0.1-1.1-0.1-1.6-0.1c-0.8,0.1-1.6,0.3-2.3,0.7c0.6,0.2,1.5,0.2,1.6-0.4c0.5,0.4,1.2,0.4,1.9,0.5c2.2,0.2,4.2,1.2,5.7,2.7
		c-1.3,0.4-2.4,1.2-3.1,2.3c-0.1,0.1-0.2,0.3-0.1,0.4c0.1,0.3,0.6,0.2,0.7,0s0.2-0.6,0.4-0.9s0.6-0.4,0.7-0.1
		c-0.3,0-0.4,0.4-0.3,0.6c0.2,0.2,0.6,0.1,0.7-0.1c0.3-0.9,1-1.7,1.9-2.1c-0.2,0.7-0.7,1.2-1.2,1.7c0.6,0.3,1.2-0.3,1.6-1
		c0.3-0.6,0.9-1.3,1.5-1c-0.3,0.4-0.7,0.7-1,1.1c1,0.4,1.6-1.7,2.6-1.3c0.4,0.1,0.7-0.1,1.1-0.3c1-0.6,2.3-0.6,3.5-0.7
		c1.6,0,3.2,0,4.7,0.4c2.3,0.7,4.2,2.6,5,4.9c0.7,2.2,0.6,4.7,2.1,6.4c0.7,0.8,1.7,1.3,2.7,1.6c0.1,0,0.3,0.1,0.4,0s0.1-0.3,0-0.3
		c-0.1-0.5-0.8-0.6-1.2-0.7c-1.2-0.3-2-1.6-2.3-2.9s-0.2-2.6-0.6-3.8c-0.3-1-0.8-2-1.5-2.8c0.7-0.1,1.3,0.4,1.6,1
		c0.8,1.5,0.7,3.3,1.4,4.9c1,2,3.8,2.9,5.8,2c-0.7-0.2-1.3-0.3-2-0.5c-1-0.2-2.1-0.5-2.9-1.2c-0.9-0.8-1.2-2.1-0.9-3.2
		c0.2,1.1,0.7,2.2,1.5,3c0.4,0.4,0.8,0.7,1.3,0.8c1.4,0.4,2.8-0.8,3.2-2.2c0.1-0.5,0.2-1.1-0.1-1.6c-0.2-0.5-0.8-0.9-1.3-0.8
		s-0.9,0.4-1,0.9s0.2,1,0.6,1.2c-0.5,0.3-1.1,0.1-1.4-0.4c-0.1,0.5,0.4,0.9,0.9,1.1s1,0.3,1.3,0.7c-0.5,0.1-0.9,0.3-1.4,0.6
		c-0.2,0.1-0.4,0.1-0.6,0c-1.1-0.3-1.9-1.3-2.1-2.4C74,68.7,74,68.2,73.7,68s-1-0.1-0.8,0.3C72.1,67.6,72.1,66.7,72.6,66.1
		 M23.3,63.5c-0.4,0.1-0.7-0.4-0.6-0.8c0.2-0.4,0.6-0.6,1-0.6s0.8,0,1.2-0.1c-0.1-0.6,0-1.3,0.1-1.9c0.1-0.3,0.2-0.7,0.4-0.8
		s0.7,0.1,0.6,0.4c-0.2,0.5-0.1,1.1,0.3,1.5s1,0.5,1.5,0.2c0.7-0.3,0.9-1.2,0.9-2c-0.1-0.8-0.4-1.5-0.5-2.2s0-1.6,0.5-2.1
		c-1.4,0.4-2.9,0.9-4.1,1.7c-1.3,0.8-2.3,2-2.8,3.4c-0.7,2.4,0.6,4.9,1.9,7.1c0.1,0.1,0.2,0.3,0.4,0.3c0.2,0,0.4-0.1,0.5-0.2
		c1-0.6,2.2,0,3.3,0.4c0.7,0.3,1.4,0.5,2.2,0.7c0.3,0.1,0.5,0.1,0.8,0c0.7-0.2,0.8-1.1,0.7-1.9c-0.4,0.1-0.9,0.3-1.3,0.5
		s-0.9,0.2-1.3,0s-0.5-0.9,0-1.1c0.4-0.2,0.9-0.5,1.2-0.8c0.3-0.4,0.5-0.9,0.3-1.4c-1,1.5-3.3,2-4.8,0.9
		C25,64.3,24.2,63.3,23.3,63.5 M38.4,59.4c0.5-0.8,1.3-1.6,1.1-2.5c-0.9,0.7-1.7,1.6-2.3,2.6s-1,2.3-0.6,3.4c0.3,1,1.2,1.8,1.4,2.8
		c-1-0.6-1.7-1.6-2-2.7c-0.6-2.1,0.6-4.4,2.3-5.7c0.5-0.3,1-0.9,0.7-1.4c-1.3,0.8-2.5,1.8-3.3,3.1s-1.1,2.9-0.5,4.3
		c0.3,0.8,0.9,1.5,1.5,2.1c0.8,0.8,1.8,1.4,2.8,1.8c1,0.3,2.1,0.4,3.1,0.1c2.6-0.6,5.6,0.4,7.3,2.5c0.1-0.2,0-0.5-0.1-0.7
		c-0.9-1.7-3-2.4-5-2.6c2.1-0.5,4-1.6,5.6-3c-2.3-2.1-5.8-2.7-8.7-1.7c0.2-0.2,0.5-0.5,0.7-0.7c-0.6-0.1-1.2,0.5-1.4,1.1
		c-0.2,0.8-0.1,1.7,0.5,2.2c0.6,0.5,1.7,0.5,2.1-0.2C44,64,44,63.5,43.9,63c0.8-0.1,1.5,0.9,1.4,1.7c-0.2,1.7-2.2,2.6-3.9,2.3
		c-1.6-0.3-3-1.4-3.6-2.9S37.5,60.8,38.4,59.4 M44,48.7c-0.3,0.8-0.6,1.5-0.9,2.3c-0.1,0.3-0.1,0.7,0.2,0.7c0.8-0.1,1.6,0.3,1.9,1
		c0.4-0.9,0.6-1.9,0.6-2.8c0-0.4,0.1-0.7,0.2-1c0.1-0.5,0.3-1,0.4-1.5c0.4-1.2,0.9-2.4,1.4-3.5c0.1-0.3,0.3-0.6,0.2-0.8
		c-0.1-0.4-0.7-0.5-0.9-0.9c-0.1-0.2-0.4,0-0.5,0.1C45.2,44,44,46,43.1,48c-0.4,1-0.8,2-1.2,3c0.1,0,0,0.2,0.1,0.4s0.3,0.3,0.5,0.2
		c0-0.4,0.1-0.9,0.3-1.3c1-2.8,2.4-5.5,4.3-7.8c0.2,0,0.3,0.3,0.2,0.5c0,0.2-0.2,0.3-0.3,0.5c-0.4,0.5-0.7,1-0.9,1.6
		c0.1,0,0.3,0,0.4-0.2c0.2,0.1,0.4,0.3,0.3,0.6c-0.3,0.2-0.5,0.5-0.6,0.8c-0.2-0.2-0.4-0.3-0.6-0.5c-0.5,0.7-1,1.4-0.9,2.2
		c0-0.3,0.5-0.6,0.8-0.4c0.3,0.1,0.5,0.6,0.3,0.9c-0.1,0.3-0.4,0.6-0.8,0.6c-0.1-0.2-0.1-0.4-0.3-0.5c-0.1-0.1-0.4-0.2-0.5-0.1
		C44,48.5,44,48.6,44,48.7 M46,68.7c-0.8-0.4-1.8-0.6-2.7-0.4c-2.6,0.4-5.5-0.4-7.3-2.4s-2.2-5.2-0.7-7.3c0.5-0.8,1.3-1.4,2-2
		c0.4-0.3,0.9-0.7,1.4-0.5c0-0.4-0.1-0.8-0.3-1.2c-1.8,0.9-3.7,2-4.4,3.9c-0.9,2.2-0.6,4.8,0.6,6.8c1.3,2,3.5,3.3,5.8,3.5
		C42.3,68.8,44.1,68.7,46,68.7 M43.3,42.7c-0.4,0.3-0.8,0.6-1.1,1.1c-0.1,0.1-0.1,0.2-0.1,0.4c0,0.1,0.2,0.2,0.3,0.3
		c0.2,0.2,0.1,0.6-0.1,0.9c-0.2,0.3-0.4,0.5-0.5,0.8c-0.2,0.1-0.3-0.3-0.3-0.5s-0.1-0.6-0.3-0.5c-0.1,0-0.1,0.1-0.1,0.2
		c-0.4,0.8-0.9,1.6-1.3,2.4c-0.1,0.2-0.2,0.4,0,0.6c0.7,0.6,1.2,1.6,1.6,2.4c1-3,2.4-5.9,4.3-8.5c0.2-0.3,0.5-0.6,0.6-1
		s0.1-0.8-0.2-1.1L46,40.1c-0.1,0-0.3,0.1-0.4,0.2c-0.4,0.4-0.8,0.8-1.2,1.1c-0.1,0.1-0.3,0.3-0.4,0.5c-0.1,0.2,0,0.4,0.2,0.5
		c0.1,0,0.1,0.2,0.1,0.4c-0.1,0.4-0.4,0.7-0.7,0.9C43.4,43.2,43.3,43,43.3,42.7 M80.6,63c0.6-0.1,1.2-0.5,1.6-1s0.8-1,1.2-1.5
		c0.2-0.2,0.6-0.4,0.8-0.1c-0.3,0.8-0.3,1.7-0.1,2.5c0.3-0.3,0.8-0.5,1.2-0.7c0.4-0.3,0.6-0.9,0.2-1.1c-0.2-0.1-0.2-0.5,0.1-0.6
		c0.5,0.5,0.9,1,1.3,1.5c0.1,0.1,0.3,0.1,0.4-0.1s0-0.3,0-0.5c-0.7-1.8-2.6-2.7-4.2-3.6c-1.6-0.8-3.1-1.8-4.5-3
		c-0.2-0.1-0.4-0.3-0.6-0.1s0.1,0.4,0.3,0.6c1.2,0.8,2.4,1.6,3.6,2.4c0.3,0.2,0.6,0.4,0.8,0.7c0.1,0,0.2,0.1,0.3,0.1
		c0,0.2-0.2,0.3-0.4,0.3c-0.5,0-0.9-0.1-1.3-0.4c0.1,0.4,0.5,0.6,0.7,0.9c0.3,0.3,0.3,0.9,0,1c-0.4,0.1-0.1,1-0.5,1
		c-0.6,0-1,0.7-1.2,1.3c0,0.1-0.1,0.2,0,0.3C80.3,62.9,80.5,63,80.6,63 M51.1,50.5c0.2,0.2,0.5,0.3,0.6,0.5s0.2,0.6,0,0.7
		c-0.3,0.2-0.8-0.2-1.1,0.1c-0.1,0.1-0.1,0.2-0.2,0.4c-0.1,0.5,0,1,0.1,1.5c0.7-0.1,1.4-0.2,2,0.2c0.5,0.3,1.1,0.3,1.6,0.1
		c-0.1,0-0.1-0.2,0-0.2c0.5-0.1,1.1-0.3,1.5,0c0.1,0.1,0.2,0.2,0.4,0.3s0.3,0,0.4-0.1c-0.6-0.6-0.8-1.5-0.6-2.3
		c0.1-0.2-0.2-0.3-0.3-0.5c-0.2-0.2-0.3-0.6-0.2-1c0-0.4,0-0.9,0-1.3c0-0.3,0-0.7-0.3-1c-0.1-0.1-0.2-0.1-0.3-0.2
		c-0.3-0.2-0.6-0.3-1-0.5c-0.1-0.1-0.2-0.1-0.3,0s-0.1,0.2-0.1,0.3c0,1,0,2.1,0,3.1c0,0.1,0,0.2,0,0.2c0.2,0.3,0.6,0,0.9,0.1
		c0.4,0.2,0.4,1,0.8,1c0,0.3-0.3,0.4-0.6,0.3c-0.3,0-0.5-0.1-0.8,0c-0.2,0.1-0.5,0-0.6-0.3c-0.1-0.2,0-0.5,0-0.7
		c-0.1-0.1-0.3-0.1-0.3,0c-0.1,0.1-0.1,0.3-0.1,0.4c0,0.4,0.1,0.9,0.1,1.3c0.4-0.2,0.9,0.3,0.8,0.7c-0.4,0.1-0.8,0.1-1-0.2
		C52.2,53,52,52.5,52.1,52c0-0.4,0.1-0.9-0.2-1.1c-0.3-0.2-0.3-0.5-0.3-0.8s0.1-0.6-0.1-0.9s-0.5-0.5-0.7-0.3
		c-0.5,0.4-0.7,1.1-0.4,1.7c0,0.1,0.2,0.1,0.2,0C50.9,50.5,51,50.4,51.1,50.5 M35.4,70.1c-0.2-0.1-0.4,0.2-0.5,0.4
		c-0.3,0.9-1.2,1.7-2.1,1.9c-1.5,0.4-3.1-0.4-4.6-0.9c-0.5-0.1-1-0.2-1.4,0.2c-0.2,0.2-0.2,0.6-0.3,0.9c0,0.6,0,1.3,0.1,1.9
		c0.1,1.3,0.2,2.5,0.4,3.8c0,0.1,0.1,0.3,0.2,0.3s0.2-0.2,0.2-0.3c0-1.7,0-3.4,0-5.1c0-0.4,0.4-0.7,0.8-0.8s0.8,0.1,1.2,0.2
		c0.4,0.1,0.8,0.3,1.2,0.4c0.7,0.2,1.4,0.5,2.2,0.4c0.6,0,1.2-0.3,1.8-0.6c0.8-0.4,1.5-0.9,2.2-1.5c-0.1-0.3-0.5-0.4-0.7-0.5
		C35.6,70.6,35.3,70.4,35.4,70.1 M37.5,54.2c-2.7,1.1-5.2,3.5-5.3,6.4c-0.1,3,1.3,6,3.7,7.8c0.3,0.2,0.8,0.4,1.1,0.1
		c-3.2-1.8-4.8-5.9-3.8-9.4c0.1-0.4,0.3-0.9,0.5-1.3c0.8-1.5,2.4-2.5,3.9-3.3c0.2,0,0.3,0.1,0.5,0.1s0.2-0.4,0-0.5
		C37.9,54.1,37.6,54.1,37.5,54.2 M56.3,66.5c-0.3-0.1-0.6-0.1-0.9,0c0.4,0.5,0.8,1,0.8,1.6c0,0.3-0.1,0.6,0.1,0.8
		c0.4,0.6,0.4,1.4,0,2c-0.1,0.2-0.1,0.4-0.1,0.6c-0.1,0.6-0.4,1.1-0.9,1.4c-0.2,0.2,0,0.5,0.2,0.7c0.6,0.5,1.2,1,1.8,1.4
		c0.4-0.4,0.2-1.2-0.3-1.5c-0.2-0.1-0.4-0.1-0.5-0.3c-0.2-0.3,0-0.6,0.2-0.9c0.3-0.5,0.6-1.1,0.7-1.7c0.1-0.4,0.1-0.9,0.1-1.3
		c0-0.6,0-1.1-0.2-1.7C57.2,67.2,56.8,66.7,56.3,66.5 M43.2,20.8c-0.3-0.2-0.6-0.2-0.9-0.2c-1.9-0.1-3.8-0.1-5.7,0
		c-1.7,0.1-3.3,0.3-5,0.5c-2.6,0.4-5.2,1-7.8,1.7c0.9,0,1.8-0.1,2.7-0.2c2.2-0.4,4.5-0.7,6.7-1.1c1.8-0.3,3.7-0.6,5.5-0.5
		C40.2,21,41.7,21.3,43.2,20.8 M29.4,73c-0.5,0.6-1,1.2-1.5,1.8c-0.2,0.3-0.1,0.7,0.2,0.9s0.7,0.2,1,0.2c1.7,0,3.3,0,5,0
		c0.5,0,1,0,1.5-0.1c0.6-0.1,1.2-0.3,1.8-0.6c1.3-0.5,2.6-1,3.9-1.5c-0.6-0.5-1.5-0.2-2.2,0.2c-1.1,0.5-2.2,0.9-3.3,1.1
		c-2.5,0.6-5,0.7-7.5,0.3c-0.1,0-0.2-0.2-0.1-0.3c0.3-0.3,0.7-0.6,1-0.9c0.2-0.1,0.3-0.3,0.4-0.5C29.8,73.3,29.6,73,29.4,73
		 M34.4,35.7c-0.2-0.3-0.4-0.7-0.6-1c-0.1-0.1-0.1-0.2-0.1-0.3s0.1-0.2,0.2-0.3c0.1-0.1,0.1-0.2,0-0.3c-0.2,0.1-0.5,0.3-0.7,0.4
		l-0.1,0.1c-0.1,0.2,0.1,0.4,0.2,0.5c0.4,0.3,0.7,0.7,0.9,1.2c0.2,0.4,0.3,0.9,0.2,1.4c0,0.1,0,0.2,0,0.3c0.1,0.1,0.2,0.2,0.3,0.1
		c1.5-1.7,3.3-3.1,5.3-4.2c0.1,0,0.1-0.1,0.1-0.2c-0.1-0.3-0.5-0.6-0.9-0.6s-0.7,0.1-0.9,0.4c-0.2,0.3-0.3,0.7-0.3,1.1
		c0,0.3-0.4,0.2-0.7,0.4c-0.1,0.1-0.2,0.2-0.3,0.3s-0.3,0.1-0.4,0c-0.1-0.2,0.2-0.4,0.1-0.6c0-0.1-0.2-0.2-0.3-0.2s-0.3,0.1-0.4,0.2
		C35.6,34.9,35,35.3,34.4,35.7 M45.7,69.9c-0.2-0.2-0.3-0.5-0.6-0.6c-0.2-0.1-0.4-0.1-0.7-0.1c-0.6,0-1.2,0.1-1.8,0.1
		c-0.1,0.1,0.1,0.3,0.2,0.4c0.4,0.3,0.9,0.5,1.3,0.8c0.8,0.5,1.6,1,2.3,1.7c0.6,0.6,1.1,1.4,0.7,2.2c-0.2,0.5-0.7,0.8-1.1,0.9
		c-0.2,0.1-0.4,0.2-0.4,0.4c0.3,0.1,0.7,0.1,1,0.1s0.7-0.2,0.9-0.5s0.2-0.6,0.4-0.8c-0.4-0.3-0.2-1-0.3-1.5
		c-0.1-0.3-0.2-0.6-0.4-0.8C46.8,71.4,46.3,70.6,45.7,69.9 M38.4,39.7c0.2-0.2,0.4-0.4,0.4-0.7s-0.4-0.5-0.6-0.3
		c-0.5,0.6-1.1,1.1-1.6,1.7c-0.3,0.4-0.3,0.9-0.3,1.4c0,0.7,0.1,1.4,0.7,1.8c0.3,0.2,0.4,0.7,0.4,1.1c1.9-2.5,4.1-4.8,6.6-6.8
		c0.3-0.2,0.5-0.4,0.8-0.7c-0.1-0.2-0.4-0.1-0.5,0c-2.4,2-4.7,4.2-6.8,6.6c-0.2-0.1-0.3-0.4-0.2-0.6c0.2,0,0.4-0.2,0.3-0.4
		c-0.1,0.3-0.5,0.4-0.7,0.3c-0.2-0.1-0.1-0.6,0.2-0.6c-0.2-0.2-0.3-0.5-0.2-0.8s0.3-0.5,0.5-0.7C37.7,40.6,38,40.2,38.4,39.7
		 M32.6,35.7c0.1,0,0.2,0.1,0.3,0.1c0-0.6-0.5-1.1-1.1-1.2c-0.3,0-0.6,0.1-0.8-0.1c-0.1-0.2,0.2-0.4,0.4-0.3c0.2,0,0.3,0.2,0.5,0.3
		c0.2-0.3,0.5-0.6,0.7-0.9c-0.1-0.1-0.1-0.2-0.2-0.3c-2,0.8-3.8,2.1-5.2,3.6c-0.1,0.2-0.3,0.3-0.3,0.5s0.1,0.5,0.3,0.5
		c0.2,0,0.3-0.1,0.4-0.2c0.5-0.4,1-0.9,1.5-1.3c0.1-0.1,0.2-0.2,0.1-0.3c-0.1-0.3,0.1-0.5,0.4-0.7c0.1-0.1,0.2-0.2,0.4-0.2
		c0.1,0,0.3,0.2,0.2,0.3c-0.1,0-0.3,0.1-0.4,0.1c-0.2,0-0.1,0.3,0,0.3c0.1,0.1,0.3,0,0.4-0.1s0.2-0.2,0.4-0.2
		c0.4-0.1,0.7-0.3,1.1-0.5C32.1,35.1,32.6,35.3,32.6,35.7 M42.1,71.8c0.1,0.1,0.3,0.1,0.4,0C42.4,71.7,42.2,71.7,42.1,71.8
		c0.1-0.3-0.1-0.5-0.3-0.6s-0.4-0.1-0.6-0.2c-0.4-0.1-0.8-0.2-1.2-0.4c-0.6-0.2-1.1-0.4-1.7-0.6c-0.5-0.2-1.1-0.4-1.6-0.7
		c-0.9-0.2-1.7-0.7-2.2-1.4c-0.1-0.2-0.4-0.3-0.5-0.2c-0.1,0.1,0.1,0.3,0.2,0.5c0.6,0.5,0.9,1.5,1.7,1.8c0.3,0.1,0.7,0.1,0.9,0.4
		c0.1,0.1,0.2,0.2,0.4,0.2c0.5,0,1,0,1.4,0c0.1,0,0.2,0,0.3,0.1s0.2,0.2,0.3,0.3c0.1,0.1,0.3,0.1,0.5,0.1c0.4,0,0.9,0.2,1.1,0.6
		c0.2,0.4,0.2,0.9-0.1,1.2C41.4,73,42,72.4,42.1,71.8 M46.8,38.6c0.3-0.3,0.6-0.5,0.7-0.9c0.1-0.4,0-0.8-0.3-1
		c-0.3-0.1-0.8,0.2-0.6,0.6c0.2-0.4,0.9-0.3,1,0.2C44,40,41,43.4,39,47.3c-0.1,0.2-0.1,0.7,0.1,0.6c1.1-2.4,2.7-4.7,4.6-6.6
		c0.7-0.7,1.4-1.3,2.1-2c0.2-0.1,0.3-0.3,0.5-0.4C46.5,38.9,46.6,38.7,46.8,38.6 M43,18.2c0.1-0.3-0.4-0.5-0.7-0.5
		c-3.8,0-7.6,0-11.4,0c-0.2,0.2,0.2,0.4,0.4,0.4C35.2,18.2,39.1,18.2,43,18.2 M43.9,31.3c-0.5,0.4-1.4-0.2-1.8,0.3
		c-0.1,0.2-0.3,0.2-0.5,0.2c-0.5,0.1-0.8,0.6-1.1,1c0,0.1-0.1,0.1-0.1,0.2c0,0.2,0.3,0.2,0.5,0.1c0.7-0.4,1.3-0.7,2-1.1
		c0.2-0.1,0.5-0.3,0.7-0.2c0.3,0.1,0.6-0.2,0.7-0.5c0.1-0.3,0-0.6,0.1-0.9c0.1-0.5,0.6-0.9,1.2-0.9c0.2,0,0.3,0,0.5,0
		s0.3-0.1,0.3-0.3c0-0.3-0.4-0.3-0.6-0.3c-0.5,0-1,0.1-1.4,0.1c-0.1,0-0.2,0-0.3,0.1S44,29.3,44,29.4C43.9,30.1,43.9,30.7,43.9,31.3
		 M37.8,45.2c0,0.4,0.3,0.6,0.4,1c0,0.1,0,0.3,0.1,0.4c0.1,0.1,0.2,0.2,0.3,0.1c0.3-0.7,0.6-1.3,1-1.9c0.2-0.3,0.4-0.6,0.6-0.9
		c0.1-0.3,0.1-0.8-0.2-1l-0.1-0.1c-0.1,0-0.2,0.1-0.3,0.1c-0.5,0.6-1,1.2-1.5,1.9C37.9,44.9,37.8,45.1,37.8,45.2 M55.6,61.9
		c0.5-0.5,1.4-0.2,2-0.5c-0.3-0.4-0.8-0.8-1.2-0.6c0,0.2-0.3,0.3-0.5,0.3s-0.5,0-0.6,0.2c-0.2,0.3-0.7,0.3-1.1,0.3
		c-0.2,0-0.5-0.1-0.4-0.3s0.5-0.2,0.5-0.4c0-0.1-0.1-0.1-0.1-0.2c-0.2-0.1-0.5,0-0.7,0.1s-0.4,0.3-0.7,0.3c-0.2,0-0.3,0-0.5,0
		S52,61.2,52,61.4c0.4,0.3,0.9,0.6,1.3,0.9c0.2,0.1,0.4,0.3,0.6,0.2c0.1-0.1,0.2-0.2,0.3-0.3C54.6,61.9,55.3,62.3,55.6,61.9
		 M76.4,67.3c0.5-0.3,1.1-0.6,1.7-0.4c0.3,0.1,0.5,0.3,0.7,0.4s0.3,0.3,0.4,0.4c0.1,0.2,0.1,0.5,0.1,0.7c0,0.6,0.1,1.2,0.1,1.8
		c0.1,0.1,0.2-0.1,0.2-0.2c0-0.5,0-1,0.1-1.5c0-0.2,0-0.5,0-0.7c-0.1-0.4-0.3-0.7-0.5-0.9c-0.5-0.5-1.3-0.7-2.1-0.6
		c-0.2,0.1-0.5,0.2-0.7,0.3c-0.4,0.3-0.8,0.8-0.8,1.3c-0.1,0.4,0,0.9-0.4,1.1c0.1,0.1,0.2,0.1,0.3,0c0.3-0.1,0.5-0.4,0.5-0.7
		c0-0.2,0-0.4,0-0.6C76.1,67.5,76.2,67.4,76.4,67.3 M20.3,65c-0.6-0.3-1.2-0.6-1.7-1c-0.2-0.1-0.4-0.3-0.6-0.4
		c-0.6-0.5-1-1.2-1.4-1.8c-0.3-0.4-0.6-0.9-0.7-1.4c0-0.2-0.1-0.5-0.3-0.6c-0.3,0.4-0.2,1,0,1.4c0.8,1.8,2.2,3.2,3.9,4
		c0.2,0.1,0.5,0.2,0.8,0.1C20.3,65.2,20.3,65.1,20.3,65 M74.2,54c0.2,0.1,0.4-0.1,0.4-0.3s-0.1-0.4-0.1-0.6
		c-0.1-0.6,0.2-1.1,0.2-1.7c0-0.4-0.2-0.8-0.4-1.1c-0.4-0.6-1-1.1-1.6-1.4c-0.5-0.2-1-0.6-1.4-0.4c0,0.5,0.5,1,1,0.9s1,0.4,1.3,0.8
		c0.3,0.4,0.7,0.9,0.8,1.5C74.3,52.4,74,53.3,74.2,54 M18.7,81.2c0,0.4,0.3,0.8,0.7,1.1c0,0,0.1,0.1,0.2,0.1c0.2,0,0.2-0.3,0.2-0.5
		c0-0.5,0.4-0.8,0.8-1s0.8-0.6,0.7-1.1c-0.2-0.2-0.5-0.2-0.8-0.2c-0.3,0.1-0.5,0.2-0.8,0.4C19.2,80.3,18.7,80.7,18.7,81.2
		 M65.6,52.7c-0.2,0-0.3,0.1-0.4,0.3c-0.2,0.2-0.3,0.4-0.5,0.5c0.3,0,0.5,0.3,0.5,0.6s-0.2,0.5-0.4,0.7c-0.3,0.2-0.6,0.4-0.9,0.5
		c0.4,0.2,0.9,0.3,1.4,0.2s0.9-0.5,0.9-0.9c0-0.1-0.1-0.3-0.1-0.4c0-0.3,0.1-0.6,0.1-0.9C66.1,53,65.9,52.6,65.6,52.7 M37.6,31.5
		c-0.1,0-0.3,0-0.4,0.1c-0.6,0.4-1.2,0.8-1.8,1.2c0.2,0.2,0.5,0.1,0.7,0s0.4-0.3,0.6-0.4c0.5-0.2,0.9-0.5,1.4-0.7
		c0.3-0.1,0.6-0.3,0.9-0.2c0.2,0,0.2-0.2,0.4-0.3c0.2-0.2,0.7,0,0.8-0.3c0.2-0.4,1.1,0,1.3-0.5c0.1-0.2,0.3-0.3,0.5-0.3
		s0.4,0.1,0.6,0.1c0.2,0,0.4-0.2,0.3-0.4c-0.3-0.1-0.6-0.1-0.9-0.1c-0.3,0-0.6,0.2-0.7,0.5c-0.4-0.1-1,0-1.2,0.4
		c-0.2,0.2-0.5,0.1-0.8,0.2C39.1,30.7,39,31,38.8,31s-0.4,0-0.5,0C38,31.2,37.9,31.5,37.6,31.5 M57.9,51.6c-0.5,0.3-1.2,0.2-1.6-0.2
		c-0.3,0.6-0.2,1.4,0.3,2c0.1,0.1,0.3,0.3,0.4,0.1c0.2-0.3,0.6-0.5,1-0.5c0.1,0,0.3,0,0.4,0c0.1,0,0.3-0.1,0.2-0.3
		C58.2,52.6,57.8,52.1,57.9,51.6 M42.5,70.9c0.3,0.4,0.5,0.9,0.3,1.3c-0.1,0.3-0.5,0.6-0.3,0.9h0.1c0.5-0.4,1-0.8,1.5-1.3
		c0.2-0.2,0-0.5-0.3-0.6C42.9,70.6,42,70,41,69.4c0,0.4,0.4,0.7,0.7,0.9C42.1,70.5,42.3,70.7,42.5,70.9 M16,65.1
		c0.1,0.4,0.4,0.8,0.7,1.1c0.8,0.7,1.6,1.3,2.5,1.8c0.3,0.1,0.5,0.3,0.8,0.3s0.7,0.1,0.7,0.4c0.2,0.1,0.4-0.3,0.3-0.5
		s-0.4-0.3-0.6-0.4c-0.2,0-0.5,0-0.7-0.1c-1.3-0.6-2.5-1.5-3.5-2.6C16.2,65,16.1,65,16,65.1 M40.2,34.7c0.1-0.1,0-0.3-0.2-0.4
		s-0.3,0.1-0.5,0.2c-0.2,0.1-0.4,0.3-0.5,0.4c-1,0.8-2.1,1.5-3,2.5c-0.1,0.2-0.3,0.3-0.4,0.4c-0.3,0.3-0.9,0.5-0.9,1
		c0.2,0.1,0.4,0,0.6-0.2c0.9-0.9,1.9-1.8,2.8-2.7c0.1-0.1,0.3-0.3,0.5-0.3C39.3,35.6,39.6,34.7,40.2,34.7 M34.5,21.6
		c0,0.1,0.1,0.2,0.1,0.2c1.3,0.2,2.5,0.2,3.8,0.1c1.2-0.1,2.3-0.1,3.5,0c0.1-0.1,0.1-0.2,0-0.3c-0.1-0.1-0.2-0.1-0.3-0.1
		c-2,0-4.1,0-6.1-0.1c-0.2,0-0.5,0-0.7,0C34.7,21.5,34.5,21.5,34.5,21.6 M41.2,29.2c0.4-0.2,0.8-0.2,1.2-0.3c0.4-0.1,0.9-0.3,1-0.7
		c-0.9-0.1-1.8-0.1-2.7,0c-0.1,0-0.3,0.1-0.3,0.2s0.1,0.1,0.1,0.2c0.1,0.2-0.3,0.4-0.4,0.6c-0.1,0.2,0.2,0.4,0.5,0.4
		S41,29.3,41.2,29.2 M75.2,52.3c-0.1,0.1-0.1,0.2,0,0.3s0.1,0.2,0.2,0.2c0.2,0.2,0.1,0.6,0.1,0.9c0,0.5,0.4,0.9,0.7,1.3
		c0.1,0.1,0.3,0.3,0.4,0.4c0.2,0.1,0.4,0,0.5-0.1c-0.2-0.6-0.4-1.3-0.8-1.8C76.1,52.9,75.7,52.5,75.2,52.3 M38.9,73.4
		c0.4-0.1,0.5-0.8,1-0.9c0.3-0.1,0.3-0.5,0.1-0.7s-0.5-0.2-0.8-0.2c-0.1,0-0.2,0-0.3,0.1s-0.1,0.2-0.1,0.3c-0.1,0.4-0.3,0.7-0.6,1
		c-0.1,0.1-0.3,0.3-0.3,0.5s0.1,0.4,0.3,0.4c0-0.2,0.1-0.3,0.3-0.3C38.5,73.4,38.7,73.4,38.9,73.4 M77.9,56.4
		c-0.3-0.3-0.8-0.5-1.1-0.2c0.7,0.5,1.3,1,2,1.6c0.3,0.2,0.5,0.4,0.6,0.8c0,0.1,0,0.3,0,0.4s0.1,0.3,0.2,0.3
		c0.1-0.3,0.7-0.5,0.6-0.8c0-0.2-0.2-0.3-0.3-0.4C79.2,57.4,78.5,56.9,77.9,56.4 M74.5,55.1c-0.2-0.1-0.5,0.2-0.4,0.4
		c0,0.2,0.2,0.4,0.3,0.6c0.2,0.4,0.2,0.8,0.1,1.2s-0.4,0.8-0.7,1.2c-0.1,0.2-0.3,0.3-0.2,0.5c0,0.2,0.4,0.3,0.4,0.1
		c0.1-0.5,0.7-0.7,0.9-1.1c0.1-0.2,0.1-0.5,0.1-0.8C75.1,56.5,75.1,55.7,74.5,55.1 M47.2,48c-0.1-0.1-0.3,0-0.3,0.2
		c-0.1,0.5,0,1.2-0.3,1.6c-0.6,1,0,2.4-0.5,3.6c0.1,0.2,0.4,0.1,0.5,0c0.1-0.2,0.1-0.4,0.1-0.6c0-0.8,0-1.7,0-2.5
		c0-0.1,0.1-0.2,0.2-0.3C47.3,49.4,47.3,48.6,47.2,48 M32.2,82.7c0.1-0.4,0-0.8-0.3-1s-0.7-0.3-1.1-0.1c-0.2,0.1-0.3-0.2-0.4-0.4
		c-0.2-0.2-0.5-0.2-0.7,0c0.9,0.4,1.5,1.3,1.6,2.3c0.2,0,0.4-0.3,0.2-0.5C31.7,82.9,31.9,82.8,32.2,82.7 M63.1,52.9
		c0,0.2,0.3,0.3,0.5,0.2s0.3-0.2,0.5-0.3c0.2-0.1,0.4-0.1,0.5-0.2c0.1-0.1,0.2-0.2,0.3-0.3c0.5-0.5,0.7-1.3,0.6-2.1
		c0-0.1-0.1-0.3-0.2-0.4C65.2,49.7,65,49.9,65,50c0.2,0.6,0.1,1.2-0.2,1.7c-0.1,0.2-0.3,0.4-0.5,0.4s-0.4-0.3-0.2-0.5
		c-0.1-0.1-0.2-0.1-0.3,0s-0.1,0.2-0.1,0.3C63.6,52.4,63.4,52.7,63.1,52.9 M44.5,38.1c-0.7,0.5-1.3,1.1-2,1.7
		c-0.2,0.1-0.1,0.4,0.1,0.5c0.2,0.1,0.4,0.1,0.6-0.1c0.5-0.4,1-0.9,1.4-1.5c0.1-0.1,0.2-0.3,0.2-0.4C44.9,38.2,44.7,38,44.5,38.1
		 M44.2,19.5C44.1,19.6,44,19.8,44,20c-0.3,0-0.6,0.2-0.8,0.5c0.6,0,1.3,0,1.9,0c0.3,0,0.6,0,0.9,0.2c0.5,0.3,1.1,0.4,1.6,0.1
		c0-0.2-0.3-0.3-0.6-0.3c-0.2,0-0.5,0-0.6-0.2c-0.1-0.1-0.3-0.2-0.4-0.2c-0.7,0-1.3-0.1-2-0.1c0.1-0.2,0.2-0.3,0.3-0.5
		C44.3,19.5,44.2,19.5,44.2,19.5 M46.3,69.7c0.1,0.2,0.3,0.4,0.6,0.3c0.1,0,0.2-0.1,0.3-0.2c0.3-0.2,0.7-0.4,1-0.3
		c-0.1-0.4-0.4-0.7-0.8-0.8c-0.4-0.1-0.8,0-1.2,0.1C45.9,69.1,46.1,69.5,46.3,69.7 M44.3,35.1c0.3,0.1,0.4-0.3,0.5-0.6
		c0-0.2,0.1-0.5,0.1-0.7c-0.2-0.1-0.3,0.1-0.4,0.3c0,0.2,0,0.4,0,0.5c0,0.2-0.2,0.3-0.4,0.2c-0.4-0.2-0.9,0-1.2,0.4
		c-0.2,0.2-0.4,0.4-0.4,0.7s0.4,0.4,0.6,0.2c0.1-0.2,0.4-0.3,0.6-0.4c0.2-0.1,0.5-0.4,0.3-0.6C44,34.9,44.1,35,44.3,35.1 M43.2,18.4
		c-0.6,0.7-1.9,0-2.8,0.6c0.8,0.1,1.5,0.2,2.3,0.1c0.2,0,0.4,0,0.6-0.2c0.4-0.6,1.6,0.1,2-0.5c-0.5-0.1-1-0.2-1.5-0.2
		C43.7,18.2,43.4,18.2,43.2,18.4 M83.3,45.7c-0.5,0.3-1,0.6-1.5,1c-0.1,0.1-0.1,0.2,0,0.3s0.2,0,0.3,0c0.3,0,0.5-0.1,0.8,0
		c0.3,0,0.6,0.2,0.7,0.4s0.4,0.1,0.5-0.1c0.1-0.2,0-0.4-0.2-0.5s-0.3-0.2-0.5-0.3s-0.3-0.3-0.3-0.5c0.1,0,0.2,0,0.3-0.1
		C83.4,45.8,83.4,45.7,83.3,45.7 M34.3,74.7c0.2-0.1,0.4-0.3,0.6-0.4c0.8-0.6,1.4-1.4,1.9-2.2c-0.2,0-0.3,0.1-0.5,0.2
		c-0.8,0.6-1.5,1.3-2.1,2c-0.1,0.1-0.2,0.2-0.2,0.3C34.1,74.7,34.2,74.8,34.3,74.7 M35.4,39.2c0.4,0.3,0.6,0.7,0.6,1.2
		c0.1,0.1,0.2,0,0.3-0.1c0-0.1,0-0.2,0.1-0.3c0.1-0.3,0.3-0.6,0.6-0.8c0.7-0.6,1.5-1.3,2.2-1.9c-0.2-0.2-0.6,0-0.8,0.2
		c-0.4,0.3-0.8,0.7-1.1,1.1c-0.1,0-0.2,0.1-0.3,0.1c-0.2,0.3-0.5,0.6-0.7,0.8c-0.1,0.1-0.2,0-0.3-0.1s-0.1-0.2-0.2-0.3
		C35.6,39,35.4,39,35.4,39.2 M41.5,36.3c-0.2-0.1-0.4,0.1-0.6,0.2c-0.3,0.2-0.5,0.4-0.8,0.6c-0.2,0.2-0.5,0.4-0.5,0.6
		c-0.1,0.3,0.1,0.6,0.4,0.6c0.3-0.4,0.7-0.7,1.2-1c-0.1-0.2,0-0.4,0.1-0.6S41.5,36.5,41.5,36.3 M51.5,46.2C51.2,46.4,51,46.7,51,47
		c-0.1,0.3,0,0.7,0.3,0.9s0.8-0.2,0.6-0.5c-0.2-0.4,0.5-0.8,0.4-1.2C52.2,46,51.8,46,51.5,46.2 M46.3,22.7c0,0.2,0.2,0.3,0.4,0.2
		c0.2-0.1,0.3-0.2,0.4-0.3c0.1-0.1,0.3-0.2,0.5-0.2c0.6,0.2,1.2,0.1,1.7-0.2c-0.4-0.1-0.8-0.1-1.1-0.2c-0.5-0.1-0.9-0.6-1.3-0.3
		C46.9,22.1,46.7,22.5,46.3,22.7 M40.9,42c0.2,0.1,0.2,0.3,0.1,0.4c-0.1,0.1-0.2,0.3-0.3,0.4s0.2,0.4,0.3,0.3c0.4-0.5,0.7-1,1-1.6
		c0.1-0.2,0.2-0.6-0.1-0.7c-0.1,0-0.3,0.1-0.4,0.2c-0.2,0.1-0.3,0.3-0.5,0.4c-0.1,0.1-0.2,0.2-0.2,0.3C40.7,41.8,40.7,41.9,40.9,42
		 M17.6,67.8c0.4,0.7,1,1.2,1.7,1.3c0.2,0.1,0.5,0.1,0.7,0.2c0.1,0.1,0.2,0.2,0.4,0.3c0.1,0.1,0.4,0,0.3-0.2
		c-0.1-0.4-0.5-0.6-0.9-0.6C18.9,68.8,18.4,67.8,17.6,67.8 M45.8,35.1c-0.3,0.1-0.5,0.1-0.7,0.3s-0.3,0.5-0.1,0.7
		c0.1,0.2,0.4,0.2,0.6,0c0.2-0.1,0.2-0.4,0.2-0.6c0-0.2,0.2-0.3,0.4-0.3s0.4-0.1,0.5-0.2c-0.1-0.2-0.5-0.1-0.7-0.2
		c-0.2-0.1-0.1-0.4-0.2-0.6s-0.2-0.5-0.4-0.4C45.2,34.2,45.3,34.8,45.8,35.1 M57,50.9c0.1,0.1,0.1,0.2,0.2,0.3
		c0.1,0.1,0.3,0,0.3-0.1c0-0.8-0.9-1.5-1.6-1.2c-0.2,0.2-0.2,0.6,0,0.8C56.2,50.9,56.7,50.6,57,50.9 M58.9,52.3
		c0,0.1,0.1,0.2,0.1,0.3c0.1,0.1,0.3,0.1,0.3-0.1s0-0.3,0.1-0.4c0-0.3,0.3-0.5,0.4-0.8c0.1-0.3,0.2-0.6-0.1-0.8
		c-0.2,0.1-0.2,0.3-0.3,0.5s-0.2,0.4-0.4,0.3c-0.2-0.1-0.4,0.1-0.5,0.3s0,0.4,0.1,0.6C58.6,52.2,58.8,52.4,58.9,52.3 M40.5,16
		c-0.9,0-1.7-0.1-2.6-0.1c-0.3,0-0.8,0.1-0.8,0.4c1.2,0.1,2.5,0.1,3.7,0C40.9,16.1,40.6,16,40.5,16 M59.5,66.8c0-0.1,0-0.2-0.1-0.3
		c-0.1-0.1-0.2-0.2-0.4-0.2c-0.5-0.1-1-0.3-1.5-0.4c-0.1,0.2-0.1,0.6,0.1,0.8c0.2,0.2,0.5,0.2,0.8,0.1c0.2-0.1,0.4,0,0.6,0.2
		c0.1,0.2,0.1,0.4,0.2,0.6C59.5,67.5,59.5,67.1,59.5,66.8 M49.9,25.3c-0.5,0.2-1.1,0-1.5-0.3c-0.1-0.1-0.4,0-0.5,0.1
		s-0.3,0.3-0.5,0.3c-0.1,0.1,0,0.2,0.1,0.3c0.1,0.1,0.2,0.1,0.3,0.1c0.5,0,1.1,0,1.6,0c0.2,0,0.3,0,0.5-0.1
		C50,25.6,50,25.4,49.9,25.3 M77.6,72.4c0.3,0.2,0.7,0,0.9-0.2c0.4-0.3,0.8-0.7,1.2-1c0.1-0.1,0.1-0.1,0.1-0.2
		c0.1-0.2-0.1-0.4-0.3-0.4c-0.2,0-0.4,0.1-0.5,0.3c-0.1,0.2-0.2,0.4-0.3,0.6c-0.2,0.3-0.5,0.5-0.8,0.6
		C77.8,72.1,77.5,72.2,77.6,72.4 M34.2,17.1c0.1,0,0.3-0.1,0.3-0.2c-1.3,0-2.7,0-4,0c-0.1,0.1-0.1,0.2,0,0.3
		C31.7,17.3,32.9,17.3,34.2,17.1 M41.7,60.8c0.4-0.2,0.8-0.5,1.3-0.7c0.1-0.1,0.2-0.1,0.3-0.2c0.1-0.2,0.1-0.4,0-0.7
		c-0.6,0.2-1.1,0.5-1.5,1C41.6,60.4,41.5,60.7,41.7,60.8 M30.5,77.1c0.8,0.2,1.5,0.2,2.3,0.1c0.2,0,0.3-0.1,0.4-0.2
		c-0.7-0.2-1.4-0.3-2.1-0.2C30.8,76.7,30.5,76.8,30.5,77.1 M75.9,70.6c0.1-0.1,0-0.2-0.1-0.3c-0.5-0.6-1.1-1.2-1.6-1.8
		c-0.1,0.5,0.2,0.9,0.5,1.3C75,70.2,75.4,70.7,75.9,70.6 M19.4,63.8c0.1,0.1,0.2,0.1,0.3,0.1c0.1,0,0.1-0.1,0.1-0.2
		c-0.9-0.6-1.7-1.4-2.4-2.2C17.6,62.6,18.6,63.3,19.4,63.8 M50,41.9c-0.1,0-0.2,0.1-0.3,0.2c-0.4,0.4-0.8,1-0.6,1.5
		c0.2,0.1,0.6,0.2,0.7,0c0-0.1,0.1-0.2,0.1-0.3C50,42.8,50,42.3,50,41.9 M29.6,79.7c0,0.1,0,0.1,0,0.2c0.1,0.2,0.3,0.5,0.6,0.5
		c0.3,0.1,0.7,0.2,0.7,0.5c0.3-0.2,0.3-0.7,0-1c-0.2-0.2-0.5-0.2-0.5-0.5c-0.1,0-0.3,0-0.4,0C29.8,79.5,29.6,79.6,29.6,79.7
		 M40.6,16.9c-0.2,0-0.4,0.1-0.3,0.2c1.2,0.1,2.5,0.1,3.7,0.1c0-0.1-0.1-0.2-0.1-0.3C42.7,16.9,41.7,16.9,40.6,16.9 M56,49.3
		c0-0.1,0.1-0.3,0.1-0.4c0.3,0.2,0.5,0.4,0.8,0.5c0.2-0.2,0.3-0.6,0.1-0.9c-0.3-0.2-0.7-0.3-1-0.1C55.6,48.6,55.6,49.2,56,49.3
		 M21.5,71.3c0.1-0.1,0.1-0.2,0.1-0.3c-0.3-0.6-1.1-1-1.7-0.8c0.1,0.2,0.3,0.3,0.4,0.4c0.3,0.2,0.6,0.4,1,0.6
		C21.3,71.3,21.4,71.4,21.5,71.3 M60.4,65.8c-0.1,0.6-0.1,1.2,0,1.7c0,0.1,0,0.2,0.1,0.2c0.1,0.1,0.2,0,0.3,0c0-0.4,0.1-0.8,0.1-1.3
		c0-0.2,0-0.4-0.1-0.5C60.7,65.8,60.5,65.7,60.4,65.8 M48.8,39.8c-0.6,0.2-1,0.7-1.3,1.2c-0.1,0.2,0,0.5,0.2,0.6
		c0.1,0.1,0.4,0,0.4-0.1c0.1-0.2,0-0.4,0.1-0.5C48.3,40.5,48.9,40.3,48.8,39.8 M30.2,18.3c-0.6-0.1-1.2-0.1-1.7-0.1
		c-0.3,0-0.6,0.1-0.6,0.4c0.8,0.1,1.6,0.1,2.4-0.1C30.2,18.5,30.2,18.4,30.2,18.3 M35.4,76.8c0.1,0,0.3-0.1,0.4-0.1
		c0.2-0.1,0.3-0.2,0.3-0.4c-0.7-0.2-1.4-0.1-2,0.1C34.4,76.7,34.9,77,35.4,76.8 M51,59.9c-0.2-0.2-0.6-0.3-0.8-0.1s-0.4,0.4-0.5,0.6
		c0.2,0.2,0.6,0.3,0.9,0.2C50.7,60.5,50.9,60.2,51,59.9 M52.4,50.1c0,0.2,0.1,0.6,0.3,0.6c0.1-0.9,0.1-1.8,0-2.6
		c-0.2-0.1-0.3,0.2-0.3,0.4C52.4,49,52.4,49.6,52.4,50.1 M32.6,19.1c0.3,0,0.5,0,0.8,0c0.2,0,0.4,0,0.5-0.1c-1-0.3-2-0.3-3.1-0.1
		C31.4,19.1,32,19.1,32.6,19.1 M68.6,71.3c0.5,0.1,0.2,1,0.7,1.2c0.1-0.7,0.1-1.3,0.1-2C68.9,70.5,68.9,71.3,68.6,71.3 M44.4,32.2
		c-0.1,0.1-0.3,0.1-0.4,0.2c-0.1,0.2,0,0.5,0.2,0.5c0.4-0.3,0.7-0.5,1.1-0.8c0.2-0.1-0.1-0.4-0.3-0.4S44.6,32.1,44.4,32.2
		 M75.6,50.3c-0.1,0-0.3,0-0.4,0.1s-0.2,0.2-0.1,0.3c0.2,0.1,0.4,0.3,0.6,0.4c0.2-0.3,0.5-0.5,0.8-0.7C76.3,50.3,76,50.3,75.6,50.3
		 M26.8,19.2c0.3,0,0.6-0.1,0.8-0.3c-0.7-0.2-1.4-0.2-2.1,0.1C25.9,19.1,26.3,19.2,26.8,19.2 M38.9,27c0.6,0.2,1.4,0.2,2,0
		c0.1,0,0.2-0.1,0.1-0.1C40.3,26.7,39.5,26.6,38.9,27 M45.7,29.9c-0.1-0.1-0.4,0-0.4,0.2s-0.2,0.4-0.4,0.6c-0.1,0.2-0.2,0.5,0,0.7
		c0.1,0.2,0.4-0.1,0.4-0.3c0-0.2,0.1-0.5,0.3-0.5C45.7,30.3,45.7,30.1,45.7,29.9 M73.1,50.4c-0.1-0.1-0.3,0-0.4,0.2
		c0,0.2,0.1,0.3,0.2,0.5c0.2,0.4,0.4,0.8,0.4,1.2c0.4-0.3,0.4-0.9,0-1.2C73.1,50.9,73,50.6,73.1,50.4 M29.1,56
		c-0.3,0-0.4,0.4-0.3,0.7c0,0.3,0.1,0.6,0.1,0.9c0.1,0,0.2,0,0.2,0C29.3,57.1,29.3,56.5,29.1,56 M37.3,27.2c-0.1,0-0.2,0-0.3,0.1
		s-0.1,0.1,0,0.2c0.6,0.1,1.3,0,1.9-0.2C38.4,27.2,37.8,27.2,37.3,27.2 M34.6,24.1c0.8,0.3,1.6,0.3,2.4,0
		C36.2,23.9,35.4,23.9,34.6,24.1 M20.2,57.2c0,0.4,0.1,0.8,0.1,1.3c0.1,0,0.1,0.1,0.2,0.1C20.9,58.2,20.8,57.4,20.2,57.2 M31.5,74
		c-0.2,0.2-0.4,0.4-0.4,0.6c0.1,0.1,0.2,0.2,0.2,0.2c0.1-0.2,0.3-0.2,0.5-0.4C32,74.2,32,74.2,32,74C31.9,73.8,31.6,73.8,31.5,74
		 M20.1,59c-0.4-0.2-0.6-0.7-0.4-1.1c0.1-0.2,0.1-0.5-0.1-0.5c-0.4,0.6-0.2,1.4,0.3,1.8c-0.1,0.1,0.1,0.1,0.2,0.1
		C20.1,59.2,20.1,59.1,20.1,59 M29.1,19.2c-0.5-0.1-1,0-1.4,0.2c0.5,0.2,1.1,0.2,1.6,0.1C29.4,19.5,29.2,19.3,29.1,19.2 M47.7,66.2
		c-0.2,0.1-0.4,0.1-0.5,0.3c-0.1,0.2,0,0.4,0.2,0.4c0.1,0,0.2-0.1,0.2-0.1c0.2-0.1,0.3-0.3,0.4-0.4c0.1-0.2,0-0.4-0.2-0.5
		C47.8,66,47.8,66.1,47.7,66.2 M22.6,68.5c-0.1-0.2-0.4-0.2-0.5,0s0,0.5,0.2,0.6s0.4,0,0.6-0.1C22.9,68.9,22.8,68.7,22.6,68.5
		 M47.3,46.7c0,0.3,0,0.6,0,0.9c0.1,0,0.2,0.1,0.3,0c0-0.4,0-0.9,0-1.3c-0.1-0.1-0.2-0.1-0.3,0C47.3,46.4,47.3,46.6,47.3,46.7
		 M45.6,55c0-0.2,0.2-0.5,0.4-0.5c0.1,0,0.2,0,0.3,0s0.1-0.2,0.1-0.2c-0.4,0-0.7,0-1.1,0C45.3,54.5,45.4,54.8,45.6,55 M46.5,18.8
		c-0.2,0-0.4,0-0.6,0c-0.1,0-0.1,0-0.2,0c-0.1,0.1-0.1,0.2,0,0.3c0.3,0.1,0.7,0.2,1,0c0.1,0,0.1,0,0.1-0.1
		C46.9,18.9,46.7,18.8,46.5,18.8 M73.1,67.3c0.1,0.1,0.2,0.2,0.4,0.2c-0.2-0.3-0.3-0.6-0.5-0.8c0,0,0-0.1-0.1-0.1
		c-0.1-0.1-0.2,0.2-0.2,0.3c0,0.2,0.1,0.4,0.1,0.6C72.9,67.5,73.1,67.4,73.1,67.3 M34.7,33.3c-0.2,0.1-0.4,0.1-0.5,0.3
		c0,0.1,0,0.2,0,0.2c0.5-0.1,1-0.4,1.3-0.8c-0.1-0.1-0.3-0.1-0.4,0C34.9,33.1,34.8,33.3,34.7,33.3 M21.1,18.1c0.5,0.1,1,0.1,1.4,0
		C22.1,17.6,21.4,17.7,21.1,18.1 M21.2,56.9c0,0.1,0,0.2,0.1,0.3c0,0.1,0.1,0.1,0.2,0.1c0.2-0.4,0.2-1-0.1-1.4
		C21.3,56.2,21.2,56.6,21.2,56.9 M46.1,25.7c0.4-0.1,0.8-0.4,1-0.7C46.6,24.8,46.1,25.3,46.1,25.7 M67.2,58.1
		C67.3,58.2,67.4,58.1,67.2,58.1c0.1-0.2,0-0.2-0.1-0.2c-0.2,0-0.4,0-0.6,0.1c-0.1,0.2-0.1,0.5,0.1,0.5c0.2,0.1,0.4-0.1,0.4-0.3
		 M79.7,53.4c-0.3,0-0.5,0.4-0.4,0.6c0.3-0.2,0.6-0.5,0.9-0.7c0-0.1-0.1-0.2-0.3-0.2C79.9,53.2,79.8,53.3,79.7,53.4 M58,60.1
		c0-0.2-0.1-0.3-0.2-0.4c-0.2,0.1-0.4,0.4-0.3,0.6c0.1,0.2,0.4,0.3,0.6,0.2C58,60.4,58,60.3,58,60.1 M45.8,27.8
		c-0.4-0.1-0.9,0.1-0.9,0.5c0,0.1,0.1,0.4,0.2,0.3c0-0.2,0.2-0.4,0.4-0.5C45.6,28,45.7,27.9,45.8,27.8 M40.7,34.2
		c0.3,0.2,0.6,0.5,0.9,0.4c-0.3-0.4-0.6-0.7-1-0.9C40.4,33.8,40.6,34.1,40.7,34.2 M13.4,57.2c-0.2,0-0.3,0.2-0.2,0.3
		s0.3,0.2,0.4,0.1c0.1-0.1,0.2-0.4,0.4-0.4C13.9,57,13.5,56.9,13.4,57.2 M50.2,21.4c0.1-0.1,0.2-0.2,0.3-0.3c-0.3-0.2-0.7-0.2-0.9,0
		C49.5,21.4,49.9,21.6,50.2,21.4 M28.2,72.9c-0.1,0-0.2,0.1-0.3,0c-0.2,0.1-0.1,0.4,0,0.4c0.2,0.1,0.4,0,0.5-0.2
		c0.1-0.1,0.1-0.3,0.2-0.5C28.5,72.7,28.3,72.8,28.2,72.9 M21.9,72.9c-0.1,0.1-0.2,0.2-0.3,0.3c0,0.1,0.2,0.2,0.3,0.1
		c0.1,0,0.2-0.1,0.3-0.2c0.1-0.1,0.2-0.3,0.3-0.4c-0.1,0-0.2-0.1-0.2-0.1C22.2,72.7,22.1,72.8,21.9,72.9 M46.8,40.2
		c0,0.1,0,0.2,0,0.3c0.1,0,0.1,0.1,0.2,0c0.2-0.3,0.2-0.8-0.1-1C46.8,39.7,46.8,39.9,46.8,40.2 M39.6,35.9c-0.1-0.1-0.2-0.2-0.3-0.2
		s-0.2,0.1-0.2,0.2c0.3,0.2,0.5,0.4,0.7,0.7c0.1,0,0.2-0.1,0.3-0.1C39.9,36.2,39.7,36.1,39.6,35.9 M41.8,33.5
		c-0.1,0-0.2-0.1-0.3-0.1c-0.1,0.1-0.1,0.1-0.1,0.2c0.3,0.1,0.5,0.3,0.7,0.5c0.1,0.1,0.3,0,0.3-0.1C42.2,33.9,42,33.7,41.8,33.5
		 M42.4,30.7c-0.1-0.1-0.3-0.1-0.4-0.1c-0.2,0-0.3,0.2-0.2,0.3c0.3,0.1,0.6,0.1,0.9-0.1C42.5,30.7,42.4,30.7,42.4,30.7 M20.8,47.1
		c-0.2-0.1-0.4,0-0.5,0.2c0.2,0.3,0.7,0.2,0.8-0.2C21,47.1,20.9,47.1,20.8,47.1 M37.2,34.2c0.2,0.2,0.6-0.1,0.6-0.4
		c-0.2,0-0.5,0-0.7,0.1C37,34,37.1,34.2,37.2,34.2 M62.4,51.2c0.1,0.1,0.2-0.1,0.1-0.2c0-0.1-0.1-0.1-0.2-0.1c-0.2,0-0.4,0-0.5,0.1
		C61.8,51.2,62.1,51.3,62.4,51.2 M80.3,52.3c-0.1-0.1-0.4-0.1-0.5,0s0,0.4,0.2,0.4S80.4,52.5,80.3,52.3 M37.8,69.1
		c-0.1-0.2-0.3-0.3-0.5-0.3c-0.1,0.1-0.2,0.2-0.1,0.4C37.4,69.2,37.6,69.2,37.8,69.1 M49.2,54.6c0.1,0.4,0.4,0.7,0.7,0.8
		c0.1-0.1,0.1-0.2,0.1-0.3C49.7,55,49.5,54.8,49.2,54.6 M78.8,53.8c-0.2-0.2-0.6-0.1-0.7,0.1C78.3,54.1,78.7,54.1,78.8,53.8
		 M38.1,69.5c0.2,0.2,0.6,0.1,0.6-0.1c-0.2-0.1-0.4-0.2-0.7-0.1C38,69.3,38,69.5,38.1,69.5 M47.5,19.6c0.2,0,0.3,0,0.5,0
		c0-0.2-0.2-0.3-0.4-0.3s-0.3,0.1-0.4,0.3C47.3,19.5,47.4,19.6,47.5,19.6 M86.1,62.3c0,0.1,0,0.3,0,0.4c0.3-0.1,0.3-0.7,0-0.8
		C86.1,62,86.1,62.2,86.1,62.3 M63.5,59.3c-0.1,0-0.3,0.2-0.2,0.3c0.2,0.1,0.5,0.1,0.7,0C63.9,59.4,63.7,59.3,63.5,59.3 M38.7,53
		c0.2,0.1,0.5,0.1,0.6-0.1C39.2,52.6,38.7,52.7,38.7,53 M84.1,45.2c-0.2-0.1-0.4,0-0.5,0.2c0.3,0.1,0.7,0.1,0.7-0.2
		C84.3,45.2,84.2,45.2,84.1,45.2 M53.5,55.1c0,0-0.1,0.1-0.1,0.2c0,0.1,0.1,0.1,0.1,0.1c0.2-0.2,0.4-0.5,0.6-0.7
		C53.9,54.7,53.7,54.9,53.5,55.1 M67.4,72.9c0.1,0,0.2-0.2,0.1-0.2c-0.1-0.2-0.5,0-0.5,0.2C67.2,72.9,67.3,72.9,67.4,72.9 M15,53.2
		c-0.1,0-0.2,0.1-0.3,0.1c0.1,0.3,0.6,0.2,0.7-0.1C15.3,53.2,15.1,53.2,15,53.2 M24.1,35.5c0.2,0.2,0.6,0.1,0.6-0.2
		C24.5,35.2,24.2,35.3,24.1,35.5 M69.5,73.2c0,0.1,0.2,0.1,0.2,0c0-0.2,0.1-0.3,0.1-0.5C69.6,72.7,69.4,73.1,69.5,73.2 M34.2,82.8
		c0.1,0,0.2-0.1,0.2-0.2c-0.1-0.1-0.3-0.2-0.4-0.1C34,82.6,34.1,82.8,34.2,82.8 M56.2,54.8c0.1,0.1,0.1,0.1,0.2,0.2
		c0.1-0.1,0.2-0.2,0.2-0.3C56.5,54.5,56.1,54.6,56.2,54.8 M48.6,54.5c0.1,0,0.2-0.2,0.1-0.3c-0.2,0-0.3,0-0.5,0
		C48.1,54.4,48.4,54.6,48.6,54.5 M39.8,69.9c-0.1-0.1-0.2-0.2-0.3-0.2s-0.3,0.1-0.2,0.3C39.4,70,39.6,70,39.8,69.9 M43,30.3
		c0,0.1,0,0.2,0,0.3c0.3,0,0.4-0.4,0.1-0.5C43.1,30.2,43.1,30.3,43,30.3 M64.3,51.5c0,0.1,0.2,0.2,0.3,0.1c0.1-0.2-0.1-0.4-0.3-0.4
		C64.2,51.2,64.2,51.4,64.3,51.5 M37.4,37.4c0,0.1,0.3,0.1,0.3-0.1c0-0.1-0.2-0.2-0.3-0.3C37.3,37.2,37.3,37.3,37.4,37.4 M39.2,36.8
		c0,0.1,0,0.2,0,0.2c0.2,0,0.3-0.1,0.4-0.2C39.5,36.7,39.2,36.7,39.2,36.8 M43.3,33.5c0-0.1,0-0.2,0-0.3c-0.2-0.1-0.4,0.2-0.3,0.4
		C43.1,33.7,43.3,33.6,43.3,33.5 M25.8,34.6c0-0.1-0.1-0.3-0.2-0.3s-0.3,0.1-0.2,0.2C25.5,34.7,25.6,34.7,25.8,34.6 M37.2,37.8
		c0-0.1-0.1-0.2-0.2-0.2c-0.1,0.1-0.2,0.2-0.2,0.3C36.9,38,37.2,38,37.2,37.8 M41.3,35.5c0.1,0,0.2-0.2,0.1-0.2
		c-0.2-0.1-0.5,0.2-0.4,0.4C41.1,35.6,41.2,35.6,41.3,35.5 M13.5,61c0.1,0,0.1-0.2,0-0.2s-0.3,0-0.4,0C13.2,61,13.4,61.1,13.5,61
		 M48.1,19.8c0,0.2,0.3,0.2,0.4,0c0-0.1-0.1-0.2-0.2-0.2C48.1,19.6,48,19.8,48.1,19.8 M10.7,23.9c-0.1-0.1-0.4,0-0.4,0.2
		c0.1,0,0.1,0.1,0.2,0.1C10.7,24.2,10.8,24.1,10.7,23.9 M73.5,53.6c-0.1-0.1-0.3,0-0.3,0.1s0.2,0.2,0.3,0.1
		C73.5,53.8,73.5,53.7,73.5,53.6 M73.9,54.4c-0.2,0-0.3,0.2-0.1,0.3c0.1,0.1,0.2,0,0.2-0.1C74,54.6,74,54.5,73.9,54.4 M39.5,38.6
		c-0.1,0-0.2,0-0.3,0c0,0.1-0.1,0.1,0,0.2C39.3,39,39.6,38.8,39.5,38.6 M20.2,66.2c0-0.1-0.1-0.2-0.2-0.2s-0.2,0.1-0.2,0.2
		C20,66.2,20.1,66.2,20.2,66.2 M43.8,34.2c0-0.1-0.1-0.2-0.1-0.3C43.5,34,43.6,34.3,43.8,34.2 M72.6,50.2c0-0.1,0-0.2,0-0.2
		c-0.1,0-0.2-0.1-0.2,0s-0.1,0.1,0,0.2C72.4,50.2,72.5,50.2,72.6,50.2 M17.1,50c0,0.1,0,0.3,0.1,0.3s0.1-0.1,0.1-0.2
		C17.3,50,17.1,50,17.1,50 M38.5,41.9c-0.1,0-0.1-0.1-0.2-0.1c-0.1,0.1-0.2,0.2-0.2,0.2C38.2,42.2,38.4,42.1,38.5,41.9 M78.1,53.1
		c0.2-0.1,0-0.4-0.2-0.3C77.8,52.9,78,53.1,78.1,53.1 M57.7,72.2c0,0.1,0,0.3,0.1,0.3c0-0.1,0.1-0.2,0.1-0.3
		C57.8,72.1,57.7,72.1,57.7,72.2 M45.1,33.4c-0.1,0-0.2,0.2-0.1,0.3c0.1,0,0.2,0,0.2-0.1C45.2,33.5,45.1,33.3,45.1,33.4 M19.6,69.8
		c-0.1,0-0.2,0.1-0.1,0.2s0.2,0.1,0.3,0C19.7,69.9,19.6,69.8,19.6,69.8 M42.3,36.4c0-0.1,0.1-0.2,0.1-0.3c-0.1,0-0.3,0-0.3,0.1
		C42.1,36.4,42.2,36.4,42.3,36.4 M75.4,54.9c0-0.1,0-0.2-0.1-0.2s-0.1,0.1-0.2,0.1C75.2,54.9,75.3,54.9,75.4,54.9 M76.3,70.8
		c0-0.1-0.2-0.1-0.2,0s0.1,0.2,0.1,0.2C76.3,71,76.4,70.8,76.3,70.8 M45.2,53.5c-0.1-0.1-0.1-0.1-0.2-0.2c-0.1,0-0.1,0.1-0.2,0.2
		C45,53.6,45.1,53.6,45.2,53.5 M39.8,56.2c0,0.1,0.3,0.1,0.3,0C40,56.1,39.8,56.1,39.8,56.2 M79.6,47.8c-0.1,0-0.1,0.2-0.1,0.3
		C79.7,48.2,79.7,47.9,79.6,47.8 M37.9,36.8c-0.1,0.1,0.2,0.3,0.2,0.1C38.2,36.8,38,36.8,37.9,36.8 M80.5,70.4c0-0.1-0.3-0.1-0.2,0
		C80.4,70.5,80.5,70.4,80.5,70.4 M39,48.7c0.1,0,0-0.2,0-0.2s-0.1,0.1-0.2,0.1C38.9,48.7,38.9,48.7,39,48.7 M24.6,45.2
		c-0.1,0-0.1,0.2,0,0.2C24.8,45.4,24.7,45.2,24.6,45.2 M20.7,66.5c0,0.1,0.2,0.2,0.3,0.1C21,66.5,20.8,66.5,20.7,66.5L20.7,66.5z"/>
</g>
</svg>
