<?xml version="1.0" encoding="utf-8"?>
<!-- Generator: Adobe Illustrator 20.1.0, SVG Export Plug-In . SVG Version: 6.00 Build 0)  -->
<svg version="1.1" id="Layer_1" xmlns="http://www.w3.org/2000/svg" xmlns:xlink="http://www.w3.org/1999/xlink" x="0px" y="0px"
	 viewBox="0 0 100 100" style="enable-background:new 0 0 100 100;" xml:space="preserve">
<style type="text/css">
	.st0{fill:none;stroke:#000000;stroke-miterlimit:10;}
</style>
<g id="Shape_12">
	<path class="st0" d="M33.4,23.4c-2.4,0-4.8-0.1-7.2-0.1c0-2.1-0.1-4.2-0.1-6.2c2.4-0.1,4.8-0.2,7.2-0.3c0.1-2.3,0.1-4.6,0.2-6.8
		c2.1,0,4.2,0,6.3,0c0,2,0.1,3.9,0.1,5.9c0,0.3,0,0.7,0.3,0.9C40.4,17,40.7,17,41,17c3.5,0,7.1,0,10.6-0.1c0.3,2.1,0.3,4.3,0,6.5
		c-3.9,0-7.8,0-11.8,0.1c0,3.6,0,7.1,0,10.7c3.4-2.7,7.3-4.9,11.6-5.7c4.3-0.8,8.9-0.2,12.5,2.3c4.4,3,6.8,8.3,7.5,13.6
		c1.3,9-1.6,18.4-7.3,25.5c-2.7,3.4-6.2,6.6-7.2,10.8c-0.4,1.7-0.1,3.8,1.4,4.6c1,0.6,2.3,0.3,3.3-0.3c1-0.6,1.7-1.5,2.4-2.4
		c1.6,1.3,3,2.8,4.2,4.5c-1.6,3.2-5.2,5.3-8.8,5.2c-3.6-0.1-7-2.5-8.4-5.8c-1.9-4.4-0.2-9.5,2.4-13.5c2.6-4,6.1-7.3,8.4-11.4
		c3-5.3,4.1-11.7,2.8-17.6c-0.7-3.3-2.3-6.7-5.2-8.3c-2.3-1.2-5.1-1.2-7.6-0.6c-3.9,0.9-7.4,3.2-9.9,6.3c-0.8,1-1.5,2.2-1.9,3.4
		c-0.4,1.3-0.4,2.6-0.4,3.9c0,7.7,0,15.5,0,23.2c-2.2,0.1-4.3,0.1-6.5,0C33.4,55.7,33.4,39.6,33.4,23.4z"/>
</g>
</svg>
