<?xml version="1.0" encoding="utf-8"?>
<!-- Generator: Adobe Illustrator 20.1.0, SVG Export Plug-In . SVG Version: 6.00 Build 0)  -->
<svg version="1.1" id="Layer_1" xmlns="http://www.w3.org/2000/svg" xmlns:xlink="http://www.w3.org/1999/xlink" x="0px" y="0px"
	 viewBox="0 0 100 100" style="enable-background:new 0 0 100 100;" xml:space="preserve">
<style type="text/css">
	.st0{fill:#777777;}
</style>
<g id="Shape_27">
	<path class="st0" d="M80,31.5c0.9,0.6,1.7,1.2,2.6,1.8c0.8,0.6,1.6,1.2,2.4,1.9c0.4,0.3,0.7,0.6,1,1c0.3,0.3,0.5,0.6,0.8,0.9
		c0.9,1,1.9,2,2.6,3.1c0.4,0.5,0.7,1.1,1,1.7c0.2,0.3,0.5,0.7,0.6,1c0.4,0.9,0.7,1.7,1.1,2.6c0.2,0.6,0.4,1.3,0.6,2
		c0.1,0.5,0.2,0.9,0.3,1.4c0.2,1.2,0.2,2.5,0.2,3.7c0,0.6,0,1.1-0.1,1.7c-0.1,0.5-0.2,1-0.3,1.5c-0.1,0.6-0.3,1.2-0.5,1.8
		c-0.2,0.6-0.4,1.1-0.6,1.7c-0.2,0.5-0.4,1-0.7,1.5c-0.1,0.3-0.2,0.6-0.4,0.9c0,0.1,0,0.2-0.1,0.3c-0.1,0.4-0.3,0.7-0.5,1
		c-0.1,0.2-0.2,0.4-0.3,0.5c-0.4,0.8-0.9,1.6-1.4,2.3c-0.1,0.2-0.2,0.5-0.3,0.7c-0.4,0.7-0.7,1.4-1.1,2.1c-0.2,0.3-0.3,0.6-0.5,1
		c-0.2,0.4-0.4,0.8-0.6,1.1c-0.5,0.7-0.9,1.4-1.4,2.2c-0.3,0.4-0.5,0.8-0.8,1.2c-0.4,0.5-0.7,1.1-1.1,1.6c-0.4,0.6-0.9,1.1-1.4,1.7
		c-0.4,0.4-0.7,0.8-1.1,1.2c-0.3,0.3-0.6,0.6-0.9,0.8c-0.5,0.5-1.1,0.9-1.7,1.4c-0.3,0.2-0.5,0.4-0.8,0.6c-0.4,0.3-0.7,0.5-1.1,0.8
		c-0.4,0.3-0.8,0.5-1.2,0.7c-0.6,0.3-1.3,0.6-2,0.9c-0.2,0.1-0.5,0.3-0.7,0.4c-0.1,0.1-0.3,0.2-0.4,0.2c-0.3,0.2-0.7,0.3-1,0.6
		c-0.3,0.2-0.7,0.2-1.1,0.4c-0.4,0.2-0.8,0.4-1.3,0.6c-0.4,0.2-0.9,0.4-1.3,0.5c-0.9,0.3-1.7,0.5-2.6,0.7c-0.3,0.1-0.6,0.2-0.9,0.3
		c-0.6,0.2-1.3,0.3-1.9,0.4c-0.9,0.1-1.8,0.2-2.6,0.4c-0.5,0.1-1,0.2-1.5,0.3c-0.2,0-0.4,0.1-0.5,0.1c-0.5-0.1-1,0.2-1.5,0.2
		c-0.3,0-0.5,0-0.8,0c-0.4,0-0.7,0-1.1,0c-0.5,0-1,0-1.5,0c-0.3,0-0.7,0.1-1,0.1c-0.5,0-0.9,0-1.4-0.1c-0.6-0.1-1.3-0.2-1.9-0.2
		c-0.6,0-1.2-0.1-1.8-0.2c-0.3-0.1-0.7-0.1-1-0.2c-0.8-0.1-1.5-0.4-2.3-0.7c-0.9-0.3-1.7-0.6-2.6-0.8c-0.6-0.2-1.3-0.3-1.9-0.6
		c-0.7-0.3-1.4-0.6-2.1-0.9c-0.7-0.3-1.5-0.6-2.2-1c-0.7-0.4-1.4-1-2.1-1.5c-0.3-0.2-0.7-0.4-1-0.7c-0.4-0.3-0.8-0.6-1.1-0.9
		c-0.5-0.4-1-0.8-1.4-1.1c-0.3-0.2-0.5-0.5-0.8-0.7c-0.2-0.2-0.5-0.4-0.7-0.6c-0.2-0.2-0.3-0.4-0.5-0.6c-0.4-0.4-0.8-0.7-1.1-1.1
		c-0.5-0.6-1.1-1.2-1.6-1.8c-0.4-0.5-0.7-1-1-1.5c-0.2-0.3-0.5-0.7-0.7-1c-0.2-0.3-0.4-0.7-0.6-1c-0.3-0.5-0.6-1.1-0.8-1.7
		c-0.1-0.2-0.3-0.4-0.4-0.7c-0.3-0.5-0.6-1-0.9-1.5c-0.2-0.3-0.4-0.6-0.6-0.9c-0.2-0.3-0.3-0.7-0.5-1c-0.1-0.2-0.3-0.4-0.4-0.7
		c-0.1-0.8-0.6-1.3-0.9-2c-0.2-0.4-0.3-0.9-0.5-1.3c-0.1-0.4-0.3-0.7-0.5-1.1c-0.2-0.3-0.3-0.7-0.5-1c-0.4-1-0.8-1.9-1.1-2.9
		c-0.3-0.8-0.5-1.6-0.7-2.5c-0.1-0.4-0.1-0.8-0.1-1.2c0-0.6-0.1-1.2-0.1-1.8c0-0.6-0.1-1.1,0-1.7c0-0.5,0.1-1.1,0.2-1.6
		c0.1-0.5,0.1-1,0.2-1.5c0.1-0.5,0.4-1.1,0.5-1.6c0.1-0.7,0.4-1.3,0.7-1.9c0.4-0.9,0.8-1.7,1.4-2.5c0.6-0.8,1-1.6,1.6-2.3
		c0.5-0.7,1.2-1.3,1.8-1.9c0.4-0.5,0.9-0.9,1.3-1.3c0.2-0.2,0.4-0.4,0.6-0.5c0.3-0.3,0.3-0.5,0-0.8c-0.4-0.4-0.8-0.9-1.2-1.3
		c-0.3-0.3-0.6-0.6-1-1c-0.4-0.4-0.8-0.9-1.2-1.3c-0.2-0.2-0.5-0.5-0.7-0.7c-0.3-0.3-0.7-0.6-1-0.9c-0.6-0.5-1.2-0.9-1.8-1.2
		c-1-0.4-2-0.8-2.9-1.3c-0.4-0.2-0.8-0.4-1.2-0.6c-0.4-0.2-0.8-0.4-1.1-0.6c-0.7-0.5-1.3-1.1-1.6-1.8c-0.3-0.6-0.5-1.3-0.2-2
		c0.2-0.4,0.4-0.7,0.6-1c0.4-0.5,0.8-0.9,1.2-1.3c0.5-0.6,1.1-1.3,1.6-1.9c0.4-0.4,0.7-0.9,1.1-1.3c0.5-0.5,0.9-1,1.4-1.5
		c0.4-0.4,0.9-0.9,1.3-1.2c0.9-0.7,1.9-1.2,3-1.7c0.9-0.4,1.8-0.2,2.7-0.2c0.2,0,0.5,0.2,0.7,0.4c0.4,0.4,0.8,0.8,1.1,1.2
		c0.3,0.4,0.6,1,0.8,1.5c0.4,0.8,0.7,1.7,1.2,2.5c0.4,0.8,0.8,1.6,1.2,2.3c0.3,0.4,0.7,0.8,1.1,1.1c0.4,0.4,0.7,0.7,1.1,1.1
		c0.8,0.8,1.7,1.5,2.6,2.3c0.5,0.5,1.1,1,1.7,1.4c1,0.8,2,1.6,2.9,2.5c0.2,0.2,0.4,0.1,0.6,0c1.3-0.4,2.5-0.8,3.8-1.1
		c0.9-0.2,1.8-0.4,2.6-0.5c0.8-0.2,1.7-0.3,2.5-0.5c0.3-0.1,0.7,0,1-0.1c0.8-0.1,1.7-0.2,2.5-0.2c0.4,0,0.8,0,1.2,0
		c1.6,0,3.3,0,4.9-0.1c1.1,0,2.2,0,3.3,0.1c0.6,0,1.3,0,1.9,0.1c0.9,0.2,1.8,0.1,2.7,0.4c0.5,0.2,1.1,0.2,1.7,0.3
		c0.6,0.1,1.3,0.3,1.9,0.4c0.2,0.1,0.5,0.1,0.7,0.2c0.6,0.2,1.2,0.3,1.8,0.5c0.8,0.2,1.7,0.5,2.5,0.8c1.2,0.4,2.3,0.8,3.5,1.2
		c0.6,0.2,1.2,0.4,1.7,0.7c1.4,0.7,2.8,1.5,4.2,2.2C79.7,31.4,79.8,31.5,80,31.5 M38.3,45.6c-0.1-0.1-0.2-0.2-0.3-0.3
		c0,0-0.1,0-0.1,0C38,45.5,38.1,45.5,38.3,45.6C38.2,45.6,38.2,45.6,38.3,45.6c0,0.3,0.2,0.4,0.4,0.4c0,0,0.1,0.1,0.1,0.1
		c0.1,0,0.1,0.1,0.2,0.1c0-0.1,0-0.2,0-0.2C38.7,45.9,38.5,45.8,38.3,45.6 M22.1,24.4c0,0.1,0.1,0.2,0.1,0.3
		c0.3,0.2,0.5,0.6,0.8,0.8c0.1,0.1,0.2,0.1,0.2,0.1c0.1-0.1,0.2-0.2,0.1-0.2c0-0.1-0.1-0.3-0.2-0.4c-0.4-0.5-0.8-0.9-1.1-1.4
		c-0.3-0.4-0.5-0.8-0.4-1.3c0,0-0.1-0.1-0.1-0.1c-0.1,0.1-0.3,0.3-0.4,0.4c0,0,0,0.1,0,0.1c0,0,0.1,0,0.1,0c0,0,0.1,0,0.1-0.1
		c0,0,0,0.1,0,0.1c0,0.2,0,0.4,0,0.6c0,0.1,0.1,0.2,0.1,0.2c0.2,0.1,0.2,0.2,0.2,0.4C21.7,24.1,21.8,24.3,22.1,24.4 M35.6,63.9
		c-0.3-0.1-0.3-0.1-0.5-0.6c0,0,0-0.1,0-0.1c0.1-0.4-0.2-0.4-0.4-0.5c-0.2-0.1-0.2-0.1-0.3-0.3c0-0.1,0-0.4-0.3-0.3
		c-0.2,0-0.2-0.1-0.2-0.2c0-0.1,0-0.2-0.1-0.1c0,0-0.1,0-0.1,0c0-0.1,0-0.2,0-0.3c0,0,0.1,0,0.2,0c-0.1,0-0.2,0-0.2,0
		c-0.1-0.1-0.2-0.1-0.2-0.2c-0.1-0.2-0.2-0.5-0.3-0.7c0,0-0.1-0.1-0.1-0.1c0,0,0,0.1,0,0.1c0.1,0.2,0,0.4-0.1,0.6c0,0-0.1,0-0.1,0
		c0-0.2-0.1-0.3-0.1-0.5c0-0.2,0.1-0.4-0.1-0.4c0,0,0-0.1,0-0.1c0-0.1,0-0.1-0.1-0.2c-0.1-0.1-0.1-0.2-0.2-0.3
		c-0.1-0.2-0.1-0.5-0.5-0.6c-0.1,0-0.3-0.2-0.3-0.3c0.1-0.4-0.1-0.5-0.3-0.7c-0.1-0.2-0.4-0.3-0.4-0.5c-0.1-0.2-0.1-0.4-0.3-0.4
		c-0.1,0-0.1-0.1-0.1-0.2c0-0.2,0-0.4,0-0.6c0-0.2-0.1-0.3-0.3-0.3c-0.1,0-0.3,0-0.4-0.1c-0.1-0.1-0.1-0.3-0.1-0.5
		c0-0.1,0-0.1-0.1-0.2c-0.2-0.1-0.4-0.1-0.6-0.1c-0.3,0-0.2-0.1-0.2-0.3c0-0.1,0-0.1,0.1-0.2c0-0.1,0-0.1,0-0.2
		c-0.1,0-0.1,0.1-0.2,0.1c0,0.1,0,0.1,0,0.2c0,0.2,0,0.4,0.1,0.5c0,0.1,0.1,0.2,0.1,0.3c0-0.1,0.1-0.1,0.1-0.2
		c0.1-0.2,0.1-0.1,0.2,0c0,0,0.1,0.1,0.1,0.1c0,0,0.1,0,0.1,0.1c0,0-0.1,0-0.1,0c-0.1,0-0.1,0-0.2,0c0,0.2-0.1,0.4,0,0.5
		c0.2,0.5,0,1.1,0,1.6c0,0,0,0.1,0,0.1c0,0,0-0.1-0.1-0.1c0,0-0.1-0.1-0.1-0.1c0,0,0,0.1,0,0.1c0,0.1,0,0.2,0,0.2
		c0,0-0.2,0.5,0.2,0.1c0,0,0,0,0,0c0,0.2,0.3,0.2,0.3,0.5c0,0.5,0,1,0.1,1.5c0,0.4,0.1,0.8,0.3,1.1c0.3,0.3,0.2,0.3-0.2,0.4
		c0,0-0.1,0-0.1,0.1c0,0,0.1,0.1,0.1,0.1c0.4,0.1,0.6,0.4,0.9,0.6c0.8,0.5,1.5,1.1,2.3,1.6c0.5,0.3,1.1,0.6,1.7,0.8
		c0.5,0.2,1,0.5,1.5,0.7c0.4,0.2,0.9,0.4,1.4,0.4c0,0,0.1,0,0.1,0c0.2,0.2,0.5,0.1,0.7,0.2c0,0,0.1,0,0.1,0c0,0,0-0.1-0.1-0.1
		c-0.1-0.1-0.3-0.2-0.4-0.3c-0.1-0.1-0.3-0.1-0.4-0.1c0,0-0.1,0.1-0.1,0.1c0-0.1,0-0.1-0.1-0.2c-0.1-0.1-0.1-0.2-0.2-0.2
		c-0.1,0.1-0.2,0-0.2-0.1c0-0.2-0.1-0.3-0.3-0.4c-0.1,0-0.3-0.1-0.4-0.2C35.8,64.2,35.7,64,35.6,63.9c0.1,0,0.1-0.1,0.2-0.1
		c0,0-0.1,0-0.1,0C35.7,63.8,35.6,63.9,35.6,63.9 M17.6,15.8c-0.2,0-0.2,0.1-0.2,0.2c0,0.1-0.1,0.2-0.2,0.3
		c-0.1,0.1-0.3,0.1-0.4,0.1c-0.3,0-0.7,0.1-1,0.1c0,0-0.1,0-0.1,0c0,0,0,0.1,0.1,0.1c0.2,0,0.3-0.1,0.5,0c0.7,0,1.5-0.2,2.1,0.5
		c0,0,0.1,0,0.2,0c0,0-0.1-0.1,0-0.1c0-0.1,0-0.2,0-0.2c0.1-0.1,0.3-0.1,0.4-0.1c0.1,0,0.3,0,0.4,0c-0.1-0.1-0.2-0.1-0.2-0.2
		c0,0,0-0.1-0.1-0.1c-0.2-0.1-0.4-0.2-0.5-0.3c0,0-0.1,0.1-0.2,0.2c-0.1,0.1-0.1,0.1-0.2,0c0-0.1-0.1-0.2-0.1-0.3
		c0-0.1,0.1-0.2,0.1-0.2c0,0,0.1,0,0.2,0.1c0,0,0.1,0.1,0.1,0.1c0.2,0.1,0.3,0.2,0.5,0.3c0,0,0.1,0.1,0.1,0.1c0.2,0,0.4,0,0.5,0.1
		c0.1,0.1,0.4,0.2,0.3,0.5c0,0.1,0.1,0.1,0.1,0.2c0,0,0-0.1,0-0.1c0,0,0.1,0,0.1,0c0,0.1,0.1,0.2,0.1,0.3c-0.1,0.2,0,0.4,0.2,0.5
		c0.2,0.1,0.2,0.1,0.2,0.4c0,0,0,0.1,0,0.1c0.1,0.2,0.2,0.4,0.3,0.6c0.1,0.2,0.2,0.3,0.4,0.2c0,0,0.1,0,0.1-0.1c0,0-0.1-0.1-0.1-0.1
		c-0.1-0.1-0.2-0.1-0.3-0.1c-0.1-0.2-0.2-0.3-0.2-0.5c0-0.1,0-0.3,0.2-0.2c0.2,0.1,0.5,0.4,0.5,0.5c0,0.4,0.3,0.7,0.3,1
		c0,0.1,0.1,0.1,0.1,0.2c0.1,0.1,0.2,0.2,0.1,0.3c0,0.2,0,0.3,0,0.5c0,0.3,0.2,0.7-0.2,1c-0.1,0-0.1,0.1-0.2,0.1
		c0-0.1-0.1-0.2-0.1-0.2c0.2-0.3,0.3-0.6,0.2-1c0,0,0-0.1,0-0.1c0,0-0.1,0-0.1,0.1c-0.1,0.2-0.1,0-0.1,0c0-0.1-0.1-0.1-0.1-0.1
		c0,0.1-0.1,0.2-0.1,0.3c0,0,0.1,0,0.1,0.1c0.1,0.1,0.2,0.2,0.3,0.3c0,0-0.1,0.2-0.2,0.2c-0.2,0.1-0.4,0.6-0.2,0.8
		c0,0,0.1,0.1,0.2,0.1c0.2,0,0.4,0,0.6,0c0.1,0,0.2,0,0.1,0.2c0,0,0,0.1,0,0.1c0.3,0.5,0.5,1.2,0.9,1.6c0,0,0,0.1,0.1,0.2
		c-0.1,0-0.2-0.1-0.2-0.1c-0.3-0.5-0.6-1-1-1.5c0-0.1-0.1-0.1-0.2-0.2c0,0.1-0.1,0.2-0.1,0.3c0.1,0.3,0.3,0.7,0.5,1
		c0.2,0.3,0.5,0.6,0.8,1c0.4,0.6,0.9,1.1,1.5,1.5c0.7,0.5,1.3,1.1,2,1.6c0.3,0.3,0.7,0.5,1.1,0.8c0.2,0.1,0.3,0.3,0.5,0.5
		c0,0,0,0.1,0,0.1c0,0-0.1,0-0.1,0c0,0-0.1-0.1-0.1-0.1c-0.4-0.3-0.8-0.6-1.2-1c-0.4-0.3-0.8-0.6-1.2-1c-0.4-0.3-0.8-0.6-1.2-0.8
		c-0.2-0.2-0.5-0.2-0.7-0.5c0-0.1-0.2-0.4-0.3,0c0,0.1-0.1,0.1-0.1,0.2c0.1,0.1,0.2,0.3,0.3,0.3c0.3,0,0.6,0.2,0.9,0.4
		c0,0,0.1,0.1,0.1,0.1c0,0-0.1,0.1-0.1,0.1c-0.1-0.1-0.3-0.1-0.4-0.2c0,0-0.1,0-0.2-0.1c0,0.1,0,0.2,0,0.2c0.2,0.1,0.4,0.2,0.5,0.4
		c0.2,0.2,0.5,0.2,0.7,0.5c0.1,0.2,0.3,0.4,0.5,0.5c0.2,0.2,0.4,0.2,0.4,0.5c0,0,0.1,0.3,0.2,0.1c0,0,0,0,0.1,0
		c0.1,0.1,0.2,0.2,0.2,0.2c0.2,0.2,0.3,0.4,0.5,0.6c0.2,0.2,0.5,0.2,0.7,0.4c0.1,0,0.2,0.1,0,0.2c-0.1,0-0.1,0.2-0.1,0.3
		c0.1,0,0.1,0,0.2,0c0,0,0,0,0.1,0.1c0.1,0.1,0.2,0.3,0.3,0.4c0.2,0,0.4,0.2,0.7,0c0,0,0.1,0,0.1,0c0,0,0,0.1-0.1,0.1
		c-0.1,0-0.2,0.1-0.1,0.2c0.1,0.2,0.5,0.6,0.7,0.7c0,0,0,0.1,0,0.1c0,0,0,0.1,0,0.1c0,0,0,0-0.1,0c0.1,0,0.2,0.1,0.3,0.1
		c0.2,0,0.3,0.1,0.3,0.2c0.1,0.2,0.1,0.5,0.4,0.4c0.1,0.2,0.4,0.2,0.4,0.5c0,0.1,0,0.2,0.1,0.3c0,0.1,0.1,0.1,0.1,0.2
		c0,0,0-0.1,0-0.1c0,0,0.1,0,0.1,0c0.1,0.1,0.2,0.2,0.3,0.3c0.2,0.2,0.3,0.5,0.2,0.7c0,0.1,0.1,0.2,0.2,0.2c0.1,0,0.2,0,0.2-0.2
		c0-0.1,0-0.1,0-0.2c0.1,0,0.2,0.1,0.2,0.1c0,0.1,0.1,0.2,0,0.3c-0.1,0.2-0.1,0.2,0.1,0.3c0,0,0.1,0,0.2-0.1c0,0,0.1,0,0.1,0
		c0,0.1,0,0.2,0,0.3c0,0.1,0.2,0.1,0.3,0.2c0,0,0,0,0,0c0,0.2,0.1,0.3,0.2,0.5c0,0.1,0,0.2,0,0.2c-0.1,0-0.1,0-0.2,0
		c-0.2-0.1-0.3-0.2-0.5-0.3c-0.2-0.1-0.1-0.1,0-0.2c0,0,0.1-0.1,0.1-0.1c-0.1,0-0.2-0.1-0.3-0.1c0,0.2-0.1,0.4,0,0.6
		c0,0,0.1,0.1,0.2,0.1c0.1,0.1,0.2,0.1,0.2,0.2c0,0.2-0.1,0.4-0.2,0.4c0,0-0.1,0-0.1,0.1c0,0,0.1,0.1,0.1,0.1c0.3,0.1,0.5,0,0.5-0.3
		c0-0.1,0-0.1,0.1-0.2c0.2-0.1,0.5,0.1,0.5,0.4c0.1,0.5,0.3,0.6,0.8,0.5c0.1,0,0.3,0,0.4,0.1c0.1,0.1,0.2,0.3-0.1,0.4
		c0,0-0.1,0.2,0,0.2c0.1,0.1,0.1,0.1,0.2,0.1c0.2,0,0.2,0,0.1,0.2c0,0,0.1,0.1,0.1,0.1c0.1,0.1,0.3,0.2,0.4,0.3
		c0.1,0.1,0.1,0.1,0.2,0c0,0,0-0.1,0.1-0.1c0,0,0.1,0.1,0.1,0.1c0.1,0.1,0.1,0.3,0.2,0.3c0.3,0.1,0.3,0.4,0.3,0.6
		c0,0.2,0.1,0.2,0.2,0.2c0.2,0.1,0.5-0.1,0.6,0.3c0,0,0.1,0.1,0.1,0.1c0.4-0.1,0.3,0.2,0.3,0.4c0,0.2-0.1,0.2-0.2,0.2
		c-0.2-0.1-0.2,0-0.2,0.2c0,0.2,0,0.4,0,0.5c0,0.1,0,0.1,0,0.1c0.1,0,0.2,0,0.3,0c0,0,0,0,0-0.1c0-0.1-0.1-0.1-0.1-0.2
		c0.1,0,0.2,0,0.2,0c0.1,0,0.1,0,0.2,0c0-0.1,0-0.1,0-0.2c0-0.2,0-0.4-0.1-0.6c0.1,0,0.2,0,0.4,0c0,0,0,0,0,0c0.2,0,0.5,0,0.7,0.1
		c0,0,0.1,0.1,0.1,0.2c0,0,0,0.1-0.1,0.1c0-0.1-0.1-0.1-0.1-0.2c0,0-0.1,0-0.1-0.1c0,0.1-0.1,0.3-0.1,0.4c0.1,0.3,0.2,0.5,0.3,0.8
		c0,0,0.1,0,0.1,0c0.2,0,0.5-0.1,0.7,0.1c0.1,0.1,0.3,0,0.5,0c0,0,0.1,0.1,0.1,0.1c0,0-0.1,0-0.1,0c-0.1,0-0.3,0-0.4,0
		c0,0-0.1,0.1-0.1,0.1c0,0.2,0,0.5,0,0.7c0,0.3,0,0.3,0.3,0.4c0.1,0,0.1,0,0.2,0c0.2,0,0.3,0,0.3,0.2c0,0.2,0,0.5,0,0.7
		c0,0.3,0.1,0.3,0.4,0.3c0.1,0,0.3,0,0.4,0.1c0,0,0,0.1,0,0.2c0,0.1,0,0.2,0.1,0.3c0,0,0.1,0.1,0.1,0.1c0.1,0,0.2,0,0.4,0
		c0,0,0.1,0,0.1-0.1c0,0,0,0-0.1-0.1C41.1,45.3,41,45.2,41,45c0-0.1-0.1-0.3-0.2-0.4c0,0-0.1-0.1-0.2-0.1c-0.5,0-0.6-0.1-0.5-0.4
		c0,0,0-0.1,0-0.1c0,0,0.1,0.1,0.1,0.1c0,0,0.1,0,0.1,0.1c0,0,0-0.1,0-0.1c0-0.1,0-0.1,0-0.2c0-0.1,0-0.1,0-0.2
		c0.1-0.1,0.2-0.1,0.2-0.1c0,0.1,0.1,0.1,0.1,0.2c0,0.1,0.1,0.2,0.1,0.2c0.3,0,0.3,0.3,0.4,0.5c0,0.1-0.1,0.2,0,0.3
		c0.2,0.2,0.4,0.3,0.6,0.5c0,0.1,0.2,0,0.4,0c0.1,0,0.2,0,0.2,0c0.1,0.2,0.1,0.3,0.1,0.5c0,0.2,0.1,0.4-0.2,0.4c0,0-0.1,0.1-0.1,0.1
		c0,0,0.1,0,0.1,0c0.2,0,0.4,0.1,0.6,0.1c0.2,0,0.2,0.1,0.3,0.2c0,0.2,0.1,0.4,0.1,0.6c0.1,0.4,0.1,0.3,0.5,0.3
		c0.1,0,0.2,0.1,0.3,0.1c-0.1,0.1,0,0.1,0.1,0.2c0.1,0,0.1,0.1,0.2,0.2c0,0,0.1,0.1,0.1,0.1c0,0,0.1-0.1,0.1-0.1
		c0.1-0.2,0.1-0.3,0.2-0.5c0,0.1,0,0.3,0.1,0.4c0,0,0,0,0,0c0.1,0.2-0.1,0.6-0.3,0.6c-0.3,0-0.7,0.1-1-0.1c0,0-0.2,0.1-0.2,0.1
		c0,0,0,0.1,0,0.1c0.2,0,0.3,0.1,0.5,0.1c0.3,0,0.6,0,0.8,0c0.2,0,0.2,0.2,0.3,0.3c-0.1,0.1-0.2,0.2-0.3,0.2c-0.4,0-0.9,0-1.3,0
		c0,0-0.1,0-0.1,0.1c0,0,0,0.1,0.1,0.1c0.2,0.1,0.3,0.2,0.5,0.3c0,0,0.1,0,0.2-0.1c0,0,0.1,0,0.1-0.1c0,0,0,0.1,0,0.1
		c-0.2,0.1,0,0.2,0,0.4c0,0.2,0.1,0.2,0.2,0.2c0.1,0,0.3,0,0.5,0c0.2,0,0.5,0,0.5,0.4c0,0,0,0,0,0c0.2-0.1,0.1,0.1,0.2,0.2
		c0.1,0.4,0.1,0.7,0.2,1.1c0,0,0.1,0.1,0.1,0.1c0,0,0-0.1,0-0.1c0-0.1,0-0.3,0-0.4c0,0,0,0,0.1-0.1c0,0,0,0.1,0.1,0.1
		c0.1,0.3,0.2,0.5,0.2,0.8c0,0.3,0.2,0.3,0.4,0.3c0.2,0,0.5,0.2,0.4,0.4c0,0.1,0.1,0.3-0.1,0.3c0,0.1,0,0.3,0.1,0.4
		c0,0,0.1,0.1,0.1,0.1c0-0.1,0.1-0.2,0.1-0.3c0.1-0.4,0.4-0.2,0.5-0.2c0.3,0-0.1,0.1,0,0.2c0,0,0,0,0,0.1c0,0.2,0,0.4,0,0.6
		c0,0.1,0,0.1,0,0.2c0.1,0,0.1-0.1,0.2-0.1c0.2,0,0.4,0,0.4,0.1c0.1,0.1,0,0.4,0.1,0.5c0,0.1,0.1,0.1,0.2,0.2c0-0.1,0.1-0.1,0.1-0.2
		c0-0.2,0.1-0.2,0.2-0.1c0,0,0.1,0,0.2,0c0.2-0.1,0.2,0,0.2,0.1c0,0.2,0,0.4,0,0.6c0,0.2,0.1,0.3,0.3,0.3c0.1,0,0.1,0,0.2,0
		c0.2,0.2,0.5,0.3,0.3,0.6c0,0.1,0,0.2,0.1,0.3c0,0,0.1,0.1,0.1,0.1c0,0,0-0.1,0-0.1c0-0.3,0-0.4,0.3-0.4c0,0,0.1-0.1,0.1,0
		c0.1,0,0.2,0,0.2,0.1c0,0.1,0.1,0.3-0.1,0.3c0,0-0.1,0.1-0.1,0.1c0,0,0,0.1,0,0.1c0.3-0.1,0.1,0.2,0.2,0.3c-0.1,0-0.1,0.1-0.2,0.1
		c0.1,0.1,0.1,0.1,0.2,0.2c0-0.1,0-0.1,0-0.2c0,0,0,0,0-0.1c0.1,0.1,0.2,0.2,0.3,0.2c0.2,0.1,0.3,0.2,0.2,0.5c0,0.1,0.1,0.3,0.2,0.5
		c0.1-0.1,0.2-0.1,0.2-0.2c0-0.1,0-0.2,0-0.3c0-0.1,0-0.3,0-0.3c0.2,0,0.5,0,0.7,0c0,0,0.1,0.1,0.1,0.2c0,0,0.1,0.1,0.2,0.1
		c0.1,0,0.2,0,0.4,0c0,0,0.1,0,0.1,0.1c0,0.1,0,0.1,0,0.2c0,0-0.1-0.1-0.1-0.1c-0.1,0-0.2-0.1-0.3-0.1c-0.2,0-0.5,0.1-0.7-0.2
		c0,0-0.1,0-0.2,0c-0.1,0-0.1,0.1-0.2,0.1c0.1,0,0.1,0.1,0.2,0.1c0.1,0,0.2,0,0.3,0.2c0,0.1,0.1,0.3,0.4,0.3c0.2-0.1,0.4-0.1,0.5,0
		c0.2,0.2,0.3,0.5,0.4,0.7c0,0.2,0.1,0.3,0.2,0.4c0.1,0.1,0.1,0.2,0.2,0.2c0.2,0,0.3,0,0.5,0c0.4,0,0.6,0.3,0.5,0.6
		c-0.1,0.2,0,0.3,0.3,0.3c0.1,0,0.2-0.1,0.3,0c0.1,0,0.2,0.1,0.1,0.2c-0.2,0.3,0,0.3,0.2,0.3c0.1,0,0.1,0,0.2,0.1
		c0.1,0.3,0.4,0.5,0.7,0.7c0.1,0.1,0.1,0.3,0.2,0.4c0,0.1-0.1,0.1-0.1,0.2c0.1,0,0.2,0.1,0.3,0.1c0.1,0,0.3-0.1,0.3,0
		c0.1,0.1,0.3-0.1,0.4,0.1c0.1,0.3,0.4,0.4,0.7,0.4c0.2,0,0.4,0.1,0.4,0.3c-0.1,0.3,0.1,0.3,0.2,0.2c0.3,0,0.5-0.1,0.8-0.1
		c0.1,0,0.3,0,0.1,0.2c0,0,0,0.1,0,0.1c0,0,0.1,0.1,0.1,0.1c0.3-0.2,0.2,0,0.2,0.1c0,0.2,0,0.4,0.1,0.5c0,0.2,0,0.4,0.2,0.4
		c0.3-0.1,0.3,0.1,0.3,0.3c0,0.1,0,0.1,0.1,0.2c0,0,0.1,0.1,0.1,0.1c0,0,0.1-0.1,0.1-0.1c0-0.3-0.1-0.4-0.4-0.5
		c-0.1,0-0.1-0.1-0.1-0.1c0.1,0,0.1-0.1,0.2-0.1c0.2,0,0.5-0.1,0.5,0.2c0,0.1,0.1,0.1,0.2,0.2c0,0,0.1,0.1,0.1,0.1
		c0.1,0.2,0.1,0.4,0.2,0.6c0,0,0,0,0,0.1c0,0,0,0,0-0.1c0-0.3,0.1-0.5,0.1-0.8c0,0,0.1-0.1,0.1-0.1c0,0,0.1,0.1,0.1,0.1
		c0.1,0.3,0.2,0.5,0.4,0.8c0,0,0.1,0,0.1,0c0.5,0,0.9,0,1.4,0c0.2,0,0.4,0,0.4,0.2c0.1,0.1,0.5,0.2,0.5,0.1c0-0.1,0-0.3,0-0.4
		c0,0-0.1,0-0.1,0c-0.2,0.3-0.3,0.1-0.5,0c-0.2-0.1-0.2-0.2-0.1-0.4c0-0.1,0.2-0.1,0.3-0.2c0.2,0,0.4,0,0.6-0.1c0.3,0,0.7-0.1,1-0.1
		c0.4,0,0.7,0,1.1,0c0,0,0.1,0,0.1,0c0-0.1,0-0.2-0.1-0.2c-0.1,0-0.2,0-0.2,0c0.1,0,0.2,0,0.2-0.1c0,0,0,0,0-0.1
		c-0.1-0.4,0.2-0.3,0.4-0.3c0.4,0,0.5-0.2,0.5-0.6c0,0,0-0.1,0-0.1c0.2,0.1,0.3-0.2,0.5-0.2c0.2,0,0.2-0.2,0.3-0.4
		c0,0,0-0.1,0.1-0.1c0.3-0.1,0.3-0.3,0.3-0.6c0,0,0.1-0.1,0.1-0.1c0.2,0.3,0.2,0,0.2-0.1c0-0.2,0.1-0.4,0.1-0.6
		c0-0.2,0.1-0.3,0.2-0.3c0.1,0,0.2-0.1,0.2-0.3c0-0.1,0-0.3,0-0.4c0,0.1,0.1,0.2,0.1,0.3c0,0,0,0,0,0c0,0,0.1,0.1,0.1,0.1
		c0,0,0.1-0.1,0.1-0.1c0.1-0.3,0-0.6,0.2-0.8c0,0,0-0.2,0-0.2c-0.1,0-0.1,0.1-0.2,0.1c0,0-0.1,0-0.1,0c0,0,0-0.1,0-0.1
		c0.2-0.1,0.1-0.2,0-0.3c-0.2-0.3-0.2-0.5,0-0.7c0,0,0.1-0.1,0.1-0.2c0-0.4,0-0.9-0.1-1.3c0-0.2-0.1-0.2-0.3-0.1c0,0-0.1,0-0.1,0
		c-0.1-0.2-0.3-0.4-0.3-0.5c0.1-0.3-0.1-0.4-0.2-0.6c-0.1-0.2-0.6-0.1-0.4-0.5c0,0,0,0,0,0c-0.1-0.2-0.3-0.3-0.4-0.5
		c0,0-0.1-0.1-0.1-0.1c-0.1-0.1-0.1-0.2-0.2-0.3c-0.3-0.3-0.6-0.5-0.9-0.8c-0.4-0.4-0.9-0.8-1.3-1.2c-0.3-0.3-0.7-0.6-1-0.9
		c-0.6-0.5-1.2-1-1.8-1.4c-0.4-0.3-0.9-0.7-1.3-1c-0.5-0.4-1.1-0.8-1.6-1.2c-0.3-0.3-0.8-0.4-1.1-0.8c0-0.1-0.2-0.1-0.3-0.2
		c-0.2-0.1-0.4-0.3-0.5-0.4c0,0-0.1,0-0.1-0.1c-0.4-0.3-0.8-0.6-1.2-0.9c-0.3-0.2-0.5-0.4-0.7-0.6c-0.4-0.3-0.8-0.6-1.2-0.9
		c-0.4-0.3-0.7-0.5-1.1-0.8c-0.6-0.5-1.1-1-1.7-1.4c-0.7-0.4-1.2-1-1.9-1.6c-0.4-0.4-0.9-0.7-1.3-1.1c-0.2-0.2-0.4-0.3-0.6-0.5
		c-0.4-0.3-0.7-0.6-1.1-0.9c-0.2-0.2-0.5-0.4-0.7-0.6c-0.3-0.3-0.7-0.5-1-0.8c-0.4-0.4-0.8-0.8-1.2-1.1c-0.5-0.3-0.8-0.8-1.3-1.1
		c-0.1-0.1-0.2-0.1-0.2-0.2c-0.4-0.4-0.8-0.7-1.2-1.1c-0.2-0.2-0.6-0.3-0.4-0.7c0-0.1,0-0.1,0-0.2c0,0.1,0,0.1,0.1,0.2
		c0.1,0.1,0.3,0.4,0.3,0.4c0.3-0.2,0.4,0.1,0.5,0.3c0,0.1,0.1,0.1,0.1,0.2c0-0.1,0.1-0.2,0.1-0.2c0-0.3,0.1-0.6,0.1-1
		c0,0,0-0.1,0.1-0.1c0,0,0,0.1,0,0.1c0,0.1,0.1,0.2,0.2,0.2c0.2,0,0.5,0,0.7,0.1c0,0,0.1-0.1,0.2-0.1c-0.1,0-0.1,0-0.2,0
		c0,0-0.1,0-0.1-0.1c0,0,0-0.1,0.1-0.1c0.3,0,0.5-0.2,0.8,0c0.1,0.1,0.5,0,0.5-0.1c0-0.3,0.1-0.4,0.4-0.3c0,0,0,0,0.1,0
		c0.2-0.1,0.4-0.2,0.6-0.2c0.3,0,0.2-0.1,0.2-0.2c-0.1-0.2,0-0.3,0.2-0.1c0,0,0.1,0,0.2,0c0.4,0,0.9,0,1.3,0c0.3,0,0.4-0.1,0.3-0.4
		c0,0,0-0.1,0-0.1c0.4,0,0.9,0,1.3,0c0.2,0,0.2,0,0.2-0.2c0-0.3,0-0.5-0.1-0.8c0,0-0.1-0.1-0.1-0.1c-0.3,0-0.6,0-1,0
		c-0.1,0-0.3,0-0.3,0c-0.1,0.1-0.3,0.1-0.4,0.1c-0.1,0-0.2,0-0.2,0.1c0,0-0.1,0-0.1,0c0-0.1,0-0.2,0-0.2c0,0,0.1,0,0.1,0
		c0.2,0,0.4,0.1,0.6,0c0.1,0,0.2-0.1,0.3-0.1c0.7-0.2,1.3,0.1,2,0.1c0,0,0.1,0,0.1,0.1c0,0,0.1,0.1,0.1,0.1c0,0,0-0.1,0-0.1
		c0-0.2,0-0.4,0.3-0.3c0.2,0,0.5,0,0.6,0.1c0.2,0.2,0.4,0,0.6,0.1c0.2,0.2,0.5,0.1,0.7,0.1c0,0,0.1-0.1,0.2-0.1
		c-0.1,0-0.1,0-0.2-0.1c0,0-0.1,0-0.1-0.1c0,0,0.1,0,0.1,0c0.3,0,0.5,0,0.8-0.1c0.2,0,0.5-0.1,0.7-0.1c0.1,0,0.3,0.1,0.3,0.1
		c0.1,0.2,0.1,0.4,0.1,0.5c0.1,0.1,0.2,0.1,0.3,0.2c-0.1-0.1,0.4,0,0.1-0.2c0,0,0-0.1,0.1-0.1c0.1,0,0.2-0.1,0.4-0.1
		c0.3,0,0.6,0,0.9,0c0.5,0,1.1-0.1,1.6,0c0.6,0.1,1.3,0,2,0.1c0.2,0,0.4,0.1,0.5,0.2c0.1,0.3,0.3,0.2,0.5,0.3c0.2,0.1,0.6,0.1,0.8,0
		c0.2-0.1,0.5,0.1,0.7-0.1c0.1-0.1,0.4,0,0.6-0.1c0,0,0.1,0.1,0.1,0.1c0,0,0,0.1-0.1,0.1c-0.2,0-0.4,0-0.5,0c-0.1,0-0.1,0-0.2,0
		c0,0.1,0.1,0.2,0.1,0.2c0.1,0,0.2,0,0.3,0c0.1,0,0.3-0.1,0.4-0.1c0.4,0.2,0.9,0,1.3,0c0.2,0,0.2,0,0.2-0.2c0-0.1,0-0.1,0-0.2
		c0.1,0.1,0.3,0.1,0.4,0.2c0,0,0,0.1,0,0.2c0,0,0,0,0,0c-0.3-0.1-0.1,0.1-0.1,0.2c0.1,0,0.2,0.1,0.2,0.1c0.1,0,0.2-0.1,0.2-0.1
		c0.1,0,0.3-0.1,0.3,0.2c0,0.1,0.1,0.3,0.1,0.4c0-0.1,0.1-0.3,0.1-0.4c0-0.1,0.1-0.1,0.1-0.2c0.1,0,0.2,0.1,0.3,0.1
		c0.1,0.1,0.1,0.2,0.2,0.2c0.3,0.1,0.6,0.1,0.8,0.3c0.2,0.1,0.4,0,0.5,0.3c0,0,0.1,0,0.2,0c0-0.2,0.1-0.1,0.1-0.1c0,0,0.1,0,0.1-0.1
		c0-0.2-0.1-0.4-0.1-0.6c0,0,0-0.1,0-0.1c0.1-0.1,0.2-0.2,0.3-0.3c0.1,0,0.3,0,0.4,0c0.1,0,0.1,0.1,0.2,0c0.3,0,0.5,0,0.7,0.2
		c0,0,0.1,0,0.2,0c0,0-0.1-0.1-0.1-0.1c0,0,0-0.1,0-0.1c0.2,0,0.4,0.1,0.6,0.1c0.3,0.1,0.5,0.3,0.8,0.5c0.1,0.1,0.2,0.3,0.3,0.4
		c0,0.1,0,0.2-0.1,0.4c0,0.3,0,0.3,0.3,0.2c0.3-0.1,0.6-0.1,0.9-0.1c0,0,0.1,0.1,0.1,0.2c0,0.1,0.1,0.1,0.1,0.2
		c0.1,0.1,0.2,0.1,0.3,0.2c0,0,0,0.1,0,0.1c0,0-0.1,0.1-0.1,0.1c0.1,0,0.2,0.1,0.3,0.1c0,0,0.1-0.1,0.1-0.1c-0.1,0-0.1-0.1,0-0.2
		c0.1,0,0.2-0.1,0.3,0c0.1,0.1,0.3,0.3,0.2,0.4c-0.1,0.2,0.1,0.2,0.1,0.3c0.1-0.1,0.1-0.2,0.2-0.2c0,0,0.1-0.1,0.1-0.1
		c0.2,0,0.4,0.1,0.6,0.2c0.1,0.1,0.2,0.3,0.3,0.4c0.2,0.1,0.4,0.1,0.5,0.2c0.2,0.3,0.5,0.2,0.7,0.4c0.1,0.1,0.2,0.1,0.2,0.2
		c0,0.2,0.1,0.3,0.3,0.3c0.2,0,0.4,0.1,0.5,0.2c0.3,0.2,0.5,0.4,0.8,0.6c0,0,0.1,0,0.1,0.1c0.4,0,0.7,0.1,1,0.3
		c0.1,0.1,0.3,0.1,0.4,0.2c0.3,0.2,0.4,0.6,0.8,0.7c0.1,0,0.1,0.1,0.1,0.1c0.1,0.1,0.2,0.3,0.4,0.3c0.3,0,0.3,0.2,0.4,0.4
		c0.1,0.3,0.3,0.4,0.5,0.6c0.3,0.2,0.5,0.5,0.7,0.9c0,0.1,0,0.4,0.2,0.3c0.1,0,0.2-0.1,0.3,0.1c0,0.1,0.1,0.2,0.1,0.3
		c-0.1,0.4,0.2,0.7,0.3,1c0,0,0.1,0,0.1,0.1c0,0,0.1,0.1,0.1,0.1c0,0.1,0,0.3,0,0.4c0,0,0.1,0.1,0.1,0.1c0,0,0-0.1,0.1-0.1
		c0,0,0-0.1,0.1-0.1c0,0,0.1,0.1,0.1,0.1c0,0.1,0,0.2,0.1,0.2c0.3,0.2,0.2,0.5,0.3,0.7c0,0.2,0.1,0.4,0.2,0.4
		c0.3,0.1,0.2,0.3,0.3,0.4c0,0.2,0.1,0.2,0.3,0.2c0.2,0,0.3,0,0.3,0.2c0,0.1,0,0.3,0.1,0.4c0.2,0.2,0.2,0.4,0.2,0.7
		c0,0,0.1,0.1,0.1,0.1c0,0,0-0.1,0-0.1c0-0.1,0-0.2,0-0.2c0,0,0-0.1,0-0.1c0,0,0.1,0.1,0.1,0.1c0.1,0.2,0.2,0.5,0.2,0.7
		c0,0.5,0.3,1,0.1,1.5c0,0.2-0.1,0.4,0,0.6c0.1,0.3,0.1,0.6,0.1,0.9c0,0.2,0,0.5,0,0.7c0,0.1,0,0.1,0,0.2c0.2,0.1,0.2,0.1,0,0.3
		c0,0,0,0.1,0,0.1c0.2-0.1,0.1,0,0.1,0.1c0,0.1,0.1,0.2,0.1,0.4c0,0.1,0,0.3-0.1,0.4c0,0.1-0.1,0.2,0,0.2c0,0,0.1,0,0.1,0
		c0,0.3,0,0.6,0,0.8c0,0-0.1,0.1-0.1,0.1c0,0-0.1,0-0.1-0.1c0,0,0-0.1,0-0.1c0,0,0,0.1,0,0.1c0,0.2,0.1,0.4,0.1,0.6c0,0-0.1,0-0.1,0
		c0,0.5,0.1,1.1,0.1,1.6c0,0.1,0.1,0.2,0,0.2c-0.3,0.3,0,0.7,0,1c0,0.1,0.1,0.2,0.1,0.3c0-0.1,0.1-0.2,0.1-0.4c0-0.1,0-0.2,0.1-0.3
		c0,0.1,0.1,0.2,0.1,0.2c0,0,0,0.1,0,0.1c0,1.1-0.1,2.1-0.1,3.2c0,0.2-0.2,0.4-0.3,0.6c0,0-0.1,0-0.1,0c-0.2-0.1-0.2,0-0.2,0.1
		c-0.1,0.3-0.2,0.7-0.3,1c-0.1,0.2-0.2,0.3-0.3,0.5c-0.1,0.2-0.2,0.3-0.4,0.2c-0.2-0.1-0.6,0.1-0.7,0.3c-0.1,0.4-0.6,0.4-0.7,0.7
		c0,0,0,0-0.1,0c-0.2,0.1-0.5,0.2-0.7,0.3c-0.4,0.2-0.8,0.4-1.2,0.5c-0.4,0.1-0.8,0.2-1.2,0.3c-0.6,0.2-1.2,0.3-1.9,0.5
		c-1,0.3-2,0.5-3,0.8c-0.7,0.2-1.4,0.5-2.1,0.8c-0.6,0.2-1.2,0.5-1.8,0.7c-0.8,0.3-1.5,0.6-2.3,0.9c-0.8,0.3-1.5,0.6-2.3,0.8
		c-0.5,0.2-1.1,0.3-1.6,0.4c-0.7,0.2-1.3,0.4-2,0.6c-0.6,0.2-1.3,0.3-1.9,0.4c-0.9,0.2-1.9,0.3-2.8,0.4c-0.5,0.1-1,0.1-1.5,0.1
		c-0.8,0-1.6,0.1-2.5,0.1c-0.5,0-0.9-0.1-1.4,0c-1.2,0-2.3,0-3.5-0.2c-0.4-0.1-0.8-0.1-1.2-0.1c-0.5-0.1-1-0.2-1.5-0.2
		C47.4,68,46.9,68,46.5,68c-0.8-0.1-1.6-0.2-2.4-0.2c-0.3,0-0.6-0.1-0.8-0.1c-0.3-0.1-0.7-0.2-1-0.2c-0.9,0-1.6-0.3-2.5-0.5
		c-0.5-0.1-0.9-0.3-1.3-0.5c-0.6-0.2-1.2-0.4-1.8-0.6c-0.7-0.3-1.5-0.6-2.2-0.9c-0.2-0.1-0.4-0.2-0.7-0.3c-0.7-0.3-1.4-0.7-2.1-1
		c-0.6-0.3-1.1-0.7-1.6-1.1c-0.2-0.2-0.4-0.4-0.6-0.5c-0.5-0.3-1-0.7-1.4-1.2c-0.3-0.3-0.6-0.7-0.9-1c-0.1-0.1-0.2-0.2-0.3-0.3
		c-0.2-0.3-0.4-0.5-0.6-0.8c-0.4-0.5-0.9-1-1.1-1.6c-0.1-0.5-0.4-1-0.6-1.6c-0.2-0.5-0.5-1-0.6-1.6c-0.3-0.2-0.1-0.8-0.5-0.9
		c0,0,0-0.1,0-0.1c0-0.2-0.1-0.4-0.1-0.6c-0.1-0.2-0.2-0.4-0.3-0.6c-0.1-0.4-0.2-0.7-0.3-1.1c0-0.1-0.1-0.1-0.1-0.1
		c0,0.1,0,0.1-0.1,0.2c-0.1,0.7,0.2,1.3,0.3,1.9c0.1,0.5,0.3,1.1,0.5,1.6c0.1,0.3,0.2,0.6,0.3,0.9c0.1,0.3,0.2,0.6,0.4,0.8
		c0.4,0.4,0.6,1,0.9,1.5c0.1,0.3,0.3,0.5,0.4,0.8c0,0.1,0,0.1,0.1,0.2c-0.1,0-0.1,0-0.2-0.1c-0.3-0.4-0.5-0.8-0.8-1.2
		c-0.3-0.5-0.4-1.1-0.8-1.5c0,0,0,0,0,0c-0.1-0.3-0.3-0.6-0.4-1c-0.2-0.6-0.4-1.2-0.6-1.8c-0.1-0.2-0.1-0.5-0.2-0.8
		c0-0.1-0.1-0.2-0.1-0.3c-0.1-0.8-0.1-1.6-0.2-2.4c0-0.2,0-0.3-0.1-0.5c0,0,0-0.1-0.1-0.1c0,0,0,0.1-0.1,0.1c0,0-0.1,0.1-0.1,0.1
		c0-0.1,0-0.1,0-0.2c-0.1-0.2-0.1-0.6-0.3-0.7c-0.3-0.3-0.3-0.3,0-0.5c0,0,0.1-0.1,0-0.2c0-0.1-0.1-0.1-0.1-0.2c0,0,0,0.1-0.1,0.1
		c0,0,0,0.1,0,0.1c0,0-0.1-0.1-0.1-0.1c0-0.2,0-0.4-0.1-0.6c0-0.1-0.1-0.3-0.1-0.3c-0.2-0.1-0.2-0.2-0.2-0.4c0-0.1,0.1-0.2,0-0.3
		c0-0.4,0-0.5,0.4-0.6c0.2,0,0.3-0.1,0.2-0.3c0-0.2,0.1-0.4,0.1-0.6c0,0,0.1,0,0.2,0c0,0,0,0,0-0.1c0-0.1,0-0.2-0.1-0.3
		c0,0,0-0.1,0-0.2c0.2-0.1,0.4-0.2,0.6-0.4c0,0,0-0.1,0-0.2c-0.1-0.3,0.1-0.5,0.4-0.5c0.1,0,0.2,0,0.3,0c-0.1-0.1-0.1-0.1-0.2-0.2
		c-0.2-0.1-0.2-0.3,0-0.3c0.2-0.1,0.3-0.3,0.3-0.4c0-0.4,0.2-0.8,0-1.2c0-0.1,0.1-0.2,0.1-0.3c0,0.1,0.1,0.1,0.1,0.2
		c0,0.1,0,0.2,0,0.3c0,0.1,0,0.1,0.1,0.2c0,0,0.1,0,0.1,0c0,0,0-0.1,0-0.2c0-0.1-0.1-0.2-0.1-0.2c0-0.2-0.2-0.5-0.4-0.5
		c-0.3,0-0.4-0.1-0.5-0.4c0-0.1-0.1-0.2-0.1-0.2c-0.2-0.1-0.4-0.2-0.6-0.3c0,0-0.1,0-0.1,0c0,0,0,0.1,0,0.1c0,0,0,0.1,0.1,0.1
		c-0.1,0-0.2,0-0.2,0c0-0.4-0.3-0.3-0.5-0.3c-0.1,0-0.1,0-0.2-0.1c0.1,0,0.1-0.1,0.2-0.1c0,0,0.1,0.1,0.1,0c0.1,0,0.1,0,0.2-0.1
		c-0.1,0-0.1-0.1-0.2-0.1c-0.3,0-0.5,0-0.8,0c0,0,0,0-0.1,0c-0.1,0-0.1,0.1-0.2,0.1c0.1,0,0.1,0,0.2,0c0,0,0.1,0,0.1,0
		c0,0,0,0,0,0.1c-0.2,0.2-0.2,0.4-0.2,0.6c0,0,0,0.1,0,0.1c0,0-0.1-0.1-0.1-0.1c0,0-0.1-0.1-0.1-0.1c0,0.1,0,0.1,0,0.2
		c0,0.1,0,0.2-0.1,0.3c0,0.2-0.2,0.2-0.3,0.2c-0.1,0-0.3-0.1-0.4-0.1c-0.1,0-0.1,0-0.2,0.1c0.1,0.1,0.1,0.2,0.2,0.2
		c0.1,0.1,0.2,0.1,0.2,0.1c-0.1,0.1-0.1,0.2-0.2,0.2c-0.4,0.2-0.5,0.3-0.4,0.8c0,0.1-0.1,0.4-0.1,0.4c-0.4,0-0.3,0.2-0.3,0.4
		c-0.3,0.1-0.4,0.2-0.4,0.5c0,0.4,0,0.8,0,1.2c0,0.1-0.1,0.2-0.1,0.2c0,0-0.1,0-0.1,0c0-0.2-0.1-0.4-0.1-0.6c0-0.3,0.1-0.6,0.1-1
		c0,0-0.1-0.1-0.1-0.1c0,0-0.1,0-0.1,0.1c0,0.2,0,0.3,0,0.5c0,0.3,0,0.5-0.1,0.8c0,0-0.1,0.1-0.1,0.1c0-0.1-0.1-0.1-0.1-0.2
		c0,0,0-0.1,0.1-0.1c0,0,0-0.1,0-0.1c0,0-0.1,0-0.1,0c-0.1,0.1,0,0.5,0.1,0.5c0.3,0.2,0.4,0.4,0.4,0.8c0,0-0.1,0.1-0.1,0.1
		c0,0,0-0.1,0-0.1c0-0.1-0.1-0.2-0.2-0.2c-0.1-0.1-0.1,0-0.2,0.1c0,0.2-0.1,0.5-0.3,0.6c-0.1,0-0.2,0.1-0.3,0.1c0-0.1,0-0.1,0-0.2
		c0,0,0-0.1,0-0.1c0,0,0,0-0.1,0c-0.1,0.1-0.2,0.2-0.2,0.3c0,0.3,0,0.4-0.3,0.4c0,0-0.1,0.1-0.1,0.1c-0.1,0.1-0.1,0.1-0.2,0.2
		c0-0.1,0-0.2-0.1-0.3c0,0,0,0,0-0.1c0-0.1,0-0.1-0.1-0.2c0,0.1-0.1,0.1-0.1,0.2c0,0.1,0,0.2,0,0.3c0,0.1-0.1,0.2-0.1,0.3
		c-0.1,0.1-0.3,0.2-0.3,0.3c-0.2,0.5-0.4,0.9-0.3,1.4c0.1,0.3,0,0.5-0.2,0.7c0,0.1,0,0.2,0,0.2c0,0.2,0.1,0.4,0.1,0.6
		c0,0.4,0,0.9,0,1.3c0.1,0.4,0,0.7,0,1.1c0,0.1,0,0.1,0,0.2c0.2,0.4,0.4,0.8,0.4,1.2c0,0,0,0.1,0.1,0.1c0,0,0.1-0.1,0.1-0.1
		c0,0,0-0.1,0-0.1c0,0,0,0,0,0c0,0.1,0,0.3-0.1,0.4c-0.2,0-0.1,0.1,0,0.1c0.1,0.2,0.2,0.3,0.3,0.5c0.1,0.2,0,0.4,0,0.5
		c0,0.2,0.1,0.5,0.1,0.5c0.3,0,0.2,0.2,0.3,0.4c0,0.1,0.1,0.3,0.2,0.4c0.2,0.1,0.3,0.3,0.3,0.5c0,0.2,0.1,0.2,0.3,0.3
		c0.1,0.1,0.3,0.2,0.4,0.3c0.1,0.1,0.2,0.3,0.3,0.5c0.1,0.2,0.2,0.3,0.2,0.5c0.1,0.2,0.1,0.5,0.1,0.7c0.1,0.2,0.2,0.3,0.3,0.5
		c0.1,0.1,0.1,0.1,0.2,0.2c0.1,0.1,0.2,0.2,0.3,0.3c0,0,0.1,0.1,0.1,0.1c0.2,0.4,0.3,0.4,0.7,0.6c0.2,0.1,0.5,0.3,0.4,0.6
		c0,0.2,0.4,0.7,0.6,0.6c0.2-0.1,0.2,0,0.2,0.1c0.1,0.2,0.1,0.4,0.2,0.5c0.3,0.4,0.7,0.7,1.1,1.1c0.1,0.1,0.2,0.1,0.3,0.2
		c0.2,0,0.4,0.1,0.5,0.4c0,0.3,0.2,0.5,0.5,0.5c0.1,0,0.2,0.1,0.2,0.2c0.1,0,0.1,0.1,0.1,0.2c0.2,0.1,0.3,0.3,0.5,0.4
		c0.2,0.1,0.4,0.3,0.5,0.3c0.3,0,0.5,0.1,0.8,0.2c0.4,0.2,0.6,0.6,0.8,1c0.1,0.2,0.2,0.3,0.3,0.5c0.1,0,0.2,0,0.3,0
		c0.1-0.1,0.1-0.1,0.1,0c0.1,0.1,0.2,0.2,0.3,0.3c0.2,0.1,0.5,0.2,0.7,0.3c0.6,0.3,1.2,0.5,1.9,0.8c0.4,0.2,0.9,0.3,1.3,0.5
		c0.1,0,0.1,0.1,0.1,0.2c-0.2,0.3,0.1,0.2,0.2,0.2c0.4,0.1,0.8,0.3,1.3,0.4c0.1,0,0.2,0.1,0.2,0.1c0.2-0.1,0.3,0.1,0.4,0.1
		c0,0,0.1,0.1,0.1,0.1c0.4,0.1,0.7,0.2,1.1,0.4c0.4,0.2,0.8,0.2,1.1,0.6c0,0,0,0,0,0c0.2-0.2,0.5,0.1,0.7,0c0,0,0.1,0.1,0.1,0.1
		c-0.1,0-0.1,0.1-0.2,0.1c0,0-0.1,0-0.1,0c-0.1,0-0.1,0-0.2,0c0,0,0.1,0.1,0.1,0.1c0.1,0,0.1,0,0.2,0c0.4,0,0.7-0.2,1.1-0.1
		c0.2,0.1,0.4,0,0.5,0.3c0,0,0.1,0.1,0.1,0.1c0-0.2,0.3,0.1,0.3-0.2c0-0.1,0.1-0.1,0.1-0.2c0.3,0,0.4,0.1,0.4,0.4
		c0,0.1,0.1,0.2,0.1,0.2c0.3,0.1,0.7,0,0.9,0.3c0,0,0.1,0,0.1,0c0.2,0,0.3,0,0.5-0.1c0,0,0.1,0,0.1-0.1c0-0.2,0.1-0.2,0.3-0.2
		c0.3,0,0.6-0.1,0.7,0.3c0,0,0.1,0.1,0.1,0.1c0.3,0,0.6,0.2,0.9,0.1c0.1,0,0.2,0,0.3,0c0.2,0,0.4,0.1,0.5,0.1c0.2,0,0.5,0.2,0.4,0.4
		c0,0.2,0.1,0.2,0.2,0.2c0.2,0,0.4-0.1,0.6-0.1c0.5,0,1-0.1,1.5,0.2c0,0,0,0,0.1,0c0.1,0,0.3,0,0.4-0.1c0.2,0,0.2,0,0.2,0.2
		c0,0,0.1,0.1,0.1,0.1c0.1,0,0.1,0,0.2,0c0.1,0,0.2,0,0.3-0.1c-0.1,0-0.2,0-0.2,0c-0.1,0-0.1-0.1-0.2-0.1c0.1,0,0.1-0.1,0.2-0.1
		c0.3,0,0.7,0,1,0c0.1,0,0.1,0,0.2,0.1c0.1,0,0.2,0.1,0.3,0.1c0.4,0.1,0.8,0.1,1.1,0.2c0,0,0.1,0,0.1,0c0,0-0.1,0-0.1,0
		c0,0,0,0.1,0.1,0.1c0.1,0,0.2,0.1,0.3,0.1c0.2,0,0.3,0,0.5,0c0.1,0,0.2,0,0.3,0c0.3,0,0.6-0.1,1-0.1c0.4,0,0.8,0.1,1.3,0.2
		c0.3,0,0.6,0,0.8,0c0.4,0,0.9,0,1.3,0c0,0,0.1,0,0.1,0c0,0,0-0.1,0-0.1c0,0-0.1,0-0.1,0c-0.2,0-0.3,0-0.5,0c-0.1,0-0.1,0-0.2-0.1
		c0.1,0,0.1-0.1,0.2-0.1c0.3,0,0.5,0.1,0.8-0.1c0,0,0.2,0.1,0.2,0.1c0.1,0.1,0.1,0.2,0.1,0.3c0.1,0.1,0.1,0.2,0.2,0
		c0-0.1,0.2-0.1,0.3-0.1c0.3,0,0.5,0.1,0.8,0.1c0.3,0,0.6-0.1,0.9-0.1c0.9,0,1.8,0,2.8,0c0.2,0,0.3-0.1,0.5-0.2
		c-0.1-0.1-0.2-0.1-0.4-0.2c0,0-0.1-0.1-0.1-0.1c0,0,0.1-0.1,0.1-0.1c0.1,0,0.1,0,0.2,0c0.3,0.1,0.5,0.2,0.8,0.2
		c0.5,0,1-0.1,1.5-0.1c0.1,0,0.2,0,0.3,0c-0.1,0-0.2-0.1-0.4-0.1c0,0,0,0,0,0c0,0-0.1,0-0.1,0c0,0,0.1-0.1,0.1-0.1
		c0.4,0,0.7,0,1.1-0.1c0.2,0,0.4,0,0.5-0.1c0.1,0,0.2-0.2,0.2-0.2c-0.2-0.2,0-0.1,0.1-0.1c0.1,0,0.3,0,0.4,0c0.1,0,0.2,0,0.3,0
		c0.5-0.1,1-0.2,1.5-0.3c0.2,0,0.5,0,0.7-0.1c0.5-0.2,1-0.1,1.5-0.1c0.2,0,0.4,0,0.5-0.1c0.2-0.4,0.6-0.4,1-0.6
		c0.4-0.1,0.8,0,1.2-0.3c0.1-0.1,0.3,0,0.5-0.1c0.2-0.1,0.4,0.1,0.5-0.1c0-0.1,0.2,0,0.4,0c0.1,0,0.2-0.1,0.3-0.1
		c-0.1,0-0.1-0.1-0.2-0.1c0,0-0.1,0-0.1,0c0,0-0.1,0-0.1,0c0,0,0-0.1,0.1-0.1c0.2,0,0.4-0.1,0.5-0.1c0.3,0.2,0.7,0,1,0
		c0.2,0,0.5,0,0.6-0.2c0,0,0.1,0,0.1,0c0.3-0.1,0.6-0.1,0.9-0.2c0.3-0.1,0.6-0.2,0.7-0.5c0.1-0.3,0.3-0.4,0.6-0.5
		c0.3,0,0.6,0,0.7-0.4c0,0,0,0,0.1,0c0.3,0,0.5-0.1,0.7-0.3c0.3-0.2,0.7-0.3,1-0.5c0.1,0,0.2-0.1,0.2-0.1c0-0.2,0.1-0.1,0.2-0.2
		c0.4,0,0.7-0.1,1-0.4c0,0,0.1-0.1,0.1-0.1c0.2,0,0.4,0,0.4-0.3c0,0,0,0,0,0c0.4,0,0.6-0.5,1-0.5c0,0,0.1-0.1,0.1-0.1
		c0.1-0.1,0.2-0.2,0.3-0.3c0.1-0.1,0.2-0.1,0.2-0.2c0.3-0.4,0.7-0.6,1-0.9c0.3-0.2,0.5-0.4,0.7-0.6c0.1-0.1,0.3-0.3,0.4-0.4
		c0.3-0.3,0.7-0.4,0.9-0.8c0.1-0.2,0.2-0.3,0.4-0.5c0.2-0.2,0.5-0.3,0.4-0.6c0-0.1,0.1-0.1,0.2-0.2c0.1,0,0.1,0,0.2-0.1
		c0.2-0.2,0.4-0.5,0.6-0.7c0.2-0.2,0.3-0.4,0.4-0.6c0.1-0.1,0.1-0.3,0.2-0.5c0-0.1,0-0.2,0-0.3c0-0.1,0.1-0.1,0.1-0.2
		c0,0.1,0,0.1,0,0.2c0,0.1,0,0.2,0,0.3c0,0,0,0.1,0,0.1c0,0,0.1,0,0.1-0.1c0.3-0.4,0.5-0.8,0.6-1.3c0,0,0-0.1,0.1-0.1
		c0.2-0.2,0.4-0.4,0.6-0.6c0.1-0.1,0.1-0.2,0.2-0.3c0.1-0.4,0.2-0.7,0.3-1.1c0,0,0.1-0.1,0.1-0.1c0.2,0.1,0.2,0,0.2-0.1
		c0-0.2,0-0.3,0.1-0.5c0.1-0.3,0.3-0.6,0.4-0.9c0.1-0.5,0.2-0.9,0.3-1.4c0.1-0.7,0.1-1.4,0.2-2.1c0-0.4,0-0.7,0-1.1
		c0-0.9,0-1.8-0.2-2.6c-0.2-0.7-0.3-1.4-0.6-2.1c-0.2-0.6-0.4-1.2-0.7-1.8c-0.2-0.5-0.4-1-0.6-1.4c-0.4-0.7-0.8-1.4-1.3-2.1
		c-0.3-0.6-0.7-1.1-1.1-1.6c-0.6-0.7-1.2-1.4-1.9-2.1c-0.6-0.7-1.3-1.3-2-1.9c-0.4-0.4-0.8-0.7-1.3-1c-0.4-0.3-0.9-0.7-1.4-1
		c-0.7-0.5-1.3-0.9-2-1.4c-0.5-0.3-1.1-0.6-1.6-0.9c-0.9-0.4-1.7-0.9-2.6-1.3c-0.7-0.3-1.4-0.6-2.1-0.9c-1-0.4-2.1-0.7-3.2-1.1
		c-0.5-0.2-1-0.4-1.6-0.5c-0.5-0.1-0.9-0.3-1.4-0.4c-1-0.3-2-0.5-2.9-0.8c-0.7-0.2-1.4-0.2-2.2-0.4c-0.7-0.1-1.3-0.2-2-0.3
		c-0.7-0.1-1.3-0.2-2-0.2c-0.9-0.1-1.7-0.1-2.6-0.1c-0.8,0-1.6-0.1-2.5-0.1c-0.9,0-1.9,0-2.8,0.1c-1,0-2,0-3,0.1c-0.1,0-0.2,0-0.3,0
		c-0.6,0.1-1.2,0.2-1.7,0.2c-0.3,0-0.6,0-0.9,0.1c-0.3,0-0.5,0-0.8,0.1c-0.5,0.1-1,0.2-1.5,0.3c-0.6,0.1-1.1,0.2-1.7,0.3
		c-0.8,0.2-1.6,0.4-2.3,0.6c-0.6,0.1-1.1,0.3-1.7,0.5c-0.4,0.1-0.8,0.2-1.2,0.3c-0.1,0-0.3,0.1-0.2,0.3c0.4,0.4,0.8,0.8,1.2,1.2
		c0.2,0.2,0.5,0.5,0.7,0.7c0.3,0.2,0.5,0.5,0.8,0.7c0.1,0.1,0.3,0.3,0.4,0.4c0,0,0,0.1,0,0.2c-0.1,0-0.1,0-0.2,0
		c-0.2-0.2-0.5-0.4-0.7-0.6c-0.6-0.5-1.2-1.1-1.8-1.7c-0.1-0.1-0.3-0.1-0.4-0.2c-0.3-0.3-0.5-0.6-0.8-0.8c-0.3-0.2-0.6-0.4-0.9-0.7
		c-0.7-0.6-1.5-1.3-2.2-1.9c-0.1,0-0.1-0.1-0.2-0.2c-0.5-0.4-1-0.7-1.4-1.2c-0.4-0.4-0.8-0.7-1.2-1.1c-0.4-0.3-0.7-0.6-1.1-0.9
		c-0.7-0.6-1.3-1.2-1.9-1.9c-0.5-0.5-0.8-1-1.3-1.5c-0.1-0.1-0.1-0.2-0.2-0.2c-0.2-0.1-0.1-0.3-0.1-0.5c-0.2-0.4-0.3-0.9-0.6-1.3
		c-0.1-0.2-0.2-0.4-0.3-0.6c-0.3-0.5-0.5-1.1-0.8-1.7c-0.4-0.7-0.8-1.5-1.3-2.1c0-0.1-0.1-0.1-0.2-0.1c0,0.1,0,0.1,0,0.2
		c0,0,0,0.1,0,0.1c0,0-0.1-0.1-0.1-0.1c0,0-0.1-0.1-0.1-0.1c0-0.5-0.4-0.7-0.8-0.8c-0.6-0.1-1.3-0.1-2-0.1c-0.2,0-0.4,0.1-0.5,0.2
		c-0.5,0.2-0.9,0.5-1.3,0.6c-0.6,0.2-1.1,0.6-1.6,1c-0.3,0.2-0.6,0.5-0.8,0.8c-0.1,0.1-0.1,0.2-0.1,0.2c0,0.3,0,0.4-0.3,0.3
		c0,0-0.1,0.1-0.2,0.1c0,0,0.1,0.1,0.1,0.1c0.1,0.1,0.2,0.2,0.3,0.3c0,0,0,0.1,0,0.1c-0.3-0.1-0.2,0.1-0.2,0.2c0,0.2,0,0.4,0,0.5
		c0,0.1,0.2,0.6,0.3,0.7c0.1,0.2,0,0.4,0,0.6c0,0,0,0.1-0.1,0.1c0,0,0.1,0,0.1,0c0,0,0.1,0,0.1-0.1c0-0.2,0.2-0.5-0.1-0.7
		c-0.1-0.1-0.1-0.2-0.1-0.3c0.3,0.1,0.3-0.6,0.7-0.2c0,0,0.1-0.1,0.2-0.1c0.1,0,0.1-0.1,0.2-0.1c0.2,0,0.4,0,0.6,0c0,0,0.1,0,0.1,0
		c0,0,0,0.1-0.1,0.1c-0.2,0-0.3,0-0.5,0.1c-0.1,0.1-0.2,0.3-0.3,0.4c0,0,0.1,0.2,0.2,0.2c0.1,0,0.3,0,0.4,0c0.5-0.1,1-0.2,1.5-0.2
		c0.5,0,0.6-0.1,0.6-0.5c0,0,0-0.1,0.1-0.1c0,0,0.1,0,0.1,0C17.6,15.6,17.6,15.7,17.6,15.8 M70.4,31.2c-0.1,0-0.1-0.1-0.2-0.1
		c-0.3-0.3-0.8-0.1-1.2-0.3c0,0-0.1,0.1-0.2,0.1c-0.1,0.1,0,0.5,0.1,0.6c0.6,0.3,1.2,0.7,1.7,1c0.2,0.1,0.3,0,0.3-0.2
		c0-0.2-0.1-0.3-0.2-0.5C70.7,31.6,70.6,31.5,70.4,31.2 M36,43.9c-0.4-0.3-0.9-0.7-1.3-1c-0.4-0.3-1-0.5-1.4-0.9
		c-0.1-0.1-0.3,0-0.4-0.1c0,0.1,0.1,0.3,0.2,0.4c0.1,0.2,0.3,0.3,0.5,0.4c0,0,0.1,0.1,0.2,0.1c0.3,0.2,0.6,0.3,0.9,0.5
		c0.3,0.2,0.6,0.4,0.9,0.6c0.2,0.1,0.5,0.1,0.6,0.4c0,0,0.1,0,0.1,0.1c0.2,0.2,0.5,0.2,0.7,0.5c0,0,0.1,0,0.2,0c0-0.1,0-0.2,0-0.3
		c-0.1-0.1-0.3-0.1-0.4-0.2C36.5,44.4,36.3,44.2,36,43.9 M42.3,47.2c0,0.3,0,0.6,0,1c0,0,0,0-0.1,0c-0.2,0-0.4,0-0.6,0
		c-0.1,0-0.1,0.1-0.2,0.1c0.1,0.1,0.1,0.2,0.2,0.2c0.1,0,0.2,0,0.2,0c0.3-0.1,0.4,0,0.4,0.3c0,0.2,0,0.3,0.2,0.3
		c0.1,0,0.2,0,0.3-0.1c0.1,0,0.1-0.1,0.2-0.2c0,0,0-0.1,0-0.2c0-0.1,0-0.1,0-0.2c0-0.2,0.1-0.5-0.1-0.6c-0.1-0.1-0.3-0.4,0-0.6
		c0,0,0-0.1,0-0.1C42.6,47.2,42.4,47.2,42.3,47.2 M38.8,42.9c-0.1,0-0.3,0-0.2-0.2c0.1-0.3-0.1-0.5-0.4-0.5c-0.1,0-0.2-0.1-0.3-0.1
		c0,0-0.1-0.1-0.1-0.1c0,0,0.1,0,0.1-0.1c0,0,0.1-0.1,0.1-0.1c0,0-0.1-0.1-0.2-0.1c-0.1,0-0.2,0-0.4,0c0,0-0.1,0-0.1,0
		c0,0,0,0.1,0,0.1c0,0.1,0.1,0.1,0.1,0.2c0,0.2,0,0.3,0.2,0.2c0.2,0,0.4,0,0.6,0c0,0.2,0,0.3,0,0.5c0,0,0,0.1,0,0.1
		c0,0.1,0.1,0.2,0.1,0.2c0.2,0,0.3,0,0.5-0.1C38.9,43,38.9,43,38.8,42.9 M31.2,34.4c0,0.2,0.2,0.4,0.1,0.5c-0.1,0.4,0.1,0.3,0.3,0.3
		c0.1,0,0.2,0,0.3-0.1c0.1-0.1,0-0.3-0.1-0.4c0,0-0.1,0-0.1-0.1c0,0.1,0,0.1,0,0.2c0,0,0,0.1,0,0.1c0,0-0.1,0-0.1,0c0,0,0-0.1,0-0.1
		c-0.1-0.3,0.1-0.8-0.3-1c-0.1,0-0.1-0.1-0.2-0.1c0,0.1,0,0.2-0.1,0.4c0,0.1,0,0.2,0.2,0.1C31.2,34.1,31.3,34.2,31.2,34.4 M16,16.8
		c-0.3,0-0.5,0-0.8,0c-0.1,0-0.2,0-0.3,0.1c-0.1,0.2-0.2,0-0.3,0c0,0-0.1-0.1-0.2-0.1c0,0.1-0.1,0.2,0,0.2c0.1,0.1,0.2,0.1,0.3,0.2
		c0.1,0,0.2,0,0.3,0c0.1,0,0.1,0,0.2,0c0.3,0,0.7-0.2,0.9-0.1c0.3,0.1,0.7-0.1,1,0c0,0,0.1-0.1,0.1-0.1c0,0-0.1-0.1-0.1-0.1
		C16.7,16.8,16.4,16.8,16,16.8 M20.3,20.2c-0.3-0.3-0.5-0.7-0.8-1c-0.1-0.1-0.2-0.1-0.3-0.2c0.1,0.1,0.1,0.3,0.2,0.4
		c0.3,0.4,0.7,0.7,0.9,1.2c0,0.1,0.2,0.1,0.3,0.2c0-0.1-0.1-0.2-0.1-0.2C20.4,20.4,20.4,20.3,20.3,20.2 M70.8,31.1
		c0.2,0.3,0.4,0.6,0.5,0.9c0.1,0.2,0.2,0.1,0.3,0.1c0,0,0.1-0.1,0.1-0.2c0-0.1,0-0.2,0-0.3c0-0.2-0.1-0.3-0.3-0.3
		c-0.1,0-0.3,0-0.3-0.1C71,31.1,70.9,31.1,70.8,31.1 M52.2,59.2C52.2,59.2,52.3,59.2,52.2,59.2c0.4,0,0.7,0,1,0.1c0,0,0.1,0,0.1-0.1
		c0,0,0-0.1,0-0.2c-0.1-0.2-0.3-0.2-0.5,0c0,0,0,0,0,0c-0.2-0.1-0.5-0.1-0.5-0.4c0,0,0-0.1-0.1-0.1c0,0-0.1,0.1-0.1,0.1
		C51.9,58.9,52.1,59,52.2,59.2 M52.2,29.7c0,0.1-0.1,0.1-0.1,0.2c0,0,0,0-0.1,0.1c0,0,0-0.1,0-0.1c0-0.2-0.2-0.3-0.3-0.2
		c-0.1,0.2-0.3,0.2-0.5,0.2c-0.1,0-0.1,0.1-0.2,0.1c0.1,0,0.1,0.1,0.2,0.1c0.2,0,0.5,0,0.7,0.1c0.1,0,0.2,0,0.3,0
		c0.1,0,0.2-0.1,0.2-0.1C52.4,29.9,52.3,29.8,52.2,29.7 M33.5,37.4c-0.1,0-0.1-0.1-0.2-0.1c0,0-0.1,0-0.1,0.1c0,0.1-0.1,0.2-0.1,0.4
		c0,0.1,0.1,0.3,0.2,0.4c0.1-0.1,0.1-0.2,0.2-0.3c0-0.1,0.1-0.2,0.1-0.2c0.2,0,0.4,0,0.6,0c0,0,0.1,0,0.1,0c-0.1,0-0.1-0.1-0.2-0.1
		C34,37.4,33.8,37.4,33.5,37.4 M62,66.1c-0.1,0-0.2,0.1,0,0.2c0.1,0,0.2,0.1,0.3,0.1c0.1,0,0.3,0,0.4,0c0.2,0,0.4,0.1,0.6,0.1
		c0.1,0,0.2-0.1,0.4-0.2c0,0,0,0,0.1-0.1c0,0-0.1,0-0.1,0c-0.2,0-0.4,0.1-0.6,0.1c-0.1,0-0.2,0-0.3,0C62.5,66.2,62.3,66.2,62,66.1
		 M62.3,31.2c0.1,0,0.2-0.1,0.3-0.1c0,0,0-0.2,0-0.2c-0.4,0-0.8,0-1.1-0.1c0,0,0,0,0,0.1c0.2,0.1,0.3,0.4,0.6,0.3
		C62.1,31.2,62.1,31.2,62.3,31.2 M41.4,45.4c0,0.1,0.1,0.2,0.1,0.2c-0.1,0.2,0,0.4,0.1,0.6c0,0,0,0.1,0.1,0.1c0,0,0.1-0.1,0.1-0.1
		c0-0.2,0-0.4,0-0.6C41.7,45.4,41.6,45.3,41.4,45.4 M40.3,47.5c0.1-0.1,0.2-0.2,0.2-0.2c-0.1-0.1-0.3-0.3-0.4-0.4c0,0-0.1,0-0.2,0
		c0,0.1,0,0.2,0,0.2C40,47.2,40.1,47.4,40.3,47.5 M65.1,31c0,0,0.1-0.1,0.1-0.1c0,0,0.1-0.1,0.1-0.1c-0.1,0-0.1,0-0.2,0
		c-0.1,0-0.2,0-0.3,0.1c-0.2,0-0.3,0-0.5,0c0.1,0,0.3,0.1,0.4,0.1C64.8,31.1,64.9,31.1,65.1,31 M11.8,17c-0.1,0.1-0.2,0.2-0.2,0.3
		c0,0.1,0,0.2,0,0.2c0.1,0,0.2,0,0.2,0C12,17.4,12,17.1,11.8,17 M30.3,33.6c0-0.2,0-0.4,0-0.7c0,0-0.1-0.1-0.1-0.1
		c0,0-0.1,0.1-0.1,0.1c0,0.2,0,0.5,0,0.7c0,0.1,0.1,0.2,0.1,0.2C30.3,33.8,30.3,33.8,30.3,33.6 M43.8,33.9c0.1,0,0.2,0,0.2,0
		c0,0,0.1,0,0.1-0.1c0,0-0.1-0.1-0.1-0.1c-0.2,0-0.3-0.1-0.2-0.3c0-0.1,0-0.1-0.1-0.2c0,0-0.1,0-0.1,0
		C43.5,33.4,43.6,33.7,43.8,33.9 M42.7,50.2c0,0,0.1,0,0.1,0.1c0-0.2,0-0.4,0-0.7c0,0-0.1-0.1-0.2-0.1c0,0-0.1,0.1-0.1,0.1
		C42.7,49.8,42.7,50,42.7,50.2 M50.7,30.2c-0.1,0-0.2,0-0.4,0c0,0-0.1,0.1-0.1,0.1c0,0,0,0.1,0.1,0.1c0.2,0,0.3,0,0.5,0
		c0,0,0.1-0.1,0.1-0.2C50.8,30.2,50.7,30.2,50.7,30.2 M85.8,59.6c0-0.1,0-0.2,0.1-0.3c0,0,0-0.1,0-0.1c0,0-0.1,0-0.1,0.1
		c-0.1,0.2-0.1,0.3-0.1,0.5c0,0.1,0,0.2,0.1,0.3c0.1-0.1,0.1-0.1,0.2-0.2C85.8,59.7,85.8,59.7,85.8,59.6 M41.2,47.7
		c0.1,0.1,0.1,0.2,0.2,0.2c0.2,0,0.5,0,0.7,0c0,0,0.1,0,0.1,0c0,0-0.1,0-0.1,0c-0.3-0.1-0.5-0.1-0.8-0.2
		C41.2,47.6,41.2,47.7,41.2,47.7 M66,73.3c-0.1,0-0.2,0-0.2,0c0,0,0,0,0,0.1c0,0,0,0,0,0c0.3,0,0.6,0,0.9,0c0,0,0.1,0,0.1,0
		c0,0-0.1,0-0.1,0C66.4,73.1,66.2,73.3,66,73.3 M18.8,41.4c0-0.2,0-0.4,0-0.6c0,0,0-0.1,0-0.1c0,0-0.1,0.1-0.1,0.1
		c0,0.2,0,0.4,0,0.6C18.6,41.4,18.7,41.4,18.8,41.4 M24.8,66.1c-0.2,0-0.3-0.1-0.5-0.1c-0.1,0-0.1,0-0.2,0c0,0.1,0,0.2,0.1,0.2
		c0.2,0,0.4,0,0.6,0.1C24.8,66.1,24.8,66.1,24.8,66.1 M46.1,53.2c0-0.1,0-0.3-0.1-0.4c0-0.1,0-0.1-0.1-0.1c0,0.1-0.1,0.1-0.1,0.2
		c0,0.1,0,0.2,0,0.2C45.9,53.3,45.9,53.3,46.1,53.2 M13,15.6c0-0.2,0.1-0.4,0.1-0.6c0,0,0-0.1,0-0.1c0,0-0.1,0-0.1,0
		C12.9,15,12.8,15.3,13,15.6 M34.9,39.4c0,0.1,0,0.2,0,0.3c0,0.1,0.1,0.1,0.1,0.1c0,0,0.1,0,0.1,0C35.2,39.8,35.1,39.4,34.9,39.4
		 M15.6,17.2c-0.1,0-0.1,0.1-0.2,0.1c0.2,0,0.4,0,0.6,0c0,0,0,0,0-0.1c-0.1,0-0.2-0.1-0.3-0.1C15.7,17.2,15.6,17.2,15.6,17.2
		 M21.4,45.6c0,0-0.1-0.1-0.1-0.1c-0.1,0-0.2-0.1-0.2-0.1c0,0.1,0,0.2,0.1,0.2c0.1,0,0.3,0,0.4,0C21.5,45.7,21.4,45.7,21.4,45.6
		 M46.3,32.1c-0.2,0.2-0.5,0.1-0.7,0.1c0,0-0.1,0-0.1,0.1c0,0,0.1,0,0.1,0c0.1,0,0.3,0,0.4,0C46.1,32.3,46.4,32.4,46.3,32.1
		 M44.4,51.2c0.1,0.1,0.3,0.3,0.4,0.4c0,0,0.1,0,0.1,0c0,0,0-0.1,0-0.1C44.7,51.4,44.5,51.3,44.4,51.2 M72.8,32.3
		c-0.1,0-0.2,0-0.3,0c-0.1,0-0.1,0.1-0.2,0.1c0.1,0,0.1,0.1,0.2,0.1c0.1,0,0.3,0,0.4,0c0.1,0,0.1-0.1,0.2-0.1
		C73,32.3,72.9,32.3,72.8,32.3 M53.2,74.9c-0.1,0-0.3-0.1-0.4-0.1c-0.1,0-0.2,0-0.2,0c0.1,0,0.2,0.1,0.3,0.1
		C52.9,75,53,74.9,53.2,74.9 M17.3,44.3c0-0.1-0.1-0.2-0.1-0.2c0,0-0.1,0-0.1-0.1c0,0.1,0,0.2,0,0.4C17.1,44.4,17.2,44.4,17.3,44.3
		 M68.7,31.9c-0.1,0-0.2,0-0.2,0c0,0-0.1,0-0.1,0c0,0,0.1,0.1,0.1,0.1c0.1,0,0.2,0,0.4,0c0.1,0,0.1-0.1,0.2-0.1
		C68.9,31.9,68.8,31.9,68.7,31.9 M61.7,66.2c-0.1,0-0.2-0.1-0.4-0.1c-0.1,0-0.1,0-0.2,0c0.1,0,0.1,0.1,0.2,0.1
		C61.5,66.3,61.6,66.2,61.7,66.2 M19.7,17.2c0,0-0.1,0-0.1,0c0,0-0.1,0.1-0.1,0.1c0,0,0.1,0.1,0.1,0.1c0.1,0,0.2,0,0.3-0.1
		C19.8,17.3,19.8,17.3,19.7,17.2 M34.4,70.9C34.5,70.9,34.5,70.9,34.4,70.9c0-0.1,0-0.1,0-0.1c-0.1,0-0.3-0.1-0.4-0.1c0,0,0,0,0,0
		c0.1,0.1,0.2,0.1,0.3,0.2C34.3,70.9,34.3,70.9,34.4,70.9 M58,63.4c-0.1,0-0.2-0.1-0.2-0.1c0,0,0-0.1,0-0.2c0,0.1,0,0.1,0,0.2
		c0,0.1,0,0.1,0,0.2c0,0.1,0.1,0.1,0.1,0.1C57.9,63.6,58.1,63.6,58,63.4 M86.2,45c0.1,0.1,0.1,0.3,0.2,0.1c0,0,0-0.2-0.1-0.3
		c0-0.1-0.1-0.1-0.1-0.1C86.2,44.8,86.2,44.8,86.2,45 M71.4,32.6c0.1-0.1,0.1-0.1,0.2-0.2c0,0,0.1-0.1,0.1-0.1
		c-0.1,0-0.1-0.1-0.2-0.1C71.4,32.2,71.4,32.4,71.4,32.6 M67.6,31.5c0,0,0.1,0,0.1,0C67.7,31.5,67.7,31.5,67.6,31.5
		c-0.1-0.1-0.2-0.1-0.3-0.2c0,0-0.1,0-0.1,0c0,0,0,0.1,0,0.1c0,0,0.1,0,0.1,0C67.4,31.5,67.5,31.5,67.6,31.5 M43.6,32.9
		c0,0,0.1-0.1,0.1-0.1c0,0-0.1,0-0.1,0c-0.1,0-0.1,0-0.2,0c-0.1,0-0.1,0-0.2,0.1c0.1,0,0.1,0.1,0.2,0.1
		C43.4,32.9,43.5,32.9,43.6,32.9 M50.9,31.1c-0.2,0-0.4,0-0.6,0c0,0-0.1,0-0.1,0c0,0,0.1,0,0.1,0C50.5,31.2,50.7,31.2,50.9,31.1
		c0.2,0.1,0.3,0,0.4,0C51.2,31.2,51,31.1,50.9,31.1 M34.2,38.6c-0.1-0.1-0.2-0.2-0.2,0c0,0.1,0,0.2,0,0.3c0,0,0,0.1,0,0.1
		c0,0,0.1-0.1,0.1-0.1C34.2,38.9,34.2,38.8,34.2,38.6 M56.2,29.9c-0.1,0-0.3,0-0.4,0c0,0-0.1,0-0.1,0.1c0,0,0.1,0,0.1,0
		c0.1,0,0.3,0,0.4,0C56.2,30,56.3,30,56.2,29.9 M40.2,45.5c0,0.1,0,0.1,0.2,0.1c0.1,0,0.1,0,0.2,0c-0.1-0.1-0.1-0.1-0.2-0.2
		C40.4,45.5,40.3,45.5,40.2,45.5 M52,30.8c0.1,0,0.2,0,0.4-0.1c-0.1,0-0.3,0-0.4,0c0,0-0.1,0-0.1,0C51.9,30.7,51.9,30.7,52,30.8
		 M20.6,20.8c0.1,0,0.2-0.1,0.2-0.1c0-0.1-0.1-0.2-0.1-0.3c0,0.1-0.1,0.1-0.1,0.2C20.6,20.7,20.6,20.7,20.6,20.8 M31,35.5
		c0.1,0,0.1,0.1,0.2,0.1c0,0,0.1,0,0.1,0c0-0.1,0-0.2-0.1-0.2c0,0-0.1-0.1-0.1-0.1C31,35.4,30.9,35.4,31,35.5 M25.8,66.5
		C25.8,66.4,25.8,66.4,25.8,66.5c-0.1,0-0.1,0.1-0.1,0.2c0,0,0.1,0,0.1,0.1C25.9,66.7,25.9,66.6,25.8,66.5 M27.5,68.3
		c0.1,0,0.1,0.1,0.2,0.1c0.1,0,0.1-0.1,0.2-0.1c-0.1,0-0.1-0.1-0.2-0.1C27.6,68.2,27.6,68.2,27.5,68.3 M58.5,65.3
		c0-0.1-0.1-0.2-0.1-0.2c0,0.1,0,0.1,0,0.2c0,0,0,0.1,0,0.1c0,0,0,0.1,0.1,0.1C58.5,65.4,58.5,65.4,58.5,65.3 M42,45.9
		c0-0.1,0-0.3-0.1-0.4c0,0,0,0,0-0.1c0,0-0.1,0.1-0.1,0.1C41.9,45.6,41.9,45.7,42,45.9 M34.2,71.2c-0.1,0-0.2,0-0.3,0
		c0.1,0,0.1,0.1,0.2,0.1C34.2,71.4,34.2,71.3,34.2,71.2 M49.8,74.1c-0.1,0-0.2,0-0.3-0.1c0,0,0,0.1,0,0.1
		C49.6,74.2,49.7,74.2,49.8,74.1 M67.1,73.4c0.1,0,0.1,0,0.2-0.1c-0.1,0-0.1,0-0.2,0c-0.1,0-0.2,0-0.3,0.1
		C66.9,73.4,67,73.4,67.1,73.4 M70.2,56.8c0,0,0,0.1,0.1,0.1c0,0,0.1,0.1,0.1,0.1c0,0,0,0,0-0.1c0-0.1,0-0.1,0-0.2
		C70.3,56.7,70.3,56.8,70.2,56.8 M67.8,73.2c-0.1,0-0.2,0-0.3,0c0,0,0,0.1,0,0.1C67.7,73.3,67.8,73.3,67.8,73.2 M21.9,45.3
		c0-0.1,0-0.1,0-0.2c0,0.1-0.1,0.1-0.1,0.2c0,0.1,0,0.2,0.1,0.3C21.9,45.5,21.9,45.4,21.9,45.3 M70,62c0,0.1-0.1,0.1-0.1,0.2
		c0,0.1,0.1,0.1,0.1,0.2c0-0.1,0-0.1,0-0.2C70,62.1,70,62.1,70,62 M39.8,46.2c-0.1,0-0.2,0-0.3,0c0,0,0,0.1,0,0.1
		C39.5,46.3,39.6,46.3,39.8,46.2 M58.1,64.8c0-0.1,0.1-0.1,0.1-0.2c0,0-0.1,0-0.1,0C58.1,64.6,58.1,64.7,58.1,64.8 M51.9,74.5
		C51.9,74.5,51.9,74.6,51.9,74.5c0.1,0.1,0.2,0.1,0.3,0.1c0,0,0,0,0,0C52.2,74.6,52.1,74.5,51.9,74.5 M52.9,29.9c-0.1,0-0.2,0-0.3,0
		c0,0,0,0,0,0C52.8,30,52.9,30,52.9,29.9C53,30,53,30,53.1,30C53,29.9,53,29.9,52.9,29.9 M28.8,68.5c-0.1,0-0.2,0-0.3,0
		c0,0,0,0.1,0,0.1C28.6,68.6,28.6,68.6,28.8,68.5C28.8,68.6,28.8,68.6,28.8,68.5 M21.7,45.6c0,0.1,0.1,0.1,0.1,0.2
		c0,0,0.1-0.1,0.1-0.1C21.8,45.7,21.8,45.7,21.7,45.6 M28.6,30.9c0,0-0.1-0.1-0.1-0.1c0,0,0,0.1,0,0.1C28.5,31,28.6,31.1,28.6,30.9
		 M40.1,45.6c0-0.1-0.1-0.1-0.1-0.2c0,0.1,0,0.1,0,0.2C40,45.7,40.1,45.7,40.1,45.6 M77.9,70.1c0,0,0.1-0.1,0.1-0.1c0,0-0.1,0-0.1,0
		C77.9,70,77.9,70.1,77.9,70.1 M37.8,45.2c-0.1,0-0.1-0.1-0.2-0.1c0,0,0,0.1,0,0.1C37.6,45.2,37.7,45.3,37.8,45.2 M87,49.5
		c0,0.1,0,0.2-0.1,0.3c0,0,0,0,0,0C87,49.7,87.1,49.7,87,49.5C87.1,49.5,87.1,49.5,87,49.5 M40.6,44.3c0.1,0,0.1,0,0.2,0.1
		c0,0,0.1,0,0.1,0c0,0,0-0.1,0-0.1C40.7,44.3,40.7,44.3,40.6,44.3 M53.2,31.2C53.3,31.2,53.3,31.2,53.2,31.2c0.1,0.1,0.2,0.1,0.2,0
		C53.4,31.2,53.3,31.1,53.2,31.2 M31.4,35.9c0,0.1,0,0.1-0.1,0.2c0,0,0.1,0,0.1,0C31.4,36,31.4,35.9,31.4,35.9 M60,64.6
		c-0.1,0-0.1-0.1-0.2-0.1c0,0,0,0,0,0.1C59.9,64.6,60,64.7,60,64.6 M50,57.7c0-0.1,0-0.1,0-0.2c0,0,0,0,0,0C50,57.6,50,57.6,50,57.7
		 M74,32.7c0,0-0.1,0.1-0.1,0.1c0.1,0,0.1,0,0.2,0C74.1,32.9,74.1,32.8,74,32.7 M38.9,44.4C38.9,44.4,39,44.4,38.9,44.4
		c0.1,0,0.1,0,0.2-0.1C39,44.3,39,44.3,38.9,44.4 M15.6,54.1C15.5,54.1,15.5,54,15.6,54.1c-0.1,0-0.1,0.1-0.1,0.1
		C15.5,54.2,15.5,54.2,15.6,54.1 M64.7,65.6c0.1,0,0.2-0.1,0.3-0.1c0,0,0,0,0,0C64.8,65.6,64.7,65.6,64.7,65.6 M59,64.8
		C58.9,64.7,58.9,64.7,59,64.8C58.9,64.7,58.9,64.7,59,64.8c0,0.1,0,0.1,0,0.2c0,0,0,0,0,0C59,64.9,59,64.8,59,64.8 M81.4,68.2
		c0,0,0,0.1-0.1,0.1c0.1,0,0.1,0,0.2,0C81.5,68.3,81.5,68.2,81.4,68.2 M29.9,69c0.1,0,0.1,0,0.2,0c0,0,0-0.1,0-0.1
		C30,69,29.9,69,29.9,69 M30.3,69.1c0,0.1,0.1,0.1,0.1,0.2c0,0,0,0,0.1,0C30.5,69.2,30.4,69.1,30.3,69.1 M22.2,44.3c0,0,0.1,0,0.1,0
		C22.3,44.3,22.3,44.2,22.2,44.3C22.3,44.2,22.2,44.2,22.2,44.3 M17,57.3c0,0.1,0,0.1,0.1,0.2c0,0,0,0,0.1,0
		C17.1,57.5,17.1,57.4,17,57.3 M14.6,50.1C14.6,50.1,14.6,50.1,14.6,50.1c0.1,0,0.1,0,0.1,0C14.7,50,14.6,50,14.6,50.1 M60.4,30
		c0,0,0.1,0.1,0.1,0.1c0,0,0-0.1,0-0.1C60.5,30,60.5,30,60.4,30 M34.6,70.9c0.1,0,0.1,0,0.2,0c0,0,0-0.1,0-0.1
		C34.7,70.9,34.6,70.9,34.6,70.9 M38.2,72.3c0,0,0.1-0.1,0.1-0.1c0,0,0,0-0.1-0.1C38.2,72.2,38.2,72.2,38.2,72.3 M24.7,27.6
		c0,0,0-0.1,0.1-0.1c0,0-0.1,0-0.1,0C24.7,27.4,24.7,27.5,24.7,27.6 M31.5,36.1c0,0,0,0.1,0,0.1c0,0,0.1-0.1,0.1-0.1
		C31.7,36.1,31.6,36.1,31.5,36.1 M27.1,68c0,0,0.1,0.1,0.1,0.1c0,0,0,0,0.1,0C27.2,68,27.2,68,27.1,68 M29.8,32.2
		C29.8,32.2,29.8,32.2,29.8,32.2C29.8,32.2,29.8,32.2,29.8,32.2c0,0,0,0.1,0,0.1c0,0,0,0,0.1,0C29.8,32.3,29.8,32.3,29.8,32.2
		 M24.1,41.4c0,0-0.1,0-0.1,0c0,0,0.1,0.1,0.1,0.1C24.1,41.5,24.1,41.4,24.1,41.4 M64.5,65.6C64.5,65.6,64.5,65.6,64.5,65.6
		c-0.1,0-0.1,0-0.1,0.1C64.5,65.7,64.5,65.7,64.5,65.6 M29.4,32.7c0,0-0.1,0-0.1,0.1c0,0,0,0-0.1,0c0,0,0,0,0,0
		C29.3,32.8,29.3,32.7,29.4,32.7z"/>
	<path class="st0" d="M36.4,36.6c-0.1-0.1-0.3-0.3-0.4-0.4c0,0,0-0.1,0-0.1c0,0,0.1,0,0.1,0c0.4,0.4,0.7,0.7,1.1,1.1
		c0.1,0.1,0,0.4,0.1,0.6c0.1,0.2,0.2,0.5,0.4,0.6c0.6,0.4,1.3,0.7,2,0.9c0.4,0.1,0.7,0.4,1,0.6c0.6,0.6,1.1,1.2,1.7,1.7
		c0.7,0.7,1.5,1.4,2.2,2.1c0.2,0.2,0.5,0.5,0.7,0.7c0.5,0.4,1,0.8,1.5,1.1c0.3,0.1,0.5,0.4,0.7,0.6c0.3,0.2,0.5,0.5,0.8,0.7
		c0.2,0.2,0.4,0.3,0.6,0.5c0.1,0.1,0,0.2,0.1,0.3c-0.1,0-0.1-0.1-0.2-0.1c-0.2-0.2-0.4-0.4-0.6-0.6c-0.1-0.1-0.3-0.2-0.4-0.3
		c-0.3-0.3-0.6-0.7-1-0.9c-0.6-0.3-1-0.8-1.6-1.1c-0.2-0.2-0.4-0.4-0.6-0.6c-0.2-0.2-0.3-0.3-0.5-0.5c-0.3-0.3-0.6-0.5-0.9-0.8
		c-0.4-0.5-0.8-1-1.3-1.4c-0.6-0.6-1.2-1.3-2-1.8c-0.2-0.1-0.5-0.2-0.8-0.3c-0.6-0.2-1.2-0.5-1.7-0.9c-0.2-0.2-0.4-0.4-0.6-0.6
		c0,0,0-0.1,0-0.1c0.1-0.1,0.2-0.4,0.1-0.5C36.8,37.1,36.6,36.9,36.4,36.6z"/>
	<path class="st0" d="M45.3,49.4c0-0.1,0-0.2,0-0.3c0.1,0,0.1,0.1,0.2,0.1c0.1,0,0.4,0.1,0.3-0.2c0,0,0,0,0-0.1
		c0.1,0.1,0.2,0.2,0.3,0.3c0.1,0.2,0.2,0.3,0.4,0.3c0.4,0,0.5,0.1,0.4,0.5c-0.1,0.3,0.1,0.7,0.3,0.8c0,0,0.1,0,0.2,0
		c0.1,0,0.1-0.1,0.1-0.1c0,0.1,0.1,0.1,0.1,0.2c0,0.2,0.2,0.4,0.4,0.6c0,0,0.1,0,0.1,0.1c0.1,0.1,0.1,0.2,0.2,0.4
		c-0.1,0-0.2,0-0.3,0c-0.1,0-0.2,0-0.3,0.1c-0.4,0.2-0.5,0.2-0.9,0c0,0,0,0,0,0c-0.4,0-0.3-0.3-0.3-0.5c0,0,0-0.1,0-0.1
		c0,0,0,0.1,0,0.1c0,0.1,0,0.1-0.1,0.2c0-0.1,0-0.1-0.1-0.2c0-0.1-0.1-0.2-0.1-0.3c0-0.3-0.1-0.5-0.1-0.8c0,0,0.3-0.1,0.5-0.1
		c0.1,0,0.2,0,0.2-0.2c-0.1-0.4-0.1-0.4-0.5-0.3c-0.2,0-0.5-0.1-0.7-0.2c-0.2-0.1-0.3,0-0.2,0.1c0,0.2-0.1,0.3-0.3,0.2
		c-0.2,0-0.3,0-0.5,0c-0.2,0-0.3-0.2-0.3-0.3c0,0,0.2-0.1,0.3-0.1C44.9,49.4,45.1,49.5,45.3,49.4 M47.3,51.5c-0.1,0-0.2,0-0.3,0
		c0,0.1,0.1,0.2,0.1,0.2c0.2,0,0.3,0,0.5-0.1c0,0,0-0.1,0-0.2c0,0-0.1-0.1-0.1-0.1c0,0.1,0,0.1-0.1,0.2
		C47.4,51.5,47.4,51.5,47.3,51.5 M46.8,50.8c0.1,0.2,0.2,0.3,0.3,0.5c0,0,0.1,0.1,0.1,0.1c0,0,0.1-0.1,0.1-0.1c0-0.1,0-0.2,0-0.2
		C47.1,51,47,50.9,46.8,50.8z"/>
	<path class="st0" d="M48.8,27.6c0.6,0,1.2-0.1,1.8-0.1c0.3,0,0.6-0.1,1-0.1c0,0,0.1,0,0.2,0.1c0,0-0.1,0.1-0.1,0.1
		c-0.8,0.1-1.6,0.2-2.5,0.3c-0.8,0-1.5,0-2.3,0.2c-0.7,0.2-1.5,0.2-2.2,0.4c-0.5,0.1-1.1,0.2-1.6,0.4c-0.6,0.2-1.2,0.4-1.9,0.6
		c-0.6,0.1-1.1,0.4-1.7,0.6c0,0,0,0,0,0c-0.1,0-0.2,0-0.3,0c0.1,0,0.2-0.1,0.2-0.1c0.6-0.2,1.2-0.5,1.8-0.7c0.6-0.2,1.3-0.4,2-0.5
		c0.7-0.2,1.4-0.4,2.1-0.5c0.7-0.1,1.4-0.2,2.2-0.3C47.8,27.7,48.3,27.6,48.8,27.6z"/>
	<path class="st0" d="M57.1,54.6c-0.1,0.1-0.2,0.1-0.2,0.2c0-0.1-0.2,0-0.1-0.2c0,0,0-0.1-0.1-0.1c-0.5-0.5-1.1-1-1.6-1.5
		c-0.2-0.2-0.4-0.3-0.7-0.5c0,0-0.1,0-0.1-0.1c-0.3-0.5-0.8-0.7-1.3-1c0,0-0.1-0.1-0.1-0.1c-0.1-0.3-0.4-0.4-0.6-0.4
		c0,0-0.1,0-0.1,0c0,0,0.1,0,0.1,0c0,0,0.1-0.1,0.1-0.1c0,0-0.1-0.1-0.1-0.1c-0.6-0.5-1.2-1-1.9-1.5c-0.4-0.3-0.7-0.6-1.1-0.9
		c-0.1,0-0.1-0.1-0.1-0.2c0.1,0,0.2,0,0.2,0.1c0.7,0.5,1.3,1,2,1.5c0.3,0.2,0.6,0.5,0.9,0.7c0.4,0.3,0.7,0.7,1.1,1
		c0.6,0.5,1.1,0.9,1.7,1.4c0.3,0.2,0.5,0.5,0.8,0.7c0.2,0.2,0.4,0.5,0.7,0.7c0.2,0.1,0.4,0.1,0.7,0c0.1,0,0.1-0.2,0.2-0.3
		c0.1-0.1,0.2-0.2,0.3-0.2c0,0.1,0,0.3-0.1,0.4C57.5,54.2,57.3,54.4,57.1,54.6z"/>
	<path class="st0" d="M31.7,32c0.3,0.3,0.6,0.6,0.9,0.8c0.4,0.4,0.8,0.7,1.2,1.1c0.3,0.3,0.6,0.6,0.8,0.9c0,0,0,0.1,0,0.2
		c-0.1,0-0.1,0-0.2-0.1c-0.2-0.2-0.3-0.4-0.5-0.6c-0.6-0.6-1.1-1.2-1.8-1.6c-0.1-0.1-0.2-0.2-0.3-0.3c-0.3-0.3-0.5-0.5-1-0.5
		c-0.2,0-0.3-0.2-0.5-0.2c0,0,0,0,0-0.1c0,0,0,0,0.1,0c0.1,0,0.2,0.1,0.3,0.1c0,0,0.1,0,0.1,0c0,0,0-0.1-0.1-0.1
		c-0.4-0.4-0.8-0.7-1.1-1.1c-0.4-0.4-0.8-0.7-1.2-1.1c-0.1-0.1-0.1-0.2-0.2-0.3c0.1,0,0.2,0.1,0.3,0.1c0.6,0.5,1.1,1,1.7,1.5
		C30.9,31.3,31.3,31.7,31.7,32z"/>
	<path class="st0" d="M58.7,62.8c0.3,0,0.6,0,0.9,0c0.1,0,0.2,0.1,0.3,0.1c0,0.1,0,0.2-0.1,0.3c0,0.1-0.1,0.1-0.1,0.2
		c0,0-0.1,0.1-0.2,0.1c-0.1,0-0.1-0.1-0.2-0.1c0.1,0,0.1,0,0.2,0c0,0,0.1,0,0.1,0c0,0,0-0.1,0-0.1c-0.1-0.1-0.2-0.1-0.3-0.1
		C58.9,63,58.4,63,58,62.9c0,0-0.1-0.2-0.1-0.4c0-0.3-0.1-0.4-0.4-0.4c0,0-0.1,0-0.1,0c-0.3,0-0.5-0.2-0.5-0.5
		c0.1-0.2,0-0.2-0.2-0.2c-0.1,0-0.2,0-0.3,0c-0.1,0-0.1-0.1-0.2-0.1c0.1,0,0.1,0,0.2,0c0.1,0,0.2,0,0.3,0c0.1,0,0.3,0,0.4,0.1
		c0.1,0,0.2,0.1,0.3,0.2c0,0,0,0,0.1,0c0,0-0.1,0.1-0.1,0.1c-0.1,0-0.1,0-0.2,0c-0.1,0-0.1,0-0.2,0c0.1,0,0.2,0.1,0.2,0.1
		c0.1,0,0.4,0.2,0.4-0.2c0,0,0.1,0,0.2,0c0,0,0.1,0.1,0.1,0.1c0.1,0.5,0.1,0.5,0.7,0.4c0,0,0.1,0,0.1,0c0,0.1,0,0.1,0,0.2
		c0,0-0.1,0-0.1,0c0,0,0,0-0.1,0c-0.1,0.1,0.1,0.3-0.1,0.2c0,0,0,0.1,0,0.1C58.5,62.7,58.6,62.7,58.7,62.8z"/>
	<path class="st0" d="M31,68.3c0.2,0.2,0.4,0.3,0.7,0.5c0.1,0,0.1,0.1,0.1,0.2c-0.1,0-0.2,0-0.2,0c-0.9-0.6-2-0.9-3-1.3
		c-0.4-0.2-0.9-0.3-1.3-0.5c0,0-0.1,0-0.1,0c0,0,0.1-0.1,0.1-0.1c0.1,0,0.2-0.1,0.3,0c0.2,0.1,0.3,0.2,0.5,0c0,0,0.1,0,0.1,0
		c0.5,0.4,1,0.5,1.6,0.7C30,67.9,30.6,67.9,31,68.3z"/>
	<path class="st0" d="M61.5,73.1c-0.7,0-1.3,0-2,0.1c-0.5,0-0.9,0.1-1.4,0.1c-0.6,0-1.1,0-1.7,0c0,0-0.1,0-0.1,0
		c0,0,0.1-0.1,0.1-0.1c0,0,0.1-0.1,0.1-0.1c0.5,0,0.9,0,1.4-0.1c0.5,0,1-0.1,1.5-0.1c0.2,0,0.3,0,0.5,0c0.5,0,1.1,0,1.6,0
		c0.1,0,0.1,0,0.2,0c-0.1,0-0.1,0.1-0.2,0.1C61.6,73,61.5,73,61.5,73.1z"/>
	<path class="st0" d="M50.1,55.7c-0.1,0-0.1,0-0.2,0c0,0-0.1,0-0.1,0c0,0,0.1-0.1,0.1-0.1c0,0,0.1-0.1,0.1-0.1c0-0.3,0-0.6,0-0.8
		c0-0.2,0-0.4,0-0.6c0-0.1,0.2-0.1,0.3-0.2c0.1,0,0.2,0,0.3,0c0.1,0,0.1,0,0.2,0c0.2,0.3,0.4,0.2,0.7,0.2c0.1,0,0.1,0.1,0.2,0.1
		c0,0,0,0.1,0,0.1c-0.1,0-0.2,0.1-0.3,0c-0.2-0.1-0.2,0-0.3,0.1c0,0-0.1,0.1-0.1,0.1c0,0-0.1-0.1-0.1-0.1c0-0.2-0.2-0.3-0.4-0.2
		c-0.1,0-0.2,0-0.4,0c-0.1,0-0.1,0-0.2,0c0,0,0,0.1,0.1,0.1C50.2,54.8,50.3,55.2,50.1,55.7z"/>
	<path class="st0" d="M79.5,63.2c0.6-0.2,1.2-0.4,1.8-0.6c0,0,0.1,0,0.2,0c0,0-0.1,0.1-0.1,0.1c-0.4,0.1-0.7,0.3-1.1,0.4
		c-1.1,0.4-2.1,0.9-3.1,1.4c-0.4,0.2-0.9,0.4-1.4,0.6c0,0-0.1,0-0.1,0c0,0,0-0.1,0.1-0.1c0.3-0.2,0.6-0.3,0.9-0.5
		c0.5-0.3,1-0.5,1.6-0.8C78.6,63.6,79.1,63.4,79.5,63.2z"/>
	<path class="st0" d="M72.2,66.6c0.7-0.3,1.3-0.5,1.9-0.8c0.4-0.2,0.8-0.3,1.2-0.5c0,0,0.1,0,0.1,0c0,0,0,0.1-0.1,0.1
		c-0.4,0.2-0.9,0.5-1.3,0.7c-0.7,0.3-1.3,0.6-2,0.8c-0.7,0.3-1.4,0.5-2.1,0.8c-0.1,0-0.2,0-0.2,0c0.1,0,0.1-0.1,0.2-0.1
		c0.7-0.3,1.4-0.5,2.2-0.8C72.1,66.6,72.1,66.6,72.2,66.6z"/>
	<path class="st0" d="M68.4,71.9c0.4-0.1,0.7-0.2,1.1-0.2c0.4-0.1,0.9-0.2,1.3-0.3c0.4-0.1,0.7-0.2,1.1-0.3c0.1,0,0.1,0,0.2,0
		c0,0-0.1,0.1-0.1,0.1c-0.4,0.2-0.8,0.3-1.2,0.5c-0.1,0-0.1,0.1-0.2,0.1c-0.1,0-0.1,0-0.2,0.1c0,0,0.1-0.1,0.1-0.1
		c0,0-0.1-0.1-0.1-0.1c-0.4,0.1-0.7,0.2-1.1,0.2c-0.4,0.1-0.8,0.2-1.2,0.2c0,0-0.1,0-0.1,0c0,0,0-0.1,0.1-0.1
		C68.1,72,68.2,72,68.4,71.9z"/>
	<path class="st0" d="M22.7,17.3c-0.1-0.1-0.2-0.1-0.2-0.2c0-0.2,0-0.4,0-0.6c0,0,0.3,0,0.5,0c0,0,0,0.1,0,0.1c0,0-0.1,0-0.1,0.1
		c-0.1,0-0.2,0.1-0.3,0.1C22.7,16.8,22.8,17,22.7,17.3c0.1-0.1,0.2-0.1,0.2-0.1c0.1-0.2,0.3-0.2,0.4-0.2c0.1,0,0.2,0,0.2,0.1
		c0.1,0.2,0.5,0.1,0.3,0.5c-0.1,0.1-0.1,0.2-0.1,0.3c-0.1-0.1-0.2-0.2-0.2-0.3c0-0.3-0.2-0.3-0.3-0.3c-0.1,0-0.2,0.1-0.2,0.3
		c0,0.2-0.1,0.4,0.2,0.6c0,0,0,0.1,0,0.2c-0.1,0-0.2,0-0.2,0c-0.2-0.1-0.3-0.3-0.3-0.5C22.8,17.5,22.8,17.4,22.7,17.3z"/>
	<path class="st0" d="M49.3,53.4c0-0.2,0-0.4,0-0.7c0-0.1,0-0.3,0-0.3c-0.2-0.1-0.1-0.3,0-0.4c0,0,0.1-0.1,0.1-0.1
		c0.1,0,0.1,0,0.2,0.1c0.1,0,0.1,0.1,0.1,0.2c0.2,0.2,0.4,0.3,0.1,0.6c-0.1,0.1-0.1,0.4,0,0.5c0.1,0.2,0,0.2-0.2,0.2
		C49.5,53.5,49.4,53.5,49.3,53.4z"/>
	<path class="st0" d="M85.3,61c0.4-0.3,0.8-0.7,1.1-1c0.2-0.3,0.4-0.6,0.6-0.9c0.1-0.1,0.2-0.2,0.3-0.3c0,0.1,0,0.3-0.1,0.4
		c-0.2,0.3-0.3,0.6-0.6,0.9c-0.5,0.6-1.1,1.1-1.8,1.4c-0.6,0.3-1.1,0.7-1.8,0.8c0,0-0.1,0-0.1,0c0,0,0-0.1,0-0.1
		c0.1,0,0.1,0,0.2-0.1C83.9,61.8,84.6,61.5,85.3,61z"/>
	<path class="st0" d="M19.2,12.1c0.2,0.2,0.3,0.5,0.3,0.8c0,0.1-0.1,0.3-0.2,0.3c-0.1,0-0.3-0.1-0.4-0.1c-0.3-0.2-0.5-0.5-0.7-0.7
		c-0.2-0.2-0.3-0.6-0.1-0.9c0.1-0.2,0.3-0.2,0.4-0.1C18.7,11.6,19,11.8,19.2,12.1 M18.5,11.6c-0.3-0.1-0.4,0-0.4,0.3
		c0,0.1,0.1,0.2,0.2,0.3c0.2,0.2,0.4,0.5,0.7,0.7c0.1,0.1,0.2,0.1,0.3,0.1c0-0.1,0.1-0.2,0.1-0.3C19.2,12.3,19,11.9,18.5,11.6z"/>
	<path class="st0" d="M54.7,59.4c0-0.3,0-0.6-0.4-0.6c0,0,0,0,0-0.1c0.1,0,0.3-0.1,0.4-0.1c0.1,0.1,0.2,0.2,0.3,0.4
		c0,0.2,0,0.3,0,0.5c0,0,0.1,0.1,0.1,0.1c0.2,0,0.5,0,0.7,0c0.2,0,0.3,0.1,0.3,0.3c0,0.2,0,0.4,0,0.6c0,0,0,0.1-0.1,0.1
		c-0.1,0-0.2,0-0.3-0.1c0,0,0-0.1,0-0.1c0.2-0.1,0-0.3,0.1-0.4c0,0-0.1-0.1-0.1-0.1c-0.2,0-0.3,0-0.5,0
		C54.9,59.9,54.7,59.7,54.7,59.4z"/>
	<path class="st0" d="M72.3,31.5C72.3,31.5,72.3,31.4,72.3,31.5c-0.1-0.2-0.1-0.3-0.1-0.3c0.1,0,0.2,0,0.3,0
		c0.2,0.1,0.4,0.3,0.6,0.4c0.1,0,0.1,0.1,0.2,0.1c0.4-0.1,0.6,0.2,0.8,0.4c0,0,0,0.1,0,0.1c-0.2,0-0.4,0-0.6,0c0,0-0.1,0-0.1,0
		c0,0,0.1,0,0.1,0c0,0,0.1-0.1,0.1-0.1c-0.1,0-0.1-0.1-0.2,0c-0.3,0.1-0.4,0-0.5-0.2C72.7,31.5,72.6,31.4,72.3,31.5z"/>
	<path class="st0" d="M37.6,37.6c0.1-0.4,0.1-0.7-0.2-0.9c0,0,0-0.1,0-0.2c0-0.1,0-0.1,0-0.2c0-0.1,0-0.1,0-0.2c0,0,0.1,0.1,0.1,0.1
		c0.1,0.1,0.2,0.1,0.3,0.2c0,0,0.1,0,0.1,0c0,0-0.1,0.1-0.1,0.1c0,0,0,0-0.1,0c-0.3,0-0.3,0-0.2,0.3c0.1,0.2,0.1,0.4,0.1,0.6
		c0,0.1,0,0.2,0,0.2c0.2,0,0.4,0.4,0.7,0.3c0,0,0.1,0,0.1,0c0,0,0,0.1-0.1,0.1c-0.3,0.2-0.4,0.2-0.7-0.1
		C37.9,37.7,37.7,37.7,37.6,37.6z"/>
	<path class="st0" d="M46.2,52.2c0-0.2,0-0.3,0.1-0.4c0,0,0-0.1,0-0.1c0,0,0.1,0.1,0.1,0.1c-0.2,0.3,0.1,0.2,0.2,0.3
		c0.3,0.1,0.5,0.3,0.7,0.5c0,0,0.1,0.1,0.1,0.1c0,0-0.1,0-0.1,0c-0.1,0-0.3,0-0.4-0.1c-0.2-0.1-0.4-0.2-0.6-0.2
		C46.3,52.4,46.2,52.3,46.2,52.2z"/>
	<path class="st0" d="M62.7,72.8c0.2-0.1,0.4-0.1,0.5-0.2c0.6-0.1,1.1-0.1,1.7-0.2c0,0,0.1,0,0.2,0.1c0,0-0.1,0.1-0.1,0.1
		c-0.3,0-0.7,0-1,0.1c-0.1,0-0.3,0.1-0.4,0.1C63.2,72.8,62.9,72.8,62.7,72.8z"/>
	<path class="st0" d="M51.6,54.8c0.2,0.1,0.3,0.3,0.2,0.5c0,0.2,0.1,0.2,0.2,0.2c0.2,0,0.4,0,0.5,0c0,0,0.1,0.1,0.1,0.1
		c0,0-0.1,0.1-0.1,0.1c-0.3,0-0.5,0-0.8-0.1c-0.1,0-0.1-0.2-0.1-0.3c0-0.2,0-0.4-0.3-0.4c-0.1,0-0.2,0-0.3-0.1c0,0,0-0.1,0.1-0.1
		C51.4,54.8,51.5,54.8,51.6,54.8z"/>
	<path class="st0" d="M53.8,59.7c0-0.1,0-0.2-0.1-0.2c-0.1-0.1,0-0.2,0.1-0.3c0.1-0.1,0.1-0.2,0.2-0.2c0.3,0,0.4,0.1,0.3,0.3
		c0,0.1-0.1,0.2-0.1,0.3C54.1,59.9,54.1,59.9,53.8,59.7z"/>
	<path class="st0" d="M23,16c-0.1,0-0.1,0-0.1,0c0.1-0.3-0.3-0.6-0.2-0.9c0-0.2,0-0.3-0.1-0.5c0,0,0.1-0.2,0.1-0.2
		c0,0.1,0.1,0.1,0.1,0.2c0,0.5,0.2,0.9,0.3,1.3C23.1,15.9,23.1,16,23,16z"/>
	<path class="st0" d="M88.3,52.8c0.1-0.4,0.2-0.7,0.2-1c0,0,0.1-0.1,0.1-0.1c0,0,0,0.1,0,0.1c-0.1,0.5-0.1,1-0.2,1.6
		c0,0.1-0.1,0.1-0.1,0.1c0-0.1-0.1-0.1-0.1-0.2C88.3,53.2,88.3,53,88.3,52.8z"/>
	<path class="st0" d="M32.1,31.6c-0.3-0.3-0.7-0.6-1-0.9c0,0,0-0.1-0.1-0.1c0,0,0.1,0,0.1,0.1c0.1,0.1,0.2,0.2,0.4,0.3
		c0.3,0.2,0.5,0.4,0.8,0.6c0,0,0.1,0,0.1,0.1c0.1,0.1,0.1,0.2,0.2,0.3c-0.1-0.1-0.2-0.1-0.3-0.2C32.2,31.7,32.1,31.6,32.1,31.6z"/>
	<path class="st0" d="M48.5,52.6c0-0.1,0-0.1,0-0.2c0-0.1,0-0.2,0-0.3c0.1,0,0.2,0,0.3,0.1c0.1,0.1,0.4,0.1,0.4,0.4c0,0,0,0.1,0,0.1
		C48.9,52.7,48.7,52.7,48.5,52.6z"/>
	<path class="st0" d="M52.9,55.6c-0.2-0.1-0.3-0.2-0.4-0.3c-0.1-0.1-0.1-0.1-0.1-0.2c0.1,0,0.1,0,0.2,0c0.1,0,0.3,0.1,0.4,0.1
		c0.1,0.1,0.2,0.2,0.2,0.3C53.2,55.6,53,55.5,52.9,55.6z"/>
	<path class="st0" d="M45.4,31.1c0.2,0.1,0.4,0.1,0.6,0.2c0,0,0.1,0,0.1,0.1c0,0-0.1,0-0.1,0c-0.4,0-0.8,0-1.1-0.1
		c-0.1,0-0.1-0.1-0.2-0.1c0.1,0,0.1-0.1,0.2-0.1C45,31.1,45.2,31.1,45.4,31.1z"/>
	<path class="st0" d="M73.1,70.9c-0.2,0-0.4,0-0.5,0c0,0,0,0,0-0.1c0.1-0.1,0.3-0.1,0.4-0.2c0.3-0.1,0.5-0.1,0.8-0.2
		c0.1,0,0.2,0,0.2,0c-0.1,0-0.1,0.1-0.2,0.1C73.7,70.8,73.4,70.9,73.1,70.9z"/>
	<path class="st0" d="M52.3,54.3c0-0.2-0.2-0.1-0.4-0.2c0,0-0.1,0-0.1,0c0,0,0.1-0.1,0.1-0.1c0.2,0,0.5-0.1,0.5,0.2
		c0,0.1,0.1,0.4,0.4,0.2c0,0,0.2,0.1,0.3,0.2c-0.1,0-0.1,0.1-0.2,0.1C52.6,54.7,52.5,54.5,52.3,54.3z"/>
	<path class="st0" d="M57,59.7c-0.1,0-0.1-0.1-0.2-0.1c0.1,0,0.3-0.1,0.4-0.1c0.1,0.1,0.4,0.1,0.2,0.4c0,0.1,0.1,0.2,0.1,0.4
		c0,0,0,0.1,0,0.1c-0.1,0-0.2,0-0.2,0c0,0,0-0.1,0-0.1C57.2,60.1,57.4,59.8,57,59.7z"/>
	<path class="st0" d="M55.7,58.8c0.2-0.2,0.7-0.1,0.8,0c0,0,0.1,0,0.1,0.1c0,0.1,0.3,0.1,0.1,0.2c-0.1,0.1-0.2,0-0.3-0.1
		C56.2,58.9,55.9,58.8,55.7,58.8z"/>
	<path class="st0" d="M26.3,59.1c0,0.1,0,0.1,0,0.2c0,0-0.1,0-0.1,0c-0.2-0.2-0.4-0.4-0.6-0.7c0-0.1,0-0.1,0-0.2
		c0.1,0,0.2,0,0.2,0.1C26,58.6,26.1,58.8,26.3,59.1z"/>
	<path class="st0" d="M86.9,43.9c0.1,0.1,0.1,0.2,0.2,0.3c0,0.1,0,0.1,0,0.2c-0.1,0-0.1-0.1-0.2-0.1c-0.1-0.2-0.2-0.3-0.4-0.4
		c-0.1,0-0.1,0-0.2-0.1c0,0,0-0.1,0.1-0.1c0.1,0,0.2,0,0.2,0C86.7,43.8,86.8,43.8,86.9,43.9z"/>
	<path class="st0" d="M27.8,27.7c-0.2-0.1-0.3-0.2-0.5-0.3c0,0-0.1-0.1-0.1-0.2c0,0,0.1,0,0.1,0c0.4,0.2,0.7,0.5,1.1,0.7
		c0,0,0.1,0.1,0.1,0.1c-0.1,0-0.1,0-0.2,0C28.2,28,28,27.9,27.8,27.7z"/>
	<path class="st0" d="M29.4,29c0.2,0.2,0.3,0.3,0.5,0.5c0,0,0,0.1,0,0.2c0,0-0.1,0-0.1-0.1c-0.3-0.3-0.7-0.6-1-1c0,0,0-0.1-0.1-0.1
		c0,0,0.1,0,0.1,0.1C29.1,28.7,29.2,28.8,29.4,29z"/>
	<path class="st0" d="M90.3,52.7c0-0.2,0-0.4,0.1-0.6c0,0,0.1-0.1,0.1-0.1c0,0,0,0.1,0,0.1c-0.1,0.4-0.2,0.9-0.2,1.3
		c0,0-0.1,0.1-0.1,0.1c0,0,0-0.1,0-0.1C90.2,53.2,90.2,52.9,90.3,52.7z"/>
	<path class="st0" d="M22.7,20.3c0,0.2,0.1,0.5,0.1,0.7c0,0-0.1,0.1-0.2,0.1c0,0-0.1-0.1-0.1-0.1c0-0.2,0-0.3,0-0.5
		C22.5,20.4,22.6,20.4,22.7,20.3z"/>
	<path class="st0" d="M43.1,46.3c0-0.1-0.1-0.2-0.1-0.2c0.1,0,0.1,0.1,0.2,0.1c0.1,0,0.3,0,0.4,0c0,0,0.1,0.1,0.1,0.1
		c0,0-0.1,0.1-0.1,0.1C43.4,46.3,43.3,46.3,43.1,46.3z"/>
	<path class="st0" d="M66.5,72.4c-0.1,0-0.3,0-0.4,0C66.3,72.3,66.4,72.3,66.5,72.4c0.2-0.1,0.4-0.1,0.6-0.2c0,0,0.1,0,0.1,0
		c0.1,0,0.2,0,0.3,0c-0.1,0-0.2,0.1-0.3,0.1C67,72.3,66.8,72.3,66.5,72.4z"/>
	<path class="st0" d="M38.2,35.8c0,0.1,0.1,0.1,0.1,0.2c0,0.1,0,0.1,0,0.2c-0.1,0-0.1-0.1-0.2-0.1c-0.1-0.1-0.2-0.2-0.4-0.3
		c0,0-0.1-0.1-0.1-0.1c0,0,0.1-0.1,0.1-0.1C38,35.6,38.1,35.7,38.2,35.8z"/>
	<path class="st0" d="M57.5,69.3c0.1-0.1,0.2-0.1,0.2-0.1c0,0,0.1,0.1,0.1,0.1c0,0.1-0.1,0.2-0.1,0.3C57.4,69.7,57.4,69.5,57.5,69.3
		z"/>
	<path class="st0" d="M37.7,39.9c0.1,0,0.2,0,0.2,0C37.9,39.9,37.8,39.9,37.7,39.9c-0.2,0.1-0.4,0.1-0.6,0.1c0,0-0.1,0-0.1,0
		c0,0,0-0.1,0.1-0.1C37.3,39.8,37.5,39.7,37.7,39.9z"/>
	<path class="st0" d="M50.8,53.4c0.2,0,0.5,0,0.7,0c0,0,0.1,0,0.1,0.1c0,0-0.1,0.1-0.1,0.1C51.3,53.6,51,53.7,50.8,53.4z"/>
	<path class="st0" d="M66.1,68.6c0.2,0,0.3-0.1,0.4-0.1c0.1,0,0.1,0,0.2,0.1c0,0-0.1,0-0.1,0c-0.3,0.1-0.6,0.1-0.8,0.2
		c0,0-0.1,0-0.1,0c0,0,0.1-0.1,0.1-0.1C65.8,68.6,65.9,68.6,66.1,68.6z"/>
	<path class="st0" d="M57.2,72.4c0.2,0,0.5,0,0.7,0c0,0,0.1,0,0.1,0c0,0-0.1,0.1-0.1,0.1c-0.4,0-0.8,0-1.2,0c0,0-0.1,0-0.1,0
		c0,0,0,0,0.1,0C56.8,72.4,57,72.4,57.2,72.4z"/>
	<path class="st0" d="M44.4,47.1c0.1,0.2,0.1,0.2-0.1,0.2c-0.1,0-0.3,0-0.5,0c0,0-0.1-0.1-0.1-0.1c0,0,0.1-0.1,0.1-0.1
		C44,47.1,44.2,47.1,44.4,47.1z"/>
	<path class="st0" d="M89,48.6c0,0.2-0.1,0.4-0.1,0.6c0,0.1,0,0.1-0.1,0.2c0-0.1-0.1-0.1-0.1-0.2c0-0.2,0.1-0.4,0.2-0.6
		C88.9,48.6,89,48.6,89,48.6z"/>
	<path class="st0" d="M19.2,15.6c0.2-0.1,0.3,0.1,0.3,0.2c0,0,0,0.1,0,0.2c0,0.1,0,0.1,0.1,0.2c-0.1,0-0.1,0-0.2,0
		c-0.1,0-0.1-0.1-0.1-0.2C19.3,15.9,19.2,15.8,19.2,15.6z"/>
	<path class="st0" d="M35.1,35.5c-0.1-0.1-0.1-0.2-0.2-0.2C35,35.3,35.1,35.3,35.1,35.5c0.2,0,0.3,0.2,0.4,0.3c0,0,0,0.1,0,0.1
		c0,0-0.1,0-0.1,0C35.4,35.7,35.3,35.6,35.1,35.5z"/>
	<path class="st0" d="M40.3,72.1c0.1,0,0.1,0.1,0.2,0.1c-0.1,0-0.1,0-0.2,0.1c0,0,0,0,0,0c-0.1,0-0.3-0.1-0.4-0.1c0,0,0,0,0-0.1
		C40,72.1,40.1,72.1,40.3,72.1z"/>
	<path class="st0" d="M69.5,72.2c0.2-0.1,0.3-0.1,0.5,0c0,0,0.1,0.1,0,0.1C70,72.4,69.6,72.3,69.5,72.2z"/>
	<path class="st0" d="M36.5,39.4c-0.1,0-0.2,0-0.2,0c0,0-0.1,0-0.1,0c0,0,0-0.1,0-0.1c0.1-0.1,0.5,0,0.5,0.1c0,0.1,0,0.2,0,0.2
		C36.6,39.6,36.6,39.5,36.5,39.4z"/>
	<path class="st0" d="M45.7,51.3c-0.1-0.1-0.1-0.1-0.2-0.2c0,0,0-0.2,0-0.2c0.1,0,0.2,0,0.3,0c0,0,0,0.1,0,0.1
		C45.8,51.2,45.8,51.2,45.7,51.3z"/>
	<path class="st0" d="M56.8,69.5c0-0.2,0-0.2,0.1-0.2c0.1,0,0.2,0.1,0.1,0.2C57,69.7,56.9,69.7,56.8,69.5z"/>
	<path class="st0" d="M51.5,73.9c-0.1,0-0.3,0-0.4,0c-0.1,0-0.1-0.1-0.2-0.1c0,0,0.1,0,0.1-0.1c0.1,0,0.2,0,0.4-0.1
		c0.1,0,0.1,0,0.2,0.1C51.5,73.8,51.5,73.8,51.5,73.9z"/>
	<path class="st0" d="M72.1,71.3c0.1,0,0.2,0,0.2,0c0.1,0,0.3,0,0.4,0.1c0,0,0,0,0,0C72.5,71.5,72.2,71.5,72.1,71.3z"/>
	<path class="st0" d="M45.1,48.1c-0.1,0-0.2-0.1-0.3-0.1c0.1,0,0.2,0,0.3-0.1c0.1,0,0.2,0.3,0.2,0.4c0,0,0,0,0,0c0,0,0,0-0.1-0.1
		C45.2,48.2,45.2,48.2,45.1,48.1z"/>
	<path class="st0" d="M81.9,63.1c0.1,0,0.1,0,0.1,0c0.1,0,0.1,0,0.2,0c-0.1,0.1-0.1,0.1-0.2,0.1c-0.1,0.1-0.3,0.1-0.4,0.1
		c0,0-0.1,0-0.1,0c0,0,0-0.1,0.1-0.1C81.8,63.1,81.8,63.1,81.9,63.1z"/>
	<path class="st0" d="M39.8,42.6c0,0.2,0,0.3,0,0.5c0,0,0,0.1-0.1,0.1c0,0,0-0.1,0-0.1c0-0.2,0-0.4,0-0.6c0,0,0-0.1,0.1-0.1
		C39.8,42.5,39.8,42.5,39.8,42.6z"/>
	<path class="st0" d="M62.8,64.8c0.1,0.1,0.2,0.2,0.3,0.3c0,0,0,0-0.1,0c-0.1,0-0.2,0.2-0.3,0C62.7,65,62.8,64.9,62.8,64.8z"/>
	<path class="st0" d="M70.6,65.8c0.1,0,0.2,0,0.2,0c-0.1,0-0.1,0.1-0.2,0.1c-0.1,0.1-0.3,0.1-0.4,0.2c0,0-0.1,0-0.1-0.1
		c0,0,0.1,0,0.1-0.1C70.3,65.9,70.4,65.8,70.6,65.8z"/>
	<path class="st0" d="M33.4,32.7c-0.1-0.1-0.3-0.2-0.4-0.3c0,0,0-0.1,0-0.1c0,0,0.1,0,0.1,0C33.2,32.4,33.3,32.6,33.4,32.7
		C33.4,32.7,33.4,32.7,33.4,32.7z"/>
	<path class="st0" d="M47.3,30.4c0.1,0,0.2,0,0.2,0c-0.1,0-0.1,0.1-0.2,0.1c-0.1,0-0.3,0-0.4,0c0,0-0.1,0-0.1,0c0,0,0-0.1,0-0.1
		C47,30.4,47.1,30.4,47.3,30.4z"/>
	<path class="st0" d="M58.1,73.8c0.2,0,0.4,0,0.5,0.1c0,0,0.1,0,0.1,0c0,0,0,0,0,0c-0.1,0.1-0.7,0-0.8-0.1c0,0-0.1-0.1-0.1-0.2
		c0.1,0,0.1,0.1,0.2,0.1C58,73.8,58,73.8,58.1,73.8z"/>
	<path class="st0" d="M34,36.7c0.2,0,0.4,0,0.5,0c0,0,0.1,0,0.1,0.1c0,0,0,0.1,0,0.1C34.3,36.8,34.1,36.8,34,36.7z"/>
	<path class="st0" d="M50.7,56.3c-0.1-0.1-0.2-0.3-0.3-0.4c0,0,0-0.1,0-0.1c0.1,0,0.3,0,0.3,0.1C50.8,56,50.7,56.2,50.7,56.3z"/>
	<path class="st0" d="M82.5,62.4c-0.2,0.1-0.4,0.1-0.6,0.2c0,0-0.1,0-0.1,0c0,0,0.1-0.1,0.1-0.1C82.1,62.4,82.3,62.4,82.5,62.4
		C82.6,62.3,82.6,62.3,82.5,62.4C82.6,62.3,82.6,62.3,82.5,62.4z"/>
	<path class="st0" d="M77.3,70C77.3,70.1,77.3,70.1,77.3,70c-0.2,0.1-0.3,0.1-0.4,0.1c0,0,0,0,0-0.1c0.1,0,0.2-0.1,0.3-0.1
		C77.2,70,77.3,70,77.3,70C77.3,70,77.3,70,77.3,70C77.3,70,77.3,70,77.3,70z"/>
	<path class="st0" d="M80.6,63.6c-0.2,0-0.3,0.1-0.5,0.1c0.1-0.1,0.2-0.2,0.4-0.3c0,0,0.1,0,0.1,0c0.1,0,0.1,0,0.2,0
		C80.7,63.5,80.6,63.6,80.6,63.6z"/>
	<path class="st0" d="M53,56.4c0.2,0.1,0.2,0.1,0.2-0.2c0,0,0-0.1,0-0.1c0,0,0.1,0.1,0.1,0.1c0,0.1,0,0.3-0.1,0.3
		c-0.1,0.1-0.2,0-0.4,0c0,0,0-0.1,0-0.2C52.9,56.3,52.9,56.3,53,56.4z"/>
	<path class="st0" d="M78.8,64.2c0.1-0.1,0.2-0.1,0.4-0.2c0,0,0.1,0,0.1,0c0,0,0,0.1-0.1,0.1c-0.1,0.1-0.3,0.2-0.4,0.2
		c-0.1,0-0.1,0-0.2,0.1C78.7,64.4,78.8,64.3,78.8,64.2z"/>
	<path class="st0" d="M26.8,22.4C26.8,22.4,26.8,22.4,26.8,22.4c-0.1-0.1-0.1-0.2-0.2-0.3c0,0,0.1,0,0.1,0c0.1,0.1,0.2,0.3,0.3,0.4
		c0,0,0,0,0,0.1C26.9,22.5,26.9,22.5,26.8,22.4z"/>
	<path class="st0" d="M42.6,45.6c0.1,0,0.2,0,0.2,0c0.1,0,0.1,0.1,0.2,0.1c0,0,0,0.1,0,0.1c-0.1,0-0.1-0.1-0.2-0.1
		c-0.1,0-0.1,0-0.2,0c-0.1,0-0.1,0-0.2-0.1C42.5,45.6,42.5,45.6,42.6,45.6z"/>
	<path class="st0" d="M48.7,26.8c0.1,0,0.2,0,0.2,0c-0.1,0-0.1,0.1-0.2,0.1c-0.1,0-0.3,0-0.4,0c0,0,0-0.1,0-0.1
		C48.4,26.8,48.6,26.8,48.7,26.8z"/>
	<path class="st0" d="M46.2,30.7c0-0.1,0.1-0.1,0.1-0.2c0,0.1,0.1,0.1,0.1,0.2c0,0.1-0.1,0.2-0.2,0.3c0,0-0.1-0.1-0.1-0.1
		C46.2,30.9,46.2,30.8,46.2,30.7z"/>
	<path class="st0" d="M45.8,73c0,0.1,0,0.2-0.1,0.2c-0.1,0-0.2-0.1-0.3-0.1c0,0,0-0.1,0.1-0.1C45.6,72.9,45.7,72.9,45.8,73z"/>
	<path class="st0" d="M76.6,65.5c-0.1,0-0.1,0-0.1,0c0,0,0-0.1,0-0.1c0.2-0.1,0.3-0.2,0.5-0.3c0,0,0.1,0,0.1,0c0,0,0,0.1-0.1,0.1
		C76.9,65.3,76.8,65.4,76.6,65.5z"/>
	<path class="st0" d="M22,13.6C22,13.6,22,13.6,22,13.6C22,13.7,22,13.9,22,14c0,0-0.1,0-0.1,0c-0.1-0.1-0.1-0.2-0.2-0.3
		C21.8,13.6,21.9,13.6,22,13.6z"/>
	<path class="st0" d="M90.8,50c0,0.1,0,0.1-0.1,0.1c0,0-0.1,0-0.1,0.1c0,0,0-0.1,0-0.1c0-0.1,0.1-0.2,0.1-0.3c0-0.1,0.1-0.2,0.1-0.3
		C90.8,49.6,90.8,49.8,90.8,50C90.8,49.9,90.8,49.9,90.8,50z"/>
	<path class="st0" d="M53.7,57.2c0.1,0,0.2,0.1,0.3,0.1c0,0,0.1,0,0.1,0c0,0,0,0.1-0.1,0.1c-0.1,0-0.2,0.1-0.3,0.1
		C53.5,57.4,53.6,57.3,53.7,57.2z"/>
	<path class="st0" d="M40.8,43.2c0-0.1,0-0.2-0.1-0.3c0.1,0,0.1,0.1,0.2,0.1c0.1,0,0.1,0.1,0.2,0.1C41,43.1,40.9,43.2,40.8,43.2z"/>
	<path class="st0" d="M24.2,18.6C24.2,18.6,24.2,18.5,24.2,18.6c0-0.1,0.1-0.1,0.1-0.1c0.1,0,0.2,0.1,0.3,0.1c0,0,0,0.1,0,0.1
		C24.5,18.7,24.3,18.7,24.2,18.6z"/>
	<path class="st0" d="M54.1,29c0.2,0,0.3,0,0.5,0.1c-0.1,0-0.3,0-0.4,0.1C54.2,29.1,54.2,29.1,54.1,29C54.1,29,54.1,29.1,54.1,29
		c-0.1,0-0.2,0-0.2,0C54,29,54,29,54.1,29z"/>
	<path class="st0" d="M36.1,38.6c0,0.1,0,0.1,0,0.2c0,0-0.1-0.1-0.1-0.1c0,0-0.1-0.1-0.1-0.1c0-0.1,0-0.1,0-0.2c0,0,0.1,0,0.1,0
		C36.1,38.4,36.1,38.5,36.1,38.6z"/>
	<path class="st0" d="M77.7,64.8c0.1,0,0.2,0,0.3,0c-0.1,0.1-0.1,0.1-0.2,0.2c-0.1,0-0.2,0.1-0.3,0.1C77.6,65,77.7,64.9,77.7,64.8z"
		/>
	<path class="st0" d="M24.2,24.9c0.1,0.1,0.1,0.1,0.1,0.2c-0.1,0-0.1-0.1-0.2-0.1C24.2,25,24.2,25,24.2,24.9c-0.2,0-0.2-0.1-0.3-0.2
		c0.1,0,0.2,0,0.2,0.1C24.2,24.8,24.2,24.9,24.2,24.9z"/>
	<path class="st0" d="M40.6,32c0-0.1,0-0.1-0.1-0.2c0.1,0.1,0.2,0.1,0.3,0.2c0,0,0.1,0.1,0.1,0.1C40.9,32.1,40.8,32,40.6,32z"/>
	<path class="st0" d="M69.3,67.8c-0.1,0-0.1,0-0.2-0.1c0.1,0,0.1-0.1,0.2-0.1c0.1,0,0.2,0,0.3,0c-0.1,0-0.1,0.1-0.2,0.1
		C69.3,67.8,69.3,67.8,69.3,67.8z"/>
	<path class="st0" d="M26.6,26.8c0.1,0.1,0.3,0.2,0.4,0.3c0,0,0,0,0,0C26.9,27.1,26.8,27,26.6,26.8C26.7,26.9,26.6,26.9,26.6,26.8z"
		/>
	<path class="st0" d="M29.6,31.3c0-0.1,0.1-0.1,0.1-0.1c0.1,0,0.2,0,0.2,0c0,0,0,0,0,0.1c-0.1,0-0.1,0-0.2,0
		C29.8,31.4,29.7,31.4,29.6,31.3z"/>
	<path class="st0" d="M50.9,28.9C50.8,28.9,50.8,28.9,50.9,28.9c-0.1,0-0.2-0.1-0.3-0.1c0.1,0,0.1-0.1,0.2-0.1
		C50.9,28.8,51,28.8,50.9,28.9C50.9,29,50.9,29,50.9,28.9C50.9,29,50.9,29,50.9,28.9z"/>
	<path class="st0" d="M22.7,19.3c0,0.1,0,0.2,0,0.3c0,0-0.1-0.1-0.1-0.1C22.6,19.4,22.6,19.3,22.7,19.3z"/>
	<path class="st0" d="M84.6,62.2c-0.1,0.1-0.3,0.1-0.4,0.2c0.1-0.1,0.2-0.1,0.3-0.2c0,0,0.1,0,0.1,0c0,0,0.1,0,0.1,0
		C84.7,62.1,84.6,62.2,84.6,62.2z"/>
	<path class="st0" d="M18.5,44C18.6,44,18.6,44.1,18.5,44c0,0.2,0,0.2-0.1,0.3c0-0.1-0.1-0.1-0.1-0.2c0,0,0-0.1,0-0.1
		c0,0,0-0.1,0.1-0.1C18.5,43.9,18.5,43.9,18.5,44z"/>
	<path class="st0" d="M60,52.5c0-0.1,0.1-0.1,0.1-0.2c0,0.1,0.1,0.2,0.1,0.2C60.2,52.5,60.1,52.5,60,52.5z"/>
	<path class="st0" d="M21.3,39.5c0-0.1-0.1-0.2-0.1-0.3c0.1,0,0.1,0,0.1,0C21.4,39.4,21.4,39.5,21.3,39.5z"/>
	<path class="st0" d="M39.6,40.8c0,0.1,0,0.1,0,0.2c-0.1,0-0.1,0-0.2-0.1C39.4,40.9,39.5,40.9,39.6,40.8z"/>
	<path class="st0" d="M18.2,59c0-0.1,0-0.2,0-0.2c0,0,0.1,0,0.1,0c0,0.1,0.1,0.2,0.1,0.3C18.3,59,18.3,59,18.2,59z"/>
	<path class="st0" d="M18.5,42.7c0,0.2,0,0.5,0,0.8c0,0,0,0.1,0,0.1c0,0,0-0.1,0-0.1C18.4,43.2,18.4,43,18.5,42.7z"/>
	<path class="st0" d="M23.8,24.4c0,0.1,0,0.1,0,0.1c-0.1-0.1-0.2-0.2-0.3-0.3c0,0,0.1,0,0.1,0C23.7,24.2,23.7,24.3,23.8,24.4z"/>
	<path class="st0" d="M44.7,46.1c0,0,0.1,0,0.1,0c0.1,0,0.1,0.1,0.1,0.1c-0.1,0-0.1,0-0.2,0.1C44.7,46.3,44.7,46.2,44.7,46.1z"/>
	<path class="st0" d="M48.4,54.1c0.1,0,0.2,0.1,0.3,0.1c0,0,0,0.1,0,0.1c0,0-0.1,0-0.1,0C48.5,54.2,48.5,54.2,48.4,54.1z"/>
	<path class="st0" d="M23.6,16.5c-0.1,0-0.1,0-0.2,0.1c0-0.1,0-0.1,0-0.2C23.4,16.4,23.5,16.4,23.6,16.5z"/>
	<path class="st0" d="M18.6,42c0.2,0,0.2,0,0.2,0.2c0,0,0,0.1-0.1,0.1C18.7,42.2,18.6,42.1,18.6,42z"/>
	<path class="st0" d="M85.3,61.7c0.1-0.1,0.2-0.2,0.3-0.2c0,0,0.1-0.1,0.1-0.1c0,0.1,0,0.1-0.1,0.2C85.5,61.6,85.4,61.6,85.3,61.7z"
		/>
	<path class="st0" d="M55.8,55.7c0,0.1,0,0.1,0,0.2c-0.1,0-0.2,0-0.2,0c0,0,0-0.1,0-0.2C55.7,55.7,55.8,55.7,55.8,55.7z"/>
	<path class="st0" d="M74.1,66.6C74.1,66.5,74.1,66.5,74.1,66.6c0.2-0.1,0.3-0.1,0.4-0.1c0,0,0,0.1,0,0.1
		C74.3,66.5,74.2,66.5,74.1,66.6z"/>
	<path class="st0" d="M26.6,26.8c-0.1,0-0.2-0.1-0.2-0.2c0,0-0.1-0.1-0.1-0.2c0.1,0,0.1,0,0.2,0.1C26.5,26.6,26.6,26.7,26.6,26.8z"
		/>
	<path class="st0" d="M87,51.7C87,51.7,87.1,51.8,87,51.7c0.1,0.2,0.1,0.3,0.1,0.5c0,0,0,0-0.1,0C87,52.1,87,51.9,87,51.7
		C87,51.8,87,51.7,87,51.7z"/>
	<path class="st0" d="M55.1,59.1c0.1-0.2,0.2-0.1,0.4-0.1c0,0,0,0.1,0,0.1C55.4,59,55.3,59.1,55.1,59.1z"/>
	<path class="st0" d="M87.4,59.4c0.1-0.1,0.1-0.2,0.2-0.2C87.5,59.2,87.5,59.3,87.4,59.4c0.1,0.1,0,0.2,0,0.2
		C87.4,59.5,87.4,59.5,87.4,59.4z"/>
	<path class="st0" d="M75.9,70.8c0,0-0.1,0-0.1,0c0,0-0.1-0.1-0.1-0.1c0.1,0,0.1,0,0.2,0C76,70.6,76.1,70.6,75.9,70.8z"/>
	<path class="st0" d="M56.5,60c0-0.1,0-0.1,0-0.2c0,0,0.1,0,0.1,0C56.5,59.8,56.5,59.9,56.5,60z"/>
	<path class="st0" d="M62.1,72.9c0.1,0,0.1,0,0.2,0c0,0-0.1,0.1-0.1,0.1C62.2,73,62.1,72.9,62.1,72.9z"/>
	<path class="st0" d="M51.1,54.8c0,0.1,0,0.1,0,0.2c0,0-0.1-0.1-0.1-0.1c0-0.1,0-0.1,0-0.2C51,54.7,51.1,54.7,51.1,54.8z"/>
	<path class="st0" d="M37,41.1c0.1,0.1,0.1,0.1,0.1,0.2c0,0,0,0-0.1,0C37.1,41.2,37,41.2,37,41.1z"/>
	<path class="st0" d="M33.7,36.1c-0.1,0-0.1-0.1-0.1-0.1c0.1,0,0.1,0,0.2-0.1C33.7,35.9,33.7,36,33.7,36.1z"/>
	<path class="st0" d="M70.5,67.9c0.1,0,0.1,0,0.1,0c-0.1,0-0.2,0.1-0.3,0.1c0,0-0.1,0-0.1,0c0,0,0.1,0,0.1-0.1
		C70.4,67.9,70.4,67.9,70.5,67.9z"/>
	<path class="st0" d="M75.3,33C75.3,33,75.3,33,75.3,33c0.1,0,0.3-0.1,0.4-0.1c0,0,0,0,0,0C75.6,33,75.4,33,75.3,33z"/>
	<path class="st0" d="M20.7,46.5c0,0,0.1-0.1,0.1-0.1c0,0,0.1,0.1,0.1,0.1C20.9,46.6,20.8,46.6,20.7,46.5
		C20.7,46.6,20.7,46.6,20.7,46.5z"/>
	<path class="st0" d="M42.5,43.9c-0.1,0-0.1,0-0.2-0.1c0,0,0-0.1,0-0.1C42.3,43.8,42.4,43.8,42.5,43.9z"/>
	<path class="st0" d="M39,31.2c0.1,0.1,0.1,0.1,0.2,0.2c0,0,0,0,0,0c-0.1-0.1-0.2-0.1-0.2-0.2C38.9,31.2,38.9,31.2,39,31.2z"/>
	<path class="st0" d="M75.4,66c-0.1,0-0.2,0.1-0.2,0.1c0,0,0-0.1,0-0.1C75.3,66,75.4,66,75.4,66C75.5,65.9,75.5,65.9,75.4,66
		C75.5,66,75.5,66,75.4,66z"/>
	<path class="st0" d="M48.6,54.6c0-0.1,0-0.1,0.1-0.2c0,0.1,0.1,0.1,0.1,0.2C48.7,54.6,48.6,54.6,48.6,54.6z"/>
	<path class="st0" d="M48,50.8c0-0.1-0.1-0.2-0.1-0.3c0,0,0,0,0.1,0C48,50.6,48,50.7,48,50.8z"/>
	<path class="st0" d="M72,67.5c-0.1,0-0.1,0-0.2,0c0,0,0-0.1,0-0.1c0.1,0,0.1-0.1,0.2-0.1C72,67.4,72,67.4,72,67.5z"/>
	<path class="st0" d="M21.5,15.5c0-0.1,0.1-0.1,0.1-0.2c0,0.1,0,0.2,0,0.3C21.6,15.6,21.6,15.6,21.5,15.5z"/>
	<path class="st0" d="M90.5,48.8c0-0.1,0-0.1,0-0.2c0,0,0.1,0.1,0.1,0.1C90.6,48.8,90.6,48.9,90.5,48.8
		C90.6,48.9,90.6,48.9,90.5,48.8z"/>
	<path class="st0" d="M47.8,50.5c0-0.1,0-0.1,0.1-0.2c0,0,0.1,0.1,0.1,0.1C47.9,50.4,47.8,50.5,47.8,50.5z"/>
	<path class="st0" d="M30.5,32.3C30.5,32.3,30.5,32.3,30.5,32.3c-0.1,0-0.2-0.1-0.2-0.2c0,0,0,0,0,0C30.4,32.2,30.5,32.2,30.5,32.3z
		"/>
	<path class="st0" d="M75,66.2c-0.1,0.1-0.2,0.1-0.2,0.1c0,0,0-0.1,0-0.1C74.8,66.2,74.9,66.2,75,66.2z"/>
	<path class="st0" d="M70.4,57.7c0,0.1,0,0.1,0,0.2c0-0.1-0.1-0.1-0.1-0.2c0-0.1,0-0.1,0-0.2C70.4,57.6,70.4,57.6,70.4,57.7z"/>
	<path class="st0" d="M23.5,25.8c0-0.1,0-0.1,0-0.1c0.1,0,0.1,0.1,0.1,0.1c0,0,0,0.1,0,0.1C23.6,25.9,23.5,25.9,23.5,25.8z"/>
	<path class="st0" d="M45.3,48.6C45.4,48.6,45.4,48.6,45.3,48.6c0.1,0.1,0.1,0.2,0.1,0.3C45.4,48.8,45.3,48.8,45.3,48.6
		C45.3,48.7,45.3,48.6,45.3,48.6z"/>
	<path class="st0" d="M71.4,65.5c0,0,0.1-0.1,0.2-0.1c0,0,0,0,0.1,0c0,0-0.1,0-0.1,0C71.5,65.5,71.5,65.5,71.4,65.5z"/>
	<path class="st0" d="M33.8,33c-0.1,0-0.2-0.1-0.3-0.1c0,0,0,0,0,0C33.7,32.8,33.7,32.9,33.8,33z"/>
	<path class="st0" d="M57.2,62.5c0-0.1,0.1-0.1,0.1-0.1c0,0.1,0,0.1,0,0.2C57.3,62.6,57.3,62.5,57.2,62.5z"/>
	<path class="st0" d="M89,53.1c0,0,0,0.1,0,0.1c0,0-0.1,0.1-0.1,0.1C89,53.3,89,53.3,89,53.1C89,53.2,89,53.2,89,53.1z"/>
	<path class="st0" d="M71.1,67.7c0,0,0,0.1,0,0.1c0,0-0.1,0-0.1,0C71,67.8,71,67.7,71.1,67.7z"/>
	<path class="st0" d="M20,40c0.1,0,0.1,0,0.1,0c0,0.1-0.1,0.1-0.1,0.2C20,40.2,20,40.1,20,40z"/>
	<path class="st0" d="M68.4,30.4c0,0.1,0,0.1,0,0.2c0,0-0.1,0-0.1,0C68.4,30.6,68.4,30.5,68.4,30.4z"/>
	<path class="st0" d="M86.4,60.7c0.1,0,0.1-0.1,0.2-0.1c0,0,0,0,0,0.1C86.5,60.7,86.4,60.7,86.4,60.7C86.4,60.7,86.4,60.7,86.4,60.7
		z"/>
	<path class="st0" d="M38.5,38.2c0,0,0.1,0,0.1,0c0.1,0,0.1,0,0.1,0.1c0,0,0,0,0,0.1C38.7,38.3,38.6,38.3,38.5,38.2
		C38.6,38.3,38.5,38.3,38.5,38.2z"/>
	<path class="st0" d="M37.1,71.3c0,0.1,0,0.1,0,0.1c0,0-0.1,0-0.1,0C37,71.3,37,71.3,37.1,71.3z"/>
	<path class="st0" d="M59.1,60.4C59.2,60.4,59.2,60.4,59.1,60.4c0.1-0.1,0.2-0.1,0.2-0.1c0,0,0,0,0,0.1c-0.1,0-0.1,0-0.2,0
		C59.2,60.5,59.2,60.5,59.1,60.4z"/>
	<path class="st0" d="M22.2,16.4c-0.1-0.1-0.1-0.1-0.1-0.1C22.1,16.3,22.2,16.3,22.2,16.4C22.3,16.4,22.2,16.4,22.2,16.4z"/>
	<path class="st0" d="M83.4,62.7c-0.1,0-0.1,0.1-0.2,0.1c0,0,0,0,0-0.1C83.3,62.7,83.3,62.7,83.4,62.7z"/>
	<path class="st0" d="M49.9,53.4c0.1,0,0.1,0.1,0.1,0.1c0,0,0,0,0,0C50,53.5,50,53.5,49.9,53.4z"/>
	<path class="st0" d="M66.4,70c0,0.1-0.1,0.1-0.1,0.1c0,0,0-0.1-0.1-0.1C66.3,70,66.4,70,66.4,70z"/>
	<path class="st0" d="M48.3,54.1c-0.1,0-0.1,0-0.1,0c0,0,0-0.1,0-0.1C48.3,54,48.3,54.1,48.3,54.1z"/>
	<path class="st0" d="M29.1,30.4C29.1,30.4,29.1,30.4,29.1,30.4c0.1,0,0.2,0,0.2,0.1C29.3,30.5,29.2,30.5,29.1,30.4z"/>
	<path class="st0" d="M57.8,61.1c0,0,0.1,0,0.2,0c0,0,0,0.1,0,0.1C57.9,61.2,57.9,61.2,57.8,61.1z"/>
	<path class="st0" d="M49.4,49.8c0.1,0,0.1,0,0.2,0c0,0,0,0.1,0,0.1C49.5,49.9,49.4,49.9,49.4,49.8z"/>
	<path class="st0" d="M17.3,45.5c-0.1,0-0.1-0.1-0.1-0.1c0,0,0,0,0.1-0.1C17.2,45.4,17.2,45.4,17.3,45.5z"/>
	<path class="st0" d="M17.6,15.8C17.7,15.8,17.7,15.8,17.6,15.8c0.1,0.1,0.1,0.1,0.1,0.2c0,0,0,0,0,0C17.7,16,17.7,15.9,17.6,15.8
		C17.6,15.9,17.6,15.8,17.6,15.8z"/>
	<path class="st0" d="M87.1,52.6c0-0.1,0-0.1,0-0.2c0,0,0.1,0,0.1,0C87.1,52.4,87.1,52.5,87.1,52.6z"/>
	<path class="st0" d="M22.6,42.2c0,0-0.1,0-0.1-0.1c0,0,0.1,0,0.1-0.1C22.6,42.1,22.6,42.2,22.6,42.2z"/>
	<path class="st0" d="M57.2,60.7C57.1,60.7,57.1,60.8,57.2,60.7C57.1,60.7,57.1,60.7,57.2,60.7C57.1,60.6,57.2,60.6,57.2,60.7
		C57.2,60.6,57.2,60.6,57.2,60.7z"/>
	<path class="st0" d="M55.4,29.6c-0.1,0-0.1,0-0.2,0c0,0,0,0,0-0.1C55.3,29.6,55.3,29.6,55.4,29.6z"/>
	<path class="st0" d="M57.6,61.2c-0.1,0-0.1,0-0.1-0.1c0,0,0.1,0,0.1,0C57.6,61.1,57.6,61.2,57.6,61.2z"/>
	<path class="st0" d="M35.5,37.5c0,0.1,0,0.1,0,0.1c0,0-0.1,0-0.1,0C35.4,37.5,35.4,37.5,35.5,37.5z"/>
	<path class="st0" d="M67,72.6c0.1,0,0.1,0,0.2,0c0,0,0,0,0,0.1C67.1,72.7,67,72.7,67,72.6z"/>
	<path class="st0" d="M83.2,38.8c0,0.1,0,0.1,0,0.1c0,0-0.1,0-0.1,0C83.1,38.9,83.2,38.8,83.2,38.8z"/>
	<path class="st0" d="M59.2,62.6c0.1,0,0.1,0,0.2,0C59.3,62.6,59.3,62.6,59.2,62.6c0,0.1-0.1,0-0.1,0C59.1,62.6,59.1,62.6,59.2,62.6
		z"/>
	<path class="st0" d="M32,33.8c-0.1,0-0.1,0-0.1,0c0,0,0-0.1,0-0.1C31.9,33.8,31.9,33.8,32,33.8z"/>
	<path class="st0" d="M46.6,30.7c0,0,0.1-0.1,0.1-0.1c0,0,0,0,0,0C46.7,30.7,46.6,30.7,46.6,30.7z"/>
	<path class="st0" d="M39.9,41.6C39.8,41.5,39.8,41.5,39.9,41.6c-0.1-0.1-0.1-0.2-0.1-0.2C39.8,41.4,39.8,41.5,39.9,41.6z"/>
	<path class="st0" d="M45.4,50.2c0-0.1,0.1-0.1,0.1-0.1C45.4,50.2,45.4,50.2,45.4,50.2C45.4,50.3,45.4,50.3,45.4,50.2z"/>
	<path class="st0" d="M57.5,62.5c0,0,0-0.1,0-0.1c0,0,0.1,0.1,0.1,0.1C57.6,62.5,57.5,62.5,57.5,62.5z"/>
	<path class="st0" d="M79.7,63.9c0.1,0,0.1-0.1,0.2-0.1c0,0,0,0,0,0C79.8,63.9,79.8,63.9,79.7,63.9z"/>
	<path class="st0" d="M31.4,62c0-0.1,0-0.2,0-0.3c0.1,0.1,0.1,0.2,0.2,0.2c0,0-0.1,0.1-0.2,0.1C31.4,62,31.4,62,31.4,62z"/>
	<path class="st0" d="M35.9,64.8c0-0.1,0-0.2,0-0.3c0,0,0.1,0,0.1,0C36,64.6,36,64.7,35.9,64.8z"/>
	<path class="st0" d="M22.1,24.3c-0.1-0.1-0.1-0.3-0.2-0.4c0-0.1,0-0.2,0-0.2c0.1,0,0.1,0.1,0.2,0.1c0.1,0.1,0.1,0.3,0.2,0.4
		C22.2,24.2,22.1,24.3,22.1,24.3z"/>
	<path class="st0" d="M22.5,24.5c0,0,0.1,0,0.1,0c0,0,0,0.1,0,0.1C22.6,24.6,22.5,24.6,22.5,24.5z"/>
	<path class="st0" d="M42.6,48.4c0,0.1,0,0.2,0,0.2c0,0,0,0,0,0c0-0.1,0-0.2,0-0.3C42.5,48.3,42.6,48.3,42.6,48.4z"/>
</g>
</svg>
