<?xml version="1.0" encoding="utf-8"?>
<!-- Generator: Adobe Illustrator 20.1.0, SVG Export Plug-In . SVG Version: 6.00 Build 0)  -->
<svg version="1.1" id="Layer_1" xmlns="http://www.w3.org/2000/svg" xmlns:xlink="http://www.w3.org/1999/xlink" x="0px" y="0px"
	 viewBox="0 0 100 100" style="enable-background:new 0 0 100 100;" xml:space="preserve">
<style type="text/css">
	.st0{fill:#7FC1A6;}
</style>
<g id="Shape_11">
	<path class="st0" d="M46.1,92.6c0-2.9-0.1-5.8-0.1-8.7c0-0.4,0-0.8-0.3-1c-0.2-0.2-0.5-0.2-0.8-0.2c-2.7,0-5.4,0-8.1,0
		c-0.3-2.3-0.3-4.6,0-6.9c3.1,0,6.1-0.1,9.2-0.1c0.1-3.3,0.1-6.5,0-9.8c-11.1-1.4-20.8-10.2-23.4-21s2.1-23.1,11.3-29.3
		s22.3-6.2,31.5,0.1c9.2,6.4,13.8,18.6,11.1,29.4S64,64.7,52.9,66c0,3.3,0,6.5,0,9.8c3.1,0,6.2,0.1,9.3,0.1c0.2,2.3,0.2,4.5,0.1,6.8
		c-2.8,0-5.6,0.1-8.3,0.1c-0.3,0-0.6,0-0.8,0.2c-0.3,0.2-0.3,0.6-0.3,0.9c0,2.9-0.1,5.8-0.1,8.7C50.6,92.6,48.4,92.6,46.1,92.6
		 M52.3,58.9c1.5-0.2,3-0.6,4.4-1.1C63,55.5,68,49.9,69.5,43.4s-0.3-13.8-4.8-18.7s-11.6-7.4-18.2-6.4c-0.5,0.1-0.9,0.2-1.4,0.3
		c-0.5,0.1-1,0.2-1.4,0.4c-0.4,0.1-0.8,0.3-1.2,0.4C35.1,22,29.7,29.2,29.1,37s3.8,15.7,10.6,19.5c1.5,0.8,3.1,1.5,4.7,1.9
		c1.3,0.3,2.6,0.5,3.9,0.6C49.7,59.1,51,59,52.3,58.9z"/>
</g>
</svg>
