<?xml version="1.0" encoding="utf-8"?>
<!-- Generator: Adobe Illustrator 20.1.0, SVG Export Plug-In . SVG Version: 6.00 Build 0)  -->
<svg version="1.1" id="Layer_1" xmlns="http://www.w3.org/2000/svg" xmlns:xlink="http://www.w3.org/1999/xlink" x="0px" y="0px"
	 viewBox="0 0 100 100" style="enable-background:new 0 0 100 100;" xml:space="preserve">
<g id="Shape_20">
	<path d="M72.6,16.2c0,22.8,0,45.7,0,68.5c0,0.2,0,0.2-0.2,0.2c-14.9,0-29.7,0-44.6,0c-0.1,0-0.2,0-0.2-0.2c0-22.8,0-45.7,0-68.5
		C42.6,16.2,57.6,16.2,72.6,16.2 M27.8,30.2c0,18.1,0,36.2,0,54.3c0,0,0,0.1,0,0.1c0,0.1,0,0.2,0.2,0.2c14.7,0,29.5,0,44.2,0
		c0.1,0,0.2-0.1,0.2-0.2c0,0,0-0.1,0-0.1c0-22.5,0-45.1,0-67.6c0-0.4,0-0.4-0.4-0.4c-14.5,0-29.1,0-43.6,0c-0.1,0-0.3,0-0.4,0
		c0,0-0.1,0-0.1,0.1c0,0.1,0,0.2,0,0.2C27.8,21.2,27.8,25.7,27.8,30.2z"/>
	<path d="M35.6,35.9c0-3,0-6,0-8.9c0-0.2,0-0.3,0.2-0.3c1.9,0,3.9,0,5.8,0c0.2,0,0.2,0,0.2,0.2c0,5.1,0,10.2,0,15.2
		c0,0.2,0,0.2-0.2,0.2c-1.9,0-3.9,0-5.8,0c-0.2,0-0.2,0-0.2-0.2C35.6,40.2,35.6,38.1,35.6,35.9z"/>
	<path d="M57.7,33c0-2,0-3.9,0-5.8c0-0.1,0-0.1,0-0.2c0-0.1,0-0.2,0.1-0.2c0,0,0.1,0,0.1,0c1.9,0,3.9,0,5.8,0c0.2,0,0.2,0,0.2,0.2
		c0,5.1,0,10.2,0,15.3c0,0.2,0,0.2-0.2,0.2c-1.9,0-3.9,0-5.8,0c-0.2,0-0.3-0.2-0.3-0.3c0-0.1,0-0.1,0-0.2C57.7,39,57.7,36,57.7,33z"
		/>
	<path d="M52.9,31.3c0,3.7,0,7.3,0,11c0,0.2,0,0.2-0.2,0.2c-2,0-3.9,0-5.9,0c-0.2,0-0.2,0-0.2-0.2c0-5.1,0-10.2,0-15.3
		c0-0.2,0-0.2,0.2-0.2c2,0,3.9,0,5.9,0c0.2,0,0.2,0,0.2,0.2C52.9,28.4,52.9,29.9,52.9,31.3z"/>
	<path d="M35.6,73.1c0-4.5,0-9,0-13.4c0-0.2,0-0.3,0.2-0.3c2,0,3.9,0,5.9,0c0.2,0,0.2,0,0.2,0.2c0,4.9,0,9.7,0,14.6
		c0,0.2,0,0.2-0.3,0.2c-1.9,0-3.9,0-5.8,0c-0.2,0-0.2,0-0.2-0.3C35.6,73.8,35.6,73.5,35.6,73.1z"/>
	<path d="M57.7,70c0-3.4,0-6.7,0-10.1c0-0.1,0-0.2,0-0.3c0-0.1,0-0.2,0.2-0.2c2,0,4,0,6,0c0.2,0,0.2,0.1,0.2,0.3c0,0.1,0,0.1,0,0.2
		c0,4.8,0,9.5,0,14.3c0,0.2,0,0.2-0.2,0.2c-1.9,0-3.8,0-5.8,0c-0.3,0-0.4-0.2-0.3-0.4c0-0.1,0-0.1,0-0.2
		C57.7,72.6,57.7,71.3,57.7,70z"/>
	<path d="M46.7,63.6c0-1.3,0-2.7,0-4c0-0.2,0-0.2,0.2-0.2c2,0,3.9,0,5.9,0c0.2,0,0.2,0,0.2,0.2c0,4.9,0,9.7,0,14.6
		c0,0.2-0.1,0.2-0.2,0.2c-1.9,0-3.9,0-5.8,0c-0.2,0-0.2,0-0.2-0.2C46.7,70.7,46.7,67.2,46.7,63.6z"/>
	<path d="M52.6,44.2c-0.1,0.4-0.2,0.8-0.3,1.2c-0.1,0.4-0.2,0.8-0.3,1.2c-0.1,0.5-0.2,0.9-0.4,1.4c-0.1,0.5-0.3,1-0.4,1.5
		c0,0.2,0,0.3,0.2,0.3c0.4,0.2,0.6,0.5,0.8,0.9c0.1,0.2,0,0.5-0.1,0.7c-0.2,0.3-0.5,0.6-0.8,0.8c-0.1,0-0.1,0.1-0.1,0.2
		c0.2,0.6,0.3,1.2,0.5,1.9c0.1,0.5,0.3,1,0.4,1.5c0.1,0.4,0.2,0.7,0.3,1.1c0.2,0.6,0.3,1.1,0.4,1.7c0,0.1,0,0.2-0.2,0.2
		c-1.9,0-3.8,0-5.7,0c-0.2,0-0.2,0-0.2-0.2c0.1-0.4,0.2-0.9,0.4-1.3c0.1-0.5,0.3-1.1,0.4-1.6c0.2-0.6,0.3-1.2,0.5-1.8
		c0.1-0.4,0.2-0.9,0.3-1.3c0-0.1-0.1-0.2-0.2-0.2c-0.3-0.2-0.5-0.4-0.7-0.7c-0.2-0.3-0.1-0.6,0.1-0.9c0.2-0.3,0.4-0.5,0.7-0.6
		c0.1-0.1,0.2-0.1,0.1-0.3c-0.2-0.7-0.4-1.5-0.6-2.2c-0.2-0.7-0.4-1.4-0.5-2.1c-0.1-0.6-0.3-1.1-0.4-1.7c0-0.2,0-0.2,0.2-0.2
		c1.9,0,3.7,0,5.6,0c0.2,0,0.2,0.1,0.2,0.3C52.7,43.7,52.7,43.9,52.6,44.2z"/>
	<path d="M59.5,52.4c0-0.1,0-0.2-0.1-0.3c-0.4-0.2-0.6-0.5-0.8-0.9c-0.1-0.2-0.1-0.4,0-0.6c0.2-0.4,0.5-0.7,0.8-0.9
		c0.1-0.1,0.1-0.1,0.1-0.2c-0.1-0.5-0.2-1-0.4-1.4c-0.2-0.6-0.3-1.3-0.5-1.9c-0.1-0.4-0.2-0.8-0.3-1.2c-0.1-0.5-0.3-0.9-0.4-1.4
		c0-0.1,0-0.2,0.2-0.2c0.1,0,0.3,0,0.4,0c1.7,0,3.5,0,5.2,0c0.2,0,0.3,0,0.2,0.2c-0.1,0.5-0.2,0.9-0.4,1.4c-0.2,0.8-0.4,1.6-0.6,2.4
		c-0.2,0.6-0.3,1.3-0.5,1.9c0,0.1-0.1,0.2-0.1,0.4c0,0.1,0.1,0.2,0.2,0.2c0.4,0.2,0.7,0.6,0.8,1.1c0,0.1,0,0.2-0.1,0.3
		c-0.2,0.4-0.4,0.7-0.8,0.9c-0.1,0-0.1,0.1-0.1,0.3c0.2,0.7,0.4,1.4,0.5,2.1c0.2,0.7,0.4,1.4,0.5,2c0.2,0.6,0.3,1.3,0.5,1.9
		c0,0.2,0,0.2-0.2,0.2c-1.9,0-3.8,0-5.7,0c-0.2,0-0.2,0-0.2-0.2c0.1-0.6,0.3-1.1,0.4-1.7c0.1-0.4,0.2-0.8,0.3-1.2
		c0.2-0.7,0.4-1.4,0.5-2C59.3,53.1,59.3,52.8,59.5,52.4C59.4,52.4,59.5,52.4,59.5,52.4z"/>
	<path d="M35.8,43.3c1.9,0,3.8,0,5.6,0c0,0,0.1,0,0.1,0c0.1,0,0.1,0,0.1,0.2c-0.2,0.8-0.4,1.5-0.6,2.3c-0.2,0.7-0.3,1.3-0.5,2
		c-0.1,0.6-0.3,1.2-0.4,1.7c-0.1,0.2,0.1,0.2,0.2,0.3c0.3,0.2,0.6,0.5,0.8,0.8c0.1,0.3,0.1,0.5-0.1,0.8c-0.2,0.3-0.4,0.6-0.8,0.7
		c-0.1,0-0.1,0.1-0.1,0.2c0.2,0.6,0.3,1.2,0.4,1.8c0.1,0.5,0.2,0.9,0.4,1.4c0.2,0.6,0.3,1.3,0.5,1.9c0.1,0.4,0.2,0.8,0.3,1.2
		c0,0.1,0,0.1-0.1,0.1c0,0-0.1,0-0.1,0c-1.9,0-3.8,0-5.7,0c-0.2,0-0.2-0.1-0.2-0.2c0.2-0.6,0.3-1.2,0.5-1.8c0.1-0.5,0.3-1.1,0.4-1.6
		c0.2-0.7,0.3-1.3,0.5-2c0.1-0.2,0.1-0.5,0.2-0.7c0-0.1-0.1-0.2-0.2-0.2c-0.4-0.2-0.7-0.5-0.8-1c-0.1-0.3,0-0.5,0.1-0.6
		c0.2-0.3,0.4-0.5,0.7-0.7c0.1,0,0.2-0.1,0.1-0.3c-0.2-0.6-0.3-1.3-0.5-1.9c-0.2-0.6-0.3-1.3-0.5-1.9c-0.2-0.7-0.4-1.4-0.5-2.1
		C35.7,43.5,35.8,43.4,35.8,43.3z"/>
	<path d="M51.8,21.8c0.2,0.7,0.4,1.4,0.6,2.2c0.2,0.6,0.3,1.2,0.5,1.8c0,0.2,0,0.2-0.1,0.2c0,0-0.1,0-0.1,0c-1.8,0-3.7,0-5.5,0
		c-0.3,0-0.3,0-0.2-0.3c0.1-0.4,0.2-0.8,0.3-1.3c0.2-0.7,0.3-1.3,0.5-2c0.2-0.7,0.4-1.4,0.6-2.1c0.1-0.2,0.1-0.4,0.1-0.6
		c0-0.2-0.1-0.2-0.2-0.3c-0.4-0.2-0.6-0.5-0.8-0.9c-0.1-0.3,0-0.5,0.1-0.7c0.1-0.1,0.1-0.2,0.2-0.3c0.2-0.2,0.3-0.3,0.6-0.3
		c0.9,0,1.9,0,2.8,0c0.3,0,0.5,0.1,0.7,0.3c0.2,0.3,0.4,0.5,0.4,0.8c0,0.1-0.1,0.3-0.1,0.4c-0.2,0.3-0.4,0.5-0.7,0.7
		c-0.1,0.1-0.2,0.1-0.1,0.3c0.2,0.6,0.3,1.2,0.5,1.8C51.7,21.7,51.7,21.8,51.8,21.8z"/>
	<path d="M41.6,25.4c0,0.1,0,0.2,0.1,0.3c0,0.1,0,0.2-0.1,0.2c0,0-0.1,0-0.1,0c-1.8,0-3.6,0-5.4,0c-0.3,0-0.4,0-0.3-0.4
		c0.2-0.6,0.4-1.3,0.5-1.9c0.1-0.5,0.3-1.1,0.4-1.6c0.2-0.7,0.4-1.4,0.5-2c0-0.1,0.1-0.2,0.1-0.3c0-0.1,0-0.2-0.1-0.2
		c-0.5-0.2-0.7-0.6-0.9-1c-0.1-0.2,0-0.3,0.1-0.5c0.1-0.1,0.1-0.3,0.2-0.4c0.2-0.2,0.4-0.4,0.7-0.3c0.9,0,1.8,0,2.7,0
		c0.3,0,0.6,0.1,0.7,0.3c0.2,0.2,0.3,0.5,0.3,0.8c0,0.3-0.2,0.5-0.4,0.7c-0.2,0.2-0.4,0.3-0.5,0.4c-0.1,0-0.1,0.2-0.1,0.2
		c0.1,0.6,0.3,1.2,0.4,1.8c0.1,0.4,0.2,0.7,0.3,1.1c0.2,0.7,0.4,1.4,0.6,2.1C41.5,24.9,41.6,25.1,41.6,25.4z"/>
	<path d="M62.9,21.9c0.1,0.5,0.3,1,0.4,1.5c0.2,0.6,0.3,1.2,0.5,1.8c0.1,0.2,0.1,0.4,0.2,0.6c0,0.1-0.1,0.2-0.1,0.2c0,0-0.1,0-0.1,0
		c-1.8,0-3.7,0-5.5,0c-0.2,0-0.3,0-0.2-0.3c0.2-0.9,0.5-1.8,0.7-2.7c0.2-0.8,0.4-1.7,0.7-2.5c0.1-0.3,0.2-0.5,0.2-0.8
		c0-0.1,0-0.2-0.1-0.2c-0.4-0.2-0.7-0.5-0.9-0.9c-0.1-0.2-0.1-0.4,0-0.6c0.1-0.2,0.2-0.5,0.5-0.6c0.1-0.1,0.2-0.1,0.3-0.1
		c1,0,2,0,3.1,0c0.2,0,0.4,0.1,0.5,0.2c0.2,0.2,0.4,0.4,0.4,0.7c0,0.1,0,0.2,0,0.2c-0.1,0.5-0.4,0.8-0.9,1c-0.1,0.1-0.2,0.1-0.1,0.3
		c0.2,0.6,0.3,1.3,0.5,1.9C62.8,21.7,62.8,21.8,62.9,21.9z"/>
	<path d="M48.2,81c-0.1-0.2-0.1-0.5-0.2-0.7c-0.2-0.6-0.3-1.2-0.5-1.8c-0.2-0.7-0.4-1.4-0.5-2.1c-0.1-0.3-0.2-0.7-0.3-1
		c0-0.1,0-0.2,0.1-0.2c1.9,0,3.8,0,5.8,0c0.1,0,0.2,0.1,0.1,0.2c-0.2,0.8-0.4,1.5-0.6,2.3c-0.1,0.4-0.2,0.7-0.3,1.1
		c-0.2,0.8-0.4,1.7-0.7,2.5c0,0,0,0.1,0,0.1c0,0.8,0,1.5,0,2.3c0,0.2-0.1,0.2-0.2,0.2c-0.8,0-1.7,0-2.5,0c-0.2,0-0.2,0-0.2-0.2
		c0-0.7,0-1.5,0-2.2C48.3,81.4,48.3,81.2,48.2,81z"/>
	<path d="M62.8,79.8c-0.1,0.5-0.3,1-0.4,1.6c-0.1,0.6,0,1.1,0,1.7c0,0.3,0,0.5,0,0.8c0,0.1,0,0.2-0.2,0.2c-0.8,0-1.7,0-2.5,0
		c-0.2,0-0.2,0-0.2-0.2c0-0.7,0-1.5,0-2.2c0-0.3-0.1-0.6-0.2-0.9c-0.2-0.9-0.4-1.7-0.7-2.6c-0.1-0.3-0.2-0.6-0.2-0.9
		c-0.1-0.4-0.2-0.9-0.3-1.3c0-0.2-0.1-0.3-0.1-0.5c-0.1-0.1,0-0.1,0.1-0.1c0,0,0.1,0,0.1,0c1.9,0,3.8,0,5.6,0c0.2,0,0.2,0,0.2,0.3
		c-0.2,0.7-0.3,1.3-0.5,2c-0.1,0.5-0.3,1-0.4,1.5C62.9,79.2,62.8,79.5,62.8,79.8z"/>
	<path d="M37.2,82.3c0-0.3,0-0.5,0-0.7c0-0.4-0.1-0.7-0.2-1c-0.1-0.5-0.2-0.9-0.4-1.4c-0.1-0.5-0.3-0.9-0.4-1.4
		c-0.2-0.7-0.4-1.4-0.5-2.1c0,0,0,0,0,0c-0.1-0.4-0.1-0.4,0.3-0.4c1.8,0,3.6,0,5.5,0c0.2,0,0.2,0.1,0.2,0.2
		c-0.2,0.8-0.5,1.6-0.7,2.4c-0.2,0.8-0.4,1.6-0.6,2.3c-0.1,0.4-0.2,0.8-0.3,1.2c0,0,0,0.1,0,0.1c0,0.7,0,1.5,0,2.2
		c0,0.2-0.1,0.2-0.2,0.2c-0.8,0-1.6,0-2.5,0c-0.2,0-0.2,0-0.2-0.3C37.2,83.2,37.2,82.8,37.2,82.3z"/>
	<path d="M64.9,35.8c0-3,0-5.9,0-8.8c0-0.2,0-0.3,0.2-0.3c2.1,0,4.1,0,6.2,0c0.2,0,0.3,0,0.3,0.3c0,5.1,0,10.1,0,15.2
		c0,0.2,0,0.2-0.2,0.2c-2.1,0-4.1,0-6.2,0c-0.2,0-0.2,0-0.2-0.2C64.9,40.1,64.9,38,64.9,35.8 M71.4,41.4c0-4.7,0-9.5,0-14.2
		c0-0.2,0-0.2-0.2-0.2c-1.9,0-3.8,0-5.7,0c0,0-0.1,0-0.1,0c-0.2,0-0.2,0-0.2,0.3c0,4.9,0,9.8,0,14.7c0,0.3,0,0.3,0.3,0.3
		c0,0,0,0,0.1,0c1.9,0,3.7,0,5.6,0c0.1,0,0.1,0,0.2,0c0.1,0,0.2,0,0.2-0.1C71.4,41.9,71.4,41.7,71.4,41.4z"/>
	<path d="M64.7,43.8c0-0.1,0.1-0.2,0.1-0.3c0-0.2,0.1-0.2,0.3-0.2c2.1,0,4.2,0,6.3,0c0.2,0,0.2,0,0.2,0.2c0,4.9,0,9.8,0,14.8
		c0,0.2,0,0.2-0.2,0.2c-2.1,0-4.2,0-6.3,0c-0.2,0-0.3-0.1-0.3-0.2c-0.2-0.9-0.5-1.7-0.7-2.6c-0.2-0.7-0.4-1.5-0.6-2.2
		c-0.1-0.3-0.1-0.6-0.2-0.8c0-0.1,0-0.2,0.1-0.3c0.3-0.3,0.6-0.6,0.7-1c0.2-0.6,0.1-1.1-0.3-1.6c-0.1-0.2-0.3-0.3-0.4-0.5
		c-0.1-0.1-0.1-0.2-0.1-0.3c0.2-0.7,0.3-1.3,0.5-2c0.2-0.6,0.3-1.2,0.5-1.8C64.4,44.7,64.5,44.3,64.7,43.8 M64.9,58.2
		c0,0.1,0,0.2,0.2,0.2c2,0,4,0,6.1,0c0.2,0,0.2,0,0.2-0.2c0-4.8,0-9.6,0-14.5c0-0.2,0-0.2-0.2-0.2c-2,0-4,0-5.9,0c0,0-0.1,0-0.1,0
		c-0.1,0-0.2,0-0.2,0.2c-0.1,0.5-0.3,1-0.4,1.4c-0.1,0.5-0.3,1.1-0.4,1.6c-0.2,0.8-0.4,1.6-0.6,2.3c0,0.1,0,0.1,0.1,0.2
		c0.2,0.2,0.3,0.4,0.5,0.6c0.3,0.5,0.4,1,0.2,1.6c-0.1,0.4-0.4,0.7-0.7,1c0,0-0.1,0.1-0.1,0.2c0,0.2,0.1,0.4,0.2,0.6
		c0.1,0.5,0.3,1.1,0.4,1.6c0.2,0.7,0.3,1.3,0.5,2C64.7,57.3,64.8,57.7,64.9,58.2z"/>
	<path d="M35.5,51.1c0.1,0.4,0.2,0.7,0.5,1c0.1,0.1,0.1,0.2,0.2,0.2c0.2,0.2,0.1,0.4,0.1,0.6c-0.2,0.7-0.4,1.3-0.5,1.9
		c-0.2,0.7-0.4,1.5-0.6,2.2c-0.1,0.4-0.2,0.9-0.3,1.3c0,0.1-0.1,0.1-0.2,0.1c-1.9,0-3.9,0-5.8,0c-0.1,0-0.2,0-0.2-0.2
		c0,0,0-0.1,0-0.1c0-4.9,0-9.8,0-14.7c0-0.2,0-0.3,0.3-0.3c1.9,0,3.8,0,5.7,0c0.2,0,0.2,0.1,0.3,0.2c0.1,0.3,0.2,0.6,0.2,0.9
		c0.1,0.4,0.2,0.9,0.3,1.3c0.1,0.3,0.2,0.6,0.3,1c0.1,0.5,0.3,1.1,0.4,1.6c0.1,0.3,0.1,0.5,0.2,0.8c0,0.1-0.1,0.2-0.1,0.3
		c-0.3,0.3-0.6,0.7-0.7,1.1C35.5,50.7,35.5,50.9,35.5,51.1 M35.3,51.4c0-0.2-0.1-0.5-0.1-0.7c0.1-0.5,0.3-0.9,0.7-1.2
		c0.1-0.1,0.2-0.2,0.1-0.5c-0.2-0.7-0.3-1.4-0.5-2c-0.3-1-0.5-2-0.8-3c-0.1-0.3-0.1-0.3-0.4-0.3c-1.8,0-3.6,0-5.3,0
		c-0.1,0-0.2,0-0.2,0.2c0,4.8,0,9.7,0,14.5c0,0.2,0.1,0.2,0.2,0.2c1.8,0,3.6,0,5.4,0c0.2,0,0.3,0,0.3-0.2c0.2-0.7,0.4-1.5,0.6-2.2
		c0.2-0.6,0.3-1.2,0.5-1.8c0.1-0.5,0.3-0.9,0.4-1.4c0-0.1,0-0.1,0-0.2c-0.1-0.2-0.3-0.3-0.4-0.4C35.6,51.9,35.5,51.7,35.3,51.4z"/>
	<path d="M64.9,71.1c0-3.8,0-7.6,0-11.4c0-0.2,0-0.2,0.2-0.2c2.1,0,4.2,0,6.3,0c0.2,0,0.2,0,0.2,0.2c0,4.8,0,9.7,0,14.5
		c0,0.2,0,0.2-0.3,0.2c-2.1,0-4.1,0-6.2,0c-0.2,0-0.2,0-0.2-0.2C64.9,73.1,64.9,72.1,64.9,71.1 M71.4,61.9c0-0.7,0-1.4,0-2.1
		c0-0.1,0-0.2-0.2-0.2c-0.6,0-1.1,0-1.7,0c-1.4,0-2.8,0-4.2,0c-0.1,0-0.2,0-0.3,0c0,0,0,0.2,0,0.2c0,4.7,0,9.4,0,14.1
		c0,0.2,0,0.2,0.2,0.2c1.9,0,3.9,0,5.8,0c0.2,0,0.2,0,0.2-0.2C71.4,70,71.4,66,71.4,61.9z"/>
	<path d="M34.7,33.6c0,2.9,0,5.8,0,8.7c0,0.2,0,0.2-0.2,0.2c-1.9,0-3.8,0-5.6,0c-0.2,0-0.2,0-0.2-0.2c0-5.1,0-10.1,0-15.2
		c0-0.3,0-0.3,0.3-0.3c1.2,0,2.4,0,3.7,0c0.6,0,1.2,0,1.8,0c0.3,0,0.3,0,0.3,0.3C34.7,29.2,34.7,31.4,34.7,33.6 M34.6,33.7
		c0-2.1,0-4.3,0-6.4c0-0.3,0-0.3-0.3-0.3c-1.7,0-3.4,0-5.2,0c-0.2,0-0.3,0-0.3,0.3c0,4.9,0,9.9,0,14.8c0,0.3,0,0.3,0.3,0.2
		c0,0,0.1,0,0.1,0c1.7,0,3.3,0,5,0c0,0,0.1,0,0.1,0c0.3,0,0.3,0,0.3-0.2C34.6,39.2,34.6,36.5,34.6,33.7z"/>
	<path d="M54,58.6c-0.2,0-0.3,0-0.4-0.3c-0.2-0.8-0.4-1.5-0.6-2.3c-0.2-0.8-0.4-1.6-0.6-2.4c-0.1-0.3-0.1-0.5-0.2-0.8
		c0-0.1,0-0.3,0.1-0.4c0.2-0.2,0.4-0.5,0.6-0.8c0.3-0.6,0.2-1.1-0.1-1.6c-0.1-0.2-0.3-0.4-0.5-0.6c-0.1-0.1-0.1-0.2-0.1-0.3
		c0.2-0.9,0.5-1.8,0.8-2.7c0.2-0.6,0.3-1.2,0.5-1.8c0.1-0.3,0.2-0.6,0.2-0.9c0-0.2,0.1-0.2,0.3-0.2c1,0,1.9,0,2.9,0
		c0.2,0,0.2,0,0.3,0.2c0.2,0.7,0.4,1.4,0.6,2.1c0.2,0.7,0.4,1.4,0.5,2.1c0.1,0.5,0.2,0.9,0.3,1.4c0,0.1,0,0.2-0.1,0.3
		c-0.2,0.2-0.4,0.5-0.6,0.8c-0.3,0.5-0.3,1,0,1.5c0.2,0.3,0.4,0.6,0.7,0.9c0,0,0.1,0.1,0,0.1c-0.1,0.4-0.2,0.8-0.3,1.2
		c-0.1,0.5-0.3,1.1-0.4,1.6c-0.2,0.7-0.4,1.3-0.5,2c-0.1,0.3-0.2,0.6-0.2,0.9c0,0.1-0.1,0.2-0.2,0.2C55.9,58.6,54.9,58.6,54,58.6
		 M58.2,52.5c-0.3-0.3-0.5-0.6-0.6-0.9c-0.1-0.3-0.2-0.6-0.1-0.9c0.1-0.5,0.4-0.9,0.7-1.3c0.1-0.1,0.1-0.2,0.1-0.3
		c-0.1-0.4-0.2-0.8-0.3-1.2c-0.2-0.7-0.4-1.4-0.5-2.1c-0.2-0.7-0.4-1.3-0.5-2c0-0.2-0.1-0.2-0.2-0.2c-0.9,0-1.8,0-2.7,0
		c-0.1,0-0.2,0-0.2,0.2c0,0.2-0.1,0.4-0.2,0.6c-0.1,0.4-0.2,0.8-0.3,1.3c-0.1,0.6-0.3,1.1-0.5,1.7c-0.2,0.6-0.3,1.1-0.4,1.7
		c0,0.2-0.1,0.3,0.1,0.4c0.2,0.2,0.4,0.5,0.6,0.8c0.2,0.4,0.3,0.8,0.1,1.3c-0.1,0.4-0.3,0.8-0.6,1.1c-0.2,0.1-0.2,0.3-0.1,0.5
		c0.1,0.5,0.3,1,0.4,1.4c0.1,0.5,0.2,1,0.4,1.4c0.1,0.3,0.2,0.6,0.2,0.9c0.1,0.3,0.1,0.5,0.2,0.8c0.1,0.2,0.1,0.5,0.2,0.7
		c0,0.1,0.1,0.2,0.2,0.2c0.9,0,1.7,0,2.6,0c0.1,0,0.2,0,0.2-0.2c0.2-0.6,0.3-1.3,0.5-1.9c0.1-0.5,0.3-1,0.4-1.6
		c0.2-0.6,0.3-1.3,0.5-1.9C58.3,52.6,58.3,52.6,58.2,52.5z"/>
	<path d="M46.6,50.5c-0.1,0.3-0.1,0.6,0,1c0.1,0.4,0.3,0.7,0.6,0.9c0.1,0.1,0.2,0.2,0.1,0.4c-0.1,0.4-0.2,0.8-0.3,1.2
		c-0.2,0.6-0.3,1.3-0.5,1.9c-0.1,0.6-0.3,1.1-0.4,1.7c-0.1,0.3-0.2,0.6-0.2,0.9c0,0.1-0.1,0.1-0.2,0.1c-1,0-2,0-3,0
		c-0.2,0-0.2-0.1-0.2-0.2c-0.2-0.7-0.4-1.3-0.5-2c-0.1-0.5-0.2-1-0.4-1.5c-0.2-0.6-0.3-1.3-0.5-1.9c0,0,0-0.1,0-0.1
		c-0.1-0.2-0.1-0.4,0.1-0.5c0.3-0.2,0.5-0.6,0.6-0.9c0.2-0.5,0.1-1-0.2-1.4c-0.1-0.2-0.3-0.4-0.5-0.6c-0.1-0.1-0.1-0.2-0.1-0.3
		c0.1-0.6,0.3-1.2,0.5-1.8c0.1-0.4,0.2-0.7,0.3-1.1c0.1-0.4,0.2-0.9,0.3-1.3c0.1-0.5,0.2-0.9,0.4-1.4c0-0.1,0.1-0.1,0.2-0.1
		c1,0,2,0,3,0c0.1,0,0.1,0.1,0.2,0.1c0.1,0.4,0.2,0.7,0.3,1.1c0.1,0.3,0.2,0.6,0.2,0.9c0.1,0.5,0.3,1.1,0.4,1.6
		c0.1,0.3,0.2,0.6,0.3,1c0.1,0.4,0.2,0.7,0.3,1.1c0,0.1,0,0.2-0.1,0.2C47,49.7,46.7,50,46.6,50.5 M47,53.4c0.1-0.2,0.1-0.5,0.2-0.7
		c0-0.1,0-0.2-0.1-0.3c-0.2-0.2-0.4-0.4-0.5-0.7c-0.2-0.3-0.3-0.7-0.3-1c0.1-0.5,0.3-1,0.7-1.4c0.1-0.1,0.2-0.2,0.2-0.3
		c0-0.2-0.1-0.3-0.1-0.5c-0.1-0.5-0.2-1-0.4-1.4c-0.2-0.7-0.4-1.4-0.6-2.1c-0.1-0.5-0.3-0.9-0.4-1.4c0-0.1-0.1-0.2-0.2-0.2
		c-0.9,0-1.8,0-2.7,0c-0.2,0-0.3,0.1-0.3,0.3c0,0.2-0.1,0.3-0.1,0.5c-0.2,0.8-0.4,1.6-0.6,2.3c-0.2,0.8-0.4,1.6-0.6,2.4
		c0,0.1,0,0.3,0.1,0.4c0.1,0.1,0.2,0.2,0.3,0.4c0.4,0.6,0.6,1.3,0.2,2c-0.2,0.3-0.4,0.6-0.6,0.9c0,0-0.1,0.1,0,0.2
		c0,0.1,0.1,0.3,0.1,0.4c0.1,0.4,0.2,0.8,0.3,1.2c0.1,0.5,0.3,1.1,0.4,1.6c0.1,0.5,0.3,1,0.4,1.4c0.1,0.3,0.1,0.5,0.2,0.8
		c0,0.1,0.1,0.1,0.1,0.1c0.9,0,1.9,0,2.8,0c0,0,0.1-0.1,0.1-0.1c0.1-0.5,0.3-1,0.4-1.4c0.1-0.4,0.2-0.8,0.3-1.2
		c0.1-0.4,0.2-0.8,0.3-1.2C46.9,54.1,46.9,53.8,47,53.4z"/>
	<path d="M28.6,73.5c0-4.6,0-9.2,0-13.8c0-0.2,0-0.2,0.2-0.2c1.9,0,3.8,0,5.7,0c0.1,0,0.2,0,0.2,0.2c0,4.9,0,9.7,0,14.6
		c0,0.2-0.1,0.2-0.2,0.2c-1.9,0-3.8,0-5.6,0c-0.2,0-0.2-0.1-0.2-0.2C28.6,74,28.6,73.7,28.6,73.5 M28.8,69.1c0,1.6,0,3.2,0,4.9
		c0,0.2,0,0.2,0.2,0.2c1.8,0,3.5,0,5.3,0c0.2,0,0.2,0,0.2-0.2c0-4.7,0-9.5,0-14.2c0-0.1,0-0.2-0.2-0.2c-1.8,0-3.6,0-5.4,0
		c-0.1,0-0.2,0-0.2,0.2C28.8,62.9,28.8,66,28.8,69.1z"/>
	<path d="M45.8,29.7c0,4.2,0,8.4,0,12.6c0,0.2-0.1,0.2-0.2,0.2c-0.9,0-1.8,0-2.7,0c-0.2,0-0.2-0.1-0.2-0.2c0-5.1,0-10.2,0-15.2
		c0-0.2,0.1-0.2,0.3-0.2c0.9,0,1.7,0,2.6,0c0.2,0,0.2,0,0.2,0.3C45.8,27.9,45.8,28.8,45.8,29.7 M42.9,41.9c0,0.1,0,0.1,0,0.2
		c0,0.2,0,0.2,0.2,0.2c0,0,0.1,0,0.2,0c0.7,0,1.3,0,2,0c0.1,0,0.1,0,0.2,0c0.2,0,0.2,0,0.2-0.2c0-5,0-9.9,0-14.9c0,0,0-0.1,0-0.1
		c0-0.1,0-0.1-0.1-0.1c-0.8,0-1.6,0-2.4,0c-0.2,0-0.2,0-0.2,0.3C42.9,32.1,42.9,37,42.9,41.9z"/>
	<path d="M56.6,26.8c0.3,0,0.3,0.1,0.3,0.3c0,5,0,10.1,0,15.1c0,0.2,0,0.3-0.2,0.3c-0.9,0-1.8,0-2.7,0c-0.2,0-0.2,0-0.2-0.2
		c0-5.1,0-10.2,0-15.2c0-0.2,0-0.3,0.3-0.3c0.8,0,1.6,0,2.4,0C56.5,26.8,56.5,26.8,56.6,26.8 M56.7,40c0-4.3,0-8.6,0-12.9
		c0-0.2,0-0.2-0.2-0.2c-0.8,0-1.5,0-2.3,0c-0.3,0-0.3,0-0.3,0.2c0,4.9,0,9.9,0,14.8c0,0.3,0,0.3,0.3,0.2c0,0,0.1,0,0.1,0
		c0.7,0,1.3,0,2,0c0.1,0,0.1,0,0.2,0c0.1,0,0.2,0,0.2-0.2C56.7,41.4,56.7,40.8,56.7,40z"/>
	<path d="M45.8,63.2c0,3.7,0,7.3,0,10.9c0,0.2,0,0.3-0.2,0.3c-0.9,0-1.8,0-2.6,0c-0.2,0-0.2,0-0.2-0.2c0-4.8,0-9.7,0-14.5
		c0-0.1,0-0.2,0.2-0.2c0.9,0,1.8,0,2.8,0c0.1,0,0.2,0,0.2,0.2C45.8,60.8,45.8,62,45.8,63.2 M44.4,59.6c-0.4,0-0.9,0-1.3,0
		c-0.2,0-0.2,0-0.2,0.2c0,4.7,0,9.4,0,14.2c0,0.2,0.1,0.2,0.2,0.2c0.8,0,1.6,0,2.4,0c0.1,0,0.2,0,0.2-0.2c0-2,0-4,0-5.9
		c0-2.8,0-5.5,0-8.3c0-0.1,0-0.2-0.2-0.2C45.1,59.7,44.8,59.6,44.4,59.6z"/>
	<path d="M56.9,69c0,1.7,0,3.4,0,5.1c0,0.2,0,0.3-0.3,0.3c-0.9,0-1.7,0-2.6,0c-0.2,0-0.2,0-0.2-0.2c0-4.8,0-9.7,0-14.5
		c0-0.1,0-0.2,0.2-0.2c0.9,0,1.8,0,2.8,0c0.2,0,0.2,0,0.2,0.2c0,0.1,0,0.2,0,0.3C56.9,63,56.9,66,56.9,69 M54,71c0,1,0,2,0,3
		c0,0.2,0,0.2,0.2,0.2c0.8,0,1.6,0,2.4,0c0.1,0,0.2,0,0.2-0.2c0-4.7,0-9.5,0-14.2c0-0.1,0-0.2-0.2-0.2c-0.8,0-1.6,0-2.4,0
		c-0.1,0-0.2,0-0.2,0.2C54,63.5,54,67.3,54,71z"/>
	<path d="M64.4,76.9c0.1-0.5,0.2-0.9,0.4-1.4c0-0.1,0.1-0.2,0.2-0.2c2.1,0,4.3,0,6.4,0c0.1,0,0.2,0,0.2,0.2c0,1.6,0,3.3,0,4.9
		c0,1.1,0,2.3,0,3.4c0,0.1,0,0.2-0.2,0.2c-2.7,0-5.3,0-8,0c-0.2,0-0.2,0-0.2-0.2c0-0.6,0-1.2,0-1.8c0-0.3,0.1-0.6,0.1-0.9
		c0.1-0.5,0.2-1,0.4-1.4c0.1-0.4,0.2-0.8,0.3-1.1C64.1,78,64.2,77.4,64.4,76.9C64.4,76.9,64.4,76.9,64.4,76.9 M64.8,75.9
		c-0.1,0.4-0.2,0.9-0.3,1.3c-0.2,0.6-0.3,1.2-0.5,1.8c-0.1,0.5-0.3,1.1-0.4,1.6c-0.1,0.3-0.2,0.6-0.2,1c0,0.6,0,1.3,0,1.9
		c0,0.1,0,0.2,0.2,0.2c2.6,0,5.1,0,7.7,0c0.1,0,0.1,0,0.1-0.1c0-2.7,0-5.4,0-8.1c0-0.1,0-0.2-0.2-0.2c-2,0-4.1,0-6.1,0
		c-0.1,0-0.2,0-0.2,0.2C64.9,75.7,64.8,75.8,64.8,75.9z"/>
	<path d="M71.5,19c0,2.2,0,4.5,0,6.7c0,0.2,0,0.2-0.2,0.2c-2.1,0-4.1,0-6.2,0c-0.3,0-0.3,0-0.4-0.3c-0.2-0.9-0.5-1.9-0.7-2.8
		c-0.2-0.7-0.4-1.4-0.5-2.1c0-0.2-0.1-0.4-0.1-0.6c0-0.1,0-0.2,0.1-0.3c0.2-0.2,0.4-0.4,0.5-0.6c0.3-0.5,0.4-1,0.1-1.5
		c0-0.1-0.1-0.2-0.1-0.2c-0.1-0.2-0.1-0.2,0.1-0.2c2.4,0,4.9,0,7.3,0c0.2,0,0.2,0.1,0.2,0.2C71.5,18,71.5,18.5,71.5,19 M64.2,23
		C64.2,23,64.2,23,64.2,23c0.1,0.5,0.2,0.9,0.3,1.3c0.1,0.4,0.3,0.9,0.4,1.3c0,0.1,0.1,0.2,0.3,0.2c2,0,4,0,6,0
		c0.2,0,0.2-0.1,0.2-0.2c0-2.6,0-5.3,0-7.9c0-0.2,0-0.2-0.2-0.2c-1.2,0-2.4,0-3.5,0c-1.1,0-2.2,0-3.4,0c-0.1,0-0.2,0-0.1,0.2
		c0.2,0.4,0.2,0.8,0.1,1.2c-0.1,0.4-0.4,0.8-0.7,1.1c-0.1,0-0.1,0.1-0.1,0.2c0,0.2,0.1,0.3,0.1,0.5c0.1,0.3,0.2,0.6,0.3,1
		C64,22,64.1,22.5,64.2,23z"/>
	<path d="M36.3,81.2c0,0.3,0.1,0.5,0.1,0.8c0,0.6,0,1.2,0,1.8c0,0.1,0,0.2-0.2,0.2c-2.5,0-5,0-7.5,0c-0.1,0-0.2,0-0.2-0.2
		c0-2.8,0-5.6,0-8.4c0-0.1,0-0.2,0.2-0.2c1.9,0,3.9,0,5.8,0c0.2,0,0.2,0.1,0.2,0.2c0.2,0.8,0.4,1.6,0.6,2.4c0.2,0.9,0.5,1.8,0.7,2.6
		C36.2,80.8,36.3,81,36.3,81.2 M30.4,75.4c-0.5,0-0.9,0-1.4,0c-0.2,0-0.2,0-0.2,0.2c0,2.6,0,5.3,0,7.9c0,0.2,0.1,0.2,0.2,0.2
		c2.4,0,4.7,0,7.1,0c0.1,0,0.2-0.1,0.2-0.2c0-0.3,0-0.5,0-0.8c0-0.5,0-1.1-0.1-1.6c-0.2-0.6-0.3-1.2-0.4-1.7
		c-0.1-0.4-0.2-0.8-0.3-1.2c-0.1-0.3-0.2-0.7-0.3-1c-0.1-0.6-0.3-1.1-0.4-1.7c0-0.2-0.1-0.2-0.3-0.2C33.1,75.4,31.8,75.4,30.4,75.4z
		"/>
	<path d="M28.6,22.6c0-1.7,0-3.5,0-5.2c0-0.2,0-0.2,0.2-0.2c2.3,0,4.5,0,6.8,0c0.2,0,0.2,0,0.1,0.2c-0.1,0.3-0.3,0.5-0.3,0.8
		c0,0.5,0.2,0.9,0.5,1.3c0.1,0.1,0.2,0.3,0.3,0.4c0,0,0.1,0.1,0.1,0.2c-0.1,0.6-0.3,1.1-0.5,1.7c-0.2,0.6-0.3,1.2-0.5,1.8
		c-0.2,0.7-0.3,1.3-0.5,2c0,0,0,0.1,0,0.1c0,0.1-0.1,0.2-0.3,0.2c-1.9,0-3.8,0-5.7,0c-0.2,0-0.2,0-0.2-0.2
		C28.6,24.7,28.6,23.7,28.6,22.6 M28.8,23.5c0,0.7,0,1.4,0,2.1c0,0.1,0,0.2,0.2,0.2c1.8,0,3.7,0,5.5,0c0.1,0,0.2,0,0.2-0.2
		c0.1-0.6,0.3-1.1,0.5-1.7c0.2-0.8,0.4-1.5,0.6-2.3c0.1-0.5,0.3-0.9,0.4-1.4c0-0.1,0-0.2-0.1-0.3c-0.3-0.2-0.5-0.5-0.6-0.9
		c-0.2-0.5-0.2-0.9,0-1.4c0.1-0.2,0.1-0.2-0.1-0.2c-2.1,0-4.2,0-6.3,0c-0.2,0-0.2,0-0.2,0.2C28.8,19.6,28.8,21.6,28.8,23.5z"/>
	<path d="M52.5,79.7c0.1-0.4,0.2-0.8,0.3-1.1c0.2-0.7,0.4-1.4,0.6-2.2c0.1-0.3,0.2-0.6,0.2-0.9c0-0.1,0.1-0.2,0.2-0.2
		c1,0,1.9,0,2.9,0c0.2,0,0.2,0.1,0.3,0.2c0.2,0.7,0.4,1.5,0.6,2.2c0.2,0.9,0.5,1.8,0.7,2.7c0.1,0.4,0.2,0.8,0.3,1.2
		c0,0.1,0,0.2,0,0.2c0,0.6,0,1.2,0,1.8c0,0.3,0,0.3-0.3,0.3c-2,0-4,0-6,0c-0.2,0-0.2,0-0.2-0.2c0-0.5,0-1.1,0-1.6
		c0-0.5,0.1-0.9,0.2-1.4C52.4,80.4,52.5,80.1,52.5,79.7 M53.5,76.7c0,0.1-0.1,0.3-0.1,0.4c-0.2,0.6-0.3,1.2-0.5,1.9
		c-0.2,0.7-0.3,1.3-0.5,2c-0.1,0.2-0.1,0.5-0.2,0.7c0,0.7,0,1.3,0,2c0,0.1,0.1,0.2,0.2,0.2c2,0,3.9,0,5.9,0c0.1,0,0.1,0,0.1-0.1
		c0-0.7,0-1.4,0-2.1c0,0,0-0.1,0-0.1c-0.1-0.5-0.3-1.1-0.4-1.6c-0.2-0.6-0.3-1.2-0.5-1.7c-0.1-0.3-0.2-0.6-0.3-1
		c-0.1-0.5-0.3-1.1-0.4-1.6c0-0.1-0.1-0.1-0.2-0.1c-0.1,0-0.2,0-0.3,0c-0.8,0-1.6,0-2.3,0c-0.1,0-0.2,0-0.2,0.1
		C53.7,75.9,53.6,76.3,53.5,76.7z"/>
	<path d="M42.4,84c-0.4,0-0.9,0-1.3,0C41,84,41,83.9,41,83.8c0-0.7,0-1.5,0-2.2c0-0.2,0.1-0.4,0.2-0.7c0.2-0.6,0.3-1.2,0.5-1.9
		c0.1-0.4,0.2-0.7,0.3-1.1c0.2-0.6,0.3-1.3,0.5-1.9c0.1-0.2,0.1-0.5,0.2-0.7c0-0.1,0.1-0.1,0.2-0.1c1,0,2,0,3,0
		c0.1,0,0.2,0.1,0.2,0.2c0.2,0.9,0.5,1.8,0.7,2.7c0.2,0.6,0.3,1.3,0.5,1.9c0.1,0.5,0.2,1,0.4,1.5c0,0,0,0.1,0,0.1c0,0.7,0,1.4,0,2.1
		c0,0.2-0.1,0.2-0.2,0.2C45.7,84,44.1,84,42.4,84 M47.1,80.8c0,0,0-0.1,0-0.1c-0.1-0.5-0.3-1-0.4-1.5c-0.2-0.7-0.4-1.4-0.5-2.1
		c-0.1-0.5-0.3-1-0.4-1.5c0-0.1-0.1-0.2-0.3-0.2c-0.8,0-1.7,0-2.5,0c-0.2,0-0.3,0.1-0.3,0.2c-0.2,0.6-0.3,1.3-0.5,1.9
		c-0.1,0.6-0.3,1.2-0.4,1.7c-0.1,0.5-0.3,1-0.4,1.6c-0.1,0.3-0.2,0.5-0.2,0.8c0,0.6,0,1.3,0,2c0,0.1,0.1,0.2,0.2,0.2
		c2,0,3.9,0,5.9,0c0.1,0,0.2,0,0.2-0.2c0-0.6,0-1.2,0-1.8C47.3,81.5,47.2,81.2,47.1,80.8z"/>
	<path d="M46.8,22.6c-0.1,0.3-0.2,0.6-0.3,0.9c-0.1,0.4-0.2,0.8-0.3,1.1C46.1,25,46,25.4,46,25.8c0,0.1-0.1,0.2-0.2,0.2
		c-1,0-2,0-3,0c-0.1,0-0.2-0.1-0.2-0.2c-0.2-0.6-0.3-1.2-0.5-1.8c-0.2-0.7-0.3-1.3-0.5-2c-0.2-0.6-0.3-1.2-0.5-1.8
		c0-0.1,0-0.2,0.1-0.3c0.3-0.3,0.6-0.6,0.7-1c0.1-0.5,0.1-1-0.2-1.4c0,0,0-0.1-0.1-0.1c0,0,0.1,0,0.1,0c1.7,0,3.3,0,5,0
		c0.1,0,0.1,0,0.1,0.1c-0.3,0.3-0.3,0.7-0.3,1.2c0,0.3,0.2,0.6,0.4,0.9c0.1,0.2,0.3,0.3,0.4,0.5c0,0.1,0,0.2,0,0.2
		c-0.1,0.5-0.3,1-0.4,1.5C46.9,22,46.9,22.3,46.8,22.6 M41.9,22.3c0.1,0.3,0.2,0.7,0.2,1c0.2,0.7,0.4,1.5,0.6,2.2
		c0,0.2,0.1,0.2,0.3,0.2c0.8,0,1.5,0,2.3,0c0.5,0,0.5,0,0.6-0.4c0.3-1,0.5-2.1,0.8-3.1c0.2-0.6,0.3-1.2,0.5-1.8
		c0.1-0.3,0.1-0.5-0.2-0.7c-0.4-0.4-0.7-0.9-0.6-1.5c0-0.2,0.1-0.4,0.1-0.6c0.1-0.2,0.1-0.2-0.1-0.2c-1.4,0-2.8,0-4.3,0
		c-0.2,0-0.2,0-0.1,0.2c0.1,0.2,0.2,0.4,0.2,0.6c0,0.6-0.2,1.1-0.6,1.5c-0.1,0.2-0.3,0.3-0.2,0.6C41.5,21,41.7,21.6,41.9,22.3z"/>
	<path d="M52.5,21.4c-0.1-0.4-0.2-0.8-0.3-1.1c-0.1-0.2,0-0.3,0.1-0.5c0.3-0.3,0.5-0.6,0.7-1c0.1-0.3,0.1-0.6,0-0.8
		c0-0.2-0.1-0.3-0.2-0.5c0,0,0-0.1-0.1-0.1c0,0,0.1,0,0.1,0c1.2,0,2.3,0,3.5,0c0.5,0,1,0,1.5,0c0,0,0.1,0,0.1,0c0,0,0,0.1,0,0.1
		c-0.2,0.3-0.3,0.6-0.3,0.9c0,0.4,0.2,0.8,0.4,1.1c0.1,0.2,0.3,0.3,0.4,0.5c0,0.1,0.1,0.1,0.1,0.2c-0.2,0.7-0.4,1.3-0.5,2
		c-0.2,0.6-0.3,1.2-0.5,1.7c-0.1,0.4-0.2,0.9-0.3,1.3c0,0.2-0.1,0.4-0.1,0.6c0,0.1-0.1,0.2-0.2,0.2c-1,0-2,0-3,0
		c-0.1,0-0.2,0-0.2-0.2c-0.2-0.9-0.5-1.8-0.7-2.7c-0.1-0.5-0.3-1.1-0.4-1.6C52.5,21.5,52.5,21.4,52.5,21.4 M53.2,18.4
		c0,0.1,0,0.2,0,0.3c-0.1,0.5-0.3,1-0.7,1.3c-0.1,0.1-0.1,0.1-0.1,0.3c0.1,0.5,0.3,1,0.4,1.6c0.1,0.6,0.3,1.1,0.4,1.7
		c0.1,0.4,0.2,0.9,0.3,1.3c0.1,0.3,0.2,0.6,0.3,0.9c0,0.1,0.1,0.2,0.2,0.2c0.9,0,1.8,0,2.7,0c0.1,0,0.2,0,0.2-0.2
		c0.1-0.4,0.2-0.9,0.4-1.3c0.1-0.4,0.2-0.7,0.3-1.1c0.1-0.5,0.3-1.1,0.4-1.6c0.1-0.5,0.2-0.9,0.4-1.4c0-0.1,0-0.2-0.1-0.3
		c-0.2-0.2-0.3-0.4-0.5-0.6c-0.2-0.3-0.3-0.6-0.3-1c0-0.3,0.1-0.5,0.2-0.8c0-0.1,0-0.2-0.1-0.2c-1.5,0-2.9,0-4.4,0
		c-0.1,0-0.1,0.1-0.1,0.2C53.2,17.8,53.3,18.1,53.2,18.4z"/>
</g>
</svg>
