<?xml version="1.0" encoding="utf-8"?>
<!-- Generator: Adobe Illustrator 20.1.0, SVG Export Plug-In . SVG Version: 6.00 Build 0)  -->
<svg version="1.1" id="Layer_1" xmlns="http://www.w3.org/2000/svg" xmlns:xlink="http://www.w3.org/1999/xlink" x="0px" y="0px"
	 viewBox="0 0 100 100" style="enable-background:new 0 0 100 100;" xml:space="preserve">
<style type="text/css">
	.st0{fill:#882D17;}
</style>
<g id="Shape_19">
	<path class="st0" d="M80,29.1c0,0.1,0,0.2,0,0.2c0,0.3,0,0.5,0,0.8c0,1.2,0,2.3,0,3.5c0,1.3,0,2.6,0,3.9c0,0.4,0,0.8,0,1.2
		c0,0.3,0,0.6,0,0.9c0,0.4,0,0.8,0,1.2c0,0.5,0,1-0.1,1.5c0,0.5,0,1-0.1,1.5c0,0.5,0,0.9-0.1,1.4c0,0.4,0,0.9-0.1,1.3
		c0,0.5-0.1,0.9-0.2,1.4s-0.1,1-0.2,1.5c-0.1,0.7-0.2,1.4-0.4,2.1c-0.1,0.6-0.2,1.1-0.3,1.7c-0.2,1-0.4,1.9-0.6,2.9
		c-0.2,0.8-0.4,1.5-0.6,2.3c-0.2,0.7-0.4,1.5-0.7,2.2c-0.2,0.6-0.4,1.2-0.7,1.9c-0.2,0.6-0.5,1.2-0.7,1.7c-0.1,0.3-0.3,0.6-0.4,0.9
		c-0.3,0.6-0.6,1.2-0.9,1.8c-0.2,0.4-0.4,0.7-0.6,1.1s-0.5,0.8-0.7,1.2c-0.4,0.5-0.7,1.1-1.1,1.6c-0.3,0.5-0.7,0.9-1,1.4
		c-0.3,0.4-0.6,0.7-0.8,1.1c-0.3,0.4-0.6,0.8-1,1.2c-0.2,0.3-0.4,0.5-0.6,0.7c-0.3,0.3-0.6,0.7-0.9,1c-0.2,0.3-0.5,0.5-0.8,0.8
		c-0.2,0.2-0.4,0.4-0.6,0.7c-0.4,0.4-0.8,0.8-1.1,1.2c-0.3,0.4-0.7,0.7-1,1.1c-0.3,0.3-0.5,0.5-0.8,0.8c-0.5,0.5-1.1,1-1.6,1.5
		c-0.6,0.5-1.2,1-1.9,1.5s-1.4,1-2.1,1.5c-0.7,0.5-1.4,0.9-2.1,1.3c-0.8,0.5-1.6,0.9-2.4,1.3c-0.5,0.3-1,0.5-1.5,0.8
		c-0.4,0.2-0.9,0.4-1.3,0.3c-0.2,0-0.4-0.2-0.6-0.3c-0.6-0.3-1.2-0.6-1.8-0.9c-0.9-0.5-1.8-1-2.6-1.5c-0.9-0.6-1.8-1.1-2.7-1.7
		c-0.6-0.4-1.1-0.9-1.6-1.3s-0.9-0.7-1.4-1.1c-0.3-0.3-0.6-0.5-0.9-0.8c-0.4-0.4-0.8-0.8-1.1-1.1c-0.3-0.3-0.5-0.5-0.7-0.8
		s-0.5-0.5-0.7-0.8c-0.3-0.3-0.6-0.6-0.9-0.9c-0.2-0.2-0.3-0.3-0.4-0.5c-0.5-0.5-1-1.1-1.5-1.6s-0.9-1.1-1.3-1.6
		c-0.5-0.7-1.1-1.4-1.6-2.1c-0.4-0.5-0.7-1-1.1-1.5c-0.5-0.7-0.9-1.4-1.3-2.1c-0.3-0.5-0.5-0.9-0.8-1.4c-0.2-0.4-0.5-0.9-0.7-1.3
		c-0.3-0.7-0.6-1.3-0.9-2c-0.2-0.6-0.5-1.2-0.7-1.8c-0.2-0.7-0.5-1.4-0.7-2.1c-0.3-0.9-0.5-1.7-0.8-2.6c-0.2-0.6-0.3-1.3-0.5-1.9
		c-0.1-0.5-0.3-1.1-0.4-1.6c-0.1-0.4-0.1-0.8-0.2-1.2c-0.1-0.3-0.1-0.7-0.2-1c-0.1-0.4-0.1-0.7-0.2-1.1c-0.1-0.3-0.1-0.6-0.2-0.8
		c0-0.3-0.1-0.5-0.1-0.8c-0.1-0.4-0.1-0.7-0.2-1.1c0-0.2-0.1-0.5-0.1-0.7c0-0.3,0-0.6,0-0.9c0-0.5,0-1-0.1-1.5
		c0-0.4-0.1-0.9-0.1-1.3c0-0.5-0.1-1-0.1-1.6c0-0.3,0-0.5,0-0.8c0-0.4,0-0.7,0-1.1c0-0.3,0-0.6,0-0.9c0-0.6,0-1.3,0-1.9
		c0-1.7,0-3.4,0-5.2c0-0.5,0-1,0-1.5c-0.1-0.6,0-1.3-0.1-1.9c0-0.4,0-0.7,0-1.1c0-0.3,0-0.6,0-0.9c0-0.6-0.1-1.3-0.1-1.9
		c0-0.7-0.1-1.4-0.1-2.1c0-0.5,0-1,0-1.5c0-1.7,0-3.3,0-5c0-0.1,0-0.1,0.1-0.1h0.1c20,0,40,0,60.1,0c0.2,0,0.2,0,0.2,0.2
		c0,1.1,0,2.2,0,3.3c0,0.7,0,1.5-0.1,2.2c0,0.3,0,0.6,0,0.9c0,0.5,0,0.9,0,1.4c0,0.3,0,0.7,0,1c0,0.6-0.1,1.3-0.1,1.9
		c0,0.3,0,0.6,0,0.9c0,0.6,0,1.2,0,1.8C80,29,80,29,80,29.1 M78.4,51.5c0-0.2,0-0.3,0.1-0.5c0.1-0.5,0.2-1.1,0.3-1.6
		c0.1-0.7,0.2-1.3,0.3-2c0.1-0.5,0.1-1.1,0.1-1.6s0.1-0.9,0.1-1.4c0-0.4,0.1-0.9,0.1-1.3c0-0.5,0.1-1,0.1-1.5c0-0.6,0.1-1.2,0.1-1.8
		c0-0.3,0-0.6,0-0.9c0-0.5,0-1.1,0-1.6c0-1.3,0-2.5,0-3.8c0-0.7,0-1.4,0-2.1c0-0.4,0-0.9,0-1.3c0-0.5,0-0.9,0-1.4c0-0.3,0-0.6,0-0.9
		c0-0.6,0.1-1.3,0.1-1.9c0-0.4,0-0.8,0-1.2c0-0.6,0.1-1.1,0.1-1.7c0-0.7,0-1.4,0-2.1c0-0.5,0-0.9,0-1.4c0-0.6,0-1.1,0-1.7
		c0-0.7,0-1.5,0-2.2c0-0.2-0.1-0.2-0.2-0.2c-19.9,0-39.7,0-59.6,0c-0.2,0-0.2,0.1-0.2,0.2c0,0.7,0,1.5,0,2.2c0,0.5,0,1.1,0,1.6
		c0,0.6,0,1.2,0,1.7c0,0.3,0,0.5,0,0.8c0,1,0.1,2,0.1,3c0.1,0.9,0.1,1.8,0.1,2.6c0,0.4,0,0.7,0,1.1s0,0.7,0,1.1s0,0.8,0,1.2
		c0,1.2,0,2.4,0,3.5c0,0.7,0,1.5,0,2.2c0,0.6,0,1.2,0,1.7c0,0.6,0,1.2,0.1,1.8c0,0.6,0,1.1,0.1,1.7c0,0.5,0.1,1,0.1,1.4
		c0,0.6,0,1.1,0.1,1.7c0,0.1,0,0.2,0,0.4c0,0.6,0.1,1.1,0.1,1.7c0,0.3,0.1,0.7,0.1,1c0.1,0.4,0.1,0.7,0.2,1.1
		c0.1,0.3,0.1,0.6,0.2,0.9c0.1,0.3,0.1,0.6,0.2,1s0.1,0.8,0.2,1.2c0.1,0.5,0.2,1,0.3,1.4c0.1,0.6,0.3,1.2,0.4,1.8
		c0.2,0.8,0.4,1.6,0.7,2.4c0.3,0.9,0.6,1.9,0.9,2.8c0.2,0.5,0.3,0.9,0.5,1.3c0.3,1,0.8,2,1.3,3c0.3,0.6,0.6,1.2,1,1.8
		c0.3,0.6,0.7,1.2,1.1,1.8c0.3,0.4,0.5,0.8,0.8,1.2c0.4,0.5,0.7,1.1,1.1,1.6c0.5,0.6,0.9,1.2,1.4,1.8c0.4,0.5,0.8,1,1.2,1.4
		c0.4,0.5,0.9,1,1.3,1.5c0.4,0.4,0.8,0.9,1.2,1.3c0.3,0.4,0.7,0.7,1,1.1c0.9,0.9,1.8,1.8,2.7,2.7c0.5,0.5,1,0.9,1.5,1.3
		c0.6,0.5,1.2,1,1.8,1.4c0.5,0.4,1,0.7,1.5,1.1c0.5,0.3,1,0.6,1.6,0.9c0.8,0.4,1.5,0.9,2.3,1.3c0.7,0.4,1.4,0.8,2.2,1.1
		c0.2,0.1,0.4,0.2,0.6,0.1c0.4-0.1,0.7-0.3,1.1-0.5c0.5-0.2,1-0.5,1.4-0.7c0.7-0.4,1.3-0.8,2-1.2c0.6-0.3,1.2-0.7,1.7-1.1
		c0.6-0.4,1.2-0.8,1.8-1.3c0.6-0.4,1.1-0.8,1.7-1.3c0.5-0.4,1.1-0.9,1.6-1.4c0.6-0.6,1.2-1.1,1.7-1.7c0.5-0.5,1-1.1,1.5-1.6
		c0.4-0.4,0.8-0.8,1.2-1.2c0.2-0.2,0.3-0.3,0.5-0.5c0.5-0.5,0.9-1.1,1.4-1.6c0.3-0.4,0.7-0.8,1-1.2c0.4-0.5,0.8-1,1.1-1.5
		c0.5-0.7,1-1.4,1.5-2.1s0.9-1.4,1.3-2c0.4-0.7,0.8-1.4,1.2-2.1c0.3-0.5,0.5-1.1,0.8-1.7c0.3-0.7,0.6-1.3,0.8-2
		c0.3-0.7,0.5-1.5,0.8-2.3c0.2-0.7,0.4-1.5,0.6-2.2c0.2-0.8,0.4-1.6,0.6-2.4c0.2-0.6,0.3-1.2,0.4-1.8C78.2,52.8,78.3,52.1,78.4,51.5
		z"/>
	<path class="st0" d="M37.1,49.3c2.1,0,4.1,0,6.2,0c5.5,0,11,0,16.4,0c5.6,0,11.3,0,16.9,0c0.4,0,0.8,0,1.2,0c0.4,0,0.4,0,0.3,0.4
		c-0.1,0.7-0.3,1.4-0.4,2c-0.1,0.5-0.1,1-0.2,1.5s-0.2,1.1-0.4,1.6c-0.3,1-0.5,2.1-0.8,3.1s-0.6,1.9-0.9,2.9
		c-0.3,0.8-0.6,1.6-0.9,2.3c-0.2,0.6-0.5,1.1-0.8,1.7c-0.2,0.5-0.5,1-0.8,1.5c-0.2,0.3-0.3,0.7-0.5,1c-0.5,0.8-1,1.6-1.5,2.3
		c-0.3,0.5-0.7,1-1.1,1.5c-0.3,0.4-0.6,0.8-0.9,1.2c-0.5,0.6-1,1.3-1.5,1.9c-0.3,0.3-0.6,0.6-0.8,1c-0.4,0.5-0.9,1-1.3,1.4
		c-0.3,0.4-0.7,0.7-1,1.1c-0.7,0.8-1.5,1.5-2.2,2.3c-0.5,0.5-1,0.9-1.5,1.4c-0.6,0.5-1.2,1-1.8,1.5c-0.7,0.6-1.5,1.1-2.3,1.6
		s-1.6,1-2.4,1.5c-0.4,0.2-0.8,0.5-1.2,0.7c-0.7,0.4-1.4,0.7-2.1,1.1c-0.2,0.1-0.4,0.2-0.6,0.3c-0.2,0-0.4-0.1-0.6-0.1
		c-0.6-0.3-1.2-0.6-1.7-0.9c-0.4-0.2-0.8-0.4-1.2-0.7c-0.5-0.3-0.9-0.5-1.4-0.8c-0.7-0.5-1.4-0.9-2.1-1.4c-0.5-0.4-1-0.7-1.5-1.1
		c-0.4-0.3-0.8-0.6-1.2-1c-0.3-0.2-0.6-0.5-0.9-0.8c-0.3-0.3-0.7-0.6-1-1c-0.6-0.6-1.2-1.1-1.7-1.7c-0.4-0.4-0.8-0.9-1.2-1.3
		s-0.8-0.8-1.2-1.3c-0.5-0.5-0.9-1-1.4-1.5c-0.4-0.5-0.9-1-1.3-1.6c-0.4-0.5-0.7-1-1.1-1.4c-0.3-0.4-0.6-0.8-0.9-1.2
		c-0.6-0.8-1.1-1.6-1.6-2.5c-0.3-0.5-0.6-1.1-0.9-1.6c-0.2-0.4-0.4-0.7-0.6-1.1c-0.3-0.7-0.6-1.4-0.9-2.1c-0.2-0.5-0.4-1.1-0.6-1.6
		c-0.2-0.6-0.5-1.3-0.7-1.9c-0.3-1-0.6-1.9-0.9-2.9c-0.2-0.7-0.4-1.5-0.6-2.2c-0.1-0.6-0.2-1.1-0.3-1.7c-0.1-0.6-0.3-1.2-0.4-1.9
		c-0.1-0.4-0.2-0.9-0.3-1.3c0-0.2,0-0.3,0.2-0.3c0,0,0.1,0,0.2,0C27.2,49.3,32.2,49.3,37.1,49.3z"/>
	<path class="st0" d="M79.4,20.6c0-1.3,0-2.6,0-3.9c0-0.4-0.2-0.5-0.5-0.5s-0.6,0-0.9,0c-1.9,0-3.8,0-5.7,0c-0.6,0-1.2,0-1.8,0
		c-0.3,0-0.6,0-0.9,0c-0.2,0-0.3,0-0.5,0c-0.3,0-0.7,0-1,0c-2.6,0-5.1,0-7.7,0c-0.2,0-0.5,0-0.7,0c-0.4,0-0.8,0-1.2,0
		c-1,0-1.9,0-2.9,0c-0.4,0-0.8,0-1.2,0c-0.3,0-0.6,0-0.8,0c0,0,0,0-0.1,0c0,0,0,0,0.1,0l0,0c0.6,0,1.1,0,1.7,0c1.4,0,2.8,0,4.2,0
		c0.3,0,0.6,0,0.9,0c0.6,0,1.1,0,1.7,0c0.3,0,0.6,0,0.9,0c0.3,0,0.6,0,0.9,0c0.1,0,0.3,0,0.4,0h0.1h-0.1c-0.2,0-0.4,0-0.5,0
		c0,0,0,0-0.1,0c0,0,0,0,0.1,0s0.3,0,0.4,0c2.3,0,4.6,0,6.9,0c0.7,0,1.4,0,2.2,0c0.3,0,0.7,0,1,0c1.7,0,3.5,0,5.2,0
		c0.2,0,0.2,0,0.2,0.2c0,0.5,0,1,0,1.5c0,0.8,0,1.6,0,2.4c0,0.6,0,1.2,0,1.8c0,0.4-0.1,0.8-0.1,1.2c0,0.6,0,1.2,0,1.8
		c0,0.5,0,1.1-0.1,1.6c0,0.3,0,0.6,0,0.9c0,0.6-0.1,1.3-0.1,1.9c0,0.4,0,0.8,0,1.2c0,0.4-0.1,0.8-0.1,1.2c0,0.1,0,0.2,0,0.3
		c0,1.3,0,2.5,0,3.8c0,0.4,0,0.8,0,1.1c0,0.1,0,0.2-0.1,0.3c0-0.1,0-0.2,0-0.3c0-0.2,0-0.5,0-0.7l0,0c0,0,0,0,0,0.1
		c0,0.3,0,0.6,0,0.9c0,0.4,0,0.9,0,1.3c0,0.5-0.1,1.1-0.1,1.6c0,0.2,0,0.4,0,0.6c0,0.4,0,0.8,0,1.3c0,0.3-0.1,0.5-0.1,0.8
		c0,0.1,0,0.1,0,0.2c0,0.3,0,0.6-0.1,0.9l0,0l0,0c0,0,0-0.1,0-0.2c0-0.5,0.1-0.9,0.1-1.4c0,0,0,0,0-0.1c0-0.6,0-1.2,0-1.9
		c0-0.4,0-0.9,0-1.3c0-0.4,0-0.7,0-1.1c0-1.5,0-2.9,0-4.4c0-0.9,0-1.8,0-2.6c0-0.6,0-1.2,0-1.8c0-0.4,0-0.8,0-1.2
		c0.1-0.7,0-1.4,0.1-2c0-0.5,0-0.9,0-1.4s0-0.9,0-1.4C79.4,21.9,79.4,21.3,79.4,20.6 M64.9,15.8c0.1,0,0.2,0,0.4,0l0,0
		C65.1,15.8,65,15.8,64.9,15.8 M65.5,15.8L65.5,15.8C65.4,15.7,65.4,15.8,65.5,15.8L65.5,15.8 M79.2,35.4c0,0.1,0,0.1,0,0.2
		C79.3,35.6,79.3,35.5,79.2,35.4z"/>
	<path class="st0" d="M53.3,86.9c0.9-0.5,1.7-1,2.6-1.6c0.6-0.4,1.2-0.8,1.7-1.2c0.4-0.3,0.9-0.6,1.3-1c0.3-0.2,0.6-0.5,0.9-0.8
		c0.2-0.2,0.4-0.3,0.6-0.4c0.2-0.2,0.4-0.4,0.6-0.6c0.5-0.5,1-0.9,1.4-1.4c0.4-0.4,0.8-0.8,1.2-1.2c0.5-0.5,1-1,1.5-1.6
		c0.4-0.4,0.7-0.8,1-1.2c0.3-0.4,0.7-0.7,1-1.1c0.5-0.6,1-1.2,1.4-1.8c0.3-0.4,0.7-0.9,1-1.3c0.4-0.6,0.9-1.2,1.3-1.8
		c0.4-0.6,0.8-1.2,1.2-1.8c0.3-0.4,0.5-0.9,0.8-1.4c0.2-0.4,0.4-0.7,0.6-1.1c0.2-0.5,0.4-0.9,0.7-1.4c0.2-0.4,0.4-0.8,0.5-1.2
		c0.3-0.6,0.5-1.3,0.8-1.9c0.3-1,0.6-2,1-3.1c0.1-0.5,0.3-1,0.4-1.4s0.2-0.8,0.3-1.2c0.1-0.5,0.2-1,0.4-1.5c0.1-0.4,0.2-0.8,0.3-1.3
		c0-0.3,0.1-0.5,0.1-0.8c0.1-0.3,0.1-0.6,0.2-0.8c0-0.2,0.1-0.4,0.1-0.6c0-0.1,0-0.1,0-0.2c0-0.1,0-0.1,0.1-0.2c0,0.1,0,0.1,0,0.2
		c-0.1,0.4-0.2,0.9-0.3,1.3c-0.1,0.3-0.1,0.7-0.2,1c0,0.2-0.1,0.5-0.1,0.7c-0.1,0.4-0.1,0.8-0.2,1.2c-0.1,0.6-0.3,1.3-0.5,1.9
		c-0.3,1-0.6,2-0.9,3.1c-0.2,0.6-0.4,1.1-0.6,1.7c-0.2,0.6-0.4,1.2-0.6,1.7s-0.4,0.9-0.6,1.4c-0.3,0.6-0.6,1.1-0.8,1.7
		c-0.2,0.4-0.4,0.7-0.6,1.1s-0.5,0.8-0.7,1.1c-0.3,0.5-0.6,1-1,1.5c-0.4,0.6-0.8,1.1-1.2,1.7c-0.3,0.4-0.6,0.9-1,1.3
		c-0.2,0.3-0.5,0.6-0.7,0.9c-0.3,0.4-0.7,0.8-1,1.2c-0.2,0.2-0.4,0.5-0.6,0.7c-0.4,0.5-0.9,1-1.3,1.4c-0.6,0.6-1.1,1.2-1.7,1.7
		c-0.5,0.5-0.9,1-1.4,1.5c-0.4,0.4-0.7,0.7-1.1,1.1c-0.6,0.5-1.1,1-1.7,1.5c-0.6,0.5-1.3,1-1.9,1.4c-0.6,0.5-1.3,0.9-2,1.3
		c-0.5,0.3-1,0.6-1.5,0.9c-0.7,0.4-1.4,0.8-2.1,1.1c-0.6,0.3-1.2,0.6-1.8,0.9c-0.1,0.1-0.3,0.1-0.4,0c-0.5-0.2-1-0.4-1.4-0.7
		c-0.3-0.2-0.6-0.3-0.9-0.5c-0.6-0.4-1.3-0.7-1.9-1.1c-0.4-0.2-0.8-0.5-1.2-0.7c0,0,0,0-0.1-0.1h0.1c0.5,0.3,1.1,0.6,1.6,1
		c0.4,0.2,0.8,0.4,1.2,0.6s0.7,0.4,1.1,0.6c0.5,0.3,1.1,0.5,1.7,0.7c0.1,0,0.3,0,0.4,0c0.6-0.3,1.2-0.6,1.8-0.9
		C52.6,87.2,52.9,87,53.3,86.9z"/>
	<path class="st0" d="M23.5,57.8c0.1,0.3,0.2,0.5,0.3,0.8c0.1,0.4,0.2,0.9,0.4,1.3c0.3,0.9,0.6,1.8,1,2.7c0.2,0.5,0.4,1,0.6,1.4
		c0.2,0.5,0.5,1,0.7,1.5c0.4,0.7,0.8,1.5,1.3,2.2c0.4,0.6,0.8,1.3,1.2,1.9c0.4,0.6,0.9,1.2,1.3,1.8c0.4,0.6,0.9,1.1,1.3,1.7
		c0.3,0.4,0.6,0.8,0.9,1.1c0.6,0.6,1.1,1.3,1.7,1.9c0.2,0.2,0.4,0.4,0.6,0.6c0.2,0.2,0.4,0.4,0.5,0.6c0.3,0.3,0.7,0.7,1,1
		c0.2,0.2,0.3,0.4,0.5,0.5c0,0,0,0,0,0.1h-0.1c-0.1-0.1-0.3-0.2-0.4-0.4c-0.1-0.1-0.2-0.2-0.3-0.3c-0.5-0.5-1-1.1-1.6-1.6
		c-0.3-0.3-0.7-0.7-1-1c-0.6-0.6-1.1-1.3-1.6-1.9c-0.4-0.4-0.7-0.9-1.1-1.3c-0.3-0.4-0.6-0.8-0.8-1.1c-0.6-0.8-1.1-1.6-1.7-2.4
		c-0.4-0.6-0.7-1.1-1.1-1.7c-0.5-0.8-0.9-1.7-1.3-2.6c-0.3-0.7-0.6-1.3-0.9-2c-0.2-0.6-0.5-1.2-0.7-1.8c-0.3-0.9-0.6-1.8-0.8-2.7
		C23.5,58.1,23.5,58,23.5,57.8z"/>
	<path class="st0" d="M78.5,46.8c0-0.2,0.1-0.3,0.1-0.5c0-0.3,0.1-0.6,0.1-0.9c0-0.4,0-0.9,0-1.3c0-0.2,0-0.3,0-0.5l0.1-0.1v0.1
		c0,0.5,0,1,0,1.5s-0.1,1.1-0.1,1.6s-0.1,1-0.2,1.5c0,0.3,0,0.5-0.1,0.8c0,0.1,0,0.2-0.1,0.2l-0.1,0.1c0-0.1-0.1-0.1,0-0.2
		c0.1-0.6,0.2-1.2,0.3-1.7C78.6,47.2,78.5,47,78.5,46.8z"/>
	<path class="st0" d="M22.8,55.3c0,0.1,0.1,0.2,0.1,0.3c0,0,0,0,0,0.1c0,0,0,0,0-0.1C22.8,55.5,22.8,55.4,22.8,55.3z"/>
	<path class="st0" d="M53,16c0.1,0,0.2,0,0.3,0s0.2,0,0.2,0c-0.1,0-0.2,0-0.2,0S53.2,16,53,16z"/>
	<path class="st0" d="M44.1,85.3c-0.1,0-0.1-0.1-0.2-0.1l-0.1-0.1C43.9,85.1,43.9,85.2,44.1,85.3C44,85.2,44.1,85.2,44.1,85.3z"/>
	<path class="st0" d="M23.2,56.9C23.2,56.8,23.2,56.8,23.2,56.9c-0.1-0.2-0.1-0.2-0.1-0.3l0,0C23.2,56.6,23.2,56.7,23.2,56.9
		C23.2,56.8,23.2,56.8,23.2,56.9z"/>
	<path class="st0" d="M23.4,57.5L23.4,57.5c-0.1-0.2-0.1-0.2-0.1-0.3l0,0C23.3,57.3,23.4,57.4,23.4,57.5L23.4,57.5z"/>
	<path class="st0" d="M78.4,50.1c0-0.1,0-0.2,0-0.3l0,0l0,0C78.5,49.9,78.5,50,78.4,50.1z"/>
	<path class="st0" d="M22.4,53.2L22.4,53.2c0,0.1,0,0.1,0,0.2C22.3,53.3,22.3,53.3,22.4,53.2C22.3,53.2,22.3,53.2,22.4,53.2
		C22.3,53.1,22.3,53.1,22.4,53.2z"/>
	<path class="st0" d="M23.5,57.8c0-0.1-0.1-0.2-0.1-0.2S23.4,57.7,23.5,57.8z"/>
	<path class="st0" d="M78.6,49.4L78.6,49.4C78.5,49.4,78.5,49.3,78.6,49.4C78.6,49.3,78.6,49.3,78.6,49.4z"/>
	<path class="st0" d="M22.9,56C22.9,55.9,22.9,55.9,22.9,56C22.9,55.9,23,56,22.9,56C23,56,22.9,56,22.9,56z"/>
	<path class="st0" d="M23,56.4C23,56.4,23,56.3,23,56.4c0-0.1,0-0.1,0-0.2l0,0C23,56.3,23,56.3,23,56.4z"/>
	<path class="st0" d="M44.1,85.3c0.1,0,0.1,0.1,0.2,0.1l0,0C44.3,85.4,44.2,85.4,44.1,85.3z"/>
	<path class="st0" d="M79.4,37C79.4,37,79.3,37,79.4,37C79.3,37,79.3,37,79.4,37L79.4,37z"/>
	<path class="st0" d="M23.2,56.9L23.2,56.9c0,0.1,0.1,0.1,0.1,0.2l0,0C23.2,57,23.2,56.9,23.2,56.9z"/>
	<path class="st0" d="M63.2,15.7L63.2,15.7c-0.1,0-0.1,0-0.2,0C63.1,15.7,63.1,15.7,63.2,15.7z"/>
	<path class="st0" d="M63.5,15.7L63.5,15.7L63.5,15.7C63.6,15.7,63.6,15.7,63.5,15.7z"/>
</g>
</svg>
