<?xml version="1.0" encoding="utf-8"?>
<!-- Generator: Adobe Illustrator 20.1.0, SVG Export Plug-In . SVG Version: 6.00 Build 0)  -->
<svg version="1.1" id="Layer_1" xmlns="http://www.w3.org/2000/svg" xmlns:xlink="http://www.w3.org/1999/xlink" x="0px" y="0px"
	 viewBox="0 0 100 100" style="enable-background:new 0 0 100 100;" xml:space="preserve">
<g id="Shape_22">
	<path d="M23.9,57.8c0-11.4,0-22.7,0-34.1c17.3,0,34.7,0,52,0c0.1,0,0.2,0,0.2,0.2c0,11.6,0,23.2,0,34.8c0,0.2,0,0.3,0,0.5
		c0,0.3-0.1,0.7-0.1,1c0,0.3-0.1,0.6-0.1,0.9c-0.1,0.4-0.2,0.8-0.3,1.2c-0.1,0.5-0.3,1-0.4,1.5c-0.1,0.4-0.2,0.8-0.4,1.2
		c-0.2,0.5-0.4,1-0.6,1.5c-0.3,0.6-0.5,1.2-0.8,1.8c-0.2,0.4-0.4,0.7-0.6,1c-0.2,0.4-0.4,0.8-0.7,1.1c-0.3,0.4-0.6,0.8-0.9,1.2
		c-0.3,0.4-0.7,0.9-1,1.3c-0.4,0.4-0.7,0.9-1.1,1.3c-0.4,0.5-0.9,0.9-1.4,1.4c-0.1,0.1-0.3,0.2-0.4,0.4c-0.2,0.2-0.4,0.4-0.7,0.5
		c-0.4,0.3-0.8,0.7-1.3,1c-0.5,0.4-1,0.8-1.6,1.1c-0.5,0.3-1.1,0.6-1.6,0.9c-0.3,0.1-0.5,0.3-0.8,0.4c-0.4,0.2-0.7,0.3-1.1,0.5
		c-0.5,0.2-1,0.4-1.5,0.6c-0.6,0.2-1.2,0.4-1.7,0.6c-0.6,0.2-1.1,0.3-1.7,0.4c-0.6,0.1-1.3,0.2-1.9,0.3c-0.4,0.1-0.8,0.1-1.2,0.1
		c-0.8,0-1.5,0-2.3,0c-0.9,0-1.9,0-2.8,0c-0.2,0-0.4,0-0.6-0.1c-0.3-0.1-0.7-0.1-1-0.2c-0.5-0.1-0.9-0.1-1.4-0.3c-1-0.3-2-0.5-3-0.9
		c-0.4-0.2-0.8-0.3-1.2-0.5c-0.5-0.2-0.9-0.4-1.4-0.6c-0.6-0.3-1.2-0.7-1.8-1c-0.3-0.2-0.6-0.3-0.8-0.5c-0.3-0.2-0.6-0.4-0.9-0.6
		c-0.2-0.1-0.4-0.3-0.6-0.4c-0.3-0.2-0.5-0.4-0.7-0.6c-0.4-0.4-0.9-0.7-1.3-1.1c-0.4-0.3-0.7-0.7-1-1c-0.1-0.1-0.1-0.2-0.2-0.2
		c-0.1-0.1-0.3-0.3-0.4-0.4c-0.4-0.5-0.8-0.9-1.2-1.4c-0.3-0.4-0.6-0.8-0.9-1.2c-0.3-0.4-0.5-0.8-0.8-1.2c-0.4-0.6-0.7-1.2-1.1-1.9
		c-0.3-0.6-0.5-1.1-0.8-1.7c-0.2-0.4-0.3-0.8-0.5-1.1c-0.2-0.4-0.3-0.9-0.4-1.3c-0.1-0.5-0.3-1-0.4-1.5c-0.1-0.4-0.2-0.8-0.3-1.2
		c-0.1-0.3-0.2-0.7-0.2-1c-0.1-0.4-0.1-0.9-0.2-1.3c0-0.4,0-0.8-0.1-1.1C24,57.9,23.9,57.8,23.9,57.8 M40.6,32.2
		c0-0.3,0-0.5-0.1-0.7c-0.1-0.2-0.1-0.3,0.1-0.5c0.3-0.2,0.3-0.6,0.3-1c0-0.2-0.1-0.3-0.3-0.2c-0.3,0.1-0.7,0.2-1.1,0.1
		c-0.3-0.1-0.6-0.2-0.9-0.4c-0.2-0.2-0.2-0.6,0-0.8c0.2-0.3,0.5-0.3,0.9-0.3c0.4,0,0.8,0.1,1.1,0.2c0.1,0,0.2,0.1,0.2,0
		c0.2-0.4,0.2-0.8-0.1-1.2c-0.1-0.1-0.1-0.2,0-0.3c0.1-0.2,0.2-0.3,0.2-0.5c0.1-0.3,0.1-0.5-0.1-0.7c-0.2-0.3-0.4-0.4-0.7-0.4
		c-0.2,0-0.4,0-0.6,0.1c-0.1,0-0.2,0.1-0.3,0c-0.3-0.3-0.6-0.4-1-0.3c-0.2,0-0.3,0.1-0.3,0.3c0.1,0.3,0.1,0.6,0.1,1
		c0,0.4-0.1,0.7-0.4,1c-0.2,0.2-0.5,0.2-0.7,0.1c-0.3-0.2-0.4-0.5-0.5-0.8c0-0.5,0.1-0.9,0.3-1.3c0,0,0-0.1,0-0.1
		c-0.1-0.1-0.3-0.2-0.4-0.2c-0.3,0-0.7,0-1,0.3c-0.1,0.1-0.1,0-0.2,0c-0.3-0.2-0.5-0.3-0.8-0.3c-0.4,0-0.8,0.4-0.8,0.8
		c0,0.2,0.1,0.5,0.2,0.7c0,0.1,0.1,0.2,0,0.3c-0.3,0.3-0.4,0.6-0.3,1c0,0.2,0.1,0.3,0.3,0.3c0.2,0,0.3-0.1,0.4-0.1
		c0.3,0,0.5,0,0.8,0.1c0.5,0.2,0.5,1,0.1,1.3c-0.3,0.2-0.6,0.4-0.9,0.5c-0.4,0.1-0.8,0.2-1.2,0.1c-0.4,0-0.8-0.2-1.1-0.4
		c-0.5-0.3-0.9-0.7-1.1-1.3c-0.2-0.5-0.2-1.1-0.1-1.6c0.1-0.4,0.3-0.7,0.5-1.1c0.1-0.2,0.1-0.2,0.3,0c0.4,0.4,0.8,0.1,0.9-0.2
		c0.1-0.3,0-0.5-0.2-0.8c-0.1-0.2-0.3-0.3-0.5-0.3c-1.7,0-3.3,0-5,0c-0.1,0-0.1,0-0.2,0c0,0-0.1,0-0.1,0c0,0,0,0.1,0.1,0.1
		c0.4,0.2,0.7,0.4,1.2,0.5c0.4,0.1,0.8,0.2,1.2,0.1c0.4-0.1,0.8-0.2,1.2-0.3c0.1,0,0.2,0,0.2,0c0.1,0,0.1,0.1,0.2,0.2
		c0.1,0.1,0.2,0.2,0.1,0.3c0,0.1-0.1,0.1-0.1,0.2c-0.3,0.5-0.5,1.1-0.5,1.7c0,0.3,0,0.7,0.1,1c0.2,0.6,0.5,1.1,0.9,1.6
		c0.3,0.3,0.7,0.6,1.2,0.8c0.4,0.2,0.7,0.2,1.1,0.3c0.6,0,1.2,0,1.8-0.3c0.1-0.1,0.2-0.1,0.3,0c0.1,0.1,0.2,0.2,0.3,0.3
		c0,0,0,0.1,0,0.2c-0.1,0.1-0.2,0.3-0.2,0.4c-0.2,0.3-0.3,0.7-0.3,1.1c0,0.3,0,0.7,0,1c0,0.4,0.2,0.8,0.4,1.2
		c0.3,0.5,0.7,0.9,1.2,1.3c0.5,0.3,1,0.5,1.5,0.5c0.6,0.1,1.2,0,1.8-0.3c0.1,0,0.2,0,0.3,0c0.1,0.1,0.2,0.3,0.3,0.4c0,0,0,0.1,0,0.1
		c-0.1,0.1-0.2,0.2-0.2,0.3c-0.3,0.6-0.5,1.3-0.4,2c0.1,0.4,0.2,0.8,0.3,1.2c0.2,0.4,0.5,0.8,0.8,1.1c0.6,0.6,1.4,0.9,2.3,0.9
		c0.3,0,0.6,0,0.8-0.1c0.3-0.1,0.5-0.1,0.8-0.3c0,0,0.2,0,0.2,0c0.1,0.1,0.2,0.2,0.3,0.3c0.1,0.1,0.1,0.2,0,0.2
		c-0.1,0.2-0.2,0.3-0.3,0.5c-0.2,0.4-0.3,0.8-0.3,1.2c0,0.3,0,0.6,0.1,0.9c0.1,0.6,0.3,1.1,0.7,1.6c0.4,0.5,0.9,0.9,1.5,1.1
		c0.2,0.1,0.5,0.2,0.8,0.2c0.3,0,0.6,0,0.8,0c0.3,0,0.6-0.1,0.9-0.2c0.4-0.2,0.4-0.2,0.6,0.1c0,0,0,0.1,0.1,0.1
		c0.1,0.1,0.1,0.2,0,0.3c-0.1,0.2-0.2,0.4-0.3,0.7c-0.2,0.4-0.2,0.7-0.2,1.1c0,0.2,0,0.3,0,0.5c0,0.4,0.1,0.7,0.3,1.1
		c0.2,0.5,0.5,0.9,0.9,1.2c0.2,0.2,0.5,0.4,0.8,0.5c0.6,0.3,1.3,0.4,1.9,0.4c0.4-0.1,0.8-0.2,1.1-0.3c0.1-0.1,0.2,0,0.3,0.1
		c0.1,0.1,0.1,0.2,0.2,0.2c0.1,0.1,0.1,0.1,0,0.2c-0.1,0.2-0.2,0.3-0.3,0.5c-0.2,0.4-0.3,0.9-0.3,1.3c0,0.3,0,0.6,0.1,0.8
		c0.1,0.4,0.2,0.7,0.4,1.1c0.2,0.4,0.5,0.7,0.9,1c0.5,0.4,1.2,0.7,1.9,0.8c0.6,0.1,1.3,0,1.9-0.3c0.1,0,0.2,0,0.2,0
		c0.1,0.1,0.1,0.2,0.2,0.3c0.1,0.1,0.1,0.2,0,0.3c-0.3,0.5-0.5,1-0.5,1.5c-0.1,0.5,0,1,0.2,1.5c0.2,0.5,0.4,0.9,0.8,1.3
		c0.3,0.3,0.7,0.6,1.1,0.8c0.4,0.2,0.8,0.3,1.1,0.3c0.5,0,1,0,1.5-0.2c0.3-0.1,0.5-0.1,0.6,0.2c0.1,0.2,0.2,0.2,0,0.4
		c-0.3,0.5-0.5,1-0.5,1.5c0,0.5,0,1,0.2,1.5c0.2,0.6,0.6,1.2,1.1,1.6c0.5,0.4,1.1,0.7,1.8,0.8c0.7,0.1,1.3,0,1.9-0.3
		c0.1,0,0.2,0,0.2,0c0.1,0.1,0.1,0.2,0.2,0.2c0.1,0.1,0.1,0.2,0,0.3c-0.2,0.3-0.3,0.6-0.4,0.9c-0.1,0.2-0.1,0.5-0.2,0.7
		c0,0,0,0.1,0,0.1c0,0,0.1,0,0.1-0.1c0.1-0.1,0.2-0.3,0.3-0.4c0.3-0.4,0.6-0.7,0.9-1.1c0.3-0.5,0.6-1,0.9-1.4
		c0.2-0.4,0.4-0.7,0.6-1.1c0-0.1,0.1-0.1,0.1-0.2c-0.1-0.1-0.4-0.3-0.6-0.3c-0.3,0.1-0.5,0.2-0.6,0.5c0,0.1-0.1,0.2-0.2,0.2
		c-0.1,0-0.2,0.2-0.4,0c-0.1-0.1-0.1-0.1-0.2-0.2c-0.2-0.1-0.5-0.3-0.7-0.2c-0.2,0.1-0.5,0.3-0.4,0.6c0,0.1,0.1,0.2,0.2,0.4
		c0.1,0.1,0,0.1-0.1,0.2c-0.1,0.1-0.2,0.1-0.3,0.1c-0.4,0.1-0.9,0.2-1.4,0.2c-0.3,0-0.7-0.1-1-0.3c-0.3-0.2-0.5-0.4-0.8-0.6
		c-0.5-0.5-0.7-1.1-0.7-1.8c0-0.2,0-0.4,0.1-0.6c0.1-0.7,0.4-1.2,1-1.6c0.4-0.3,1.1,0,1.2,0.5c0.1,0.4-0.1,0.7-0.2,1
		c-0.1,0.1,0,0.2,0.1,0.3c0.2,0.1,0.4,0.2,0.6,0.1c0.2,0,0.4-0.1,0.6-0.3c0,0,0.2,0,0.2,0c0.1,0,0.2,0.1,0.4,0.2
		c0.5,0.2,0.8,0.1,1.1-0.3c0.2-0.3,0.2-0.6,0.1-0.9c-0.1-0.3-0.1-0.5,0.1-0.7c0.2-0.3,0.3-0.6,0.1-1C70.5,64,70.4,64,70.3,64
		c-0.3,0.1-0.7,0.1-1,0.1c-0.3,0-0.5-0.1-0.7-0.2c-0.2-0.1-0.4-0.3-0.4-0.6c0-0.3,0.2-0.5,0.4-0.6c0.3-0.1,0.6-0.2,0.9-0.1
		c0.3,0,0.6,0.1,0.9,0.3c0.1,0.1,0.1,0,0.2-0.1c0.2-0.3,0.2-0.9-0.1-1.2c-0.1-0.1-0.1-0.2,0-0.3c0-0.1,0.1-0.2,0.1-0.3
		c0.2-0.4,0.1-0.8-0.2-1.1c-0.3-0.3-0.7-0.3-1.1-0.1c-0.2,0.1-0.3,0.2-0.5,0c-0.3-0.3-0.7-0.4-1.1-0.3c-0.1,0-0.2,0.1-0.1,0.2
		c0.1,0.4,0.2,0.8,0.1,1.2c-0.1,0.3-0.2,0.6-0.5,0.8c-0.1,0.1-0.3,0.1-0.4,0.1c-0.4-0.1-0.6-0.5-0.6-0.9c0-0.5,0.1-0.9,0.3-1.3
		c0,0,0-0.1,0-0.1c-0.3-0.2-0.7-0.3-1-0.1c-0.3,0.2-0.5,0.2-0.8,0c0,0,0,0,0,0c-0.3-0.1-0.5-0.2-0.8,0c-0.5,0.3-0.7,0.7-0.5,1.2
		c0.1,0.2,0.1,0.4-0.1,0.6c-0.3,0.3-0.3,0.7-0.2,1c0,0.1,0.1,0.1,0.2,0.1c0.3-0.1,0.6-0.1,0.8-0.1c0.4,0,0.7,0.3,0.8,0.8
		c0,0.4-0.2,0.7-0.5,0.9c-0.3,0.2-0.7,0.4-1.1,0.4c-0.3,0-0.7,0-1,0c-0.6-0.1-1.1-0.4-1.5-0.8c-0.3-0.3-0.5-0.6-0.6-1
		c-0.1-0.4-0.2-0.8-0.1-1.3c0.1-0.5,0.3-0.9,0.5-1.3c0.1-0.2,0.2-0.2,0.3,0c0.3,0.3,0.8,0.2,0.9-0.2c0.1-0.3,0-0.6-0.2-0.8
		c-0.1-0.1-0.1-0.2,0-0.4c0.1-0.1,0.1-0.3,0.3-0.3c0.3,0,0.5-0.2,0.5-0.5c0-0.3,0-0.6-0.2-0.7c-0.4-0.3-1-0.2-1.2,0.4
		c0,0,0,0.1,0,0.1c-0.1,0.1-0.5,0.1-0.6,0c-0.2-0.2-0.5-0.3-0.8-0.3c-0.2,0-0.4,0.4-0.4,0.6c0,0.1,0.1,0.2,0.2,0.4
		c0,0.1,0,0.1,0,0.2c-0.4,0.2-0.8,0.3-1.2,0.3c-0.6,0-1.1,0-1.6-0.3c-0.5-0.3-0.8-0.7-1-1.2c-0.2-0.4-0.3-0.9-0.3-1.4
		c0-0.5,0.1-0.9,0.4-1.3c0.2-0.3,0.4-0.5,0.6-0.7c0.3-0.2,0.5-0.2,0.8,0c0.3,0.1,0.5,0.4,0.5,0.7c0,0.3-0.1,0.6-0.2,0.8
		c-0.1,0.2-0.1,0.2,0.1,0.3c0.3,0.2,0.7,0.1,1-0.1c0.1-0.1,0.3-0.2,0.5-0.1c0.1,0.1,0.2,0.1,0.3,0.2c0.3,0.1,0.6,0.1,0.8-0.1
		c0.3-0.2,0.4-0.4,0.4-0.8c0-0.2-0.1-0.4-0.2-0.7c0-0.1,0-0.1,0-0.2c0.1-0.1,0.2-0.2,0.2-0.4c0.2-0.3,0.2-0.6,0-0.9
		c0,0-0.1-0.1-0.1-0.1c-0.4,0.1-0.8,0.2-1.2,0.1c-0.3,0-0.6-0.2-0.8-0.4c-0.1-0.2-0.2-0.5-0.1-0.6c0.2-0.3,0.5-0.5,0.8-0.5
		c0.5,0,0.9,0.1,1.3,0.3c0.1,0,0.1,0,0.2,0c0-0.1,0.1-0.2,0.1-0.3c0.1-0.4,0-0.7-0.2-1c-0.1-0.1-0.1-0.1,0-0.2
		c0.2-0.3,0.3-0.5,0.3-0.9c0-0.3-0.3-0.6-0.6-0.7c-0.3-0.1-0.6,0-0.8,0.1c-0.1,0-0.2,0.2-0.4,0c-0.1-0.1-0.1-0.1-0.2-0.2
		c-0.3-0.2-0.6-0.3-1-0.1c-0.1,0-0.2,0.1-0.1,0.3c0.1,0.4,0.2,0.8,0.1,1.2c-0.1,0.3-0.2,0.6-0.5,0.8c-0.2,0.1-0.5,0.1-0.7,0
		c-0.3-0.3-0.4-0.6-0.4-1c0-0.4,0.1-0.8,0.3-1.1c0-0.1,0-0.1,0-0.2c-0.4-0.3-0.8-0.2-1.2,0.1c-0.1,0.1-0.2,0.1-0.3,0
		c-0.2-0.1-0.4-0.2-0.6-0.3c-0.4-0.1-0.8,0.1-1,0.5c-0.1,0.3-0.1,0.6,0.1,0.9c0,0.1,0.1,0.2,0,0.4c-0.3,0.3-0.4,0.7-0.3,1.2
		c0,0.1,0.1,0.2,0.2,0.1c0.3-0.1,0.6-0.1,0.8-0.1c0.4,0,0.7,0.3,0.8,0.7c0,0.3-0.1,0.6-0.4,0.8c-0.5,0.4-1,0.5-1.6,0.6
		c-0.3,0-0.7-0.1-1-0.2c-0.6-0.2-1.1-0.6-1.5-1.2c-0.4-0.6-0.4-1.2-0.3-1.9c0.1-0.4,0.2-0.7,0.4-1.1c0.2-0.3,0.2-0.3,0.4-0.1
		c0.2,0.2,0.4,0.2,0.6,0.1c0.2-0.1,0.4-0.4,0.3-0.6c-0.1-0.2-0.2-0.4-0.2-0.6c0-0.1-0.1-0.1,0-0.2c0-0.1,0.1-0.2,0.1-0.3
		c0-0.1,0.1-0.1,0.2-0.1c0.2-0.1,0.4-0.2,0.5-0.4c0.1-0.3,0.1-0.5-0.1-0.8c-0.2-0.2-0.4-0.3-0.7-0.3c-0.3,0-0.5,0.2-0.6,0.5
		c0,0.1-0.1,0.1-0.2,0.1c0,0-0.1,0-0.2,0c-0.1,0.1-0.2,0-0.3-0.1c-0.2-0.2-0.5-0.3-0.8-0.3c-0.3,0-0.6,0.4-0.5,0.7
		c0.1,0.1,0.2,0.2,0.1,0.3c0,0.1-0.2,0.1-0.3,0.2c-0.5,0.2-1.1,0.3-1.6,0.2c-0.5-0.1-1-0.3-1.4-0.7c-0.4-0.3-0.6-0.8-0.8-1.3
		c-0.2-0.5-0.2-1.1,0-1.6c0.1-0.3,0.3-0.6,0.5-0.9c0.2-0.3,0.5-0.5,0.9-0.5c0.4,0,0.8,0.4,0.8,0.8c0,0.3-0.1,0.6-0.2,0.9
		c-0.1,0.1,0,0.2,0.1,0.3c0.1,0.1,0.3,0.1,0.4,0.1c0.3,0,0.5-0.1,0.7-0.2c0.1-0.1,0.2-0.1,0.3,0c0.1,0.1,0.2,0.1,0.4,0.2
		c0.4,0.2,0.8,0.1,1.1-0.3c0.2-0.3,0.1-0.6,0-0.9c0-0.1-0.2-0.3,0-0.5c0.1-0.1,0.2-0.3,0.3-0.4c0.1-0.3,0.1-0.5,0-0.8
		c0-0.1-0.1-0.1-0.2-0.1c-0.2,0.1-0.4,0.1-0.6,0.1c-0.5,0-0.9,0-1.3-0.3c-0.3-0.2-0.4-0.7-0.1-1c0.3-0.2,0.6-0.3,1-0.3
		c0.4,0,0.7,0.1,1,0.3c0.1,0,0.2,0.1,0.2,0c0.1-0.2,0.2-0.4,0.2-0.6c0-0.2-0.1-0.4-0.2-0.6c-0.1-0.2-0.1-0.3,0-0.4
		c0.2-0.3,0.3-0.5,0.2-0.9c-0.1-0.3-0.3-0.5-0.6-0.6c-0.3-0.1-0.5,0-0.8,0.1c-0.2,0.1-0.3,0.1-0.4,0c-0.2-0.2-0.6-0.4-0.9-0.3
		c-0.2,0-0.4,0.1-0.3,0.3c0,0.1,0.1,0.3,0.1,0.4c0.1,0.5,0.1,1-0.3,1.4c-0.3,0.3-0.7,0.3-0.9,0.1c-0.2-0.2-0.3-0.5-0.3-0.8
		c0-0.4,0.1-0.8,0.2-1.2c0-0.1,0-0.2,0-0.2c-0.1-0.1-0.2-0.1-0.3-0.1c-0.3-0.1-0.7,0-1,0.2c-0.1,0.1-0.2,0.1-0.3,0
		c-0.2-0.2-0.5-0.2-0.8-0.2c-0.6,0-0.9,0.6-0.8,1.1c0,0.2,0.1,0.3,0.2,0.4c0.1,0.2-0.1,0.2-0.1,0.3c-0.3,0.3-0.4,0.7-0.2,1.1
		c0,0,0.1,0.1,0.1,0.1c0.2,0,0.3-0.1,0.5-0.1c0.3-0.1,0.5,0,0.8,0.1c0.5,0.3,0.5,0.9,0.1,1.3c-0.4,0.4-0.9,0.6-1.5,0.6
		c-0.5,0-1-0.1-1.5-0.3c-0.7-0.4-1.2-0.9-1.4-1.7c-0.1-0.4-0.1-0.8,0-1.3c0.1-0.4,0.3-0.8,0.5-1.2c0.1-0.1,0.1-0.1,0.2,0
		c0.3,0.3,0.7,0.3,0.9-0.1c0.2-0.3,0.1-0.6-0.1-0.9c-0.1-0.1-0.1-0.2,0-0.4c0.1-0.2,0.1-0.3,0.3-0.3c0.2,0,0.4-0.2,0.5-0.4
		c0-0.1,0-0.2,0-0.3c0-0.4-0.3-0.7-0.7-0.7c-0.3,0-0.6,0.2-0.7,0.5c-0.1,0.2-0.3,0.3-0.5,0.3c0,0-0.1,0-0.1,0
		c-0.1-0.1-0.2-0.2-0.3-0.2c-0.3-0.2-0.6-0.2-0.9,0c-0.2,0.1-0.2,0.4-0.1,0.5c0,0.1,0.1,0.2,0.1,0.3c0,0.1,0,0.2-0.1,0.2
		c-0.4,0.1-0.8,0.3-1.2,0.3c-0.4,0.1-0.8,0-1.1-0.1c-0.4-0.1-0.7-0.4-1-0.7c-0.5-0.5-0.7-1.1-0.8-1.9c0-0.2,0-0.4,0.1-0.6
		c0.1-0.2,0.2-0.5,0.3-0.7c0.1-0.2,0.2-0.3,0.3-0.4c0.2-0.3,0.5-0.5,0.9-0.5c0.4,0,0.7,0.4,0.7,0.8c0,0.3-0.1,0.6-0.2,0.9
		c-0.1,0.1,0,0.2,0.1,0.3c0.2,0.1,0.4,0.1,0.5,0.1c0.2,0,0.5-0.1,0.7-0.2c0.1-0.1,0.2-0.1,0.3,0c0.3,0.2,0.6,0.3,1,0.2
		C40.2,32.8,40.5,32.4,40.6,32.2 M44.4,35.1c10.3,0,20.6,0,30.9,0c0.2,0,0.2,0,0.2-0.2c0-1.7,0-3.4,0-5.1c0,0,0-0.1,0-0.1
		c0.1-0.1,0-0.1-0.1-0.1c-0.1,0-0.1,0-0.2,0c-11.3,0-22.5,0-33.8,0c0,0-0.1,0-0.1,0c-0.1,0-0.1,0.1-0.1,0.1c0.1,0.3,0.1,0.5,0.1,0.8
		c0,0.3-0.1,0.5-0.2,0.7c0,0.1-0.1,0.2-0.1,0.3c0.1,0.2,0.1,0.5,0.1,0.7c-0.1,0.5-0.4,0.9-0.8,1.1c-0.4,0.2-0.9,0.2-1.3,0
		c-0.1,0-0.2-0.1-0.2,0c-0.4,0.2-0.8,0.2-1.2,0.1c-0.4-0.1-0.7-0.3-0.9-0.6c-0.1-0.1-0.1-0.1,0-0.2c0.2-0.2,0.3-0.5,0.4-0.7
		c0-0.1,0-0.3-0.2-0.4c-0.1-0.1-0.3,0-0.4,0.1c-0.2,0.2-0.4,0.5-0.5,0.8c-0.2,0.5-0.1,0.9,0,1.4c0.1,0.4,0.4,0.8,0.7,1
		c0.2,0.2,0.5,0.3,0.7,0.4c0.4,0.1,0.8,0,1.2,0c0.1,0,0.2-0.1,0.2-0.2c0-0.2,0-0.3,0-0.5c0.1-0.2,0.2-0.4,0.4-0.6
		c0.2-0.2,0.5-0.3,0.9-0.2c0.2,0,0.5,0.1,0.7,0.3c0.1,0.1,0.1,0,0.2,0c0.1-0.1,0.1-0.2,0.2-0.3c0.3-0.3,0.7-0.3,1.1-0.3
		c0.4,0.1,0.6,0.3,0.8,0.6c0.2,0.3,0.3,0.6,0.2,1c0,0.2,0,0.2,0.2,0.2C43.8,35.1,44.1,35.1,44.4,35.1 M58.7,69.3
		c-0.1-0.1-0.2-0.3-0.4-0.4c-0.3-0.4-0.7-0.8-1-1.1c-0.2-0.3-0.5-0.5-0.7-0.8c-0.3-0.4-0.6-0.7-0.9-1.1c-0.2-0.2-0.4-0.5-0.6-0.7
		c-0.4-0.4-0.7-0.8-1.1-1.2c-0.1-0.1-0.2-0.1-0.3-0.1c-9.3,0-18.5,0-27.8,0c0,0-0.1,0-0.1,0c-0.1,0-0.1,0.1-0.1,0.2
		c0.1,0.3,0.2,0.5,0.3,0.8c0.2,0.6,0.4,1.1,0.7,1.7c0.2,0.5,0.4,1,0.7,1.4c0.2,0.4,0.5,0.9,0.7,1.3c0.1,0.1,0.1,0.2,0.3,0.2
		c10,0,20,0,30,0C58.4,69.3,58.5,69.4,58.7,69.3C58.7,69.4,58.7,69.3,58.7,69.3 M34,76.1c0.4,0.3,0.9,0.7,1.3,1
		c0.3,0.2,0.6,0.4,0.8,0.6c0.6,0.4,1.3,0.7,1.9,1.1c0.3,0.2,0.7,0.4,1,0.5c0.4,0.2,0.7,0.3,1.1,0.5c0.6,0.2,1.1,0.4,1.7,0.7
		c0.8,0.3,1.6,0.5,2.4,0.7c0.5,0.1,1.1,0.2,1.6,0.3c0.5,0.1,1,0.1,1.5,0.2c0.2,0,0.5,0.1,0.7,0.1c0.4,0,0.7,0.1,1.1,0.1
		c0.8,0,1.6,0,2.4,0c0,0,0,0,0.1,0c0.3,0,0.5-0.1,0.8-0.1c0.2,0,0.4,0,0.7,0c0.4-0.1,0.8-0.1,1.3-0.2c0.6-0.1,1.1-0.2,1.6-0.3
		c0.7-0.2,1.5-0.4,2.2-0.6c0.6-0.2,1.2-0.4,1.8-0.7c0.5-0.2,0.9-0.4,1.3-0.6c0.4-0.2,0.8-0.4,1.2-0.6c0.5-0.3,0.9-0.5,1.4-0.8
		c0.4-0.2,0.7-0.5,1.1-0.8c0,0,0-0.1,0-0.1c-0.4-0.4-0.8-0.8-1.1-1.3c-0.1-0.2-0.3-0.2-0.5-0.2c-10,0-20,0-29.9,0
		c-0.1,0-0.2,0-0.3,0c-0.1,0-0.1,0-0.2,0c0,0,0.1,0.1,0.1,0.1c0,0,0,0,0,0C33.5,75.6,33.7,75.8,34,76.1 M75.5,41.1
		c-0.1,0-0.2-0.1-0.3-0.1c-7.9,0-15.8,0-23.7,0c0,0-0.1,0-0.1,0c-0.2,0-0.2,0.1-0.1,0.2c0.2,0.5,0.1,0.9-0.1,1.3
		c-0.1,0.1-0.1,0.2-0.1,0.3c0,0.2,0.1,0.4,0.1,0.6c0,0.5-0.3,0.9-0.7,1.1c-0.4,0.2-0.9,0.2-1.3,0.1c-0.1,0-0.2-0.1-0.4,0
		c-0.4,0.2-0.8,0.2-1.1,0.1c-0.4-0.1-0.7-0.3-0.9-0.6c-0.1-0.1-0.1-0.1,0-0.2c0.2-0.2,0.3-0.5,0.4-0.8c0-0.1,0-0.2-0.1-0.3
		c-0.1-0.1-0.2-0.1-0.3,0c-0.2,0.2-0.3,0.3-0.4,0.5c-0.2,0.4-0.3,0.8-0.2,1.2c0,0.4,0.1,0.7,0.3,1c0.3,0.4,0.6,0.7,1.1,0.9
		c0.4,0.1,0.9,0,1.3,0.1c0.1,0,0.1,0,0.1-0.1c0-0.1,0-0.2,0-0.3c0.1-0.3,0.2-0.5,0.5-0.7c0.3-0.2,0.6-0.3,0.9-0.2
		c0.2,0,0.4,0.1,0.6,0.2c0,0,0.1,0,0.2,0c0.1-0.1,0.2-0.3,0.4-0.4c0.3-0.3,0.7-0.3,1.1-0.1c0.3,0.1,0.5,0.3,0.7,0.6
		c0.2,0.2,0.2,0.5,0.2,0.8c-0.1,0.3-0.1,0.2,0.2,0.2c7.3,0,14.5,0,21.8,0c0.2,0,0.2,0,0.2-0.2c0-1.7,0-3.4,0-5
		C75.5,41.2,75.5,41.1,75.5,41.1 M27.3,57.9c7.1,0,14.2,0,21.3,0c0,0,0.1,0,0.1,0c0,0,0-0.1,0-0.1c-0.4-0.4-0.7-0.8-1.1-1.2
		c-0.2-0.2-0.3-0.3-0.5-0.5c-0.4-0.4-0.7-0.8-1.1-1.2c-0.2-0.2-0.4-0.4-0.6-0.6c-0.3-0.4-0.6-0.7-1-1.1c-0.1-0.2-0.3-0.3-0.4-0.5
		c-0.1-0.2-0.2-0.2-0.4-0.2c-3.5,0-7.1,0-10.6,0c-2.8,0-5.5,0-8.3,0c-0.1,0-0.2,0-0.2,0.2c0,1.7,0,3.5,0,5.2c0,0.1,0,0.2,0.2,0.2
		C25.6,57.9,26.5,57.9,27.3,57.9 M37.4,40c-0.2-0.2-0.4-0.4-0.6-0.7c-0.4-0.5-0.8-0.9-1.2-1.4c-0.2-0.3-0.5-0.5-0.7-0.8
		c-0.3-0.4-0.7-0.8-1-1.2c-0.2-0.3-0.5-0.5-0.7-0.8c-0.3-0.4-0.7-0.8-1-1.2c-0.2-0.3-0.4-0.5-0.7-0.8c-0.3-0.4-0.6-0.7-0.9-1.1
		c-0.2-0.3-0.5-0.5-0.7-0.8c-0.4-0.5-0.8-0.9-1.2-1.4c-0.2-0.3-0.5-0.5-0.7-0.8c-0.4-0.4-0.7-0.8-1.1-1.2c-0.2-0.2-0.4-0.5-0.6-0.7
		c-0.3-0.4-0.6-0.7-0.9-1.1c-0.2-0.3-0.5-0.5-0.7-0.8c0,0-0.1,0-0.1-0.1c0,0,0,0.1,0,0.1c0,0.6,0,1.3,0,1.9c0,0.1,0,0.2,0.1,0.2
		c0.2,0.2,0.4,0.4,0.6,0.7c0.3,0.4,0.6,0.7,1,1.1c0.2,0.2,0.4,0.5,0.6,0.7c0.3,0.3,0.5,0.6,0.8,1c0.2,0.3,0.5,0.6,0.7,0.8
		c0.3,0.4,0.7,0.8,1,1.1c0.2,0.3,0.5,0.5,0.7,0.8c0.4,0.4,0.7,0.9,1.1,1.3c0.1,0.1,0.3,0.3,0.4,0.4c0.2,0.2,0.3,0.4,0.5,0.6
		c0.2,0.3,0.5,0.5,0.7,0.8c0.3,0.4,0.7,0.8,1,1.2c0.3,0.3,0.6,0.6,0.9,1c0.3,0.3,0.6,0.7,0.9,1c0.2,0.2,0.4,0.4,0.6,0.6
		c0.4,0.4,0.7,0.9,1.1,1.3c0.2,0.3,0.5,0.5,0.7,0.8c0.4,0.4,0.7,0.8,1.1,1.3c0.1,0.2,0.3,0.3,0.4,0.5c0.3,0.4,0.7,0.8,1,1.2
		c0.2,0.3,0.5,0.5,0.7,0.8c0.3,0.4,0.6,0.7,0.9,1.1c0.1,0.2,0.3,0.3,0.5,0.5c0.3,0.4,0.7,0.8,1,1.1c0.2,0.2,0.3,0.4,0.5,0.6
		c0.3,0.4,0.6,0.7,0.9,1.1c0.2,0.2,0.4,0.4,0.6,0.6c0.4,0.4,0.7,0.8,1.1,1.3c0.2,0.3,0.5,0.5,0.7,0.8c0.3,0.4,0.7,0.8,1,1.2
		c0.2,0.3,0.4,0.5,0.7,0.8c0.4,0.5,0.8,1,1.3,1.4c0.2,0.2,0.3,0.3,0.5,0.5c0.3,0.4,0.6,0.7,1,1.1c0.2,0.2,0.3,0.4,0.5,0.6
		c0.3,0.4,0.6,0.7,0.9,1.1c0.2,0.3,0.4,0.5,0.7,0.8c0.3,0.4,0.7,0.8,1,1.2c0.2,0.2,0.3,0.3,0.5,0.5c0.3,0.4,0.6,0.7,0.9,1.1
		c0.2,0.2,0.4,0.5,0.6,0.7c0.2,0.3,0.5,0.5,0.7,0.8c0.2,0.3,0.5,0.5,0.7,0.8c0.4,0.5,0.8,0.9,1.2,1.4c0.2,0.2,0.3,0.4,0.5,0.5
		c0.3,0.4,0.6,0.7,0.9,1.1c0.2,0.2,0.4,0.4,0.6,0.6c0.3,0.3,0.6,0.7,0.9,1c0.2,0.3,0.5,0.5,0.7,0.8c0.4,0.4,0.7,0.8,1.1,1.2
		c0.2,0.3,0.4,0.5,0.7,0.8c0.3,0.4,0.6,0.7,0.9,1.1c0.2,0.2,0.4,0.5,0.6,0.7c0.2,0.2,0.2,0.2,0.4,0.1c0,0,0,0,0,0
		c0.3-0.2,0.5-0.4,0.8-0.7c0,0,0-0.1,0-0.2c-0.2-0.2-0.4-0.5-0.6-0.7c-0.2-0.2-0.4-0.4-0.5-0.6c-0.3-0.4-0.6-0.8-1-1.1
		c-0.2-0.3-0.5-0.5-0.7-0.8c-0.3-0.4-0.7-0.8-1-1.2c-0.2-0.3-0.5-0.5-0.7-0.8c-0.3-0.4-0.6-0.7-1-1.1c-0.2-0.2-0.4-0.4-0.6-0.6
		c-0.3-0.3-0.6-0.7-0.9-1c-0.2-0.3-0.5-0.5-0.7-0.8c-0.3-0.4-0.7-0.8-1-1.1c-0.2-0.3-0.5-0.5-0.7-0.8c-0.3-0.4-0.7-0.8-1-1.1
		c-0.2-0.2-0.4-0.4-0.5-0.6c-0.3-0.4-0.6-0.7-0.9-1.1c-0.2-0.3-0.4-0.5-0.7-0.8c-0.3-0.4-0.7-0.8-1-1.1c-0.2-0.2-0.3-0.4-0.5-0.5
		c-0.3-0.4-0.6-0.7-0.9-1.1c-0.2-0.2-0.4-0.4-0.6-0.7c-0.3-0.3-0.6-0.7-0.9-1c-0.2-0.3-0.4-0.5-0.7-0.8c-0.4-0.5-0.8-0.9-1.2-1.4
		c-0.2-0.3-0.5-0.5-0.7-0.8c-0.4-0.5-0.8-0.9-1.2-1.4c-0.2-0.2-0.3-0.4-0.5-0.5c-0.3-0.3-0.6-0.7-0.9-1c-0.2-0.2-0.4-0.4-0.6-0.7
		c-0.3-0.4-0.6-0.7-0.9-1.1c-0.2-0.2-0.3-0.4-0.5-0.6c-0.4-0.5-0.8-0.9-1.2-1.4c-0.2-0.2-0.3-0.4-0.5-0.6c-0.3-0.4-0.6-0.7-0.9-1.1
		c-0.2-0.2-0.4-0.4-0.6-0.6c-0.3-0.4-0.7-0.8-1-1.2c-0.3-0.3-0.6-0.6-0.8-0.9c-0.4-0.4-0.8-0.9-1.1-1.3C37.7,40.3,37.5,40.2,37.4,40
		 M63,56.8c0.2,0.3,0.2,0.6,0.2,1c0,0.2,0,0.2,0.2,0.2c4,0,7.9,0,11.9,0c0,0,0.1,0,0.1,0c0,0,0.1-0.1,0.1-0.1c0-0.2,0-0.3,0-0.5
		c0-1.5,0-3.1,0-4.6c0,0,0-0.1,0-0.1c0-0.2,0-0.2-0.2-0.2c-4.7,0-9.3,0-14,0c0,0-0.1,0-0.1,0c-0.1,0-0.1,0.1-0.1,0.1
		c0.1,0.2,0.1,0.5,0.1,0.7c0,0.3-0.1,0.5-0.3,0.7c0,0.1-0.1,0.2,0,0.3c0.1,0.2,0.1,0.3,0.1,0.5c0,0.3-0.1,0.6-0.2,0.8
		c-0.3,0.4-0.6,0.6-1.1,0.7c-0.3,0-0.6-0.1-0.9-0.2c-0.1,0-0.1,0-0.2,0c-0.3,0.1-0.6,0.2-1,0.1c-0.5-0.1-0.8-0.3-1.1-0.6
		c-0.1-0.1,0-0.2,0-0.2c0.2-0.2,0.3-0.5,0.4-0.8c0-0.1,0-0.2-0.1-0.2c-0.1-0.2-0.3-0.1-0.5,0.1c-0.3,0.4-0.5,0.7-0.5,1.2
		c0,0.6,0,1.2,0.4,1.6c0.3,0.3,0.6,0.5,0.9,0.7c0.4,0.1,0.8,0,1.3,0.1c0.1,0,0.2-0.1,0.2-0.2c0-0.3,0-0.5,0.2-0.7
		c0.2-0.3,0.5-0.5,0.9-0.5c0.3,0,0.6,0.1,0.8,0.3c0.1,0.1,0.2,0,0.3-0.1c0.1-0.2,0.3-0.4,0.6-0.5c0.4-0.2,0.7-0.1,1,0.1
		C62.7,56.5,62.8,56.7,63,56.8 M26.3,41c-0.5,0-1,0-1.5,0c-0.2,0-0.2,0-0.2,0.2c0,1.7,0,3.4,0,5.1c0,0.2,0,0.2,0.2,0.2
		c4.5,0,9.1,0,13.6,0c0.1,0,0.2,0,0.3,0c0,0,0.1,0,0.1,0c0,0,0,0,0,0c-0.2-0.2-0.3-0.4-0.5-0.6c-0.2-0.2-0.3-0.4-0.5-0.5
		c-0.3-0.4-0.6-0.7-0.9-1.1c-0.2-0.2-0.4-0.4-0.6-0.6c-0.3-0.4-0.7-0.8-1-1.2c-0.4-0.4-0.8-0.8-1.1-1.3C34.1,41,34,41,33.8,41
		C31.3,41,28.8,41,26.3,41 M34.5,35.8c0.1,0.2,0.3,0.3,0.4,0.5c0.3,0.4,0.7,0.8,1,1.2c0.2,0.3,0.5,0.5,0.7,0.8
		c0.3,0.4,0.6,0.7,0.9,1.1c0.2,0.2,0.4,0.4,0.6,0.7c0.3,0.3,0.6,0.7,0.9,1c0.2,0.3,0.5,0.6,0.7,0.8c0.4,0.5,0.9,1,1.3,1.5
		c0.2,0.3,0.5,0.6,0.7,0.8c0.4,0.4,0.7,0.8,1.1,1.2c0.1,0.2,0.3,0.3,0.4,0.5c0.3,0.3,0.6,0.7,0.9,1c0.2,0.2,0.4,0.5,0.6,0.7
		c0.3,0.4,0.7,0.8,1,1.2c0.2,0.3,0.5,0.5,0.7,0.8c0.3,0.4,0.7,0.8,1,1.1c0.2,0.3,0.5,0.5,0.7,0.8c0.4,0.5,0.8,0.9,1.2,1.4
		c0.2,0.3,0.5,0.5,0.7,0.8c0.3,0.4,0.6,0.7,0.9,1.1c0.2,0.2,0.4,0.5,0.6,0.7c0.2,0.2,0.4,0.5,0.6,0.7c0.2,0.3,0.5,0.5,0.7,0.8
		c0.4,0.5,0.8,0.9,1.2,1.4c0.2,0.3,0.5,0.5,0.7,0.8c0.3,0.4,0.6,0.7,1,1.1c0.1,0.1,0.3,0.3,0.4,0.4c0.2,0.2,0.4,0.5,0.6,0.7
		c0.2,0.3,0.5,0.6,0.7,0.8c0.4,0.5,0.8,1,1.2,1.4c0.2,0.2,0.3,0.3,0.5,0.5c0.3,0.3,0.6,0.7,0.9,1c0.2,0.2,0.4,0.4,0.6,0.6
		c0.3,0.4,0.6,0.7,0.9,1.1c0.2,0.3,0.5,0.6,0.7,0.8c0.4,0.5,0.8,0.9,1.2,1.4c0.2,0.3,0.5,0.5,0.7,0.8c0.3,0.4,0.7,0.8,1,1.2
		c0.2,0.2,0.3,0.4,0.5,0.6c0.3,0.4,0.6,0.7,0.9,1.1c0.2,0.2,0.3,0.4,0.5,0.5c0.2,0.3,0.5,0.5,0.7,0.8c0,0,0.1,0,0.1,0
		c0.1-0.1,0.2-0.2,0.3-0.3c0,0,0-0.1,0-0.1c0,0-0.1-0.1-0.1-0.1c-0.4-0.5-0.8-1-1.2-1.4c-0.3-0.3-0.6-0.7-0.9-1
		c-0.4-0.5-0.8-0.9-1.2-1.4c-0.4-0.4-0.7-0.8-1.1-1.3c-0.3-0.4-0.7-0.8-1-1.1c-0.4-0.4-0.8-0.9-1.1-1.3c-0.3-0.3-0.6-0.7-0.9-1
		c-0.4-0.5-0.8-0.9-1.2-1.4c-0.2-0.3-0.5-0.5-0.7-0.8c-0.3-0.4-0.7-0.8-1-1.2c-0.2-0.2-0.3-0.4-0.5-0.6c-0.3-0.3-0.6-0.7-0.8-1
		c-0.2-0.3-0.5-0.5-0.7-0.8c-0.3-0.4-0.7-0.8-1-1.2c-0.2-0.3-0.5-0.5-0.7-0.8c-0.3-0.4-0.6-0.7-1-1.1c-0.2-0.3-0.5-0.5-0.7-0.8
		c-0.3-0.4-0.6-0.8-1-1.1c-0.2-0.2-0.4-0.4-0.5-0.6c-0.3-0.3-0.5-0.6-0.8-0.9c-0.2-0.2-0.3-0.3-0.5-0.5c-0.3-0.3-0.6-0.7-0.9-1
		c-0.3-0.4-0.7-0.8-1-1.1c-0.3-0.3-0.6-0.7-0.9-1c-0.2-0.2-0.4-0.5-0.6-0.7c-0.2-0.3-0.5-0.5-0.7-0.8c-0.2-0.2-0.3-0.4-0.5-0.6
		c-0.3-0.3-0.6-0.7-0.9-1c-0.3-0.3-0.5-0.6-0.8-0.9c-0.4-0.4-0.7-0.9-1.1-1.3c-0.2-0.2-0.4-0.4-0.6-0.6c-0.2-0.3-0.4-0.5-0.7-0.8
		c-0.2-0.3-0.5-0.5-0.7-0.8c-0.4-0.5-0.8-0.9-1.2-1.4c-0.2-0.2-0.3-0.4-0.5-0.6c-0.3-0.3-0.6-0.7-0.9-1c-0.2-0.2-0.4-0.5-0.6-0.7
		c-0.4-0.5-0.9-1-1.3-1.5c-0.2-0.3-0.5-0.6-0.8-0.9c-0.4-0.5-0.9-1-1.3-1.5c-0.2-0.3-0.4-0.5-0.7-0.8c-0.4-0.4-0.7-0.8-1.1-1.2
		c-0.2-0.3-0.4-0.5-0.7-0.8c-0.3-0.4-0.6-0.7-0.9-1.1c-0.3-0.4-0.6-0.7-0.9-1.1c-0.3-0.4-0.6-0.7-0.9-1.1c-0.2-0.2-0.4-0.4-0.6-0.6
		c-0.3-0.4-0.6-0.7-0.9-1.1c-0.2-0.3-0.5-0.5-0.7-0.8c-0.3-0.4-0.6-0.8-1-1.1c0,0-0.1-0.1-0.1-0.1c-0.2,0-0.4,0-0.6,0
		c0,0-0.1,0-0.1,0c0,0,0,0.1,0,0.1c0.2,0.2,0.4,0.5,0.6,0.7c0.2,0.3,0.5,0.5,0.7,0.8c0.3,0.4,0.7,0.8,1,1.2c0.2,0.2,0.3,0.4,0.5,0.6
		c0.3,0.4,0.6,0.7,0.9,1.1c0.2,0.2,0.4,0.4,0.5,0.6c0.3,0.4,0.6,0.7,0.9,1.1c0.2,0.3,0.5,0.5,0.7,0.8c0.3,0.4,0.7,0.8,1,1.2
		c0.2,0.2,0.3,0.4,0.5,0.5c0.3,0.4,0.6,0.7,1,1.1c0.2,0.2,0.3,0.4,0.5,0.6C33.8,35,34.2,35.4,34.5,35.8 M64.2,74.8
		c0.1,0.1,0.2,0.2,0.3,0.3c0.3,0.4,0.7,0.8,1,1.2c0.1,0.1,0.2,0.1,0.3,0c0.1,0,0.1-0.1,0.2-0.2c0.1-0.1,0.1-0.1,0-0.2
		c-0.2-0.3-0.5-0.5-0.7-0.8c-0.3-0.4-0.7-0.8-1-1.2c-0.2-0.3-0.5-0.5-0.7-0.8c-0.3-0.4-0.6-0.7-1-1.1c-0.2-0.2-0.4-0.4-0.6-0.6
		c-0.3-0.3-0.5-0.6-0.8-0.9c-0.1-0.2-0.3-0.3-0.5-0.5c-0.3-0.3-0.6-0.7-0.9-1c-0.2-0.2-0.4-0.5-0.6-0.7c-0.3-0.3-0.6-0.7-0.9-1
		c-0.2-0.3-0.5-0.6-0.7-0.8c-0.3-0.4-0.6-0.7-1-1.1c-0.2-0.3-0.5-0.5-0.7-0.8c-0.4-0.4-0.7-0.8-1.1-1.2c-0.2-0.2-0.4-0.5-0.7-0.7
		c-0.4-0.4-0.7-0.9-1.1-1.3c-0.2-0.2-0.4-0.4-0.6-0.6c-0.4-0.4-0.7-0.8-1.1-1.3c-0.2-0.3-0.5-0.5-0.7-0.8c-0.3-0.4-0.7-0.8-1-1.1
		c-0.2-0.3-0.5-0.5-0.7-0.8c-0.4-0.4-0.7-0.8-1.1-1.2c-0.2-0.3-0.4-0.5-0.7-0.8c-0.4-0.4-0.7-0.9-1.1-1.3c-0.2-0.3-0.5-0.6-0.7-0.8
		c-0.3-0.4-0.6-0.7-0.9-1.1c-0.2-0.2-0.4-0.5-0.6-0.7c-0.3-0.3-0.6-0.7-0.9-1c-0.2-0.2-0.3-0.4-0.5-0.6c-0.3-0.4-0.6-0.7-0.9-1.1
		c-0.3-0.4-0.6-0.7-0.9-1.1c-0.3-0.4-0.6-0.7-0.9-1.1c-0.2-0.2-0.4-0.4-0.6-0.7c-0.4-0.4-0.7-0.8-1.1-1.3c-0.2-0.2-0.3-0.4-0.5-0.6
		c-0.2-0.3-0.4-0.5-0.6-0.8c-0.2-0.2-0.4-0.5-0.6-0.7c-0.3-0.4-0.6-0.7-0.9-1.1c-0.2-0.3-0.5-0.5-0.7-0.8c-0.3-0.4-0.7-0.8-1-1.2
		c-0.2-0.2-0.4-0.5-0.7-0.7c-0.3-0.4-0.7-0.8-1-1.2c-0.2-0.2-0.3-0.4-0.5-0.5c-0.4-0.4-0.8-0.9-1.2-1.3c-0.1-0.1-0.2-0.3-0.3-0.4
		c-0.2-0.3-0.5-0.6-0.7-0.9c-0.2-0.2-0.4-0.5-0.6-0.7c-0.3-0.4-0.7-0.8-1-1.2c-0.2-0.2-0.3-0.4-0.5-0.6c-0.4-0.4-0.7-0.8-1.1-1.2
		c-0.3-0.3-0.6-0.6-0.8-0.9c-0.2-0.3-0.5-0.6-0.7-0.8c0,0-0.1,0-0.1-0.1c0,0,0,0.1,0,0.1c0,0.2,0,0.4,0,0.6c0,0.2,0.1,0.3,0.2,0.4
		c0.2,0.3,0.5,0.5,0.7,0.8c0.4,0.4,0.7,0.8,1.1,1.2c0.1,0.1,0.2,0.2,0.3,0.3c0.3,0.3,0.6,0.7,0.9,1c0.2,0.2,0.3,0.4,0.5,0.6
		c0.3,0.4,0.7,0.8,1,1.2c0.2,0.3,0.5,0.5,0.7,0.8c0.3,0.4,0.6,0.7,0.9,1.1c0.3,0.3,0.5,0.6,0.8,0.9c0.4,0.4,0.8,0.9,1.1,1.3
		c0.2,0.2,0.4,0.5,0.6,0.7c0.3,0.4,0.6,0.7,0.9,1.1c0.2,0.2,0.3,0.4,0.5,0.5c0.3,0.4,0.7,0.8,1,1.2c0.2,0.3,0.5,0.5,0.7,0.8
		c0.3,0.3,0.6,0.7,0.9,1c0.3,0.3,0.6,0.6,0.9,1c0.3,0.4,0.6,0.7,1,1.1c0.1,0.2,0.3,0.3,0.4,0.5c0.2,0.3,0.4,0.5,0.6,0.8
		c0.2,0.2,0.4,0.5,0.6,0.7c0.3,0.4,0.6,0.7,1,1.1c0.2,0.2,0.4,0.5,0.6,0.7c0.3,0.3,0.6,0.7,0.9,1c0.2,0.3,0.5,0.5,0.7,0.8
		c0.3,0.4,0.7,0.8,1,1.2c0.2,0.3,0.4,0.5,0.7,0.8c0.3,0.4,0.6,0.7,0.9,1.1c0.2,0.2,0.4,0.4,0.6,0.6c0.4,0.4,0.7,0.9,1.1,1.3
		c0.2,0.3,0.4,0.5,0.7,0.8c0.3,0.4,0.7,0.8,1,1.2c0.2,0.2,0.3,0.4,0.5,0.6c0.3,0.4,0.6,0.7,0.9,1.1c0.2,0.2,0.4,0.4,0.6,0.6
		c0.3,0.3,0.6,0.7,0.9,1c0.2,0.3,0.5,0.5,0.7,0.8c0.4,0.4,0.7,0.8,1.1,1.2c0.2,0.2,0.3,0.4,0.5,0.5c0.3,0.4,0.6,0.7,0.9,1.1
		c0.3,0.3,0.5,0.6,0.8,0.9c0.4,0.5,0.8,1,1.2,1.4c0.3,0.3,0.6,0.7,0.9,1c0.3,0.4,0.6,0.8,1,1.1c0.4,0.4,0.8,0.9,1.2,1.3
		c0.2,0.3,0.5,0.5,0.7,0.8c0.3,0.4,0.6,0.7,1,1.1c0.2,0.2,0.4,0.4,0.6,0.7C63.5,74,63.9,74.4,64.2,74.8 M66,68.3
		c0.2,0.4,0.5,0.7,0.9,0.9c0.2,0.1,0.4,0.2,0.6,0.2c0.3,0,0.6,0,0.9,0c0.2,0,0.3,0,0.2-0.2c0-0.5,0.3-1,0.8-1.1
		c0.1,0,0.2-0.1,0.3-0.1c0.3,0,0.6,0.1,0.9,0.3c0.1,0,0.1,0.1,0.1,0c0.1-0.3,0.4-0.5,0.7-0.6c0.1,0,0.3-0.1,0.4-0.1
		c0.3,0,0.5,0.1,0.7,0.3c0.1,0.1,0.1,0.1,0.2,0c0.1-0.2,0.2-0.3,0.2-0.5c0.2-0.4,0.4-0.8,0.5-1.2c0.2-0.5,0.4-1.1,0.6-1.6
		c0.1-0.2,0.1-0.4,0.2-0.5c0,0,0.1-0.1,0.1-0.1c-0.1,0-0.1,0-0.2,0c-0.9,0-1.9,0-2.8,0c-0.1,0-0.2,0-0.3,0c0,0.1,0,0.2,0,0.2
		c0,0,0,0.1,0,0.1c0.1,0.4,0,0.9-0.2,1.2c0,0,0,0.1,0,0.2c0.1,0.3,0.1,0.6,0,0.8c-0.1,0.7-0.8,1.2-1.4,1.2c-0.2,0-0.4-0.1-0.6-0.1
		c-0.2-0.1-0.3-0.1-0.5,0c-0.3,0.2-0.7,0.2-1.1,0.1c-0.4-0.1-0.7-0.3-0.9-0.6c0,0,0-0.2,0-0.2c0.2-0.2,0.3-0.5,0.4-0.8
		c0-0.1,0-0.2-0.1-0.3c-0.1-0.1-0.2-0.1-0.3,0c-0.1,0.1-0.2,0.1-0.3,0.2c-0.4,0.4-0.5,0.9-0.5,1.4C65.8,67.6,65.8,68,66,68.3
		 M24.6,34.2c0,0.2,0,0.4,0,0.7c0,0.2,0.1,0.2,0.2,0.2c1.3,0,2.6,0,3.9,0c0,0,0.1,0,0.1,0c0,0,0.1,0,0.1-0.1c0,0,0-0.1-0.1-0.1
		c-0.2-0.2-0.4-0.4-0.6-0.6c-0.3-0.4-0.7-0.8-1-1.2c-0.2-0.3-0.5-0.5-0.7-0.8c-0.3-0.4-0.7-0.8-1-1.1c-0.1-0.1-0.2-0.3-0.3-0.4
		c-0.2-0.2-0.4-0.5-0.6-0.7c0,0-0.1,0-0.1,0c0,0,0,0.1,0,0.1c0,0.1,0,0.1,0,0.2C24.6,31.7,24.6,32.9,24.6,34.2 M69.2,71.3
		c0,0,0.1-0.1,0.1-0.1c-0.1,0-0.1,0-0.2,0c-0.2,0-0.4,0.1-0.5,0.1c-0.2,0-0.5,0-0.7,0c-0.3,0-0.5-0.1-0.8-0.1c0,0-0.1,0-0.1,0
		c0,0,0,0.1,0.1,0.1c0.3,0.3,0.5,0.6,0.8,0.9c0.4,0.4,0.7,0.8,1.1,1.2c0,0,0.1,0.1,0.1,0.1c0,0,0-0.1,0-0.1c0-0.3,0-0.5,0-0.8
		C68.9,72.1,69,71.7,69.2,71.3 M52.9,55.1c0.1,0.1,0.2,0.2,0.3,0.4c0.3,0.3,0.5,0.7,0.8,1c0,0,0,0,0.1,0c0,0,0,0,0-0.1
		c-0.1-0.3-0.1-0.6-0.1-1c0-0.5,0.1-0.9,0.3-1.3c0,0,0-0.1,0-0.1c0,0-0.1,0-0.1,0c-0.3,0.1-0.7,0.2-1,0.1c-0.2,0-0.3,0-0.5,0
		c-0.2,0-0.5-0.1-0.7-0.2c0,0-0.1,0-0.1,0c0,0,0,0.1,0,0.1C52.3,54.4,52.6,54.8,52.9,55.1 M63.9,66.5C64,66.5,64,66.5,63.9,66.5
		c0.1-0.4,0.1-0.7,0.3-1c0,0,0-0.1,0-0.1c0,0-0.1,0-0.1,0c-0.4,0.1-0.7,0.2-1.1,0.1c-0.2,0-0.4,0-0.6-0.1c-0.2,0-0.3-0.1-0.5-0.1
		c0,0-0.1,0-0.1,0c0,0,0,0,0,0.1c0.4,0.4,0.7,0.8,1.1,1.2c0.3,0.4,0.6,0.7,1,1.1c0,0,0.1,0,0.1,0c0,0,0-0.1,0-0.1
		c0-0.2-0.1-0.4-0.1-0.7C63.9,66.9,63.9,66.7,63.9,66.5 M57.2,60.1c0.3,0.3,0.5,0.6,0.8,0.9c0.3,0.3,0.6,0.7,0.9,1
		c0,0,0.1,0,0.1,0.1c0,0,0-0.1,0-0.1c0-0.1-0.1-0.2-0.1-0.4c0-0.3,0-0.6,0-0.9c0-0.3,0.1-0.6,0.2-0.9c0,0,0-0.1,0-0.1
		c0,0-0.1,0-0.1,0c-0.2,0-0.5,0.1-0.7,0.1c-0.2,0-0.4,0-0.6,0c-0.3,0-0.6-0.1-0.8-0.2c0,0-0.1,0-0.1,0c0,0,0,0.1,0,0.1
		C57,59.9,57.1,60,57.2,60.1 M37.6,37.6c0.2,0.3,0.5,0.6,0.7,0.8c0.2,0.2,0.3,0.4,0.5,0.6c0.1,0.1,0.2,0.2,0.2,0.3
		c0,0,0.1,0,0.1,0.1c0,0,0-0.1,0-0.1c0-0.1-0.1-0.2-0.1-0.3c0-0.3,0-0.6,0-0.9c0-0.3,0.1-0.7,0.3-1c0,0,0-0.1,0-0.1c0,0-0.1,0-0.1,0
		c-0.3,0-0.5,0.1-0.8,0.1c-0.5,0-0.9,0-1.4-0.2c0,0-0.1,0-0.1,0c0,0,0,0.1,0,0.1C37.2,37.1,37.4,37.3,37.6,37.6 M28,26.5
		c0.2,0.2,0.3,0.3,0.5,0.5c0.2,0.3,0.5,0.6,0.7,0.8c0,0,0,0,0.1,0.1c0,0,0-0.1,0-0.1c0-0.2-0.1-0.4-0.1-0.5c0-0.3,0-0.6,0.1-0.9
		c0-0.3,0.1-0.6,0.3-0.8c0,0,0-0.1,0-0.1c0,0-0.1,0-0.1,0c-0.3,0-0.6,0.1-1,0.1c-0.4,0-0.9,0-1.3-0.2c0,0-0.1,0-0.1,0
		c0,0,0,0.1,0,0.1c0.1,0.1,0.2,0.2,0.3,0.3C27.6,26,27.8,26.3,28,26.5 M34.2,32.4c0-0.4,0.1-0.7,0.3-1c0-0.1,0-0.1-0.1-0.1
		c-0.2,0-0.4,0.1-0.6,0.1c-0.4,0-0.8,0-1.1,0c-0.2,0-0.3-0.1-0.5-0.2c0,0-0.1,0-0.1,0c0,0,0,0,0,0.1c0.3,0.4,0.7,0.8,1,1.2
		c0.3,0.3,0.5,0.6,0.8,0.9c0.1,0.1,0.1,0.1,0.1,0.2c0,0,0.1,0.1,0.1,0.1c0,0,0-0.1,0-0.1c0,0,0,0,0,0c0-0.2-0.1-0.5-0.1-0.7
		C34.1,32.6,34.1,32.5,34.2,32.4 M48.3,49.8c0.2,0.3,0.5,0.5,0.7,0.8c0,0,0.1,0.1,0.1,0.1c0-0.1,0-0.1,0-0.2c0-0.2-0.1-0.3-0.1-0.5
		c0-0.3,0-0.6,0.1-0.9c0.1-0.2,0.1-0.5,0.3-0.7c0,0,0,0,0-0.1c0,0-0.1,0-0.1,0c-0.4,0.1-0.8,0.2-1.2,0.1c-0.3,0-0.7-0.1-1-0.2
		c0,0-0.1,0-0.1,0c0,0,0,0.1,0.1,0.1c0.1,0.1,0.2,0.2,0.3,0.3C47.6,49.1,48,49.4,48.3,49.8 M44.1,44.8c0-0.1-0.1-0.2-0.1-0.4
		c0-0.5,0.1-1.1,0.3-1.6c0-0.1,0-0.2,0.1-0.2c-0.1,0-0.1,0-0.2,0.1c0,0,0,0,0,0c-0.4,0-0.8,0.1-1.2,0.1c-0.2,0-0.4-0.1-0.6-0.1
		c-0.1,0-0.1,0-0.2-0.1c0,0,0,0-0.1,0c0,0,0,0,0,0.1c0.1,0.1,0.2,0.2,0.3,0.3c0.4,0.5,0.9,1,1.3,1.5c0.2,0.2,0.3,0.4,0.5,0.6
		c0,0,0.1,0.1,0.1,0.1C44.1,45,44.1,44.9,44.1,44.8C44.1,44.9,44.1,44.8,44.1,44.8z"/>
	<path d="M47.7,41c-0.2,0.1-0.3,0.2-0.6,0.3c-0.2,0-0.4-0.1-0.6-0.2c-0.3-0.2-0.5-0.6-0.3-1c0.2-0.6,0.9-0.8,1.4-0.5
		C48,39.9,48.1,40.5,47.7,41 M47.1,39.9c-0.1,0-0.2,0-0.3,0c-0.1,0.1-0.2,0.3-0.2,0.5c0.1,0.2,0.3,0.3,0.5,0.3
		c0.2,0,0.3-0.2,0.3-0.3C47.4,40.2,47.4,40,47.1,39.9z"/>
	<path d="M67.7,63.5c-0.2,0.6-0.9,0.7-1.3,0.4c-0.2-0.2-0.4-0.4-0.4-0.6c-0.1-0.4,0.3-0.9,0.6-1c0.6-0.1,1.1,0.1,1.2,0.7
		C67.8,63.2,67.8,63.4,67.7,63.5 M67.3,63.4C67.3,63.3,67.3,63.3,67.3,63.4c0.1-0.3,0-0.4-0.1-0.5c-0.2-0.2-0.3-0.2-0.5,0
		c-0.2,0.1-0.2,0.4-0.1,0.6c0.1,0.2,0.4,0.3,0.5,0.1C67.1,63.5,67.2,63.4,67.3,63.4z"/>
	<path d="M56.6,52.6c-0.3-0.1-0.4-0.3-0.5-0.5c-0.2-0.5,0-0.8,0.3-1.1c0.2-0.2,0.8-0.2,1.1,0c0.2,0.2,0.4,0.5,0.3,0.8
		c0,0.4-0.4,0.8-0.8,0.8C56.9,52.7,56.8,52.6,56.6,52.6 M57.3,51.5C57.2,51.4,57.2,51.4,57.3,51.5c-0.2-0.1-0.4-0.1-0.5-0.1
		c-0.2,0.1-0.2,0.2-0.2,0.4c0,0.2,0.1,0.3,0.3,0.4c0.1,0,0.4-0.1,0.4-0.2C57.4,51.8,57.4,51.6,57.3,51.5z"/>
	<path d="M37.3,29.8c-0.3,0.1-0.6,0-0.8-0.2c-0.4-0.3-0.5-0.9-0.1-1.3c0.4-0.5,1.2-0.4,1.4,0.1c0.2,0.3,0.2,0.6,0,1
		C37.7,29.6,37.5,29.7,37.3,29.8 M37.5,28.9c0-0.2-0.1-0.3-0.4-0.4c-0.2,0-0.3,0.1-0.4,0.3c-0.1,0.1,0.1,0.4,0.2,0.5
		c0.1,0.1,0.3,0.1,0.5,0C37.5,29.2,37.5,29.1,37.5,28.9z"/>
	<path d="M64.9,61.3c-0.3-0.3-0.5-0.6-0.8-0.9c-0.1-0.1,0-0.2,0-0.2c0,0,0.1-0.1,0.1-0.1c0.1-0.1,0.2-0.1,0.2,0
		c0.2,0.2,0.3,0.4,0.5,0.6c0.2,0.3,0.5,0.6,0.7,0.9c0.1,0.1,0.1,0.1,0,0.2c-0.1,0-0.1,0.1-0.2,0.2c-0.1,0.1-0.2,0.1-0.2,0
		C65.2,61.6,65.1,61.5,64.9,61.3z"/>
	<path d="M69.2,65.4c0.2,0.2,0.3,0.4,0.5,0.6c0,0,0,0.1,0,0.2c0,0.1-0.1,0.1-0.2,0.1c-0.1,0.1-0.2,0.1-0.2,0
		c-0.2-0.2-0.3-0.4-0.5-0.6c-0.2-0.2-0.4-0.4-0.6-0.7C68.1,65,68,64.9,68,64.8c0,0,0-0.1,0-0.2c0,0,0.1-0.1,0.1-0.1
		c0.2-0.2,0.2-0.2,0.4,0c0.1,0.1,0.1,0.2,0.2,0.2C68.8,65.1,69,65.2,69.2,65.4z"/>
	<path d="M59,49.6c0.1-0.1,0.2-0.2,0.3-0.2c0.1-0.1,0.3-0.2,0.4-0.3c0.1-0.1,0.2-0.1,0.3,0c0,0.1,0.1,0.1,0.2,0.2c0,0,0,0.1,0,0.1
		c-0.2,0.2-0.3,0.3-0.5,0.5c-0.2,0.2-0.4,0.3-0.6,0.5c-0.1,0.1-0.2,0.2-0.4,0.3c-0.1,0.1-0.1,0.1-0.2,0c-0.1-0.1-0.1-0.1-0.2-0.2
		c0-0.1,0-0.2,0-0.2C58.5,50,58.8,49.8,59,49.6z"/>
	<path d="M49.8,37.6c0.2-0.1,0.2,0,0.3,0.1c0.1,0.1,0.1,0.2,0,0.3c-0.3,0.2-0.6,0.5-0.9,0.7c-0.2,0.1-0.3,0.3-0.5,0.4
		c-0.1,0.1-0.2,0.1-0.3,0c0-0.1-0.1-0.1-0.1-0.2c0,0,0-0.1,0-0.2c0.2-0.2,0.4-0.4,0.6-0.6c0.2-0.1,0.3-0.3,0.5-0.4
		C49.6,37.8,49.7,37.7,49.8,37.6z"/>
	<path d="M39.1,26.9c0.3-0.2,0.5-0.5,0.8-0.7c0,0,0.2,0,0.2,0c0.1,0,0.1,0.1,0.2,0.2c0,0,0,0.1,0,0.1c-0.2,0.2-0.4,0.3-0.6,0.5
		c-0.1,0.1-0.2,0.2-0.4,0.3c-0.2,0.1-0.3,0.3-0.5,0.4c0,0-0.1,0-0.1,0c-0.2,0-0.2-0.1-0.3-0.2c-0.1-0.1,0-0.1,0-0.2
		C38.7,27.2,38.9,27.1,39.1,26.9z"/>
	<path d="M55,49.9c-0.1-0.1-0.2-0.3-0.4-0.4c-0.1-0.2-0.3-0.3-0.4-0.5c0,0,0-0.1,0-0.1c0.1-0.1,0.2-0.2,0.3-0.3c0,0,0.1,0,0.1,0
		c0.3,0.3,0.5,0.6,0.8,0.9c0.2,0.2,0.3,0.4,0.5,0.6c0,0,0,0.1,0,0.2c-0.2,0.3-0.2,0.3-0.5,0C55.2,50.1,55.1,50,55,49.9z"/>
	<path d="M45.9,38.7c0,0.2-0.2,0.2-0.3,0.3c-0.1,0.1-0.2,0-0.2-0.1c-0.2-0.3-0.4-0.5-0.7-0.8c-0.2-0.2-0.3-0.4-0.5-0.6
		c0,0,0-0.1,0-0.1c0.1-0.1,0.2-0.2,0.3-0.3c0.1-0.1,0.1,0,0.2,0c0.1,0.2,0.3,0.3,0.4,0.5C45.4,38.1,45.6,38.4,45.9,38.7z"/>
	<path d="M48.7,42.7c-0.2-0.2-0.4-0.4-0.5-0.6c-0.1-0.1-0.1-0.2,0-0.3c0.2-0.2,0.3-0.2,0.5,0.1c0.1,0.2,0.3,0.3,0.4,0.5
		c0.2,0.3,0.4,0.5,0.7,0.8c0.1,0.1,0.1,0.1,0,0.2c-0.3,0.2-0.3,0.2-0.5,0C49.1,43.1,48.9,42.9,48.7,42.7z"/>
	<path d="M58.3,53.7c-0.1-0.1-0.1-0.1-0.2-0.2c-0.1-0.1-0.1-0.2,0-0.2c0.1-0.1,0.1-0.1,0.2-0.2c0,0,0.1,0,0.1,0
		c0.3,0.4,0.6,0.8,1,1.2c0.1,0.1,0.2,0.2,0.3,0.3c0,0,0,0.1,0,0.1c-0.3,0.3-0.2,0.3-0.5,0C58.9,54.4,58.6,54,58.3,53.7z"/>
	<path d="M38.2,30.5c0-0.2,0.2-0.2,0.3-0.3c0,0,0.1,0,0.1,0c0.1,0.1,0.1,0.1,0.2,0.2c0.2,0.2,0.3,0.4,0.5,0.5
		c0.2,0.2,0.4,0.4,0.6,0.6c0.1,0.1,0.1,0.2-0.1,0.3c-0.1,0.1-0.2,0.1-0.3,0c-0.2-0.3-0.5-0.6-0.7-0.8c-0.2-0.2-0.3-0.3-0.4-0.5
		C38.2,30.6,38.2,30.6,38.2,30.5z"/>
	<path d="M35.7,27.6c-0.1,0-0.2-0.1-0.2-0.1c-0.3-0.3-0.5-0.6-0.7-0.9c-0.1-0.1-0.3-0.3-0.4-0.4c-0.1-0.1-0.1-0.2,0-0.3
		c0,0,0.1-0.1,0.1-0.1c0,0,0.1,0,0.2,0c0.3,0.3,0.5,0.6,0.8,0.9c0.2,0.2,0.3,0.4,0.5,0.5c0.1,0.1,0.1,0.1,0,0.2
		C35.9,27.5,35.8,27.6,35.7,27.6z"/>
	<path d="M69.1,61.6c-0.2,0.2-0.3,0.3-0.5,0.5c-0.1,0.1-0.2,0.1-0.3,0c0,0,0,0,0,0c-0.3-0.2-0.2-0.2,0-0.4c0.2-0.2,0.4-0.3,0.6-0.5
		c0.2-0.2,0.5-0.4,0.7-0.6c0,0,0.1,0,0.1,0c0.1,0.1,0.2,0.2,0.2,0.3c0,0,0,0.1-0.1,0.1c-0.2,0.2-0.4,0.3-0.5,0.5
		C69.3,61.4,69.2,61.5,69.1,61.6z"/>
</g>
</svg>
