<?xml version="1.0" encoding="utf-8"?>
<!-- Generator: Adobe Illustrator 20.1.0, SVG Export Plug-In . SVG Version: 6.00 Build 0)  -->
<svg version="1.1" id="Layer_1" xmlns="http://www.w3.org/2000/svg" xmlns:xlink="http://www.w3.org/1999/xlink" x="0px" y="0px"
	 viewBox="0 0 100 100" style="enable-background:new 0 0 100 100;" xml:space="preserve">
<style type="text/css">
	.st0{fill:#777777;}
</style>
<g id="Shape_2">
	<path class="st0" d="M65.7,64c0.1,0,0.2,0,0.3,0c0.1,0,0.2,0.1,0.2,0.2c0,0.2,0,0.3,0.3,0.2c0.4-0.1,0.8-0.1,1.2-0.1
		c0.5-0.1,1-0.2,1.5-0.2c0.5-0.1,1.1-0.2,1.6-0.3c1.1-0.3,2.2-0.5,3.3-0.8c1.2-0.3,2.4-0.7,3.6-1c0.3-0.1,0.6-0.2,0.9-0.2
		c0.1,0,0.2,0,0.3,0.1c-0.1,0.1-0.1,0.1-0.2,0.2c-1,0.6-2,1.1-2.9,1.7c-0.8,0.5-1.6,1.2-2,2.2c-0.2,0.4-0.3,1-0.4,1.4
		c-0.1,0.3-0.1,0.6,0,0.8c0,0,0,0,0,0.1c0.1,0.2,0.2,0.5,0.2,0.5c-0.2,0.1-0.1,0.3-0.1,0.5c0,0.5,0,1,0.1,1.6c0,0.4-0.2,0.5-0.5,0.6
		c-0.1,0-0.2,0.1-0.3,0.2c-0.2,0.1-0.5,0.3-0.7,0.4c-0.2,0-0.4-0.1-0.6-0.2c0,0,0-0.1,0-0.2c0,0,0.1-0.1,0.1-0.1
		c0.2,0,0.3,0,0.5-0.1c0.1,0,0.1-0.1,0.1-0.1c0-0.1,0-0.2-0.1-0.2c-0.5-0.1-1-0.5-1.5-0.4c-0.1,0-0.2,0-0.3,0.1
		c-0.5,0.2-1,0.4-1.5,0.5c-0.1,0-0.3,0-0.5,0c-0.2,0-0.4,0-0.6,0.1c-0.4,0.3-0.9,0.4-1.4,0.5c-0.3,0-0.5,0.2-0.8,0.3
		c-0.1,0-0.2,0.1-0.3,0.1c-0.4,0-0.8,0-1.1,0c-0.2,0-0.5,0.1-0.7,0.2c0,0-0.1,0.1-0.1,0.1c-0.3-0.2-0.5,0.1-0.7,0.2
		c-0.2,0.1-0.3,0.2-0.6,0c-0.4-0.3-0.8-0.2-1.2,0c0,0-0.1,0.1-0.1,0.2c0,0,0.1,0.1,0.1,0.1c0.3,0,0.5,0,0.8,0c0.1,0,0.3,0,0.4,0
		c0.3,0.2,0.6,0,0.9-0.1c0.2-0.1,0.2-0.2,0.4,0.1c0.1,0.2,0.3,0,0.3-0.1c0-0.4,0.4-0.3,0.6-0.4c0.1,0,0.3,0.1,0.5,0
		c0.5,0,1-0.1,1.5-0.2c0.5-0.1,1-0.3,1.5-0.5c0.5-0.1,1-0.2,1.5-0.4c0.2-0.1,0.5-0.2,0.7-0.3c0,0,0,0,0,0c0.1,0,0.2,0,0.3,0
		c-0.1,0.1-0.1,0.1-0.2,0.2c0,0-0.1,0-0.1,0c0,0.1-0.1,0.1-0.1,0.2c0.1,0,0.1,0,0.2,0c0,0,0,0,0,0c0.1,0,0.3,0,0.4,0
		c0.1,0,0,0.2,0,0.4c0,0.1,0.1,0.3,0.1,0.4c0,0.1,0,0.2,0,0.2c-0.2,0.1-0.5,0.1-0.7,0.2c0,0-0.1-0.1-0.1-0.2c0-0.1,0-0.1-0.1-0.2
		c0,0-0.1,0-0.2,0c0,0-0.1,0.1-0.1,0.1c-0.1,0-0.2,0-0.3,0c0.1,0,0.2,0,0.3-0.1c0.1,0,0.2-0.1,0.1-0.2c0-0.1-0.1-0.2-0.1-0.3
		c0,0-0.1,0-0.1,0C69.2,72,69,72,68.8,72c0,0-0.1,0.1-0.1,0.2c0,0.4-0.1,0.4-0.5,0.6c-0.2,0.1-0.4,0.1-0.6,0.2c-0.1,0-0.2,0-0.2,0
		c-0.2-0.2-0.5-0.2-0.8-0.1c-0.3,0.1-0.5,0.1-0.8,0.2c-0.1,0-0.1,0.1-0.2,0.1c0.1,0,0.1,0.1,0.2,0.1c0.3,0,0.7,0,1-0.1
		c0.2,0,0.4,0,0.6,0c0.2,0,0.3,0,0.5-0.1c0.4-0.1,0.8-0.2,1.1-0.2c0,0,0.1,0,0.1,0c0,0-0.1,0.1-0.1,0.1c-0.3,0.1-0.6,0.2-0.9,0.2
		c-0.8,0.2-1.5,0.2-2.3,0.2c-0.3,0-0.5-0.1-0.8-0.1c-0.1,0-0.2,0-0.4,0.1c-0.1,0-0.2,0.1-0.3,0c-0.4-0.2-0.6,0-0.9,0.1
		c-0.1,0-0.1,0.1-0.2,0.1c-0.6,0-1.2,0.1-1.8,0.1c-0.4,0-0.9,0-1.3,0c0,0-0.1,0-0.1,0c-0.3,0.3-0.8,0.2-1.2,0.3
		c-0.2,0.1-0.4,0-0.7,0.1c-0.6,0.1-1.2,0.2-1.9,0.2c-0.5,0-1,0-1.6,0c-1,0-1.9,0.2-2.9,0.2c-0.9,0-1.9-0.1-2.8-0.2
		c-0.2,0-0.4,0-0.6,0c-1,0-2.1-0.1-3.1-0.5c-0.2-0.1-0.3,0-0.5,0c-0.3,0.1-0.6,0.1-0.9,0.1c-0.5,0-0.9,0.1-1.4,0
		c-0.6-0.1-1.2,0-1.8-0.3c-0.3-0.1-0.6,0-0.9,0c-0.2,0-0.4,0-0.6-0.2c0,0-0.2-0.1-0.2,0c-0.3,0.2-0.6,0.2-0.9,0c-0.1,0-0.2,0-0.3,0
		c-0.3,0.1-0.6,0.1-0.9,0.2c-0.1,0-0.1,0-0.2,0c-0.2-0.1-0.4-0.3-0.6-0.3c-0.1,0-0.3,0.1-0.4,0.1c-0.1,0-0.2,0.1-0.3,0.1
		c-0.4,0-0.8,0-1.2,0.1c-0.1,0-0.2,0-0.2,0c-0.3-0.2-0.5-0.2-0.7,0c-0.2,0.2-0.6,0.3-0.9,0.3c-0.3,0.1-0.6,0.1-1,0.2
		c-0.1,0-0.3,0-0.4,0c-0.5,0.1-1-0.1-1.5,0.1c-0.2,0.1-0.6,0.1-0.8,0.1c0,0,0,0-0.1,0c0,0,0-0.1,0.1-0.1c0.2-0.3,0.5-0.6,0.7-0.9
		c0.1-0.1,0.1-0.3,0.1-0.3c-0.1-0.1-0.2,0-0.3,0.2c-0.1,0.2-0.1,0.3-0.2,0.5c0,0.1-0.1,0.1-0.1,0.1c-0.3,0.1-0.5,0.3-0.8,0.1
		c0,0-0.1,0.1-0.1,0.1c0,0.1,0,0.3,0.1,0.4c0.2,0.1,0.4,0.2,0.6,0.3c0.2,0,0.4,0,0.6,0c0.1,0,0.1,0.1,0.2,0.1
		c-0.1,0-0.1,0.1-0.2,0.1c-0.7,0-1.5,0-2.2-0.1c-0.9,0-1.9,0-2.8,0c-0.5,0-1,0.1-1.5,0.2c-0.3,0-0.6-0.1-0.8-0.2c0,0-0.1,0-0.1,0
		c0,0,0.1,0,0.1,0c0.1,0,0.1-0.1,0.2-0.1c-0.1-0.1-0.1-0.1-0.2-0.1c-0.1,0-0.2-0.1-0.2-0.1c-0.1-0.2-0.2-0.1-0.4-0.1
		c-0.1,0-0.2,0-0.3,0c-0.2,0-0.4,0-0.5,0c-0.1,0-0.2,0-0.4,0c-0.4,0-0.7,0-1,0.2c-0.2,0.1-0.6,0-0.8-0.1c-0.4-0.2-0.8-0.2-1.3-0.2
		c-0.6,0-0.9-0.2-1.1-0.8c-0.2-0.6-0.4-1.1-0.5-1.7c-0.1-0.6-0.3-1.1-0.3-1.7c-0.1-0.7-0.4-1-1.2-1.2c-0.6-0.2-1.3-0.1-1.8-0.5
		c-0.1,0-0.1-0.2-0.1-0.2c0.1-0.5,0-0.9-0.1-1.3c-0.1-0.4-0.2-0.9-0.2-1.4c-0.1-0.5-0.2-1-0.3-1.6c-0.1-0.6-0.2-1.2-0.3-1.8
		c-0.1-0.6-0.3-1.2-0.4-1.8c-0.1-0.4-0.1-0.9-0.2-1.3c-0.2-0.8-0.1-1.6-0.3-2.4c0-0.1,0-0.2,0.1-0.3c0.1-0.1,0.2-0.3,0.2-0.5
		c0,0,0.1-0.1,0.2-0.1c0.2,0,0.4,0,0.5,0c0.2,0,0.3-0.1,0.3-0.3c0-0.1,0-0.2,0.2-0.1c0.1,0,0.2,0,0.4-0.1c0.2-0.1,0.4-0.1,0.4,0.2
		c0,0.2,0.1,0.4,0.1,0.6c0.1,0.3,0.3,0.1,0.4,0.1c0,0,0.1-0.1,0.1-0.2c-0.1,0-0.1-0.1-0.2-0.1c0,0-0.1,0-0.1-0.1c0,0-0.1,0-0.1-0.1
		c0,0,0.1-0.1,0.1-0.1c0.2,0,0.4,0.1,0.7,0.1c0,0,0.1,0.1,0.1,0.1c0,0-0.1,0-0.1,0.1c-0.1,0.1-0.2,0.1-0.3,0.2
		c0.1,0,0.2,0.1,0.2,0.1c0.1,0,0.4,0.1,0.3-0.2c-0.1-0.5,0.3-0.7,0.4-1.1c0,0,0.1-0.1,0.1-0.1c0.1,0,0.1,0.1,0.1,0.1
		c0,0.3,0,0.7,0,1c0,0.2,0,0.3,0.2,0.3c0.2,0,0.4,0.1,0.6,0c0.1,0,0.2-0.1,0.2-0.2c0-0.1-0.1-0.2-0.1-0.2c-0.2,0-0.3,0-0.5,0
		c-0.1,0-0.1,0-0.2,0c0,0-0.1-0.1-0.1-0.1c0,0,0.1-0.1,0.1-0.1c0.3,0,0.6,0,1,0c0,0,0.1,0,0.1,0c0.5,0,1,0,1.6,0.1
		c0.8,0,1.5,0.1,2.3,0.2c0.5,0,1,0,1.5,0c0.3,0,0.6,0,0.9,0.1c0.1,0,0.2,0.1,0.2,0.2c0,0.1,0,0.2-0.1,0.2c0-0.1-0.1-0.1-0.1-0.2
		c0,0-0.1-0.1-0.1-0.1c-0.3,0-0.6,0-0.9,0c-0.2,0-0.1,0.2,0,0.3c0.2,0.1,0.1,0.2,0.1,0.3c0,0.4-0.1,0.8-0.1,1.2
		c0,0.1,0.1,0.2,0.1,0.3c0.1-0.1,0.3-0.2,0.3-0.4c0-0.4,0-0.9-0.1-1.3c0,0,0,0,0,0c0.2,0,0.4-0.1,0.6-0.1c0,0,0.1,0.2,0.1,0.3
		c0,0.4,0,0.8-0.1,1.2c0,0.1,0,0.3,0.2,0.2c0.1,0,0.2-0.2,0.2-0.3c0-0.4,0-0.7,0-1.1c0-0.2,0.1-0.3,0.3-0.3c0.1,0,0.3-0.1,0.3-0.1
		c0,0,0-0.2-0.1-0.3c-0.2-0.2-0.2-0.5,0-0.7c0-0.1,0.1-0.1,0.1-0.2c0-1.6,0-3.2,0-4.8c0-0.4,0-0.8,0.1-1.2c0-0.1,0-0.3,0-0.4
		c0-1.4,0-2.7,0.1-4.1c0-0.7-0.1-1.4-0.1-2.2c0-2.5,0-5,0.1-7.5c0-0.4,0.2-0.8,0.1-1.2c0-0.4,0.1-0.8-0.2-1.2
		c-0.2-0.3-0.1-0.7-0.2-1c0.4-0.4,0.2-1,0.2-1.5c0-0.1,0-0.1,0-0.2c0-0.1,0-0.3,0-0.4c0.1-0.1,0.3-0.1,0.5-0.1
		c0.2,0,0.3,0.3,0.1,0.4c-0.2,0.1-0.2,0.3-0.2,0.4c0,0.2,0,0.4-0.1,0.5c0,0.2,0,0.4,0.2,0.6c0.1,0.1,0.1,0.4,0.1,0.6
		c0,0.4-0.1,0.7-0.2,1.1c0,0.6-0.1,1.1-0.1,1.7c0,0.5,0.1,1,0.1,1.4c0,1.1,0,2.1-0.1,3.2c0,0.3,0.1,0.6,0.1,0.9
		c0,0.7-0.1,1.4-0.2,2.1c0,0.1,0.1,0.3,0.1,0.4c0,0.1,0.1,0.2,0.1,0.3c0,0.4,0,0.9,0,1.3c0,0.7,0.1,1.3,0.1,2c0,1.1,0,2.1-0.1,3.2
		c0,0.1,0,0.1-0.1,0.1c0,0-0.2,0.1-0.2,0.1c0,0.2,0.1,0.4,0.2,0.5c0.2,0.1,0.2,0.3,0.2,0.4c0,0.7,0,1.5,0,2.2c0,0.4,0,0.8-0.1,1.2
		c0,0.3,0,0.6,0,0.9c0,0.3,0.1,0.5,0.5,0.5c0.4,0,0.9,0,1.3,0c0.1,0,0.2,0.1,0.2,0.2c0,0.1-0.1,0.1-0.2,0.1c-0.4,0-0.7,0-1.1,0
		c-0.2,0-0.3,0-0.5,0c0,0-0.1,0-0.1,0c-0.3,0.2-0.1,0.5-0.1,0.8c0,0.1,0.1,0.2,0.2,0.2c0.2,0.1,0.3,0.1,0.5,0.1
		c0.1,0,0.3-0.1,0.3-0.2c0-0.1-0.1-0.3-0.3-0.2c-0.1,0-0.2,0.1-0.3,0.1c-0.1,0-0.1-0.1-0.2-0.1c0,0,0.1-0.1,0.1-0.1
		c0.6,0,1.1,0.1,1.7,0.1c0.3,0,0.7,0.2,0.8-0.3c0,0,0.1,0,0.2,0c0.1,0.2,0.3,0.2,0.4,0.2c0.4,0.1,0.7,0.3,1.1,0.4
		c0.4,0.2,0.9,0.2,1.4,0.2c0,0,0.1,0,0.1,0c0.1,0,0.2,0.1,0.3,0.2c-0.1,0-0.2,0-0.3,0c-0.1,0.1-0.3,0.2-0.3,0.3
		c-0.1,0.3,0,0.6-0.1,0.9c0,0.1-0.1,0.2-0.1,0.3c0-0.1,0-0.2,0-0.2c0-0.3,0-0.6-0.1-0.8c0-0.1,0-0.1,0-0.2c0,0,0.1-0.1,0.2-0.1
		c-0.1,0-0.2,0-0.2,0c-0.1,0-0.1,0.1-0.1,0.2c0,0.1,0,0.1,0,0.2c0,0.4,0,0.8-0.1,1.2c0,0.1-0.1,0.1-0.1,0.2
		c-0.1-0.1-0.2-0.1-0.2-0.2c0.1-0.6-0.2-0.8-0.8-0.8c0,0-0.1,0-0.1,0c-0.1,0-0.1-0.1-0.1-0.1c0.1,0,0.1-0.1,0.2-0.1
		c0.2,0,0.4,0,0.6,0.1c0.1,0,0.2,0,0.2-0.2c0,0,0-0.1,0-0.1c-0.1-0.1,0.1-0.3-0.1-0.4c-0.1,0-0.2,0.1-0.3,0.2c-0.1,0-0.1,0-0.2,0
		c0,0,0-0.1,0-0.1c0-0.3,0-0.4-0.3-0.5c0,0-0.1,0-0.1,0c-0.1,0-0.2-0.1-0.3-0.1c0,0.1-0.1,0.2-0.1,0.4c0,0.1,0.1,0.1,0.2,0.2
		c0.2,0.1,0.1,0.3,0.1,0.4c0,0.4,0,0.8,0,1.2c0,0.1,0,0.2-0.2,0.2c0,0-0.1,0-0.1,0c-0.2,0.2-0.4,0.3-0.6,0.1c-0.1,0-0.2,0-0.2,0
		c-0.2,0.2-0.4,0.2-0.7,0.2c-0.1,0-0.2,0.1-0.3,0.1c0.1,0,0.2,0.1,0.3,0.1c0.2,0,0.4,0,0.6-0.1c0.1-0.1,0.4-0.1,0.6-0.1
		c0.2,0,0.3-0.1,0.5-0.2c0.1-0.1,0.3-0.1,0.4-0.1c0.6,0.2,1.1,0.3,1.7,0.3c0.4,0,0.7,0,1.1,0c0.4,0,0.8,0.1,1.2,0.2
		c0.1,0,0.1,0,0.2,0c0.1,0.1,0.3,0.2,0.3,0.3c0,0.2-0.2,0.1-0.3,0.1c-0.3-0.1-0.5-0.1-0.8-0.1c-0.3,0-0.3,0.3-0.4,0.5
		c0,0,0,0.2,0,0.2c0.3,0.4,0,0.8,0.1,1.1c0,0.1,0.1,0.2,0.2,0.3c0.1-0.1,0.1-0.1,0.2-0.2c0.2-0.4,0.3-0.8,0.2-1.2
		c0-0.1-0.1-0.2-0.2-0.3c0,0-0.1-0.1-0.1-0.1c0-0.1,0.1-0.1,0.1-0.1c0.2,0.1,0.4,0.1,0.4,0.4c0,0.4,0,0.8,0.1,1.3
		c0,0.4,0.1,0.5,0.5,0.5c0.1,0,0.1,0,0.2,0c0.3,0.1,0.4-0.1,0.4-0.3c0-0.2,0.1-0.5,0.2-0.7c0-0.2,0.2-0.2,0.3-0.1c0,0,0,0.1,0,0.2
		c0,0.1,0,0.3,0,0.4c0,0,0.1,0.1,0.2,0.1c0-0.1,0.1-0.1,0.1-0.2c0-0.1-0.1-0.2,0.1-0.3c0.2,0,0.2,0.1,0.2,0.2c0,0.1,0,0.3-0.1,0.4
		c-0.1,0.2,0.1,0.3,0.2,0.3c0.3,0,0.6,0.1,0.8,0.1c0.3,0,0.2-0.3,0.2-0.4c0.1-0.2,0-0.4,0.3-0.4c0.1,0,0.1-0.3,0.2-0.4
		c0-0.1,0-0.3,0.2-0.3c0.1,0,0.1,0.2,0.1,0.3c0,0.2-0.1,0.5-0.1,0.7c0,0.1,0,0.2,0,0.3c-0.1-0.1-0.2-0.1-0.3-0.2c0,0-0.1,0-0.1,0.1
		c0,0.2,0.3,0.4,0.5,0.4c0.2,0,0.3,0,0.5,0c0,0,0.1,0.1,0.1,0.1c0,0.2,0,0.3-0.1,0.5c-0.1,0.5-0.3,0.9-0.3,1.4
		c0,0.2-0.1,0.3-0.3,0.3c-0.7,0-1.4-0.1-2.1-0.2c-0.2,0-0.5,0-0.7-0.1c-0.4,0-0.8,0-1.3-0.1c-0.1,0-0.1,0.1-0.2,0.1
		c0.1,0.1,0.1,0.1,0.2,0.2c0.4,0,0.7,0,1.1,0.1c0.8,0.1,1.7,0.1,2.5,0.2c0.1,0,0.3,0.1,0.4,0.1c0.3,0,0.2,0.1,0.2,0.3
		c0,0.1,0,0.2-0.1,0.3c-0.1,0.4-0.1,0.7-0.2,1.1c0,0.1,0,0.3,0.1,0.4c0,0,0.2,0.1,0.3,0c0.1-0.1,0.2-0.3,0.2-0.4
		c-0.1-0.2,0-0.4,0.1-0.6c0.1-0.5,0.2-1,0.3-1.5c0.1-0.3,0.2-0.6,0.2-0.9c0.1-0.4,0.1-0.7,0.2-1.1c0.1-0.3,0.3-0.1,0.5-0.2
		c0,0.1,0,0.2,0,0.3c-0.1,0.5-0.2,1-0.4,1.5c-0.1,0.5-0.2,1-0.3,1.5c-0.1,0.4-0.2,0.8-0.2,1.2c0,0.1,0.1,0.2,0.2,0.3
		c0.1-0.1,0.3-0.2,0.3-0.3c0.1-0.3,0.1-0.7,0.2-1c0-0.2,0.1-0.4,0.1-0.6c0-0.1,0.1-0.1,0.2-0.1c0.2,0,0.5,0,0.7,0
		c0.3,0,0.3,0.1,0.2,0.3c-0.1,0.5-0.2,1-0.3,1.6c0,0.1,0.1,0.2,0.1,0.3c0.1,0,0.2,0,0.3,0c0.1-0.1,0.1-0.2,0.2-0.4
		c0.1-0.5,0.1-1,0.2-1.5c0-0.1,0.1-0.1,0.2-0.1c0.3,0,0.6,0,0.9,0.1c0,0,0.1,0.1,0.1,0.2c0,0.5-0.1,1.1-0.2,1.6
		c0,0.1-0.1,0.3,0.1,0.3c0.2,0,0.3-0.1,0.4-0.3c0-0.4,0.1-0.9,0.1-1.3c0.1-0.6,0.2-1.2,0.2-1.8c0-0.3,0.1-0.6,0.1-0.9
		c0-0.3,0.1-0.4,0.5-0.4c0.1,0,0.2,0.1,0.4,0.1c0.2,0,0.2,0.1,0.2,0.3c0,0.2,0,0.3-0.1,0.5c-0.1,1-0.2,2-0.2,3.1
		c0,0.2-0.1,0.5-0.1,0.7c0,0.1,0,0.1,0.1,0.2c0.1,0,0.2,0.1,0.2,0.1c0.2-0.1,0.3-0.3,0.3-0.6c0-0.3,0-0.5,0-0.8c0-0.5,0-1,0.1-1.5
		c0-0.6,0.1-1.2,0.2-1.8c0.1-0.3,0.3-0.5,0.4-0.8c0-0.1,0.1-0.1,0.2-0.1c0.1,0,0.1-0.1,0.2-0.1c-0.1,0-0.2-0.1-0.2-0.1
		c-0.2,0-0.3,0-0.5,0c0,0-0.1,0-0.1-0.1c0,0,0.1-0.1,0.1-0.1c0.3,0,0.6,0,0.8,0c0.1,0,0.2,0.2,0.2,0.3c0,0.2,0,0.3-0.1,0.5
		c0,0.3-0.1,0.5-0.1,0.8c0,0.1,0.1,0.2,0.1,0.4c0,0.1,0,0.2,0,0.2c0-0.1-0.1-0.1-0.1-0.2c-0.1-0.1-0.1-0.3-0.2-0.4
		c0-0.1-0.1-0.1-0.2-0.1c0,0.1-0.1,0.2-0.1,0.2c0.1,0.2,0.2,0.4,0.3,0.5c0.2,0.3,0.4,0.7,0.3,1.1C43,65.2,43.1,65.6,43,66
		c0,0.4,0,0.7-0.1,1.1c0,0-0.1,0.1-0.2,0.1c-0.2,0-0.4,0-0.5,0c-0.1,0-0.2,0.1-0.3,0.1c0.1,0,0.2,0.1,0.2,0.1c0.2,0,0.5,0.1,0.7-0.1
		c0,0,0.1,0,0.1,0c0.1,0.1,0.2,0.1,0.4,0c0.1-0.1,0.2-0.3,0.1-0.5c-0.1-0.3-0.1-0.7-0.1-1c0-0.2,0-0.4,0-0.6c0-0.1,0.1-0.1,0.1-0.2
		c0,0.1,0.1,0.1,0.1,0.2c0.3,0.7,0.6,1.4,1,2.1c0.1,0.2,0.5,0.4,0.8,0.4c1,0.2,2,0,3-0.1c0.1,0,0.1,0,0.2,0c0.7,0,1.5,0,2.2-0.1
		c0.9,0,1.9-0.1,2.8-0.1c1.1-0.1,2.1-0.1,3.2-0.2c0.3,0,0.6-0.1,0.7-0.4c0-0.1,0.2-0.3,0.3-0.4c0.1-0.1,0.2-0.2,0-0.3
		c-0.2-0.1-0.3-0.3-0.5,0c-0.1,0.2-0.2,0.4-0.2,0.6c0,0.1,0,0.1-0.1,0.1c0,0-0.1,0-0.2,0.1c0-0.1,0-0.2,0-0.2
		c0.4-0.8,0.8-1.6,1.3-2.5c0.3-0.6,0.5-1.1,0.8-1.7c0.1-0.2,0.3-0.4,0.5-0.5c0.2-0.2,0.3-0.1,0.3,0.2c0,0.1,0,0.2,0.1,0.2
		c0.2,0,0.4,0.1,0.6,0.1c0.2-0.1,0.3-0.3,0.4-0.4c0,0-0.1-0.1-0.1-0.1c-0.1,0-0.2,0-0.3,0c0.3-0.1,0.6-0.1,0.9-0.2
		c0,0,0.1,0.1,0,0.2c0,0.2-0.1,0.3-0.1,0.5c0,0,0,0.1,0,0.1c-0.3,0.3,0.1,0.6,0,0.9c0,0.1,0,0.3,0,0.5c-0.1,0.4,0.1,0.6,0.5,0.6
		c0.3,0,0.6,0,0.8-0.1c0,0,0.1-0.1,0.1-0.1c-0.1-0.1-0.2-0.2-0.3-0.3c0,0,0,0-0.1,0c-0.2,0.1-0.2,0.1-0.2-0.1c0-0.3,0.1-0.6,0.1-1
		c0-0.2,0.1-0.4-0.2-0.4c0,0,0,0-0.1,0c0,0,0.1,0,0.1,0c0.3,0,0.2-0.3,0.2-0.4c0,0-0.2-0.1-0.3-0.1c0,0-0.1,0-0.1,0
		c-0.1-0.1-0.2-0.1-0.2-0.2c0.1,0,0.1-0.1,0.2-0.1c0.2-0.1,0.4-0.1,0.6-0.1c0.1,0,0.1,0.1,0.2,0.1c0,0,0,0.1,0,0.2
		c0,0.7,0,1.4,0.1,2c0,0.3,0.1,0.4,0.5,0.4c0.3,0,0.6,0,1,0c0,0,0.1,0,0.1,0c0,0-0.1-0.1-0.1-0.1c-0.3-0.1-0.2-0.4-0.3-0.6
		c0-0.1-0.1-0.3-0.1-0.4c0,0.1-0.1,0.2-0.1,0.4c0,0.1,0,0.3-0.1,0.4c0,0,0,0.1-0.1,0.1c0,0-0.1-0.1-0.1-0.1c0-0.4,0-0.8,0-1.1
		c0-0.1,0.1-0.1,0.1-0.2c0,0.1,0,0.1,0.1,0.2c0,0.1,0.1,0.2,0.1,0.2c0-0.1,0.1-0.2,0.1-0.3c0-0.2,0-0.4-0.3-0.4c0,0-0.1-0.2-0.1-0.3
		c0-0.2,0-0.5-0.3-0.4c0,0-0.1-0.1-0.1-0.1c0,0,0.1-0.1,0.1-0.1c0.2,0,0.4-0.1,0.6-0.1c0.1,0,0.2,0.1,0.2,0.2
		c0.1,0.5,0.1,1.1,0.1,1.6c0,0.2,0,0.5,0.1,0.7c0,0.1,0.2,0.3,0.3,0.3c0.4,0,0.8,0,1.2,0C65.7,64.1,65.7,64.1,65.7,64 M41.1,63.8
		c-0.3,0-0.1-0.2-0.1-0.3c0,0,0-0.1,0-0.2c0,0.1-0.1,0.1-0.1,0.2c0,0.1,0,0.2,0,0.3C40.9,64,40.9,64,41.1,63.8
		c0.1,0,0.2-0.1,0.3-0.1c0,0-0.1-0.1-0.1-0.1C41.2,63.7,41.2,63.7,41.1,63.8C41.1,63.8,41.1,63.8,41.1,63.8 M17.1,59.7
		c0.1,0,0.2,0,0.4,0.1c0,0,0.1,0,0.1,0c0,0,0-0.1-0.1-0.1c0,0-0.1-0.1-0.1-0.1c0.1,0,0.1-0.1,0.2-0.1c0.2,0,0.4,0.1,0.6,0.1
		c0.1,0,0.2,0,0.2,0c0.1-0.1,0.4-0.2,0.2-0.4c0,0,0.1-0.1,0.1-0.2c0.1-0.1,0.1-0.2,0-0.2c-0.4,0-0.8,0-1.2,0c0,0-0.1,0-0.1,0
		c0,0.3-0.2,0.2-0.4,0.3c0,0-0.1,0.1-0.1,0.1C17,59.3,17,59.5,17.1,59.7c-0.1,0-0.2-0.1-0.3-0.1c-0.1-0.1-0.2-0.1-0.3-0.2
		c0,0.1-0.1,0.2-0.1,0.3c-0.1,0.4-0.2,0.8-0.3,1.2c0,0.1,0.1,0.3,0.2,0.3c0.3,0.1,0.6,0.1,1,0.1c0,0,0.1,0,0.1,0c0,0-0.1,0-0.1,0
		c-0.2,0-0.4-0.1-0.6-0.1c-0.1,0-0.2-0.1-0.2-0.2c0-0.3,0-0.6,0.1-0.8c0,0,0.1-0.1,0.2-0.1C16.9,59.9,17,59.9,17.1,59.7 M23,63.8
		c0,0,0,0.1,0,0.1c-0.1,0.3-0.1,0.3,0.2,0.3c0.1,0,0.3,0.1,0.4,0.1c0.1,0,0.3,0.1,0.4,0c0.2-0.1,0.4-0.3,0.6-0.2
		c0.1,0,0.1-0.1,0.2-0.1c-0.1,0-0.1-0.1-0.2-0.1C24.1,63.9,23.6,63.9,23,63.8c0-0.2-0.1-0.3-0.1-0.4c0-0.1,0.1-0.3,0.1-0.4
		c0,0.1,0.1,0.2,0.2,0.3c0,0.1,0.1,0.1,0.2,0.1c0,0,0-0.1,0-0.1c-0.1-0.3-0.2-0.6-0.2-1c0-0.1,0-0.3,0-0.5c0-0.1-0.1-0.1-0.1-0.2
		c0,0-0.1,0.1-0.1,0.1c-0.1,0.5-0.2,0.9-0.2,1.4c0,0.4-0.3,0.6-0.6,0.5c-0.1,0-0.3,0-0.5,0c-0.3,0-0.5,0-0.8-0.1
		c-0.2,0-0.2,0-0.1-0.2c0,0,0-0.2-0.1-0.2c-0.1,0-0.2,0-0.4,0c0,0,0.1,0.1,0.1,0.1c0,0,0,0.1,0,0.1c-0.2,0-0.4,0-0.6,0
		c-0.1,0-0.1,0-0.2,0c0.1,0,0.1-0.1,0.2-0.1c0.1,0,0.1-0.1,0.2-0.1c-0.1-0.1-0.2-0.2-0.3-0.2c0,0,0,0.1-0.1,0.1
		c-0.1,0.2-0.1,0.3-0.2,0.5c-0.1,0.2-0.1,0.2,0.1,0.2c0.5,0,0.9,0.1,1.4,0.2c0.4,0,0.9,0.1,1.3,0.1c0.3,0,0.4,0.1,0.3,0.3
		c-0.1,0.4-0.2,0.9-0.2,1.3c0,0.1,0,0.2,0.1,0.3c0,0,0.1,0,0.1,0c0-0.1,0.1-0.2,0.1-0.3c0-0.4,0-0.8,0.1-1.1c0-0.2,0.1-0.4,0-0.7
		C22.8,63.9,22.8,63.8,23,63.8 M25.5,62.9c0-0.3-0.1-0.3-0.3-0.3c-0.6-0.1-1.1-0.1-1.7-0.1c-0.1,0-0.1,0.1-0.2,0.1
		c0,0,0.1,0.1,0.1,0.1c0.2,0,0.3,0,0.5,0c0.3,0,0.4,0.1,0.3,0.4c0,0.1-0.1,0.2,0.2,0.2c0.2,0,0.2-0.1,0.2-0.2c0-0.3,0.1-0.4,0.3-0.3
		C25.1,62.8,25.3,62.9,25.5,62.9c0,0.3-0.1,0.5,0,0.8c0,0.1,0.2,0.3,0.3,0.3c0.2,0.1,0.5,0,0.8,0.1c0.1,0,0.3,0.1,0.3,0.2
		c0,0.2-0.1,0.4-0.1,0.7c-0.1,0.5-0.1,0.9-0.2,1.4c0,0.1-0.1,0.2,0.1,0.2c0.1,0,0.2-0.1,0.2-0.2c0-0.1,0-0.3,0-0.4c0,0,0-0.1,0-0.1
		c0,0,0.1,0,0.1,0.1c0.1,0.2,0.6,0.5,0.9,0.4c0,0,0-0.1,0-0.1c0.1-0.2,0.2-0.5,0.3-0.7c0-0.1-0.1-0.3-0.2-0.3c-0.2-0.1-0.5,0-0.8,0
		c-0.1,0-0.2-0.1-0.2-0.1c0-0.3,0-0.5,0-0.8c0-0.1,0.2-0.2,0.3-0.2c0.4,0,0.7,0.1,1.1,0.1c0.4,0.1,0.9,0.1,1.3,0.2
		c0.4,0,0.8,0,1.1,0.1c0.1,0,0.1,0,0.2-0.1c0,0,0.1-0.1,0.1-0.1c0,0-0.1-0.1-0.1-0.1c-0.6-0.1-1.3-0.1-1.9-0.2c-0.1,0-0.3,0-0.4,0
		c-0.1,0-0.3,0-0.4,0c-0.3,0-0.6-0.1-1-0.1c-0.2,0-0.3,0.2-0.4-0.1c0,0-0.1-0.1-0.1-0.1c-0.3,0-0.5,0-0.8,0c-0.1,0-0.2-0.1-0.3-0.1
		c0.1,0,0.1-0.1,0.2-0.1c0.2,0,0.4,0,0.7,0c0.1,0,0.2-0.1,0.3-0.1c0,0,0-0.1,0-0.1c0,0,0,0-0.1,0c-0.3,0-0.5,0-0.8,0
		c-0.1,0-0.2-0.1-0.2-0.1c0.1,0,0.2-0.1,0.3-0.1c0.2,0,0.4,0,0.7,0c0.1,0,0.1-0.1,0.2-0.1c-0.1,0-0.1-0.1-0.2-0.1
		C26.3,63,25.9,63,25.5,62.9 M71.5,68.8c0.2,0,0.5,0.1,0.7,0.1c0.2,0,0.2,0.1,0.2,0.3c0,0.1,0,0.2,0,0.3c0,0,0.2,0.1,0.2,0
		c0.1-0.1,0.1-0.2,0.1-0.3c0-0.2,0-0.5,0.2-0.6c0,0,0.1-0.2,0-0.2c-0.2-0.2-0.2-0.4-0.3-0.7c-0.1-0.4-0.3-0.8-0.5-1.1
		c-0.3-0.7-0.6-1.3-1-1.9c-0.1-0.2-0.5-0.3-0.8-0.4c0,0-0.1,0-0.2,0.1c0,0,0.1,0.1,0.1,0.1c0.1,0,0.2,0,0.1,0.2c0,0,0,0.1,0,0.1
		c0.1,0.2,0,0.3-0.1,0.2c-0.2-0.1-0.3,0-0.3,0.1c0,0-0.1,0.1-0.1,0.1c-0.1,0.1-0.1,0.1-0.2,0.1c0,0,0.1,0.1,0.1,0.1
		c0.1,0,0.2,0,0.3-0.1c0.1-0.3,0.3-0.1,0.5-0.1c0.1,0,0.2,0.1,0.2,0.2c0,0.1-0.1,0.1-0.2,0.2c-0.1,0-0.2,0-0.2,0
		c-0.1,0-0.1,0-0.1,0.1c0,0.1,0.1,0.1,0.1,0.2c0,0.2,0,0.2,0.2,0.2c0.2,0,0.5-0.1,0.7-0.1c0.1,0,0.2,0.1,0.3,0.1
		c-0.1,0.1-0.1,0.2-0.2,0.3c-0.1,0.1-0.3,0-0.4,0.1c-0.1,0-0.1,0.1-0.2,0.1c0,0.1,0.1,0.1,0.1,0.2c0.2,0.2,0.5,0.4,0.4,0.8
		c0,0,0,0.1,0.1,0.2c0.1,0.1,0.2,0.3,0.2,0.4c0.1,0.4,0.3,0.5,0.7,0.4c0.1,0,0.2,0,0.3,0.1c0,0,0.1,0.1,0.1,0.1c-0.1,0-0.1,0-0.2,0
		C72.1,68.7,71.8,68.6,71.5,68.8c0-0.4-0.2-0.7-0.4-1c-0.2-0.4-0.4-0.7-0.6-1c-0.1-0.2-0.3-0.3-0.5-0.2c-0.4,0.1-0.9,0.2-1.3,0.2
		c-0.3,0-0.6,0-0.9,0.1c-0.6,0.1-1.2,0.2-1.8,0.2c-0.3,0-0.6,0.1-0.9,0.1c-0.9,0-1.7,0.1-2.6,0.2c-0.6,0.1-1.2,0-1.9,0.1
		c-0.5,0.1-1-0.1-1.4,0.3c-0.2,0.2-0.6,0.5-1,0c0,0,0,0-0.1,0c-0.3,0-0.6,0-0.9,0c-0.4,0.1-0.8,0.2-1.2,0.3c-0.3,0-0.6,0.1-0.9,0.2
		c-0.4,0.1-0.9,0.2-1.3,0.2c-0.4,0-0.9,0-1.4,0c-0.1,0-0.2,0.1-0.3,0.1c-0.4,0-0.8,0.1-1.2,0.1c-0.1,0-0.2,0-0.3,0
		c0.1,0.1,0.2,0.1,0.3,0.2c0,0,0.1,0,0.1,0c0,0,0.1,0.1,0.1,0.1c0,0-0.1,0-0.1,0c-0.2,0.1-0.4,0.1-0.7,0.1c-0.7,0-1.4,0.3-2.1,0.2
		c-0.7-0.1-1.4,0-2.1,0c-0.1,0-0.3,0.1-0.4,0.2c0.1,0,0.3,0.1,0.4,0.1c0.4,0,0.7,0,1.1,0c0.1,0,0.1,0.1,0.2,0.1c0-0.1,0-0.1,0-0.2
		c0,0,0.1,0,0.1,0c0.1,0.1,0.2,0.1,0.2,0.2c0.1,0.1,0.2,0.2,0.3,0.2c0.2,0,0.3,0,0.5,0c0.7,0,1.4-0.2,2-0.4c0.1,0,0.2,0,0.2,0
		c0,0,0,0,0.1,0c0,0,0-0.1,0-0.1c0-0.1,0-0.1,0-0.2c0.1,0,0.1,0.1,0.2,0.1c0.1,0,0.2,0,0.3,0c0,0,0-0.1,0-0.2c0,0.1,0,0.1,0.1,0.2
		c0.1,0.1,0.2,0.1,0.3,0.1c0-0.2,0.1-0.1,0.2-0.1c0.2,0,0.5-0.1,0.7,0c0.3,0.3,0.7,0.2,1.1,0.3c0.1,0,0.1,0,0.2,0
		c-0.1,0-0.1,0.1-0.2,0.1c-0.3,0-0.5,0.1-0.8,0.1c-0.1,0-0.3-0.1-0.4-0.1c0,0-0.1,0-0.1,0c-0.1,0.2-0.3,0.1-0.5,0.1
		c-0.5,0-1,0-1.4,0.1c-0.1,0-0.2,0.1-0.2,0.1c0.1,0,0.2,0.1,0.2,0.1c0.6,0,1.1,0,1.7,0c0.2,0,0.3,0,0.2-0.2c0,0,0-0.1,0-0.1
		c0,0,0.1,0.1,0.1,0.1c-0.1,0.3,0.1,0.2,0.3,0.2c0.1,0,0.3,0,0.4-0.1c0.3,0,0.5,0,0.8-0.1c0.2,0,0.4-0.2,0.7-0.1c0,0,0.1,0,0.1-0.1
		c0.2-0.3,0.5-0.2,0.8-0.3c0.1,0,0.3,0,0.4,0.1c0.2,0.2,0.3,0.2,0.5,0c0.1-0.1,0.2-0.1,0.2-0.1c0.3,0,0.5-0.1,0.8-0.1
		c0.2,0,0.4-0.1,0.3,0.2c0,0,0.1,0.1,0.2,0.1c0.3,0,0.7,0,1,0.1c0.3,0.1,0.5,0.1,0.8,0c0,0,0,0,0.1,0c0,0-0.1,0-0.1,0
		c-0.4-0.1-0.8-0.2-1.2-0.2c-0.1,0-0.1-0.1-0.2-0.1c0,0,0.1-0.1,0.1-0.1c0.4,0.1,0.9-0.3,1.2,0.2c0,0,0.1,0.1,0.1,0.1
		c0.2,0,0.5,0,0.7,0c0.7-0.1,1.5-0.2,2.2-0.3c1-0.1,2-0.1,3.1-0.1c1.1,0,2.3-0.1,3.4-0.2c0.3,0,0.7,0,0.9-0.1
		C70.6,68.8,71,68.8,71.5,68.8 M34.9,69.9c0.2,0,0.4,0,0.6,0.1c0.5,0,0.9,0.1,1.4,0.1c0.6,0,1.3,0,2,0.1c0.2,0,0.4,0,0.7,0.1
		c0.2,0,0.3,0,0.5,0c0.1,0,0.2,0,0.4,0.1c0.8,0.1,1.6-0.1,2.4-0.2c0.3,0,0.6-0.1,0.8-0.1c0.1,0,0.3,0.1,0.4,0.2
		c0.1,0.1,0.2,0.2,0.3,0.2c0.3,0,0.6,0,0.9-0.1c0.1,0,0.1,0,0.2-0.1c0,0-0.1-0.1-0.1-0.1c0,0-0.1,0-0.1-0.1c0,0-0.1,0-0.1-0.1
		c0,0,0.1,0,0.1,0c0.1,0,0.2,0,0.2,0c0.2,0.1,0.2,0,0.2-0.1c0-0.3-0.1-0.6-0.1-1c0-0.1,0-0.3-0.1-0.4c0-0.1-0.1-0.1-0.2-0.1
		c0,0-0.1,0.1-0.1,0.2c0,0,0.1,0.1,0.1,0.2c0,0.2,0,0.4,0,0.6c-0.1-0.1-0.2-0.1-0.3-0.2c0,0,0,0-0.1,0c-0.3-0.1-0.6,0.1-0.9,0.1
		c0,0-0.1,0.1-0.1,0.1c0,0.1,0,0.1,0,0.2c0,0.1-0.1,0.2-0.1,0.3c0,0,0,0-0.1,0c0-0.1,0-0.2,0-0.2c-0.1-0.1,0.1-0.5-0.3-0.5
		c-0.3,0-0.5,0-0.8,0.1c-0.1,0-0.1,0-0.2,0c0,0-0.1-0.1-0.1-0.1c0-0.1,0.1-0.1,0.1-0.1c0.2,0,0.4,0,0.5,0c0.3,0,0.5-0.1,0.5-0.4
		c0-0.1-0.1-0.2-0.1-0.3c0-0.2,0-0.3,0-0.5c0-0.1-0.1-0.1-0.2-0.2c0,0.1-0.1,0.1-0.1,0.2c0,0.1,0,0.3,0,0.4c0,0.2,0,0.2-0.2,0.2
		c-0.2,0-0.4,0-0.4,0.2c0,0-0.1,0-0.2,0.1c0-0.1,0-0.1,0-0.2c0,0,0-0.1,0-0.1c0,0,0-0.1,0-0.1c0,0-0.1,0-0.1,0.1
		c-0.1,0.2-0.2,0.4-0.2,0.6c0,0.2-0.1,0.3-0.3,0.2c-0.2-0.1-0.5,0-0.6-0.4c0,0-0.1,0-0.2-0.1c-0.1,0-0.2,0-0.3,0
		c-0.2,0-0.4,0-0.4-0.3c0,0-0.1,0-0.1,0c0,0.1-0.1,0.2-0.1,0.3c0,0.2,0.1,0.5,0,0.7c0,0.2,0.1,0.2,0.2,0.2c0.1,0,0.1,0,0.2,0
		c0.1,0,0.2,0.1,0.2,0.1c-0.1,0-0.1,0.1-0.2,0.1c-0.2,0.1-0.4-0.1-0.6,0.1c0,0-0.1-0.1-0.1-0.1c0-0.2,0-0.3,0-0.5
		c0-0.1-0.1-0.2-0.2-0.2c-0.1,0.1-0.1,0.1-0.2,0.2c0,0.1,0,0.2,0,0.3c0,0.3-0.1,0.3-0.3,0.2c-0.1,0-0.1-0.1-0.2-0.1
		c0.1,0,0.1,0,0.2,0c0.1-0.1,0.2-0.2,0.2-0.3c-0.1,0-0.2-0.1-0.3-0.1c-0.1,0-0.1,0.1-0.2,0.2c-0.1,0.1-0.1,0.2-0.2,0.3
		c0-0.1-0.1-0.2-0.1-0.3c0,0,0-0.1,0-0.1c0-0.1-0.1-0.2-0.1-0.2c-0.1,0-0.2,0-0.3,0.1c0,0,0,0.1-0.1,0.2c0,0,0,0.1,0,0.1
		c0,0,0-0.1,0-0.1c0-0.1-0.1-0.3-0.1-0.4c0-0.1-0.1-0.1-0.1-0.1c0,0-0.1,0.1-0.1,0.1c0,0.1-0.1,0.3-0.1,0.4c0,0.1-0.1,0.1-0.1,0.2
		c0-0.1-0.1-0.2-0.1-0.2c0,0,0-0.1,0.1-0.1c0-0.1,0-0.2-0.2-0.2c-0.1,0-0.2,0-0.4,0c-0.1,0-0.2-0.1-0.2-0.1c0-0.1,0-0.2,0.1-0.3
		c0.1,0.1,0.1,0.1,0.2,0.2c0.1,0,0.2,0.1,0.2,0c0.2-0.3,0.4-0.1,0.6-0.1c0,0,0.1,0,0.1,0c0.1-0.4,0.2-0.7,0.2-1.1
		c0-0.1-0.1-0.1-0.1-0.2c-0.1,0.1-0.1,0.1-0.1,0.2c0,0.2-0.1,0.4-0.1,0.5c0,0.2-0.2,0.2-0.3,0.2c-0.2-0.1-0.3-0.2-0.4-0.3
		c-0.1-0.1-0.3-0.2-0.3,0.1c-0.1,0.2-0.2,0.4-0.3,0.6c0,0.1-0.1,0.1-0.1,0.1c-0.3,0-0.3,0.2-0.4,0.4c0,0.1,0,0.2-0.1,0.3
		c0,0,0,0.1-0.1,0.1c0,0-0.1-0.1-0.1-0.1c0-0.2,0-0.4,0-0.6c0-0.1,0-0.1-0.1-0.2c0,0-0.1,0.1-0.1,0.1c-0.1,0-0.2,0-0.2,0
		c-0.1,0-0.2-0.1-0.3-0.1c-0.3-0.1-0.7-0.2-1-0.3c-0.1,0-0.3,0-0.4,0c-0.1,0-0.3,0-0.4,0c-0.3,0-0.6-0.1-0.9-0.1c0,0-0.1,0-0.1,0
		c0.1,0,0.1,0,0.2,0c0.4,0,0.4,0,0.4-0.4c0,0,0-0.1,0.1-0.1c0.3,0,0.6,0,0.9,0c0.1,0,0.2,0.1,0.3,0.1c-0.1,0-0.2,0-0.2,0.1
		c0,0-0.1,0-0.1,0c-0.2,0-0.5,0-0.7,0.1c0,0-0.1,0.1-0.1,0.1c0,0,0.1,0.1,0.1,0.1c0.1,0,0.2,0,0.2,0c0.5,0,1-0.1,1.5,0.1
		c0.2,0.1,0.3,0,0.3-0.2c0,0,0.1-0.1,0.1-0.1c0,0,0.1,0.1,0.1,0.1c0,0,0,0.1,0,0.1c0,0.1,0.1,0.2,0.1,0.3c0-0.1,0.1-0.1,0.1-0.2
		c0.1-0.4,0-0.6-0.5-0.6c-0.5,0-0.9,0-1.4-0.1c-0.4,0-0.7-0.1-1.1-0.1c-0.1,0-0.1,0.1-0.2,0.1c0,0,0,0.1,0.1,0.1c0,0,0.1,0,0.1,0.1
		c0,0-0.1,0-0.1,0c-0.3-0.1-0.5-0.1-0.8-0.2c-0.1,0-0.3-0.1-0.4,0c-0.2,0.2-0.4,0.1-0.6-0.1c-0.2-0.2-0.5-0.2-0.8-0.1
		c-0.1,0-0.2,0.1-0.3,0c-0.3-0.1-0.6-0.2-1-0.1c-0.2,0.1-0.4,0.2-0.6,0.1c-0.3-0.1-0.5-0.1-0.8,0c-0.1,0-0.1,0.1-0.2,0.1
		c-0.7,0-1.3,0-2,0c-0.1,0-0.3-0.1-0.3-0.2c0-0.3-0.3-0.3-0.5-0.3c-0.4,0-0.8,0-1.1,0.1c-0.2,0-0.4,0.1-0.6,0.1
		c-0.2,0-0.4,0-0.5-0.1c-0.3-0.3-0.4-0.3-0.7-0.1c-0.1,0-0.2,0.1-0.2,0.1c-0.7-0.3-1.4-0.1-2.1-0.2c-0.4-0.1-0.8-0.1-1.2-0.1
		c-0.5-0.1-1-0.1-1.5-0.2c-0.2,0-0.4,0-0.5-0.1c0,0-0.1-0.1-0.1-0.1c0,0,0.1-0.1,0.1-0.1c0.4,0,0.9-0.1,1.3,0
		c0.6,0.1,1.3,0.2,1.9,0.2c0,0,0.1,0,0.1,0c0,0-0.1-0.1-0.1-0.1c-0.8-0.1-1.6-0.2-2.3-0.2c-0.4,0-0.8-0.1-1.2-0.1
		c-0.6-0.1-1.3-0.2-1.9-0.2c-0.1,0-0.1,0.1-0.2,0.1c0,0,0.1,0.1,0.1,0.1c0.4,0.1,0.8,0.1,1.3,0.2c0.2,0,0.4,0,0.6,0.1
		c0.2,0,0.3,0.1,0.2,0.3c0,0.1,0.1,0.3,0.1,0.3c0.7,0.1,1.5,0.2,2.2,0.3c0.7,0.1,1.4,0.2,2.1,0.2c0.8,0.1,1.6,0.1,2.4,0.2
		c0.3,0,0.5,0.2,0.5,0.5c0,0.1-0.1,0.2-0.1,0.2c-0.1,0-0.2,0.1-0.4,0.1c-0.1,0-0.2,0.1-0.3,0c-0.4-0.3-0.9,0-1.2-0.5c0,0,0,0-0.1,0
		c-0.6-0.2-1.2-0.2-1.7-0.2c-0.4-0.1-0.9-0.1-1.3-0.1c-0.4,0-0.9-0.1-1.3-0.1c-0.3,0-0.6,0.1-0.9,0.1c-0.1,0-0.1,0.1-0.2,0.2
		c0.1,0,0.1,0.1,0.2,0.1c0.2,0,0.4,0.1,0.5,0.1c0.4,0,0.8,0,1.3,0c0.2,0,0.4,0.1,0.6,0.1c0.1,0,0.2,0,0.4,0c-0.1,0-0.2-0.1-0.3-0.1
		c0,0-0.1,0-0.1,0c0,0,0.1-0.1,0.1-0.1c0.2,0,0.3,0,0.5,0c0.2,0,0.4,0.1,0.6,0.1c0.4,0,0.8,0,1.2,0c0.1,0,0.1,0.1,0.2,0.1
		c-0.1,0-0.1,0.1-0.2,0.1c-0.3,0-0.7,0-1,0c0,0-0.1,0-0.1,0c0,0,0,0.1,0.1,0.1c0.3,0.1,0.6,0.1,1,0.2c0.5,0.1,1,0.1,1.5,0.1
		c0.1,0,0.3,0.1,0.4,0.3c0.1,0.2,0.2,0.2,0.3,0.2c0.1,0,0.4-0.1,0.4-0.1c0-0.2,0.2-0.1,0.3-0.1c0.1,0,0.3,0,0.4,0
		c0.2-0.1,0.3,0,0.4,0.1c0.1,0.2,0.3,0.3,0.6,0.3c0.9,0.3,1.9,0.2,2.9,0.3c0.5,0.1,0.9,0.2,1.4,0.2c0.2,0,0.6,0.2,0.7-0.2
		c0,0,0.3,0,0.3,0.1c0.1,0.2,0.2,0.2,0.4,0.2c0.5,0,1,0.1,1.5,0.2c0.5,0,1,0.2,1.4-0.1c0,0,0.1,0,0.2,0
		C33.7,69.8,34.3,69.8,34.9,69.9 M68.8,65c-0.3-0.1-0.5-0.3-0.8-0.3c-0.5-0.1-1-0.1-1.6-0.1c-0.2,0-0.3-0.1-0.4-0.3
		c0-0.1-0.1-0.1-0.1-0.2c0,0.1,0,0.2,0,0.3c0,0.2,0,0.4,0,0.5c0,0.2-0.1,0.4-0.1,0.5c0,0.2,0,0.4,0,0.5c0,0.2-0.1,0.5,0.2,0.5
		c0.1,0,0.2,0,0.3,0c0.7,0,1.4-0.1,2.1-0.1c0.4,0,0.9-0.1,1.3-0.2c0.2,0,0.3-0.1,0.1-0.3C69.5,65.6,69.2,65.3,68.8,65 M18.8,62.3
		c0.1,0,0.3,0,0.4,0.1c0.1,0,0.2,0.1,0.2-0.1c0-0.1,0-0.2,0.1-0.4c0-0.2-0.1-0.2-0.3-0.2c0,0,0,0.1,0,0.2c0,0.1-0.1,0.2-0.1,0.2
		c-0.1,0-0.3,0-0.4,0c-0.6-0.2-1.3-0.3-2-0.3c-0.3,0-0.4-0.1-0.4-0.4c0-0.1-0.1-0.2-0.1-0.3c0,0.1-0.1,0.2-0.1,0.3
		c0,0.1,0,0.2,0,0.3c0,0.1,0,0.2,0,0.2c0,0.1-0.1,0.3-0.1,0.4c-0.1,0.4-0.1,0.7-0.2,1.1c-0.1,0.6-0.2,1.2-0.3,1.8
		c0,0.1,0.1,0.2,0.1,0.3c0.1-0.1,0.2-0.1,0.2-0.2c0.1-0.1,0.3-0.3,0.2-0.5c-0.2-0.5,0-1,0.1-1.4c0-0.2,0-0.4,0.1-0.5
		c0.1-0.1,0.4,0,0.5,0c0.3,0,0.6-0.1,1,0c0.3,0,0.6,0.1,0.9,0.2c0.2,0,0.4,0,0.6-0.1c0.2-0.1,0.1-0.3,0-0.4
		c-0.3-0.1-0.5-0.1-0.8-0.1c-0.2,0-0.4,0-0.6,0c-0.1,0-0.2,0-0.3,0c-0.3,0-0.7,0-1-0.1c-0.1,0-0.1,0-0.2-0.1c0,0-0.1-0.1-0.1-0.2
		c0.1,0,0.1,0,0.2,0c0.3,0,0.5,0,0.8,0.1C17.6,62.2,18.2,62.2,18.8,62.3 M47.5,69.1c0.1-0.1,0.4,0.1,0.4-0.2c0-0.5,0.3-0.6,0.7-0.5
		c0,0,0.1,0,0.1,0c0.3-0.1,0.5-0.1,0.8,0c0.3,0.1,0.7,0.1,0.9,0c0.2-0.1,0.4-0.1,0.7-0.1c0.3,0,0.7,0,1-0.1c0.3,0,0.7-0.1,1-0.1
		c0.5,0,1,0,1.5-0.1c0.5-0.1,0.9-0.1,1.4-0.1c0.1,0,0.1,0,0.2-0.1c-0.1,0-0.2-0.1-0.2-0.1c-0.4,0-0.8,0.1-1.2,0.2
		c-0.1,0-0.2,0-0.3,0c-0.6,0-1.3,0-1.9,0c-0.6,0-1.2,0.1-1.8,0.1c-0.3,0-0.7-0.1-1,0c-0.4,0.1-0.8,0.1-1.2,0.1
		c-0.4,0-0.8,0.1-1.3,0.1c-0.2,0-0.3,0.1-0.4,0.3c0,0.1-0.1,0.2-0.2,0.3c-0.1-0.1-0.1-0.2-0.2-0.3c0,0,0-0.1,0-0.1
		c-0.1-0.3-0.2-0.3-0.4-0.1c0,0-0.1,0.1-0.2,0.1c-0.3,0-0.3,0.2-0.3,0.4c0,0.2,0.2,0.2,0.3,0.2c0.2,0,0.3-0.1,0.5-0.1
		C46.8,69.1,47.1,69.1,47.5,69.1 M27.3,63.2c0,0,0,0.1,0,0.1c0.1,0.2,0.1,0.3-0.2,0.3c-0.1,0-0.2,0-0.2,0.1c0,0,0,0.1-0.1,0.1
		c0,0,0,0,0.1,0c0.5-0.1,1,0.2,1.4-0.2c0,0,0.1,0,0.1,0c0.3,0.1,0.6,0.2,0.8-0.1c0,0,0.1,0,0.1,0c0.4,0.1,0.7,0.1,1.1,0.2
		c0.6,0.1,1.1,0.1,1.7,0.1c0.4,0,0.8,0,1.2,0c0.7,0,1.4,0.1,2.1,0.1c0.1,0,0.1-0.1,0.2-0.1c0,0-0.1-0.1-0.1-0.1
		c-0.4-0.1-0.7-0.1-1.1-0.2c-0.3,0-0.7,0-1,0c-0.7,0-1.4-0.1-2.1-0.2c-0.2,0-0.5,0-0.7-0.1c-0.4,0-0.8,0-1.2,0
		c-0.4-0.1-0.7,0.1-1.1-0.1C28,63,27.7,63.1,27.3,63.2 M30.7,65.4C30.7,65.4,30.7,65.4,30.7,65.4C30.6,65.5,30.6,65.5,30.7,65.4
		c0.3,0.1,0.7,0.1,1,0.2c0.3,0,0.5,0,0.8,0.1c0,0,0,0.1,0,0.1c-0.1,0-0.2,0.1-0.2,0.1c0,0,0,0.1,0,0.1c0.1,0.2,0.2,0.3,0.3,0.5
		c0.1,0.1,0.2,0.2,0.4,0.3c0.4,0.1,0.7-0.3,0.8-0.7c0-0.1,0-0.2,0.1-0.2c0.4,0,0.8-0.1,1.1,0c0.2,0,0.3,0,0.3-0.2
		c0-0.1,0.1-0.1,0.2-0.2c0,0,0.1-0.1,0.1-0.1c0,0-0.1-0.1-0.1-0.1c-0.3,0-0.5-0.1-0.8-0.1c-0.3,0-0.6,0.1-0.9,0
		c-0.6-0.2-1.3,0-1.9,0c0,0-0.1,0.1,0,0.1c0.1,0.2,0,0.2-0.1,0.2C31.3,65.4,31,65.4,30.7,65.4 M12,59.6c0.3,0,0.6,0.1,0.9,0.1
		c0.2,0,0.4,0,0.6,0.2c0.2,0.2,0.4,0.3,0.7,0c0.1-0.1,0.2-0.1,0.3-0.1c0.5,0,1,0,1.5,0c0.1,0,0.1,0,0.1-0.1C16,59.4,16,59.2,16.1,59
		c0,0,0-0.1,0-0.1c-0.2-0.2-0.5-0.4-0.8-0.4c-0.4,0-0.8,0-1.2,0c-0.1,0-0.2,0.1-0.2,0.1c0,0.2-0.1,0.2-0.3,0.2c-0.2,0-0.3,0-0.5,0
		c-0.1,0-0.2,0.1-0.2,0.1c0.1,0.1,0.1,0.2,0.2,0.2c0.1,0,0.1,0,0.2,0c0,0,0.1,0,0.1,0.1c0,0.1-0.1,0.2-0.1,0.2c-0.4,0-0.8,0-1.2,0
		c-0.1,0-0.2,0-0.2,0C11.8,59.4,11.9,59.5,12,59.6 M62.4,65.9c0,0.1,0,0.3,0,0.4c0,0.2,0.2,0.3,0.2,0.4c0,0,0.1,0,0.1,0
		c0,0,0,0-0.1-0.1c-0.2-0.2-0.2-0.4-0.1-0.6c0-0.1,0-0.1,0-0.2c0-0.1,0-0.2,0-0.3c0,0,0.1,0,0.1,0c0,0.1,0,0.2,0,0.3c0,0,0,0,0,0
		c0,0.1,0.1,0.2,0.1,0.3c0,0,0.2,0.1,0.2,0.1c0.1-0.1,0.1-0.2,0.1-0.3c0-0.1-0.1-0.2,0-0.3c0-0.1,0.1-0.1,0.1-0.2
		c0,0.1,0.1,0.1,0.1,0.2c-0.1,0.3,0.1,0.4,0.4,0.5c0.1,0,0.1,0.1,0.1,0.1c-0.1,0-0.1,0.1-0.2,0.1c0,0-0.1,0-0.1,0
		c-0.1,0-0.2,0-0.3,0.1c0,0,0,0.1,0,0.1c0.1,0,0.2,0.1,0.3,0.1c0.1,0,0.2,0.1,0.2,0.1c0,0,0,0,0,0c0.3,0,0.6,0,0.9,0
		c0.1,0,0.2-0.1,0.3-0.1c0.2,0,0.3,0.1,0.5,0c0.1,0,0.1-0.1,0.2-0.2c-0.1-0.1-0.2-0.2-0.2-0.2c-0.2,0.1-0.3,0-0.5,0
		c-0.2,0-0.2-0.2-0.1-0.2c0.2-0.2,0.1-0.3,0-0.4c0-0.1-0.1-0.2,0-0.3c0.2-0.3,0-0.6-0.1-0.9c0-0.1-0.1-0.1-0.2-0.2
		c0,0.1,0,0.2,0,0.3c0,0.1,0.1,0.1,0.1,0.2c0,0.1,0,0.2,0,0.3c0,0.4,0,0.8,0,1.2c0,0.2-0.1,0.3-0.2,0.3c-0.2,0-0.3-0.1-0.3-0.4
		c0-0.1-0.1-0.2-0.1-0.3c-0.1-0.1-0.3-0.1-0.2-0.3c0.1-0.2,0.1-0.4-0.2-0.4c-0.1,0-0.2-0.1-0.2-0.2c-0.1-0.1-0.1-0.2-0.1-0.3
		c0-0.1-0.1-0.1-0.2-0.1c0,0.1-0.1,0.1-0.1,0.2c0,0.1,0.1,0.2,0.1,0.3c0,0.1,0,0.3,0,0.4c-0.1,0-0.2,0-0.3-0.1
		c-0.1-0.1-0.3-0.1-0.3,0.1C62.3,65.5,62.4,65.7,62.4,65.9 M58,65c-0.1,0.2-0.2,0.4-0.3,0.6c-0.1,0.2,0.1,0.3,0.2,0.3
		c0.2,0.1,0.4,0.1,0.4-0.1c0-0.4,0.2-0.7,0.4-0.9c0-0.1,0.1-0.1,0.1-0.2c0.1-0.1,0.1-0.1,0.2-0.2c0.3-0.1,0.4-0.3,0.5-0.7
		c0-0.3,0-0.5,0-0.8c0-0.1,0-0.3-0.1-0.4c0-0.1,0-0.1,0-0.2c0,0-0.1,0.1-0.1,0.1c-0.1,0.1-0.1,0.2-0.2,0.3c-0.3,0.6-0.5,1.1-0.8,1.7
		C58.2,64.6,58.1,64.8,58,65 M22.9,74.4c-0.1,0-0.1,0.1-0.2,0.1c0.2,0,0.5-0.1,0.6,0.2c0,0,0,0,0,0c0.2,0,0.3-0.1,0.5-0.1
		c0.3,0,0.5,0.1,0.7-0.2c0,0,0.2,0,0.3,0c0.1,0,0.3,0,0.4,0c0.2,0,0.3,0,0.5,0c0.1,0,0.2,0,0.3,0c0-0.1-0.1-0.1,0-0.2
		c0,0,0.1-0.1,0.1-0.1c0.2,0.1,0.4,0.1,0.6,0.2c0.3,0.2,0.6,0,0.9,0c0,0,0.1-0.3,0.1-0.4c0,0,0,0,0-0.1c0.1-0.2,0-0.2-0.1-0.2
		c-0.3,0-0.6,0-0.8,0c-0.2,0-0.3,0-0.4-0.1c-0.3-0.2-0.4-0.1-0.6,0.2c-0.1,0.1-0.1,0.2-0.3,0.2c-0.7,0-1.4,0.1-2.1,0.1
		C23.3,74.3,23.1,74.4,22.9,74.4 M12.5,62.6c0.4,0.1,0.7,0.1,1.1,0.2c0.3,0.1,0.7,0.1,1,0.2c0.3,0,0.6,0,0.8-0.1
		c0,0,0.1-0.1,0.1-0.1c0,0-0.1,0-0.1-0.1c-0.1,0-0.1-0.1-0.2-0.1c-0.6,0-1.2-0.1-1.9-0.1c-0.5,0-1-0.1-1.4-0.1
		c-0.1,0-0.2-0.1-0.2-0.2c-0.1-0.3-0.1-0.5-0.2-0.8c0,0-0.1-0.1-0.1-0.1c0,0.1-0.1,0.1,0,0.2c0.1,0.3,0.1,0.6,0.2,0.9
		c0.2,0.9,0.3,1.8,0.5,2.8c0,0.1,0.1,0.1,0.1,0.2c0-0.1,0.1-0.1,0.1-0.2c-0.1-0.4-0.1-0.8-0.2-1.2c-0.1-0.4-0.2-0.7-0.2-1.1
		c0-0.2,0-0.3,0.2-0.2C12.2,62.5,12.3,62.5,12.5,62.6 M59.9,64.5c0.4,0,0.9,0,1.3,0.1c0,0,0-0.1,0-0.2c0-0.1-0.1-0.1-0.2-0.1
		c-0.1-0.1-0.1-0.1-0.2,0c0,0-0.1,0-0.2,0.1c0-0.1-0.1-0.1,0-0.2c0.1-0.5,0.3-1.1,0.2-1.6c0,0,0-0.1,0-0.1c0,0-0.1,0-0.1,0.1
		c-0.1,0.3-0.3,0.1-0.4,0.1c-0.3-0.1-0.3,0-0.3,0.3c0,0.2-0.1,0.3-0.1,0.5C59.9,63.7,59.6,64.1,59.9,64.5 M60.3,65.6
		c0,0.1,0.1,0.3,0.1,0.4c0,0.5,0.2,0.7,0.5,0.8c0.2,0,0.4,0,0.5,0c0.2-0.1,0.5,0,0.5-0.2c0-0.2,0.1-0.5,0-0.7
		c-0.1-0.2,0.1-0.5-0.3-0.5c0,0,0-0.1,0-0.1c0-0.2,0-0.3-0.1-0.5c0-0.1-0.1-0.1-0.2-0.2c0,0.1-0.1,0.1,0,0.2c0,0.1,0.1,0.2,0.1,0.3
		c0,0.2,0,0.3-0.2,0.3c-0.2,0-0.4-0.1-0.6-0.1C60.5,65.4,60.4,65.5,60.3,65.6 M28.9,62c0.4,0,0.7,0,1.1,0c0.6,0,0.6,0,0.3-0.5
		c0,0,0-0.1,0-0.1c0,0-0.1,0.1-0.1,0.1c0,0.3-0.2,0.4-0.5,0.3c-0.3,0-0.7,0-1.1-0.1c-0.2,0-0.5,0-0.7-0.1c-0.2,0-0.3-0.4-0.6-0.2
		c0,0-0.1,0-0.1-0.1c-0.3-0.5-0.6-0.9-0.8-1.4c0,0-0.1-0.1-0.1-0.1c0,0,0,0.1,0,0.1c0.1,0.3,0,0.3-0.2,0.3c0,0-0.1,0-0.1,0
		c0,0,0,0.1,0.1,0.1c0.1,0,0.1,0.1,0.2,0.1c0.3,0,0.4,0.2,0.5,0.4c0.1,0.2,0.2,0.4,0.3,0.6c0.1,0.1,0.2,0.3,0.3,0.3
		C27.8,61.9,28.3,61.9,28.9,62 M12.9,67.2C12.8,67.2,12.8,67.2,12.9,67.2c-0.1,0-0.2-0.1-0.2-0.2c-0.1-0.3-0.1-0.7-0.2-1
		c0-0.1-0.1-0.1-0.2-0.2c0,0.1,0,0.2,0,0.2c0.1,0.3,0.2,0.6,0.2,0.9c0,0.1,0,0.3,0.1,0.5c0.2,0.3,0.7,0.5,1.1,0.3
		c0.1,0,0.2-0.1,0.3-0.1c0.3,0,0.7,0,1,0.1c0,0,0.1,0,0.1,0c0,0,0-0.1-0.1-0.1c-0.2-0.2-0.7-0.2-1-0.1c0,0-0.1,0-0.1,0
		C13.7,66.9,13.3,66.7,12.9,67.2 M58.5,67.1c0.1-0.1,0.2-0.1,0.2-0.2c0.1-0.2,0.1-0.5,0.1-0.7c0.1-0.4,0.2-0.8,0.3-1.1
		c0-0.1,0-0.3,0-0.5C59.1,64.8,59,64.9,59,65c0,0,0,0.1-0.1,0.2c-0.2,0.3-0.3,0.6-0.5,0.9c-0.2,0.3-0.3,0.7-0.6,1
		c-0.2,0.1,0,0.2,0.1,0.2C58,67.2,58.2,67.1,58.5,67.1 M21.3,73.2C21.3,73.2,21.3,73.2,21.3,73.2c0.2,0.2,0.4,0.4,0.7,0.4
		c0.1,0,0.3,0,0.4-0.1c0,0.1-0.1,0.3-0.1,0.4c0,0,0,0,0,0.1c0,0.1,0,0.2,0,0.2c0.1,0,0.1,0,0.2,0c0.1-0.1,0.2-0.2,0.3-0.3
		c0.2-0.2,0.4-0.4,0.5-0.6c0.1-0.1,0.1-0.2,0.1-0.4c-0.1,0-0.3-0.2-0.4-0.1c-0.3,0.1-0.7,0.3-1,0.5c-0.2,0.1-0.3,0.1-0.4,0
		C21.6,73.1,21.5,73.2,21.3,73.2 M32.6,62.9c-0.5,0-1-0.1-1.5-0.1c-0.4,0-0.9-0.1-1.3-0.1c-0.6,0-1.2,0-1.8-0.1
		c-0.1,0-0.2,0-0.3,0.1c0.1,0.1,0.2,0.1,0.3,0.2c0.1,0,0.2,0,0.3,0c0.3,0,0.6,0,1,0c0.7,0,1.3,0.1,2,0.2c0.1,0,0.3-0.1,0.4-0.1
		c0.5,0,1.1,0.1,1.6,0.1c0,0,0.1,0,0.1,0c0,0-0.1-0.1-0.1-0.1C33,62.9,32.8,62.9,32.6,62.9 M20.3,65.3c0,0.1,0.1,0.2,0.1,0.2
		c0.1,0.1,0.2,0.2,0.3,0.2c0.3,0,0.6,0.1,0.7-0.2c0,0,0.1-0.1,0.1-0.1c0.3,0,0.2-0.1,0.1-0.2c0-0.1-0.1-0.2-0.1-0.3
		c-0.1-0.3-0.6-0.5-0.8-0.3c-0.3,0.2-0.6,0.5-1,0.3c0,0-0.1,0-0.1,0.1c0,0,0,0.1,0.1,0.1C19.9,65.1,20.1,65.2,20.3,65.3 M23.8,66.4
		c0.2,0,0.4,0,0.5,0c0.5,0,1,0.1,1.5,0.1c0.1,0,0.2-0.1,0.2-0.1c-0.1,0-0.2-0.1-0.2-0.1c-0.3-0.1-0.5-0.1-0.8-0.2
		c-0.2,0-0.4-0.2-0.5-0.1c-0.4,0.2-0.8,0.1-1.2,0.1c-0.1,0-0.2,0.1-0.2,0.1c0.1,0,0.2,0.1,0.2,0.1C23.4,66.4,23.6,66.4,23.8,66.4
		 M20.2,56.2c-0.3-0.1-0.4,0-0.5,0.3c-0.1,0.6-0.2,1.1-0.2,1.7c0,0.1-0.1,0.2,0.1,0.2c0.2,0,0.2,0,0.2-0.2c0-0.3,0-0.6,0-0.8
		c0-0.7,0-0.7,0.7-0.7c0.1,0,0.2,0,0.2-0.2c0-0.2-0.1-0.2-0.2-0.2C20.4,56.3,20.3,56.3,20.2,56.2 M25.2,57.7
		c0.1,0.2,0.1,0.5,0.2,0.7c0.1,0.1,0.2,0.3,0.3,0.4c0-0.1,0-0.3-0.1-0.4c0-0.4-0.3-0.8-0.2-1.2c0.1-0.1,0.1-0.3,0.1-0.5
		c0-0.3-0.2-0.3-0.4-0.3c-0.2,0-0.2,0.2-0.2,0.3C25.1,57.1,25.2,57.4,25.2,57.7 M12,57.9c0.1,0,0.2,0.1,0.3,0.1
		c0.2,0.1,0.4,0.1,0.6,0.1c0.1,0,0.2,0,0.3,0c0.3-0.1,0.5-0.2,0.7,0c0.2,0.1,0.5,0.3,0.7-0.1c0,0,0.1,0,0.1,0c0.4,0,0.9,0.1,1.3,0.1
		c0.1,0,0.1,0,0.2,0c-0.1,0-0.1-0.1-0.2-0.1c-0.3,0-0.6-0.1-0.8-0.1c-0.3,0-0.6,0-0.8,0c-0.4,0-0.7,0-1.1-0.1
		C12.8,57.9,12.4,57.8,12,57.9 M30.5,65.7c0.2-0.3,0.1-0.6,0.1-0.9c0,0-0.1-0.1-0.2-0.1c0,0-0.1,0.1-0.1,0.1
		c-0.1,0.6-0.1,1.3-0.2,1.9c0,0.1,0,0.3,0.1,0.3c0.2,0,0.3,0,0.5,0c0,0,0-0.1,0-0.1c-0.3,0-0.2-0.2-0.2-0.4
		C30.5,66.2,30.5,66,30.5,65.7 M23.3,60c0,0.1-0.1,0.1-0.1,0.2c0,0.2,0,0.5-0.1,0.7c-0.1,0.3,0,0.4,0.2,0.6c0.5,0.3,1.1,0.1,1.7,0.2
		c0,0,0.1,0,0.1-0.1c0,0-0.1-0.1-0.1-0.1c-0.1,0-0.1,0-0.2,0c-0.4-0.1-0.8-0.1-1.3-0.2c-0.1,0-0.2-0.1-0.2-0.2c0-0.2,0-0.5,0-0.7
		c0-0.3,0-0.7,0-1c0,0,0-0.1,0-0.1c0,0-0.1,0.1-0.1,0.1C23.4,59.6,23.4,59.8,23.3,60 M44.7,68.2c-0.1,0.2-0.2,0.3-0.4,0.2
		c-0.1,0-0.2,0-0.4,0c-0.1,0-0.2,0.1-0.2,0.1c0,0.2,0,0.3,0,0.5c0,0,0.1,0,0.1,0c0.2,0,0.3-0.1,0.5-0.1c0.1,0,0.3,0,0.4,0
		c0.1,0,0.1-0.2,0.1-0.4c0.1-0.2,0.1-0.4,0.2-0.6c0-0.1,0-0.2,0-0.2c-0.1,0-0.2,0-0.2,0.1C44.8,67.9,44.8,68,44.7,68.2 M53.4,73.9
		c0.2,0,0.3,0.2,0.6,0.1c0.5-0.1,1-0.1,1.5-0.1c0.1,0,0.3-0.1,0.4-0.1c0,0,0-0.1,0-0.1c-0.2,0-0.4-0.1-0.6,0.1
		c-0.1,0.1-0.1,0.1-0.1,0c0-0.2-0.1-0.1-0.2-0.1c-0.6,0-1.1,0.1-1.7,0.1c-0.1,0-0.2,0.1-0.3,0.1c0.1,0,0.2,0,0.2,0
		C53.3,73.8,53.3,73.8,53.4,73.9 M14.7,64.7c-0.1-0.1-0.2-0.2-0.4-0.1c0,0-0.2,0-0.2-0.1c0-0.1,0-0.2,0-0.3c0-0.5,0-0.5-0.5-0.6
		c-0.1,0-0.1,0-0.2,0c0,0.1,0.1,0.1,0.1,0.2c0.1,0.1,0.2,0.2,0.3,0.2c0,0.4,0.1,0.8,0.1,1.2c0,0.1,0,0.1,0,0.2c0,0,0.1,0.1,0.2,0.1
		c0,0,0-0.1,0-0.1c-0.1-0.3,0.1-0.4,0.4-0.3c0.2,0,0.4,0.1,0.5,0.1c0.1,0,0.2-0.1,0.3-0.1c-0.1,0-0.2-0.1-0.2-0.1
		C14.9,64.7,14.8,64.7,14.7,64.7 M47.5,70c-0.1,0-0.2,0-0.3,0c-0.1,0-0.4,0.3-0.3-0.1c0,0-0.1-0.1-0.2-0.1c-0.3,0-0.6,0.1-1,0.2
		c0,0-0.1,0.1-0.1,0.1c0.1,0,0.1,0,0.2,0c0.2,0,0.5-0.1,0.6,0.1c0.3,0.3,0.7,0.3,1.1,0.3c0.1,0,0.3-0.1,0.3-0.2
		C47.9,70.1,47.7,70.1,47.5,70 M16.6,64.7c0,0.1,0.1,0.2,0.1,0.3c0,0.3,0.1,0.5,0.4,0.5c0.3,0.1,0.9-0.4,0.9-0.7
		c0-0.1-0.6-0.5-0.6-0.5c-0.2,0.1-0.5,0.2-0.7,0.3C16.6,64.5,16.6,64.6,16.6,64.7 M25.1,65.4c-0.6,0-1.1-0.1-1.7-0.1
		c-0.1,0-0.2,0.1-0.3,0.1c0.1,0,0.2,0.1,0.3,0.1c0.2,0,0.4,0,0.6,0c0.6,0.1,1.2,0.2,1.9,0.2c0.1,0,0.1-0.1,0.2-0.1
		c0,0-0.1-0.1-0.1-0.1C25.6,65.4,25.4,65.4,25.1,65.4 M17.6,63.5c-0.1,0-0.2,0-0.4,0c-0.3,0-0.6-0.1-0.9-0.1c-0.1,0-0.1,0.1-0.2,0.1
		c0,0,0.1,0.1,0.1,0.1c0.4,0.1,0.7,0.2,1.1,0.1c0.1,0,0.3,0,0.4,0.1c0.3,0.3,0.7,0.2,1,0.3c0.1,0,0.2-0.1,0.2-0.2
		c-0.1-0.1-0.2-0.2-0.2-0.2C18.4,63.7,18.1,63.6,17.6,63.5 M15.8,61C15.8,61,15.8,60.9,15.8,61c-0.9-0.2-1.7-0.3-2.6-0.3
		c-0.1,0-0.3,0-0.5-0.1c-0.3,0-0.5,0-0.8-0.1c-0.1,0-0.1,0-0.2,0.1c0.1,0,0.1,0.1,0.2,0.1c0.3,0,0.6,0.1,0.8,0.1c0.2,0,0.5,0,0.7,0
		C14.3,60.9,15.1,61,15.8,61 M25.8,57.6c0,0.1,0,0.2,0,0.2c0.1,0,0.1-0.1,0.2-0.1c0.1-0.1,0.3-0.2,0.4-0.3c0.2-0.1,0.3-0.2,0.3-0.4
		c0-0.2-0.1-0.2-0.3-0.2c-0.1,0-0.1,0-0.2-0.1c-0.2-0.1-0.3,0-0.3,0.2C25.9,57,25.8,57.3,25.8,57.6 M27,58.4c0-0.1,0-0.1,0-0.2
		c0-0.1-0.1-0.1-0.1-0.2c0,0.1-0.1,0.1-0.1,0.2c0,0.1,0,0.3-0.1,0.4c-0.1,0.1-0.2,0.2-0.3,0.3c0-0.1-0.1-0.2-0.1-0.3
		c0-0.1,0-0.2,0-0.4c0-0.2,0-0.3,0-0.5c-0.2,0.1-0.1,0.3-0.2,0.5c-0.1,0.2,0.1,0.5-0.2,0.7c0,0,0.1,0.1,0.1,0.1c0.3,0,0.6,0,0.9,0
		c0,0,0.1-0.1,0.1-0.1C27.1,58.7,27.1,58.6,27,58.4 M43.2,70.6c-0.8,0-1.5,0-2.3,0.1c0,0,0,0,0,0c0,0-0.1,0-0.1,0c0,0,0.1,0,0.1,0
		c0.5,0,1,0.1,1.6,0.1c0.7,0,1.4,0,2.1,0c0.1,0,0.2-0.1,0.3-0.1c-0.1,0-0.2,0-0.3,0C44.1,70.7,43.7,70.6,43.2,70.6 M51.7,70.5
		c0,0-0.1,0-0.1,0c-0.9,0-1.7-0.1-2.6,0.1c-0.1,0-0.1,0-0.2,0c0.1,0,0.1,0.1,0.2,0.1c0.6,0,1.3,0,1.9,0c0.4,0,0.8,0,1.2-0.1
		c0,0,0.1,0,0.1,0c0.1,0,0.1-0.1,0.1-0.1c0,0-0.1,0-0.2,0C52.1,70.5,51.9,70.5,51.7,70.5 M39.1,68.5C38.9,68.8,39,69,39.3,69
		c0.2,0,0.5-0.2,0.5-0.4c0-0.3,0-0.6,0.1-0.8c0-0.1-0.1-0.2-0.1-0.3c0,0.1-0.1,0.2-0.1,0.3c0,0.2,0,0.4-0.1,0.6
		C39.5,68.5,39.3,68.5,39.1,68.5 M20.9,58.1c0-0.4,0-0.8-0.1-1.1c0-0.1,0-0.1,0-0.2c-0.1,0-0.1,0-0.2,0.1c-0.1,0.1-0.1,0.1-0.1,0.2
		c0,0.3,0,0.6-0.1,0.9c0,0.1,0,0.2,0,0.3c0,0.1,0.1,0.1,0.1,0.2C20.7,58.3,20.8,58.2,20.9,58.1 M55.3,70.2c-0.6,0.1-1.2,0.2-1.9,0.2
		c0,0-0.1,0-0.1,0.1c0,0,0.1,0,0.1,0c0.6,0,1.2-0.1,1.8-0.1c0.4,0,0.7,0,1.1-0.1c0,0,0.1,0,0.1-0.1c0,0-0.1-0.1-0.1-0.1
		C56,70.3,55.7,70.2,55.3,70.2 M49,70.4c0.3,0,0.5-0.1,0.8-0.1c0.1,0,0.1-0.1,0.2-0.1c-0.1,0-0.1-0.1-0.2-0.1c-0.2,0-0.4,0-0.6,0.1
		c-0.3,0-0.6,0-0.9,0c-0.1,0-0.2,0-0.2,0.1c0,0.1,0,0.2,0.1,0.2c0.1,0,0.2,0.1,0.2,0.1C48.6,70.4,48.8,70.4,49,70.4 M29.5,66.8
		C29.5,66.8,29.5,66.8,29.5,66.8C29.5,66.8,29.5,66.7,29.5,66.8c-0.3-0.1-0.6,0-0.5-0.5c0,0,0-0.1-0.1-0.1c-0.2,0-0.4,0-0.7,0
		c-0.1,0-0.2,0.2-0.2,0.3c0.1,0.2,0,0.1-0.1,0.2c-0.1,0-0.1,0-0.2,0.1c0.1,0,0.1,0.1,0.2,0.1c0.1,0,0.3,0,0.4,0
		C28.7,66.8,29.1,66.8,29.5,66.8 M14,66.4c-0.2,0-0.5,0-0.7-0.1c-0.1,0-0.2,0.1-0.3,0.1c0.1,0.1,0.2,0.1,0.3,0.2
		c0.5,0.1,1,0.1,1.5,0.2c0.1,0,0.3,0.1,0.2-0.1c0-0.1-0.2-0.1-0.3-0.2C14.5,66.5,14.3,66.5,14,66.4 M13.6,58.5c0,0,0-0.1,0.1-0.1
		c-0.2,0-0.3,0-0.5-0.1c-0.1,0-0.3,0-0.4,0c-0.4,0-0.8-0.1-1.2-0.1c0,0-0.1,0-0.1,0c0,0,0,0.1,0.1,0.1c0.1,0,0.1,0.1,0.2,0.1
		c0.3,0.1,0.6,0.1,0.8,0.2c0.1,0,0.2,0.1,0.2,0.1C13,58.4,13.4,58.7,13.6,58.5 M49.2,68.7c-0.3,0.1-0.6,0.2-0.9,0.3
		c0,0-0.1,0.1-0.1,0.1c0,0,0,0,0.1,0.1c0.1-0.2,0.5,0.3,0.5-0.2c0,0,0.2-0.1,0.2,0c0.4,0.3,0.8,0.1,1.2,0c0.1,0,0.1-0.1,0.2-0.1
		c-0.1-0.1-0.1-0.1-0.2-0.2c-0.1,0-0.2,0-0.4,0.1C49.7,68.7,49.5,68.7,49.2,68.7 M50,73.8c-0.1-0.2-0.5-0.4-0.7-0.3
		c-0.1,0.1-0.3,0.2-0.4,0.1c-0.3-0.2-0.6-0.1-0.9,0c0,0-0.1,0-0.1,0c0,0,0.1,0,0.1,0c0.3,0.1,0.6,0.2,0.8,0.2c0.1,0,0.3,0.1,0.4,0
		c0.2-0.1,0.4-0.1,0.6,0C49.8,73.8,49.9,73.8,50,73.8 M19.6,56.4c0-0.1-0.1-0.2-0.1-0.2c-0.3,0-0.6,0-0.9,0c-0.1,0-0.1,0.2-0.2,0.3
		c0,0,0.1,0.1,0.1,0.1c0.3,0,0.6,0,0.9,0C19.4,56.6,19.5,56.4,19.6,56.4 M21.1,62.9c0,0-0.1-0.1-0.1-0.1c-0.4,0-0.8-0.1-1.2-0.1
		c-0.1,0-0.2,0-0.3,0.1c-0.1,0-0.1,0-0.2,0.1c0,0,0.1,0.1,0.1,0.1c0.4,0.1,0.8,0.1,1.3,0.2C20.9,63,21,62.9,21.1,62.9 M16.8,56.4
		c0-0.1,0.1-0.2,0.1-0.3c0-0.1-0.1-0.1-0.2-0.1c-0.2,0-0.4,0-0.6,0c-0.1,0-0.2,0.1-0.2,0.2c0,0,0.1,0.2,0.1,0.2
		C16.2,56.4,16.5,56.4,16.8,56.4 M29.3,64.8c-0.4,0-0.8,0-1.1-0.1c-0.1,0-0.3,0-0.4,0c0,0-0.1,0.1-0.1,0.1c0,0,0.1,0.1,0.1,0.1
		c0.7,0.1,1.4,0.1,2.1,0.2c0,0,0.1,0,0.1,0c0,0-0.1-0.1-0.1-0.1C29.6,64.9,29.5,64.9,29.3,64.8 M51.2,74.1c0.4,0,0.8,0,1.3,0.1
		c0,0,0.1-0.1,0.1-0.2c-0.1,0-0.2-0.1-0.2-0.1c-0.4,0-0.7,0-1.1,0c-0.2,0-0.3-0.1-0.5-0.1c0,0-0.1,0-0.1,0c0,0,0,0.1,0.1,0.1
		C50.8,74,51,74,51.2,74.1 M14.3,61.7c-0.1,0-0.1,0-0.2,0c-0.1,0-0.2,0-0.3,0c0.1,0.1,0.2,0.2,0.3,0.2c0.5,0.1,1,0.1,1.5,0.1
		c0.1,0,0.2-0.1,0.2-0.1c-0.1,0-0.2-0.1-0.2-0.1C15.1,61.8,14.7,61.7,14.3,61.7 M17.5,56.5c0.2,0,0.3,0,0.5,0c0.1,0,0.2,0,0.2-0.2
		c0-0.2-0.1-0.3-0.2-0.2c-0.2,0-0.3,0-0.5,0c-0.2,0-0.3,0-0.3,0.2C17.1,56.5,17.3,56.4,17.5,56.5 M38.7,68.8c0-0.1,0-0.2,0-0.3
		c0.2-0.2,0.3-0.6,0.1-0.8c0,0-0.1-0.1-0.1-0.1c0,0.1-0.1,0.1-0.1,0.2c0,0.3-0.1,0.6-0.3,0.8c-0.1,0.1,0,0.3,0,0.4
		C38.4,68.9,38.5,68.9,38.7,68.8 M39.2,66.5c0-0.1,0.1-0.1,0.1-0.2c0.1-0.1,0.1-0.3,0.2-0.4c-0.1,0-0.3-0.1-0.4-0.1
		c-0.2,0-0.2,0.1-0.1,0.2c0.2,0.2,0.1,0.4,0,0.6c0,0.1,0,0.2,0,0.3c0.1,0,0.2-0.1,0.2-0.1C39.2,66.8,39.2,66.7,39.2,66.5 M16.4,59.1
		c0,0.3,0.1,0.3,0.3,0.3c0.1,0,0.1-0.2,0.1-0.3c0-0.1-0.1-0.1-0.1-0.2c0-0.1-0.2-0.4,0.2-0.3c0,0,0.1-0.1,0.1-0.1c0,0,0,0,0,0
		c-0.1,0-0.3-0.1-0.4-0.1c-0.1,0-0.2,0.1-0.2,0.2C16.4,58.6,16.4,58.8,16.4,59.1 M72.4,70.9c0,0,0.1,0.1,0.1,0.1
		c0.1,0.1,0.1,0.1,0.2,0.2c0-0.1,0.1-0.2,0.1-0.3c0-0.3,0-0.6,0.1-0.9c0-0.1-0.1-0.1-0.1-0.2c-0.1,0.1-0.1,0.1-0.1,0.2
		c0,0,0,0.1,0,0.1c0,0.3-0.1,0.6-0.3,0.7C72.3,70.9,72.3,70.9,72.4,70.9 M62.7,73.2c-0.6,0-1.1,0-1.7,0c-0.1,0-0.1,0-0.2,0.1
		c0.1,0,0.1,0.1,0.2,0.1c0.1,0,0.3,0,0.4-0.1c0.4,0,0.9,0,1.3,0c0.1,0,0.2-0.1,0.3-0.1C62.9,73.2,62.8,73.2,62.7,73.2 M19.7,62
		c0.2,0,0.3,0,0.5,0.1c0.1,0,0.2,0.1,0.2,0.1c0,0.1-0.1,0.2,0.1,0.3c0.1,0,0.2,0,0.4,0c0,0,0.1-0.1,0.1-0.2c0,0-0.1-0.1-0.1-0.1
		c-0.1,0-0.2,0-0.2,0c-0.1-0.2-0.2-0.3-0.4-0.3C20,61.9,19.8,61.9,19.7,62 M33.7,67c-0.1,0-0.2,0-0.3,0c-0.1,0-0.2,0.1-0.2,0.1
		c0.1,0,0.1,0.1,0.2,0.1c0.3,0,0.5,0,0.8,0.1c0.2,0,0.4,0.1,0.6,0.1c0.1,0,0.2-0.1,0.2-0.1c-0.1,0-0.1-0.1-0.2-0.1
		C34.5,67.1,34.1,67,33.7,67 M22.2,63c0.1,0,0.2,0.1,0.3,0.1c0.1,0,0.1-0.1,0.1-0.1c-0.1-0.1-0.2-0.2-0.4-0.3
		c-0.2-0.1-0.3-0.1-0.5-0.1c0,0-0.1,0-0.1,0c0,0,0,0.1,0,0.1C21.8,62.9,21.9,62.9,22.2,63 M61.7,69.8c-0.4,0-0.8,0.1-1.2,0.1
		c-0.1,0-0.2,0.1-0.4,0.1c0.1,0,0.3,0.1,0.4,0.1c0.4,0,0.8-0.1,1.2-0.2c0.1,0,0.2-0.1,0.4-0.1C62.1,69.8,61.9,69.8,61.7,69.8
		 M12.1,61.7c0,0.1-0.1,0.1-0.1,0.2c0.1,0,0.1,0.1,0.2,0.1c0.1,0,0.2-0.1,0.2-0.1c-0.1-0.4,0.2-0.2,0.4-0.2c0,0,0.1,0,0.1,0
		c0,0,0.1,0,0.1-0.1c0,0-0.1-0.1-0.1-0.1c-0.2,0-0.5,0-0.7-0.1c-0.1,0-0.1,0-0.2,0C12,61.6,12,61.6,12.1,61.7 M36.3,68.3
		c0-0.3,0.1-0.5,0.1-0.8c0-0.1-0.1-0.2-0.1-0.2c0,0.1-0.1,0.1-0.1,0.2c-0.1,0.3-0.1,0.6-0.1,0.8c0,0.1,0,0.2,0,0.3
		c0-0.1,0.1-0.2,0.1-0.3C36.3,68.4,36.3,68.4,36.3,68.3 M41.8,67.8c-0.1-0.1-0.2-0.1-0.3-0.2c0,0.1,0,0.2,0,0.3
		c0.1,0.2,0.2,0.4,0.3,0.7c0,0,0,0,0.1,0.1c0,0,0,0,0-0.1C41.9,68.4,41.9,68.1,41.8,67.8 M63.2,70.7c0.1,0.1,0,0.3,0.3,0.3
		c0.2,0,0.3-0.1,0.2-0.3c0-0.1-0.1-0.2-0.2-0.3C63.4,70.4,63.3,70.6,63.2,70.7 M13.2,61.3C13.2,61.3,13.3,61.3,13.2,61.3
		c0.5,0.1,1,0.1,1.4,0.1c0,0,0,0,0.1-0.1c0,0-0.1,0-0.1-0.1c-0.2,0-0.4-0.1-0.6-0.1C13.8,61.2,13.5,61.2,13.2,61.3 M35.7,63.2
		c0,0-0.1-0.1-0.1-0.1c-0.5,0-1.1-0.1-1.6-0.1c0,0-0.1,0-0.1,0.1c0,0,0.1,0,0.1,0C34.6,63.2,35.1,63.2,35.7,63.2 M25.1,59
		c-0.1,0-0.1-0.1-0.2-0.1c0,0-0.1,0-0.2,0c0,0.3-0.3,0.3-0.5,0.3c0,0-0.1,0.1-0.1,0.1c0,0,0.1,0,0.1,0c0.1,0,0.3,0,0.4-0.1
		c0.1,0,0.2,0,0.4,0c0.1,0,0.2,0.1,0.2,0.1c0-0.1,0-0.2-0.1-0.3C25.2,59.1,25.1,59.1,25.1,59 M58.9,73.3c-0.2,0-0.4,0-0.6,0
		c-0.2,0-0.2,0.1-0.1,0.2c0.1,0.1,0.1,0.2,0.3,0.1c0.1-0.1,0.3-0.1,0.5-0.1c0.1,0,0.1,0,0.2-0.1C59,73.4,59,73.4,58.9,73.3
		 M42.1,65.5c0,0.1,0.1,0.2,0.1,0.3c0.1,0.1,0.3,0.1,0.4,0.1c0.1,0,0.1-0.1,0.2-0.2c-0.1-0.1-0.1-0.2-0.2-0.2
		C42.6,65.5,42.4,65.5,42.1,65.5 M59.8,66.5c0.1,0,0.2-0.1,0.2-0.1c0-0.2,0-0.5-0.1-0.7c-0.1,0-0.2,0-0.2,0
		C59.8,66,59.6,66.2,59.8,66.5 M11.5,55.8c-0.2,0-0.4,0-0.6,0c-0.1,0-0.1,0.1-0.2,0.2c0.2,0,0.4,0.1,0.6,0.1
		C11.4,56.1,11.4,56,11.5,55.8 M40.8,65.4c-0.1,0-0.2,0.1-0.3,0.1c0,0,0,0.1,0,0.2c0.2,0.1,0.4,0.2,0.6,0c0.1-0.1,0.1-0.1,0.2-0.2
		c-0.1,0-0.2,0-0.2-0.1C41,65.5,41,65.4,40.8,65.4 M13,64.5c0-0.3-0.1-0.3-0.3-0.2c-0.1,0-0.1,0-0.2,0c0,0-0.1,0-0.1,0.1
		c0,0.1,0.1,0.3,0.2,0.3C12.7,64.8,12.9,64.8,13,64.5 M65.5,72.9c-0.4-0.3-0.5-0.3-0.8,0c-0.1,0.1-0.1,0.1-0.2,0.2
		c0.1,0,0.3,0,0.3,0c0.1-0.3,0.3-0.2,0.5-0.1C65.3,73,65.4,73,65.5,72.9 M24.1,57.9c-0.1,0-0.1,0-0.2,0c0,0,0.1,0.1,0.1,0.1
		c0.3,0.1,0.5,0.1,0.8,0.2c0.1,0,0.1,0,0.2,0C25,58.1,25,58,24.9,58C24.6,58,24.4,57.9,24.1,57.9 M59.5,66.9c0.1,0,0.3,0,0.4-0.1
		c0,0,0.1,0,0.1,0c0,0-0.1-0.1-0.1-0.1c-0.3-0.2-0.6,0-0.9,0.1c0,0-0.1,0.1-0.1,0.1c0.1,0,0.1,0.1,0.2,0.1
		C59.2,67,59.3,66.9,59.5,66.9 M57.4,71.2c-0.1-0.1,0-0.4-0.3-0.3c-0.1,0-0.1,0.2,0,0.3c0.1,0.1,0.2,0.2,0.3,0.2
		C57.4,71.4,57.4,71.3,57.4,71.2 M22.7,58.8c0.1,0,0.1,0,0.2,0.1c0.2,0.1,0.3,0.1,0.4,0c0.2-0.1,0-0.1,0-0.1c-0.2,0-0.4-0.1-0.6-0.1
		C22.5,58.5,22.6,58.6,22.7,58.8 M37.4,65.3c0,0.1-0.1,0.2-0.1,0.3c0.1,0,0.2,0,0.2,0c0.1,0,0.2,0,0.2,0c0.1,0,0.2-0.1,0.3-0.1
		c-0.1,0-0.2-0.1-0.3-0.1C37.7,65.3,37.6,65.3,37.4,65.3 M13.9,63.2c-0.3,0-0.7-0.1-1-0.1c0,0-0.1,0-0.1,0c0,0,0.1,0.1,0.1,0.1
		c0.3,0.1,0.7,0.1,1,0.2c0,0,0.1,0,0.2,0C14,63.2,14,63.2,13.9,63.2 M71.3,69c0,0-0.1-0.1-0.1-0.1c-0.3,0-0.6,0.1-1,0.1c0,0,0,0,0,0
		c0,0,0.1,0,0.1,0C70.6,69.1,71,69.1,71.3,69 M44.3,67.3c-0.1,0-0.2,0-0.2,0c-0.1,0-0.2,0.1-0.3,0.2c0.1,0,0.1,0.1,0.2,0.1
		c0.1,0,0.2,0,0.3,0c0.1,0,0.1-0.1,0.1-0.1C44.5,67.4,44.4,67.4,44.3,67.3 M18.4,59.9C18.4,59.9,18.3,59.9,18.4,59.9
		c0.1,0.4,0.3,0.6,0.7,0.3c0,0,0.1-0.1,0.1-0.1c0,0-0.1,0-0.1,0C18.8,60.2,18.6,60.1,18.4,59.9 M25.7,64.4c0.1,0,0.2,0,0.3,0
		C25.9,64.4,25.8,64.4,25.7,64.4c-0.1-0.1-0.2-0.1-0.3-0.2c-0.1,0-0.1-0.1-0.2-0.1c0,0.1,0,0.2,0,0.3c0,0.1,0,0.1,0,0.2
		c0,0.1,0,0.1,0.1,0.2c0-0.1,0-0.1,0.1-0.1C25.5,64.5,25.5,64.5,25.7,64.4 M35.8,67.5c-0.1-0.1-0.2-0.2-0.3,0
		c-0.1,0.2,0,0.2,0.1,0.2c0,0,0.1,0.1,0.1,0.1c0,0.1,0.1,0.1,0.1,0.2c0-0.1,0.1-0.2,0.1-0.2C35.8,67.6,35.8,67.6,35.8,67.5 M59,70.2
		C59,70.1,59,70.1,59,70.2C59,70.1,59,70.1,59,70.2c-0.3,0-0.5,0-0.8,0c-0.2,0-0.3,0-0.5,0c0,0-0.1,0.1-0.1,0.1c0,0,0.1,0.1,0.1,0.1
		C58.1,70.2,58.5,70.2,59,70.2 M24.4,60.2c-0.2,0-0.3,0-0.5-0.1c0,0-0.1,0-0.2,0.1c0,0,0.1,0.1,0.1,0.1c0.1,0,0.2,0.1,0.2,0.1
		c0.1,0,0.2,0,0.3,0c0.1,0,0.2,0,0.2-0.1C24.6,60.3,24.6,60.3,24.4,60.2 M42.7,66.4c0-0.3-0.2-0.2-0.4-0.2c-0.1,0-0.1,0.1-0.2,0.1
		c0.1,0,0.2,0.1,0.4,0.1C42.6,66.5,42.7,66.4,42.7,66.4 M22.5,60.2c-0.1-0.2-0.2-0.3-0.2-0.5c0,0.2,0,0.3,0,0.5c0,0,0,0.1,0.1,0.1
		C22.5,60.5,22.5,60.4,22.5,60.2 M42.8,73.5c-0.1,0-0.1,0-0.2,0.1c0,0,0.1,0.1,0.1,0.1c0.3,0,0.6,0,0.9,0c0,0,0-0.1,0.1-0.1
		c0,0-0.1,0-0.1,0C43.3,73.5,43.1,73.5,42.8,73.5 M41.1,65.2c0.1-0.1,0.3-0.1,0.1-0.3c-0.1-0.1-0.3,0-0.4,0c0,0,0,0.1,0,0.2
		C40.9,65.1,41,65.2,41.1,65.2 M24.6,63.5C24.6,63.5,24.5,63.6,24.6,63.5c0,0.2,0.4,0.4,0.6,0.3c0,0,0-0.1,0.1-0.1
		c0,0-0.1,0-0.1-0.1C25,63.6,24.8,63.6,24.6,63.5 M24.5,62.4c0.1,0,0.1,0,0.2,0c0.1,0,0.2,0,0.2-0.1c0,0,0-0.1,0-0.1
		c-0.1,0-0.1,0-0.2,0c-0.1,0-0.2,0-0.3,0.1c-0.1,0-0.2,0-0.3,0C24.2,62.3,24.3,62.4,24.5,62.4 M11.3,60.1c0-0.1-0.1-0.1-0.1-0.2
		c0,0.1,0,0.2,0,0.2c0,0.1,0,0.2,0,0.3c0,0,0.1,0.1,0.1,0.1c0,0,0.1-0.1,0.1-0.1C11.4,60.3,11.3,60.2,11.3,60.1 M21.3,59.7
		C21.2,59.7,21.2,59.7,21.3,59.7c-0.1,0.1-0.2,0.2-0.1,0.3c0,0.1,0.1,0.2,0.1,0.2c0,0,0.1,0,0.1,0c0-0.1,0.1-0.2,0.1-0.2
		C21.4,59.9,21.3,59.9,21.3,59.7 M53.5,71.3C53.4,71.2,53.4,71.2,53.5,71.3c-0.2-0.1-0.4-0.1-0.4-0.1c-0.2,0.2,0.2,0,0.2,0.2
		c0,0,0.1,0.1,0.2,0.1C53.5,71.5,53.5,71.5,53.5,71.3 M30.3,60.6c0,0,0-0.1,0-0.1C30.3,60.5,30.2,60.6,30.3,60.6
		c-0.1,0.1-0.1,0.2-0.1,0.3c0,0,0.1,0.1,0.1,0.1c0.1-0.1,0.3-0.2,0.4-0.2c-0.1,0-0.1-0.1-0.2-0.1C30.4,60.7,30.4,60.7,30.3,60.6
		 M26.7,67.2c-0.2,0-0.4,0-0.6-0.1c0,0,0,0-0.1,0c0,0,0,0.1,0.1,0.1c0.2,0,0.4,0,0.7,0.1C26.7,67.3,26.7,67.3,26.7,67.2 M31.2,64.8
		C31.2,64.8,31.1,64.7,31.2,64.8c-0.2-0.1-0.3,0-0.3,0c0.1,0,0.1,0.1,0.2,0.1c0.1,0,0.2,0.1,0.3,0.1c0.1,0,0.1,0,0.2,0
		c-0.1,0-0.1-0.1-0.2-0.1C31.4,64.8,31.3,64.8,31.2,64.8 M39.4,65.7c0.1,0,0.2-0.1,0.3-0.1c-0.1,0-0.2-0.1-0.3-0.1c0,0,0,0-0.1,0
		c-0.1,0-0.2,0.1-0.3,0.1C39.1,65.6,39.2,65.6,39.4,65.7 M27.2,62.8c0-0.1,0-0.2-0.1-0.2c0-0.1,0-0.2,0-0.3c0,0.1-0.1,0.2-0.1,0.3
		c0,0.1,0,0.2,0,0.2C27.1,62.9,27.1,62.9,27.2,62.8 M41.1,66.3c0-0.2-0.2-0.2-0.3-0.2c0,0-0.1,0.1-0.2,0.1c0.1,0,0.1,0.1,0.2,0.1
		C40.9,66.3,41,66.3,41.1,66.3 M27,57.8C27,57.7,27,57.7,27,57.8c0-0.2,0-0.3,0-0.4c0,0-0.1,0.1-0.1,0.1c0,0.1,0,0.3,0,0.4
		C27,57.8,27,57.8,27,57.8 M36.9,71.5c0.1-0.2,0-0.2-0.2-0.3c0,0-0.1,0.1-0.1,0.1C36.6,71.5,36.7,71.6,36.9,71.5 M23.4,32
		c0.1,0,0.2,0,0.3,0.1c0-0.1-0.1-0.2-0.1-0.3c0,0-0.1,0-0.1,0C23.4,31.8,23.4,31.9,23.4,32 M59.9,73.4c-0.1,0-0.3,0-0.4,0
		c0,0-0.1,0.1-0.1,0.1c0,0,0,0.1,0,0.1C59.5,73.6,59.9,73.5,59.9,73.4 M65.2,64.9C65.1,65,65.1,65,65,65c0,0-0.1,0-0.1,0.1
		c0,0,0,0.1,0.1,0.1c0.1,0,0.2,0,0.3,0C65.3,65.1,65.2,65,65.2,64.9 M33.1,73.3c-0.1,0-0.2,0-0.2,0.1c0,0,0,0.1,0,0.2
		c0.1,0,0.2-0.1,0.4-0.1C33.2,73.4,33.2,73.4,33.1,73.3 M29.5,61.2c0-0.1,0-0.3,0.1-0.4c0,0,0,0,0-0.1c0,0-0.1,0-0.1,0.1
		c0,0.2,0,0.3-0.1,0.5c0,0,0,0.1,0.1,0.1C29.5,61.4,29.5,61.3,29.5,61.2 M59.8,64.8c0,0.1,0,0.2,0,0.4c0,0,0.1,0,0.1,0
		c0-0.1,0.1-0.2,0.1-0.3C60,64.8,59.9,64.8,59.8,64.8 M42.7,62.4c-0.1,0-0.2,0-0.3,0.1c0,0,0.1,0.1,0.1,0.1c0.1-0.1,0.2-0.2,0.3-0.3
		c0,0,0,0-0.1-0.1C42.8,62.3,42.7,62.3,42.7,62.4 M19.9,59.4c0,0.1,0,0.2,0,0.3c0,0,0.1,0,0.1,0c0-0.1,0.1-0.2,0.1-0.3
		C20.1,59.4,20,59.4,19.9,59.4 M38.8,67.3c0.2,0,0.3,0,0.5,0.1c0,0,0-0.1,0-0.1C39.1,67.3,39,67.3,38.8,67.3
		C38.8,67.3,38.8,67.3,38.8,67.3 M40.5,67.4c0.1,0,0.2,0,0.4,0.1c0,0,0.1-0.1,0.1-0.1C40.8,67.2,40.6,67.2,40.5,67.4 M65.2,65.8
		c0,0.1,0,0.1,0,0.2c0,0,0.1,0,0.1,0c0-0.1,0-0.3,0-0.4c0,0,0,0,0-0.1C65.3,65.6,65.2,65.7,65.2,65.8 M20.5,60
		c0,0.1,0.1,0.1,0.1,0.2c0,0,0.1-0.1,0.1-0.1c0-0.1,0-0.2-0.1-0.3C20.6,59.8,20.6,59.9,20.5,60 M17.4,61.6c-0.1,0-0.1-0.1-0.2-0.1
		c-0.1,0-0.3,0-0.4,0c-0.1,0-0.2,0-0.2,0c0.1,0,0.1,0,0.2,0C17,61.6,17.2,61.6,17.4,61.6 M22.3,66.7c0,0.1,0.1,0.2,0.1,0.3
		c0.1,0,0.1-0.1,0.2-0.1C22.5,66.9,22.4,66.8,22.3,66.7 M33.2,62.1C33.2,62.1,33.2,62.1,33.2,62.1c0,0.1,0,0.2,0.1,0.2
		c0.1,0,0.2-0.1,0.3-0.1c-0.1,0-0.1-0.1-0.2-0.1C33.4,62.1,33.3,62.1,33.2,62.1 M32.4,67c-0.1,0-0.2,0-0.2,0.1
		c0.1,0,0.2,0.1,0.3,0.1c0.1,0,0.2,0,0.3,0C32.7,67,32.6,67,32.4,67 M42.6,63.6c-0.1,0-0.1-0.1-0.2-0.1c0,0.1,0,0.2,0,0.2
		c0,0,0.1,0,0.2,0.1C42.6,63.8,42.6,63.7,42.6,63.6 M13.4,62.1c0,0,0.1,0,0.1,0C13.5,62,13.5,62,13.4,62.1c0-0.1,0-0.1-0.1-0.1
		c-0.2,0-0.3,0-0.5,0C13,62,13.1,62.1,13.4,62.1 M57.3,70c-0.2,0-0.3,0-0.5,0c0,0,0,0,0,0.1C57,70,57.1,70,57.3,70
		C57.3,70,57.3,70,57.3,70 M20.1,68.6c-0.1,0-0.2,0-0.3,0c0,0,0,0,0,0.1c0.1,0,0.2,0.1,0.2,0.1c0,0,0.1,0,0.1,0c0.1,0,0.1,0,0.2,0
		C20.3,68.7,20.2,68.6,20.1,68.6 M18.8,68.5C18.8,68.5,18.9,68.5,18.8,68.5c0.2,0.1,0.3,0.1,0.4,0.1c0,0,0-0.1,0-0.1
		c-0.1,0-0.2-0.1-0.3-0.1C18.9,68.4,18.8,68.4,18.8,68.5 M70,64.6c0.1,0,0.1,0,0.2,0c0-0.1,0-0.2-0.1-0.2c-0.1,0-0.2,0-0.3,0
		C69.9,64.5,69.9,64.5,70,64.6 M41.5,68.3c-0.1,0-0.2,0-0.3,0c0,0,0,0.1,0,0.1C41.2,68.4,41.3,68.4,41.5,68.3
		C41.4,68.3,41.4,68.3,41.5,68.3 M22.3,68.2c0,0,0.1-0.1,0.1-0.1c-0.1-0.1-0.2-0.1-0.2-0.2c0,0.1,0,0.1,0,0.2
		C22.2,68.1,22.3,68.1,22.3,68.2 M37.9,65.8c-0.1,0-0.2,0.1-0.3,0.1c0,0.1,0.1,0.1,0.1,0.2C37.8,66,37.9,65.9,37.9,65.8
		C37.9,65.8,37.9,65.8,37.9,65.8 M69.9,71.9c0,0.1,0.1,0.1,0.1,0.2c0-0.1,0.1-0.1,0.1-0.2c0,0,0-0.1,0-0.1c0,0,0-0.1,0.1-0.1
		c0,0-0.1,0-0.1,0C70,71.8,69.9,71.9,69.9,71.9 M69.5,64.5c-0.1,0-0.2,0-0.4,0c0,0,0,0.1,0,0.1C69.3,64.5,69.4,64.5,69.5,64.5
		C69.5,64.5,69.6,64.5,69.5,64.5 M43.8,66.5c0.1,0,0.1,0.1,0.2,0.1c0-0.1,0-0.1,0-0.2c0-0.1-0.1-0.1-0.1-0.1
		C43.9,66.3,43.8,66.4,43.8,66.5 M27.4,66.7c0,0,0.1,0,0.1,0C27.5,66.6,27.5,66.6,27.4,66.7c0-0.1-0.1-0.1-0.3-0.1c0,0,0,0.1,0,0.1
		C27.2,66.7,27.3,66.7,27.4,66.7 M47.9,70.8C47.9,70.8,47.9,70.7,47.9,70.8c-0.1-0.1-0.2-0.1-0.3-0.1c-0.1,0-0.1,0-0.1,0.1
		c0,0,0.1,0,0.1,0C47.7,70.8,47.8,70.8,47.9,70.8 M46.1,70.6c0.1,0,0.2,0,0.3-0.1c-0.1,0-0.2,0-0.3,0c0,0-0.1,0-0.1,0
		c0,0-0.1,0-0.1,0.1C46,70.5,46,70.6,46.1,70.6 M19.2,59.4c0-0.1,0-0.1-0.1-0.2c0,0-0.1-0.1-0.2-0.1c0,0-0.1,0.1-0.1,0.1
		c0,0,0.1,0.1,0.1,0.1C19,59.4,19.1,59.4,19.2,59.4 M56.1,74.1c0.1,0,0.2,0,0.2,0c0,0,0-0.1-0.1-0.1c-0.1,0-0.2,0-0.3,0
		C56.1,74,56.1,74,56.1,74.1 M14.7,63.4c0.1,0,0.3,0,0.4,0c0,0,0,0,0-0.1C15.1,63.4,14.9,63.3,14.7,63.4
		C14.8,63.3,14.7,63.4,14.7,63.4 M22.3,59.1c0-0.1,0-0.1,0-0.2c-0.1,0-0.1,0.1-0.2,0.1C22.2,59.1,22.3,59.1,22.3,59.1 M67.7,72.2
		c0,0,0.1,0,0.1,0C67.8,72.2,67.7,72.1,67.7,72.2c-0.1-0.1-0.2-0.1-0.4,0C67.5,72.2,67.6,72.2,67.7,72.2 M22.8,61.4
		c0,0-0.1,0.1-0.1,0.1c0.1,0,0.1,0.1,0.2,0.1C22.9,61.5,22.9,61.4,22.8,61.4 M25.6,67.2c-0.1,0-0.2,0-0.3-0.1c0,0-0.1,0-0.1,0
		c0,0,0,0.1,0,0.1C25.4,67.2,25.6,67.2,25.6,67.2 M21.2,58.8c0,0.1,0,0.2-0.1,0.3c0,0,0.1,0,0.1,0C21.2,59,21.2,58.9,21.2,58.8
		 M58.5,72.9c0.1,0,0.2,0,0.2-0.1c-0.1,0-0.2-0.1-0.2-0.1c0,0-0.1,0-0.1,0.1C58.5,72.8,58.5,72.8,58.5,72.9 M42.4,65.1
		c0,0-0.1-0.1-0.1-0.1c-0.1,0-0.1,0.1-0.2,0.1C42.3,65.1,42.3,65.1,42.4,65.1 M45.6,70.8c0,0,0.1,0,0.1-0.1c-0.1,0-0.1-0.1-0.2-0.1
		C45.6,70.7,45.6,70.8,45.6,70.8 M21.7,65.7c0,0-0.1,0-0.1,0c0.1,0,0.1,0.1,0.2,0.1c0,0,0.1,0,0.1-0.1
		C21.8,65.8,21.8,65.7,21.7,65.7 M37.6,67.3c0,0,0.1,0,0.1,0c0,0,0-0.1-0.1-0.1c-0.1,0-0.2,0-0.2,0C37.4,67.3,37.5,67.3,37.6,67.3
		 M66.8,72.2c0.1,0,0.2,0,0.3,0c0,0,0-0.1,0-0.1C67,72.2,66.9,72.2,66.8,72.2 M59.3,66.1c0.1,0,0.1,0.1,0.2,0.1c0,0,0-0.1,0.1-0.1
		C59.4,66.1,59.4,66.1,59.3,66.1 M19.6,60c0,0-0.1-0.1-0.1-0.1c0,0.1,0,0.1,0,0.2s0,0.1,0,0.2C19.6,60.1,19.6,60.1,19.6,60
		 M26.7,62.6c0,0,0.1,0,0.1,0c0,0,0,0,0.1-0.1c-0.1,0-0.1,0-0.2-0.1C26.6,62.5,26.6,62.6,26.7,62.6 M36.2,70.3c0,0-0.1,0.1-0.1,0.1
		c0.1,0,0.2,0,0.3,0C36.4,70.4,36.3,70.4,36.2,70.3 M63.8,62.3c0-0.1,0-0.2,0-0.2c0,0-0.1,0-0.1,0C63.7,62.1,63.7,62.2,63.8,62.3
		 M30.3,60.2c0,0-0.1,0.1-0.1,0.1c0,0,0,0.1,0,0.1C30.2,60.3,30.3,60.3,30.3,60.2 M18.1,64.9c0,0,0,0.1,0,0.1c0,0,0.1,0,0.1-0.1
		C18.2,65,18.2,64.9,18.1,64.9 M20.2,65.7C20.2,65.7,20.2,65.7,20.2,65.7c0-0.1-0.1-0.1-0.1-0.1C20.1,65.7,20.1,65.7,20.2,65.7
		 M22,62.1c0,0-0.1,0.1-0.1,0.1c0.1,0,0.2,0,0.3,0C22.2,62.1,22.2,62.1,22,62.1 M19.3,73c0,0,0.1,0,0.1,0c-0.1,0-0.1,0-0.2,0
		c0,0,0,0,0,0.1C19.2,73,19.3,73,19.3,73 M14.4,64.2c0,0.1,0,0.1,0,0.2c0,0,0.1,0,0.1,0C14.5,64.3,14.5,64.2,14.4,64.2 M25.7,59.2
		c0,0,0.1,0,0.1,0c0,0,0.1,0,0.1-0.1c0,0-0.1,0-0.1,0C25.8,59.1,25.7,59.1,25.7,59.2 M18.3,61.7C18.2,61.7,18.2,61.7,18.3,61.7
		c0,0.1,0,0.1,0.1,0.1C18.3,61.7,18.3,61.7,18.3,61.7 M17.3,58.4c0.1,0,0.1,0,0.2,0c0,0,0,0,0,0C17.4,58.4,17.4,58.4,17.3,58.4
		 M21.1,68.7C21.1,68.7,21,68.7,21.1,68.7c0,0.1,0,0.1,0.1,0.1C21.1,68.7,21.1,68.7,21.1,68.7 M64.9,65.6c0,0,0.1,0.1,0.1,0.1
		c0,0,0,0,0,0C65.1,65.6,65,65.6,64.9,65.6z"/>
	<path class="st0" d="M44.4,60.3c-0.1-0.3-0.2-0.7-0.3-1c0-0.2-0.1-0.5-0.1-0.7c0-0.1,0.1-0.2,0.1-0.3c0-0.4,0-0.8-0.1-1.2
		c0-0.5,0-1,0-1.5c0-0.2,0-0.5,0-0.7c0-0.6-0.1-1.3-0.1-1.9c0-0.6,0-1.3,0-1.9c0-0.4,0-0.8,0-1.2c0-0.4-0.1-0.8-0.1-1.2
		c0-0.2,0-0.4,0-0.6c0-0.5,0-1,0-1.5c0-0.8,0-1.6-0.1-2.4c0-0.4,0-0.9,0-1.3c-0.1-0.6,0-1.2-0.2-1.9c-0.1-0.2,0-0.5,0-0.7
		c0-0.3,0.1-0.6,0.1-0.8c0-0.2-0.2-0.3-0.2-0.5c0-0.6,0-1.1,0-1.7c0-0.3-0.1-0.7-0.4-0.8c-0.1-0.1-0.2-0.2-0.2-0.4
		c-0.1-0.2-0.1-0.5-0.3-0.7c-0.1-0.1-0.2-0.2-0.4-0.3C42.1,35,42,35,41.9,34.9c-0.4-0.4-0.4-0.7,0.1-1c0.3-0.2,0.7-0.2,1-0.4
		c0.1,0,0.2-0.1,0.2-0.2c0.1-0.4,0.2-0.4,0.6-0.4c0.1,0,0.2-0.1,0.2-0.2c0-0.8-0.1-1.6-0.1-2.5c0,0,0,0,0-0.1c0-0.6,0-1.3-0.1-1.9
		c0-0.5,0-1,0-1.5c0-0.6-0.2-1.2-0.2-1.8c0-0.4,0.1-0.9-0.1-1.3c0-0.1-0.1-0.2-0.1-0.3c0-0.1-0.1-0.2-0.1-0.2c0.3-0.5,0.1-1,0.1-1.6
		c0-0.3,0-0.5,0.1-0.8c0,0,0.1,0,0.1-0.1c0,0.1,0.1,0.1,0.1,0.2c-0.1,0.3,0.1,0.4,0.3,0.4c0.1,0,0.2,0.1,0,0.3
		c-0.4,0.3-0.2,0.7-0.2,1.1c0,0.1,0.3,0.2,0.4,0.3c0.1,0,0.1,0.1,0.2,0.1c0,0-0.1,0.1-0.1,0.1c-0.1,0.3-0.4,0.5-0.4,0.8
		c0,0.8,0,1.6,0,2.4c0,0.6,0.1,1.3,0.1,1.9c0,0.8,0,1.6,0.1,2.4c0,0.7,0.1,1.4,0.1,2.2c0,0.2,0.1,0.4,0.1,0.6
		c0.1,0.2,0.3,0.2,0.5,0.2c0.4,0.1,0.7,0.2,1,0.4c0.3,0.2,0.2,0.6-0.1,0.8c-0.4,0.2-0.6,0.4-0.7,0.8c0,0-0.1,0.1-0.1,0.1
		c0,0-0.1-0.1-0.1-0.1c-0.1-0.3-0.3-0.2-0.5-0.1c0,0-0.1,0.1-0.1,0.2c0,0,0.1,0.1,0.1,0.1c0.1,0,0.2,0,0.3,0c0.1,0,0.2,0.1,0.2,0.2
		c0,0.1,0,0.3-0.1,0.3c-0.5,0.2-0.7,0.8-0.9,1.2c-0.1,0.2-0.1,0.4,0,0.6c0.1,0.4-0.1,0.6-0.1,1c0,0.2,0,0.3,0,0.5c0,0,0.1,0,0.1,0
		c0,0,0.1-0.1,0.1-0.1c0,0.1,0,0.2,0,0.2c-0.2,0.2-0.2,0.4-0.2,0.7c0,0.2,0.1,0.4,0.3,0.4c0,0,0.1,0.1,0.1,0.1c0,0.1,0,0.2,0,0.3
		c0,1,0,2,0.1,3c0,0.9,0.1,1.9,0.1,2.8c0,0.8,0.1,1.7,0.1,2.5c0,0.7,0,1.3,0.1,2c0,0.9,0.1,1.8,0.1,2.8c0,0.6,0,1.2,0,1.7
		c0,0,0,0.1,0,0.1c0,0-0.1-0.1-0.1-0.1c0-0.2-0.1-0.3-0.1-0.5c0,0,0-0.1-0.1-0.1c0,0.1-0.1,0.1-0.1,0.2c0,0.2,0,0.3,0.1,0.5
		c0,0.2,0,0.3,0,0.5c0,0.3,0.1,0.6,0.1,0.8c0,0.4,0,0.8-0.1,1.2c0,0.2,0.1,0.5,0.3,0.4c0,0,0.1-0.1,0.1-0.1c0-0.3-0.1-0.6-0.1-0.8
		c0-0.3-0.1-0.6-0.1-1c0-0.1,0-0.2,0-0.3c0-0.1,0.1-0.2,0.2-0.3c0.1,0.1,0.2,0.2,0.2,0.3c0,0.4,0,0.8,0,1.1c0,0.4-0.1,0.8,0.1,1.2
		c0.1,0.2,0,0.4,0,0.6c0,0-0.1,0.1-0.1,0.1c0,0-0.1-0.1-0.1-0.1c0-0.2,0-0.4-0.1-0.5c0,0-0.1-0.1-0.1-0.1c0,0,0,0.1,0,0.1
		c0,0.2,0,0.4,0,0.5C44.7,60.2,44.6,60.3,44.4,60.3 M43.4,33.8c-0.3,0.1-0.7,0.1-1,0.3c-0.2,0.1-0.3,0.3-0.5,0.4
		c0.1,0.1,0.3,0.3,0.4,0.4c0.1,0,0.2,0,0.2,0c0.2-0.1,0.3-0.2,0.5-0.2C43.4,34.5,43.5,34.2,43.4,33.8 M44.8,34c0-0.1,0.1-0.2,0-0.2
		c-0.1-0.1-0.2-0.1-0.3-0.2c0,0.1,0,0.1,0,0.2c0,0.1-0.1,0.4-0.1,0.4c-0.2,0-0.2-0.1-0.2-0.3c0,0-0.2-0.1-0.3,0
		c-0.1,0-0.1,0.2-0.2,0.3c0,0.1,0,0.3,0.2,0.3c0.3,0,0.5,0.1,0.6,0.3c0.1,0.1,0.2,0.2,0.3,0.3c0,0,0.1,0,0.2,0c0,0,0.1-0.1,0.1-0.2
		c0-0.1-0.1-0.1-0.1-0.1c-0.1-0.1-0.2-0.1-0.3-0.2c0.1,0,0.1-0.1,0.2-0.1c0,0,0-0.1,0-0.2C44.8,34.2,44.8,34.1,44.8,34 M45.1,34.6
		c0.1,0.1,0.3,0.2,0.5,0.1c0.1-0.1,0.3-0.2,0.4-0.4c0,0,0-0.2,0-0.2c0,0-0.1,0-0.2,0c-0.1,0-0.2,0-0.2,0c-0.1,0-0.3-0.1-0.3-0.1
		c-0.1,0.2-0.2,0.4-0.3,0.6C44.9,34.5,45,34.6,45.1,34.6 M43.2,35.8c0.1-0.1,0.2-0.3,0.3-0.4c-0.1,0-0.2-0.1-0.3-0.1
		c0,0,0-0.1,0-0.1c0,0,0.1,0,0.2-0.1c0.3,0,0.1-0.2,0.2-0.4c-0.1,0-0.1,0-0.2,0.1c-0.1,0.1-0.3,0.1-0.4,0.2c0,0-0.1,0.1,0,0.1
		c0.1,0.2,0.1,0.4,0.2,0.7C43,35.8,43.1,35.8,43.2,35.8 M43.7,35.2c0.2-0.1,0.3-0.2,0.4,0.1c0,0,0,0,0.1,0c0-0.1,0.1-0.2,0-0.3
		c0-0.1-0.2-0.2-0.3-0.2C43.9,34.9,43.8,35,43.7,35.2 M44,35.8c0,0.1,0,0.1,0,0.2c0,0.1,0.1,0.2,0.1,0.2c0-0.1,0.1-0.2,0.1-0.3
		C44.2,35.9,44.1,35.8,44,35.8 M44.3,47.5c0,0-0.1-0.1-0.1-0.1c0,0-0.1,0.1-0.1,0.1c0,0.1,0.1,0.2,0.1,0.4
		C44.2,47.7,44.3,47.6,44.3,47.5 M44.3,48.2c0,0-0.1,0-0.1,0c0,0.1,0,0.2,0,0.3c0,0,0.1,0,0.1,0C44.2,48.4,44.3,48.4,44.3,48.2
		 M43.9,23.2c-0.1,0-0.1,0-0.2,0c0,0,0,0.1,0,0.1C43.8,23.3,43.9,23.3,43.9,23.2 M44.1,36.7c0-0.1,0-0.2,0-0.3c0,0,0,0,0,0
		C44.1,36.5,44.1,36.6,44.1,36.7c-0.1,0-0.1,0.1-0.1,0.1C44.1,36.8,44.1,36.7,44.1,36.7 M44.5,55c0-0.1-0.1-0.1-0.1-0.2
		c0,0,0,0.1,0,0.1C44.4,55,44.5,55.1,44.5,55 M44.1,42.9C44.1,42.9,44.1,42.9,44.1,42.9C44,42.9,44,43,44,43
		C44,43,44.1,43,44.1,42.9z"/>
	<path class="st0" d="M62.6,45.6c0,0.1,0.1,0.2,0.1,0.3c0,0.7,0.1,1.4,0.1,2.1c0,0.5,0,1,0.1,1.5c0,0.5,0.1,1,0.1,1.5
		c0,0.8,0.1,1.6,0.2,2.4c0,0.5,0,1,0.1,1.5c0.1,0.8,0.2,1.5,0.2,2.3c0,0.3,0.1,0.5,0.1,0.8c0,0.1,0,0.2,0,0.3c0,0.2-0.1,0.3-0.1,0.5
		c0.1,0.3-0.1,0.5-0.3,0.7c0,0-0.1,0.1-0.2,0c-0.1,0-0.1-0.1-0.1-0.2c0-0.4,0-0.9-0.1-1.3c-0.1-0.6,0-1.2,0-1.8
		c-0.1-0.8,0-1.6-0.1-2.4c-0.1-0.5,0-1-0.2-1.5c-0.1-0.3,0-0.7,0.1-1.1c0-0.1,0-0.2,0-0.3c-0.1-0.7-0.2-1.4-0.2-2.1
		c0-0.2,0.1-0.4,0-0.6c0-0.4,0-0.8-0.1-1.3c0-0.1,0-0.1,0-0.2c0-0.4-0.1-0.7-0.1-1.1c0-0.1,0.1-0.2,0.1-0.2c0-0.5-0.1-0.9-0.1-1.4
		c0-0.3-0.1-0.6-0.1-1c0-0.6-0.1-1.2-0.1-1.7c0-0.3,0-0.7,0-1c-0.1-0.4-0.2-0.7-0.3-1.1c0-0.1-0.1-0.1-0.1-0.1
		c-0.5-0.1-0.6-0.5-0.7-0.9c-0.1-0.3-0.1-0.5-0.4-0.7c-0.1-0.1-0.3-0.1-0.4-0.2c-0.3-0.2-0.3-0.5,0-0.7c0.3-0.2,0.7-0.3,1-0.4
		c0.3-0.1,0.5-0.1,0.8-0.1c0.1,0,0.2-0.1,0.1-0.2c-0.2-0.5-0.2-1.1-0.1-1.6c0-0.2,0-0.4,0-0.7c0-0.7,0-1.3-0.1-2
		c0-0.6,0-1.2-0.1-1.7c0-0.2,0-0.5-0.1-0.7c-0.1-0.2-0.1-0.3,0.1-0.3c0.2-0.1,0.4-0.1,0.5-0.1c0.1,0,0.2,0.1,0.2,0.2
		c0,0.1-0.1,0.2-0.1,0.2c-0.2,0.1-0.2,0.2-0.2,0.4c0,0.3,0,0.6,0,0.9c0,0.2,0.1,0.3,0.2,0.3c0.1,0,0.1,0.1,0.2,0.1
		c-0.1,0.1-0.1,0.1-0.2,0.1c-0.1,0-0.2,0.1-0.3,0.1c0,0.1,0.1,0.2,0.1,0.3c0,0.1,0.1,0.2,0.1,0.3c0,0.3,0.2,0.4,0.4,0.4
		c0.1,0,0.1,0,0.2,0c0,0.1-0.1,0.1-0.1,0.2c-0.1,0.1-0.4,0.1-0.4,0.2c-0.1,0.2,0,0.5,0,0.7c0,0.3,0.1,0.6,0.1,0.9c0,0.5,0,1,0.1,1.6
		c0,0.2,0.1,0.3,0.3,0.3c0.5,0.1,1,0.1,1.5,0.2c0.1,0,0.3,0.2,0.4,0.3c0.1,0.2,0,0.4-0.2,0.5c-0.4,0.2-0.7,0.5-0.7,1
		c0,0-0.1,0-0.1,0c0-0.2-0.1-0.3-0.1-0.5c0-0.1,0-0.2-0.1-0.2c0,0.1-0.1,0.1-0.1,0.2c0,0.1,0,0.2-0.1,0.2c0,0,0,0.1-0.1,0.1
		c0,0,0-0.1-0.1-0.1c-0.1-0.4,0.1-0.8,0.2-1.1c0-0.1,0.1-0.1,0.1-0.2c0,0.1,0,0.1,0,0.2c0,0.1,0,0.2,0,0.2c0,0.1,0.1,0.1,0.1,0.1
		c0.3-0.1,0.7,0,0.9-0.4c0,0,0-0.2,0-0.2c-0.1-0.1-0.2-0.2-0.3-0.2c-0.5,0-1-0.3-1.5-0.1c-0.1,0-0.2,0.1-0.2,0.2c0,0.2,0,0.3,0,0.5
		c0,0,0.1,0,0.1,0c0,0,0-0.1,0.1-0.1c0-0.1,0-0.1,0-0.2c0,0.1,0.1,0.1,0.1,0.2c0,0.3,0,0.6-0.1,0.9c0,0.3,0.1,0.5,0.4,0.6
		c0.1,0,0.3,0.1,0.4,0.1c0.2,0.1,0.2,0.3,0,0.4c-0.4,0.2-0.5,0.5-0.6,0.9c-0.1,0.4,0,0.7,0,1.1c0,0.2,0,0.4-0.1,0.6
		c0,0.1,0,0.1,0,0.2c0.3,0.3,0.1,0.7,0.1,1.1c0.1,0.4,0,0.8,0.1,1.2C62.5,44.6,62.5,45.1,62.6,45.6 M60.7,37.5
		c0.2-0.1,0.3-0.1,0.5-0.2c0.4-0.1,0.5-0.2,0.4-0.6c0-0.1-0.1-0.1-0.2-0.1c-0.1,0-0.3,0-0.4,0c-0.4,0-0.8,0.2-1.2,0.4
		c-0.1,0.1-0.1,0.2,0,0.3C60.1,37.6,60.3,37.6,60.7,37.5 M61.1,37.9c0,0-0.1,0.1-0.1,0.1c0,0-0.1-0.1-0.1-0.1c0-0.1-0.1-0.1-0.1-0.2
		c0,0-0.1,0.1-0.1,0.1c0,0.2,0,0.3,0.1,0.5c0,0.1,0.2,0.2,0.3,0.2c0.1,0,0.4-0.2,0.4-0.2C61.3,38.2,61.2,38.1,61.1,37.9 M61.1,37.8
		c0.1,0,0.1,0,0.2,0c0,0,0.1-0.1,0.1-0.2c-0.1,0-0.2,0-0.3,0C61,37.6,61,37.7,61.1,37.8 M61.7,38.2c0-0.1,0-0.1,0-0.2
		c0,0-0.1,0-0.1,0C61.6,38,61.6,38.1,61.7,38.2C61.6,38.2,61.6,38.2,61.7,38.2z"/>
	<path class="st0" d="M79.4,59.1c0.1,0.2,0.1,0.3-0.2,0.3c-0.4,0-0.7,0.2-1.1,0.2c-0.9,0.2-1.8,0.4-2.7,0.6
		c-0.7,0.2-1.5,0.2-2.2,0.5c-0.6,0.2-1.2,0.2-1.8,0.3c-0.3,0.1-0.7,0.2-1,0.3c-0.2,0.1-0.5,0.1-0.7,0.1c-0.1,0-0.2-0.1-0.3-0.1
		c0,0,0-0.1,0-0.1c0,0,0.1,0,0.1,0c0.3,0,0.6-0.1,0.8-0.1c0.3-0.1,0.6-0.1,0.9-0.2c0.1,0,0.1-0.1,0.2-0.1c0-0.1-0.1-0.2-0.1-0.2
		c-0.2-0.1-0.1-0.2,0-0.2c0.2-0.1,0.4-0.1,0.5-0.1c0,0,0.1,0,0.1,0c0,0-0.1,0.1-0.1,0.1c-0.1,0-0.3,0.1-0.3,0.1
		c-0.1,0.2,0,0.3,0.2,0.3c0.5-0.1,0.9-0.2,1.4-0.4c0.2,0,0.3-0.1,0.2-0.3c-0.1-0.2-0.1-0.5-0.5-0.4c0,0,0,0-0.1,0c0,0,0,0,0.1,0
		c0.1,0,0.3-0.1,0.4,0c0.1,0,0.1,0.2,0.2,0.3c0.1,0.4,0.2,0.5,0.5,0.3c0.1,0,0.1-0.1,0.1-0.2c0-0.2,0.1-0.3,0.3-0.3
		c0.1,0,0.3,0.1,0.3,0.2c0,0.2,0.2,0.2,0.3,0.2c0.5-0.1,1-0.3,1.4-0.4c0.1,0,0.1,0,0.1-0.1c0.4-0.4,1-0.5,1.5-0.8
		c0.9-0.5,1.8-1,2.7-1.5c0.5-0.2,1-0.4,1.4-0.7c0.5-0.3,1-0.5,1.4-0.8c0.2-0.1,0.1-0.3,0-0.4c0,0-0.1-0.1-0.1-0.2c0.1,0,0.2,0,0.2,0
		c0.4,0.3,0.7,0.1,1.1-0.1c0.7-0.4,1.4-0.7,2.1-1.1c0.6-0.3,1.2-0.6,1.8-0.9c0.1,0,0.1-0.1,0.2-0.2c0-0.1,0.1-0.2,0.1-0.2
		c0.2,0,0.4,0.1,0.5,0.2c0.1,0.1,0,0.2-0.1,0.3c-0.9,0.5-1.8,1-2.7,1.5c-0.9,0.5-1.9,0.9-2.8,1.4c-0.6,0.3-1.1,0.6-1.7,0.9
		c-1,0.5-2,1.1-2.9,1.6c-0.5,0.2-0.9,0.6-1.5,0.6c-0.1,0-0.1,0-0.2,0.1c0,0-0.1,0.1-0.1,0.1c0,0,0.1,0,0.1,0c0.2,0,0.4-0.1,0.7-0.2
		C78.7,59.2,79.1,59.1,79.4,59.1z"/>
	<path class="st0" d="M44.6,63.5c0,0.5,0,0.9,0,1.4c0,0.3,0,0.5,0,0.8c0,0.2,0.1,0.4,0.1,0.6c0,0.1,0,0.2-0.1,0.2
		c-0.1,0-0.2-0.1-0.2-0.1C44.2,66,44,65.5,43.7,65c-0.1-0.3-0.2-0.5-0.2-0.9c0.1-0.4,0-0.8,0-1.1c0-0.2,0.1-0.4,0.4-0.4
		c0.2,0,0.3,0,0.1-0.2c0-0.1,0-0.2,0-0.3c0-0.3-0.1-0.4-0.4-0.4c-0.1,0-0.2-0.1-0.2-0.1c0.1,0,0.2-0.1,0.2-0.1c0.1,0,0.2,0,0.2,0
		c0.2,0,0.3,0,0.3-0.2c0-0.2,0-0.4-0.2-0.4c-0.2,0-0.3,0-0.5,0c-0.2,0-0.4-0.1-0.6-0.1c-0.2,0-0.4-0.1-0.7-0.1c-0.3,0-0.7-0.1-1-0.1
		c-0.1,0-0.2,0-0.3,0c-0.1,0-0.3,0-0.4,0c-0.5-0.1-1-0.1-1.5-0.2c-0.1,0-0.1,0.2-0.2,0.3c-0.1,0.1-0.1,0.2-0.1,0.4
		c0,0-0.1,0.1-0.1,0.1c0,0-0.1-0.1-0.1-0.1c0-0.1,0-0.2,0-0.2c0-0.3-0.3-0.5-0.6-0.4c-0.1,0-0.2,0-0.2,0c0,0-0.1-0.1,0-0.2
		c0-0.1,0.1-0.1,0.2-0.1c0.1,0,0.1,0.1,0.2,0.1c0.1,0,0.2,0,0.3-0.1c0.2-0.2,0.3-0.2,0.5,0c0.1,0.1,0.4,0.1,0.5,0.1
		c0.6,0,1.2,0,1.9,0.1c0.5,0,0.9,0.1,1.4,0.1c0.3,0,0.6,0.1,0.9,0.2c0.1,0,0.1,0,0.2,0c-0.1,0-0.1-0.1-0.2-0.1
		c-0.2,0-0.4-0.1-0.6-0.1c-0.1,0-0.1-0.1-0.1-0.1c0.1,0,0.1-0.1,0.2-0.1c0.2,0,0.4,0,0.6,0c0.1,0,0.2,0.1,0.2,0.2
		c0.1,0.3,0.3,0.3,0.6,0.3c0.1,0,0.2,0,0.4,0c0.1,0,0.2,0.1,0.2,0.2c0,0.1,0,0.2-0.1,0.3c-0.3,0.2-0.4,0.4-0.2,0.7
		c0,0,0.1,0.1,0.1,0.2C44.5,62.3,44.7,62.9,44.6,63.5 M44.3,64.8c0-0.2-0.1-0.4-0.1-0.5c0-0.2,0-0.4,0-0.5c0-0.1-0.1-0.1-0.2-0.2
		c0,0.1-0.1,0.1-0.1,0.2c-0.1,0.6,0.2,1.1,0.5,1.6c0,0,0.1,0.1,0.1,0.1c0-0.1,0-0.1,0-0.2C44.4,65.2,44.3,65,44.3,64.8 M44.1,62.8
		c-0.1,0.1-0.1,0.1-0.2,0.2c0.1,0,0.2,0.1,0.3,0.1c0,0,0.1-0.1,0.1-0.2C44.3,62.8,44.1,62.8,44.1,62.8 M44.3,61.8
		c0.1,0,0.1,0,0.2,0.1c0-0.1,0.1-0.1,0-0.2c0,0-0.1-0.1-0.2-0.1C44.4,61.6,44.4,61.7,44.3,61.8z"/>
	<path class="st0" d="M37.8,62c0.1-0.3,0.1-0.6,0.2-0.8c0.1-0.2,0.1-0.3-0.1-0.5c-0.1,0,0-0.2-0.1-0.2c0.1,0,0.1,0.1,0.2,0.1
		c0.3,0.1,0.4,0.2,0.2,0.5c-0.1,0.1,0,0.3,0,0.5c0,0,0.1,0.1,0.1,0.1c0.4-0.2,0.4,0.1,0.5,0.3c0,0.1,0,0.2,0,0.3
		c0,0-0.1,0.1-0.1,0.1c0,0-0.1-0.1-0.1-0.1c0-0.3-0.2-0.4-0.5-0.3c0,0-0.1,0-0.1,0c-0.1,0.1,0.1,0.5,0.2,0.5c0.2,0,0.4,0,0.4,0.1
		c0.1,0.1,0,0.3,0,0.4c-0.1,0.6-0.2,1.1-0.4,1.7c-0.1,0.2-0.3,0.2-0.4,0.2c-0.2,0-0.4-0.1-0.6-0.1c-0.1,0-0.1-0.1-0.1-0.2
		c0-0.3,0.1-0.7,0.2-1c0.1-0.4,0.2-0.7,0.2-1.1C37.6,62.4,37.7,62.2,37.8,62 M38.2,63.2c-0.1,0-0.2,0-0.3,0c0,0-0.1,0-0.1,0.1
		c0,0,0,0.1,0,0.1c0.1,0,0.2,0,0.2,0C38.2,63.3,38.2,63.2,38.2,63.2 M37.8,64.5c0.1,0,0.1,0,0.2,0c0,0,0-0.1,0-0.1
		C37.9,64.4,37.8,64.4,37.8,64.5 M37.9,63.8c-0.1,0-0.1,0-0.2,0c0,0,0,0,0,0C37.8,63.9,37.9,63.8,37.9,63.8z"/>
	<path class="st0" d="M45.4,66.7c0.1,0.2,0.2,0.4,0,0.7c0,0.1-0.1,0.1-0.2,0.1c0-0.1,0-0.2,0-0.2c0.2-0.2,0.1-0.3,0-0.5
		c-0.1-0.1-0.1-0.3-0.1-0.5c0-0.4,0-0.7-0.1-1.1c0-0.5,0-1-0.1-1.5c0-0.3,0-0.6,0-0.9c0,0,0.1-0.1,0.1-0.1c0.3,0.1,0.5,0.3,0.7,0.4
		c0,0,0,0.1,0.1,0.2c-0.1,0-0.2,0.1-0.3,0.1c-0.1,0-0.3-0.1-0.4-0.1c0,0.2,0,0.4,0,0.6c0,0.1,0.2,0.1,0.3,0.2c0.1,0,0.2,0,0.2,0.1
		c0,0,0.1,0.1,0.1,0.2c-0.1,0-0.1,0.1-0.2,0c-0.1,0-0.3-0.1-0.4-0.1c0,0.2,0,0.3,0,0.5c0,0.3,0.1,0.5,0.1,0.8c0,0.1,0.1,0.1,0.2,0.2
		c0.1,0.1,0.3,0.2,0.3,0.4c0.2,0.4,0.4,0.8,0.6,1.2c0,0.1,0,0.2,0,0.3c-0.2,0.2-0.6,0.1-0.8-0.2C45.7,67,45.6,66.8,45.4,66.7
		C45.4,66.6,45.4,66.6,45.4,66.7z"/>
	<path class="st0" d="M39.5,64.9c-0.2,0-0.4,0-0.6-0.1c-0.1-0.1-0.1-0.3-0.1-0.4c0.1-0.6,0.2-1.2,0.3-1.7c0-0.4,0.3-0.2,0.5-0.2
		c0.2,0,0.3,0.1,0.5,0c0.2,0,0.2,0.1,0.2,0.2c-0.1,0.6-0.2,1.2-0.2,1.9c0,0.3-0.1,0.3-0.3,0.3C39.6,64.8,39.6,64.9,39.5,64.9
		 M39.4,63.9c0.1,0,0.2,0,0.3,0c0,0,0.1,0,0.1,0c0,0,0-0.1,0-0.1C39.6,63.8,39.5,63.9,39.4,63.9 M39.4,63.4c0.1,0,0.1,0,0.2,0
		c0,0,0,0-0.1,0C39.5,63.3,39.4,63.3,39.4,63.4z"/>
	<path class="st0" d="M80.8,59.3c0.4,0.3,0.8,0.1,1.2,0.1c0.1,0,0.2,0,0.3,0c0.1,0,0.1,0,0.2,0c-0.1,0-0.1,0.1-0.2,0.1
		c-0.2,0-0.4,0-0.6,0.1c-0.1,0-0.2,0.1-0.3,0.1c0.1,0.1,0.2,0.1,0.2,0.2c0,0,0.1,0.1,0.1,0.1c0,0-0.1,0-0.1,0
		c-0.6,0-1.4,0.1-1.6,0.9c0,0.1-0.2,0.3-0.4,0.4c-0.1,0.1-0.2,0.1-0.3,0.1c0-0.1,0-0.2,0-0.3c0-0.2,0-0.4,0.1-0.7
		c0-0.1,0.1-0.2,0.2-0.2c0.3,0,0.5-0.2,0.5-0.5c0-0.3,0.1-0.4,0.4-0.4C80.6,59.3,80.7,59.3,80.8,59.3 M79.9,60.5
		c0,0-0.1-0.1-0.1-0.1c0,0-0.1,0.1-0.1,0.1C79.7,60.5,79.8,60.5,79.9,60.5z"/>
	<path class="st0" d="M65,59.7c-0.3,0-0.6,0-0.9,0.1c-0.1,0-0.2,0.1-0.2,0.2c0,0.1,0,0.3-0.2,0.2c-0.1,0-0.3,0.1-0.3-0.2
		c0,0,0-0.1-0.1-0.1c0,0,0,0.1-0.1,0.1c-0.1,0.2,0,0.3,0.1,0.5c0.1,0.1,0,0.4,0,0.6c0,0.1-0.2,0.1-0.3,0.1c-0.2,0-0.3,0-0.3-0.2
		c0-0.3,0.1-0.6-0.2-0.8c-0.1-0.1-0.2-0.2-0.3-0.2c-0.5,0.1-1,0.1-1.5,0.2c-0.2,0-0.5,0-0.7,0c0,0-0.1-0.1-0.1-0.1
		c0,0,0.1-0.1,0.1-0.1c0.7-0.1,1.4-0.2,2.1-0.3c0.2,0,0.3,0.1,0.5,0c0.4,0,0.8-0.1,1.2-0.2c0.3-0.1,0.7-0.1,1-0.2
		c0.1,0,0.2,0.1,0.3,0.1C65.2,59.6,65.1,59.6,65,59.7z"/>
	<path class="st0" d="M69.8,61.9c-0.1,0.3,0,0.4,0.3,0.4c0.4,0,0.8-0.1,1.3-0.2c0.1,0,0.1,0,0.2,0c0.5,0,0.9,0,1.4,0
		c0.3,0,0.5,0.1,0.8,0.1c0.3,0,0.6-0.1,0.9-0.1c0.1,0,0.1,0,0.2,0.1c-0.1,0-0.1,0.1-0.2,0.1c-0.2,0.1-0.3,0.2-0.5,0.3
		c-0.2,0.1-0.5,0.1-0.7,0.1c-0.2,0-0.5-0.1-0.7-0.1c-0.5,0-0.9,0-1.4,0.1c-0.5,0-1,0.1-1.5,0.1c-0.1,0-0.1-0.1-0.2-0.2
		c0-0.1-0.1-0.1-0.1-0.2c-0.1-0.1-0.1-0.1-0.2-0.1C69.5,62,69.6,61.8,69.8,61.9z"/>
	<path class="st0" d="M65.7,64c-0.3,0-0.4-0.2-0.5-0.5c-0.1-0.5-0.1-1-0.1-1.4c0-0.1,0-0.2-0.1-0.4c0,0-0.1-0.1-0.1-0.1
		c0,0-0.1,0.1-0.1,0.1c0,0.4,0,0.7,0.1,1.1c0,0.2,0,0.4,0.1,0.7c0,0.1,0,0.2,0,0.3c0,0.1,0,0.1-0.1,0.2c0-0.1-0.1-0.1-0.1-0.2
		c0-0.4,0-0.7-0.1-1.1c0-0.2-0.1-0.5-0.1-0.7c0-0.1,0-0.3,0-0.4c0-0.1,0-0.3-0.2-0.3c0,0-0.1,0-0.1,0c0,0,0-0.1,0.1-0.1
		c0.2-0.1,0.2-0.2,0.2-0.3c0-0.1,0-0.1,0.1-0.2c0,0.1,0.1,0.1,0.1,0.2c0,0.1,0,0.3,0.2,0.2c0,0,0.2,0.1,0.2,0.2
		c0.1,0.5,0.2,0.9,0.3,1.4C65.6,63.1,65.6,63.5,65.7,64z"/>
	<path class="st0" d="M71.1,60.6c-0.1,0-0.2-0.1-0.2-0.2c-0.1-0.1-0.1-0.2-0.2-0.2c-0.2,0-0.5,0.1-0.7,0.1c-0.1,0-0.3,0.1-0.1,0.3
		c0,0.1,0.1,0.1,0.1,0.2c0,0-0.1,0.1-0.1,0.1c-0.1,0-0.1,0-0.2,0.1c0,0,0-0.1,0-0.1c0-0.1,0-0.2,0.1-0.2c-0.1,0-0.2,0-0.3,0
		c-0.4,0.1-0.8,0.2-1.2,0.2c-0.5,0.1-1.1,0.2-1.6,0.3c-0.2,0-0.4,0.1-0.6,0.1c-0.1,0-0.2,0-0.4-0.1c0,0-0.1-0.1-0.1-0.1
		c0,0,0-0.1,0.1-0.1c0.2,0,0.4-0.1,0.5-0.1c0.8-0.1,1.6-0.2,2.4-0.4c0.6-0.1,1.2-0.3,1.8-0.4c0.4-0.1,0.8-0.2,1.2-0.3
		c0,0,0.1,0,0.2,0c0,0-0.1,0.1-0.1,0.1c0,0-0.1,0.1-0.1,0.1C71.1,60.1,71.1,60.1,71.1,60.6z"/>
	<path class="st0" d="M8.5,53.4c-0.1,0.1-0.3,0.1-0.4,0.2c-0.1,0-0.2,0-0.2,0c0-0.1,0.1-0.1,0.1-0.2c0.3-0.3,0.8-0.2,1.2-0.3
		c0.2,0,0.4-0.1,0.7-0.2c0.5-0.2,1.1-0.3,1.7-0.2c0.1,0,0.1,0.1,0.1,0.2c0,0.1,0,0.2-0.1,0.3c-0.1,0.1-0.2,0.1-0.3,0.1
		c-0.6,0-1.2,0-1.8,0.2C9.2,53.5,8.8,53.4,8.5,53.4z"/>
	<path class="st0" d="M40.8,58.9c-0.2-0.4-0.1-0.6,0.4-0.6c0.4,0,0.8,0,1.2,0.2c0.2,0.1,0.4,0.1,0.6,0.1c0.1,0,0.2,0,0.3,0.1
		c0.1,0.1,0.1,0.2,0.1,0.3c0,0-0.1,0.1-0.2,0.1c-0.5,0-1-0.1-1.5-0.1c-0.2,0-0.5,0.1-0.7,0.1C40.9,59.1,40.8,59.1,40.8,58.9
		 M41.3,58.8c0-0.1,0-0.2,0-0.2c0,0-0.1,0-0.2,0c0,0.1,0,0.2,0,0.3C41.1,58.8,41.2,58.8,41.3,58.8z"/>
	<path class="st0" d="M41.4,74.9c-0.5-0.1-0.9-0.2-1.4-0.1c-0.4,0.1-0.8-0.1-1.1-0.3c-0.4-0.2-0.8-0.2-1.1,0c-0.1,0-0.2,0-0.3,0
		c0,0,0-0.1,0-0.1c0.1,0,0.2-0.1,0.2-0.1c0.1,0,0.2-0.1,0.2-0.1c0.2,0,0.5-0.1,0.7-0.1c0.5,0,1,0,1.6,0c0,0,0.1,0,0.1,0
		c0,0,0,0.1-0.1,0.1c0,0.1-0.1,0.1-0.1,0.1c0.1,0,0.1,0,0.2,0.1c0.1,0,0.3,0.1,0.4,0.1c0.3,0.2,0.6,0.1,1,0c0.1,0,0.1,0,0.2,0.1
		c0,0-0.1,0-0.1,0C41.6,74.8,41.5,74.8,41.4,74.9z"/>
	<path class="st0" d="M69.8,61.9c0.2-0.1,0.4-0.2,0.6-0.2c0.6-0.1,1.2-0.1,1.7-0.1c0.6,0,1.1,0.1,1.7-0.1c0.1,0,0.3,0,0.4,0.1
		c0,0,0,0.1,0,0.1c-0.1,0-0.2,0.1-0.3,0.1c-0.5,0-1.1,0-1.6,0c-0.3,0-0.5,0-0.8,0c-0.2,0-0.4-0.1-0.5,0.2c0,0-0.1,0-0.1,0
		c-0.2,0-0.3,0-0.5,0.1c-0.1,0-0.1,0-0.2,0C70,62,69.9,61.9,69.8,61.9z"/>
	<path class="st0" d="M20,54.6c0-0.1,0-0.2,0-0.2c0.2-0.1,0.4-0.2,0.6-0.2c0.3,0,0.6,0.1,0.8,0.1c0.3,0,0.7,0,1,0
		c0.1,0,0.1,0.1,0.2,0.1c-0.1,0-0.1,0.1-0.2,0.1c-0.3,0-0.7,0-1,0c-0.1,0-0.3,0-0.4,0c-0.3,0-0.4,0.1-0.4,0.4c0,0.1,0,0.1,0,0.2
		c0,0-0.1-0.1-0.1-0.1C20.5,54.7,20.2,54.6,20,54.6z"/>
	<path class="st0" d="M11.5,51.8c-0.3,0.1-0.7,0.2-1,0.3c-0.1,0-0.2,0-0.3,0c-0.1-0.1-0.2-0.2-0.3-0.2c0.1-0.1,0.2-0.1,0.3-0.2
		c0.3-0.1,0.7-0.2,1.1-0.3c0.1,0,0.2,0.1,0.2,0.2C11.5,51.6,11.5,51.7,11.5,51.8z"/>
	<path class="st0" d="M78.9,60c-0.3,0.1-0.5,0.2-0.7,0.2c-0.6,0-1.1,0.3-1.6,0.5c-0.4,0.1-0.8,0.1-1.2,0.1c0,0-0.1,0-0.1,0
		c0,0,0.1-0.1,0.1-0.1c0.6-0.1,1.1-0.3,1.7-0.4c0.4-0.1,0.9-0.2,1.3-0.3c0.2,0,0.4-0.1,0.6-0.1c0.1,0,0.1,0,0.2,0
		c-0.1,0-0.1,0.1-0.2,0.1C79,60,79,60,78.9,60z"/>
	<path class="st0" d="M62.4,60.9c-0.6,0.1-1.2,0.2-1.8,0.4c0,0-0.1,0-0.1,0c-0.1,0-0.2-0.1-0.4-0.1c0.1,0,0.2-0.1,0.3-0.1
		c0.3-0.1,0.6-0.2,1-0.1c0.3,0,0.6-0.2,0.9-0.2c0.1,0,0.3,0,0.4,0.1c0,0,0,0.1,0,0.1c0,0-0.1,0.1-0.1,0
		C62.6,60.9,62.5,60.9,62.4,60.9z"/>
	<path class="st0" d="M31.5,74.6c0.3-0.1,0.6-0.4,1-0.3c0.2,0,0.4,0,0.5,0c0.1,0,0.1,0.1,0.2,0.1c-0.1,0-0.1,0-0.2,0
		c-0.3,0-0.6,0-0.8,0c-0.1,0-0.3,0.2-0.4,0.2c-0.3,0.1-0.7,0.2-1,0c0,0-0.1,0-0.2,0c-0.1,0-0.3,0.1-0.4,0.1c-0.1,0-0.1-0.1-0.2-0.1
		c0-0.1,0.1-0.2,0.1-0.2c0.3,0,0.5,0,0.8,0.1C31.2,74.5,31.3,74.6,31.5,74.6z"/>
	<path class="st0" d="M73.2,73.6c0,0.2-0.2,0.5-0.5,0.5c-0.2,0-0.4-0.1-0.6,0c-0.2,0-0.3,0.1-0.5,0.1c-0.1,0-0.2,0.1-0.3,0.1
		c-0.2,0-0.4,0.1-0.6,0.1c-0.1,0-0.1,0-0.2-0.1c0,0,0.1-0.1,0.1-0.1c0.2,0,0.4-0.1,0.6-0.1c0.2,0,0.3-0.1,0.5-0.2
		c0.1-0.1,0.3-0.1,0.5-0.1C72.6,73.9,72.9,73.9,73.2,73.6z"/>
	<path class="st0" d="M61.5,56.6c-0.2-0.2-0.4-0.3-0.7-0.3c-0.1,0-0.4-0.2-0.3-0.3c0.1-0.2,0.2-0.3,0.3-0.5c0.1,0.1,0.2,0.1,0.3,0.3
		c0.1,0.3,0.2,0.6,0.5,0.7c0,0,0.1,0.1,0.1,0.2C61.6,56.6,61.5,56.6,61.5,56.6z"/>
	<path class="st0" d="M42.4,56.5c0.1,0.1,0.2,0.2,0.3,0.3c0.2,0.3,0.3,0.6,0.5,0.8c0,0.1,0.1,0.1,0.1,0.2c-0.1,0-0.1,0-0.2,0
		c-0.1-0.1-0.2-0.1-0.2-0.2c-0.1-0.2-0.3-0.2-0.5-0.3c-0.1,0-0.2-0.1-0.3-0.2c-0.1-0.1,0-0.2,0.2-0.3C42.3,56.7,42.4,56.6,42.4,56.5
		 M42.3,56.9c0,0,0.1,0.1,0.1,0.1c0,0,0-0.1,0.1-0.1C42.4,56.9,42.4,56.8,42.3,56.9z"/>
	<path class="st0" d="M44.3,76.1c0-0.1,0-0.1,0-0.1c-0.1-0.1-0.1-0.1-0.2-0.1c0.1,0,0.3,0,0.3,0c0.1,0.2,0.3,0.2,0.4,0.3
		c0.1,0,0.1,0.1,0.1,0.1c-0.1,0-0.1,0-0.2,0c-0.3,0-0.7,0-0.9,0.3c-0.1,0.1-0.6-0.1-0.6-0.2c0,0,0.1-0.1,0.2,0
		C43.9,76.6,44.1,76.3,44.3,76.1z"/>
	<path class="st0" d="M40.9,55.1c-0.1-0.2-0.2-0.4-0.3-0.6c0-0.1-0.1-0.1-0.1-0.2c0.1,0,0.1,0,0.2,0.1c0.2,0.2,0.3,0.4,0.7,0.5
		c0.1,0,0.2,0.3,0.2,0.3c-0.1,0.2-0.3,0.4-0.4,0.4C40.9,55.6,40.9,55.4,40.9,55.1z"/>
	<path class="st0" d="M58.7,53.6C58.8,53.6,58.8,53.6,58.7,53.6c0.3,0.2,0.5,0.5,0.9,0.6c0.1,0,0.2,0.2,0.2,0.3
		c-0.1,0.1-0.2,0.2-0.4,0.3c0,0-0.2-0.1-0.2-0.2C59.1,54.3,58.9,54,58.7,53.6z"/>
	<path class="st0" d="M30.1,58.7c0-0.1-0.1-0.1-0.1-0.1c0.2-0.3,0.1-0.6,0-0.8c0-0.1,0-0.2,0.1-0.2c0.1,0,0.2,0,0.3,0
		c0,0,0.1,0.2,0.1,0.2c0,0.2,0,0.5,0,0.7c0,0.1,0,0.2,0,0.3C30.3,58.8,30.2,58.7,30.1,58.7z"/>
	<path class="st0" d="M55.4,75.4c0.3-0.1,0.6-0.1,0.9-0.2c0.3,0,0.6,0,0.9-0.1c0,0,0.1,0,0.1,0c0,0-0.1,0.1-0.1,0.1
		c-0.6,0.1-1.2,0.4-1.9,0.2c0,0-0.1-0.1-0.1-0.1C55.3,75.5,55.4,75.4,55.4,75.4z"/>
	<path class="st0" d="M32.4,61.3c-0.3,0.2-0.4,0.1-0.4-0.2c0-0.2,0-0.4-0.1-0.7c0-0.1,0-0.1,0-0.2c0.1,0,0.2,0,0.2,0.1
		c0.1,0.2,0.2,0.3,0.1,0.5C32.2,61,32.3,61.1,32.4,61.3c0-0.1,0.1-0.2,0.1-0.3c0,0,0.1-0.1,0.1-0.1c0,0,0.1,0,0.2,0c0,0,0,0.1,0,0.1
		C32.7,61.2,32.5,61.2,32.4,61.3z"/>
	<path class="st0" d="M83.3,54.9c0,0.1,0.1,0.1,0.1,0.1c0,0-0.1,0-0.1,0c-0.2-0.2-0.5-0.3-0.8-0.4c-0.2-0.1-0.4-0.2-0.6-0.4
		c0,0,0-0.1,0-0.1c0,0,0.1,0,0.1,0c0.1,0,0.1,0.1,0.2,0.1c0.3,0,0.6,0.1,0.8,0.3C83,54.7,83.2,54.8,83.3,54.9z"/>
	<path class="st0" d="M46,61.7c-0.2,0-0.3,0.1-0.5,0.1c-0.1,0-0.2-0.1-0.3-0.1c0,0,0-0.1,0-0.1c0.1,0,0.2-0.1,0.3-0.1
		c0.3,0,0.6,0,0.9,0c0.1,0,0.2,0,0.2,0c0.1,0,0.1,0.1,0.2,0.2c-0.1,0-0.2,0.1-0.3,0.1C46.3,61.8,46.1,61.7,46,61.7z"/>
	<path class="st0" d="M79.9,52.7c0,0,0.1-0.1,0.1,0c0.2,0.1,0.5,0.2,0.7,0.4c0.1,0,0.2,0.1,0.2,0.2c0,0.1-0.1,0.2-0.1,0.2
		c-0.1,0-0.2,0-0.3-0.1C80.3,53.1,80.1,52.9,79.9,52.7z"/>
	<path class="st0" d="M40.6,61.3c0.3,0,0.6,0.1,0.8,0.1c0.1,0,0.2,0.1,0.3,0.1c-0.1,0-0.2,0.1-0.3,0.1c-0.2,0-0.5-0.1-0.7-0.1
		c0,0-0.1,0-0.1,0c-0.1,0-0.2,0-0.3,0C40.4,61.4,40.5,61.4,40.6,61.3z"/>
	<path class="st0" d="M88,51.8c0,0.1,0,0.1,0,0.1c0,0.1,0.1,0.2,0.1,0.3c-0.1,0-0.2,0-0.3-0.1c-0.1,0-0.1,0-0.2-0.1
		c-0.1-0.1-0.2-0.2-0.3-0.3c0,0,0.1-0.2,0.2-0.2C87.7,51.5,87.9,51.5,88,51.8z"/>
	<path class="st0" d="M12.4,54.6c0.1-0.1,0.1-0.3,0.2-0.3c0.2,0,0.2,0.1,0.2,0.2c0,0.2,0.1,0.3,0.2,0.5c0,0,0,0.1-0.1,0.2
		c0,0-0.1-0.1-0.1-0.1C12.6,54.9,12.5,54.8,12.4,54.6z"/>
	<path class="st0" d="M69.7,63.4c-0.2,0-0.4-0.1-0.6,0c-0.3,0-0.6,0.1-0.9,0.1c-0.1,0-0.2,0-0.2,0c0,0,0.1-0.1,0.1-0.1
		C68.6,63.2,69.2,63.1,69.7,63.4C69.7,63.4,69.7,63.4,69.7,63.4C69.7,63.4,69.7,63.4,69.7,63.4z"/>
	<path class="st0" d="M9.9,52.7c-0.1-0.1-0.1-0.1-0.2-0.2c0,0-0.1-0.1-0.1-0.1c0,0-0.1,0-0.1,0.1c0,0.1-0.1,0.2-0.1,0.3
		c0,0-0.1,0-0.1-0.1c0-0.1-0.1-0.3,0-0.4c0.1-0.1,0.2-0.2,0.4-0.1C9.9,52.3,10.1,52.5,9.9,52.7z"/>
	<path class="st0" d="M85,50c0.2,0.1,0.4,0.1,0.6,0.2c0.1,0,0.2,0.2,0.2,0.2c0,0-0.1,0.2-0.1,0.2c-0.1,0-0.2-0.1-0.3-0.2
		C85.2,50.3,85.1,50.2,85,50z"/>
	<path class="st0" d="M67.9,61.5c-0.1,0.1-0.2,0.1-0.3,0.2c0,0,0,0.1-0.1,0.2c0.1,0,0.1,0,0.2,0c0.1,0,0.3-0.1,0.4-0.1
		c0,0,0.1,0,0.1,0.1c0,0-0.1,0.1-0.1,0.1c-0.2,0-0.5,0-0.7,0.1c0,0-0.1,0-0.1,0c0,0,0-0.1,0.1-0.1c0.1-0.1,0.1-0.3,0.2-0.4
		c0.1-0.1,0.2-0.1,0.3-0.1C67.8,61.3,67.9,61.4,67.9,61.5z"/>
	<path class="st0" d="M35,74.2c0.1,0,0.2,0.1,0.2,0.1c-0.1,0.1-0.2,0.2-0.3,0.2c-0.3,0-0.6,0.1-0.8,0c0,0-0.1,0-0.1,0c0,0,0,0,0,0
		C34.4,74.3,34.7,74.2,35,74.2z"/>
	<path class="st0" d="M68.1,62.9c0,0,0.1,0.1,0.1,0.1c-0.1,0.2-0.5,0.2-0.6,0c-0.1-0.1-0.3-0.2-0.4-0.4c0,0-0.1-0.1-0.1-0.1
		c0.1,0,0.1-0.1,0.2-0.1c0,0,0.1,0.1,0.1,0.1C67.5,63,67.8,63,68.1,62.9z"/>
	<path class="st0" d="M35.5,74.5c0.2-0.2,0.4-0.4,0.7-0.3c0.1,0,0.1,0.1,0.2,0.1c-0.1,0-0.1,0-0.2,0c-0.1,0-0.2,0-0.3,0.1
		C35.8,74.8,35.6,74.6,35.5,74.5C35.5,74.6,35.5,74.6,35.5,74.5C35.5,74.5,35.5,74.5,35.5,74.5z"/>
	<path class="st0" d="M72.7,59.7c0.1,0,0.1,0,0.1,0C72.8,59.7,72.8,59.7,72.7,59.7c0.1,0.1,0.1,0.1,0,0.1c-0.4,0-0.3,0.3-0.3,0.5
		c0,0.1,0,0.1,0,0.2c0,0-0.1-0.1-0.1-0.1C72,60,72.1,59.8,72.7,59.7z"/>
	<path class="st0" d="M55.9,66.9c-0.2,0-0.4,0-0.6,0c-0.1,0-0.1,0-0.2-0.1c0.1,0,0.1-0.1,0.2-0.1c0.2,0,0.5,0,0.7-0.1
		c0.1,0,0.1,0,0.2,0C56.1,66.8,56,66.8,55.9,66.9C56,66.9,55.9,66.9,55.9,66.9z"/>
	<path class="st0" d="M8.5,52.8c-0.1-0.2,0-0.3,0.2-0.3c0.1,0,0.3,0,0.4,0c0,0,0,0.1,0,0.1C8.9,52.6,8.7,52.7,8.5,52.8z"/>
	<path class="st0" d="M73.3,75.5c-0.1,0-0.2,0-0.2,0c-0.1,0-0.1-0.1-0.2-0.1c0.1-0.1,0.1-0.1,0.2-0.2c0.1,0,0.1,0,0.2,0.1
		c0.1,0,0.2,0.1,0.3,0.1C73.5,75.5,73.4,75.5,73.3,75.5z"/>
	<path class="st0" d="M64.7,60.2c0.1,0,0.2,0.1,0.3,0.1c-0.1,0.1-0.1,0.1-0.2,0.2c0,0-0.1,0-0.1,0c-0.1,0-0.2,0-0.3,0
		c0,0,0-0.1,0-0.1C64.5,60.3,64.6,60.3,64.7,60.2z"/>
	<path class="st0" d="M70.9,73.6c-0.1,0.2-0.7,0.3-0.8,0.2c0,0,0-0.1,0-0.1c0,0,0.1-0.1,0.2-0.1C70.4,73.7,70.7,73.7,70.9,73.6z"/>
	<path class="st0" d="M37.3,74.7c-0.2,0-0.3-0.1-0.5-0.2c-0.1,0-0.1-0.1,0-0.1c0.1,0,0.2-0.1,0.3-0.2c0,0,0.1,0,0.1,0
		c0,0,0,0.1,0,0.1C37,74.5,37.1,74.5,37.3,74.7C37.3,74.6,37.3,74.7,37.3,74.7z"/>
	<path class="st0" d="M67.8,62.3c0.1,0,0.2,0.1,0.3,0.1c-0.1,0.1-0.1,0.2-0.2,0.2c-0.1,0-0.2-0.1-0.3-0.1
		C67.7,62.4,67.7,62.4,67.8,62.3z"/>
	<path class="st0" d="M30.8,58.2c0-0.2-0.1-0.3-0.1-0.4c0,0,0.1-0.1,0.1-0.1c0.1,0,0.2,0.1,0.2,0.1c0,0.1,0,0.3,0,0.5
		C30.8,58.3,30.8,58.3,30.8,58.2z"/>
	<path class="st0" d="M27.1,55.6c0.1-0.1,0.2-0.1,0.2-0.1c0.1,0,0.2,0.1,0.2,0.2c0,0.1-0.1,0.1-0.1,0.2
		C27.3,55.7,27.2,55.7,27.1,55.6z"/>
	<path class="st0" d="M59.7,75.1c-0.1,0-0.1,0-0.1-0.1c0,0,0.1-0.1,0-0.1c-0.1-0.2,0-0.2,0.1-0.2c0.1,0,0.2,0.1,0.2,0.1
		c0,0-0.1,0.1-0.1,0.1C59.7,75,59.7,75,59.7,75.1z"/>
	<path class="st0" d="M30.1,56.1c0.1,0,0.2,0,0.3,0.1c0,0.1,0,0.2,0,0.3c-0.1,0-0.2-0.1-0.3-0.1C30.1,56.3,30.1,56.2,30.1,56.1z"/>
	<path class="st0" d="M76,61.7c0.1,0,0.2,0,0.3,0.1c0.1,0,0.1,0.1,0.2,0.1c-0.1,0-0.1,0.1-0.2,0.1c-0.1,0-0.3-0.1-0.4-0.1
		c-0.1,0-0.1-0.1-0.1-0.2C75.9,61.6,75.9,61.6,76,61.7z"/>
	<path class="st0" d="M70.3,60.9c-0.1,0-0.2-0.1-0.3-0.1c0.1-0.1,0.1-0.1,0.2-0.2c0.2,0,0.3,0,0.5-0.1c0,0,0,0,0.1,0
		c0,0-0.1,0-0.1,0C70.6,60.7,70.4,60.8,70.3,60.9z"/>
	<path class="st0" d="M70.8,71.8c-0.1,0-0.2-0.1-0.2-0.1c0.1-0.1,0.1-0.1,0.2-0.2c0.1,0.1,0.2,0.1,0.2,0.2
		C70.9,71.7,70.9,71.8,70.8,71.8z"/>
	<path class="st0" d="M20,55.4c0,0.1-0.1,0.1-0.1,0.2c0,0-0.1-0.1-0.1-0.1c0,0,0-0.1,0-0.1c0-0.1,0.1-0.2,0.1-0.3c0,0,0.1,0,0.1,0
		C20,55.1,20,55.2,20,55.4z"/>
	<path class="st0" d="M78.4,61.4c0-0.1,0.1-0.2,0.1-0.2c0.1,0,0.2,0,0.3,0c0,0.1,0,0.1-0.1,0.2C78.6,61.4,78.5,61.4,78.4,61.4z"/>
	<path class="st0" d="M12.1,54.7c-0.1,0.1-0.2,0.1-0.3,0.1c0-0.1,0-0.2,0-0.3C11.9,54.6,12,54.6,12.1,54.7z"/>
	<path class="st0" d="M20.9,55.2c0,0.2-0.1,0.3-0.1,0.5c0,0,0,0,0,0c0,0,0,0,0-0.1c0-0.2,0-0.4,0-0.5c0-0.1,0.1-0.1,0.1-0.2
		C20.9,55,20.9,55.1,20.9,55.2z"/>
	<path class="st0" d="M41.8,56.3C41.8,56.3,41.8,56.3,41.8,56.3c0.1,0.2,0.2,0.2,0.2,0.3c-0.1,0-0.1-0.1-0.2-0.1
		c0,0-0.1-0.1-0.1-0.1c-0.1-0.1-0.1-0.2-0.2-0.3c0,0,0,0,0-0.1C41.6,56.1,41.7,56.2,41.8,56.3z"/>
	<path class="st0" d="M74.6,67.6c-0.1-0.1-0.2-0.2-0.3-0.3c0,0,0-0.1,0-0.1c0,0,0.1,0,0.1,0c0.1,0.1,0.2,0.2,0.4,0.4
		C74.7,67.6,74.7,67.6,74.6,67.6z"/>
	<path class="st0" d="M60.4,61.9c-0.1,0.2-0.3,0-0.5,0c0-0.1,0.1-0.2,0.1-0.2C60.1,61.8,60.2,61.9,60.4,61.9z"/>
	<path class="st0" d="M13.8,69.5C13.7,69.5,13.7,69.5,13.8,69.5c-0.1-0.1-0.1-0.3-0.2-0.4c0,0,0.1,0,0.1,0
		C13.7,69.3,14,69.4,13.8,69.5z"/>
	<path class="st0" d="M68.8,61.4c-0.1,0-0.1-0.1-0.1-0.1c0.1-0.1,0.2-0.2,0.4-0.2c0,0,0.1,0,0.1,0c0,0-0.1,0.1-0.1,0.1
		C69,61.2,69,61.3,68.8,61.4z"/>
	<path class="st0" d="M54.9,75.8c0.1,0.1,0.1,0.1,0.2,0.2c0,0-0.1,0-0.1,0c-0.1,0-0.2-0.1-0.3-0.1C54.8,75.9,54.9,75.8,54.9,75.8z"
		/>
	<path class="st0" d="M33.5,74.4c0-0.2,0-0.2,0.2-0.2c0.1,0,0.1,0,0.2,0.1c-0.1,0-0.1,0.1-0.2,0.1C33.6,74.4,33.6,74.4,33.5,74.4z"
		/>
	<path class="st0" d="M75.1,67.7c0.1,0,0.2,0.1,0.2,0.1c0,0-0.1,0.1-0.1,0.1c-0.1,0-0.2,0-0.2,0C74.9,67.8,75,67.7,75.1,67.7z"/>
	<path class="st0" d="M50.9,76c-0.1,0-0.2,0-0.2-0.1c0,0,0.1-0.1,0.1-0.1c0.1,0,0.2,0,0.3,0.1C51,75.9,51,75.9,50.9,76z"/>
	<path class="st0" d="M21.5,55.3c0-0.1,0-0.1,0-0.2c0-0.1,0-0.1,0.1-0.2c0,0.1,0.1,0.1,0.1,0.2C21.6,55.2,21.6,55.3,21.5,55.3z"/>
	<path class="st0" d="M66.5,63.3C66.5,63.2,66.5,63.2,66.5,63.3c0-0.1,0-0.2,0.1-0.1c0.1,0,0.2,0.1,0.3,0.1
		C66.8,63.2,66.7,63.3,66.5,63.3z"/>
	<path class="st0" d="M10.9,67.8c-0.1,0-0.2,0-0.2,0c0-0.1,0.1-0.1,0.1-0.2C10.8,67.7,10.8,67.7,10.9,67.8z"/>
	<path class="st0" d="M94.1,65.5c0,0.1,0.1,0.3,0.1,0.4c0,0-0.1,0-0.1,0C94,65.8,94,65.7,94.1,65.5z"/>
	<path class="st0" d="M45.8,64.9C45.8,64.9,45.8,64.9,45.8,64.9c-0.1-0.1-0.2-0.2-0.3-0.2c0,0,0.1,0,0.1,0
		C45.7,64.7,45.8,64.8,45.8,64.9z"/>
	<path class="st0" d="M51.5,75.7c0.1,0,0.2,0,0.2,0.1c0,0-0.1,0.1-0.1,0.1c-0.1,0-0.2,0-0.3,0C51.4,75.8,51.5,75.8,51.5,75.7z"/>
	<path class="st0" d="M74.7,68c-0.3,0.1-0.1-0.1-0.1-0.2c0,0,0.1-0.1,0.1-0.1C74.7,67.8,74.7,67.9,74.7,68z"/>
	<path class="st0" d="M93.9,65.2c0.1,0,0.2,0,0.2,0c0,0,0,0,0.1,0c0,0,0,0.1-0.1,0.1c-0.1,0-0.2,0-0.4,0
		C93.8,65.3,93.8,65.3,93.9,65.2z"/>
	<path class="st0" d="M40.9,59.6C40.9,59.6,40.9,59.6,40.9,59.6c0,0.1,0,0.2-0.1,0.3c0,0-0.1,0-0.1,0C40.7,59.7,40.8,59.6,40.9,59.6
		z"/>
	<path class="st0" d="M72.6,60.2c-0.1-0.2,0.1-0.2,0.2-0.2c0,0,0.1,0,0.1,0.1C72.8,60.2,72.7,60.2,72.6,60.2z"/>
	<path class="st0" d="M76.3,61.3c-0.1,0-0.1-0.1-0.2-0.1c0.1,0,0.1-0.1,0.2-0.1C76.3,61.2,76.3,61.3,76.3,61.3z"/>
	<path class="st0" d="M22.9,56.3c-0.1,0-0.2,0-0.3-0.1c0,0,0-0.1,0-0.1C22.7,56.2,22.8,56.2,22.9,56.3z"/>
	<path class="st0" d="M68.5,62.2c0.1,0,0.1,0.1,0.1,0.1c0,0,0,0.1,0,0.2c0,0-0.1,0-0.1,0c0,0-0.1-0.1-0.1-0.1
		C68.5,62.3,68.5,62.2,68.5,62.2z"/>
	<path class="st0" d="M46.7,62.3c0,0.1,0,0.2,0,0.2c0,0-0.1-0.1-0.1-0.1C46.6,62.4,46.5,62.2,46.7,62.3z"/>
	<path class="st0" d="M76.9,61.3C76.8,61.2,76.8,61.2,76.9,61.3c-0.1-0.1-0.1-0.2-0.1-0.3c0,0,0.1,0,0.1,0
		C76.8,61.1,76.9,61.2,76.9,61.3z"/>
	<path class="st0" d="M48.5,75.7c0.1,0.1,0.1,0.1,0.2,0.1c0,0-0.1,0-0.1,0c-0.1,0-0.2,0-0.2-0.1C48.4,75.8,48.4,75.8,48.5,75.7z"/>
	<path class="st0" d="M62.3,32.1c-0.2,0-0.1-0.2-0.1-0.3c0,0,0,0,0,0c0,0,0,0,0,0.1C62.3,31.9,62.3,32,62.3,32.1z"/>
	<path class="st0" d="M67.5,63.6c0.1,0,0.2,0,0.3,0.1c-0.1,0-0.2,0-0.3,0C67.5,63.7,67.5,63.7,67.5,63.6z"/>
	<path class="st0" d="M69.5,75.7C69.5,75.7,69.4,75.7,69.5,75.7c-0.2,0-0.2,0-0.3,0c0,0,0-0.1,0-0.1C69.3,75.6,69.4,75.7,69.5,75.7z
		"/>
	<path class="st0" d="M11.5,50.7c0.1,0,0.1,0.1,0.1,0.2c0,0-0.1,0-0.1,0.1C11.5,50.9,11.5,50.8,11.5,50.7z"/>
	<path class="st0" d="M36.7,61.4c0,0.1-0.1,0.2-0.1,0.2c0,0-0.1,0-0.1-0.1C36.6,61.5,36.7,61.5,36.7,61.4z"/>
	<path class="st0" d="M39.2,61.8c0.1,0,0.1,0,0.2,0c0,0,0,0.1-0.1,0.1C39.3,61.9,39.2,61.9,39.2,61.8z"/>
	<path class="st0" d="M75.3,67.2c0.1-0.1,0.1-0.1,0.2-0.2c0,0,0,0,0,0.1C75.4,67.2,75.3,67.2,75.3,67.2z"/>
	<path class="st0" d="M45.5,61c0.1,0,0.1,0.1,0.2,0.1c0,0-0.1,0-0.1,0C45.5,61.1,45.5,61.1,45.5,61z"/>
	<path class="st0" d="M45.5,62.3c0,0.1,0,0.1-0.1,0.2c0-0.1-0.1-0.1-0.1-0.2C45.4,62.3,45.5,62.3,45.5,62.3z"/>
	<path class="st0" d="M40.8,74.2c0.1,0,0.2,0,0.2,0c0,0,0,0,0,0.1C41,74.3,40.9,74.3,40.8,74.2z"/>
	<path class="st0" d="M66.1,63.2c0,0,0.1,0,0.1,0.1c0,0,0,0.1-0.1,0.1C66.1,63.3,66.1,63.3,66.1,63.2z"/>
	<path class="st0" d="M59.5,61.8c0,0-0.1-0.1-0.1-0.2c0,0,0.1,0,0.1,0C59.6,61.6,59.6,61.7,59.5,61.8z"/>
	<path class="st0" d="M11.4,67.4c0.1,0,0.2,0.1,0.2,0.1c0,0,0,0,0,0C11.5,67.5,11.4,67.5,11.4,67.4C11.3,67.4,11.3,67.4,11.4,67.4
		C11.3,67.4,11.3,67.4,11.4,67.4z"/>
	<path class="st0" d="M62.3,33.3c0,0,0,0.1,0,0.1c-0.1,0-0.1-0.1-0.2-0.1C62.1,33.3,62.2,33.2,62.3,33.3
		C62.2,33.2,62.2,33.2,62.3,33.3z"/>
	<path class="st0" d="M69.3,62.5C69.3,62.4,69.3,62.5,69.3,62.5c0.1,0.1,0.1,0.1,0.2,0.2c0,0-0.1,0-0.1,0
		C69.3,62.6,69.3,62.5,69.3,62.5z"/>
	<path class="st0" d="M93.2,69.3c-0.1,0-0.1,0-0.2,0C93.1,69.2,93.1,69.2,93.2,69.3C93.2,69.2,93.2,69.2,93.2,69.3
		c0.1-0.1,0.1,0,0.2,0C93.3,69.2,93.3,69.3,93.2,69.3z"/>
	<path class="st0" d="M49,59.3c0,0,0.1-0.1,0.1-0.1c0,0,0,0.1,0,0.1C49.1,59.3,49.1,59.3,49,59.3z"/>
	<path class="st0" d="M74.6,60.9c0,0,0,0.1,0,0.1c0,0-0.1,0-0.1,0C74.5,61,74.5,61,74.6,60.9z"/>
	<path class="st0" d="M54.8,66.9c-0.1,0-0.1,0-0.2,0c0,0,0-0.1,0.1-0.1C54.7,66.8,54.8,66.8,54.8,66.9z"/>
	<path class="st0" d="M43.8,58.4c-0.1-0.1-0.1-0.1-0.1-0.2C43.7,58.3,43.8,58.4,43.8,58.4z"/>
	<path class="st0" d="M36.4,58.2c0,0,0,0.1,0,0.1c0,0-0.1-0.1-0.1-0.1C36.3,58.2,36.3,58.2,36.4,58.2z"/>
	<path class="st0" d="M77.6,61.5C77.6,61.6,77.5,61.6,77.6,61.5c-0.1,0.1-0.2,0-0.2,0C77.4,61.6,77.4,61.5,77.6,61.5
		C77.5,61.5,77.6,61.5,77.6,61.5z"/>
	<path class="st0" d="M66.6,62.2c0-0.1-0.1-0.1-0.1-0.1C66.6,62.1,66.7,62.1,66.6,62.2C66.7,62.1,66.7,62.2,66.6,62.2z"/>
	<path class="st0" d="M10,67.3c0,0-0.1,0.1-0.1,0.1c0,0,0,0,0,0C9.9,67.3,9.9,67.3,10,67.3z"/>
	<path class="st0" d="M80.8,66.9C80.8,66.9,80.8,66.9,80.8,66.9c0,0.1-0.1,0.1-0.1,0.1C80.7,66.9,80.8,66.9,80.8,66.9z"/>
	<path class="st0" d="M52.4,69.1c-0.4,0-0.7,0-1-0.1c0,0-0.1-0.1-0.1-0.1c0,0,0.1-0.1,0.1-0.1c0.4,0,0.7,0,1.1-0.1c0,0,0.1,0,0.1,0
		c0.1,0.1,0.1,0.1,0.2,0.2c-0.1,0-0.1,0.1-0.2,0.1C52.6,69.2,52.5,69.1,52.4,69.1z"/>
	<path class="st0" d="M56.5,68.9c-0.2,0.1-0.3,0.2-0.5,0.3c-0.1,0.1-0.3,0.3-0.3-0.1c0,0-0.1-0.1-0.1-0.1c0,0,0-0.1,0-0.2
		c0.1,0,0.1,0,0.2,0c0.2,0.2,0.5,0.1,0.7-0.1C56.4,68.7,56.5,68.6,56.5,68.9z"/>
	<path class="st0" d="M58.9,68.9c0,0,0.1,0,0.1,0c0.1,0,0.2,0.1,0.2,0.1c-0.1,0.1-0.1,0.2-0.2,0.2C58.9,69.2,58.8,69,58.9,68.9
		C58.8,68.9,58.8,68.9,58.9,68.9z"/>
	<path class="st0" d="M54.1,69c0.2,0,0.3,0,0.5-0.1c0,0,0.1,0,0.1,0c0,0-0.1,0-0.1,0C54.4,69,54.3,69,54.1,69
		C54.1,69,54.1,69,54.1,69C54.1,69,54.1,69,54.1,69z"/>
	<path class="st0" d="M53.7,69c0.1,0,0.1,0,0.1,0c0,0,0,0.1-0.1,0.1c0,0-0.1,0-0.1,0C53.6,69.1,53.6,69.1,53.7,69z"/>
	<path class="st0" d="M58.2,69.2c0-0.1,0-0.1,0-0.1c0.1,0.1,0.1,0.2,0.2,0.3C58.4,69.3,58.3,69.3,58.2,69.2z"/>
	<path class="st0" d="M60.5,67.8c0,0.1,0,0.1-0.1,0.1c0,0-0.1,0-0.1,0C60.3,67.8,60.4,67.8,60.5,67.8z"/>
	<path class="st0" d="M56.7,68.3c0,0,0.1-0.1,0.1-0.1c0,0.1,0,0.1,0,0.2C56.8,68.4,56.7,68.4,56.7,68.3z"/>
	<path class="st0" d="M59.4,68.4c0.1,0,0.1,0.1,0.2,0.1c0,0,0,0,0,0C59.5,68.5,59.4,68.4,59.4,68.4z"/>
	<path class="st0" d="M60.7,69.1c0,0-0.1,0-0.2,0.1c0,0,0,0,0,0C60.5,69.1,60.6,69.1,60.7,69.1z"/>
	<path class="st0" d="M59,68.3c0.1,0,0.1,0,0.2,0c0,0,0,0.1,0,0.1C59.1,68.3,59.1,68.3,59,68.3z"/>
	<path class="st0" d="M29,68.4c-0.4,0-0.8,0-1.1-0.1c0,0-0.1,0-0.1,0c0,0,0.1-0.1,0.1-0.1c0.2,0,0.4,0,0.7,0c0.3,0,0.5,0.1,0.7-0.3
		c0-0.1,0.3-0.1,0.5-0.1c0.1,0,0.3,0.1,0.4-0.2c0,0,0.1,0,0.1-0.1c0,0,0.1,0.1,0,0.1c0,0.2,0,0.3-0.1,0.5c-0.1,0.3-0.1,0.6-0.2,0.9
		c0,0.1-0.1,0.2-0.1,0.2c0-0.1-0.1-0.2-0.1-0.2c0-0.2,0-0.3,0-0.5c0-0.2-0.1-0.4-0.3-0.4C29.4,68.2,29.2,68.3,29,68.4z"/>
	<path class="st0" d="M29.1,68.9c0.1,0.1,0.2,0.1,0.2,0.2c0,0.1,0,0.1,0,0.2c-0.1,0-0.1-0.1-0.2-0.1c-0.2-0.1-0.4-0.3-0.7-0.1
		c-0.1,0-0.2,0-0.4,0c-0.5-0.2-0.9-0.1-1.4,0c-0.2,0.1-0.4,0-0.7,0c0,0-0.1-0.1-0.1-0.1c0,0,0.1,0,0.1,0c0.1,0,0.3,0,0.4,0
		c0.1,0,0.2,0,0.2-0.2c0,0,0.2-0.1,0.3-0.1c0.7,0,1.3,0.1,2,0.2C28.9,68.9,29,68.9,29.1,68.9z"/>
	<path class="st0" d="M24,68.6c-0.1-0.1-0.2-0.1-0.1-0.2c0.1-0.1,0.2-0.1,0.3-0.1c0.3,0.2,0.6-0.1,0.9-0.1c0.1,0,0.2,0.1,0.4,0.2
		c-0.1,0.1-0.1,0.2-0.2,0.3c-0.3,0.2-0.6,0.1-0.9,0.1C24.3,68.7,24.2,68.7,24,68.6z"/>
	<path class="st0" d="M31.9,68.9c0,0,0,0.1,0,0.1c-0.4,0-0.7,0-1.1,0c-0.1,0-0.3-0.1-0.4-0.1c-0.1,0-0.1-0.1-0.2-0.1
		c0.1-0.1,0.2-0.2,0.2-0.1C31,68.7,31.5,68.8,31.9,68.9z"/>
	<path class="st0" d="M24.6,68.1c-0.4,0-0.8,0-1.2,0c0,0-0.1,0-0.1-0.1c0,0,0.1,0,0.1-0.1c0.1-0.1,0.5,0,0.4-0.4c0,0,0.1,0,0.1,0
		c0.1,0,0.1,0.1,0.1,0.1c0,0.3,0.2,0.3,0.5,0.3C24.6,67.9,24.6,68,24.6,68.1z"/>
	<path class="st0" d="M44.7,69.5c0,0.1,0,0.2,0.1,0.3c-0.1,0-0.3,0-0.4,0c0-0.1,0.1-0.2,0.1-0.2C44.5,69.5,44.6,69.5,44.7,69.5z"/>
	<path class="st0" d="M31.3,68.1c0.1,0.1,0.2,0.1,0,0.2c-0.1,0-0.3,0-0.4,0c0,0,0,0-0.1-0.1C31,68.2,31.1,68.2,31.3,68.1z"/>
	<path class="st0" d="M28.5,67.7c0.1-0.2,0.4-0.2,0.5-0.1c0,0,0,0.1,0,0.1C28.8,67.7,28.7,67.7,28.5,67.7z"/>
	<path class="st0" d="M36.4,69.5c0,0.1-0.1,0.2-0.1,0.2c0-0.1,0-0.1,0-0.2c0-0.1,0-0.2,0-0.4c0,0,0-0.1,0-0.1c0,0,0.1,0.1,0.1,0.1
		C36.5,69.3,36.4,69.4,36.4,69.5z"/>
	<path class="st0" d="M26.3,68c0.1,0,0.1,0,0.2,0c0.1,0.1,0.2,0.1,0.2,0.2c0,0-0.1,0-0.1,0C26.5,68.2,26.4,68.1,26.3,68
		C26.3,68,26.3,68,26.3,68z"/>
	<path class="st0" d="M41.4,69.5c0,0.1,0,0.2,0,0.3c0,0,0,0.1,0,0.1c0,0-0.1-0.1-0.1-0.1c0-0.1,0-0.3,0-0.4
		C41.3,69.4,41.3,69.4,41.4,69.5z"/>
	<path class="st0" d="M26,68c0,0.1,0,0.1,0,0.2c-0.1,0-0.2,0-0.4,0c0,0,0-0.1,0-0.1C25.8,68,25.9,68,26,68z"/>
	<path class="st0" d="M35.5,69.3c0,0.1-0.1,0.2-0.1,0.3c0,0,0,0,0,0c0-0.2,0-0.3,0-0.5c0,0,0.1,0,0.1,0
		C35.5,69.2,35.5,69.2,35.5,69.3z"/>
	<path class="st0" d="M34.2,69.2c-0.1,0-0.1,0-0.2,0c0,0,0-0.1,0-0.1C34,69.2,34.1,69.2,34.2,69.2z"/>
	<path class="st0" d="M27.5,68.2c0,0-0.1,0-0.2,0.1c0,0,0-0.1,0-0.1C27.3,68.2,27.4,68.2,27.5,68.2z"/>
	<path class="st0" d="M42.1,69.7c0,0,0,0.1,0,0.1c0,0,0,0-0.1,0C42,69.8,42,69.7,42.1,69.7z"/>
	<path class="st0" d="M34.9,69.5c0.1,0,0.1,0,0.1,0.1c0,0,0,0-0.1,0.1C34.9,69.6,34.9,69.5,34.9,69.5z"/>
	<path class="st0" d="M22.3,68.6c0.1,0,0.1,0,0.2,0c0,0,0,0.1-0.1,0.1C22.3,68.6,22.3,68.6,22.3,68.6z"/>
	<path class="st0" d="M27.7,65.4c0.1,0.1,0.2,0.3,0.2,0.4c0,0.3-0.3,0.3-0.5,0.2c-0.2,0-0.2-0.2-0.2-0.4
		C27.2,65.4,27.4,65.3,27.7,65.4z"/>
	<path class="st0" d="M33.3,65.7c0.2,0.2,0.2,0.4,0,0.6c-0.1,0.1-0.3,0.2-0.4,0.2c-0.2,0-0.3-0.2-0.2-0.4
		C32.7,65.8,33,65.6,33.3,65.7z"/>
	<path class="st0" d="M14.2,58.7c0.2,0,0.4,0,0.6,0c0.3,0,0.6,0.1,0.8,0.2c0,0,0,0.1,0,0.1c0,0-0.1,0-0.1,0c-0.2,0-0.4,0-0.6-0.1
		c0,0-0.1-0.1-0.1,0c-0.1,0-0.2,0.1-0.3,0.1c0.1,0.1,0.1,0.1,0.2,0.2c0.3,0.1,0.6,0.1,0.8,0.2c0,0,0.1,0.1,0.1,0.1
		c0,0-0.1,0.1-0.1,0.1c-0.4,0-0.7,0-1.1,0c-0.1,0-0.2-0.2-0.2-0.3c0-0.2-0.1-0.3-0.3-0.4c-0.1,0-0.1-0.1-0.2-0.1
		C14.1,58.7,14.2,58.7,14.2,58.7z"/>
	<path class="st0" d="M13.8,59.1c0.1,0.1,0.3,0.1,0.3,0.2c0,0.1-0.1,0.3-0.2,0.3c-0.1,0.1-0.2,0-0.4,0c0-0.1,0-0.3,0-0.4
		C13.7,59.2,13.8,59.1,13.8,59.1z"/>
	<path class="st0" d="M61.5,66.2c0-0.1,0-0.2,0-0.4c0-0.1,0.1-0.2,0.1-0.2c0,0.1,0.1,0.1,0.1,0.2c0,0.1,0.1,0.3,0,0.4
		c-0.1,0.3-0.7,0.4-0.9,0.2c0,0,0-0.2,0-0.2c0.2-0.2,0.3-0.4,0-0.6c0,0,0,0,0,0c0,0,0.1,0,0.1,0c0.1,0,0.1-0.1,0.2-0.1
		c0.1,0,0.1,0,0.2,0c0,0.1,0,0.1,0,0.2c0,0.1,0,0.3,0,0.4C61.2,66.2,61.4,66.2,61.5,66.2z"/>
	<path class="st0" d="M13.5,67.5c-0.1,0.1-0.1,0.1-0.2,0.1c-0.1,0-0.2-0.1-0.2-0.1c0,0,0-0.1,0-0.1c0.1,0,0.2,0,0.3,0
		C13.4,67.3,13.5,67.4,13.5,67.5z"/>
	<path class="st0" d="M20.9,64.8c0.3-0.1,0.4,0.2,0.4,0.3c0,0.1-0.2,0.3-0.3,0.3c-0.2,0.1-0.3-0.1-0.3-0.3
		C20.7,65,20.7,64.9,20.9,64.8z"/>
	<path class="st0" d="M24.9,66.3C24.8,66.3,24.8,66.3,24.9,66.3c-0.1,0-0.2,0-0.3,0c0,0,0,0,0-0.1C24.7,66.2,24.8,66.3,24.9,66.3z"
		/>
	<path class="st0" d="M17.6,64.8C17.6,64.9,17.5,64.9,17.6,64.8c-0.1,0.3-0.3,0.3-0.5,0.3c-0.1,0-0.1-0.1-0.1-0.2
		c0-0.2,0-0.4,0.2-0.5C17.4,64.4,17.5,64.5,17.6,64.8z"/>
	<path class="st0" d="M26.3,57c0,0,0.1,0,0.1,0c0,0,0,0.1,0,0.1C26.3,57.1,26.3,57,26.3,57z"/>
	<path class="st0" d="M28.5,66.3c0.1,0.1,0.2,0.1,0.2,0.2c-0.1,0-0.2,0-0.3,0c-0.1,0-0.2,0-0.3-0.1C28.3,66.4,28.4,66.4,28.5,66.3z"
		/>
	<path class="st0" d="M42.6,34.2c0.1,0,0.1,0.1,0.2,0.2c0,0,0,0,0,0.1C42.7,34.4,42.7,34.3,42.6,34.2z"/>
	<path class="st0" d="M60.3,37.3c-0.1,0-0.2-0.1-0.2-0.1c0,0,0,0,0-0.1C60.1,37.2,60.2,37.3,60.3,37.3z"/>
</g>
</svg>
