<?xml version="1.0" encoding="utf-8"?>
<!-- Generator: Adobe Illustrator 20.1.0, SVG Export Plug-In . SVG Version: 6.00 Build 0)  -->
<svg version="1.1" id="Layer_1" xmlns="http://www.w3.org/2000/svg" xmlns:xlink="http://www.w3.org/1999/xlink" x="0px" y="0px"
	 viewBox="0 0 100 100" style="enable-background:new 0 0 100 100;" xml:space="preserve">
<g id="Shape_23">
	<path d="M59.8,59c0.5,0.4,1,0.8,1.4,1.4c0,0.1,0.1,0.1,0.2,0.1c0-0.1,0-0.1,0-0.2c-0.2-0.4-0.4-0.8-0.5-1.1c0,0-0.1,0-0.1-0.1
		c0,0,0-0.1,0-0.1c0.7-0.1,1.3-0.4,2-0.6c0.7-0.2,1.4-0.4,2.1-0.6c0.6-0.2,1.2-0.4,1.8-0.6c0.5-0.2,1.1-0.3,1.6-0.5
		c0.3-0.1,0.7-0.2,1-0.4c0,0,0.1,0,0.1,0c0.1,0,0.2,0,0.3,0c-0.1,0.1-0.1,0.1-0.2,0.2c-0.5,0.2-1,0.5-1.5,0.7
		c-0.3,0.2-0.6,0.3-1,0.5c-0.3,0.2-0.6,0.3-0.9,0.5c-0.8,0.4-1.5,0.8-2.3,1.2c-0.5,0.3-1,0.5-1.6,0.8c-0.1,0-0.2,0.1-0.3,0.1
		c-0.2,0-0.2,0.2-0.1,0.3c0.3,0.3,0.3,0.8,0.5,1.1c0.2,0.3,0,0.6,0.1,0.8c0.1,0.2,0.1,0.3,0.2,0.5c0,0,0.1,0.1,0.1,0.1
		c0,0,0-0.1,0-0.1c0-0.2-0.1-0.5-0.1-0.7c0-0.2,0-0.2,0.2-0.2c0.2,0,0.4,0,0.6,0c0.5,0,1,0.1,1.5,0.1c0,0,0.1,0,0.1,0
		c0.6,0,1.3,0,1.9,0c0.7,0,1.4,0,2.2,0c0.7,0,1.4,0.1,2.1,0.1c0.5,0,1.1,0,1.6,0c0.1,0,0.1,0,0.2,0.1c-0.1,0-0.1,0.1-0.2,0.1
		c-0.3,0-0.5,0-0.8,0c-0.3,0-0.7,0.1-1,0.1c-0.4,0-0.7,0.1-1.1,0.2c-0.4,0.1-0.9,0.1-1.3,0.2c-0.3,0-0.6,0.1-0.9,0.1
		c-0.5,0.1-0.9,0.1-1.4,0.2c-0.1,0-0.2,0-0.3,0c-0.6,0.1-1.2,0.2-1.8,0.2c-0.2,0-0.3,0-0.5,0c-0.1,0-0.3,0-0.4,0.1
		c0,0-0.1,0.1-0.1,0.2c0,0.5,0.1,1.1,0.1,1.6c0,0.5-0.1,0.9-0.2,1.4c0,0.1,0,0.2,0,0.2c0.2,0.3,0.1,0.6,0.1,0.9
		c0,0.2-0.1,0.2-0.3,0.2c-0.1,0-0.3,0-0.3,0.1c-0.1,0.1,0,0.2,0.1,0.3c0.1,0.2,0.2,0.5,0.3,0.7c0.1,0.6,0.2,1.2,0.3,1.8
		c0,0.1,0,0.1,0,0.2c0,0.1,0,0.1,0,0.2c-0.1-0.1-0.1-0.1-0.2-0.2c-0.1-0.2-0.1-0.4-0.2-0.6c-0.1-0.2-0.1-0.4-0.3-0.5
		c-0.2-0.1-0.2,0-0.2,0.1c-0.1,0.4-0.1,0.7-0.1,1.1c0,0.2-0.1,0.5-0.4,0.6c-0.2,0.1-0.3,0.4-0.3,0.7c0,0.2,0,0.3,0,0.5
		c0,0.1-0.1,0.1-0.1,0.1c-0.4,0-0.4,0.1-0.3,0.5c0.1,0.3,0.3,0.7,0.3,1c0.1,0.6,0.3,1.2,0.6,1.8c0.1,0.3,0.3,0.7,0.5,1
		c0,0,0.1,0.1,0.1,0.1c0,0,0-0.1,0-0.1c0-0.1-0.1-0.3-0.1-0.4c0-0.1-0.1-0.2,0.1-0.2c0.1,0,0.3-0.1,0.2-0.3
		c-0.2-0.4-0.3-0.9-0.5-1.4c-0.1-0.4-0.2-0.9-0.3-1.3c0,0,0-0.1,0-0.1c0,0,0.1,0.1,0.1,0.1c0.1,0.5,0.3,1,0.4,1.4
		c0.2,0.5,0.4,1,0.6,1.5c0.3,0.7,0.6,1.3,0.9,2c0.2,0.4,0.4,0.9,0.6,1.3c0.3,0.5,0.6,0.9,0.9,1.3c0.1,0.1,0.2,0.2,0.3,0.3
		c0.1,0.2,0.3,0.2,0.5,0.1c0.1-0.1,0.2-0.2,0.4-0.2c0.1,0,0.2,0,0.3,0c0.2,0.1,0.3,0.5,0.2,0.7c0,0,0,0,0,0c0,0.1-0.1,0.2-0.1,0.3
		c-0.1,0-0.2-0.1-0.3-0.1c-0.2-0.1-0.4-0.1-0.5-0.2c-0.1-0.1-0.2-0.1-0.3-0.2c0,0-0.1-0.1-0.1-0.1c0,0.1,0,0.1,0,0.2
		c0,0.1,0,0.2,0,0.3c0,0.1,0,0.2-0.1,0.3c-0.3,0.5-0.5,0.5-1,0.4c-0.2,0-0.4-0.1-0.5-0.2c-0.1,0-0.1-0.1-0.2-0.2
		c0-0.1,0-0.3-0.2-0.3c0,0,0-0.1,0-0.1c0,0,0.1,0,0.1,0c0.1,0.1,0.2,0.2,0.2,0.2c0.3-0.1,0.6,0.1,0.9-0.1c0,0,0.1,0,0.2,0
		c0.1,0,0.1,0,0.2,0c0-0.1,0-0.1,0-0.2c0-0.1-0.1-0.2,0-0.4c0.1-0.1,0-0.6-0.3-0.7c-0.1,0-0.2,0-0.2,0c-0.3,0.3-0.6,0.2-0.9,0.1
		c-0.4-0.1-0.8-0.1-1.1-0.2c-0.3,0-0.5-0.1-0.8-0.2c-0.1-0.1-0.3-0.1-0.5-0.1c0,0-0.1,0-0.1,0.1c-0.2,0.2-0.2,0.2-0.5,0.1
		c-0.5-0.3-0.7-0.8-0.8-1.3c-0.1-0.4-0.1-0.7-0.2-1.1c0-0.1-0.1-0.1-0.1-0.2c-0.1-0.1-0.2-0.2,0.1-0.3c0,0,0.1-0.1,0.1-0.1
		c0-0.2,0-0.4,0-0.6c0-0.1,0-0.1,0.1-0.2c0,0.1,0.1,0.1,0.1,0.2c0.1,0.5,0.1,1.1,0.2,1.6c0.1,0.6,0.2,1.2,0.7,1.6
		c0.2,0.2,0.3,0.2,0.5,0c0.2-0.1,0.4-0.3,0.7-0.2c0,0,0.1,0,0.1,0c0,0,0-0.1-0.1-0.1c-0.2-0.3-0.4-0.7-0.6-1
		c-0.1-0.2-0.1-0.4-0.2-0.5c-0.1-0.2-0.2-0.3-0.4-0.3c-0.1,0-0.2-0.1-0.3-0.2c-0.2-0.4-0.3-0.8-0.4-1.2c0-0.1-0.1-0.2-0.2-0.2
		c-0.3,0.1-0.2-0.2-0.2-0.3c-0.1-0.5-0.1-1-0.2-1.5c-0.1-0.3-0.2-0.6-0.2-0.9c0-0.1,0-0.2,0-0.3c0,0-0.1-0.1-0.1-0.1
		c0,0-0.1,0-0.1,0.1c-0.2,0.3-0.5,0.7-0.7,1c-0.1,0.1-0.2,0.2-0.2,0.4c0,0.1-0.1,0.2,0,0.3c0.1,0.1,0.1,0.2,0.1,0.3
		c0,0,0,0.1,0.1,0.1c0,0,0-0.1,0-0.1c0-0.1-0.1-0.2-0.1-0.3c0,0,0-0.1,0-0.1c0,0,0.1,0,0.1,0.1c0.3,0.3,0.2,0.6,0.2,0.9
		c0,0.4,0,0.4,0.4,0.5c0.3,0.1,0.5,0.3,0.5,0.6c0,0.1,0,0.3,0,0.4c0,0.1,0,0.2-0.1,0.3c0,0,0,0.2,0,0.3c0.1,0.2,0.1,0.3,0,0.4
		c-0.1,0-0.1,0.2-0.1,0.3c0,0.2-0.1,0.4-0.1,0.5c-0.1,0.2-0.3,0.3-0.5,0.3c-0.4,0.1-0.5,0.4-0.6,0.7c0,0,0,0.1,0,0.1
		c-0.3,0.1-0.2,0.4-0.3,0.5c0,0-0.1,0.1-0.1,0.1c0,0-0.1-0.1-0.1-0.1c0-0.2,0-0.4-0.1-0.6c0-0.1-0.1-0.2-0.1-0.2
		c-0.1,0.1-0.1,0.1-0.2,0.2c0,0.2-0.1,0.4-0.1,0.6c0,0.1-0.1,0.1-0.1,0.2c0-0.1-0.1-0.1-0.1-0.2c0-0.7,0-1.3,0-2c0-0.4,0-0.8,0-1.1
		c0-0.1,0-0.2,0-0.3c0-0.1,0.1-0.1,0.1-0.2c0.1,0.1,0.1,0.1,0.2,0.2c0,0.2,0.1,0.4,0.1,0.5c0,0,0,0.1,0.1,0.1c0,0,0.1-0.1,0.1-0.1
		c0-0.2,0.1-0.5,0-0.7c-0.1-0.2,0.1-0.4,0.1-0.6c0,0,0.1-0.1,0.1-0.1c0.2,0.1,0.2-0.1,0.2-0.2c0-0.5,0-1,0.2-1.4c0,0,0-0.1,0-0.1
		c0,0-0.1,0-0.1,0c-0.2,0.2-0.3,0.3-0.5,0.5c-0.3,0.3-0.6,0.6-0.8,0.9c-0.4,0.4-0.8,0.8-1.1,1.3c-0.4,0.5-0.8,1-1.2,1.4
		c0,0,0,0.1-0.1,0.1c-0.1,0.2-0.3,0.3-0.4,0.5c-0.2,0.2-0.4,0.5-0.6,0.7c-0.5,0.4-0.8,0.5-1.3,0.1c-0.4-0.4-0.9-0.7-1.4-1
		c-0.1-0.1-0.1-0.2-0.2-0.3c-0.1-0.1-0.1-0.2-0.2-0.3c-0.1-0.1-0.2-0.3-0.2-0.5c0-0.3-0.1-0.5-0.4-0.6c-0.1,0-0.2-0.1-0.2-0.2
		c-0.1-0.2-0.2-0.3-0.4-0.4c-0.1,0-0.2-0.1-0.3-0.2c-0.1-0.2-0.1-0.4-0.2-0.6c-0.1-0.3-0.3-0.6-0.5-0.8c-0.4-0.4-0.7-0.8-1.1-1.3
		c-0.3-0.3-0.5-0.7-0.7-1.1c-0.2-0.4-0.6-0.7-1-0.9c-0.5-0.2-0.8-0.6-1.1-0.9c-0.2-0.2-0.3-0.3-0.4-0.5c-0.1-0.1-0.2-0.2-0.3-0.4
		c-0.2-0.2-0.3-0.4-0.5-0.5c-0.2-0.2-0.3,0-0.5,0.1c-0.2,0.1-0.5,0.2-0.7,0.3c0,0-0.1,0-0.1,0c0.1-0.1,0.1-0.2,0.2-0.3
		c0.2-0.2,0.6-0.3,0.9-0.3c0.1,0,0.3,0.1,0.4,0.2c0.4,0.4,0.7,0.8,1,1.1c0.2,0.2,0.4,0.4,0.6,0.6c0.2,0.2,0.4,0.2,0.5,0
		c0.3-0.4,0.6-0.9,0.9-1.3c0.5-0.8,0.9-1.5,1.4-2.3c0,0,0-0.1,0-0.1c-0.1,0-0.1,0-0.2,0c-0.1,0.1-0.2,0.3-0.4,0.4
		c-0.3,0.2-0.5,0.1-0.7-0.2c-0.1-0.2-0.2-0.4-0.2-0.7c0-0.5,0-1.1,0.1-1.6c0-0.2,0-0.4,0.1-0.5c0.1-0.2,0-0.6,0.3-0.8
		c0,0,0-0.2,0-0.3c0-0.3-0.3-0.6-0.6-0.5c-0.7,0-1.4,0.1-2.1,0.2c-0.1,0-0.1,0-0.2,0c-0.7,0-1.4,0-2.1,0c-0.2,0-0.4,0-0.5,0
		c-0.4,0-0.5-0.1-0.6-0.4C41,64.1,41,64,41.3,64c0.6-0.1,1.2-0.3,1.8-0.4c0.4-0.1,0.8-0.1,1.2-0.2c0.3,0,0.6-0.1,0.9-0.1
		c0.3,0,0.6-0.1,0.9-0.1c0.2,0,0.2-0.1,0.2-0.3c-0.1-0.2-0.1-0.4-0.1-0.7c0-0.1,0-0.2,0-0.3c0-0.5,0-0.5-0.5-0.5
		c-0.6,0-1.2-0.1-1.8-0.1c-0.5,0-1.1-0.1-1.6-0.1c-0.7-0.1-1.4-0.1-2.1-0.1c-0.4,0-0.9-0.1-1.3-0.1c-0.2,0-0.2-0.1-0.2-0.2
		c0-0.1,0.1-0.2,0.2-0.2c0.4,0,0.9,0,1.3,0c0.6,0,1.2-0.1,1.8-0.1c0.4,0,0.7,0,1.1-0.1c0.4,0,0.9,0,1.3,0c0.6,0,1.2-0.1,1.8-0.1
		c0.1,0,0.2-0.1,0.2-0.2c0.2-0.4,0.3-0.7,0.5-1.1c0.1-0.2,0.2-0.3,0.3-0.5c0.2-0.2,0.1-0.3-0.1-0.5c-0.6-0.5-1.2-0.9-1.8-1.4
		c-0.4-0.3-0.8-0.6-1.3-0.9c-0.5-0.4-1-0.8-1.5-1.2c-0.8-0.6-1.5-1.2-2.3-1.7c-0.2-0.1-0.3-0.2-0.4-0.3c0,0-0.1-0.1-0.1-0.1
		c0.1,0,0.1,0,0.2,0c0.5,0.3,1.1,0.6,1.6,0.9c0.5,0.3,1.1,0.6,1.6,0.9c0.4,0.2,0.8,0.5,1.2,0.7c0.4,0.2,0.8,0.4,1.2,0.6
		c0.6,0.3,1.2,0.7,1.7,1c0.3,0.2,0.7,0.4,1,0.6c0.1,0.1,0.2,0.1,0.3,0.2c-0.1,0.1-0.2,0.2-0.3,0.3c-0.3,0.4-0.7,0.8-1,1.1
		c0,0.1-0.1,0.1-0.1,0.2c0.1,0,0.2,0,0.2,0c0.3-0.2,0.5-0.4,0.8-0.6c0.5-0.3,1-0.6,1.5-0.7c0.2-0.1,0.5-0.1,0.7-0.2
		c0.1,0,0.2-0.1,0.3-0.2c0.3-0.3,0.6-0.6,0.8-0.9c0.1-0.1,0.1-0.2,0.1-0.3c-0.1-0.6-0.3-1.1-0.4-1.7c-0.2-0.8-0.4-1.5-0.6-2.3
		c-0.1-0.5-0.3-1-0.4-1.5c-0.1-0.5-0.2-0.9-0.3-1.4c-0.1-0.2-0.1-0.5-0.2-0.7c0-0.1,0-0.1,0.1-0.2c0,0,0.1,0.1,0.1,0.1
		c0.3,0.6,0.5,1.3,0.8,1.9c0.1,0.3,0.3,0.6,0.5,0.9c0.2,0.4,0.4,0.8,0.5,1.2c0.1,0.2,0.3,0.4,0.4,0.6c0.2,0.3,0.3,0.6,0.4,1
		c0.3,0.6,0.5,1.3,0.8,1.9c0,0.1,0.1,0.2,0.2,0.3c0.2,0.2,0.1,0.2-0.1,0.2c-0.4,0.2-0.8,0.4-1.1,0.6c0,0-0.1,0.1-0.1,0.1
		c0.1,0,0.1,0.1,0.2,0.1c0.3,0,0.6,0,1,0c0.7,0,1.3,0.1,2,0.3c0.7,0.2,1.3,0.4,2,0.6c0.1,0,0.1,0,0.2,0c0-0.1,0-0.1-0.1-0.2
		c-0.2-0.3-0.4-0.5-0.6-0.8c-0.2-0.2-0.3-0.4-0.6-0.4c0,0-0.1,0-0.1-0.1c0,0,0.1,0,0.1,0c0.2,0,0.3,0.1,0.5,0.1c0.1,0,0.2,0,0.2-0.1
		c0.5-0.5,0.9-1,1.4-1.6c0.4-0.4,0.7-0.9,1.1-1.4c0.2-0.2,0.4-0.4,0.6-0.6c0.4-0.5,0.8-1,1.2-1.5c0.2-0.2,0.4-0.4,0.5-0.7
		c0,0,0.1,0,0.2-0.1c0,0.1,0,0.1,0,0.2c-0.2,0.4-0.4,0.7-0.5,1.1c-0.2,0.4-0.4,0.7-0.6,1.1c-0.4,0.7-0.7,1.4-1.1,2.1
		c-0.2,0.4-0.4,0.8-0.7,1.3c-0.1,0.3-0.3,0.5-0.4,0.8c-0.1,0.2-0.1,0.3,0,0.5c0.1,0.2,0.2,0.4,0.2,0.7c0.1,0.3,0.3,0.5,0.5,0.7
		C59.6,58.9,59.7,59,59.8,59 M48.1,71.3c-0.1,0.1-0.1,0.3-0.2,0.4c0,0,0,0,0,0C48,71.6,48,71.4,48.1,71.3
		C48.1,71.3,48.1,71.3,48.1,71.3c0.1,0,0.1-0.1,0.1-0.1c0-0.1,0-0.1,0-0.2C48.1,71.1,48.1,71.2,48.1,71.3 M61.3,66.7
		c0,0.1,0,0.2,0,0.3c0,0,0.1,0.1,0.1,0.1c0,0,0.1,0,0.1-0.1c0.1-0.2,0.3-0.2,0.5-0.3c0,0,0.1,0,0.2,0.1c0,0-0.1,0.1-0.1,0.1
		c-0.2,0-0.3,0.2-0.3,0.3c0,0.1,0.1,0.2,0.2,0.3c0.1,0.1,0.2,0.3,0.2,0.3c0,0,0,0.1,0,0.1c0,0,0.1,0,0.1,0c0.1,0,0.2-0.1,0.4-0.1
		c0.4-0.1,0.4-0.3,0.2-0.5c-0.2-0.3-0.4-0.6-0.5-1c-0.2-0.3-0.3-0.7-0.5-1c-0.1-0.2-0.2-0.4-0.4-0.5c-0.1-0.1-0.3,0-0.1-0.2
		c0,0,0-0.1,0-0.1c-0.2-0.3-0.1-0.6-0.1-0.9c0-0.1,0-0.1,0-0.2c-0.1,0-0.2,0.1-0.2,0.1c-0.1,0-0.2,0.1-0.3,0.1
		c-0.2-0.2-0.4-0.3-0.6-0.5c-0.3-0.3-0.5-0.6-0.8-0.8c0,0-0.1,0-0.2-0.1c0,0.1,0,0.1,0,0.2c0.1,0.2,0.2,0.3,0.2,0.5
		c0.2,0.5,0.3,1,0.4,1.5c0,0.1,0.1,0.2,0.2,0.3c0.1,0,0.2,0,0.3,0c0.3-0.2,0.5-0.1,0.8,0.2c0.1,0.2,0.1,0.2-0.1,0.2
		c-0.3,0.2-0.7,0.3-1,0.5c-0.2-0.2-0.4-0.1-0.6-0.1c0,0,0,0,0,0.1c0,0,0,0.1,0,0.1c0.2,0,0.4,0.1,0.6,0c0.1,0.2,0.2,0.2,0.4,0.2
		c0.1,0,0.2,0,0.3,0c0.1,0,0.1,0,0.2,0c0,0-0.1,0.1-0.1,0.1c0,0-0.1,0.1-0.1,0.1c0,0,0.1,0,0.1,0c0.1-0.1,0.3-0.1,0.4-0.2
		c0.1-0.1,0.3-0.2,0.5-0.1c0,0,0.1,0.1,0.1,0.1c0,0-0.1,0-0.1,0c-0.1,0-0.1,0-0.2,0c-0.2,0.2-0.4,0.3-0.5,0.5c0,0,0,0.1-0.1,0.1
		c0,0,0.1,0,0.1,0c0,0,0.1,0,0.1-0.1c0.2-0.2,0.4-0.3,0.5-0.5c0,0,0.1,0,0.1,0c0.1,0,0.1,0.1,0.1,0.2c0,0,0,0.1-0.1,0.1
		c-0.3,0-0.3,0.2-0.4,0.4C61.1,66.6,61.1,66.7,61.3,66.7 M57.2,66.1c0.2,0,0.2-0.1,0.2-0.2c-0.1-0.3-0.3-0.6-0.6-0.8
		c-0.5-0.3-1.1-0.4-1.7-0.7c-0.6-0.3-1.3-0.5-1.9-0.8c-0.3-0.1-0.5-0.4-0.7-0.7c-0.1-0.2-0.2-0.1-0.3,0c-0.1,0.2-0.2,0.3-0.3,0.5
		c-0.2,0.2-0.4,0.5-0.6,0.7c-0.5,0.3-0.7,0.8-1.2,1.1c-0.1,0-0.1,0.1-0.1,0.2c-0.1,0.1,0,0.2,0.1,0.2c0.1,0,0.3,0,0.4,0
		c0.4,0,0.7,0,1,0c0.1,0,0.3,0.1,0.3,0.1c0.1,0.3,0.1,0.6,0.1,0.9c0,0.5,0,0.9,0,1.4c0,0.4,0,0.8-0.2,1.2c-0.1,0.2,0.1,0.4,0.3,0.5
		c0.3,0.1,0.5,0,0.7-0.1c0.2-0.1,0.4-0.2,0.4-0.5c0-0.3-0.1-0.5,0-0.8c0-0.3,0.1-0.6,0.2-0.9c0,0,0.1-0.1,0.1-0.1c0,0,0.1,0.1,0,0.1
		c0,0.1-0.1,0.2-0.1,0.4c0,0.2-0.1,0.5-0.1,0.7c0,0.3-0.2,0.6,0.2,0.7c0.1,0.1,0.3,0.2,0.4,0.2c0.2-0.1,0.3,0.1,0.3,0.2
		c0.1,0.3-0.1,0.7-0.5,0.8c-0.1,0-0.2,0.1-0.3,0.2c0,0,0,0.1-0.1,0.1c0,0,0.1,0,0.1,0.1c0.2,0,0.3,0,0.5,0.1
		c0.3,0.1,0.6,0.3,0.9,0.4c0.1,0.1,0.2,0.2,0.3,0.2c-0.1,0-0.3,0-0.4,0c-0.2-0.1-0.4-0.2-0.6-0.3c-0.4-0.1-1,0-1.2,0.5
		c0,0.1,0,0.2,0,0.2c0.1,0,0.2,0,0.2,0c0.2,0,0.3-0.1,0.5-0.1c0.1,0,0.2,0,0.3,0c0.2,0,0.3,0,0.5,0c0.1,0,0.1,0.1,0.2,0.1
		c-0.1,0-0.1,0.1-0.2,0.1c-0.2,0.1-0.5,0.2-0.7,0.2c-0.1,0-0.2,0-0.3,0c-0.3-0.1-0.7,0.1-0.9,0.3c-0.1,0.2-0.2,0.4-0.3,0.6
		c-0.1,0.2,0,0.4,0.2,0.5c0.5,0.3,1,0.1,1.5,0.1c0.2,0,0.4-0.1,0.6-0.3c0.1-0.1,0.2-0.1,0.2-0.1c0.3,0,0.5,0,0.7-0.2
		c0.1-0.1,0.1-0.1,0-0.1c0,0-0.1-0.1,0-0.1c0-0.1,0.1-0.1,0.1-0.2c0,0,0.1,0,0.1,0.1c0.1,0.1,0.1,0.1,0.2,0c0.3-0.3,0.5-0.6,0.5-1
		c0-0.2,0.1-0.2,0.3-0.1c0.1,0,0.2,0.1,0.2,0c0.3-0.1,0.4-0.2,0.4-0.5c0-0.3,0.1-0.6,0.2-0.8c0.2-0.3,0.4-0.6,0.5-0.9
		c0-0.1,0.1-0.1,0.1-0.2c0.1-0.1,0.2-0.1,0.2-0.2c0-0.3,0-0.5,0-0.8c0-0.1,0-0.2,0.1-0.2c0.2-0.1,0.2-0.2,0.2-0.4
		c0-0.1,0.1-0.3,0.1-0.4c0-0.1,0-0.2-0.1-0.3c-0.2-0.1-0.3-0.2-0.5-0.3c-0.2-0.1-0.4-0.1-0.6-0.1c-0.3,0-0.5,0.1-0.8,0.1
		c-0.4,0.1-0.9,0.1-1.3,0.1c-0.6,0.1-1.2-0.1-1.5-0.7c-0.1-0.3-0.3-0.6-0.4-0.8c-0.1-0.2,0-0.4,0.2-0.5c0.2-0.1,0.5-0.2,0.7-0.3
		c0.4-0.1,0.8-0.1,1.3-0.1c0.2,0,0.4,0,0.5,0.3c0,0,0,0,0.1,0.1C56.4,65.7,56.8,65.9,57.2,66.1 M57.2,60.7c-0.4-0.1-0.9-0.2-1.3-0.4
		c-0.2-0.1-0.4-0.1-0.7-0.1c-0.1,0-0.3,0-0.4,0c-0.3,0-0.5,0-0.8,0c-0.2,0-0.5,0-0.7,0c-0.3,0-0.6,0-0.9,0c0,0-0.1,0-0.1,0
		c-0.1,0.2-0.3,0.2-0.5,0.2c-0.2,0-0.5,0-0.8,0c-0.5,0.1-0.8,0.4-1.2,0.5c-0.6,0.2-1,0.6-1.2,1.2c-0.3,0.6-0.5,1.2-0.7,1.8
		c0,0.1,0,0.4,0,0.4c0.2,0.1,0.3-0.1,0.4-0.2c0,0,0,0,0,0c0.2-0.3,0.4-0.4,0.7-0.4c0.1,0,0.1-0.1,0.2-0.1c0.3-0.1,0.6-0.3,0.9-0.5
		c0.2-0.1,0.6-0.2,0.7-0.4c0.2-0.2,0.3-0.3,0.6-0.3c0.4,0,0.8-0.1,0.9-0.6c0-0.1,0.1-0.2,0.2-0.2c0.1,0.1,0.4-0.1,0.5,0.2
		c0.1,0.2,0.3,0.5,0.6,0.4c0.1,0,0.1,0.1,0.2,0.2c0.1,0.1,0.2,0.3,0.5,0.2c0.2-0.1,0.3,0,0.4,0.2c0,0.1,0.2,0.2,0.2,0.1
		c0.3-0.1,0.4,0,0.6,0.2c0.1,0.1,0.1,0.1,0.2,0.1c0.3,0.1,0.6,0.1,1,0.2c0.3,0.1,0.6,0.2,0.9,0.2c0.1,0,0.1,0.1,0.2,0.1
		c0.1,0.2,0.3,0.3,0.5,0.4c0.2,0.1,0.3,0,0.3-0.2c0-0.1,0-0.1,0.1-0.1c0,0.1,0.1,0.1,0.1,0.2c0,0,0,0.1,0,0.2c0,0,0,0.1,0.1,0.1
		c0.1,0,0.2,0,0.2,0c0.1-0.2,0.3-0.4,0.2-0.7c-0.2-0.7-0.4-1.4-1-1.9c-0.1-0.1-0.1-0.2-0.2-0.3c-0.1-0.1-0.2-0.2-0.3-0.3
		c0,0-0.1,0-0.1-0.1c0,0,0.1,0,0.1,0c0,0,0.1,0,0.1,0c0-0.1,0-0.2,0-0.2c0,0-0.1,0-0.1,0C57.5,60.8,57.3,60.8,57.2,60.7 M51.4,71.9
		c0-0.1,0-0.2,0-0.4c0.1-0.4,0.2-0.8,0.2-1.2c0.1-0.6,0.1-1.2,0.1-1.8c0-0.1,0-0.1-0.1-0.2c-0.1,0-0.2,0.1-0.2,0.1
		c-0.2,0.4-0.5,0.5-0.9,0.7c-0.2,0.1-0.4,0.2-0.4,0.3c0,0.2-0.2,0.4,0,0.6c0.1,0.1,0.1,0.3,0.2,0.4c0.1,0.3,0.2,0.7,0.4,1
		c0.1,0.2,0.3,0.4,0.1,0.7c0,0.1,0,0.2,0.1,0.3c0,0.1,0.1,0.1,0.1,0.2c0,0,0.1,0.1,0.1,0.1c0,0,0-0.1,0-0.1c0-0.1-0.1-0.2,0-0.2
		C51.3,72.4,51.3,72.1,51.4,71.9 M48.2,60.8c0,0.1,0,0.1,0,0.2c0.1,0.4,0.2,0.8-0.3,1c0,0,0,0,0,0c-0.4,0.6-0.8,1.3-0.8,2.1
		c0,0.1,0,0.3,0,0.4c0,0.1,0.1,0.1,0.2,0.2c0.1-0.2,0.4-0.3,0.4-0.6c0-0.1,0-0.1,0-0.2c0.2-0.6,0.4-1.2,0.6-1.8
		c0.1-0.3,0.3-0.5,0.5-0.7c0.1,0,0.1-0.1,0.1-0.2c0,0,0-0.1,0-0.1c0,0-0.1,0-0.1,0c-0.1,0-0.2,0.1-0.3,0.2c0,0-0.1,0-0.1,0
		c0,0,0-0.1,0-0.1c0.1-0.2,0.1-0.4,0-0.5c-0.1-0.1-0.1-0.3-0.2-0.5c-0.2-0.3-0.3-0.7-0.6-0.9c-0.2-0.1-0.4-0.2-0.6,0
		c0,0,0,0.1-0.1,0.1c0,0,0.1,0,0.1,0c0.1,0,0.4,0,0.4,0.1C47.9,59.9,48.1,60.3,48.2,60.8 M52.7,74.9c0.2,0.2,0.4,0.2,0.6,0.1
		c0.1,0,0.3,0,0.3,0c0.1,0.2,0.2,0.2,0.4,0.2c0.1,0,0.2-0.1,0.3-0.1c0,0,0-0.1,0-0.1c-0.1,0-0.2,0-0.3,0c-0.1,0-0.2,0-0.3,0
		c0.1-0.1,0.1-0.1,0.2-0.2c0,0,0.1-0.1,0.1-0.1c-0.1,0-0.1,0-0.2,0c0,0-0.1,0-0.1,0c-0.4,0.1-0.8,0.1-1.1-0.1
		c-0.2-0.1-0.4-0.2-0.6-0.1c0,0-0.1,0-0.1-0.1c-0.1-0.2-0.3-0.2-0.4-0.2c-0.2-0.1-0.4-0.1-0.6-0.3c-0.3-0.3-0.3-0.7-0.5-1
		c-0.2-0.3-0.3-0.6-0.2-0.9c0-0.1,0-0.1,0-0.2c0-0.1-0.1-0.3-0.1-0.4c0.2,0,0.1-0.1,0.1-0.2c0-0.3-0.1-0.5-0.1-0.8
		c-0.1-0.2-0.2-0.5-0.5-0.5c0,0-0.1,0-0.1,0c0,0,0,0.1,0,0.1c0,0.1,0.1,0.2,0.1,0.2c0,0,0,0.1,0.1,0.1c0,0,0-0.1,0-0.1
		c0-0.1,0-0.1,0.1-0.2c0.1,0,0.1,0.1,0.2,0.1c0.1,0.3,0.1,0.6,0.1,0.9c0,0,0,0.1,0,0.2c0-0.1-0.1-0.1-0.1-0.2c0-0.1-0.1-0.1-0.1-0.2
		c0,0.1,0,0.1,0,0.2c0,0,0,0,0,0c0.1,0.6,0.3,1.1,0.4,1.7c0.1,0.4,0.3,0.8,0.5,1.1c0.1,0.1,0.1,0.4,0.4,0.3c0,0,0,0,0,0
		c0.4,0.2,0.8,0.4,1.1,0.6c0,0,0.1,0,0.1,0c0-0.1-0.1-0.1-0.1-0.2c0,0-0.1-0.1-0.1-0.1c0.1,0,0.1-0.1,0.2-0.1
		C52.4,74.8,52.5,74.8,52.7,74.9 M48.8,58.7c-0.3-0.2-0.6-0.3-0.8-0.1c0,0,0,0.1-0.1,0.1c0,0,0.1,0,0.1,0c0.4-0.1,0.5-0.1,0.7,0.3
		c0.1,0.2,0.2,0.5,0.2,0.8c0,0.5,0.2,0.9,0.1,1.4c0,0,0,0,0.1,0.1c0.1-0.2,0.3-0.4,0.4-0.6c0.1-0.3,0-0.6-0.2-0.9
		c-0.1-0.3-0.2-0.5-0.4-0.8C48.9,58.9,48.9,58.8,48.8,58.7 M55.3,58.5c0-0.1-0.1-0.2-0.1-0.2c0-0.1,0-0.1,0-0.2
		c0-0.2,0.1-0.3,0.2-0.5c0,0,0-0.1,0-0.1c0,0-0.1,0-0.1,0c-0.1,0.1-0.2,0.2-0.2,0.4c-0.1,0.3-0.2,0.5-0.2,0.8c0,0.4,0,0.8,0,1.2
		c0,0.1,0.1,0.1,0.2,0.2c0-0.1,0.1-0.1,0.1-0.2C55.2,59.5,55.2,59,55.3,58.5 M53.2,59.1c0,0.3,0,0.5,0.1,0.8c0,0.1,0.1,0.1,0.2,0.2
		c0-0.1,0.1-0.1,0.1-0.2c0-0.1,0-0.2,0-0.2c0-0.5,0-1,0-1.5c0,0,0-0.1,0-0.1c-0.1-0.1-0.2-0.2-0.3-0.3c0,0.1-0.1,0.3-0.1,0.4
		C53.2,58.5,53.2,58.8,53.2,59.1 M52.1,59.2c0-0.3-0.1-0.5-0.1-0.8c0-0.1-0.1-0.1-0.2-0.1c0,0-0.1,0.1-0.1,0.1
		c0,0.2-0.1,0.4-0.1,0.6c0,0.4,0,0.8,0,1.1c0,0.1,0,0.1,0.1,0.2c0.1-0.1,0.2-0.1,0.2-0.2C52,59.8,52,59.5,52.1,59.2 M59.6,71.3
		c0,0.1,0.1,0.3,0.1,0.4c0,0.1,0.1,0.1,0.1,0.2c0,0,0.1-0.1,0.1-0.1c0-0.2,0.1-0.4,0.1-0.6c0-0.2,0-0.1,0.2-0.1
		c0.3,0.1,0.5,0.2,0.8,0.1C61,71.1,61,71,61,71c0-0.1,0-0.2-0.1-0.2c-0.1-0.1-0.3-0.2-0.5-0.2c-0.3-0.1-0.6,0-0.7,0.2
		C59.7,70.9,59.7,71.1,59.6,71.3 M56.9,58.4c0-0.1,0-0.2,0-0.4c0,0,0-0.1,0-0.1c0,0,0,0.1-0.1,0.1c-0.1,0.3-0.2,0.6-0.3,0.9
		c-0.1,0.4-0.1,0.8-0.2,1.2c0,0.1,0.1,0.1,0.1,0.2c0.1,0,0.1-0.1,0.2-0.1c0.1-0.3,0.1-0.6,0.2-0.9c0-0.1,0.1-0.2,0-0.2
		C56.7,58.8,56.8,58.7,56.9,58.4 M63.6,80.7c0.1,0,0.2,0.1,0.2,0.1c0.2,0.1,0.5,0.2,0.7,0.3c0.1,0,0.1,0,0.2,0
		c0-0.1-0.1-0.1-0.1-0.2c-0.1-0.1-0.1-0.1-0.2-0.1c-0.2-0.1-0.4-0.2-0.6-0.4c-0.3-0.2-0.8-0.2-1-0.6c0,0-0.2,0-0.2,0
		c0,0,0,0.1,0,0.1c0.1,0.2,0.3,0.4,0.6,0.5C63.3,80.5,63.5,80.6,63.6,80.7 M49.9,57.9C49.9,57.9,49.9,57.9,49.9,57.9
		c0,0.1,0,0.2,0.1,0.3c0,0.2,0,0.4,0.1,0.7c0.1,0.4,0.2,0.9,0.2,1.3c0,0,0,0.1,0,0.1c0,0,0.1,0.1,0.1,0.1c0,0,0.1-0.1,0.1-0.1
		c0-0.2,0-0.5,0-0.7c0-0.3-0.1-0.6-0.2-0.9C50.3,58.4,50.2,58.1,49.9,57.9 M48.4,72.5c0,0.2,0,0.3,0,0.5c0,0,0.1,0.1,0.1,0.1
		c0,0,0-0.1,0-0.1c0-0.1,0-0.3,0.1-0.4c0-0.1,0.1-0.2,0.1-0.4c0.1-0.3,0.2-0.6,0.3-0.9c0-0.1,0-0.1,0-0.2c-0.1,0-0.2,0.1-0.2,0.1
		c0.1,0.3-0.1,0.4-0.2,0.6C48.5,72,48.5,72.2,48.4,72.5 M47.3,57.2c0,0.1,0,0.1-0.1,0.2c0.2,0,0.4,0.1,0.5,0c0.1,0,0.2-0.1,0.3-0.2
		c0.1,0,0.1-0.1,0.2-0.1c-0.1,0-0.1-0.1-0.2-0.1c0,0-0.1,0-0.2,0c0,0-0.1,0-0.1,0c-0.1,0-0.2-0.1-0.2-0.1c-0.1,0-0.2,0.1-0.3,0.2
		c0,0,0,0,0,0.1c0,0,0.1,0,0.1,0c0.2-0.1,0.3,0.1,0.5,0.1c0,0,0,0.1,0.1,0.1c0,0-0.1,0-0.1,0C47.6,57.3,47.4,57.3,47.3,57.2
		 M52,80.4c0.1,0,0.1,0.1,0.2,0.1c0.1,0,0.3,0,0.2,0.3c0,0,0.1,0.1,0.1,0.1c0.1,0.1,0.2,0.2,0.3,0.3c0.1,0,0.2,0.1,0.3,0.1
		c0-0.1-0.1-0.2-0.1-0.3c0-0.1-0.1-0.2-0.1-0.2c0.1-0.1,0-0.2,0-0.2C52.5,80.4,52.3,80.4,52,80.4C52,80.3,52,80.3,52,80.4
		 M59.7,62.2c0.1,0,0.1,0.1,0.2,0c0-0.2,0.1-0.3,0.2-0.5c0.1-0.1,0.1-0.2,0-0.3c-0.1,0-0.2,0-0.2,0.1c-0.1,0.1-0.2,0.3-0.3,0.4
		c0,0,0,0.1,0,0.1C59.5,62.1,59.6,62.2,59.7,62.2 M47,60.5c0.2,0.2,0.4,0.4,0.5,0.6c0,0,0.1,0,0.1,0.1c0,0,0-0.1,0-0.1
		c-0.2-0.4-0.4-0.7-0.7-0.9c0,0-0.1,0-0.1,0.1C46.7,60.5,46.9,60.4,47,60.5 M58.9,61.2c0,0.1,0.1,0.2,0.2,0.1
		c0.1-0.1,0.2-0.3,0.2-0.4c0-0.1,0-0.2,0-0.2c-0.1,0-0.2,0.1-0.2,0.1C58.9,60.8,58.9,61,58.9,61.2 M53.8,76c0.1,0.1,0.1,0.2,0.2,0.3
		c0.1,0.1,0.2,0.1,0.3,0.1c0-0.1,0.1-0.1,0-0.2c0-0.1-0.4-0.5-0.5-0.5c0,0-0.1,0-0.1,0c0,0,0,0.1,0,0.1C53.7,75.9,53.8,75.9,53.8,76
		 M60.5,62.8c0-0.1,0.1-0.2,0.1-0.3c0-0.1,0-0.1,0-0.2c-0.1,0-0.1,0-0.2,0.1c-0.1,0.1-0.1,0.2-0.2,0.3c-0.1,0.1-0.1,0.1,0,0.2
		C60.3,62.9,60.4,63,60.5,62.8 M47.3,65.6c-0.1,0.1,0,0.2,0.1,0.2c0.3,0.1,0.6,0.1,0.9,0.1c0,0,0.1,0,0.1,0c0,0,0-0.1-0.1-0.1
		c-0.2,0-0.3,0-0.5-0.1c-0.1,0-0.2-0.1-0.3-0.2C47.5,65.4,47.4,65.4,47.3,65.6 M50.7,73.1c0.1-0.2-0.1-0.4-0.2-0.6
		c0,0,0-0.1-0.1-0.1c0,0-0.1,0.1-0.1,0.1c0.1,0.2,0.1,0.5,0.2,0.7c0,0.1,0.1,0.1,0.2,0.2c0-0.1,0-0.2-0.1-0.3
		C50.7,73.2,50.7,73.2,50.7,73.1 M47.2,61.8c0,0,0-0.1,0-0.1c-0.2-0.2-0.4-0.4-0.7-0.6c0,0-0.1,0-0.1,0c0,0.1,0.1,0.3,0.1,0.3
		C46.9,61.4,47,61.6,47.2,61.8 M61,67.5c0.1,0,0.1,0,0.2,0c0,0-0.1-0.1-0.1-0.1c-0.1-0.1-0.1-0.1-0.2-0.2c-0.1-0.1-0.1-0.2-0.2-0.3
		c0,0-0.1,0-0.1,0c0,0,0,0.1,0,0.1C60.6,67.3,60.8,67.3,61,67.5 M49.5,69.6c0.1,0,0.1,0.1,0.2,0.1c0-0.1,0-0.1,0-0.2
		c0-0.2-0.1-0.4-0.1-0.5c0,0,0,0-0.1-0.1c0,0,0,0,0,0.1C49.5,69.3,49.5,69.4,49.5,69.6 M48.9,68.3C48.9,68.3,48.9,68.3,48.9,68.3
		c-0.1,0-0.2,0.1-0.2,0.1c0,0.1,0,0.3,0.1,0.4c0,0,0,0.1,0,0.1c0,0,0.1-0.1,0.1-0.1C49,68.7,49,68.5,48.9,68.3 M59.2,64.2
		c0.1,0.1,0.1,0.3,0.2,0.3c0.2,0,0.1-0.2,0.1-0.3c0,0,0-0.1,0-0.1c0-0.1-0.1-0.1-0.1-0.2C59.2,64,59.2,64.1,59.2,64.2
		C59.2,64.1,59.2,64.1,59.2,64.2 M62.4,66c0,0,0.1,0.1,0.1,0.1c0,0,0-0.1,0.1-0.1c0-0.1,0-0.2,0.1-0.2c0,0,0-0.1,0-0.1
		c-0.1,0-0.1,0-0.2,0C62.4,65.7,62.3,65.8,62.4,66 M50.4,77c0-0.1,0.2-0.2,0-0.3c0,0-0.2,0.1-0.2,0.1c0,0.1,0,0.2,0.1,0.3
		C50.3,77.1,50.3,77.1,50.4,77 M59.3,68.1c-0.1,0.1,0,0.5,0.1,0.6c0,0,0.1,0,0.1-0.1C59.6,68.5,59.5,68.3,59.3,68.1 M49.2,69.6
		c0-0.1-0.1-0.2-0.1-0.2c0,0-0.1,0-0.1-0.1c0,0,0,0.1,0,0.1c0,0.1,0.1,0.1,0.1,0.2c0,0.1,0.1,0.2,0.2,0.2
		C49.2,69.8,49.2,69.7,49.2,69.6 M54,80.2c0,0,0,0.1,0,0.1c0,0,0.1,0,0.1,0c0.1-0.2,0.3-0.2,0.3-0.5c0,0,0-0.1-0.1-0.1
		c0,0-0.1,0.1-0.1,0.1C54.1,79.9,54,80,54,80.2 M55.1,76.1c0-0.1,0-0.2,0-0.3c0,0-0.1-0.1-0.2-0.1c0,0-0.1,0.1-0.1,0.1
		c0,0.1,0,0.2,0.1,0.4C54.9,76.1,55,76.1,55.1,76.1 M64.9,82.7c-0.2-0.1-0.3-0.1-0.5-0.2c0,0-0.1,0-0.1,0.1c0,0,0.1,0.1,0.1,0.1
		C64.6,82.8,64.8,82.8,64.9,82.7 M47.2,66.5c0,0-0.1,0-0.1,0.1c0,0.1,0,0.2,0,0.3c0,0,0.2,0,0.3,0C47.3,66.8,47.3,66.7,47.2,66.5
		C47.2,66.6,47.2,66.6,47.2,66.5 M54.3,77.5c0-0.1-0.1-0.1-0.1-0.2c0,0-0.1,0-0.1,0.1c0,0.2,0,0.4,0.1,0.5c0,0,0,0.1,0,0.1
		c0,0,0.1-0.1,0.1-0.1C54.3,77.8,54.3,77.7,54.3,77.5 M50.2,68.8c-0.1,0-0.1-0.1-0.2-0.1c0,0-0.1,0-0.1,0c0,0.1,0,0.2,0,0.3
		c0,0,0.1,0,0.1,0C50.1,69,50.2,68.9,50.2,68.8 M57.9,59.9C57.9,59.9,57.9,59.9,57.9,59.9c0,0.1,0,0.2,0,0.2c0,0,0.1-0.1,0.1-0.1
		c0-0.1,0.1-0.3,0.1-0.4c0,0,0-0.1,0-0.1c0,0-0.1,0-0.1,0.1C58,59.7,58,59.8,57.9,59.9 M51.5,57.8C51.6,57.9,51.6,57.9,51.5,57.8
		c0.1,0.2,0.1,0.3,0.2,0.3c0-0.1,0-0.2,0.1-0.3c0,0,0,0,0-0.1c-0.1-0.1-0.1-0.1-0.2-0.2C51.6,57.7,51.6,57.7,51.5,57.8 M49.1,66
		c0,0-0.1,0.1-0.1,0.1c0,0.1-0.1,0.1-0.1,0.2c0.1,0,0.2,0,0.2,0C49.3,66.2,49.2,66.1,49.1,66 M47.3,68.4c-0.1-0.1-0.1-0.2-0.2-0.3
		c0,0-0.1,0-0.1,0c0,0.1,0,0.2,0,0.3C47.1,68.4,47.2,68.4,47.3,68.4 M49.3,67c0-0.1,0-0.3-0.1-0.4c0,0-0.1-0.1-0.1-0.1
		c0,0-0.1,0.1-0.1,0.1C49.1,66.8,49.2,66.9,49.3,67 M47.3,67.2c-0.1,0-0.1,0.1-0.2,0.1c0,0,0,0.1,0,0.1c0.1,0,0.2,0,0.3,0
		C47.4,67.3,47.3,67.3,47.3,67.2 M48.6,67.5C48.6,67.5,48.6,67.5,48.6,67.5c0,0.1,0,0.2,0.1,0.3c0,0,0.1,0,0.2,0.1
		c0-0.1-0.1-0.1-0.1-0.2C48.8,67.7,48.7,67.6,48.6,67.5 M47.8,64.9c-0.1,0-0.1,0-0.2,0c0,0.1,0,0.1,0,0.2c0,0,0.1,0.1,0.1,0.1
		c0,0,0.1-0.1,0.1-0.2C47.9,65,47.8,64.9,47.8,64.9 M52.3,80c-0.1,0-0.2-0.1-0.3-0.1c0,0,0,0,0,0c0.1,0.1,0.1,0.1,0.2,0.2
		c0,0,0,0,0,0.1c0,0,0.1,0,0.1,0.1C52.2,80.2,52.3,80.1,52.3,80 M52.9,71.4c0-0.1,0-0.2,0-0.2c-0.1,0-0.2,0-0.2-0.1
		c0,0.1,0,0.1,0.1,0.2C52.8,71.3,52.8,71.4,52.9,71.4 M50.2,78.2c0.1,0,0.1,0,0.2,0.1c0-0.1,0-0.2-0.1-0.3c0,0,0,0-0.1,0
		C50.2,78,50.1,78.1,50.2,78.2C50.1,78.1,50.1,78.2,50.2,78.2 M53.6,63.1c-0.1,0-0.1,0-0.2,0c0,0.1,0,0.2,0,0.2
		C53.5,63.3,53.5,63.3,53.6,63.1C53.6,63.2,53.6,63.2,53.6,63.1 M61.7,68.3c0,0,0.1-0.1,0.1-0.1c-0.1,0-0.2,0-0.3,0
		C61.6,68.2,61.6,68.3,61.7,68.3 M49.8,68.2c0,0.1,0,0.1,0,0.2c0,0,0.1,0,0.1,0c0-0.1,0-0.2,0-0.3C49.9,68.2,49.8,68.2,49.8,68.2
		 M54.3,78.3c0-0.1-0.1-0.2-0.1-0.2c0,0.1,0,0.2-0.1,0.3c0,0,0,0,0,0.1c0,0,0,0.1,0,0.1C54.3,78.5,54.3,78.4,54.3,78.3 M59.5,60.1
		c0-0.1,0-0.1,0.1-0.2C59.6,60,59.5,60,59.5,60.1c-0.1,0-0.2,0.1-0.2,0.2C59.4,60.3,59.4,60.2,59.5,60.1 M51.6,56.7
		c-0.1,0-0.1,0-0.2,0c0,0-0.1,0.1-0.1,0.1C51.4,56.8,51.7,56.8,51.6,56.7C51.7,56.8,51.7,56.7,51.6,56.7 M62.1,65
		c0,0,0.1,0.1,0.1,0.1c0-0.1,0.1-0.1,0.1-0.2c0,0-0.1-0.1-0.1-0.1C62.2,64.9,62.2,64.9,62.1,65 M59.6,68.9c0,0.1,0,0.2,0.1,0.2
		c0,0,0,0,0.1,0C59.7,69.1,59.6,69,59.6,68.9C59.6,68.9,59.6,68.9,59.6,68.9 M53.4,75.7c0,0,0-0.1,0-0.1c-0.1,0-0.1,0-0.2,0
		C53.2,75.6,53.3,75.6,53.4,75.7 M46.6,62.5c0.1,0,0.1,0,0.2,0c0,0,0-0.1,0-0.1c-0.1,0-0.1,0-0.2-0.1C46.6,62.4,46.6,62.4,46.6,62.5
		 M59.7,70.3c0,0,0.1,0,0.1,0c0-0.1,0-0.1,0-0.2C59.8,70.2,59.7,70.2,59.7,70.3 M56.1,63.7c0.1,0,0.1,0.1,0.2,0.1c0,0,0,0,0.1-0.1
		C56.3,63.8,56.2,63.7,56.1,63.7C56.2,63.7,56.1,63.7,56.1,63.7 M59.2,66.4c0,0,0.1,0,0.1,0.1c0-0.1,0-0.1,0-0.2c0,0-0.1,0-0.1-0.1
		C59.2,66.3,59.2,66.3,59.2,66.4 M55.7,67.1C55.7,67.1,55.6,67.1,55.7,67.1c-0.1,0-0.2,0-0.2,0c0,0,0,0,0,0
		C55.6,67.2,55.6,67.2,55.7,67.1C55.7,67.2,55.7,67.2,55.7,67.1 M49.7,77.5c0,0,0.1,0.1,0.1,0.1c0-0.1,0-0.1,0.1-0.2
		C49.8,77.4,49.7,77.5,49.7,77.5 M47.8,72C47.8,72,47.8,72,47.8,72C47.8,72,47.8,72,47.8,72c-0.1,0-0.1,0.1-0.1,0.2c0,0,0,0,0.1,0
		C47.8,72.1,47.8,72.1,47.8,72 M58.3,59.4c0-0.1,0.1-0.2,0.1-0.3c0,0,0,0,0,0C58.3,59.2,58.3,59.2,58.3,59.4 M62.8,77.4
		c0,0.1,0,0.1,0,0.2c0,0,0.1,0,0.1,0C62.9,77.5,62.9,77.4,62.8,77.4 M45.2,60.7c0,0,0,0.1,0,0.1C45.3,60.8,45.3,60.8,45.2,60.7
		c0.1,0,0.1-0.1,0.1-0.1c0,0,0,0-0.1,0C45.2,60.6,45.2,60.6,45.2,60.7 M58.4,64.6c0,0-0.1,0-0.1,0.1c0,0,0.1,0.1,0.1,0.1
		C58.4,64.7,58.4,64.7,58.4,64.6 M57,72.7c0,0,0,0.1,0.1,0.1c0,0,0.1-0.1,0.1-0.1C57.1,72.7,57.1,72.7,57,72.7 M54.3,79.3
		c0,0,0-0.1,0-0.1c0,0,0,0-0.1,0C54.2,79.3,54.2,79.3,54.3,79.3 M48.5,69.6c0,0,0.1,0,0.1,0c0,0,0-0.1,0-0.1
		C48.5,69.5,48.5,69.6,48.5,69.6 M62.8,81c0,0,0.1,0,0.1-0.1C62.9,80.9,62.8,80.9,62.8,81C62.8,80.9,62.8,80.9,62.8,81 M54.5,75.3
		C54.5,75.3,54.4,75.3,54.5,75.3c-0.1-0.1-0.1,0-0.1,0C54.4,75.3,54.4,75.3,54.5,75.3 M47.5,66.2c0,0-0.1,0.1-0.1,0.1
		c0,0,0.1,0,0.1,0C47.5,66.3,47.5,66.3,47.5,66.2 M56.9,66.4c0,0,0,0.1,0.1,0.1c0,0,0,0,0,0C57,66.4,56.9,66.4,56.9,66.4 M54.1,77.1
		c0,0,0-0.1,0-0.1C54,77,54,77,54.1,77.1C54,77,54,77,54.1,77.1 M63,78.1c0,0,0-0.1,0-0.1C63,78,62.9,78,63,78.1
		C62.9,78,63,78.1,63,78.1z"/>
	<path d="M36.7,51.9c0.1,0.2,0.2,0.4,0.2,0.6c0.1,0.4,0.3,0.8,0.4,1.2c0.2,0.7,0.5,1.4,0.6,2.2c0.2,0.7,0.3,1.4,0.5,2.2
		c0.1,0.4,0.2,0.8,0.2,1.3c0,0.1,0,0.2,0,0.2c0,0.1-0.1,0.1-0.1,0.2c0,0-0.1-0.1-0.1-0.1c0-0.2-0.1-0.4-0.1-0.6
		c0-0.2-0.1-0.3-0.3-0.2c-0.4,0.1-0.8,0.2-1.2,0.3c-0.2,0-0.3,0.3-0.3,0.5c0,0.2,0.1,0.5,0.1,0.7c0,0.2,0.1,0.5,0.2,0.7
		c0.1,0.5,0.2,1.1,0.4,1.6c0.1,0.3,0.1,0.6-0.1,0.8c-0.1,0.1-0.1,0.2-0.1,0.3c0,0.1,0,0.2-0.1,0.2c0,0-0.1,0-0.1,0.1
		c-0.1,0.2-0.1,0.4-0.1,0.6c0,0.1,0.1,0.1,0.1,0.2c0-0.1,0-0.1,0-0.2c0-0.1,0-0.2,0.1-0.2c0-0.1,0.1-0.1,0.1,0
		c0,0.2,0.2,0.4,0.3,0.6c0.2,0.2,0.3,0.4,0.2,0.7c0,0,0,0.1-0.1,0.1c0,0-0.1-0.1-0.1-0.1c0-0.1-0.1-0.3-0.1-0.4c0-0.2,0-0.1-0.1-0.1
		C37.2,65,37.1,65,37,64.7c0,0,0-0.1-0.1-0.1c0,0,0,0.1,0,0.1c-0.1,0.2,0,0.3,0.1,0.4c0.1,0.2,0.2,0.3,0.4,0.5c0,0,0,0.1,0,0.1
		c-0.3,0.3-0.1,0.7-0.4,0.9c0,0-0.1,0-0.2,0c0,0-0.1,0-0.1,0.1c-0.1,0.3-0.4,0.2-0.6,0.4c0-0.1-0.1-0.1-0.1-0.2c0.1-0.2,0-0.4,0-0.7
		c0,0,0-0.1,0-0.2c0,0,0.1,0.1,0.1,0.1c0,0.1,0,0.1,0,0.2c0,0,0,0.1,0,0.1c0,0,0-0.1,0.1-0.1c0.1-0.3,0.2-0.5,0-0.8
		c-0.1-0.2-0.2-0.5-0.2-0.8c0-0.2,0-0.5-0.1-0.7c0-0.1-0.2-0.1-0.3-0.1c-0.3,0-0.6,0.1-0.9,0.2c-0.1,0-0.2,0.1-0.4,0.1
		c-0.3,0.1-0.4,0.4-0.5,0.7c-0.1,0.3-0.3,0.5-0.2,0.8c0,0.1,0.1,0.2,0.1,0.3c0.1,0.1,0.2,0.2,0.3,0.4c0,0-0.1,0.1-0.1,0.1
		c-0.3,0.1-0.3,0.1-0.2,0.3c0.1,0.1,0.2,0.3,0.3,0.4c0.1,0.1,0.2,0.1,0.1,0.3c-0.2,0.2-0.2,0.3,0.1,0.4c0,0,0.1,0,0.1,0.1
		c0,0-0.1,0-0.1,0.1c-0.1,0.1-0.1,0.2,0,0.3c0.2,0.1,0.1,0.2,0.1,0.3c0,0,0,0.1-0.1,0.1c0,0,0.1,0,0.1,0c0.2,0,0.2,0.1,0.1,0.2
		c-0.1,0.1-0.1,0.2,0,0.4c0.1,0.2,0.1,0.4,0.2,0.6c0,0,0,0.1,0,0.1c-0.1,0.2,0.2,0.3,0.2,0.4c0,0.1-0.1,0.3,0,0.5
		c0.1,0.2,0,0.4,0.3,0.6c0,0-0.1,0.3-0.2,0.4c-0.3,0.6-0.7,1.1-1,1.7c-0.4,0.8-0.8,1.6-1.4,2.4c0,0.1-0.1,0.2-0.1,0.2
		c-0.2,0.2-0.3,0.4-0.5,0.6c0,0-0.1,0-0.1,0c0-0.1,0-0.1,0-0.2c0-0.1,0.1-0.2,0.1-0.2c0,0,0-0.1,0-0.1c0,0-0.1,0-0.1,0.1
		c-0.1,0.2-0.2,0.4-0.1,0.7c0,0.1,0,0.2,0,0.3c0,0.1-0.1,0.1-0.1,0.2c0,0.1,0,0.1,0.1,0.2c0.1,0,0.2-0.1,0.2-0.1
		c0.1-0.1,0.1-0.3,0.2-0.4c0,0,0.1-0.1,0.1-0.1c0,0.1,0,0.1,0,0.2c-0.1,0.2-0.2,0.3-0.3,0.5c-0.1,0.1-0.2,0.2-0.3,0.1
		c-0.2,0-0.4,0-0.6,0.2c0,0-0.1,0.1-0.1,0.1c0,0,0-0.1,0-0.1c0.1-0.3-0.2-0.4-0.4-0.5c-0.1-0.1-0.2-0.1-0.2-0.2
		c-0.2-0.2-0.3-0.2-0.5-0.1c-0.1,0-0.6-0.1-0.6-0.1c0-0.1,0-0.3,0-0.4c0-0.3,0.1-0.5,0.1-0.8c0.1-0.5,0.1-1,0.2-1.5
		c0.1-0.3,0.2-0.6,0.3-0.9c0.3-0.7,0.5-1.4,0.8-2c0.2-0.5,0.4-0.9,0.6-1.4c0.2-0.4,0.4-0.9,0.6-1.3c0.2-0.4,0.4-0.9,0.5-1.3
		c0.1-0.3,0-0.6-0.1-0.8c-0.1-0.5-0.2-1-0.4-1.5c-0.1-0.5-0.2-1-0.2-1.5c0-0.1-0.1-0.3-0.1-0.4c-0.4-0.6-0.5-1.3-0.7-1.9
		c-0.2-0.6-0.4-1.2-0.6-1.8c-0.2-0.6-0.4-1.3-0.6-1.9c-0.2-0.8-0.4-1.6-0.5-2.4c-0.1-0.5-0.1-1-0.2-1.5c-0.1-0.7-0.1-1.4-0.2-2
		c0-0.3,0-0.5,0-0.8c-0.1-0.5-0.1-1.1-0.2-1.6c0-0.2,0-0.4,0-0.6c0-0.5-0.1-0.9-0.1-1.4c0-0.2-0.1-0.4-0.1-0.6c0,0-0.1-0.1-0.1-0.1
		c-0.7,0.1-1-0.4-1.3-0.8c-0.2-0.3-0.2-0.6-0.2-0.8c0-0.2,0-0.3-0.2-0.4c-0.2-0.1-0.2-0.3-0.2-0.5c0-0.4,0-0.7-0.2-1.1
		c-0.1-0.1-0.2-0.3-0.2-0.4c-0.1-0.2-0.2-0.4-0.3-0.5c-0.1-0.2,0-0.2,0.2-0.3c0.2,0,0.4-0.1,0.7-0.1c0.2,0,0.4-0.1,0.7-0.1
		c0.4,0,0.9,0,1.3,0c0.3,0,0.6,0,0.9,0c0.1,0,0.1,0,0.2,0c-0.1,0-0.1-0.1-0.2-0.1c-0.1,0-0.2-0.1-0.4-0.1c-0.1,0-0.1-0.1-0.2-0.1
		c0.1,0,0.1-0.1,0.2-0.1c0.3,0.1,0.6,0.1,0.9,0.2c0.1,0,0.3,0,0.3,0.2c0,0.2,0,0.5-0.1,0.6c-0.4,0.5-0.5,1-0.4,1.6c0,0.3,0,0.7,0,1
		c0,0.3,0,0.7,0,1c0,0.4-0.1,0.9-0.1,1.3c0,0.3-0.1,0.5-0.1,0.8c0,0.3-0.1,0.6-0.1,0.9c0,0.2-0.1,0.5,0.1,0.7
		c0.1,0.1,0.1,0.2,0.2,0.4c0,0.1,0.1,0.2,0.1,0.2c0,0.1,0.1,0.1,0.1,0.2c-0.1,0-0.1,0.1-0.2,0.1c-0.1,0-0.2-0.1-0.2-0.1
		c-0.1-0.1-0.1-0.3-0.2-0.4c0,0-0.1-0.1-0.1-0.1c0,0-0.1,0.1-0.1,0.1c0.1,0.4-0.1,0.7-0.1,1.1c0,0.3,0.1,0.5,0.2,0.8
		c0,0,0,0.1,0,0.1c0,0.5,0.1,1,0.3,1.5c0,0.1,0,0.2,0,0.2c0,0.1,0.1,0.2,0.1,0.3c0,0.1,0.1,0.2,0.1,0.3c0,0.1,0,0.2,0,0.3
		c0,0.3,0.3,0.5,0.4,0.7c0,0.1,0,0.2,0,0.2c0,0.1,0.1,0.2,0.1,0.3c0,0,0,0.1,0.1,0.1c0,0-0.1,0-0.1,0c0,0-0.1,0-0.1,0
		c-0.1,0-0.2,0-0.3,0c0,0,0,0.1,0,0.1c0.1,0.1,0.2,0.2,0.3,0.2c0.2-0.1,0.1,0.1,0.1,0.1c0.1,0.3,0.2,0.5,0.3,0.8
		c0,0.1,0.1,0.1,0.2,0.1c0-0.1,0.2-0.1,0.2-0.3c0,0,0.1-0.1,0.1-0.2c0-0.1,0-0.2,0-0.2c0,0-0.1-0.1-0.1,0c-0.1,0.1-0.2,0-0.2-0.1
		c0-0.1,0-0.2,0.1-0.2c0.2-0.1,0.1-0.2,0-0.3c-0.1-0.1-0.1-0.3-0.1-0.5c0-0.2,0-0.2-0.1-0.3c-0.1,0-0.1-0.1-0.1-0.2
		c0-0.1,0.1-0.1,0.1-0.2c0.1-0.1,0.1,0,0.2,0.1c0.1,0.2,0.2,0.4,0.1,0.7c0,0,0,0.1,0,0.2c0.3,0.3,0.3,0.6,0.3,1
		c0,0.2,0.1,0.4,0.3,0.5c0.1,0.1,0.1,0.2,0,0.2c0,0-0.1,0.2,0,0.2c0.1,0.2,0.1,0.3,0.1,0.5c0,0.4,0,0.7,0.2,1C31.9,59,32,59,32.1,59
		c0.1,0,0.2,0,0.3,0c0.1,0,0.1,0,0.2,0.1c0,0-0.1,0.1-0.1,0.1c-0.1,0-0.1,0-0.2,0c-0.2,0-0.3,0.2-0.2,0.3c0.2,0.4,0.1,0.7,0,1.1
		c0,0,0,0.1,0,0.1c0.2,0.4,0.2,1,0.6,1.3c0,0,0.1,0.1,0.1,0.1c0.1,0.2,0.3,0.4,0.6,0.4c0.2,0,0.4,0.1,0.5,0.2c0,0,0.1,0.1,0.1,0.2
		c0,0.2,0.2,0.3,0.3,0.4c0.4,0.1,0.7,0.2,1.1,0.2c0.1,0,0.1,0,0.1-0.1c0,0,0-0.1,0.1-0.1c0.1-0.1,0.2-0.2,0.2-0.3
		c0-0.2,0-0.4-0.1-0.5c-0.1-0.1-0.1-0.3,0-0.4c0,0,0,0,0,0c0-0.1,0-0.2,0-0.3c-0.1,0.1-0.1,0.1-0.2,0.2c-0.1,0.1-0.1,0.2,0,0.4
		c0.1,0.2,0,0.4,0.2,0.5c0,0,0,0.1-0.1,0.1c-0.2,0.1-0.3,0.2-0.5,0.2c0,0-0.1,0-0.2-0.1c0,0,0.1-0.1,0.1-0.1
		c0.2-0.1,0.2-0.2,0.2-0.4c-0.1-0.2,0-0.4,0-0.6c0-0.2,0.1-0.4,0-0.6c-0.1-0.3,0-0.6-0.1-0.9c0-0.1,0-0.3-0.1-0.3
		c-0.2-0.2-0.1-0.5,0-0.7c0.1-0.2,0-0.3-0.1-0.4c-0.2-0.1-0.3-0.2-0.1-0.4c0.1-0.1,0-0.6-0.1-0.7c-0.1-0.1-0.2-0.1-0.1-0.2
		c0,0,0-0.1,0-0.1c-0.1-0.2,0-0.4,0-0.6c0-0.1-0.1-0.2-0.1-0.2c-0.2-0.1-0.2-0.2-0.2-0.4c0-0.4,0.1-0.7,0.1-1.1c0-0.1,0-0.2,0-0.3
		c0-0.1,0-0.3,0-0.4c0.1-0.3,0-0.6-0.1-0.8c0-0.1-0.2-0.2-0.2-0.3c-0.1-0.3-0.1-0.6-0.1-0.9c0,0,0-0.1,0-0.1
		c0.1-0.2,0.1-0.3,0.1-0.5c0-0.3,0-0.5,0-0.8c0-0.2,0-0.3,0.1-0.5c0,0,0-0.2,0-0.2c-0.2-0.2-0.1-0.3-0.1-0.5c0-0.1,0-0.1,0-0.2
		c0-0.2-0.1-0.3-0.1-0.4c0,0-0.1-0.1-0.1-0.1c-0.1,0-0.2,0-0.2,0.1c0,0.1-0.1,0.2-0.1,0.2c0,0.2,0,0.4-0.3,0.4c-0.2,0-0.1,0.1,0,0.2
		c0,0.1,0.1,0.1,0.1,0.2c-0.1,0-0.1,0.1-0.2,0.1c-0.1,0-0.1-0.1-0.1-0.1c0-0.1-0.1-0.1-0.1-0.2c0-0.1-0.1-0.2-0.1-0.3
		c0.1-0.2,0-0.3-0.2-0.3c-0.2,0-0.2-0.1-0.1-0.2c0.2-0.2,0.2-0.4,0.1-0.6c-0.1-0.2,0-0.5,0-0.7c0,0,0-0.1,0-0.1c0,0,0-0.1,0.1-0.1
		c0.1,0,0.1,0,0.2,0c0-0.1-0.1-0.2-0.1-0.4c0,0-0.1-0.1-0.1-0.1c-0.2,0-0.1-0.2-0.1-0.3c0-0.2,0.1-0.4,0.1-0.6
		c0-0.2-0.1-0.2-0.2-0.3c-0.1,0-0.1,0-0.2-0.1c0,0,0-0.1,0-0.2c0.1,0,0.1,0,0.2,0c0.1,0,0.3,0,0.4,0c0.1,0,0.2-0.2,0.4-0.1
		c0,0,0-0.1,0.1-0.1c0,0-0.1-0.1-0.1-0.1c-0.2,0-0.3,0-0.5,0c-0.1,0-0.3,0-0.3,0c-0.1-0.1-0.2-0.3-0.2-0.5c0-0.2,0-0.4,0-0.6
		c0-0.1,0-0.2-0.1-0.3c-0.2-0.3-0.3-0.7-0.4-1.1c0-0.1-0.1-0.2-0.3-0.1c-0.1,0-0.1,0.1-0.1,0.2c0,0,0,0.1,0,0.2c0,0-0.1-0.1-0.1-0.1
		c-0.1-0.2,0-0.5-0.1-0.7c0-0.1,0-0.2-0.1-0.3c0-0.1,0-0.1,0-0.2c0.1,0,0.2,0,0.3,0c0,0,0.1,0.1,0.1,0.1c0,0.3,0.2,0.4,0.4,0.6
		c0,0,0.1,0,0.1,0c0-0.1,0.1-0.2,0-0.3c-0.1-0.2-0.1-0.4-0.1-0.6c0-0.2,0-0.4,0-0.7c0-0.2,0-0.5,0-0.7c0,0,0-0.1,0-0.1
		c0,0-0.1,0-0.1,0.1c-0.1,0.2-0.3,0.3-0.4,0.5c-0.1,0.2-0.3,0.3-0.5,0.3c-0.6,0-1.2-0.2-1.8-0.3c-0.1,0-0.3-0.1-0.4-0.1
		c-0.5,0-1-0.1-1.5,0c-0.4,0-0.8,0.2-1.2,0.2c-0.1,0-0.2-0.1-0.2-0.1c0.1,0,0.1-0.1,0.2-0.1c1-0.3,2-0.3,3-0.3c0.2,0,0.5-0.1,0.8,0
		c0,0,0.1-0.1,0.1-0.1c0-0.1-0.1-0.2-0.1-0.2c-0.3-0.2-0.6-0.4-0.9-0.4c0,0-0.1,0-0.1,0c0,0,0-0.1-0.1-0.1c0,0,0.1,0,0.1,0
		c0.2,0.1,0.3,0,0.3-0.2c0-0.3,0-0.7,0-1c0-0.7,0-1.4,0-2.1c0-0.5,0.1-0.9,0.1-1.4c0,0,0-0.1,0-0.1c0,0,0.1,0,0.1,0.1
		c0.1,0.3,0.3,0.5,0.2,0.9c0,0.1,0,0.1,0,0.2c0,0.6,0,1.1,0,1.7c0,0.5-0.1,1-0.1,1.4c0,0.1,0,0.1,0.1,0.2c0,0,0.1-0.1,0.1-0.1
		c0-0.2,0.1-0.3,0.1-0.5c0-0.5,0-0.9,0-1.4c0-0.3,0-0.6,0-0.9c0,0,0-0.1,0.1-0.1c0.3-0.1,0.2-0.3,0.1-0.5c-0.2-0.5-0.5-1.1-0.8-1.6
		c0-0.1-0.1-0.1-0.1-0.1c-0.1-0.1-0.3-0.2-0.4-0.4c0,0.2-0.1,0.3-0.1,0.5c0,0.2-0.1,0.5-0.1,0.7c0,0.3-0.1,0.6-0.3,0.8
		c-0.3,0.3-0.4,0.6-0.4,0.9c0,0.3-0.3,0.6-0.5,0.8c-0.1,0.1-0.2,0.1-0.2,0.1c-0.3,0-0.4,0.1-0.4,0.4c0,0.1,0,0.2,0,0.4
		c0.1,0.4,0.1,0.7-0.1,1.1c0,0-0.1,0.1,0,0.1c0.2,0.2,0,0.4,0,0.6c0,0-0.1,0.1-0.1,0.1c0,0-0.1-0.1-0.1-0.1c0-0.3-0.1-0.6-0.1-0.9
		c0-0.4,0-0.9-0.1-1.3c0-0.2-0.2-0.4-0.3-0.6c-0.1-0.3-0.2-0.7-0.5-0.9c-0.2-0.2-0.4-0.5-0.5-0.7c-0.1-0.3-0.1-0.5,0.1-0.7
		c0.1-0.1,0.2-0.2,0.4-0.2c0,0,0.1,0,0.1-0.1c0-0.1,0-0.1-0.1-0.2c-0.2-0.1-0.3-0.3-0.5-0.4c-0.5-0.3-0.6-0.9-0.3-1.3
		c0.1-0.1,0.2-0.1,0.3-0.2c0.1,0,0.1-0.1,0.2-0.1c0,0-0.1-0.1-0.1-0.1c-0.5-0.2-0.5-0.9-0.4-1.4c0.1-0.4,0.5-0.5,0.8-0.6
		c0.3-0.1,0.4-0.2,0.2-0.5c-0.4-0.5-0.8-0.9-1.2-1.4c-0.2-0.3-0.5-0.6-0.7-1c-0.2-0.3-0.1-0.6,0.1-0.8c0.1,0,0.1-0.1,0.1-0.2
		c-0.1,0-0.2-0.1-0.3-0.1C23,26.2,22.5,26,22,25.7c-0.2-0.1-0.3-0.4-0.4-0.5c-0.1-0.1-0.2-0.3-0.3-0.4c-0.2-0.2-0.2-0.4-0.1-0.6
		c0.1-0.2,0.2-0.3,0.4-0.3c0.5-0.1,0.9-0.2,1.4-0.4c0.3-0.1,0.5-0.1,0.8-0.1c0.5-0.1,1.1-0.1,1.6-0.2c0,0,0,0,0.1,0
		c1.2,0,2.4-0.1,3.6,0c0.6,0,1.2,0.1,1.8,0.2c0.5,0.1,1,0.1,1.4,0.2c0.6,0.1,1.3,0.2,1.9,0.5c0,0,0.1,0,0.1,0c0.1,0,0.2,0,0.2,0
		c-0.1-0.1-0.1-0.2-0.2-0.2c-0.6-0.4-1.2-0.5-1.9-0.6c-0.4-0.1-0.8-0.2-1.2-0.2C30.8,23,30.4,23,30,23c-0.1,0-0.1,0-0.2-0.1
		c0.1,0,0.1,0,0.2-0.1c0.3-0.2,0.5-0.2,0.8,0c0.1,0.1,0.3,0.1,0.5,0.1c0.5,0.1,1.1,0.1,1.6,0.1c0.2,0,0.3,0.1,0.5,0.2
		c0.3,0.1,0.7,0.1,1,0.4c0.1,0.1,0.3,0.2,0.3,0.4c0,0.1,0.1,0.2,0.1,0.3c0.2,0.4,0.1,0.6-0.2,0.8c-0.1,0.1-0.2,0.2-0.2,0.3
		c-0.1,0.5-0.5,0.6-0.9,0.8c-0.5,0.1-1,0.3-1.5,0.4c-0.3,0.1-0.5,0.1-0.8,0.1c-0.1,0-0.1,0-0.2,0c-0.2,0-0.2,0.1-0.1,0.2
		c0.1,0.2,0.3,0.5,0.3,0.8c0.1,0.3-0.1,0.6-0.4,0.8c-0.3,0.2-0.4,0.4-0.4,0.6c-0.1,0.5-0.1,0.9-0.1,1.4c0,0.1,0,0.3-0.1,0.3
		c-0.1,0-0.2,0-0.3-0.1c-0.3-0.2-0.5-0.4-0.7-0.6c-0.2-0.1-0.4-0.2-0.6-0.4c-0.1-0.1-0.2-0.2-0.3-0.3c-0.1-0.2-0.3-0.2-0.5-0.1
		c-0.2,0.1-0.4,0.2-0.4,0.5c0,0.2,0,0.4,0.2,0.5c0.3,0.2,0.5,0.4,0.6,0.8c0,0.2,0.3,0.3,0.4,0.4c0.2,0.2,0.5,0.3,0.8,0.3
		c0.1,0,0.3-0.1,0.4-0.1c0.3-0.3,0.7-0.2,0.8,0.3c0,0.1,0.1,0.3,0.3,0.3c0,0,0.1,0.1,0.1,0.1c0.2,0.5,0.5,0.8,0.9,1.2
		c0.2,0.3,0.4,0.5,0.5,0.9c0.1,0.3,0.3,0.6,0.4,0.9c0.1,0.2,0.2,0.5,0.3,0.8c0.3,0.7,0.4,1.4,0.3,2.1c-0.1,0.6,0.1,1.2,0.1,1.7
		c0.1,0.6,0.2,1.2,0.2,1.8c0.1,0.8,0.2,1.6,0.5,2.4c0.2,0.5,0.2,1,0.3,1.5c0.1,0.5,0.2,1,0.4,1.5c0,0,0,0,0,0
		c0.3,0.6,0.4,1.2,0.6,1.9c0.3,0.7,0.5,1.3,0.7,2c0,0,0,0.1,0,0.1c0,0-0.1,0-0.1,0c-0.1-0.2-0.2-0.4-0.3-0.7
		c-0.1-0.2-0.1-0.5-0.1-0.7c0-0.1-0.1-0.3-0.2-0.4c-0.1-0.1-0.1-0.2-0.1-0.4c0-0.2-0.1-0.3-0.3-0.3c0,0,0,0-0.1,0c0,0,0,0,0,0
		c0.3,0,0.2-0.2,0.1-0.3c0-0.2-0.1-0.4-0.2-0.5c-0.1-0.1-0.1-0.2-0.2-0.3c-0.1-0.1-0.1-0.3-0.1-0.4c-0.1-0.4-0.2-0.9-0.3-1.3
		c0-0.1-0.1-0.1-0.2-0.2c0,0-0.1,0-0.1,0c0,0.1,0,0.2,0,0.3c0.2,0.3,0.1,0.4-0.1,0.6c-0.1,0.1-0.1,0.2-0.1,0.3
		c-0.3-0.1-0.5-0.1-0.6,0.1c-0.1,0.2-0.1,0.3,0.1,0.3c0.1,0,0.2,0.1,0.2,0.2c0,0.3,0,0.4,0.3,0.4c0.1,0,0.2,0,0.2,0.2
		c0,0.1,0,0.3-0.2,0.3c-0.2,0-0.3,0-0.5,0.1c-0.1,0-0.2,0.1-0.3,0.2c0,0,0,0.1,0,0.2c0,0,0.1,0,0.1,0c0.2,0,0.4,0,0.5,0
		c0,0,0.1,0,0.1,0.1c0,0-0.1,0-0.1,0c-0.1,0.1-0.2,0.1-0.3,0c0,0-0.2,0-0.2,0c0,0.1-0.1,0.2,0,0.2c0,0.1,0.1,0.1,0.2,0.2
		c0,0,0.1,0,0.1,0c0.1-0.3,0.4-0.2,0.6-0.3c0.4,0,0.4,0,0.3,0.4c0,0.2,0,0.4,0.1,0.6c0,0.2,0,0.3,0,0.5c0,0.3,0.3,0.1,0.4,0.3
		c0.1,0.2,0.1,0.4,0.2,0.6c0.1,0.5,0.2,1,0.4,1.5c0.1,0.2,0.2,0.5,0.3,0.8c0,0.1,0,0.2,0,0.3c0,0.1,0.1,0.1,0.1,0.1
		c0,0,0.1-0.1,0.1-0.1c0-0.1,0-0.2,0-0.3c0-0.2-0.1-0.4,0.1-0.7c0.1-0.1,0.1-0.3,0.1-0.4c0,0-0.1-0.1-0.2-0.1c-0.1,0-0.2,0-0.2,0.2
		c0,0,0,0.1,0,0.1c0,0,0-0.1-0.1-0.1c0-0.1,0-0.3,0.2-0.3c0.2,0,0.2-0.1,0.2-0.3c0-0.1,0-0.1,0.1-0.2c0.1,0.1,0.1,0.1,0.2,0.2
		c0.1,0.1,0.1,0.2,0.2,0.3c0.1,0.1,0.1,0.1,0,0.2c-0.1,0.1-0.2,0.2-0.1,0.3c0,0.1,0.2,0.3,0.2,0.4c0.1-0.1,0.3,0,0.2-0.2
		c0-0.1,0-0.2,0-0.2C36.6,52.4,36.7,52.2,36.7,51.9 M36,55.9c0.1,0.1,0.1,0.2,0.2,0.3c0.1,0.2,0.2,0.4,0.2,0.6
		c0.1,0.3,0.1,0.6,0.1,1c0,0.2,0,0.3,0.2,0.3c0.1,0,0.2,0.1,0.1,0.2c0,0.1-0.1,0.3,0,0.4c0,0.1,0.2,0.2,0.2,0.2
		c0.1,0,0.2-0.1,0.3-0.2c0.1-0.1,0.1-0.2,0-0.3c-0.1-0.1-0.1-0.2-0.1-0.3c0-0.1,0-0.2,0-0.4c0-0.1,0-0.2,0-0.2
		c0.1,0,0.1,0.1,0.2,0.1c0,0,0,0,0,0c0.1,0,0.1,0.1,0.2,0.1c0-0.1,0.1-0.2,0.1-0.2c0-0.2-0.2-0.4-0.4-0.3c0,0,0,0,0,0
		C37.2,57,37,56.8,37,56.7c0-0.2,0-0.3-0.1-0.4c-0.1-0.1-0.1-0.2-0.2-0.2c0,0,0-0.1,0-0.1c0,0,0.1,0.1,0.1,0.1
		c0.1,0,0.1,0.3,0.2,0.1c0.1-0.1,0.2-0.3,0.3-0.2c0,0,0.1,0,0,0c0-0.1,0-0.2,0-0.3c0,0,0-0.1-0.1-0.2c-0.1-0.1-0.3-0.2-0.5-0.3
		c-0.1-0.1-0.2-0.2-0.1-0.4c0-0.1,0.1-0.2,0.1-0.4c0-0.1,0-0.1,0-0.2c0,0-0.1,0.1-0.1,0.1c-0.1,0.2-0.4,0.3-0.5,0.2
		c-0.3-0.3-0.2,0-0.2,0.1c-0.1,0.2,0,0.3,0.2,0.5c0.1,0,0,0.2,0,0.3c0,0.2,0,0.3,0,0.5C36.1,55.8,36,55.9,36,55.9
		c-0.4,0-0.4,0-0.3,0.4c0,0,0.1,0.1,0.1,0.1c0-0.1,0.1-0.1,0-0.2C35.8,56.1,35.9,56,36,55.9 M25.7,32.3c-0.2,0-0.4,0-0.6,0
		c-0.3,0.1-0.4,0.3-0.5,0.5c-0.1,0.2-0.1,0.4,0.2,0.4c0.3,0.1,0.6,0.1,0.9,0.2c0.1,0.1,0.3,0.1,0.5,0.1c0.2,0,0.5,0.1,0.6,0.1
		c0.2-0.1,0.4,0,0.6,0c0.1,0,0.3,0.1,0.4,0.1c0.1,0,0.2-0.1,0.2-0.2c0.1-0.2,0.2-0.3,0.1-0.5c0,0,0-0.1-0.1-0.1
		c-0.2-0.1-0.3-0.2-0.5-0.2c-0.2-0.1-0.4-0.2-0.3-0.5c0-0.1,0-0.3,0-0.4c0-0.2,0.1-0.3,0.1-0.5c0-0.1-0.1-0.1-0.1-0.2
		c-0.1,0-0.2,0.1-0.2,0.1c-0.1,0.3-0.2,0.7-0.2,1c0,0.2-0.1,0.2-0.2,0.2c-0.1,0-0.2,0-0.3,0C26.2,32.5,26,32.4,25.7,32.3 M29.4,43.8
		c0-0.1,0-0.3,0-0.4c0-0.1-0.1-0.2-0.2-0.3c0,0-0.1,0.1-0.2,0.1c0,0,0,0.1,0,0.2c0,0.2,0,0.4-0.3,0.4c-0.1,0-0.3,0-0.4,0
		c-0.1,0-0.2,0-0.1-0.1c0-0.1,0-0.3,0.2-0.2c0.1,0,0.3,0,0.3,0c0-0.1,0-0.2,0-0.3c0,0,0,0,0-0.1c0-0.1,0-0.2,0-0.2
		c0,0,0.1-0.1,0.2-0.1c0.1,0,0.1,0,0.2,0c0,0,0.1-0.1,0.1-0.1c0,0,0-0.1-0.1-0.1c-0.3-0.2-0.4-0.1-0.7,0.1c-0.1,0.1-0.3,0.2-0.5,0.3
		c0,0-0.2-0.2-0.2-0.3c0.1,0,0.1,0,0.2-0.1c0.1,0,0.2,0,0.3-0.1c0,0,0.1-0.1,0.1-0.2c-0.1,0-0.1-0.1-0.2-0.1c-0.2,0-0.4,0-0.5,0.2
		c-0.3,0.3-0.7,0.6-0.8,1c0,0-0.1,0.1-0.1,0.1c-0.2,0-0.2,0.2-0.1,0.3c0,0.1,0.2,0.1,0.3,0.1c0.2,0,0.3,0,0.5,0c0.1,0,0.2,0,0.3,0
		c0.2,0,0.4-0.1,0.6,0c0.2,0.1,0.4,0.1,0.6,0c0,0,0.1-0.1,0.2,0C29.2,44.1,29.3,44,29.4,43.8 M31.5,36.3c0.1-0.1,0.1-0.3,0.1-0.4
		c0-0.1-0.1-0.2,0-0.3c0-0.2,0-0.3-0.2-0.3c-0.1,0-0.1,0-0.2,0c-0.6-0.1-1.1,0.2-1.1,0.8c0,0.1,0,0.2-0.2,0.1c0,0-0.1,0.1-0.1,0.2
		c0,0.2,0,0.5,0,0.7c0,0.3,0,0.5,0,0.8c0,0,0,0.1,0.1,0.1c0,0,0.1-0.1,0.1-0.1c0-0.4,0-0.8,0-1.3c0-0.3,0-0.3,0.3-0.2
		c0.1,0,0.3,0,0.3,0c0.2,0.1,0.3,0.1,0.5,0c0,0,0.1,0,0.1,0C31.3,36.4,31.4,36.4,31.5,36.3 M26.7,35.2c0.2,0,0.4,0,0.6,0
		c0.2,0,0.2-0.2,0.2-0.3c0-0.1,0-0.2-0.2-0.2c-0.3,0-0.5-0.1-0.8-0.1c-0.2,0-0.4,0-0.5,0c-0.3-0.1-0.5,0-0.6,0.2
		c-0.1,0.1-0.2,0.3-0.1,0.3c0.1,0.1,0.2,0.1,0.3,0.2c0.2,0,0.5,0,0.7,0.1C26.5,35.3,26.6,35.3,26.7,35.2 M28,45.1
		c0.1,0,0.3,0.1,0.3-0.2c0,0,0.1-0.1,0.1-0.1c0,0,0,0.1,0,0.1c0,0.1,0.1,0.1,0.1,0.2c0,0,0.1-0.1,0.1-0.1c0.1-0.1,0.1-0.2,0.2-0.1
		c0,0,0.1,0,0.1,0c0,0-0.1-0.1-0.1-0.1c-0.3-0.1-0.6-0.1-0.9-0.2c-0.3,0-0.6,0-0.9,0.1C27,44.7,27,44.9,27,45c0,0.1,0.1,0.2,0.2,0.2
		C27.4,45.2,27.7,45.1,28,45.1 M30.5,77c0.1,0,0.1,0.1,0.2,0.1c0.1,0,0.2,0,0.2,0c0.1-0.3,0.1-0.5,0.3-0.8c0.1-0.1,0.1-0.3,0.1-0.4
		c0-0.1,0-0.2-0.1-0.2c-0.2-0.1-0.3,0-0.4,0.1c-0.1,0.1-0.2,0.2-0.2,0.3c0,0.3-0.1,0.5-0.2,0.6C30.1,76.8,30.3,76.9,30.5,77
		 M26.9,30.4c-0.2-0.1-0.8,0.1-0.9,0.2c-0.1,0.1-0.1,0.3,0,0.3c0.2,0,0.4,0,0.6,0c0.1,0,0.2,0,0.4,0c0.1,0,0.2,0,0.3-0.1
		c0.1-0.1,0-0.3-0.1-0.4C27.1,30.5,27,30.4,26.9,30.4 M30.4,75.2c0.2-0.3,0.4-0.5,0.6-0.8c0,0,0-0.1,0-0.1c0,0-0.1,0-0.1,0
		c-0.2,0.2-0.5,0.4-0.7,0.6c-0.1,0.1-0.2,0.1-0.2,0.2c0,0,0,0.1,0,0.2c0.1,0,0.2,0,0.2,0C30.2,75.4,30.3,75.3,30.4,75.2 M29.7,76
		c0,0.2,0.1,0.5-0.1,0.7c0,0,0,0.1,0.1,0.2c0,0,0.1,0.1,0.2,0c0,0,0.1-0.1,0.1-0.2c0-0.3,0-0.6,0-0.9c0-0.1,0-0.1-0.1-0.2
		c-0.1,0-0.1,0.1-0.2,0.1C29.7,75.8,29.7,75.9,29.7,76 M31,57.6c0,0.2,0.1,0.3,0.1,0.5c0,0,0,0.1,0.1,0.1c0,0,0.1,0,0.1,0
		c0.1-0.2,0-0.6-0.1-0.8c0-0.1-0.1-0.1-0.1-0.2c0-0.1,0-0.1,0-0.2c-0.1,0-0.2,0.1-0.2,0.1C30.7,57.4,31,57.4,31,57.6 M31.1,76.8
		c0,0-0.1,0.1-0.1,0.1c0,0.1,0,0.2-0.1,0.2c0,0.1,0,0.2,0,0.2c0,0.1,0.1,0.2,0.2,0c0.1-0.2,0.2-0.4,0.3-0.7c0,0,0-0.1,0-0.1
		c0,0,0,0-0.1,0C31.3,76.7,31.2,76.8,31.1,76.8 M32.1,73.5c-0.1,0.2-0.3,0.4-0.4,0.7c0,0.1-0.1,0.1-0.1,0.2c0.1,0,0.2,0,0.3-0.1
		c0.1-0.1,0.1-0.2,0.2-0.3C32.1,73.9,32.1,73.7,32.1,73.5c0.1,0,0.1,0,0.1,0C32.2,73.5,32.1,73.5,32.1,73.5 M36.8,53.6
		c0.1,0.1,0.2,0.3,0.3,0.4c0,0,0.1,0,0.1,0.1c0,0,0-0.1,0-0.1c0-0.1-0.1-0.2-0.1-0.3c0-0.2-0.1-0.3-0.1-0.5c0,0-0.1,0-0.1-0.1
		c0,0,0,0.1,0,0.1C36.8,53.3,36.8,53.4,36.8,53.6 M32.9,42.7c-0.2,0.1-0.5,0.1-0.7,0.2c0,0,0,0.1,0,0.1c0.2,0,0.3,0.1,0.5,0.1
		c0,0,0,0,0-0.1c0.1-0.1,0.1-0.2,0.2-0.2C33.1,42.8,33,42.8,32.9,42.7 M35.3,59.5c0.3,0.1,0.6,0.1,0.7-0.2c0,0,0-0.1,0-0.1
		c0,0-0.1,0-0.1,0c-0.2,0.1-0.5,0.1-0.7,0.2C35.3,59.3,35.3,59.4,35.3,59.5 M27.4,41.9c0.1-0.1,0.1-0.2,0-0.2
		c-0.2,0-0.4,0.1-0.6,0.1c0,0,0,0.1,0,0.1c0,0,0.1,0.1,0.1,0.1C27,42,27.2,42,27.4,41.9 M35.1,56.3C35.1,56.3,35.1,56.2,35.1,56.3
		C35,56.1,35,56,34.9,55.9c0,0.1-0.1,0.2-0.1,0.3c0,0,0,0.1,0,0.1c0,0.1,0.1,0.2,0.1,0.3c0,0,0.1,0,0.1,0.1c0-0.1,0-0.2,0.1-0.2
		C35.1,56.4,35.1,56.4,35.1,56.3 M24.7,26.7c0.1,0,0.2,0.1,0.3,0.1c0.1,0,0.1-0.1,0.2-0.1c0,0-0.1-0.1-0.1-0.1
		c-0.1,0-0.1-0.1-0.2-0.1c-0.1,0-0.2,0-0.3,0C24.5,26.5,24.6,26.6,24.7,26.7 M32.8,45.2c0.1-0.1,0.2-0.3,0.4-0.4c0,0,0,0,0.1-0.1
		c0,0-0.1-0.1-0.1-0.1c-0.1,0-0.3,0-0.3,0.2c0,0.1,0,0.2-0.1,0.3c0,0-0.1,0.1-0.1,0.1C32.7,45.2,32.7,45.2,32.8,45.2 M33.6,46.6
		c0-0.2-0.1-0.3-0.2-0.3c0,0-0.2,0-0.2,0.1c0,0.1,0.1,0.1,0.1,0.2C33.4,46.5,33.5,46.5,33.6,46.6 M25.3,31.5c0.2,0,0.5,0.1,0.7,0.1
		c0,0,0,0,0,0c0,0,0-0.1,0-0.1C25.8,31.5,25.6,31.5,25.3,31.5 M26.9,34.1c0.1,0,0.1,0,0.2,0c0,0-0.1-0.1-0.1-0.1c-0.2,0-0.5,0-0.7,0
		c0,0-0.1,0-0.1,0c0,0,0.1,0,0.1,0C26.4,34,26.6,34,26.9,34.1 M37.3,54.7c-0.2,0-0.2,0.1-0.1,0.3c0,0.1,0.1,0.1,0.1,0.2
		c0-0.1,0.1-0.2,0.1-0.3C37.4,54.8,37.3,54.7,37.3,54.7 M31.1,34.2c-0.1,0-0.2,0-0.2,0c-0.1,0-0.1,0-0.2,0c0,0,0.1,0.1,0.1,0.1
		c0,0,0.1,0,0.1,0c0.1,0,0.2-0.1,0.3-0.1c0,0,0.1-0.1,0.1-0.1c0,0,0-0.1-0.1-0.1C31.3,34.1,31.2,34.2,31.1,34.2 M34.8,54.4
		c0,0,0.1,0,0.1,0c0,0,0.1-0.1,0.1-0.1c0-0.1,0-0.2-0.1-0.2c-0.1,0-0.1,0-0.2,0.1C34.7,54.2,34.8,54.3,34.8,54.4 M25.7,31.3
		C25.7,31.3,25.7,31.3,25.7,31.3c0.2,0.1,0.1-0.1,0.2-0.2c0,0,0-0.1,0-0.1c-0.1,0.1-0.1,0.1-0.2,0.2C25.6,31.1,25.7,31.2,25.7,31.3
		 M36.9,65.7c0.1,0,0.1,0,0.2,0c0-0.1,0-0.2-0.1-0.3c0,0-0.1,0-0.1,0C36.9,65.5,36.9,65.6,36.9,65.7C36.9,65.7,36.9,65.7,36.9,65.7
		 M32.6,43.6c-0.1-0.1-0.1-0.1-0.2-0.2c0,0.1,0,0.1,0,0.2c0,0.1,0.1,0.1,0.1,0.2C32.6,43.8,32.6,43.7,32.6,43.6 M36.7,60.7
		C36.7,60.7,36.7,60.8,36.7,60.7C36.7,60.7,36.8,60.7,36.7,60.7c0.1-0.1,0.1-0.2,0-0.3c0,0,0,0-0.1,0C36.6,60.5,36.7,60.6,36.7,60.7
		 M32.6,75.6c0.1,0,0.1,0,0.1-0.2c0,0,0-0.1,0-0.1c0,0.1-0.1,0.1-0.1,0.2C32.5,75.5,32.6,75.5,32.6,75.6 M36.6,53.5
		c0,0.1,0,0.1,0,0.2c0,0,0,0,0,0.1c0-0.1,0.1-0.1,0.1-0.2C36.7,53.6,36.7,53.5,36.6,53.5 M37.5,56.9c0,0-0.1,0.1-0.1,0.1
		c0.1,0,0.1,0,0.2,0C37.5,57,37.5,56.9,37.5,56.9 M33.4,49.8c0-0.1,0-0.1,0-0.2c0,0-0.1,0-0.1,0C33.3,49.7,33.3,49.7,33.4,49.8
		 M36.1,59.1c0.1,0,0.1,0,0.1,0c0,0,0.1,0,0.1-0.1c0,0,0-0.1-0.1-0.1c0,0-0.1,0-0.1,0C36.2,59,36.2,59,36.1,59.1 M29,32.2
		c-0.1,0-0.1,0-0.2-0.1c0,0,0,0.1,0,0.1C29,32.2,29,32.2,29,32.2 M30.6,34c0-0.1,0-0.1,0-0.2c0,0,0,0,0,0
		C30.6,33.8,30.6,33.9,30.6,34C30.6,34,30.6,34,30.6,34 M36.6,60.9c0,0,0,0.1,0,0.1c0,0,0,0,0,0C36.7,61,36.7,60.9,36.6,60.9z"/>
	<path d="M41.9,68.6c0.1-0.2,0.2-0.3,0.3-0.5c0,0,0-0.1,0.1-0.1c0,0,0,0.1,0.1,0.1c0,0,0,0.1,0,0.1c-0.2,0.5-0.3,1.1-0.7,1.5
		c0,0-0.1,0.1-0.1,0.1c0,0.1,0,0.2,0,0.2c0.1,0,0.1,0,0.2-0.1c0.2-0.3,0.5-0.6,0.7-0.9c0-0.1,0.1-0.1,0.1-0.1c0,0.1,0.1,0.1,0.1,0.2
		c0,0.1,0,0.3-0.1,0.4c-0.1,0.1-0.2,0.3-0.3,0.4c-0.2,0.2-0.4,0.5-0.6,0.7c0,0-0.1,0-0.1,0c-0.2,0-0.3,0.1-0.4,0.3
		c-0.2,0.4-0.4,0.9-0.6,1.3c-0.2,0.5-0.4,1-0.7,1.5c-0.2,0.4-0.5,0.8-0.7,1.3c-0.2,0.3-0.3,0.7-0.3,1.1c0,0.1,0,0.2-0.1,0.2
		c-0.3,0.2-0.3,0.5-0.3,0.7c-0.1,0.4-0.2,0.8-0.3,1.3c0,0.2,0,0.3-0.1,0.5c-0.1,0.4-0.1,0.9-0.2,1.3c0,0.3,0,0.7,0,1
		c0,0.3,0,0.5,0,0.8c0,0.2,0,0.5,0.2,0.7c0.1,0.1,0.3,0.2,0.5,0.1c0.6-0.1,1-0.4,1.4-0.9c0.1-0.1,0.1-0.1,0.2-0.2c0,0,0.1,0,0.1,0
		c0,0,0,0.1,0,0.1c0,0,0,0,0,0c-0.1,0.2-0.3,0.4-0.4,0.5c-0.1,0.1-0.1,0.1-0.2,0.2c0,0,0,0.1,0,0.1c0,0,0.1,0,0.1,0c0,0,0,0,0,0
		c0.1-0.1,0.2-0.2,0.3,0c0,0-0.1,0.2-0.1,0.3c-0.1,0.1-0.2,0.3-0.3,0.4c-0.3,0.4-0.6,0.8-0.9,1.3c0,0-0.1,0.1,0,0.1
		c0.2,0.2,0.1,0.4,0,0.6c-0.3,0.6-0.7,1.2-1,1.8c-0.2,0.3-0.4,0.6-0.6,0.9c-0.3,0.5-0.6,1-0.9,1.5c-0.1,0.2-0.1,0.3-0.1,0.5
		c0,0.2-0.1,0.3-0.1,0.5c0,0.1,0,0.1,0,0.2c0,0,0.1-0.1,0.1-0.1c0.2-0.5,0.4-1.1,0.8-1.5c0.2-0.2,0.3-0.5,0.5-0.7
		c0-0.1,0.1-0.1,0.1-0.1c0,0.1,0.1,0.1,0.1,0.2c0.3,0.6,0.1,1.1-0.2,1.7c-0.2,0.4-0.5,0.8-0.7,1.2c-0.1,0.3-0.4,0.4-0.4,0.7
		c0,0.1,0,0.2,0,0.3c0,0,0,0.1,0,0.1c0,0,0.1-0.1,0.1-0.1c0-0.2,0.2-0.3,0.3-0.4c0.1-0.2,0.2-0.4,0.3-0.7c0-0.2,0.1-0.4,0.3-0.6
		c0.2-0.4,0.5-0.8,0.7-1.2c0.1-0.2,0.2-0.4,0.4-0.5c0.2-0.2,0.4-0.5,0.6-0.8c0.2-0.4,0.5-0.7,0.7-1.1c0.2-0.3,0.4-0.5,0.5-0.9
		c0.1-0.2,0.2-0.3,0-0.5c-0.1-0.2,0.3-0.6,0.5-0.6c0.1,0,0.2-0.1,0.2-0.1c0.1-0.3,0.3-0.7,0.4-1c0,0,0.1-0.1,0.1-0.1
		c0,0,0.1,0.1,0.1,0.1c-0.1,0.3-0.2,0.6-0.2,0.9c-0.1,0.2-0.1,0.4-0.1,0.7c0.1,0.2,0,0.5-0.1,0.8c-0.1,0.5-0.2,1-0.3,1.4
		c0,0.2-0.1,0.4-0.1,0.6c-0.1,0.4-0.2,0.8-0.3,1.2c-0.1,0.8-0.3,1.5-0.6,2.3c-0.2,0.4-0.3,0.9-0.5,1.3c-0.2,0.6-0.3,1.2-0.5,1.9
		c0,0-0.1,0.1-0.1,0.1c-0.9,0-1.9,0-2.8,0c-0.2,0-0.1-0.1-0.1-0.2c0.2-0.3,0.1-0.6,0.1-0.9c0-0.1,0-0.1,0-0.2c0.1-0.2,0-0.4-0.1-0.6
		c-0.1-0.2-0.1-0.5-0.2-0.8c0-0.1-0.1-0.3-0.1-0.4c-0.1-0.2-0.1-0.5-0.2-0.7c-0.1-0.7-0.1-1.4-0.1-2.2c0-0.7,0-1.5,0-2.2
		c0,0,0,0,0-0.1c0-0.1,0-0.2,0.1-0.3c-0.1,0-0.2,0-0.3,0c-0.7,0.1-1.4,0-1.8-0.6c-0.6-0.8-0.4-1.5-0.1-2.3c0.1-0.2,0.1-0.4,0.2-0.6
		c0.1-0.2,0-0.2-0.1-0.2c-0.3,0-0.6-0.1-0.8-0.4c0-0.1-0.2-0.1-0.2-0.1c-0.2,0-0.4,0.1-0.6,0.1c-0.4,0-0.8-0.1-1.2-0.3
		c0,0,0-0.1-0.1-0.1c0,0,0.1,0,0.1,0c0.1,0,0.3,0,0.4,0c0.2,0,0.4-0.3,0.3-0.4c-0.1-0.2-0.1-0.4,0-0.6c0.1-0.3,0.1-0.6,0.2-1
		c0.1-0.3,0.1-0.6,0.2-0.8c0,0,0.1-0.1,0.1-0.1c0.3-0.2,0.7-0.4,1-0.7c0.2-0.2,0.3-0.4,0.5-0.6c0.1-0.1,0.2-0.2,0.2-0.4
		c0.2-0.7,0.8-0.9,1.3-1.3c0.1-0.1,0.2-0.2,0.3-0.2c0.1-0.1,0.2-0.2,0.3-0.2c0.4,0,0.5-0.3,0.7-0.5c0.1-0.1,0.2-0.2,0.3-0.4
		c0,0,0.1-0.1,0.1-0.1c0,0.1,0,0.1,0,0.2c-0.1,0.2-0.3,0.5-0.4,0.7c-0.2,0.5-0.4,1-0.7,1.5c-0.1,0.3-0.3,0.6-0.5,0.8
		c0,0,0,0.1,0,0.2c0.1,0,0.1,0,0.2-0.1c0.3-0.4,0.7-0.8,1-1.2c0.1-0.1,0.2-0.2,0.3-0.3c0.4-0.3,0.7-0.7,1-1.2
		c0.1-0.1,0.2-0.3,0.3-0.3c0.3-0.2,0.4-0.4,0.6-0.7c0.2-0.2,0.4-0.5,0.6-0.7c0.1-0.1,0.3-0.3,0.4-0.4c0.3-0.3,0.5-0.5,0.8-0.8
		c0.2-0.2,0.3-0.5,0.5-0.8c0,0,0-0.1-0.1-0.1c-0.1,0-0.1,0.1-0.2,0.1c0,0,0,0.1,0,0.1c0.1,0.1,0,0.2,0,0.3c-0.2,0.2-0.4,0.4-0.6,0.7
		c-0.1,0.1-0.3,0.2-0.4,0.2c0,0-0.1,0-0.1,0c0,0,0-0.1,0-0.1c0.2-0.3,0.4-0.5,0.6-0.8c0.1-0.1,0.1-0.2,0.2-0.3
		c0.1-0.2,0.5-0.4,0.6-0.3c0.2,0.1,0.3,0,0.3-0.1c0.3-0.4,0.5-0.7,0.8-1.1c0.3-0.4,0.6-0.9,0.9-1.3C41.8,68.8,41.8,68.7,41.9,68.6
		 M36.2,78.1c-0.2,0.4-0.4,0.7-0.6,1.1c-0.3,0.4-0.5,0.9-0.8,1.3c0,0.1-0.1,0.1-0.1,0.2c0.1,0,0.2-0.1,0.2-0.1
		c0.1-0.1,0.1-0.1,0.2-0.2c0.1-0.1,0.2-0.3,0.3-0.4c0.1-0.2,0.3-0.4,0.4-0.6c0.1-0.5,0.5-0.8,0.8-1.1c0.1-0.1,0.3-0.2,0.4-0.3
		c0.4-0.4,0.6-0.8,0.9-1.3c0.2-0.2,0.2-0.5,0.1-0.7c0-0.1,0-0.1,0-0.2c0.1-0.2,0.3-0.5,0.4-0.7c0.1-0.1,0.3-0.2,0.3-0.2
		c0-0.2,0.1-0.4,0.2-0.6c0.1-0.1,0.1-0.3,0.1-0.4c-0.1,0.1-0.3,0.2-0.3,0.3c-0.2,0.3-0.4,0.6-0.7,0.9c-0.2,0.3-0.5,0.5-0.7,0.8
		c-0.1,0.2-0.3,0.4-0.3,0.6c0,0,0,0.1,0,0.1c0.3,0,0.1,0.1,0,0.2c-0.1,0.1-0.2,0.2-0.2,0.3C36.8,77.4,36.6,77.7,36.2,78.1
		 M37.3,81.5c-0.1,0.3-0.2,0.7-0.2,1c-0.1,0.6-0.2,1.1,0,1.7c0,0.1,0.1,0.1,0.1,0.2c0-0.1,0.1-0.2,0.1-0.2c0,0,0,0,0,0
		c0-0.4,0.1-0.7,0.1-1.1c0-0.2,0-0.4,0-0.6c0-0.5,0.1-1,0.1-1.4c0,0,0-0.1,0-0.1c0,0-0.1,0-0.1,0.1C37.4,81.2,37.4,81.4,37.3,81.5
		 M34.1,79.7c0.1-0.1,0.3-0.3,0.4-0.4c0.1-0.1,0.1-0.2,0.2-0.3c-0.1,0.1-0.2,0.1-0.3,0.2c0,0,0,0-0.1,0.1c-0.2,0.1-0.3,0.3-0.5,0.4
		c-0.4,0.2-0.7,0.4-1.1,0.6c-0.2,0.1-0.3,0.2-0.5,0.3c-0.1,0-0.1,0.1-0.1,0.1c0.1,0,0.2,0.1,0.2,0.1c0.2-0.1,0.3-0.2,0.5-0.3
		c0.3-0.2,0.5-0.3,0.8-0.5C33.8,80,34,79.8,34.1,79.7 M34.5,76.7c0.1-0.2,0.2-0.4,0.3-0.6c0.1-0.1,0.1-0.2,0.2-0.3
		c-0.1,0-0.3,0-0.4,0c0,0,0,0,0,0c0,0-0.1,0.1-0.1,0.1c0.1,0.3-0.1,0.5-0.2,0.7c-0.1,0.1-0.1,0.2-0.1,0.3c0,0.1-0.1,0.2-0.1,0.3
		c0,0.1-0.1,0.1-0.2,0.2c0,0,0,0.1,0,0.2c0.1,0,0.1,0,0.2,0c0,0,0-0.1,0.1-0.1C34.2,77.2,34.3,77,34.5,76.7 M39.6,87.6
		C39.7,87.6,39.7,87.6,39.6,87.6c0.2-0.2,0.3-0.4,0.4-0.7c0.1-0.2,0.2-0.3,0.3-0.5c0.1-0.3,0.3-0.7,0.4-1c0-0.1,0-0.1,0-0.2
		c0,0-0.1,0.1-0.1,0.1c-0.1,0.3-0.2,0.6-0.4,0.8C40,86.7,39.8,87.1,39.6,87.6 M38.5,83C38.5,83,38.5,83,38.5,83c0,0.2,0,0.3,0.1,0.4
		c0.1,0.1,0.2,0.1,0.4-0.1c0.1-0.1,0.2-0.2,0.3-0.3c0.1-0.1,0.1-0.2,0.1-0.2c-0.1,0-0.2,0.1-0.3,0.1c0,0,0,0-0.1,0.1
		c-0.1,0.1-0.2,0.2-0.4,0.1C38.6,82.9,38.5,82.9,38.5,83 M38.6,88.5c0,0,0-0.1,0-0.1C38.5,88.4,38.5,88.5,38.6,88.5
		c-0.1,0-0.1,0.1-0.2,0.1c-0.2,0.3-0.3,0.5-0.5,0.8c0,0,0,0,0,0c-0.1,0.2-0.2,0.3-0.2,0.5c0,0,0,0,0,0.1c0,0,0,0,0,0
		c0.1-0.2,0.3-0.4,0.4-0.6C38.3,89.1,38.4,88.8,38.6,88.5 M38.6,83.9c0-0.1-0.1-0.3-0.1-0.4c0,0-0.1-0.1-0.1-0.1
		c0,0-0.1,0.1-0.1,0.1c0,0.2,0,0.4,0,0.5c0,0.1,0.1,0.1,0.1,0.2c0-0.1,0.1-0.2,0.1-0.2C38.6,84,38.6,84,38.6,83.9 M36,81.1
		c0.1-0.2,0.1-0.4,0.2-0.5c0,0,0-0.1,0-0.1c0,0-0.1,0-0.1,0.1c-0.1,0.3-0.2,0.6-0.4,1c0,0,0,0.1,0,0.1c0,0,0.1-0.1,0.1-0.1
		C35.9,81.4,36,81.3,36,81.1 M35.5,83.6C35.5,83.6,35.5,83.6,35.5,83.6c0-0.1-0.1-0.2-0.1-0.3c0,0.1-0.1,0.1-0.1,0.2
		c0,0.2,0,0.5,0,0.7c0,0,0,0.1,0,0.1c0,0,0.1-0.1,0.1-0.1C35.4,84.1,35.4,83.9,35.5,83.6 M33.2,78c0-0.1,0.1-0.1,0.1-0.2
		c0,0-0.1-0.1-0.1,0c-0.1,0.1-0.2,0.1-0.3,0.2c0,0,0,0.1,0,0.2c0,0,0.1,0,0.1-0.1C33.1,78.1,33.1,78.1,33.2,78 M38.2,82.9
		c-0.1,0-0.1,0-0.2-0.1c0,0.1-0.1,0.2,0,0.2c0,0.1,0.1,0.1,0.2,0.1c0-0.1,0-0.1,0-0.2C38.3,83,38.3,82.9,38.2,82.9 M34.9,81
		C34.8,81,34.8,81.1,34.9,81c-0.1,0.2-0.2,0.3-0.2,0.4c0.1-0.1,0.2-0.1,0.3-0.2C34.9,81.2,34.9,81.1,34.9,81 M35.5,77.1
		c-0.1,0.1-0.2,0.2-0.2,0.2c0,0,0,0.1,0,0.1c0,0,0.1,0,0.1,0C35.5,77.4,35.6,77.3,35.5,77.1C35.6,77.2,35.6,77.1,35.5,77.1
		 M36.2,82.8C36.1,82.8,36.1,82.7,36.2,82.8c-0.1,0.1-0.1,0.2-0.1,0.3c0,0,0,0,0.1,0c0,0,0,0,0,0C36.2,83,36.2,82.9,36.2,82.8
		 M35.6,86.5c0,0,0-0.1,0-0.1c0,0-0.1,0-0.1,0.1c0,0.2,0,0.3,0,0.5c0,0,0,0,0,0c0,0,0,0,0-0.1C35.4,86.7,35.5,86.6,35.6,86.5
		 M31.5,81.1c-0.1,0-0.2,0-0.3,0c0,0,0,0.1,0,0.1C31.3,81.2,31.4,81.1,31.5,81.1 M38.1,85C38.1,85,38.1,85,38.1,85
		c0.1-0.1,0.1-0.2,0.1-0.3c0,0,0,0-0.1,0C38.1,84.8,38.1,84.9,38.1,85 M35.6,82.8c0-0.1,0-0.1-0.1-0.2c0,0-0.1,0.1-0.1,0.1
		c0,0.1,0,0.1,0.1,0.2C35.5,82.9,35.5,82.9,35.6,82.8 M33.5,82.1c-0.1,0-0.2,0-0.2,0.1c0,0,0,0-0.1,0.1c0,0,0.1,0,0.1,0
		C33.3,82.2,33.4,82.2,33.5,82.1 M38.1,85.2c0,0.1,0,0.1,0,0.2c0,0,0,0,0.1,0c0-0.1,0-0.1,0-0.2C38.2,85.2,38.1,85.2,38.1,85.2
		C38.1,85.2,38.1,85.2,38.1,85.2 M31.9,80c0.1,0,0.2,0,0.3-0.1c0,0,0,0,0,0C32.1,79.9,32,79.9,31.9,80C31.9,79.9,31.9,79.9,31.9,80
		 M31.3,79.9c0,0,0,0.1,0,0.1c0,0,0.1,0,0.1,0C31.5,79.9,31.4,79.9,31.3,79.9 M38.4,75.4c0-0.1,0.1-0.1,0.1-0.2c0,0,0,0,0,0
		C38.5,75.3,38.4,75.4,38.4,75.4 M35.5,85.4C35.5,85.4,35.5,85.4,35.5,85.4C35.6,85.4,35.6,85.4,35.5,85.4
		C35.6,85.3,35.5,85.3,35.5,85.4 M37.8,77.6c0-0.1,0-0.1,0-0.2c0,0,0,0,0,0C37.8,77.5,37.8,77.6,37.8,77.6z"/>
	<path d="M34.7,21.2c0.1,0,0.2-0.1,0.3,0c0.1,0,0.1,0.1,0.2,0.1c-0.1,0-0.1,0.1-0.2,0.1c-0.5,0-0.7,0.3-0.8,0.7c0,0.1,0,0.3,0,0.4
		c0,0.1,0.1,0.1,0.1,0.2c0,0.1-0.1,0.2-0.2,0.3c-0.1-0.1-0.2-0.1-0.2-0.2c-0.1-0.3,0-0.4-0.4-0.3c-0.4,0.1-0.9-0.1-1-0.6
		c0,0,0-0.1,0-0.1c0.2-0.2,0.1-0.3,0.1-0.5c0,0,0-0.1-0.1-0.1c0,0-0.1,0-0.1,0.1c0,0,0,0,0,0c-0.1,0.1-0.1,0.1-0.2,0.2
		c0-0.1-0.1-0.2-0.1-0.3c0,0,0-0.1,0-0.2c0-0.1,0.1-0.2-0.1-0.2c-0.2,0-0.2,0.1-0.2,0.2c0,0.2,0.1,0.4,0.2,0.5
		c0.2,0.3,0.2,0.7,0.1,1c0,0.1,0,0.1,0,0.2c0,0.1,0,0.1-0.1,0.2c0,0-0.1-0.1-0.1-0.1c0-0.2-0.1-0.3,0-0.5c0.1-0.1-0.1-0.6-0.3-0.7
		c-0.1-0.1-0.2-0.2-0.3-0.3c-0.1-0.2-0.4-0.2-0.5,0c0,0-0.1,0-0.1,0c0,0,0-0.1,0-0.1c0-0.1,0.1-0.2,0.1-0.2
		c-0.1-0.1-0.2-0.2-0.4-0.3c0,0-0.1,0.1,0,0.1c0,0.2,0,0.3-0.2,0.3c-0.1,0-0.2,0-0.3,0c-0.1,0-0.3,0-0.2-0.2c0,0,0,0,0-0.1
		c0,0-0.1,0-0.1,0c-0.1,0.1-0.2,0.2-0.3,0.4c-0.1,0.1-0.2,0.1-0.3,0c-0.2-0.2-0.4-0.4-0.5-0.6c0-0.1-0.2-0.1-0.3-0.2
		c0,0.1-0.1,0.2-0.1,0.3c0,0.1-0.1,0.2-0.1,0.2c-0.1,0-0.2-0.1-0.2-0.2c0-0.1-0.1-0.2-0.1-0.2c-0.1,0.1-0.3,0.1-0.4,0.2
		c-0.1,0.1-0.2,0.2-0.4,0.3c-0.2,0.1-0.4,0.2-0.4,0.5c0,0.1,0,0.2,0.1,0.2c0,0,0,0,0,0c0.1,0.1,0.3,0.1,0.4,0.2
		c-0.1,0.1-0.2,0.2-0.4,0.2c-0.1,0-0.3,0-0.5,0c0,0-0.1,0-0.1,0.1c0,0.1,0,0.2,0,0.3c0,0.1-0.1,0.1-0.2,0.2c0-0.1-0.1-0.1-0.1-0.2
		c0-0.2,0.1-0.3,0.1-0.4c0.2-0.3,0-0.7-0.3-0.7c-0.1,0-0.2-0.1-0.2-0.2c0-0.1-0.1-0.1-0.1-0.2c-0.1,0-0.1,0-0.2-0.1
		c0,0.1,0,0.1,0,0.2c0,0,0,0.1,0,0.1c0,0.1,0,0.2,0,0.2c0,0-0.1,0-0.2,0c-0.2,0-0.5,0.1-0.6,0.2c-0.2,0.2-0.4,0.4-0.6,0.7
		c-0.1,0.2-0.2,0.1-0.3,0c0-0.1-0.1-0.2-0.2-0.3c-0.1-0.1-0.2,0-0.2,0.1c0,0.2,0.1,0.3-0.1,0.4c-0.1,0-0.3,0.1-0.4,0.1
		c-0.1,0-0.1,0-0.2,0.1c-0.1,0.2-0.3,0.3-0.4,0.5c-0.1,0.1-0.1,0.2-0.2,0.3c0,0.1,0,0.2-0.1,0.2c0.1,0,0.2,0,0.2,0
		c0,0,0.1-0.1,0.1-0.1c0,0,0.1,0,0.1,0c0,0,0,0.1-0.1,0.1c-0.2,0.1-0.3,0.1-0.5,0.1c-0.1,0-0.2,0.1-0.1-0.2c0.1-0.2,0.1-0.3,0.2-0.5
		c0,0,0,0,0-0.1c0.1-0.3,0.1-0.7,0.1-1c0-0.3-0.3-0.6-0.6-0.6c0,0-0.1,0-0.1,0c0,0-0.1-0.1-0.1-0.2c0.1,0,0.1,0,0.2,0
		c0.1,0,0.1,0,0.2,0c0-0.1-0.1-0.2-0.1-0.2c-0.1-0.1-0.2-0.1-0.3-0.2c0,0,0-0.1-0.1-0.1c0.1,0,0.1-0.1,0.2,0c0.1,0,0.3,0.1,0.4,0.2
		c0.1,0,0.3,0.1,0.4,0.1c0.2,0,0.2-0.1,0.1-0.4c0-0.1,0-0.2-0.1-0.3c0.1,0,0.3,0,0.4,0c0,0,0,0,0,0c0.3,0.3,0.6,0.2,1,0.2
		c0.1,0,0.2-0.1,0.2-0.2c0-0.2,0-0.3,0.2-0.4c0.2-0.1,0.3,0,0.4,0.1c0.1,0,0.1,0.1,0.2,0.2c0.2,0.2,0.4,0.2,0.7,0.1
		c0.1,0,0.3,0,0.5,0c0.2,0,0.2-0.1,0.1-0.2c0-0.1-0.1-0.2-0.1-0.2c0-0.4,0.1-0.9-0.1-1.3c0-0.1,0-0.2,0-0.3c0.1-0.1,0-0.2-0.1-0.3
		c-0.3-0.3-0.5-0.7-0.6-1.2c-0.1-0.5-0.1-0.9-0.2-1.4c-0.1-0.6,0.1-1.3,0.5-1.8c0.3-0.4,0.6-0.7,1.1-0.9c0.1-0.1,0.1-0.1,0-0.2
		c-0.1-0.1-0.1-0.3-0.2-0.4c0,0,0.1-0.1,0.1-0.1c0,0,0.1,0.1,0.1,0.1c0,0.1,0.1,0.2,0.1,0.2c0,0.2,0.2,0.2,0.3,0.1c0,0,0-0.2,0-0.3
		c0-0.1-0.1-0.2-0.2-0.3c0,0,0-0.1-0.1-0.1c0,0,0.1,0,0.1,0c0.2,0,0.4,0.3,0.4,0.5c0,0.2-0.1,0.3-0.4,0.3c0,0-0.1,0-0.1,0.1
		c-0.1,0.2-0.3,0.4-0.4,0.6c0,0.1,0,0.2-0.1,0.2c0,0.1-0.1,0.2-0.1,0.4c-0.1,0.3-0.3,0.5-0.6,0.5c0,0-0.1,0.1-0.1,0.1
		c0.1,0,0.1,0,0.2,0c0.4,0,0.8-0.1,1.2-0.1c0.2,0,0.4,0,0.6,0.1c0.1,0,0.2,0.1,0.2,0.2c0,0.1,0.1,0.2,0.1,0.2c0,0,0.1,0,0.1,0
		c0-0.3,0.2-0.2,0.4-0.3c0.1-0.1,0.2-0.2,0.3-0.4c0,0,0-0.1,0.1-0.1c0,0,0.1,0.1,0.1,0.1c0.1,0.4,0.1,0.4,0.5,0.3c0,0,0.1,0,0.1,0
		c0.2,0,0.3,0.1,0.5-0.1c0,0,0.1,0,0.1,0c0,0,0.1,0.1,0.1,0.1c-0.1,0.3-0.1,0.6-0.2,0.8c0,0.1,0,0.2,0,0.3c0.1,0,0.2,0,0.3-0.1
		c0.1-0.1,0.2-0.2,0.3-0.3c0.3-0.4,0.5-0.7,0.7-1.1c0.2-0.3,0.3-0.6,0.1-0.9c0,0,0-0.1,0-0.2c0,0,0-0.1,0-0.1c0,0,0-0.1,0-0.1
		c0.1-0.1,0.2-0.3,0.3-0.4c0,0,0.1,0,0.1-0.1c0,0,0,0.1,0,0.1c0,0.2,0,0.4-0.2,0.6c-0.1,0.1,0,0.5,0.1,0.6c0.2,0.1,0.8,0,1-0.3
		c0,0,0.1-0.1,0.1-0.1c0.1,0,0.2,0,0.2,0c0,0.1,0,0.2,0,0.2c-0.4,0.6-0.8,1.1-1.1,1.7c-0.1,0.1-0.2,0.3-0.2,0.4
		c0,0.7-0.2,1.2-0.6,1.7c-0.2,0.2-0.4,0.5-0.6,0.7c-0.1,0.1-0.1,0.2-0.1,0.3c0,0.1,0,0.3,0,0.4c0,0.3-0.1,0.7-0.1,1
		c0,0.2-0.1,0.3-0.3,0.3c0,0-0.1,0-0.1,0c-0.1,0-0.1,0.1-0.2,0.1c0.1,0,0.1,0.1,0.2,0.1c0.2,0,0.5,0,0.7,0c0.2,0,0.3-0.1,0.5-0.2
		c0.1,0,0.1-0.1,0.2-0.2c0.2,0,0.4-0.1,0.5,0c0.1,0,0.2,0.2,0.2,0.3c0,0.3,0.1,0.3,0.3,0.3c0.2,0,0.5,0.1,0.7,0
		c0.2-0.1,0.3-0.2,0.5-0.2c0.1,0,0.3,0,0.3,0c0,0.1,0,0.2,0,0.3c0,0.1-0.2,0.3,0,0.3c0.2,0.1,0.4,0.1,0.5,0c0.1,0,0.3-0.1,0.4-0.1
		c0,0,0.1,0,0.1,0c0,0,0,0.1-0.1,0.1c-0.1,0.1-0.2,0.2-0.2,0.3C34.6,21.1,34.6,21.1,34.7,21.2 M26.7,18.8c0,0.1,0.1,0.1,0,0.2
		c0,0.2,0.1,0.3,0.2,0.4c0.1,0.1,0.2,0.2,0.3,0.3c0.1,0.1,0.1,0.1,0.2,0.1c0.3,0,0.6,0,0.9,0c0.1,0,0.3,0,0.3-0.2
		c0-0.1,0.1-0.1,0.1-0.2c0.3-0.1,0.6-0.3,1-0.1c0.1,0,0.1,0,0.2,0c0,0,0,0,0-0.1c-0.1-0.1-0.3-0.3-0.4-0.2c-0.2,0.1-0.5,0-0.7,0
		c0,0-0.1,0-0.1-0.1c0,0,0.1-0.1,0.1-0.1c0.1,0,0.2,0,0.3,0c0.1,0,0.1,0,0.2,0c-0.1,0-0.1-0.1-0.2-0.1c-0.3,0-0.7-0.1-1,0
		c-0.3,0.1-0.6,0.3-0.9,0.4c-0.1,0-0.2,0-0.3,0c-0.1,0-0.1-0.1-0.1-0.2c0-0.2,0-0.4,0-0.5c0-0.1,0-0.1,0.1-0.1c0.1,0,0.3-0.1,0.4,0
		c0.9,0,1.8,0,2.6,0c0,0,0.1,0,0.1,0c0,0-0.1-0.1-0.1-0.1c-0.2,0-0.4,0-0.7,0c-0.5,0-0.9,0-1.4,0c-0.5,0-1.1,0-1.6,0
		c-0.1,0-0.1,0-0.2,0c0,0-0.1,0.1-0.1,0.1c0,0,0.1,0.1,0.1,0.1c0,0,0.1,0,0.1,0C26.7,18.4,26.7,18.4,26.7,18.8 M31.6,13.8
		c-0.2,0.4-0.3,0.7-0.1,1.1c0,0,0.1,0.1,0.1,0c0,0,0.1-0.1,0.1-0.1c0-0.1,0-0.1,0-0.2C31.6,14.4,31.6,14.1,31.6,13.8 M22.4,21.6
		c0.1-0.1,0.1-0.2,0.2-0.3c0,0,0-0.1,0.1-0.1c-0.1,0-0.1-0.1-0.2-0.1c0,0-0.1,0-0.1,0c-0.1,0.1-0.2,0.2-0.2,0.4
		C22.2,21.5,22.3,21.6,22.4,21.6 M33.2,22.1c-0.1-0.1-0.1-0.3-0.2-0.4c0,0-0.1,0-0.2,0.1c0,0,0,0.1,0,0.1
		C32.9,21.9,32.9,22.2,33.2,22.1 M23.8,20.9c0.1,0.1,0.1,0.1,0.2,0.2c0-0.1,0.1-0.2,0.1-0.3c0-0.1-0.1-0.1-0.2-0.1
		C23.7,20.7,23.8,20.8,23.8,20.9 M23.6,21.3c0-0.1,0-0.3-0.1-0.4c0,0-0.1-0.1-0.1-0.1c0,0.1-0.1,0.1-0.1,0.2
		C23.4,21.1,23.4,21.2,23.6,21.3 M26.7,16.9C26.7,17,26.7,17,26.7,16.9C26.7,17,26.7,17,26.7,16.9c0.1,0,0.2,0,0.3,0
		c0.2,0,0.4,0,0.6,0c0,0,0.1,0,0.1-0.1c0,0,0,0-0.1,0C27.4,16.9,27.1,16.9,26.7,16.9 M33.8,21.6c0-0.1,0-0.2,0-0.2c0,0,0,0-0.1,0
		C33.7,21.4,33.7,21.5,33.8,21.6z"/>
	<path d="M74.7,94.7c-0.1,0-0.1,0-0.1-0.1c-0.2-0.5-0.4-0.9-0.6-1.4c-0.3-0.6-0.7-1.1-1.1-1.6c-0.3-0.4-0.5-0.8-0.7-1.3
		c-0.1-0.3-0.4-0.5-0.4-0.8c-0.2-0.8-0.7-1.3-1.2-1.9c-0.3-0.3-0.6-0.6-0.9-0.9c-0.2-0.2-0.3-0.4-0.5-0.5c0,0,0-0.1,0-0.1
		c0,0,0.1,0,0.1,0c0.4,0.2,0.8,0.4,1.1,0.7c0.3,0.2,0.5,0.5,0.8,0.6c0.1,0,0.2,0.2,0.3,0.3c0.2,0.2,0.3,0.5,0.4,0.7
		c0.1,0.2,0.3,0.4,0.5,0.5c0.1,0.1,0.2,0.2,0.2,0.3c0,0.2,0,0.3,0.1,0.5c0.2,0.4,0.4,0.8,0.6,1.2c0.1,0.2,0.3,0.4,0.4,0.6
		c0.1,0.2,0.2,0.4,0.4,0.6c0,0,0,0.1,0.1,0.1c0,0,0-0.1,0-0.1c0-0.1-0.1-0.1,0-0.2c0,0,0.2,0.1,0.2,0.1c0.1,0.3,0.2,0.6,0.2,0.9
		c0,0,0,0.1,0.1,0.1c0.2,0,0.2,0.2,0.3,0.3c0.1,0.3,0.2,0.6,0.4,0.9c0,0.1,0,0.2,0,0.3c0,0-0.1,0.1-0.1,0.1
		C75,94.7,74.9,94.7,74.7,94.7 M74.5,93.2c-0.2,0-0.1,0.1-0.1,0.2c0,0,0.1,0.1,0.1,0.1c0-0.1,0-0.1,0.1-0.2
		C74.5,93.3,74.5,93.3,74.5,93.2z"/>
	<path d="M69.2,86c-0.1,0-0.2,0-0.3,0c-0.1,0-0.2,0-0.2,0c-0.5-0.2-0.9-0.4-1.5-0.4c-0.3,0-0.6-0.1-0.9-0.2c-0.1,0-0.3,0-0.4,0
		c-0.2,0.1-0.3,0.1-0.5,0c-0.1,0-0.2,0-0.3,0c-0.3,0.2-0.5,0.1-0.7-0.1c-0.4-0.4-0.9-0.7-1.4-1c-0.2-0.1-0.3-0.2-0.5-0.3
		c0,0-0.1-0.1-0.1-0.2c-0.1-0.2-0.1-0.3-0.2-0.5c0,0,0-0.1,0-0.1c0,0,0.1,0,0.1,0c0.1,0.1,0.2,0.1,0.2,0.2c0.2,0.4,0.6,0.6,1,0.8
		c0.3,0.2,0.7,0.3,1,0.5c0.1,0.1,0.3,0.1,0.4,0.1c0.3,0,0.5,0.1,0.8,0c0.1,0,0.3,0.1,0.5,0.1c0.2,0,0.4,0.1,0.5,0.1
		c0.1,0,0.1,0,0.2,0c0,0-0.1-0.1-0.1-0.1c-0.2-0.1-0.4-0.2-0.7-0.3c0,0,0,0,0,0c-0.1-0.1-0.1-0.2-0.2-0.3c0.1,0,0.2,0,0.3,0.1
		c0.5,0.1,1,0.3,1.6,0.5c0.4,0.1,0.8,0.2,1.1,0.3c0.3,0.1,0.6,0.3,0.9,0.4c0.5,0.2,0.8,0.5,1.3,0.8c0,0,0,0.1,0.1,0.1
		c0,0-0.1,0.1-0.1,0.1c-0.2,0-0.3,0-0.5-0.1c-0.4-0.2-0.8-0.3-1.2-0.5C69.3,86,69.3,86,69.2,86z"/>
	<path d="M51.7,88.7c0,0-0.1,0-0.1-0.1c0,0,0-0.1,0.1-0.1c0,0,0.1,0,0.1,0c0,0,0.1,0,0.1,0c0-0.1,0.3-0.1,0.2-0.3c0,0,0,0,0,0
		c0.4-0.3,0.8-0.7,1.2-1c0.5-0.5,1-1,1.5-1.5c0.4-0.4,0.7-0.8,1-1.1c0,0,0.1-0.1,0.1-0.1c0.1,0,0.1-0.1,0.2-0.1c0,0.1,0,0.1-0.1,0.2
		c-0.2,0.3-0.4,0.7-0.6,1c-0.1,0.2-0.3,0.4-0.5,0.6c-0.2,0.2-0.5,0.4-0.8,0.7c-0.4,0.5-0.8,0.9-1.2,1.4c-0.3,0.3-0.5,0.6-0.8,0.9
		c-0.5,0.6-1,1.2-1.5,1.7c-0.4,0.4-0.7,0.8-1.1,1.3c-0.4,0.5-0.8,0.9-1.2,1.4c0,0.1-0.1,0.1-0.1,0.1c0-0.1,0-0.2,0-0.2
		c0.2-0.3,0.5-0.6,0.7-1c0.3-0.5,0.7-0.9,1-1.4c0.1-0.1,0.1-0.2,0.1-0.3c0,0,0-0.1,0.1-0.1c0,0,0,0.1,0.1,0.1c0,0,0.1,0.1,0.1,0.1
		c0.1,0,0.1,0,0.2-0.1c0.2-0.3,0.4-0.7,0.5-1.1c0-0.2,0.2-0.4,0.4-0.6C51.6,89,51.8,89,51.7,88.7z"/>
	<path d="M38.9,76.7c0,0.3,0.1,0.5,0.1,0.8c0,0.2,0.1,0.4,0.1,0.6c0.1,0.3,0.3,0.4,0.6,0.3c0.2-0.1,0.3-0.2,0.5-0.3
		c0.2-0.1,0.3-0.1,0.3,0.1c0,0.1,0.1,0.2,0.1,0.3c0,0,0,0.1-0.1,0.1c-0.3,0.1-0.5,0.4-0.6,0.7c0,0,0,0.1,0,0.1c0,0,0.1,0,0.1-0.1
		c0.1-0.1,0.2-0.3,0.3-0.4c0,0,0.1-0.1,0.1-0.1c0,0,0,0.1,0,0.1c-0.2,0.4-0.3,0.7-0.5,1.1c-0.1,0.1-0.2,0.3-0.4,0.4
		c-0.2,0.2-0.4,0.2-0.6,0.1c-0.2-0.1-0.2-0.3-0.2-0.5c-0.2-1.1-0.1-2.2-0.1-3.2c0,0,0,0,0-0.1c0-0.1,0-0.1,0.1-0.2
		C38.9,76.6,38.9,76.6,38.9,76.7 M40,79.6C40,79.6,40,79.5,40,79.6c-0.2,0-0.3,0.1-0.5,0.1c0,0.1,0.1,0.1,0.1,0.2c0,0,0.1,0,0.1,0
		C39.8,79.9,39.9,79.7,40,79.6 M39.9,79.1c0-0.1,0-0.1,0-0.2c0,0,0,0-0.1,0C39.8,78.9,39.8,79,39.9,79.1
		C39.8,79.1,39.9,79.1,39.9,79.1z"/>
	<path d="M47.1,76.3c0,0.3,0,0.6,0,0.9c-0.1,0.7-0.1,1.3-0.3,2c-0.1,0.5-0.1,0.9-0.3,1.4c-0.3,0.7-0.6,1.3-0.8,2
		c-0.1,0.3-0.2,0.6-0.4,0.9c-0.1,0.3-0.3,0.6-0.5,0.9c-0.3,0.3-0.4,0.8-0.7,1.2c-0.1,0.1-0.1,0.2-0.2,0.3c0-0.1,0-0.2,0.1-0.3
		c0.1-0.3,0.2-0.6,0.3-0.9c0.1-0.3,0.1-0.5,0.2-0.8c0,0,0.1-0.1,0.1-0.1c0,0,0,0.1,0,0.1c0,0.1-0.1,0.3-0.1,0.4c0,0,0,0.1,0,0.1
		c0,0,0.1-0.1,0.1-0.1c0.1-0.2,0.2-0.5,0.3-0.7c0.2-0.4,0.4-0.9,0.6-1.3c0-0.1,0.1-0.2,0.2-0.3c0-0.1,0.1-0.1,0-0.2c0,0,0-0.1,0-0.2
		c0.2-0.3,0.4-0.6,0.5-0.9c0.1-0.3,0.2-0.7,0.4-1c0-0.1,0.1-0.1,0.1-0.2c0,0,0-0.1,0-0.2c0,0-0.1,0-0.1,0.1
		c-0.1,0.2-0.2,0.4-0.3,0.6c-0.1,0.3-0.3,0.5-0.4,0.8c0,0-0.1,0.1-0.2,0.1c0,0,0.1-0.1,0.1-0.1c0.1-0.4,0.3-0.8,0.4-1.2
		c0.2-0.6,0.3-1.2,0.5-1.8c0.1-0.2,0.1-0.4,0.2-0.6c0,0,0-0.2,0-0.2c-0.2-0.1-0.1-0.2-0.1-0.4c0-0.3,0.1-0.6,0.2-0.8
		c0,0,0-0.1,0.1-0.1c0,0,0,0,0.1-0.1c0,0,0,0.1,0,0.1C47.1,75.8,47.1,76,47.1,76.3z"/>
	<path d="M47.6,93.4c-0.3,0.4-0.7,0.8-1,1.2c-0.1,0.1-0.4,0.1-0.5,0.1c0,0,0-0.1,0-0.2c0.2-0.4,0.4-0.8,0.7-1.1
		c0.3-0.4,0.4-0.8,0.7-1.2c0.1-0.1,0.2-0.3,0.3-0.4c0.3-0.3,0.7-0.5,1.1-0.7c0.1-0.1,0.2-0.2,0.4-0.3c0.1-0.1,0.3-0.2,0.5-0.3
		c0,0,0.1,0,0.1,0c0,0,0,0.1,0,0.1c-0.3,0.4-0.6,0.8-0.9,1.1c-0.3,0.4-0.6,0.7-0.8,1.1C47.9,93,47.8,93.2,47.6,93.4 M47.9,92
		C47.9,92,47.9,92,47.9,92c-0.1,0-0.2,0-0.2,0.1c0,0,0,0.1,0,0.1C47.8,92.2,47.8,92.2,47.9,92C47.9,92.1,47.9,92.1,47.9,92z"/>
	<path d="M43,75.5c-0.1,0.5-0.2,0.9-0.3,1.4c-0.3,0.8-0.7,1.7-1,2.5c-0.2,0.4-0.4,0.7-0.8,0.9c-0.1,0.1-0.3,0.2-0.4,0.4
		c-0.4,0.3-0.8,0.6-1.2,1c-0.2,0.2-0.5,0.2-0.8,0.1c-0.2,0-0.2-0.3-0.4-0.5c0,0,0.1-0.1,0.1-0.1c0.1,0,0.1,0.1,0.2,0.2
		c0.4,0.4,0.7,0.3,0.9,0c0.3-0.4,0.6-0.7,0.9-1c0.4-0.4,0.6-0.8,0.9-1.2c0.4-0.5,0.6-1.1,0.7-1.6c0.1-0.6,0.5-1.1,0.7-1.6
		c0.1-0.2,0.2-0.4,0.4-0.6c0,0,0,0,0-0.1c0,0,0,0,0,0.1C43,75.3,43,75.4,43,75.5z"/>
	<path d="M63.7,75.3c0.1,0.2,0.2,0.3,0.3,0.4c0.1,0.2,0.1,0.3,0,0.4c-0.1,0.2-0.1,0.3-0.2,0.5c0,0.1-0.1,0.1-0.1,0.2
		c0,0-0.1-0.1-0.1-0.1c-0.1-0.2-0.2-0.4-0.2-0.6c-0.1-0.3-0.2-0.5-0.3-0.8c-0.1-0.3-0.2-0.5-0.3-0.8c-0.1-0.2-0.1-0.4-0.1-0.6
		c0-0.1,0-0.1,0.1-0.1c0.4,0,0.7,0,1.1,0.1c0.2,0,0.3,0.2,0.2,0.4c-0.1,0.1-0.1,0.2-0.2,0.3C63.5,75,63.5,75,63.7,75.3 M63.2,74.4
		c0-0.2-0.1-0.3-0.4-0.2c-0.1,0-0.1,0-0.2,0.1c0,0.1,0.1,0.1,0.1,0.2C63,74.6,63.1,74.5,63.2,74.4z"/>
	<path d="M40.8,72.3c0.1-0.3,0.2-0.5,0.3-0.8c0,0,0.1-0.1,0.1-0.1c0,0,0,0.1,0,0.1c-0.1,0.5-0.3,1.1-0.4,1.6c0,0.2-0.1,0.3,0.2,0.3
		c0,0,0,0.1,0,0.1c-0.2,0.2-0.3,0.4-0.3,0.7c0,0.1-0.1,0.2-0.1,0.3c-0.1,0.2-0.1,0.3-0.1,0.5c-0.1,0.2-0.2,0.4-0.3,0.5
		c-0.1,0.4-0.2,0.7-0.2,1.1c-0.1,0.4-0.1,0.8-0.2,1.1c0,0.1-0.1,0.1-0.2,0.2c0-0.1-0.1-0.1-0.1-0.2c0.1-0.3,0.1-0.6,0.2-1
		c0.1-0.4,0.1-0.8,0.2-1.1c0.1-0.5,0.3-0.9,0.4-1.4c0.1-0.5,0.2-0.9,0.4-1.4C40.7,72.7,40.8,72.5,40.8,72.3z"/>
	<path d="M52.2,94.5c-0.1,0.1-0.1,0.1-0.2,0.2c-0.1,0-0.1,0-0.2,0c0-0.1,0-0.2,0.1-0.2c0.1-0.2,0.3-0.4,0.4-0.5
		c0.5-0.7,1-1.5,1.5-2.2c0.2-0.3,0.4-0.5,0.6-0.8c0.1-0.1,0.2-0.1,0.3-0.2c0,0,0.1,0,0.2,0.1c0,0,0,0.1-0.1,0.1
		c-0.5,0.3-0.7,0.9-1,1.4c-0.1,0.3-0.3,0.5-0.5,0.8c-0.1,0.3-0.2,0.5-0.4,0.8c-0.1,0.2-0.3,0.4-0.4,0.6
		C52.4,94.5,52.3,94.5,52.2,94.5z"/>
	<path d="M42.6,79.2c-0.2,0.5-0.3,0.9-0.5,1.4c-0.1,0.4-0.3,0.8-0.6,1.1c-0.1,0.2-0.2,0.4-0.3,0.6c-0.1,0.2-0.2,0.4-0.3,0.7
		c-0.1,0.1-0.1,0.2-0.1,0.3c0,0.1-0.1,0.1-0.1,0.1c0-0.1,0-0.1,0-0.2c0.3-0.6,0.5-1.2,0.8-1.8c0.1-0.3,0.3-0.7,0.5-1
		c0.2-0.5,0.4-0.9,0.6-1.4c0.1-0.3,0.2-0.6,0.4-0.9c0,0,0-0.1,0.1-0.1c0,0,0,0.1,0,0.1C42.9,78.5,42.8,78.9,42.6,79.2z"/>
	<path d="M39.2,69.1c0.3-0.4,0.6-0.7,0.9-1.1c0-0.1,0.1-0.1,0.1-0.2c0.1-0.2,0.3-0.3,0.5-0.5c0.3-0.2,0.6-0.4,0.8-0.8
		c0,0,0-0.1,0.1-0.1c0,0,0.1,0,0.1,0c0,0.1,0,0.2-0.1,0.3c-0.4,0.5-0.7,1-1.1,1.5c-0.3,0.4-0.7,0.8-1.1,1.2
		c-0.2,0.2-0.4,0.4-0.6,0.6c-0.1,0.1-0.1,0.1-0.2,0.1c0-0.1,0-0.2,0.1-0.2C38.8,69.7,39,69.4,39.2,69.1z"/>
	<path d="M62,84.6c-0.2,0.2-0.4,0.4-0.6,0.7c-0.3,0.3-0.6,0.6-0.8,0.9c-0.3,0.4-0.6,0.7-0.9,1.1c-0.5,0.6-1.1,1.2-1.6,1.7
		c-0.1,0.1-0.2,0.2-0.2,0.2c0.1-0.1,0.1-0.2,0.2-0.3c0.2-0.3,0.5-0.7,0.8-1c0.2-0.3,0.5-0.6,0.7-0.9c0.4-0.5,0.8-1,1.2-1.5
		c0.2-0.2,0.5-0.4,0.7-0.6c0.2-0.2,0.4-0.4,0.5-0.6c0,0,0-0.1,0.1-0.1c0.1,0,0.1-0.1,0.2-0.1c0,0.1,0,0.1-0.1,0.2
		C62.1,84.5,62.1,84.6,62,84.6z"/>
	<path d="M68.8,84.2c0.4,0.2,0.9,0.3,1.2,0.6c0.6,0.3,1.1,0.7,1.5,1.3c0.1,0.1,0.1,0.2,0.1,0.3c-0.1-0.1-0.2-0.1-0.3-0.2
		c-0.4-0.4-0.8-0.9-1.3-1.2c-0.5-0.3-1.1-0.5-1.7-0.7c-0.5-0.1-0.9-0.2-1.4-0.4c-0.1,0-0.1-0.1-0.2-0.1c0.1,0,0.1,0,0.2,0
		c0.3,0.1,0.6,0.1,1,0.2C68.2,84.1,68.5,84.2,68.8,84.2z"/>
	<path d="M68.1,87.6c-0.5-0.4-0.9-0.8-1.5-1.1c-0.3-0.1-0.5-0.5-0.8-0.7c0,0,0-0.1,0-0.2c0,0,0.1,0,0.1,0c0.3,0.2,0.6,0.5,1,0.7
		c0.6,0.4,1.1,0.7,1.7,1.1c0.2,0.1,0.4,0.3,0.5,0.4c0,0,0,0.1,0.1,0.1c0,0-0.1,0-0.1,0c-0.2-0.1-0.5-0.1-0.7-0.2
		C68.3,87.7,68.2,87.7,68.1,87.6z"/>
	<path d="M51.6,81.7c0.1,0.1,0.2,0.2,0.3,0.3c0.4,0.3,0.7,0.7,1.1,1c0.3,0.2,0.7,0.4,1.1,0.4c0.3,0,0.7,0.1,1,0.2c0,0,0.1,0,0.1,0.1
		c0,0-0.1,0-0.1,0c-0.7,0-1.3,0-2-0.3c-0.3-0.1-0.6-0.4-0.9-0.7c-0.4-0.3-0.7-0.7-0.9-1.1c-0.1-0.2-0.3-0.4-0.4-0.7c0,0,0-0.1,0-0.1
		c0,0,0.1,0,0.1,0.1C51.2,81.1,51.4,81.4,51.6,81.7z"/>
	<path d="M35,74.7c0.4-0.7,0.8-1.3,1.3-1.9c0.3-0.5,0.5-1.1,1-1.5c0,0,0.1-0.1,0.1-0.1c0,0,0,0.1,0,0.1c-0.2,0.3-0.3,0.7-0.5,1
		c-0.2,0.4-0.5,0.8-0.7,1.2c-0.3,0.4-0.6,0.9-0.9,1.3c-0.1,0.2-0.3,0.3-0.4,0.5c0,0-0.1,0-0.1,0c0,0,0-0.1,0-0.1
		C34.8,75,34.9,74.9,35,74.7z"/>
	<path d="M56.7,89.4c-0.4,0.5-0.7,1-1,1.5c-0.3,0.5-0.7,1-1,1.5c-0.1,0.2-0.3,0.3-0.5,0.4c0,0-0.1,0-0.1,0c0,0,0-0.1,0-0.1
		c0.4-0.4,0.6-0.9,0.9-1.4c0.2-0.3,0.4-0.6,0.6-0.9c0.3-0.4,0.6-0.8,0.9-1.3c0.2-0.2,0.4-0.5,0.6-0.7c0,0,0.1,0,0.1,0
		c0,0,0,0.1,0,0.1c-0.1,0.2-0.3,0.4-0.5,0.6C56.7,89.3,56.7,89.3,56.7,89.4z"/>
	<path d="M43.7,76.9c-0.2,0.6-0.3,1.1-0.5,1.7c0,0.1-0.1,0.1-0.1,0.2c0-0.1-0.1-0.1,0-0.2c0.1-0.6,0.2-1.2,0.3-1.8
		c0-0.1,0.1-0.1,0.1-0.2c0,0,0.1-0.1,0-0.1c-0.1-0.4,0.1-0.7,0.2-1c0.1-0.3,0.1-0.7,0.2-1c0-0.1,0.1-0.1,0.1-0.2c0,0.1,0,0.2,0,0.2
		c-0.1,0.6-0.1,1.3-0.2,1.9C43.8,76.6,43.8,76.8,43.7,76.9z"/>
	<path d="M30.4,11.5c0.3-0.3,0.3-0.6,0.2-0.9c0-0.1,0-0.2,0-0.2c0,0.1,0.1,0.1,0.1,0.2c0.2,0.4,0.1,0.7-0.1,1.1c0,0.1,0,0.1,0,0.2
		c0,0.1,0,0.2,0,0.3c0,0,0,0.1,0,0.1c0,0,0.1,0.1,0.2,0c0.1-0.1,0.3-0.2,0.4-0.3c0.1,0,0.1-0.1,0.2-0.1c0,0,0.1,0,0.1,0
		c0,0.1,0,0.1-0.1,0.2c-0.1,0.1-0.1,0.1-0.2,0.2c-0.1,0.1-0.3,0.3-0.1,0.5c0,0,0,0.1-0.1,0.2c0,0-0.1-0.1-0.1-0.1
		c-0.1-0.1-0.1-0.2-0.2-0.3c-0.2-0.1-0.2,0.1-0.2,0.2c0,0.1-0.1,0.1-0.2,0.1c0-0.1,0-0.1,0-0.2c0-0.1,0-0.1,0-0.2
		c0.1-0.1,0.1-0.3,0-0.4c0,0,0-0.2,0-0.2C30.2,11.8,30.3,11.7,30.4,11.5z"/>
	<path d="M59.7,83.5C59.7,83.5,59.7,83.5,59.7,83.5c0.1,0,0.2,0,0.3,0C59.9,83.5,59.9,83.5,59.7,83.5c-0.4,0.2-0.8,0.5-1.3,0.7
		c-0.5,0.3-1,0.6-1.5,0.9c-0.2,0.2-0.5,0.4-0.7,0.6c0,0-0.1,0.1-0.1,0.1c0,0-0.1,0-0.1,0c0,0,0-0.1,0-0.1c0.5-0.5,0.9-1,1.5-1.2
		c0.6-0.3,1.2-0.6,1.8-0.8C59.4,83.5,59.5,83.5,59.7,83.5z"/>
	<path d="M57.6,83.4c-0.2,0-0.3-0.1-0.5-0.1c0,0-0.1,0-0.1,0c0,0,0.1,0,0.1,0c0.6-0.1,1.1-0.1,1.7-0.2c0.5-0.1,1-0.1,1.6-0.1
		c0.3,0,0.6,0.1,1,0.2c0,0,0,0,0,0c0,0,0,0.1-0.1,0.1c-0.2,0-0.5,0-0.7,0c-0.2,0-0.3-0.1-0.5,0c-0.1,0-0.3,0-0.5,0.1
		c-0.6,0-1.3,0-1.9,0.2C57.7,83.4,57.6,83.4,57.6,83.4z"/>
	<path d="M62.8,61.6c0.2,0,0.5,0,0.7,0c0.9,0,1.7,0,2.6,0c0.5,0,1,0.1,1.5,0.1c0.3,0,0.7,0,1,0c0.1,0,0.1,0,0.2,0.1c0,0-0.1,0-0.1,0
		c-0.5,0-1.1,0-1.6,0c-0.8,0-1.6-0.1-2.4-0.1c-0.6,0-1.1,0-1.7,0C62.9,61.7,62.9,61.7,62.8,61.6C62.8,61.6,62.8,61.6,62.8,61.6
		C62.8,61.6,62.8,61.6,62.8,61.6z"/>
	<path d="M40.1,64.5c0.2-0.1,0.1,0,0.1,0.1c0,0.1-0.1,0.3-0.2,0.4c-0.3,0.7-0.7,1.4-1.1,2.1c-0.1,0.2-0.3,0.4-0.4,0.6
		c0,0-0.1,0.1-0.1,0.1c0-0.1,0-0.1,0-0.2c0.2-0.4,0.4-0.7,0.5-1.1C39.4,65.8,39.7,65.2,40.1,64.5z"/>
	<path d="M57.6,86c0.2-0.2,0.5-0.5,0.7-0.7c0.6-0.5,1.1-0.9,1.7-1.4c0.2-0.2,0.5-0.3,0.7-0.4c0,0,0.1,0,0.1,0c0,0,0,0.1-0.1,0.1
		c-0.2,0.1-0.5,0.2-0.7,0.4c-0.3,0.2-0.5,0.4-0.7,0.6c-0.3,0.3-0.6,0.6-1,0.9c-0.3,0.3-0.6,0.6-1,0.9c-0.1,0.1-0.2,0.1-0.2,0.1
		c0-0.1,0.1-0.2,0.1-0.2C57.4,86.2,57.5,86.1,57.6,86z"/>
	<path d="M33.5,12.8c-0.1,0.1-0.1,0.1-0.2,0.2c-0.1,0-0.1,0.1-0.2,0.1c0-0.1-0.1-0.2,0-0.3c0.1-0.1,0.2-0.2,0.3-0.3
		c0.2-0.2,0-0.5,0-0.7c0-0.3-0.1-0.6,0.1-0.9c0.1-0.2,0.3-0.5,0.1-0.8c0,0,0-0.1,0-0.1c0,0,0.1,0,0.1,0c0.1,0.1,0.2,0.2,0.2,0.3
		c0,0.4,0,0.7-0.2,1.1c-0.1,0.2-0.1,0.4-0.1,0.5C33.7,12.2,33.7,12.5,33.5,12.8z"/>
	<path d="M37.5,63.8c0-0.2-0.1-0.3-0.1-0.5c0,0,0-0.1,0-0.1c0,0,0,0,0.1,0.1c0.1,0.3,0.2,0.6,0.3,1c0.1,0.3,0.2,0.6,0.3,0.9
		c0.1,0.2,0,0.3-0.2,0.5c-0.1,0.1-0.2,0.1-0.3,0.2c0,0-0.1,0.1-0.1,0.1c0-0.1-0.1-0.1,0-0.2c0.1-0.1,0-0.3,0.3-0.3
		c0.2,0,0.1-0.2,0.1-0.3c0-0.1,0-0.1,0-0.2c0-0.1,0-0.2-0.1-0.3c-0.2-0.1-0.2-0.4-0.3-0.6c0,0,0,0,0-0.1
		C37.5,64,37.5,63.9,37.5,63.8z"/>
	<path d="M40.1,69.6c-0.2,0.3-0.4,0.6-0.6,0.9c-0.1,0.1-0.1,0.2-0.1,0.3c0,0,0,0.1-0.1,0.1c0,0-0.1-0.1-0.1-0.1c0-0.2,0-0.4,0.1-0.5
		c0.4-0.6,0.9-1.1,1.3-1.7c0.1-0.1,0.1-0.2,0.2-0.2c0,0,0.1,0,0.1-0.1c0,0,0,0.1,0,0.1C40.7,68.9,40.5,69.3,40.1,69.6z"/>
	<path d="M28,30c0.1-0.1,0.1-0.2,0.2-0.2c0.1,0,0.1-0.1,0.2-0.1c0,0.1,0,0.1,0,0.2c0,0,0,0.1,0,0.1c0,0.1,0.1,0.2,0.1,0.2
		c0.1,0.1,0.1,0.2,0.2,0.3c0,0,0.1-0.1,0.1-0.1c0,0,0-0.1,0-0.2c0,0,0.1,0,0.1,0.1c0,0.1,0,0.2,0,0.2c-0.1,0.2-0.5,0.2-0.7,0
		c-0.1-0.1-0.2-0.2-0.4-0.2C27.7,30.3,27.7,30.2,28,30z"/>
	<path d="M31.9,18.6c0.7,0,1.3,0.2,1.8,0.5c0.3,0.1,0.4,0.4,0.3,0.6c0,0,0,0.1,0,0.1c0,0-0.1,0-0.1,0c0,0,0-0.1,0-0.1
		c0-0.4-0.4-0.6-0.7-0.7C32.7,18.9,32.3,18.7,31.9,18.6z"/>
	<path d="M32.7,59.7c-0.1,0-0.2,0-0.3,0c-0.1,0-0.2-0.2-0.2-0.3c0,0,0,0,0.1,0c0.6,0.1,1.2,0,1.8-0.1c0.1,0,0.2,0,0.4,0
		c0,0,0.1,0,0.1,0c0,0,0,0.1-0.1,0.1c-0.1,0-0.2,0.1-0.3,0.1c-0.4,0.1-0.8,0.1-1.2,0.2C32.9,59.7,32.8,59.7,32.7,59.7z"/>
	<path d="M51.2,83.8c0.3,0.4,0.4,0.8,0.7,1c0.3,0.3,0.6,0.6,1.1,0.6c0.1,0,0.1,0,0.2,0.1c0,0-0.1,0.1-0.1,0.1
		c-0.2,0-0.4-0.1-0.6-0.1c-0.7-0.3-1.1-0.9-1.4-1.6c0,0,0-0.1,0-0.1C51.1,83.8,51.2,83.8,51.2,83.8z"/>
	<path d="M69.7,91.7c-0.4-0.6-0.7-1.3-1.1-1.9c-0.1-0.1-0.2-0.2-0.2-0.3c0,0,0-0.1,0.1-0.1c0,0,0.1,0,0.1,0.1
		c0.2,0.3,0.3,0.6,0.5,0.9c0.2,0.4,0.5,0.9,0.7,1.3c0,0,0,0.1,0,0.1c0,0.1,0,0.1,0,0.2C69.8,91.8,69.8,91.8,69.7,91.7z"/>
	<path d="M24.8,21.5c0-0.1,0-0.2,0.1-0.1c0,0,0.1,0.1,0.1,0.1c0.1,0.3,0.1,0.5,0,0.8c0,0-0.1,0.1-0.1,0.1c0-0.1-0.1-0.1-0.1-0.2
		c0-0.2,0-0.2-0.2-0.2c0,0,0,0,0,0c-0.1,0-0.2,0-0.2,0c0,0-0.1-0.2,0-0.2c0.1-0.1,0.2-0.1,0.2-0.2C24.6,21.6,24.7,21.6,24.8,21.5z"
		/>
	<path d="M28.3,11.6c-0.1,0.3-0.2,0.4-0.4,0.2c-0.1-0.1-0.1-0.2-0.3,0c0,0-0.1-0.1-0.1-0.1c0-0.2,0.3-0.5,0.5-0.6c0,0,0.1,0,0.1,0
		c0.1-0.1,0.1,0,0.1,0.1C28.3,11.3,28.3,11.5,28.3,11.6z"/>
	<path d="M44.5,59.6c0.5,0,1-0.1,1.5-0.1c0.1,0,0.1,0,0.2,0c0,0,0.1,0.1,0.1,0.1c0,0-0.1,0-0.1,0c-0.6,0-1.3,0.1-1.9,0.1
		c-0.2,0-0.4,0-0.7,0c-0.1,0-0.1,0-0.2-0.1c0.1,0,0.1-0.1,0.2-0.1C43.9,59.6,44.2,59.6,44.5,59.6z"/>
	<path d="M24.8,22.9c0.1,0,0.1-0.1,0.2-0.1c0.2-0.3,0.5-0.2,0.7,0c0,0,0.1,0.1,0.1,0.1c0,0-0.1,0.1-0.1,0.1c-0.2,0-0.5,0-0.7,0
		c-0.6,0.1-1.3,0.2-1.9,0.2c0,0-0.1,0-0.1,0c0,0-0.1,0-0.1,0c0,0,0-0.1,0.1-0.1c0.2-0.1,0.5-0.2,0.8-0.1c0,0,0.1,0,0.1,0
		C24.1,22.8,24.5,23,24.8,22.9z"/>
	<path d="M67.1,90c0.3,0.4,0.5,0.8,0.8,1.2c0,0,0,0.1,0.1,0.1c-0.1,0-0.1,0-0.2-0.1c-0.2-0.2-0.3-0.4-0.4-0.6
		c-0.3-0.4-0.5-0.9-0.8-1.3c-0.1-0.1-0.1-0.2-0.1-0.4c0.1,0.1,0.2,0.2,0.3,0.3C66.8,89.5,67,89.8,67.1,90z"/>
	<path d="M41.6,73.6c-0.1,0.2-0.2,0.3-0.3,0.5c0,0-0.1,0-0.1,0.1c0,0,0-0.1,0-0.1c0.2-0.4,0.4-0.7,0.6-1.1c0,0,0.1-0.1,0.1-0.1
		c0,0.1,0,0.2,0,0.2C41.8,73.2,41.7,73.4,41.6,73.6z"/>
	<path d="M28.4,37.7c0-0.4,0-0.8,0-1.1c0-0.1,0-0.1,0.1-0.2c0,0.1,0.1,0.1,0.1,0.2c0,0.1,0,0.2,0,0.3c0,0.6,0,1.2,0,1.8
		c0,0.1,0,0.1-0.1,0.2c0-0.1-0.1-0.1-0.1-0.2C28.4,38.3,28.4,38,28.4,37.7z"/>
	<path d="M68.3,83.7c0.2,0,0.4,0,0.6,0c0.3,0.1,0.6,0.2,0.9,0.3c0,0,0,0,0.1,0c0.1,0.1,0.1,0.1,0.2,0.2c-0.1,0-0.2,0-0.3-0.1
		C69.3,84,68.8,83.9,68.3,83.7z"/>
	<path d="M33.3,10.5c-0.2,0.3-0.3,0.5-0.5,0.8c-0.1,0.1-0.1,0.2-0.1,0.3c0,0-0.1,0-0.1,0.1c0,0,0-0.1,0-0.1c0.2-0.3,0.4-0.6,0.5-0.9
		c0.1-0.2,0.2-0.3,0.3-0.5c0,0,0.1,0,0.2-0.1c0,0,0,0.1-0.1,0.1C33.4,10.3,33.3,10.4,33.3,10.5z"/>
	<path d="M63.4,72.4c0-0.1,0-0.1,0.1-0.2c0.1,0.1,0.2,0.1,0.2,0.2c0.1,0.3,0.1,0.6,0.2,0.9c0,0.1,0.1,0.2,0.1,0.3c0,0,0,0.1,0,0.1
		c0,0-0.1,0-0.1-0.1c0,0-0.1-0.1-0.1-0.2C63.6,73.2,63.5,72.8,63.4,72.4z"/>
	<path d="M23,18.8c-0.2,0.1-0.4,0.2-0.5,0.3c-0.2,0.1-0.2,0.2-0.1,0.4c0,0.1,0.1,0.1,0.1,0.2c0,0-0.1,0-0.1,0
		c-0.1,0-0.2-0.1-0.2-0.1C22,19.3,22,19.2,22.4,19C22.5,18.9,22.7,18.8,23,18.8z"/>
	<path d="M27.8,38.1c0,0.2,0,0.3,0,0.5c0,0.1-0.1,0.1-0.2,0.1c0,0,0,0,0,0c0.2-0.3,0-0.6,0-0.8c0-0.2,0.1-0.5,0.1-0.7c0,0,0,0,0.1,0
		c0,0,0,0.1,0,0.1C27.8,37.5,27.8,37.8,27.8,38.1z"/>
	<path d="M29.6,21.5c0,0.2,0,0.3-0.3,0.4c0,0-0.1,0-0.1,0c-0.1,0-0.3,0-0.3-0.1c0,0,0-0.1,0-0.1c0.1-0.1,0.3-0.1,0.4,0
		c0,0,0.1,0,0.1,0.1c0,0,0-0.1,0-0.1c0-0.1,0-0.2,0-0.2c0.1-0.1,0.1,0.1,0.2,0.2C29.6,21.4,29.6,21.4,29.6,21.5z"/>
	<path d="M60.5,85c0.2-0.3,0.5-0.5,0.7-0.8c0.1-0.1,0.2-0.1,0.3-0.1c0,0.1-0.1,0.2-0.1,0.2c-0.3,0.3-0.6,0.6-0.9,0.9
		c-0.1,0.1-0.2,0.1-0.2,0.2c0-0.1,0.1-0.2,0.1-0.2C60.3,85.1,60.4,85.1,60.5,85z"/>
	<path d="M44.2,81c-0.2,0.5-0.3,1-0.5,1.4c0,0,0,0.1-0.1,0.1c0,0,0-0.1,0-0.1c0.1-0.4,0.2-0.8,0.4-1.2C44,81.1,44.1,81,44.2,81z"/>
	<path d="M43.3,70.3C43.3,70.3,43.3,70.4,43.3,70.3c-0.5-0.2-0.6-0.1-1,0.3c-0.1,0.1-0.2,0.2-0.3,0.3c0,0-0.1,0-0.1,0
		c0,0,0-0.1,0-0.1c0.2-0.2,0.3-0.4,0.5-0.6C42.8,70,43.1,70,43.3,70.3z"/>
	<path d="M41.5,59.9c-0.1,0-0.3,0-0.4,0c0,0,0,0-0.1,0c0,0,0-0.1,0.1-0.1c0,0,0.1,0,0.1,0c0.6,0,1.1,0,1.7,0c0,0,0.1,0,0.1,0
		c0,0-0.1,0.1-0.1,0.1C42.4,59.9,41.9,59.9,41.5,59.9z"/>
	<path d="M43.7,63c0.5-0.1,0.9-0.2,1.3-0.3c0,0,0.1,0,0.2,0c0,0-0.1,0-0.1,0.1c-0.2,0.1-0.4,0.1-0.7,0.2c-0.3,0.1-0.7,0.1-1,0.2
		c0,0-0.1,0-0.1,0c0,0,0-0.1,0-0.1C43.5,63.1,43.6,63,43.7,63z"/>
	<path d="M31.6,21.8c0.1,0.2,0,0.2-0.1,0.2c-0.1,0-0.2,0-0.4,0c-0.1,0-0.1-0.1-0.2-0.1c0.1,0,0.1-0.1,0.2-0.1
		C31.2,21.7,31.4,21.6,31.6,21.8z"/>
	<path d="M28.4,22.9c-0.3,0-0.6,0-0.9,0c-0.1,0-0.1,0-0.2,0c0,0,0,0-0.1,0c0,0,0,0,0.1,0c0.3-0.1,0.7-0.1,1,0
		C28.5,22.8,28.5,22.8,28.4,22.9z"/>
	<path d="M45.2,77.6C45.2,77.5,45.2,77.5,45.2,77.6C45.2,77.5,45.2,77.5,45.2,77.6c0,0.4,0,0.9-0.3,1.3c0,0-0.1,0-0.1,0.1
		c0,0-0.1-0.1,0-0.1C44.9,78.4,45,78,45.2,77.6z"/>
	<path d="M64.3,87.1c0.1,0.1,0.1,0.3,0.2,0.4c0,0,0,0.1,0,0.1c0,0-0.1,0-0.1-0.1c-0.1-0.3-0.2-0.6-0.4-1c0-0.1-0.1-0.3-0.1-0.4
		c0,0,0-0.1,0-0.1c0,0,0.1,0.1,0.1,0.1c0.1,0.2,0.1,0.5,0.2,0.7C64.3,86.9,64.3,87,64.3,87.1z"/>
	<path d="M30.4,53.4c0-0.3-0.1-0.5-0.1-0.8c0,0,0-0.1,0-0.1c0,0,0.1,0.1,0.1,0.1c0.2,0.3,0.2,0.7,0.2,1.1c0,0,0,0,0,0.1c0,0,0,0,0,0
		C30.5,53.6,30.4,53.5,30.4,53.4z"/>
	<path d="M32.3,12.4c0.1-0.1,0.1-0.1,0-0.2c0,0,0,0-0.1-0.1c0,0,0.1,0,0.1,0c0.2,0.1,0.4,0.5,0.4,0.6c0,0,0,0.1-0.1,0.1
		c0,0-0.1,0-0.1,0C32.5,12.6,32.4,12.5,32.3,12.4z"/>
	<path d="M30.6,42.8c0.1-0.1,0.1-0.1,0.1-0.2c0,0,0.1-0.1,0.2-0.1c0.1,0,0.2,0.1,0.2,0.3c0,0.1-0.1,0.2-0.1,0.2
		C30.9,43,30.7,42.9,30.6,42.8z"/>
	<path d="M36,75.1c0.1-0.1,0.2-0.2,0.3-0.1c0,0,0,0.1-0.1,0.2c-0.2,0.2-0.3,0.3-0.5,0.5c0,0-0.1,0-0.1,0c0,0,0-0.1,0-0.1
		C35.8,75.5,35.9,75.3,36,75.1z"/>
	<path d="M50.2,80.6c-0.1-0.2-0.1-0.3-0.2-0.5c0,0,0-0.1,0-0.1c0,0,0.1,0.1,0.1,0.1c0.1,0.3,0.2,0.6,0.3,0.9c0,0,0,0.1,0,0.2
		c0,0-0.1-0.1-0.1-0.1C50.3,80.9,50.3,80.7,50.2,80.6z"/>
	<path d="M40.6,65.5c-0.2,0.1-0.3,0.3-0.4,0.4c0,0,0,0-0.1,0c0,0,0-0.1,0-0.1c0.2-0.2,0.3-0.4,0.5-0.6c0.1-0.1,0.1-0.2,0.2-0.3
		c0,0,0-0.1,0.1-0.1c0,0,0,0.1,0,0.1c0,0.1-0.1,0.3-0.1,0.4C40.7,65.4,40.7,65.5,40.6,65.5z"/>
	<path d="M55.3,93.7c0.1-0.1,0.1-0.2,0.1-0.2c0,0,0.1,0,0.1-0.1c0,0,0,0.1,0,0.1c-0.2,0.4-0.4,0.7-0.6,1.1c0,0-0.1,0-0.1,0.1
		c0,0,0-0.1,0-0.1c0.1-0.2,0.2-0.3,0.2-0.5C55.2,94,55.2,93.9,55.3,93.7z"/>
	<path d="M65.9,83.1c0.2-0.2,0.4-0.1,0.6-0.1c0,0,0,0.1,0,0.1c-0.2,0-0.4,0.1-0.6,0.1C66,83.3,65.9,83.2,65.9,83.1z"/>
	<path d="M73.6,90.7c0-0.1,0-0.1,0-0.1C73.6,90.5,73.6,90.6,73.6,90.7c0.2,0.2,0.3,0.4,0.4,0.7c0,0,0,0.1,0,0.1c0,0,0,0-0.1,0
		C73.6,91.2,73.6,90.9,73.6,90.7z"/>
	<path d="M41.1,92.5c0,0.1,0.1,0.2,0.1,0.3c0,0.2,0,0.3,0,0.5c0,0,0,0.1-0.1,0.1c0,0-0.1,0-0.1-0.1C41.1,93.1,41,92.8,41.1,92.5z"/>
	<path d="M60.4,93.6c-0.1,0.1-0.1,0.1-0.1,0c0-0.3,0.1-0.6,0.1-0.8c0,0,0,0,0,0c0,0,0.1,0.1,0.1,0.1C60.4,93,60.4,93.3,60.4,93.6z"
		/>
	<path d="M42.5,72.8c0,0.1-0.1,0.1-0.1,0.2c0,0-0.1,0.1-0.1,0.1c0-0.1,0-0.1,0-0.2c0.1-0.2,0.2-0.4,0.3-0.5c0,0,0.1,0,0.2,0
		c0,0.1,0,0.1,0,0.2C42.7,72.7,42.6,72.7,42.5,72.8z"/>
	<path d="M70.9,61.8c0.1,0,0.2,0,0.3,0c0,0,0.1,0,0.1,0c0,0,0,0-0.1,0c-0.4,0-0.7,0-1.1,0c0,0,0,0,0,0c0,0,0.1-0.1,0.1-0.1
		C70.4,61.8,70.7,61.8,70.9,61.8z"/>
	<path d="M30.7,13.1c0.2,0,0.2,0.1,0,0.2c-0.1,0.1-0.3,0.2-0.4,0c0-0.1,0-0.1,0-0.2c0,0,0.1,0,0.1,0C30.6,13.1,30.6,13.1,30.7,13.1z
		"/>
	<path d="M42.5,67.6c0.2,0.1,0.3,0.3,0.4,0.5c0,0,0,0.1,0,0.1c0,0-0.1-0.1-0.1-0.1c0-0.2-0.1-0.3-0.3-0.4
		C42.5,67.7,42.5,67.6,42.5,67.6z"/>
	<path d="M73.7,94.4c-0.1-0.3-0.2-0.5-0.2-0.8c0,0,0-0.1,0-0.1c0,0,0.1,0,0.1,0.1C73.6,93.9,73.7,94.2,73.7,94.4
		C73.7,94.5,73.7,94.5,73.7,94.4C73.7,94.5,73.7,94.5,73.7,94.4z"/>
	<path d="M26.9,22.8c0.1,0,0.1,0.1,0.1,0.1c0,0-0.1,0-0.1,0c-0.2,0-0.4,0-0.6,0c0,0-0.1,0-0.1,0c0,0,0,0,0.1,0
		C26.5,22.8,26.7,22.8,26.9,22.8z"/>
	<path d="M70.5,93.3c0,0.1,0,0.1,0.1,0.1c0,0,0,0.1,0,0.1c0,0-0.1,0-0.1,0c-0.1-0.3-0.2-0.5-0.3-0.8c0,0,0-0.1,0-0.1
		c0,0,0.1,0,0.1,0.1C70.4,92.9,70.4,93.1,70.5,93.3z"/>
	<path d="M54,55.9C54,55.9,54,55.9,54,55.9c-0.1,0-0.2,0-0.2,0C53.9,55.8,53.9,55.8,54,55.9c0.2-0.1,0.4-0.1,0.6,0
		c0,0,0.1,0,0.1,0.1c0,0-0.1,0-0.1,0C54.4,55.9,54.2,55.9,54,55.9z"/>
	<path d="M41.7,65.6c0-0.1-0.1-0.1-0.1-0.2c0.1,0,0.1,0,0.2,0c0,0,0,0,0,0c0.1,0.1,0.1,0.2,0.2,0.2C41.9,65.7,41.8,65.7,41.7,65.6z"
		/>
	<path d="M39.9,67.4c0,0,0.1-0.1,0.1-0.1c0,0,0.1,0,0.1,0c0,0,0,0.1,0,0.1c-0.1,0.1-0.3,0.3-0.4,0.4c0,0-0.1,0-0.1,0
		c0,0,0-0.1,0-0.1C39.7,67.6,39.8,67.5,39.9,67.4z"/>
	<path d="M29.7,13.1c-0.1-0.1-0.3-0.1-0.4-0.2c0,0-0.1,0-0.1-0.1c0,0,0-0.1,0-0.1c0.1,0,0.3,0,0.4,0.1C29.7,12.9,29.7,13,29.7,13.1
		C29.7,13.1,29.7,13.1,29.7,13.1C29.7,13.1,29.7,13.1,29.7,13.1z"/>
	<path d="M35.5,68.9c0-0.1,0-0.2,0-0.3c0,0,0.1,0,0.1,0c0.1,0.1,0.2,0.4,0.1,0.5C35.6,69,35.5,68.9,35.5,68.9z"/>
	<path d="M29.7,22.4c0-0.2,0-0.3,0-0.4c0,0,0.1-0.1,0.1-0.1c0,0,0,0.1,0,0.1C29.8,22.1,29.9,22.3,29.7,22.4z"/>
	<path d="M39.7,62.9c0.1-0.1,0.3-0.2,0.5-0.1c0,0,0,0.1,0,0.1C40,62.9,39.9,63,39.7,62.9C39.7,63,39.7,63,39.7,62.9z"/>
	<path d="M29,22.9c-0.1,0-0.1,0-0.2-0.1c0,0,0.1-0.1,0.1-0.1c0.1,0,0.3,0,0.4,0c0,0,0,0,0.1,0.1c0,0,0,0-0.1,0
		C29.3,22.9,29.1,22.9,29,22.9z"/>
	<path d="M40.3,63c0.1,0.1,0.2,0.2,0.4,0.3c0,0-0.1,0.1-0.1,0.1C40.5,63.3,40.3,63.2,40.3,63z"/>
	<path d="M72.9,88.9c0,0.1,0,0.2,0,0.2c-0.1-0.1-0.1-0.1-0.2-0.2c0,0,0,0,0,0c0-0.1,0-0.2,0-0.3C72.8,88.7,72.8,88.8,72.9,88.9z"/>
	<path d="M61.7,82.1c0,0.1,0.1,0.2,0.1,0.3c0,0.1,0,0.1,0,0.2c0,0-0.1-0.1-0.1-0.1C61.7,82.4,61.7,82.3,61.7,82.1
		C61.7,82.1,61.7,82.1,61.7,82.1C61.7,82.1,61.7,82.1,61.7,82.1z"/>
	<path d="M60.4,93.9c0,0.1,0,0.2,0,0.3c0,0-0.1,0.1-0.1,0.1c0,0,0-0.1,0-0.1c0-0.1,0-0.2,0-0.4c0,0,0-0.1,0.1-0.1
		C60.4,93.8,60.4,93.9,60.4,93.9z"/>
	<path d="M41.4,82.5c0,0,0.1-0.1,0.1-0.1c0,0,0,0.1,0,0.1c0,0.1-0.1,0.3-0.1,0.4c0,0,0,0-0.1,0c0,0,0,0,0-0.1
		C41.3,82.7,41.3,82.6,41.4,82.5z"/>
	<path d="M61.9,58.3c-0.2,0.1-0.4,0.1-0.6,0.1c0,0-0.1,0-0.1,0c0,0,0-0.1,0.1-0.1c0.2-0.1,0.4-0.1,0.6-0.2
		C61.9,58.2,61.9,58.3,61.9,58.3z"/>
	<path d="M42.1,73.3c0,0,0.1-0.1,0.1-0.1c0,0,0,0.1,0,0.1c0,0.1,0,0.2,0,0.3c0,0-0.1,0.1-0.1,0.1c0-0.1,0-0.1,0-0.2
		C42,73.4,42,73.4,42.1,73.3z"/>
	<path d="M42.7,63.3c-0.2,0-0.5,0.1-0.7,0.1c0,0-0.1,0-0.1,0c0,0,0,0,0.1,0C42.2,63.3,42.5,63.3,42.7,63.3
		C42.7,63.3,42.7,63.3,42.7,63.3C42.7,63.3,42.7,63.3,42.7,63.3z"/>
	<path d="M31.8,57.9c0-0.1,0-0.1,0.1-0.2c0.1,0.1,0.1,0.1,0.1,0.2c0,0,0,0.1,0,0.2C31.9,57.9,31.9,57.9,31.8,57.9z"/>
	<path d="M62.7,58.1c-0.1,0-0.2,0-0.4,0c0.1,0,0.2-0.1,0.3-0.1c0.1,0,0.2,0,0.3,0C62.9,58,62.8,58,62.7,58.1z"/>
	<path d="M27.3,22.2c0-0.1-0.1-0.1-0.1-0.2c0-0.1,0-0.2,0.1-0.2c0,0,0.1,0,0.1,0c0,0.1,0,0.2,0,0.3C27.4,22.1,27.4,22.1,27.3,22.2z"
		/>
	<path d="M27.1,21.5c-0.1-0.1-0.1-0.2-0.2-0.2c0,0,0-0.1,0-0.1c0,0,0.1,0,0.1,0c0.1,0.1,0.1,0.2,0.2,0.3
		C27.2,21.4,27.1,21.4,27.1,21.5z"/>
	<path d="M68.7,83.1c0.1,0,0.1,0.1,0.2,0.1c0,0,0.1,0,0.1,0.1c0,0-0.1,0-0.1,0c-0.1,0-0.1,0-0.2,0c-0.1,0-0.1-0.1-0.2-0.1
		C68.6,83.1,68.6,83.1,68.7,83.1z"/>
	<path d="M45.7,62.7c0.1,0,0.2,0,0.3-0.1c0,0,0,0,0.1,0.1c0,0,0,0,0,0c-0.2,0-0.4,0.1-0.6,0.1c0,0-0.1,0-0.1,0c0,0,0.1-0.1,0.1-0.1
		C45.6,62.7,45.6,62.7,45.7,62.7z"/>
	<path d="M41.1,77.5c-0.1,0-0.1-0.1-0.2-0.1c0.1,0,0.1,0,0.2-0.1c0,0,0,0,0,0c0.1,0,0.1,0.1,0.2,0.1C41.2,77.4,41.2,77.5,41.1,77.5z
		"/>
	<path d="M36.7,51.9c-0.1-0.1-0.1-0.2-0.2-0.3c0,0,0-0.1,0.1-0.1c0,0,0.1,0.1,0.1,0.1C36.7,51.7,36.7,51.8,36.7,51.9z"/>
	<path d="M44.3,78.5C44.3,78.5,44.3,78.5,44.3,78.5c0.1-0.2,0.1-0.4,0.2-0.5c0,0,0,0,0,0C44.5,78.2,44.4,78.4,44.3,78.5
		C44.3,78.5,44.3,78.5,44.3,78.5z"/>
	<path d="M30.6,43.4c0,0.1,0,0.1,0,0.1c0,0.1-0.1,0.2-0.1,0.3c0,0,0,0,0,0C30.5,43.6,30.5,43.4,30.6,43.4
		C30.6,43.3,30.6,43.3,30.6,43.4z"/>
	<path d="M28.5,10.7c0.1,0,0.3-0.1,0.4-0.1c0,0,0,0,0.1,0c0,0,0,0,0,0.1c-0.1,0-0.2,0.1-0.3,0.1c0,0-0.1,0-0.1,0
		C28.5,10.8,28.5,10.7,28.5,10.7z"/>
	<path d="M40.5,75.6c0,0.1-0.1,0.1-0.1,0.2c0-0.1,0-0.1-0.1-0.2c0,0,0-0.1,0-0.1c0-0.1,0-0.1,0.1-0.2C40.5,75.4,40.5,75.5,40.5,75.6
		z"/>
	<path d="M44.8,77.1c0-0.1,0.1-0.1,0.1-0.1c0,0.1,0,0.1,0,0.2c0,0,0,0,0,0c-0.1,0.1-0.1,0.2-0.2,0.3C44.8,77.3,44.8,77.2,44.8,77.1z
		"/>
	<path d="M30.3,52.3c0,0,0-0.1,0-0.1c0-0.1,0-0.1,0-0.2c0,0.1,0.1,0.1,0.1,0.2C30.4,52.2,30.4,52.3,30.3,52.3
		C30.3,52.3,30.3,52.3,30.3,52.3z"/>
	<path d="M55,56c0.1,0,0.3,0,0.4,0.1c0,0,0,0,0.1,0c0,0,0,0,0,0C55.3,56.1,55.1,56.2,55,56z"/>
	<path d="M35.1,67c0.1,0,0.1,0,0.1,0c0,0.1-0.1,0.1-0.1,0.2c0,0-0.1,0-0.1,0C35,67.1,35.1,67,35.1,67z"/>
	<path d="M49,84.5c0,0.1-0.1,0.1-0.1,0.1c0-0.1,0-0.3,0-0.4c0,0,0.1,0,0.1,0C49,84.4,49,84.4,49,84.5z"/>
	<path d="M73.3,94.3c0,0.1,0,0.2,0,0.4c0,0,0,0,0,0C73.2,94.6,73.2,94.5,73.3,94.3C73.2,94.3,73.2,94.3,73.3,94.3
		C73.2,94.3,73.3,94.3,73.3,94.3z"/>
	<path d="M30.6,54c0,0,0-0.1,0-0.1C30.6,53.9,30.7,53.9,30.6,54c0.1,0.1,0.1,0.2,0.1,0.3c0,0,0,0,0,0c0,0,0,0,0,0
		C30.6,54.2,30.6,54.1,30.6,54z"/>
	<path d="M38.7,60.2c-0.1,0-0.1-0.1-0.1-0.1c0-0.1,0.1-0.2,0.1-0.2c0,0.1,0,0.1,0,0.2C38.7,60,38.7,60.1,38.7,60.2z"/>
	<path d="M40.1,60c0.1,0,0.1,0,0.1,0C40.2,60,40.2,60,40.1,60C40.2,60.1,40.1,60.1,40.1,60C40,60,39.9,60,39.8,60
		C39.9,60,40,60,40.1,60z"/>
	<path d="M48.5,90.7c0,0,0.1-0.1,0.1-0.1c0,0,0.1,0,0.1,0c0,0,0,0.1,0,0.1c0,0-0.1,0.1-0.1,0.1c0,0-0.1,0-0.1,0
		C48.5,90.8,48.5,90.8,48.5,90.7z"/>
	<path d="M33.9,46.7c0,0.1,0,0.2-0.1,0.3c0,0-0.1,0-0.1,0c0,0,0-0.1,0-0.1C33.8,46.8,33.8,46.8,33.9,46.7z"/>
	<path d="M41.4,85.3C41.4,85.3,41.4,85.3,41.4,85.3C41.4,85.3,41.4,85.3,41.4,85.3c-0.1,0-0.1-0.1,0-0.2c0,0,0.1-0.1,0.1-0.1
		c0,0.1,0,0.1,0,0.2C41.5,85.1,41.5,85.2,41.4,85.3z"/>
	<path d="M41.3,63.5c0.1,0,0.2,0,0.3,0C41.5,63.5,41.4,63.6,41.3,63.5C41.3,63.6,41.3,63.6,41.3,63.5c-0.1,0.1-0.1,0.1-0.2,0.1
		C41.2,63.6,41.2,63.5,41.3,63.5z"/>
	<path d="M50.8,56.1c0.1,0,0.2-0.1,0.3-0.1c0,0,0,0,0,0.1C51,56.1,50.9,56.1,50.8,56.1z"/>
	<path d="M34.9,66.6c0.1,0,0.1,0.1,0.1,0.1c-0.1,0-0.1,0.1-0.2,0.1c0,0-0.1-0.1-0.1-0.1C34.8,66.6,34.8,66.6,34.9,66.6z"/>
	<path d="M64.8,57.4C64.8,57.4,64.8,57.4,64.8,57.4C64.8,57.4,64.8,57.3,64.8,57.4c0.1-0.1,0.2-0.1,0.3-0.1c0,0,0,0,0,0
		C65,57.3,64.9,57.4,64.8,57.4z"/>
	<path d="M41.4,91.2C41.3,91.3,41.3,91.3,41.4,91.2c-0.1,0-0.1-0.1-0.1-0.2c0,0,0.1,0,0.1-0.1c0,0,0,0.1,0,0.1
		C41.4,91.2,41.4,91.2,41.4,91.2z"/>
	<path d="M35.1,49.5c0,0.1,0,0.1,0,0.1c0,0-0.1,0-0.1-0.1c0,0,0-0.1,0-0.2C34.9,49.5,35,49.5,35.1,49.5z"/>
	<path d="M45.2,81.3c0-0.1,0.1-0.1,0.1-0.1c0,0.1,0,0.1,0,0.2c0,0.1-0.1,0.1-0.1,0.2C45.2,81.5,45.2,81.4,45.2,81.3z"/>
	<path d="M29.3,31.4c0,0,0.1-0.1,0.1-0.1c0,0,0.1,0.1,0.1,0.1c0,0-0.1,0.1-0.1,0.1C29.3,31.5,29.3,31.5,29.3,31.4z"/>
	<path d="M26.8,37.8c0-0.1,0.1-0.1,0.1-0.1c0,0.1,0,0.1,0.1,0.2c0,0,0,0.1-0.1,0.1C26.8,37.9,26.8,37.9,26.8,37.8z"/>
	<path d="M30.4,10.2c-0.1-0.1-0.1-0.1-0.1-0.2c0,0,0.1,0,0.1,0C30.4,10.1,30.5,10.2,30.4,10.2C30.5,10.2,30.5,10.2,30.4,10.2z"/>
	<path d="M29.7,12.6c0,0,0.1,0.1,0.1,0.1c0,0-0.1,0-0.1,0c0,0-0.1-0.1-0.1-0.1C29.6,12.6,29.6,12.6,29.7,12.6z"/>
	<path d="M65.3,83.6c-0.1-0.1-0.1-0.1-0.1-0.2c0.1,0,0.1,0,0.1,0C65.4,83.5,65.5,83.6,65.3,83.6z"/>
	<path d="M29.6,80.4c0,0.1,0,0.1,0,0.1C29.6,80.5,29.5,80.5,29.6,80.4c-0.1,0-0.1-0.1-0.1-0.2c0,0,0,0,0,0
		C29.6,80.3,29.6,80.3,29.6,80.4z"/>
	<path d="M29.6,81.1C29.6,81.1,29.6,81.1,29.6,81.1c0-0.1,0-0.2,0-0.2c0,0.1,0.1,0.1,0.1,0.2C29.8,81.1,29.7,81.2,29.6,81.1
		C29.6,81.2,29.6,81.1,29.6,81.1z"/>
	<path d="M41.3,94.3C41.2,94.3,41.2,94.3,41.3,94.3c-0.1-0.1-0.1-0.1-0.1-0.2c0,0,0.1,0,0.1,0C41.3,94.2,41.3,94.2,41.3,94.3z"/>
	<path d="M30.1,51.5c-0.1,0-0.1,0-0.2-0.1c0.1,0,0.1-0.1,0.2-0.1C30.1,51.4,30.1,51.4,30.1,51.5C30.2,51.5,30.1,51.5,30.1,51.5z"/>
	<path d="M34.2,23.2C34.3,23.2,34.3,23.2,34.2,23.2c0.1,0.1,0.1,0.2,0.1,0.2c0,0-0.1,0-0.1,0C34.2,23.3,34.2,23.3,34.2,23.2
		C34.2,23.2,34.2,23.2,34.2,23.2z"/>
	<path d="M49.8,84.5C49.8,84.4,49.8,84.4,49.8,84.5c0-0.2,0-0.2,0-0.3c0,0,0,0,0,0c0,0.1,0,0.1,0,0.2C49.9,84.4,49.8,84.4,49.8,84.5
		z"/>
	<path d="M36,65.6c0,0.1,0,0.1-0.1,0.2c0,0,0,0,0,0C36,65.7,36,65.6,36,65.6C36,65.5,36,65.5,36,65.6z"/>
	<path d="M66.9,56.7C66.9,56.8,66.9,56.8,66.9,56.7C66.9,56.8,66.9,56.8,66.9,56.7c-0.1,0.1-0.2,0.1-0.2,0.1
		C66.7,56.8,66.8,56.7,66.9,56.7z"/>
	<path d="M48.9,85.9c0-0.1,0-0.2,0-0.3c0,0,0,0,0,0C49,85.7,49,85.8,48.9,85.9C49,85.9,49,85.9,48.9,85.9z"/>
	<path d="M41.8,84.3C41.8,84.3,41.7,84.4,41.8,84.3c-0.1,0.1-0.1,0.1-0.1,0.2c0-0.1,0-0.1,0-0.2C41.7,84.3,41.7,84.3,41.8,84.3z"/>
	<path d="M61,58.5C61.1,58.5,61.1,58.6,61,58.5c-0.1,0.1-0.1,0.1-0.2,0.1c0,0,0-0.1,0-0.1C60.9,58.6,61,58.5,61,58.5z"/>
	<path d="M64.8,88.3c0,0-0.1,0-0.1-0.1c0,0,0-0.1,0-0.1C64.7,88.1,64.8,88.2,64.8,88.3z"/>
	<path d="M68,88.4C68,88.4,68,88.4,68,88.4c0.1,0.1,0.2,0.1,0.2,0.2c0,0,0,0,0,0c-0.1-0.1-0.1-0.1-0.2-0.2C68,88.5,68,88.5,68,88.4z
		"/>
	<path d="M70.7,92.5C70.7,92.6,70.7,92.6,70.7,92.5C70.7,92.6,70.6,92.5,70.7,92.5c-0.1-0.1-0.1-0.1-0.1-0.2
		C70.7,92.4,70.7,92.4,70.7,92.5z"/>
	<path d="M71.6,87.3c0,0,0.1,0.1,0.1,0.1c0,0-0.1,0-0.1,0C71.4,87.4,71.6,87.3,71.6,87.3z"/>
	<path d="M35.7,70.8c0,0.1-0.1,0.1-0.1,0.2c0,0,0,0,0-0.1C35.6,70.9,35.6,70.8,35.7,70.8C35.6,70.8,35.7,70.8,35.7,70.8z"/>
	<path d="M35.5,50c0,0,0,0.1,0.1,0.1c-0.1,0-0.1,0-0.2,0C35.4,50.1,35.4,50.1,35.5,50z"/>
	<path d="M53.6,83.8c0.1,0,0.2,0,0.2,0.1c0,0,0,0,0,0C53.6,83.9,53.6,83.9,53.6,83.8C53.5,83.9,53.5,83.9,53.6,83.8z"/>
	<path d="M38.5,61.7c0,0,0-0.1,0-0.1c0.1,0,0.1,0.1,0.2,0.1c0,0,0,0,0,0.1C38.6,61.8,38.5,61.8,38.5,61.7z"/>
	<path d="M65.8,57.1C65.8,57.1,65.8,57.1,65.8,57.1C65.9,57,65.9,57,66,57C65.9,57.1,65.9,57.1,65.8,57.1
		C65.8,57.1,65.8,57.1,65.8,57.1z"/>
	<path d="M41.6,74.1c0,0.1-0.1,0.1-0.1,0.2c0,0,0,0,0,0C41.5,74.2,41.6,74.2,41.6,74.1z"/>
	<path d="M38.6,80.7c0-0.1,0-0.1,0-0.2c0,0,0.1,0,0.1,0C38.7,80.6,38.7,80.6,38.6,80.7C38.7,80.7,38.6,80.7,38.6,80.7
		C38.6,80.7,38.6,80.7,38.6,80.7z"/>
	<path d="M23,18.8C23,18.8,23,18.8,23,18.8c0.1,0,0.2-0.1,0.2-0.1c0,0,0,0,0,0C23.1,18.8,23.1,18.8,23,18.8z"/>
	<path d="M27.4,38.4c0-0.1,0-0.1,0.1-0.2C27.5,38.3,27.5,38.3,27.4,38.4C27.5,38.4,27.5,38.5,27.4,38.4z"/>
	<path d="M63.4,71.8c0-0.1,0-0.1,0-0.2c0,0,0.1,0,0.1,0C63.4,71.7,63.4,71.8,63.4,71.8z"/>
	<path d="M48.6,56.5C48.6,56.5,48.6,56.6,48.6,56.5c-0.1,0.1-0.1,0-0.2,0C48.5,56.5,48.5,56.5,48.6,56.5z"/>
	<path d="M31.7,43.6c0-0.1-0.1-0.2-0.1-0.2c0,0,0,0,0,0C31.7,43.4,31.7,43.5,31.7,43.6z"/>
	<path d="M30.8,22.4c0-0.1,0-0.1,0-0.2c0,0,0.1,0,0.1,0C30.9,22.3,30.9,22.3,30.8,22.4z"/>
	<path d="M29.2,77.3c0-0.1,0-0.1,0-0.1c0,0,0.1,0,0.1-0.1C29.3,77.2,29.3,77.2,29.2,77.3C29.2,77.3,29.2,77.3,29.2,77.3z"/>
	<path d="M43,68.7c0,0.1,0,0.1,0,0.1c0,0-0.1,0-0.1,0C42.9,68.7,43,68.7,43,68.7C43,68.6,43,68.6,43,68.7z"/>
	<path d="M33.3,23c-0.1,0-0.1,0-0.1,0C33.2,23,33.2,22.9,33.3,23C33.3,22.9,33.3,23,33.3,23z"/>
	<path d="M28.5,41c0.1,0,0.1,0,0.2,0c0,0,0,0,0,0.1C28.6,41.1,28.5,41.1,28.5,41z"/>
	<path d="M41.8,71.1c0,0-0.1,0.1-0.1,0.1c0,0,0,0,0,0C41.7,71.1,41.8,71.1,41.8,71.1C41.8,71,41.8,71.1,41.8,71.1z"/>
	<path d="M65,89.1c0,0,0-0.1-0.1-0.1c0,0,0,0,0.1,0C65,89,65,89.1,65,89.1z"/>
	<path d="M67.3,56.7C67.3,56.7,67.3,56.6,67.3,56.7C67.3,56.6,67.4,56.6,67.3,56.7C67.4,56.6,67.4,56.7,67.3,56.7z"/>
	<path d="M41.5,74.8c0.1,0,0.1,0,0.2,0c0,0,0,0,0,0C41.6,74.8,41.6,74.8,41.5,74.8z"/>
	<path d="M60.4,92.3c0,0,0,0.1,0.1,0.1c0,0,0,0-0.1,0C60.4,92.4,60.4,92.3,60.4,92.3z"/>
	<path d="M31.9,18.6C31.9,18.6,31.9,18.6,31.9,18.6c-0.1,0-0.2,0-0.3,0C31.7,18.6,31.8,18.6,31.9,18.6z"/>
	<path d="M73.5,90.2c0,0-0.1-0.1-0.1-0.1c0,0,0.1,0,0.1,0C73.5,90.1,73.5,90.2,73.5,90.2z"/>
	<path d="M43.1,82.9c0,0-0.1,0-0.1,0C43,82.9,43.1,82.9,43.1,82.9C43.1,82.9,43.1,82.9,43.1,82.9z"/>
	<path d="M42.5,67.2c0,0,0,0.1,0,0.1c0,0,0,0,0,0C42.5,67.3,42.5,67.3,42.5,67.2z"/>
	<path d="M35.7,51.8c0,0,0,0.1,0,0.1c0,0,0,0-0.1,0C35.7,51.8,35.7,51.8,35.7,51.8z"/>
	<path d="M68,83c0,0-0.1,0-0.1,0C67.9,83,67.9,83,68,83C68,83,68,83,68,83z"/>
	<path d="M76.1,18.4c0.1,0,0.1,0,0.2,0c0,0,0,0,0,0C76.2,18.4,76.2,18.4,76.1,18.4z"/>
	<path d="M59.1,75.4C59.1,75.4,59,75.4,59.1,75.4C59,75.3,59,75.3,59.1,75.4C59.1,75.3,59.1,75.3,59.1,75.4z"/>
	<path d="M56.4,65.4c-0.1,0-0.1,0-0.1-0.1c0,0,0,0,0,0c0.1,0,0.1,0,0.2,0c0.1,0,0.1,0.1,0.1,0.1C56.5,65.4,56.4,65.4,56.4,65.4
		C56.4,65.4,56.4,65.4,56.4,65.4z"/>
	<path d="M53.4,68.7C53.5,68.7,53.5,68.7,53.4,68.7c0.1,0,0.2,0,0.2,0c0,0,0,0.1,0,0.1C53.6,68.8,53.5,68.8,53.4,68.7z"/>
	<path d="M57.8,69.1c0,0,0.1-0.1,0.1-0.1C58,69,57.9,69,57.8,69.1C57.9,69.1,57.9,69.1,57.8,69.1c0,0.1,0,0.2,0,0.2
		C57.9,69.2,57.9,69.1,57.8,69.1z"/>
	<path d="M61.3,66.7c0.1-0.1,0.2-0.3,0.4-0.4c0,0,0.2,0.1,0.2,0.1c-0.1,0-0.1,0-0.2,0C61.6,66.6,61.4,66.6,61.3,66.7z"/>
	<path d="M62.3,67.1c-0.1,0.1-0.3,0.1-0.4,0c0,0,0-0.1,0-0.1C62.1,67.1,62.2,67.1,62.3,67.1z"/>
	<path d="M60.9,63.9c-0.1-0.1-0.1-0.1-0.2-0.2c0,0,0,0,0,0c0.1,0,0.1,0,0.2,0.1C61,63.7,61,63.8,60.9,63.9z"/>
	<path d="M36.6,55.1c0.1,0.1,0.1,0.1,0.2,0.2c-0.1,0-0.2,0-0.3,0c-0.1,0-0.1-0.1-0.2-0.1C36.5,55.1,36.6,55.1,36.6,55.1z"/>
	<path d="M36.1,54.6c0-0.1,0.1-0.1,0.1-0.1c0.1,0.1,0.1,0.1,0.2,0.2c0,0-0.1,0.1-0.1,0.1C36.2,54.7,36.2,54.6,36.1,54.6z"/>
	<path d="M37.1,55.8C37,55.9,37,55.9,37.1,55.8c-0.1,0-0.2,0-0.2,0c0,0,0.1-0.1,0.1-0.1C37,55.8,37,55.8,37.1,55.8
		C37.1,55.8,37.1,55.8,37.1,55.8z"/>
	<path d="M36.6,55.8c0,0-0.1,0-0.1,0c0,0,0,0,0-0.1C36.5,55.7,36.5,55.8,36.6,55.8z"/>
	<path d="M29.1,43.8c0-0.1,0-0.1,0-0.2c0,0,0,0,0,0C29.1,43.7,29.1,43.7,29.1,43.8z"/>
	<path d="M27.8,43.1C27.8,43.2,27.8,43.2,27.8,43.1c-0.1,0.1-0.1,0.1-0.1,0.2c0,0,0-0.1,0-0.1C27.7,43.2,27.8,43.1,27.8,43.1z"/>
	<path d="M37.4,76.2c0.1-0.1,0.1-0.1,0.2-0.1c0,0,0,0.1,0,0.1c-0.1,0.1-0.1,0.1-0.2,0.2C37.4,76.3,37.4,76.3,37.4,76.2z"/>
	<path d="M27.7,19.5c0.1,0,0.1,0,0.1,0c0,0,0.1,0,0.1,0.1c0,0-0.1,0-0.1,0c0,0,0,0,0,0c-0.1,0-0.3,0-0.4-0.1
		C27.5,19.5,27.6,19.5,27.7,19.5z"/>
	<path d="M28.2,19.4C28.2,19.3,28.2,19.3,28.2,19.4c-0.1-0.1,0-0.1,0-0.1C28.2,19.3,28.2,19.3,28.2,19.4z"/>
</g>
</svg>
