<?xml version="1.0" encoding="utf-8"?>
<!-- Generator: Adobe Illustrator 20.1.0, SVG Export Plug-In . SVG Version: 6.00 Build 0)  -->
<svg version="1.1" id="Layer_1" xmlns="http://www.w3.org/2000/svg" xmlns:xlink="http://www.w3.org/1999/xlink" x="0px" y="0px"
	 viewBox="0 0 100 100" style="enable-background:new 0 0 100 100;" xml:space="preserve">
<g id="Shape_24">
	<path d="M16.6,66.6c-0.4,0-0.6-0.6-0.6-1c0-13.3,0-26.6,0-39.9c0-0.2,0-0.5,0.2-0.7c0.1-0.1,0.4-0.1,0.6-0.1c1.9,0,3.8,0,5.7,0
		c0.5,0,1.2,0.2,1.2,0.7c0,5,0,9.9,0,14.9c0,0.2,0,0.4,0.1,0.5c0.1,0.1,0.3,0.1,0.5,0.1c5.2,0,10.4,0,15.5,0c0.4,0,1-0.1,1-0.6
		c0-4.9,0-9.7,0-14.6c0-0.2,0-0.5,0.2-0.7c0.2-0.3,0.6-0.3,1-0.3c2.1,0,4.2,0,6.3,0c0.2,0,0.4,0,0.5,0.1c0.2,0.2,0.3,0.5,0.3,0.8
		c0,13.3,0,26.7,0,40c0,0.2,0,0.5-0.2,0.7c-0.1,0.1-0.4,0.1-0.5,0.1c-2.1,0-4.2,0-6.3,0c-0.3,0-0.6,0-0.9-0.2
		c-0.2-0.2-0.2-0.6-0.2-0.9c0-5.8,0-11.5,0-17.3c-5.5,0-11.1,0-16.6,0c-0.1,0-0.3,0-0.4,0.1c-0.1,0.1-0.1,0.3-0.1,0.4
		c0,5.7,0,11.5,0,17.2c0,0.5-0.7,0.7-1.2,0.7C20.5,66.6,18.6,66.6,16.6,66.6z"/>
	<path d="M66.7,77.6c-0.2,0-0.3,0-0.4-0.1c-0.1-0.1-0.1-0.4,0.1-0.4c-4.5-0.2-8.6-3.8-9.4-8.3c-0.1-0.7,0.1-1.8,0.8-1.8
		c2,0,3.9,0,5.9,0c0.3,0,0.6,0,0.7,0.2c0.1,0.2,0.2,0.4,0.2,0.6c0.1,0.2,0.3,0.4,0.5,0.3c-0.1,0.6,0.1,1.2,0.5,1.7
		c0.2,0.2,0.5,0.4,0.8,0.5c1.3,0.7,2.8,0.9,4.2,0.8c0.3,0,0.7-0.3,0.6-0.5c1.1,0.1,2.2-0.6,2.8-1.5c0.6-0.9,0.8-2,0.9-3.1
		c0-0.1,0-0.2-0.1-0.3c-0.1-0.2-0.4-0.1-0.6,0c-4.2,2.4-9.9,1.8-13.5-1.4c-1.4-1.2-2.5-2.8-3.2-4.5c-0.5-1.2-0.8-2.5-1-3.8
		c-0.3-1.4-0.6-2.8-0.6-4.2c0-1.5,0.3-2.9,0.6-4.3c0.3-1.2,0.5-2.5,1-3.6c1.2-3.2,3.8-5.8,7-7.1c3.2-1.3,6.8-1.2,9.9,0.2
		c0.3,0.1,0.7,0.3,0.9,0c0.4-0.4,1.1-0.5,1.7-0.5c1.8,0,3.5,0,5.3,0.1c0.2,0,0.4,0,0.5,0.1c0.2,0.1,0.2,0.4,0.2,0.6
		c0,7.2,0,14.5,0,21.7c0,1.4,0,2.9-0.1,4.3c-0.1,1.4-0.2,2.7-0.5,4.1c-0.2,1.1-0.4,2.1-0.8,3.2c-1.4,3.7-5.1,6.4-9,6.7
		c0.2,0.2-0.2,0.4-0.4,0.4C70.3,77.6,68.5,77.6,66.7,77.6 M73.9,43.6c-1.7-1.1-3.8-1.5-5.8-1.2c-0.6,0.1-1.1,0.3-1.6,0.6
		c-0.8,0.6-1.3,1.5-1.7,2.5c-1.3,3.5-1.4,7.3-0.4,10.9c0.4,1.3,1,2.7,2.1,3.5c1.7,1.2,4.2,0.8,5.9-0.4c1.1-0.7,2.1-1.7,2.7-2.9
		c0.1-3.4,0.1-6.8,0-10.2c0-0.6,0-1.3-0.3-1.8C74.7,44.2,74.3,43.9,73.9,43.6 M75.2,65.1c-0.1,0-0.2,0.2-0.1,0.3
		C75.3,65.4,75.3,65.2,75.2,65.1L75.2,65.1z"/>
</g>
</svg>
